<svg width="231" height="231" viewBox="0 0 231 231" fill="none" xmlns="http://www.w3.org/2000/svg">
<path d="M4.09272 85.5275L5.03129 85.7511L4.06327 89.8076L3.1247 89.584L4.09272 85.5275ZM3.18216 89.3432L10.3758 91.0571L10.1032 92.1994L2.90958 90.4854L3.18216 89.3432ZM4.31373 84.6013L11.5074 86.3153L11.2333 87.4637L4.03968 85.7497L4.31373 84.6013Z" fill="white" fill-opacity="0.2"/>
<path d="M10.4541 80.5437L9.80928 82.55L8.88449 82.2534L9.52931 80.2471C9.64843 79.8764 9.69251 79.5595 9.66154 79.2962C9.62655 79.0317 9.53385 78.8153 9.38345 78.6471C9.23305 78.4788 9.03696 78.356 8.79518 78.2784C8.5655 78.2047 8.33445 78.1906 8.10204 78.2361C7.86963 78.2815 7.65608 78.3997 7.46138 78.5906C7.26266 78.7802 7.10374 79.0603 6.98462 79.4309L6.43691 81.1351L12.5538 83.0969L12.1945 84.2149L5.15281 81.9565L6.05982 79.1343C6.24498 78.5582 6.49837 78.1017 6.81997 77.7649C7.13884 77.4228 7.49853 77.2026 7.89902 77.1044C8.29678 77.0009 8.71124 77.0183 9.1424 77.1565C9.48089 77.2651 9.76635 77.4211 9.99878 77.6245C10.2272 77.8267 10.3992 78.0729 10.5148 78.3633C10.6304 78.6537 10.6848 78.9822 10.6781 79.3489C10.6673 79.7143 10.5926 80.1126 10.4541 80.5437Z" fill="white" fill-opacity="0.2"/>
<path d="M14.4781 75.8822L9.95562 68.9406L10.8108 68.3911L15.3357 75.3268L14.4781 75.8822ZM9.95562 68.9406L10.4019 67.8475L17.2506 70.6373L16.8042 71.7303L9.95562 68.9406ZM8.04316 73.6243L8.48708 72.5371L15.3357 75.3268L14.8918 76.414L8.04316 73.6243Z" fill="white" fill-opacity="0.2"/>
<path d="M17.0196 64.9494L16.0758 66.8337L15.207 66.3996L16.1508 64.5154C16.3251 64.1673 16.4171 63.8608 16.4267 63.596C16.4325 63.3292 16.3739 63.1013 16.251 62.9121C16.128 62.723 15.9529 62.5717 15.7258 62.4582C15.51 62.3504 15.2838 62.3013 15.0471 62.3107C14.8105 62.3202 14.5813 62.4044 14.3597 62.5634C14.1343 62.7204 13.9345 62.973 13.7601 63.3211L12.9585 64.9216L18.7051 67.7924L18.1792 68.8424L11.5637 65.5375L12.8913 62.8871C13.1623 62.346 13.4825 61.9336 13.8518 61.6498C14.2193 61.3603 14.6084 61.1975 15.0193 61.1615C15.4283 61.1199 15.8353 61.2002 16.2404 61.4026C16.5583 61.5614 16.8167 61.7591 17.0154 61.9955C17.2103 62.2301 17.3427 62.4996 17.4126 62.8042C17.4825 63.1087 17.4861 63.4417 17.4234 63.803C17.357 64.1624 17.2224 64.5445 17.0196 64.9494Z" fill="white" fill-opacity="0.2"/>
<path d="M21.8795 54.2276L22.2389 54.4429C22.718 54.73 23.109 55.053 23.4117 55.412C23.7107 55.7688 23.9216 56.1492 24.0442 56.5531C24.1631 56.9549 24.191 57.3687 24.1277 57.7945C24.0629 58.2145 23.9053 58.6331 23.6546 59.0503C23.4083 59.4601 23.1138 59.7943 22.771 60.0526C22.4267 60.3051 22.0469 60.4771 21.6315 60.5686C21.2147 60.6544 20.7772 60.6512 20.319 60.5593C19.8572 60.4651 19.3867 60.2745 18.9076 59.9874L18.5482 59.7721C18.069 59.485 17.681 59.1612 17.3841 58.8008C17.0836 58.4382 16.872 58.055 16.7494 57.651C16.629 57.2434 16.6011 56.8296 16.6659 56.4096C16.7292 55.9838 16.884 55.5659 17.1302 55.156C17.3831 54.7353 17.6816 54.3986 18.0259 54.1461C18.3687 53.8878 18.7474 53.7176 19.1621 53.6355C19.5789 53.5498 20.0171 53.5558 20.4767 53.6536C20.9327 53.7492 21.4003 53.9405 21.8795 54.2276ZM21.6406 55.4387L21.2703 55.2168C20.9109 55.0015 20.5693 54.8511 20.2455 54.7656C19.9217 54.6801 19.6196 54.657 19.3393 54.6962C19.059 54.7355 18.8034 54.8364 18.5724 54.9989C18.3415 55.1615 18.1421 55.3824 17.9742 55.6617C17.813 55.9301 17.7159 56.2025 17.6832 56.4789C17.6504 56.7553 17.6816 57.028 17.7766 57.2971C17.8739 57.5625 18.0354 57.8196 18.2611 58.0683C18.4869 58.317 18.7794 58.5491 19.1388 58.7644L19.5091 58.9862C19.8685 59.2015 20.213 59.3512 20.5426 59.4353C20.8686 59.5171 21.1747 59.5377 21.4608 59.497C21.7433 59.4541 21.9989 59.3532 22.2277 59.1943C22.4587 59.0318 22.6548 58.8163 22.8161 58.5478C22.9861 58.2649 23.0874 57.9853 23.1202 57.7089C23.1529 57.4325 23.1207 57.1616 23.0235 56.8962C22.9226 56.6286 22.7571 56.374 22.527 56.1325C22.2955 55.8853 22 55.654 21.6406 55.4387Z" fill="white" fill-opacity="0.2"/>
<path d="M21.1434 49.2521L21.8189 48.3071L24.0239 50.0034C24.4872 50.3596 24.8768 50.7022 25.1929 51.0314C25.508 51.3547 25.7622 51.6685 25.9557 51.9727C26.1482 52.271 26.2935 52.559 26.3914 52.8367C26.4884 53.1085 26.5493 53.3727 26.5739 53.6293C26.5975 53.88 26.6015 54.1219 26.5858 54.3549L26.2461 54.83L25.4789 54.2442L25.6266 54.0376C25.5744 53.8341 25.5123 53.6262 25.4404 53.4139C25.371 53.1981 25.2615 52.9693 25.1118 52.7275C24.9646 52.4823 24.7499 52.215 24.4679 51.9256C24.1882 51.6327 23.8116 51.3045 23.338 50.941L21.1434 49.2521ZM21.3058 49.0248L24.0043 45.2501L30.0263 49.5422L29.3434 50.4975L24.1071 46.7654L22.0915 49.5848L21.3058 49.0248ZM25.3054 54.4869L29.7685 48.2438L32.3117 50.0564L31.625 51.0169L29.8675 49.7643L26.7777 54.0864L28.53 55.3354L27.8397 56.301L25.3054 54.4869Z" fill="white" fill-opacity="0.2"/>
<path d="M28.8128 41.0876L32.059 47.1057L31.2859 48.0231L27.5829 40.9415L28.0779 40.3541L28.8128 41.0876ZM35.0859 43.5138L28.5848 41.3188L27.7588 40.7327L28.2579 40.1406L35.8549 42.6012L35.0859 43.5138ZM32.8806 41.8851L33.6194 42.5057L30.7888 45.8647L30.0501 45.244L32.8806 41.8851Z" fill="white" fill-opacity="0.2"/>
<path d="M48.0599 22.0475L52.4731 27.9813L51.5347 28.6767L47.1215 22.7429L48.0599 22.0475ZM50.0947 20.5395L50.6743 21.3188L45.6765 25.0227L45.0969 24.2434L50.0947 20.5395Z" fill="white" fill-opacity="0.2"/>
<path d="M56.1909 24.7347L56.5302 16.46L57.546 16.5083L57.2121 24.7797L56.1909 24.7347ZM56.5302 16.46L57.5279 15.8287L61.4925 22.0711L60.4948 22.7024L56.5302 16.46ZM52.2551 19.1651L53.2474 18.5372L57.2121 24.7797L56.2197 25.4076L52.2551 19.1651Z" fill="white" fill-opacity="0.2"/>
<path d="M69.506 16.8122L69.9519 17.6678L63.856 20.832L63.4101 19.9763L69.506 16.8122ZM64.1232 12.3614L67.5406 18.9195L66.4983 19.4605L63.081 12.9024L64.1232 12.3614ZM67.3796 10.6711L70.797 17.2292L69.7491 17.7731L66.3317 11.215L67.3796 10.6711ZM60.8725 14.0487L64.2898 20.6068L63.2475 21.1478L59.8302 14.5897L60.8725 14.0487Z" fill="white" fill-opacity="0.2"/>
<path d="M72.5071 15.992L74.2487 7.89475L75.2414 8.11502L73.5057 16.2099L72.5071 15.992ZM74.2487 7.89475L75.3392 7.44214L78.1841 14.268L77.0937 14.7206L74.2487 7.89475ZM69.5761 9.83415L70.6608 9.38398L73.5057 16.2099L72.4211 16.66L69.5761 9.83415Z" fill="white" fill-opacity="0.2"/>
<path d="M83.7795 8.11171L84.0834 9.03413L80.0241 10.3654L79.7203 9.443L83.7795 8.11171ZM78.9226 6.27094L81.2364 13.2946L80.1206 13.6606L77.8067 6.63689L78.9226 6.27094ZM83.6815 4.71018L85.9953 11.7339L84.8795 12.0998L82.5656 5.07614L83.6815 4.71018Z" fill="white" fill-opacity="0.2"/>
<path d="M89.385 4.3765L88.4591 11.1522L87.2938 11.4379L88.4779 3.5336L89.2238 3.35072L89.385 4.3765ZM93.0212 10.0338L89.0646 4.42893L88.743 3.46861L89.4951 3.28422L94.1803 9.74961L93.0212 10.0338ZM92.2003 7.41817L92.4311 8.35499L88.1649 9.4009L87.934 8.46407L92.2003 7.41817Z" fill="white" fill-opacity="0.2"/>
<path d="M114.28 0.339198L114.365 7.73373L113.191 7.74665L113.106 0.352122L114.28 0.339198ZM117.942 0.298889L117.954 1.27002L114.012 1.3134L114.001 0.342272L117.942 0.298889Z" fill="white" fill-opacity="0.2"/>
<path d="M123.492 1.6413L120.599 7.84044L119.401 7.76902L122.875 0.568022L123.642 0.613748L123.492 1.6413ZM125.288 8.12008L123.17 1.59669L123.147 0.584272L123.92 0.630376L126.479 8.19113L125.288 8.12008ZM125.279 5.37886L125.222 6.342L120.837 6.08049L120.894 5.11735L125.279 5.37886Z" fill="white" fill-opacity="0.2"/>
<path d="M131.708 6.13305L129.62 5.84728L129.752 4.88506L131.84 5.17084C132.226 5.22363 132.545 5.21188 132.799 5.13558C133.054 5.05508 133.251 4.92615 133.39 4.74878C133.53 4.57141 133.617 4.35695 133.651 4.10539C133.684 3.86641 133.658 3.63645 133.573 3.41551C133.488 3.19458 133.334 3.00487 133.113 2.84638C132.891 2.6837 132.588 2.57596 132.202 2.52317L130.429 2.28043L129.558 8.6449L128.394 8.48566L129.397 1.15897L132.334 1.56095C132.934 1.64301 133.427 1.81307 133.815 2.07112C134.207 2.32556 134.486 2.64141 134.652 3.01867C134.823 3.39231 134.878 3.80344 134.817 4.25205C134.768 4.60424 134.664 4.91246 134.504 5.17673C134.345 5.4368 134.132 5.64902 133.866 5.81336C133.6 5.97771 133.286 6.08847 132.924 6.14566C132.562 6.19866 132.157 6.19445 131.708 6.13305Z" fill="white" fill-opacity="0.2"/>
<path d="M138.538 2.63638L139.616 2.87564L140.785 9.05832L144.456 3.94957L145.535 4.18883L140.851 10.7244L140.014 10.5387L138.538 2.63638ZM138.135 2.547L139.108 2.76288L138.225 7.52795L137.671 10.0189L136.531 9.76594L138.135 2.547ZM144.971 4.0637L145.95 4.28096L144.346 11.4999L143.199 11.2455L143.753 8.75451L144.971 4.0637Z" fill="white" fill-opacity="0.2"/>
<path d="M152.897 10.1591L152.772 10.5592C152.607 11.0926 152.385 11.5489 152.108 11.9281C151.832 12.3033 151.512 12.5984 151.148 12.8135C150.786 13.0245 150.39 13.1499 149.961 13.1897C149.537 13.2267 149.093 13.1731 148.628 13.029C148.172 12.8873 147.777 12.6808 147.445 12.4095C147.118 12.1353 146.861 11.8075 146.674 11.426C146.492 11.0417 146.391 10.6162 146.372 10.1496C146.355 9.67886 146.429 9.17679 146.594 8.64336L146.719 8.24328C146.884 7.70985 147.107 7.25618 147.388 6.88227C147.669 6.50432 147.991 6.20781 148.355 5.99274C148.723 5.77893 149.119 5.65352 149.542 5.61652C149.971 5.57673 150.414 5.62765 150.871 5.76929C151.34 5.91468 151.737 6.12446 152.064 6.39863C152.397 6.67002 152.652 6.99722 152.83 7.38024C153.012 7.76452 153.109 8.19138 153.123 8.66083C153.138 9.12623 153.062 9.62565 152.897 10.1591ZM151.663 10.2151L151.791 9.80291C151.915 9.40283 151.981 9.03544 151.987 8.70074C151.994 8.36603 151.945 8.06729 151.84 7.80451C151.736 7.54172 151.577 7.31755 151.365 7.13198C151.152 6.94641 150.89 6.80537 150.579 6.70886C150.28 6.61611 149.992 6.58669 149.716 6.6206C149.439 6.6545 149.181 6.74958 148.942 6.90583C148.707 7.06333 148.495 7.28123 148.307 7.55953C148.119 7.83783 147.962 8.17702 147.838 8.57709L147.71 8.98929C147.586 9.38937 147.522 9.75941 147.518 10.0994C147.515 10.4354 147.568 10.7374 147.675 11.0055C147.784 11.2695 147.942 11.4937 148.151 11.678C148.363 11.8636 148.619 12.0027 148.918 12.0955C149.234 12.1932 149.529 12.2252 149.806 12.1912C150.082 12.1573 150.338 12.0616 150.573 11.9041C150.809 11.7426 151.018 11.5214 151.198 11.2406C151.384 10.957 151.539 10.6152 151.663 10.2151Z" fill="white" fill-opacity="0.2"/>
<path d="M160.031 12.7496L159.673 13.6523L155.701 12.079L156.059 11.1763L160.031 12.7496ZM157.482 8.23042L154.753 15.1035L153.661 14.671L156.39 7.79794L157.482 8.23042ZM162.138 10.0749L159.409 16.9479L158.317 16.5154L161.046 9.64241L162.138 10.0749Z" fill="white" fill-opacity="0.2"/>
<path d="M161.836 17.5035L169.072 13.4541L169.563 14.3431L162.333 18.3954L161.836 17.5035ZM169.072 13.4541L170.134 13.9715L166.886 20.6152L165.825 20.0978L169.072 13.4541ZM164.525 11.237L165.581 11.7516L162.333 18.3954L161.277 17.8808L164.525 11.237Z" fill="white" fill-opacity="0.2"/>
<path d="M172.952 19.9156L169.382 22.1056L168.303 21.4733L171.933 19.3186L172.952 19.9156ZM174.261 21.4335L172.174 20.2106C172.124 20.1712 172.089 20.1386 172.07 20.1126C172.051 20.0867 172.028 20.0586 172.002 20.0284C171.981 19.9967 171.939 19.9522 171.874 19.8948C171.865 19.8847 171.852 19.8649 171.835 19.8353C171.818 19.8058 171.801 19.7762 171.784 19.7466C171.768 19.717 171.755 19.6972 171.746 19.6872C171.456 19.4043 171.248 19.1183 171.123 18.8294C171.004 18.539 170.957 18.2515 170.982 17.9669C171.011 17.6844 171.104 17.4101 171.26 17.1437C171.434 16.8482 171.639 16.6155 171.877 16.4456C172.116 16.272 172.382 16.1656 172.675 16.1264C172.97 16.0836 173.287 16.1047 173.625 16.1898C173.962 16.275 174.317 16.4266 174.69 16.6449L177.203 18.1181L173.456 24.4936L172.438 23.8966L175.696 18.3529L174.201 17.4767C173.73 17.2007 173.334 17.1013 173.014 17.1785C172.697 17.2578 172.445 17.458 172.256 17.779C172.136 17.9833 172.075 18.1878 172.072 18.3924C172.07 18.5969 172.141 18.7979 172.285 18.9952C172.431 19.1889 172.661 19.3777 172.975 19.5617L174.761 20.6081L174.261 21.4335Z" fill="white" fill-opacity="0.2"/>
<path d="M197.919 34.8442L197.249 35.5387L194.242 32.6489L194.912 31.9543L197.919 34.8442ZM195.09 32.1259L189.957 37.4493L189.111 36.6356L194.244 31.3121L195.09 32.1259ZM198.605 35.504L193.472 40.8274L192.621 40.0093L197.754 34.6858L198.605 35.504Z" fill="white" fill-opacity="0.2"/>
<path d="M198.993 42.8515L197.59 41.2793L198.316 40.6338L199.719 42.206C199.978 42.4965 200.229 42.6951 200.472 42.8019C200.718 42.906 200.952 42.9359 201.173 42.8918C201.395 42.8476 201.601 42.7412 201.79 42.5724C201.971 42.4121 202.1 42.2204 202.179 41.9974C202.258 41.7743 202.264 41.5306 202.199 41.2663C202.136 40.9991 201.975 40.7203 201.716 40.4299L200.524 39.0944L195.724 43.3639L194.942 42.4878L200.467 37.5728L202.441 39.7844C202.844 40.2359 203.109 40.6854 203.237 41.1329C203.37 41.5808 203.377 42.002 203.258 42.3965C203.146 42.7913 202.92 43.1392 202.582 43.4401C202.316 43.6764 202.037 43.8429 201.743 43.9398C201.453 44.0339 201.153 44.057 200.844 44.0093C200.534 43.9615 200.223 43.8418 199.91 43.65C199.601 43.4555 199.295 43.1893 198.993 42.8515Z" fill="white" fill-opacity="0.2"/>
<path d="M200.977 48.6819L209.264 48.3114L209.304 49.3259L201.021 49.7015L200.977 48.6819ZM209.264 48.3114L209.98 49.2498L204.095 53.7275L203.378 52.7891L209.264 48.3114ZM206.194 44.2904L206.906 45.2238L201.021 49.7015L200.308 48.7682L206.194 44.2904Z" fill="white" fill-opacity="0.2"/>
<path d="M209.126 56.4174L207.979 54.6495L208.795 54.1223L209.942 55.8902C210.154 56.2168 210.371 56.4515 210.595 56.5941C210.822 56.7344 211.049 56.7997 211.274 56.7898C211.5 56.78 211.719 56.7062 211.933 56.5684C212.135 56.4374 212.293 56.2677 212.405 56.0593C212.516 55.8509 212.56 55.6111 212.535 55.3398C212.514 55.0662 212.398 54.7661 212.186 54.4395L211.212 52.9378L205.817 56.425L205.178 55.4399L211.388 51.4255L213.002 53.9123C213.331 54.42 213.524 54.9047 213.582 55.3664C213.645 55.8294 213.588 56.2467 213.41 56.6184C213.239 56.9914 212.963 57.3008 212.583 57.5466C212.284 57.7396 211.982 57.8616 211.677 57.9125C211.376 57.9612 211.076 57.9383 210.778 57.8439C210.48 57.7496 210.19 57.5837 209.91 57.3465C209.634 57.107 209.372 56.7973 209.126 56.4174Z" fill="white" fill-opacity="0.2"/>
<path d="M215.917 66.0418L215.549 66.2417C215.058 66.5081 214.581 66.6805 214.117 66.7587C213.657 66.8348 213.222 66.8231 212.811 66.7235C212.404 66.6219 212.033 66.4359 211.697 66.1653C211.368 65.8964 211.087 65.5483 210.854 65.121C210.625 64.7011 210.486 64.2781 210.437 63.8521C210.394 63.4278 210.438 63.0137 210.57 62.61C210.707 62.2079 210.932 61.8332 211.244 61.4857C211.56 61.1363 211.963 60.8283 212.454 60.5618L212.822 60.362C213.313 60.0955 213.789 59.926 214.251 59.8536C214.716 59.7791 215.155 59.7917 215.565 59.8912C215.978 59.9945 216.35 60.1806 216.679 60.4495C217.015 60.7201 217.297 61.0653 217.526 61.4852C217.76 61.9163 217.899 62.3439 217.943 62.7683C217.992 63.1943 217.946 63.6065 217.807 64.0048C217.669 64.4069 217.442 64.7808 217.124 65.1265C216.81 65.4702 216.408 65.7753 215.917 66.0418ZM214.993 65.2216L215.372 65.0157C215.74 64.8159 216.044 64.5984 216.282 64.3632C216.52 64.128 216.693 63.8799 216.801 63.6189C216.91 63.3578 216.952 63.0867 216.929 62.8055C216.906 62.5243 216.817 62.2407 216.661 61.9546C216.511 61.6796 216.325 61.4579 216.103 61.2894C215.881 61.121 215.63 61.0093 215.35 60.9545C215.071 60.9034 214.767 60.9118 214.438 60.9798C214.109 61.0478 213.76 61.1817 213.392 61.3815L213.013 61.5874C212.644 61.7873 212.34 62.0077 212.101 62.2486C211.865 62.4875 211.691 62.7403 211.581 63.0071C211.475 63.2718 211.432 63.5429 211.454 63.8204C211.477 64.1016 211.563 64.3797 211.713 64.6546C211.871 64.9445 212.061 65.1736 212.283 65.3421C212.505 65.5105 212.755 65.6203 213.033 65.6714C213.315 65.7205 213.619 65.7073 213.944 65.632C214.275 65.5583 214.625 65.4215 214.993 65.2216Z" fill="white" fill-opacity="0.2"/>
<path d="M220.587 67.9364L221.06 68.9974L218.478 70.0327C217.935 70.2504 217.442 70.4115 216.997 70.5162C216.559 70.6231 216.159 70.6825 215.798 70.6945C215.443 70.7086 215.121 70.6873 214.831 70.6305C214.548 70.576 214.289 70.4941 214.055 70.385C213.826 70.278 213.616 70.1586 213.423 70.0267L213.185 69.4933L214.08 69.1308L214.183 69.3627C214.385 69.4212 214.596 69.4734 214.816 69.5194C215.037 69.5692 215.29 69.5912 215.575 69.5852C215.861 69.5831 216.201 69.5342 216.594 69.4385C216.988 69.3467 217.462 69.1894 218.016 68.9666L220.587 67.9364ZM220.701 68.1915L222.59 72.4296L215.831 75.4302L215.353 74.3576L221.23 71.7486L219.819 68.583L220.701 68.1915ZM213.958 68.8583L217.083 75.8678L214.228 77.135L213.748 76.0566L215.72 75.1809L213.557 70.3282L211.59 71.2013L211.107 70.1172L213.958 68.8583Z" fill="white" fill-opacity="0.2"/>
<path d="M223.746 78.6808L216.906 78.4159L216.506 77.2848L224.495 77.6969L224.751 78.4211L223.746 78.6808ZM218.471 82.8448L223.662 78.3671L224.586 77.9543L224.844 78.6844L218.869 83.9699L218.471 82.8448ZM220.995 81.7751L220.085 82.0953L218.621 77.9538L219.531 77.6335L220.995 81.7751Z" fill="white" fill-opacity="0.2"/>
<path d="M230.42 104.91L223.067 105.692L222.942 104.531L230.296 103.749L230.42 104.91ZM230.69 107.429L229.724 107.531L229.062 101.346L230.028 101.243L230.69 107.429Z" fill="white" fill-opacity="0.2"/>
<path d="M223.985 110.538L230.948 115.037L230.392 115.887L223.429 111.395L223.985 110.538ZM230.948 115.037L230.987 116.217L223.596 116.457L223.557 115.277L230.948 115.037ZM230.781 109.981L230.82 111.155L223.429 111.395L223.39 110.221L230.781 109.981Z" fill="white" fill-opacity="0.2"/>
<path d="M224.071 126.025L223.107 125.974L223.468 119.116L224.432 119.167L224.071 126.025ZM230.635 123.652L223.25 123.261L223.312 122.089L230.696 122.479L230.635 123.652ZM230.442 127.316L223.057 126.925L223.119 125.746L230.504 126.137L230.442 127.316ZM230.827 119.994L223.443 119.604L223.504 118.431L230.889 118.822L230.827 119.994Z" fill="white" fill-opacity="0.2"/>
<path d="M223.259 129.017L229.355 134.632L228.662 135.375L222.565 129.766L223.259 129.017ZM229.355 134.632L229.192 135.802L221.868 134.783L222.03 133.614L229.355 134.632ZM230.051 129.621L229.89 130.784L222.565 129.766L222.727 128.603L230.051 129.621Z" fill="white" fill-opacity="0.2"/>
<path d="M224.338 142.723L223.389 142.516L224.3 138.342L225.249 138.549L224.338 142.723ZM228.387 139.473L221.161 137.899L221.412 136.751L228.637 138.326L228.387 139.473ZM227.319 144.367L220.093 142.792L220.344 141.645L227.569 143.219L227.319 144.367Z" fill="white" fill-opacity="0.2"/>
<path d="M224.716 149.439L219.348 145.2L219.693 144.051L225.903 149.086L225.682 149.821L224.716 149.439ZM217.998 149.699L224.834 149.136L225.824 149.347L225.602 150.089L217.654 150.842L217.998 149.699ZM220.668 150.32L219.743 150.043L221.006 145.836L221.93 146.113L220.668 150.32Z" fill="white" fill-opacity="0.2"/>
<path d="M215.574 172.903L209.158 169.226L209.743 168.208L216.159 171.885L215.574 172.903ZM213.748 176.079L212.906 175.596L214.87 172.178L215.713 172.661L213.748 176.079Z" fill="white" fill-opacity="0.2"/>
<path d="M209.777 180.169L205.903 174.534L206.573 173.539L211.016 180.182L210.587 180.819L209.777 180.169ZM203.28 178.431L209.979 179.914L210.863 180.408L210.431 181.051L202.614 179.421L203.28 178.431ZM205.648 179.813L204.847 179.275L207.299 175.631L208.101 176.169L205.648 179.813Z" fill="white" fill-opacity="0.2"/>
<path d="M201.736 184.958L203.044 183.305L203.806 183.906L202.499 185.559C202.258 185.865 202.105 186.146 202.042 186.403C201.982 186.663 201.993 186.898 202.075 187.108C202.157 187.318 202.298 187.502 202.497 187.659C202.687 187.809 202.898 187.903 203.132 187.941C203.366 187.98 203.607 187.944 203.857 187.834C204.109 187.726 204.356 187.519 204.598 187.214L205.708 185.809L200.663 181.833L201.392 180.911L207.199 185.49L205.361 187.815C204.985 188.289 204.588 188.628 204.168 188.831C203.75 189.04 203.336 189.12 202.926 189.072C202.517 189.03 202.135 188.869 201.779 188.588C201.5 188.368 201.287 188.122 201.14 187.85C200.997 187.581 200.922 187.291 200.916 186.978C200.909 186.666 200.973 186.339 201.108 185.998C201.246 185.66 201.456 185.313 201.736 184.958Z" fill="white" fill-opacity="0.2"/>
<path d="M201.287 192.603L200.533 193.41L194.607 191.281L197.148 197.032L196.394 197.839L193.137 190.493L193.722 189.867L201.287 192.603ZM201.569 192.301L200.889 193.029L197.228 189.853L195.361 188.114L196.158 187.261L201.569 192.301ZM196.788 197.417L196.103 198.149L190.693 193.109L191.494 192.251L193.362 193.99L196.788 197.417Z" fill="white" fill-opacity="0.2"/>
<path d="M187.51 201.139L187.228 200.829C186.852 200.416 186.571 199.994 186.385 199.563C186.202 199.135 186.11 198.71 186.109 198.288C186.111 197.869 186.204 197.465 186.387 197.076C186.571 196.693 186.842 196.338 187.203 196.011C187.557 195.689 187.936 195.455 188.339 195.306C188.741 195.164 189.155 195.109 189.579 195.141C190.003 195.179 190.421 195.309 190.833 195.529C191.248 195.752 191.643 196.071 192.019 196.484L192.301 196.794C192.677 197.207 192.956 197.629 193.136 198.059C193.319 198.493 193.411 198.921 193.412 199.343C193.409 199.768 193.316 200.172 193.133 200.556C192.95 200.945 192.681 201.3 192.326 201.621C191.963 201.951 191.58 202.187 191.177 202.33C190.774 202.478 190.362 202.532 189.942 202.49C189.518 202.452 189.1 202.32 188.688 202.094C188.279 201.871 187.886 201.552 187.51 201.139ZM188.089 200.049L188.379 200.368C188.661 200.678 188.945 200.921 189.23 201.096C189.516 201.271 189.798 201.381 190.078 201.424C190.358 201.467 190.632 201.444 190.9 201.356C191.168 201.267 191.423 201.113 191.664 200.894C191.896 200.683 192.068 200.451 192.179 200.196C192.29 199.941 192.339 199.67 192.326 199.385C192.309 199.103 192.229 198.811 192.084 198.507C191.94 198.204 191.727 197.898 191.445 197.588L191.154 197.268C190.872 196.959 190.586 196.716 190.294 196.54C190.006 196.368 189.719 196.26 189.433 196.216C189.15 196.176 188.876 196.198 188.611 196.285C188.343 196.373 188.093 196.523 187.861 196.734C187.616 196.955 187.439 197.194 187.327 197.449C187.216 197.704 187.169 197.973 187.185 198.255C187.205 198.54 187.29 198.831 187.44 199.129C187.591 199.432 187.807 199.739 188.089 200.049Z" fill="white" fill-opacity="0.2"/>
<path d="M181.656 205.958L181.06 205.192L184.434 202.572L185.031 203.339L181.656 205.958ZM186.85 206.057L182.306 200.223L183.234 199.503L187.778 205.336L186.85 206.057ZM182.894 209.128L178.35 203.294L179.277 202.574L183.822 208.407L182.894 209.128Z" fill="white" fill-opacity="0.2"/>
<path d="M176.641 205.095L176.462 213.374L175.445 213.346L175.619 205.07L176.641 205.095ZM176.462 213.374L175.476 214.025L171.392 207.86L172.377 207.21L176.462 213.374ZM180.684 210.587L179.704 211.234L175.619 205.07L176.599 204.423L180.684 210.587Z" fill="white" fill-opacity="0.2"/>
<path d="M168.919 213.429L168.841 209.247L169.934 208.64L169.952 212.856L168.919 213.429ZM166.945 213.785L169.059 212.611C169.119 212.587 169.165 212.574 169.197 212.57C169.229 212.567 169.265 212.562 169.304 212.554C169.342 212.553 169.402 212.539 169.484 212.513C169.497 212.51 169.521 212.509 169.555 212.509C169.589 212.51 169.623 212.51 169.657 212.511C169.692 212.511 169.715 212.51 169.728 212.508C170.12 212.401 170.472 212.368 170.785 212.407C171.096 212.453 171.368 212.558 171.601 212.724C171.83 212.892 172.02 213.111 172.17 213.381C172.337 213.68 172.434 213.975 172.46 214.265C172.488 214.559 172.445 214.842 172.33 215.114C172.217 215.39 172.038 215.651 171.793 215.899C171.549 216.146 171.237 216.375 170.86 216.584L168.313 217.999L164.712 211.54L165.744 210.966L168.875 216.583L170.39 215.741C170.868 215.476 171.154 215.186 171.25 214.872C171.342 214.559 171.298 214.24 171.116 213.915C171.001 213.708 170.856 213.552 170.68 213.446C170.505 213.34 170.295 213.299 170.052 213.323C169.811 213.35 169.531 213.452 169.213 213.629L167.404 214.634L166.945 213.785Z" fill="white" fill-opacity="0.2"/>
<path d="M143.375 227.319L143.115 226.39L147.132 225.271L147.392 226.201L143.375 227.319ZM147.154 226.267L145.162 219.145L146.293 218.83L148.285 225.952L147.154 226.267ZM142.457 227.574L140.465 220.453L141.603 220.136L143.595 227.258L142.457 227.574Z" fill="white" fill-opacity="0.2"/>
<path d="M135.918 224.173L137.986 223.765L138.175 224.717L136.107 225.126C135.726 225.201 135.427 225.316 135.212 225.471C134.997 225.63 134.853 225.816 134.779 226.029C134.705 226.242 134.692 226.473 134.742 226.722C134.789 226.959 134.889 227.168 135.041 227.349C135.194 227.53 135.4 227.66 135.662 227.737C135.924 227.819 136.246 227.822 136.628 227.747L138.384 227.4L137.133 221.099L138.285 220.872L139.725 228.125L136.817 228.7C136.224 228.817 135.701 228.817 135.251 228.698C134.797 228.585 134.43 228.378 134.15 228.075C133.866 227.777 133.68 227.406 133.592 226.962C133.523 226.613 133.521 226.288 133.586 225.986C133.652 225.689 133.784 225.419 133.982 225.177C134.18 224.935 134.441 224.728 134.765 224.556C135.09 224.389 135.474 224.261 135.918 224.173Z" fill="white" fill-opacity="0.2"/>
<path d="M129.879 222.915L126.001 230.237L125.105 229.755L128.977 222.435L129.879 222.915ZM126.001 230.237L124.828 230.376L123.948 223.034L125.12 222.894L126.001 230.237ZM131.024 229.638L129.858 229.777L128.977 222.435L130.143 222.296L131.024 229.638Z" fill="white" fill-opacity="0.2"/>
<path d="M119.074 225.996L121.179 225.908L121.22 226.878L119.115 226.967C118.726 226.983 118.413 227.051 118.177 227.171C117.941 227.296 117.77 227.457 117.664 227.657C117.558 227.856 117.511 228.082 117.521 228.336C117.532 228.577 117.598 228.799 117.721 229.001C117.844 229.204 118.029 229.363 118.276 229.48C118.522 229.601 118.84 229.653 119.229 229.637L121.017 229.561L120.743 223.143L121.917 223.094L122.232 230.482L119.27 230.607C118.666 230.632 118.15 230.552 117.723 230.367C117.291 230.186 116.96 229.925 116.73 229.583C116.495 229.246 116.368 228.851 116.349 228.398C116.334 228.043 116.381 227.721 116.492 227.433C116.603 227.149 116.774 226.902 117.007 226.693C117.239 226.484 117.529 226.32 117.875 226.199C118.222 226.083 118.621 226.015 119.074 225.996Z" fill="white" fill-opacity="0.2"/>
<path d="M107.328 226.95L107.342 226.531C107.361 225.973 107.454 225.475 107.622 225.036C107.789 224.601 108.02 224.232 108.314 223.929C108.608 223.63 108.956 223.405 109.359 223.253C109.758 223.106 110.201 223.041 110.687 223.058C111.165 223.074 111.6 223.17 111.992 223.344C112.38 223.522 112.714 223.771 112.996 224.09C113.272 224.413 113.482 224.797 113.623 225.242C113.765 225.691 113.826 226.195 113.807 226.754L113.792 227.172C113.773 227.731 113.678 228.227 113.507 228.661C113.335 229.1 113.102 229.471 112.808 229.774C112.51 230.077 112.162 230.303 111.763 230.45C111.36 230.601 110.919 230.668 110.441 230.652C109.951 230.635 109.511 230.537 109.124 230.359C108.732 230.185 108.399 229.936 108.127 229.613C107.85 229.29 107.643 228.904 107.505 228.455C107.368 228.01 107.309 227.508 107.328 226.95ZM108.503 226.571L108.489 227.003C108.474 227.421 108.508 227.793 108.59 228.118C108.672 228.442 108.798 228.718 108.969 228.944C109.139 229.17 109.351 229.344 109.605 229.467C109.859 229.59 110.149 229.657 110.475 229.669C110.788 229.679 111.073 229.632 111.331 229.527C111.588 229.421 111.812 229.262 112.001 229.048C112.186 228.834 112.333 228.568 112.441 228.25C112.549 227.932 112.61 227.564 112.625 227.145L112.639 226.713C112.654 226.295 112.618 225.921 112.532 225.592C112.445 225.267 112.315 224.99 112.141 224.759C111.966 224.533 111.754 224.358 111.504 224.235C111.25 224.112 110.967 224.046 110.654 224.035C110.324 224.023 110.03 224.07 109.772 224.176C109.515 224.281 109.293 224.441 109.108 224.655C108.923 224.873 108.781 225.141 108.681 225.46C108.577 225.782 108.517 226.153 108.503 226.571Z" fill="white" fill-opacity="0.2"/>
<path d="M103.32 230.009L102.165 229.877L102.582 227.126C102.669 226.548 102.78 226.041 102.915 225.605C103.045 225.173 103.197 224.798 103.369 224.482C103.537 224.168 103.719 223.902 103.914 223.681C104.105 223.465 104.307 223.283 104.52 223.137C104.727 222.995 104.937 222.874 105.149 222.775L105.729 222.841L105.588 223.796L105.336 223.767C105.183 223.911 105.031 224.067 104.88 224.232C104.725 224.398 104.578 224.605 104.439 224.853C104.295 225.101 104.165 225.418 104.049 225.805C103.928 226.192 103.823 226.68 103.734 227.27L103.32 230.009ZM103.042 229.977L98.4319 229.45L99.271 222.103L100.438 222.236L99.7081 228.625L103.152 229.018L103.042 229.977ZM105.884 223.83L98.2596 222.959L98.614 219.856L99.787 219.99L99.5421 222.134L104.821 222.737L105.065 220.599L106.244 220.734L105.884 223.83Z" fill="white" fill-opacity="0.2"/>
<path d="M92.448 227.268L96.1434 221.509L97.3208 221.74L92.9158 228.413L92.162 228.266L92.448 227.268ZM91.5335 220.608L92.7609 227.355L92.6479 228.361L91.8879 228.212L90.3624 220.379L91.5335 220.608ZM91.176 223.326L91.3614 222.379L95.6723 223.222L95.4869 224.169L91.176 223.326Z" fill="white" fill-opacity="0.2"/>
<path d="M66.4267 219.69L69.4855 212.958L70.5494 213.44L67.4906 220.173L66.4267 219.69ZM64.1199 218.645L64.5216 217.761L70.1876 220.328L69.7859 221.213L64.1199 218.645Z" fill="white" fill-opacity="0.2"/>
<path d="M64.8347 211.286L57.4215 215.003L56.9715 214.092L64.379 210.373L64.8347 211.286ZM57.4215 215.003L56.3849 214.438L59.9313 207.949L60.968 208.514L57.4215 215.003ZM61.8637 217.424L60.8326 216.862L64.379 210.373L65.4101 210.935L61.8637 217.424Z" fill="white" fill-opacity="0.2"/>
<path d="M51.4332 203.502L51.9665 202.698L57.6951 206.487L57.1617 207.291L51.4332 203.502ZM50.1447 210.359L54.2325 204.197L55.212 204.844L51.1242 211.007L50.1447 210.359ZM47.0846 208.335L51.1723 202.173L52.1571 202.824L48.0693 208.986L47.0846 208.335ZM53.1996 212.379L57.2874 206.217L58.2669 206.865L54.1791 213.027L53.1996 212.379Z" fill="white" fill-opacity="0.2"/>
<path d="M49.2552 201.28L41.3167 203.682L41.0279 202.709L48.9615 200.302L49.2552 201.28ZM41.3167 203.682L40.391 202.949L44.9901 197.158L45.9158 197.891L41.3167 203.682ZM45.2831 206.822L44.3624 206.093L48.9615 200.302L49.8822 201.031L45.2831 206.822Z" fill="white" fill-opacity="0.2"/>
<path d="M36.8797 195.255L37.5402 194.543L40.6769 197.444L40.0165 198.156L36.8797 195.255ZM37.6252 200.388L42.6542 194.966L43.5164 195.764L38.4875 201.185L37.6252 200.388ZM33.9478 196.988L38.9768 191.566L39.839 192.364L34.8101 197.785L33.9478 196.988Z" fill="white" fill-opacity="0.2"/>
<path d="M30.8868 192.171L37.2705 189.699L38.0865 190.579L30.5892 193.371L30.0667 192.808L30.8868 192.171ZM34.0754 186.256L31.0884 192.425L30.4035 193.171L29.8768 192.603L33.2637 185.381L34.0754 186.256ZM32.1834 188.239L32.8918 187.584L35.8796 190.804L35.1712 191.459L32.1834 188.239Z" fill="white" fill-opacity="0.2"/>
<path d="M15.2678 172.389L21.6977 168.737L22.2794 169.757L15.8495 173.41L15.2678 172.389ZM13.4535 169.208L14.2979 168.728L16.2506 172.152L15.4062 172.632L13.4535 169.208Z" fill="white" fill-opacity="0.2"/>
<path d="M11.936 163.714L18.7647 163.242L19.2839 164.324L11.2964 164.772L10.9641 164.08L11.936 163.714ZM16.732 159.008L12.0532 164.017L11.1783 164.526L10.8432 163.828L16.2156 157.932L16.732 159.008ZM14.338 160.342L15.2084 159.926L17.1093 163.886L16.2388 164.302L14.338 160.342Z" fill="white" fill-opacity="0.2"/>
<path d="M11.8788 154.364L12.6426 156.328L11.737 156.679L10.9732 154.715C10.8321 154.352 10.6665 154.078 10.4765 153.893C10.2825 153.71 10.074 153.6 9.8511 153.563C9.62816 153.527 9.39831 153.555 9.16153 153.647C8.9366 153.734 8.74815 153.868 8.5962 154.049C8.44425 154.231 8.35279 154.457 8.32183 154.727C8.28692 155 8.34002 155.317 8.48112 155.68L9.1299 157.348L15.1203 155.029L15.5459 156.123L8.64987 158.793L7.57546 156.031C7.35613 155.467 7.26526 154.953 7.30283 154.489C7.33493 154.023 7.47564 153.626 7.72495 153.298C7.96879 152.967 8.30183 152.72 8.72407 152.557C9.05556 152.428 9.37574 152.37 9.68461 152.382C9.98954 152.396 10.2785 152.479 10.5514 152.632C10.8243 152.785 11.0737 153.006 11.2996 153.295C11.5217 153.586 11.7147 153.942 11.8788 154.364Z" fill="white" fill-opacity="0.2"/>
<path d="M5.50778 150.095L5.19372 149.036L10.0341 145.019L3.78406 144.283L3.47001 143.224L11.4595 144.155L11.7031 144.977L5.50778 150.095ZM5.6251 150.491L5.34173 149.535L9.93806 148L12.3854 147.277L12.7175 148.397L5.6251 150.491ZM3.63425 143.778L3.34907 142.817L10.4415 140.723L10.7754 141.849L8.32806 142.571L3.63425 143.778Z" fill="white" fill-opacity="0.2"/>
<path d="M5.12355 133.905L5.53375 133.82C6.08068 133.707 6.58724 133.679 7.05343 133.738C7.51547 133.798 7.92876 133.935 8.29329 134.148C8.65369 134.363 8.95532 134.649 9.19818 135.004C9.43603 135.357 9.60467 135.771 9.70409 136.248C9.80179 136.716 9.81254 137.161 9.73636 137.583C9.65517 138.002 9.49317 138.386 9.25035 138.734C9.00253 139.08 8.67915 139.374 8.28023 139.616C7.87715 139.86 7.40215 140.039 6.85522 140.152L6.44502 140.237C5.89809 140.351 5.39317 140.376 4.93027 140.312C4.46322 140.249 4.04742 140.11 3.68289 139.897C3.31748 139.679 3.01586 139.393 2.778 139.041C2.53514 138.685 2.36486 138.273 2.26717 137.805C2.16688 137.324 2.15733 136.875 2.23852 136.456C2.3147 136.034 2.47714 135.652 2.72583 135.311C2.97365 134.965 3.29953 134.673 3.70347 134.434C4.10326 134.195 4.57662 134.019 5.12355 133.905ZM5.77107 134.957L5.34844 135.045C4.93824 135.13 4.5852 135.251 4.28932 135.408C3.99344 135.564 3.75593 135.752 3.57678 135.97C3.39764 136.189 3.2785 136.436 3.21936 136.712C3.16023 136.988 3.16394 137.286 3.23051 137.605C3.29449 137.911 3.40835 138.177 3.5721 138.403C3.73584 138.628 3.94403 138.807 4.19667 138.941C4.44844 139.07 4.74171 139.149 5.0765 139.179C5.41128 139.209 5.78378 139.182 6.19397 139.096L6.6166 139.009C7.0268 138.924 7.38148 138.8 7.68064 138.639C7.97566 138.478 8.21438 138.286 8.3968 138.062C8.57509 137.839 8.69423 137.592 8.75423 137.32C8.81336 137.044 8.81094 136.753 8.74696 136.447C8.67953 136.123 8.56394 135.849 8.40019 135.624C8.23645 135.399 8.02869 135.221 7.77692 135.092C7.52101 134.964 7.22652 134.889 6.89347 134.867C6.5554 134.842 6.18127 134.872 5.77107 134.957Z" fill="white" fill-opacity="0.2"/>
<path d="M3.93205 126.421L4.89527 126.297L5.44507 130.534L4.48185 130.658L3.93205 126.421ZM1.21571 130.842L8.55003 129.896L8.70116 131.061L1.36684 132.007L1.21571 130.842ZM0.571143 125.875L7.90546 124.93L8.05659 126.094L0.722277 127.04L0.571143 125.875Z" fill="white" fill-opacity="0.2"/>
<path d="M7.21644 122.548L0.167378 118.184L0.707064 117.324L7.7558 121.681L7.21644 122.548ZM0.167378 118.184L0.105591 117.005L7.49071 116.623L7.5525 117.802L0.167378 118.184ZM0.432134 123.237L0.370679 122.064L7.7558 121.681L7.81725 122.854L0.432134 123.237Z" fill="white" fill-opacity="0.2"/>
<path d="M3.94117 111.67L7.58647 113.728L7.55602 114.978L3.91243 112.85L3.94117 111.67ZM4.63465 109.788L4.57576 112.206C4.56576 112.269 4.55405 112.316 4.54063 112.345C4.52722 112.374 4.51371 112.408 4.50009 112.446C4.48234 112.479 4.46398 112.538 4.44499 112.622C4.44045 112.635 4.42936 112.655 4.41172 112.685C4.39408 112.714 4.37643 112.743 4.35879 112.772C4.34115 112.801 4.33006 112.822 4.32552 112.835C4.21863 113.226 4.06903 113.546 3.87671 113.795C3.68025 114.04 3.4515 114.221 3.19046 114.337C2.92951 114.449 2.64463 114.501 2.3358 114.494C1.99313 114.485 1.68998 114.419 1.42635 114.294C1.15848 114.168 0.936428 113.987 0.760184 113.75C0.57971 113.513 0.444893 113.226 0.355732 112.889C0.266571 112.553 0.227246 112.169 0.237756 111.737L0.308699 108.824L7.70146 109.007L7.67271 110.187L1.2445 110.028L1.20231 111.761C1.18901 112.307 1.2937 112.701 1.51638 112.943C1.73916 113.182 2.03669 113.305 2.40897 113.315C2.64588 113.32 2.85441 113.275 3.03456 113.178C3.21471 113.08 3.35617 112.921 3.45893 112.699C3.55747 112.477 3.61116 112.184 3.62002 111.821L3.67041 109.752L4.63465 109.788Z" fill="white" fill-opacity="0.2"/>
</svg>
