<svg width="382" height="269" viewBox="0 0 382 269" fill="none" xmlns="http://www.w3.org/2000/svg">
<path d="M256.77 112.201C256.614 111.836 256.718 111.523 257.136 111.314C257.292 111.575 257.657 111.523 257.761 111.21C257.918 110.688 258.544 110.74 258.7 111.157C258.805 111.366 259.065 111.366 259.222 111.314C259.691 111.105 260.213 113.192 258.857 112.722C258.909 112.983 258.909 113.192 258.961 113.453C258.961 113.453 259.013 113.453 259.013 113.4C258.857 113.4 258.7 113.348 258.544 113.348C258.387 113.453 258.231 113.505 258.022 113.505C257.814 113.557 257.605 113.505 257.448 113.4C257.24 113.296 257.083 113.192 256.979 112.983C256.666 112.514 256.823 111.94 257.136 111.523C257.24 111.366 257.136 111.21 256.979 111.21C255.519 111.523 255.988 113.4 256.979 114.026C257.553 114.391 258.335 114.496 258.857 114.026C259.17 113.766 259.483 113.14 259.065 112.774C258.909 112.67 258.752 112.618 258.596 112.722C258.596 112.722 258.544 112.722 258.544 112.774C258.231 112.931 258.335 113.4 258.648 113.505C259.587 113.818 260.578 113.14 260.578 112.149C260.578 111.262 259.796 110.219 258.857 110.688C259.013 110.74 259.222 110.792 259.378 110.844C258.857 109.801 257.396 109.958 257.083 111.105C257.292 111.053 257.501 111.053 257.709 111.001C257.448 110.636 257.031 110.531 256.614 110.792C256.092 111.157 256.249 111.783 256.457 112.305C256.51 112.461 256.77 112.409 256.77 112.201Z" fill="#008ACE"/>
<path d="M249.781 111.314C249.468 111.105 249.312 110.844 249.312 110.531C249.208 110.219 249.364 110.01 249.729 109.906C250.042 110.166 250.407 109.749 250.146 109.488C249.416 108.549 251.607 108.184 251.607 108.758C251.815 108.706 252.024 108.706 252.285 108.654C252.285 108.602 252.285 108.549 252.233 108.497C252.181 108.602 252.128 108.758 252.076 108.862C253.015 108.393 253.797 109.28 253.38 110.114C253.276 110.271 253.328 110.531 253.484 110.584C253.432 110.897 253.432 111.262 253.38 111.575C253.328 111.575 253.224 111.627 253.172 111.627C253.015 111.731 252.754 111.679 252.598 111.731C252.285 111.783 252.024 111.888 251.763 112.044C251.45 112.253 251.607 112.67 251.92 112.722C252.024 112.722 252.128 112.774 252.233 112.774C252.181 112.566 252.128 112.357 252.076 112.201C250.772 113.348 248.895 112.618 249.26 110.792C249.312 110.636 249.103 110.532 248.999 110.636C248.217 111.366 248.582 112.618 249.364 113.192C250.355 113.922 251.711 113.505 252.546 112.722C252.754 112.514 252.65 112.201 252.389 112.149C252.181 112.096 252.128 112.044 251.92 112.044C251.972 112.253 252.024 112.462 252.076 112.722C252.806 112.253 253.902 112.514 254.371 111.679C254.684 111.053 254.423 110.323 253.797 110.01C253.85 110.166 253.902 110.323 253.902 110.479C254.632 108.967 253.119 107.454 251.607 108.289C251.45 108.341 251.398 108.549 251.45 108.654C251.45 108.706 251.502 108.758 251.502 108.81C251.607 109.175 252.181 109.123 252.181 108.706C252.076 106.619 248.164 108.236 249.573 109.906C249.729 109.749 249.886 109.593 249.99 109.488C248.634 108.341 247.904 111.418 249.521 111.575C249.833 111.575 249.886 111.366 249.781 111.314Z" fill="#008ACE"/>
<path d="M256.145 104.481C256.457 104.063 256.823 104.011 257.292 104.324C257.031 104.689 257.553 105.002 257.866 104.742C258.283 104.533 258.596 104.637 258.857 105.002C258.805 105.211 258.909 105.472 259.117 105.524C259.378 105.993 259.326 106.411 259.013 106.672C258.805 106.828 258.857 106.984 259.274 107.141C259.013 107.089 258.7 107.089 258.439 107.037C258.439 107.297 257.396 107.558 257.136 107.558C256.718 107.558 256.145 107.35 255.779 107.141C255.31 106.828 255.206 106.619 254.997 106.046C254.528 105.576 254.58 105.315 255.049 105.263C255.414 105.107 255.727 105.054 256.145 105.054C256.666 105.002 256.666 104.22 256.145 104.272C255.154 104.324 253.276 104.689 253.537 106.15C253.693 107.141 255.154 107.871 256.04 107.506C256.145 107.454 256.249 107.297 256.249 107.141C256.301 105.733 253.902 106.359 254.997 107.558C255.988 108.654 259.17 109.019 259.378 107.037C259.43 106.619 258.752 106.463 258.544 106.828C258.544 106.88 258.492 106.932 258.492 106.932C258.387 107.089 258.439 107.297 258.544 107.454C258.596 107.506 258.596 107.506 258.648 107.558C258.752 107.663 258.909 107.715 259.065 107.663C260.421 107.297 260.943 104.898 259.222 104.689C259.378 104.846 259.483 104.95 259.639 105.107C259.796 103.907 258.127 103.542 257.396 104.22C257.605 104.376 257.761 104.481 257.97 104.637C258.7 103.333 256.249 102.968 255.988 104.324C255.884 104.481 256.04 104.637 256.145 104.481Z" fill="#008ACE"/>
<path d="M266.524 6.8854C266.732 6.98972 266.941 7.04188 267.202 7.04188C267.463 7.04188 267.723 7.09405 267.984 7.04188C268.401 6.98972 268.401 6.41594 267.984 6.41594C267.723 6.41594 267.463 6.41594 267.202 6.41594C266.993 6.41594 266.732 6.41594 266.524 6.57243C266.419 6.67675 266.419 6.83324 266.524 6.8854Z" fill="#008ACE"/>
<path d="M266.941 3.86C267.202 4.01649 267.463 4.17297 267.776 4.2773C268.089 4.38162 268.349 4.53811 268.662 4.53811C268.975 4.59027 269.027 4.17297 268.819 4.01649C268.558 3.86 268.245 3.75568 267.984 3.65135C267.671 3.54703 267.411 3.4427 267.098 3.4427C266.785 3.4427 266.732 3.75568 266.941 3.86Z" fill="#008ACE"/>
<path d="M269.445 1.19974C269.653 1.51271 269.966 1.72136 270.227 1.98217C270.488 2.29514 270.957 1.82568 270.696 1.51271C270.436 1.2519 270.018 0.886765 269.601 0.886765C269.445 0.938927 269.392 1.09541 269.445 1.19974Z" fill="#008ACE"/>
<path d="M272.522 0.15649C272.418 0.521625 272.522 1.04325 272.626 1.46054C272.783 1.93 273.461 1.72135 273.356 1.25189C273.304 0.886759 273.148 0.365138 272.887 0.104328C272.783 -0.0521586 272.574 3.53344e-06 272.522 0.15649Z" fill="#008ACE"/>
<path d="M275.391 2.03432C275.599 1.87783 275.808 1.66919 276.016 1.5127C276.225 1.35621 276.486 1.25189 276.694 1.04324C276.903 0.78243 276.694 0.417295 276.382 0.469457C275.808 0.573782 275.286 1.19973 275.025 1.72135C274.817 1.98216 275.182 2.19081 275.391 2.03432Z" fill="#008ACE"/>
<path d="M276.486 3.70352C277.164 3.75568 277.946 3.70352 278.572 3.33838C278.989 3.07757 278.676 2.50379 278.259 2.60811C277.633 2.71244 277.007 3.02541 276.434 3.28622C276.173 3.33838 276.225 3.65135 276.486 3.70352Z" fill="#008ACE"/>
<path d="M277.06 6.8854C277.685 6.78108 278.259 7.04189 278.885 6.93756C279.25 6.8854 279.407 6.41594 279.094 6.20729C278.416 5.79 277.581 6.10297 276.955 6.4681C276.694 6.67675 276.851 6.93756 277.06 6.8854Z" fill="#008ACE"/>
<path d="M339.05 39.0432C338.789 39.4083 338.58 39.7735 338.372 40.1386C338.215 40.3994 337.955 40.6602 338.007 40.9732C338.007 41.0254 338.059 41.0254 338.111 41.0254C338.424 40.921 338.528 40.5559 338.633 40.2951C338.841 39.93 338.998 39.5127 339.154 39.1475C339.259 39.0432 339.102 38.9389 339.05 39.0432Z" fill="#E12F2B"/>
<path d="M377.306 136.508C378.036 135.778 378.662 135.048 379.183 134.161C379.496 133.587 378.61 133.066 378.297 133.639C377.827 134.526 377.462 135.413 376.941 136.195C376.732 136.456 377.097 136.717 377.306 136.508Z" fill="#E12F2B"/>
<path d="M377.827 136.769C377.932 136.613 377.984 136.508 378.088 136.352C378.245 135.987 377.932 135.517 377.567 135.413C377.202 135.309 376.732 135.569 376.628 135.934C376.628 135.934 376.628 135.882 376.68 135.882C376.523 136.195 376.576 136.613 376.889 136.821C377.149 137.03 377.619 137.082 377.827 136.769Z" fill="#E12F2B"/>
<path d="M190.687 67.1326C191.417 67.9151 192.304 68.541 192.982 69.3756C193.295 69.7407 193.764 69.2713 193.608 68.9062C193.608 68.854 193.556 68.8018 193.556 68.7497C193.399 68.9061 193.243 69.0626 193.086 69.2191C193.138 69.2191 193.138 69.2191 193.191 69.2713C193.086 69.2191 193.034 69.167 192.93 69.0626C192.93 69.0626 192.93 69.0626 192.93 69.0105C192.982 68.9061 193.034 68.8018 193.034 68.6975L192.982 68.7497C193.086 68.6975 193.191 68.6453 193.295 68.6453C193.243 68.6453 193.243 68.6453 193.191 68.6453C193.295 68.6975 193.399 68.7497 193.504 68.7497C193.504 68.8018 193.504 68.854 193.556 68.9062C193.347 69.0105 193.138 69.0626 192.93 69.167C192.982 69.2191 192.982 69.2191 193.034 69.2713C192.982 69.167 192.93 69.0626 192.93 68.9583C192.93 69.0105 192.93 69.0105 192.93 69.0626C192.982 68.9583 193.086 68.8018 193.138 68.6975C193.086 68.6975 193.086 68.7497 193.034 68.7497C193.191 68.7497 193.295 68.7497 193.451 68.7497C193.504 68.8018 193.504 68.8018 193.451 68.6975C193.347 68.541 193.138 68.4889 192.982 68.5932C192.982 68.5932 192.93 68.5932 192.93 68.6453C192.825 68.6975 192.721 68.854 192.721 69.0105C192.721 69.2713 192.773 69.3756 193.034 69.5321C193.138 69.5843 193.347 69.6364 193.451 69.5321C193.869 69.2191 193.816 68.7497 193.347 68.4889C193.086 68.3324 192.773 68.4889 192.721 68.7497C192.617 69.2191 193.034 69.6886 193.504 69.4278C193.973 69.167 193.764 68.541 193.295 68.4367C193.034 68.3845 192.669 68.6453 192.825 68.9062C192.878 69.0105 192.878 69.1148 192.982 69.2191C193.191 69.0626 193.399 68.9061 193.608 68.7497C192.773 68.0716 191.887 67.237 190.844 66.924C190.687 66.9762 190.635 67.0805 190.687 67.1326Z" fill="#E12F2B"/>
<path d="M140.042 251.265C139.781 254.238 136.965 254.082 134.931 254.238C132.584 254.395 130.185 254.551 127.837 254.655C122.83 254.916 117.875 255.177 112.868 255.438C110.834 255.542 108.957 255.855 107.34 254.238C104.627 251.526 106.557 247.144 110.313 246.935C110.678 246.935 111.043 246.988 111.408 246.988C116.05 247.196 120.744 247.457 125.386 247.77C128.255 247.926 131.176 248.135 134.044 248.344C136.13 248.552 139.729 248.239 140.042 251.265C140.094 251.786 140.929 251.786 140.877 251.265C140.355 246.466 132.427 247.405 129.089 247.196C123.091 246.779 116.989 246.257 110.938 246.153C103.949 246.049 103.376 256.116 110.417 256.377C115.737 256.585 121.213 255.855 126.534 255.542C129.767 255.386 133.053 255.177 136.287 254.916C138.582 254.708 140.616 253.821 140.825 251.213C140.877 250.743 140.094 250.743 140.042 251.265Z" fill="#009BD5"/>
<path d="M138.008 248.187L138.165 249.074L138.843 249.335L139.573 248.865L140.147 249.439L139.677 250.169L139.99 250.848L140.825 251.004V251.839L139.99 252.047L139.677 252.725L140.147 253.456L139.573 254.029L138.843 253.56L138.165 253.821L138.008 254.655H137.174L136.965 253.821L136.339 253.56L135.609 254.029L134.983 253.456L135.452 252.725L135.192 252.047L134.357 251.839V251.004L135.192 250.848L135.452 250.169L134.983 249.439L135.609 248.865L136.339 249.335L136.965 249.074L137.174 248.187H138.008Z" stroke="#E12F2B" stroke-width="0.6526" stroke-miterlimit="10"/>
<path d="M137.643 251.526C137.643 251.63 137.487 251.63 137.487 251.526C137.487 251.421 137.643 251.369 137.643 251.526C137.695 251.839 138.165 251.839 138.165 251.526C138.112 251.213 137.904 250.952 137.591 250.952C137.278 250.952 137.017 251.213 137.017 251.526C137.017 251.839 137.278 252.099 137.591 252.099C137.956 252.099 138.165 251.839 138.165 251.526C138.165 251.161 137.643 251.161 137.643 251.526Z" fill="#A13122"/>
<path d="M110.678 246.362L110.834 247.718L111.617 247.926L112.399 246.779L113.181 247.248L112.608 248.5L113.233 249.074L114.433 248.5L114.902 249.283L113.755 250.065L114.016 250.9L115.372 251.004V251.891L114.016 251.995L113.755 252.83L114.902 253.612L114.433 254.395L113.233 253.821L112.608 254.395L113.181 255.646L112.399 256.064L111.617 254.968L110.834 255.177L110.678 256.533H109.791L109.687 255.177L108.852 254.968L108.07 256.064L107.287 255.646L107.913 254.395L107.287 253.821L106.036 254.395L105.618 253.612L106.714 252.83L106.505 251.995L105.149 251.891V251.004L106.505 250.9L106.714 250.065L105.618 249.283L106.036 248.5L107.287 249.074L107.913 248.5L107.287 247.248L108.07 246.779L108.852 247.926L109.687 247.718L109.791 246.362H110.678Z" stroke="#E12F2B" stroke-width="0.6526" stroke-miterlimit="10"/>
<path d="M110.573 251.421C110.521 252.099 109.53 252.099 109.53 251.421C109.53 250.743 110.521 250.743 110.573 251.421C110.573 251.734 111.095 251.734 111.095 251.421C111.043 250.848 110.626 250.378 110.052 250.378C109.478 250.378 109.009 250.848 109.009 251.421C109.009 251.943 109.426 252.412 110 252.465C110.573 252.465 111.043 251.995 111.043 251.421C111.095 251.108 110.573 251.108 110.573 251.421Z" fill="#A13122"/>
<path d="M159.08 91.4402L159.236 92.9007L160.071 93.1615L160.905 91.9618L161.74 92.4313L161.114 93.7353L161.792 94.3613L163.096 93.7875L163.565 94.5699L162.366 95.4045L162.626 96.2913L164.035 96.4477V97.3867L162.626 97.491L162.366 98.3777L163.565 99.2123L163.096 100.047L161.792 99.421L161.114 100.047L161.74 101.403L160.905 101.873L160.071 100.673L159.236 100.882L159.08 102.342H158.141L157.984 100.882L157.15 100.673L156.315 101.873L155.481 101.403L156.107 100.047L155.429 99.421L154.125 100.047L153.655 99.2123L154.855 98.3777L154.594 97.491L153.186 97.3867V96.4477L154.594 96.2913L154.855 95.4045L153.655 94.5699L154.125 93.7875L155.429 94.3613L156.107 93.7353L155.481 92.4313L156.315 91.9618L157.15 93.1615L157.984 92.9007L158.141 91.4402H159.08Z" stroke="#E12F2B" stroke-width="0.6526" stroke-miterlimit="10"/>
<path d="M158.975 96.865C158.923 97.5953 157.828 97.5953 157.828 96.865C157.828 96.1348 158.923 96.1348 158.975 96.865C158.975 97.178 159.497 97.178 159.497 96.865C159.445 96.2913 159.028 95.7696 158.402 95.7696C157.828 95.7696 157.306 96.2391 157.306 96.865C157.306 97.4388 157.776 97.9083 158.349 97.9604C158.975 97.9604 159.445 97.491 159.445 96.865C159.497 96.5521 158.975 96.5521 158.975 96.865Z" fill="#A13122"/>
<path d="M144.163 85.4415L144.215 86.1197L144.632 86.224L144.997 85.6502L145.414 85.8588L145.102 86.4848L145.414 86.7978L146.04 86.4848L146.249 86.9021L145.675 87.2672L145.78 87.6845L146.458 87.7367V88.2061L145.78 88.2583L145.675 88.6756L146.249 89.0407L146.04 89.458L145.414 89.145L145.102 89.458L145.414 90.084L144.997 90.2926L144.632 89.7188L144.215 89.8232L144.163 90.5013H143.693L143.641 89.8232L143.224 89.7188L142.859 90.2926L142.442 90.084L142.754 89.458L142.442 89.145L141.816 89.458L141.607 89.0407L142.181 88.6756L142.076 88.2583L141.398 88.2061V87.7367L142.076 87.6845L142.181 87.2672L141.607 86.9021L141.816 86.4848L142.442 86.7978L142.754 86.4848L142.442 85.8588L142.859 85.6502L143.224 86.224L143.641 86.1197L143.693 85.4415H144.163Z" stroke="#E12F2B" stroke-width="0.6526" stroke-miterlimit="10"/>
<path d="M143.954 87.9453C143.954 88.1018 143.693 88.1018 143.693 87.9453C143.693 87.7888 143.954 87.7888 143.954 87.9453C144.006 88.2583 144.476 88.2583 144.476 87.9453C144.423 87.5802 144.215 87.3194 143.85 87.3194C143.485 87.3194 143.224 87.6324 143.224 87.9453C143.224 88.3105 143.537 88.5713 143.85 88.5713C144.215 88.5713 144.476 88.2583 144.476 87.9453C144.528 87.6324 144.006 87.6324 143.954 87.9453Z" fill="#A13122"/>
<path d="M156.331 101.349C153.389 98.9323 150.5 96.5661 147.558 94.1494C146.22 93.0414 144.832 91.987 143.546 90.8775C142.528 89.9686 141.51 89.112 142.195 87.5781C142.978 85.8325 144.504 86.2565 145.979 86.7341C149.511 87.933 152.947 89.3956 156.431 90.7524C157.91 91.3344 159.696 91.7505 161.129 92.5426C166.224 95.4167 161.569 103.749 156.276 101.246C155.693 100.951 155.198 101.853 155.781 102.148C161.074 104.651 166.773 98.0617 163.339 93.1548C162.413 91.8779 161.202 91.4967 159.829 90.9638C157.507 90.094 155.237 89.2226 152.914 88.3007C150.698 87.4799 144.591 83.9577 142.295 85.6964C138.775 88.3589 142.57 91.3764 144.762 93.1372C148.399 96.1072 152.036 99.0772 155.674 102.047C156.157 102.502 156.865 101.751 156.331 101.349Z" fill="#009BD5"/>
<path d="M145.988 23.6294C146.249 23.16 147.136 23.5773 146.614 23.9946C146.406 24.1511 146.197 24.1511 146.093 23.8902C146.04 23.6816 146.093 23.4208 146.197 23.2643C146.249 23.16 146.145 23.0557 146.04 23.1078C145.519 23.2121 145.467 23.8902 145.675 24.2554C145.988 24.777 146.614 24.777 147.031 24.3597C147.397 23.9946 147.344 23.3165 146.823 23.1078C146.406 22.9513 145.884 23.1078 145.78 23.5773C145.675 23.6816 145.884 23.7859 145.988 23.6294Z" fill="#008ACE"/>
<path d="M140.199 30.2019C140.303 30.0975 140.46 30.3062 140.407 30.4105C140.355 30.567 140.199 30.6713 140.094 30.7235C139.938 30.7756 139.938 30.7235 139.99 30.567C140.094 30.4627 140.147 30.3583 140.251 30.254C140.303 30.1497 140.251 30.0454 140.147 30.0454C139.782 30.0454 139.416 30.4105 139.469 30.8278C139.573 31.2451 140.094 31.2973 140.407 31.0886C140.72 30.88 140.981 30.4627 140.772 30.0975C140.616 29.8367 140.199 29.6802 139.938 29.9932C139.834 30.1497 140.042 30.3583 140.199 30.2019Z" fill="#008ACE"/>
<path d="M145.467 31.5581C145.571 31.5581 145.623 31.5581 145.675 31.6624C145.675 31.5581 145.675 31.5059 145.623 31.4016C145.571 31.4537 145.467 31.7146 145.362 31.6102C145.31 31.5581 145.31 31.5059 145.31 31.4537C145.362 31.4016 145.31 31.2973 145.258 31.2973C144.893 31.2451 144.893 31.6624 145.049 31.871C145.362 32.2362 145.78 31.871 145.988 31.5581C146.04 31.5059 146.04 31.3494 145.936 31.2973C145.78 31.1929 145.623 31.1408 145.414 31.1929C145.258 31.2973 145.258 31.6102 145.467 31.5581Z" fill="#008ACE"/>
<path d="M140.303 39.8518C140.303 39.7475 140.303 39.6954 140.251 39.6432C140.251 39.6954 140.251 39.6954 140.199 39.6954C140.251 39.7475 140.303 39.7475 140.303 39.7997C140.251 39.6954 140.199 39.6432 140.199 39.5389C140.147 39.4867 140.094 39.4867 140.042 39.5389C139.886 39.6954 139.834 40.0605 140.094 40.1648C140.355 40.2691 140.616 40.0605 140.616 39.7997C140.616 39.6954 140.564 39.5389 140.407 39.5389C140.251 39.5389 140.147 39.6432 140.094 39.7997C140.094 39.8519 140.251 39.9562 140.303 39.8518Z" fill="#008ACE"/>
<path d="M147.918 35.0008C148.179 35.3137 148.335 35.7832 148.127 36.1483C147.97 36.4613 147.605 36.7221 147.24 36.67C146.771 36.6178 146.718 36.2005 146.927 35.8354C147.084 35.5746 147.449 35.4702 147.657 35.2094C147.762 35.1051 147.657 35.0008 147.553 35.0008C147.084 35.0529 146.562 35.5224 146.458 36.044C146.405 36.5135 146.718 36.9308 147.188 36.9308C148.179 36.9308 148.648 35.6267 147.918 35.0008C147.918 34.8964 147.866 34.9486 147.918 35.0008Z" fill="#008ACE"/>
<path d="M159.445 34.6356C159.497 34.6356 159.549 34.6878 159.601 34.74C159.601 34.6878 159.549 34.6356 159.549 34.5835C159.497 34.8964 159.184 34.6356 159.08 34.5313C159.028 34.4791 158.975 34.4791 158.923 34.5313C158.715 35.0008 159.341 35.2616 159.706 35.0008C159.862 34.8964 159.966 34.6356 159.862 34.427C159.758 34.2705 159.497 34.2705 159.341 34.3748C159.236 34.4791 159.288 34.6356 159.445 34.6356Z" fill="#008ACE"/>
<path d="M160.384 24.8292C160.592 24.8813 160.801 25.0378 160.853 25.2465C160.905 25.5073 160.801 25.7159 160.54 25.7681C160.331 25.8202 160.227 25.6637 160.175 25.4551C160.175 25.2986 160.279 25.2465 160.331 25.09C160.331 25.0378 160.331 24.9856 160.279 24.9856C159.966 24.9335 159.862 25.3508 159.914 25.5594C159.966 25.8724 160.279 26.081 160.592 26.0289C160.957 25.9767 161.218 25.6637 161.166 25.2986C161.166 24.9335 160.801 24.6205 160.436 24.5683C160.331 24.5683 160.227 24.8292 160.384 24.8292Z" fill="#008ACE"/>
<path d="M172.901 29.6281C173.058 29.5237 173.267 29.5237 173.423 29.6802C173.579 29.8889 173.475 30.1497 173.267 30.254C172.745 30.567 172.536 29.8889 172.484 29.5237C172.484 29.4194 172.328 29.4194 172.276 29.4716C172.015 29.8367 172.223 30.3062 172.536 30.5148C172.901 30.7756 173.371 30.6713 173.684 30.3583C173.945 30.0975 173.997 29.6281 173.684 29.3673C173.423 29.1064 173.006 29.0021 172.693 29.2108C172.536 29.4194 172.693 29.7324 172.901 29.6281Z" fill="#008ACE"/>
<path d="M174.258 24.4119C174.518 24.5162 174.362 24.7248 174.153 24.6727C173.945 24.6205 173.788 24.9335 173.997 25.0378C174.258 25.1943 174.675 25.0378 174.779 24.777C174.883 24.464 174.675 24.1511 174.362 24.0989C174.101 24.0989 174.049 24.3597 174.258 24.4119Z" fill="#008ACE"/>
<path d="M163.461 40.3735C163.513 40.3735 163.513 40.4256 163.565 40.4256C163.565 40.3735 163.513 40.2691 163.513 40.217C163.461 40.3735 163.357 40.4256 163.2 40.3735C163.252 40.4256 163.357 40.4778 163.409 40.53C163.357 40.3213 163.409 40.1648 163.513 40.0083C163.565 39.904 163.461 39.8519 163.409 39.8519C163.044 39.904 162.939 40.3213 163.044 40.6343C163.096 40.7386 163.148 40.7908 163.252 40.7908C163.565 40.7908 163.826 40.6343 163.93 40.3213C163.93 40.2692 163.93 40.1648 163.878 40.1127C163.774 39.9562 163.565 39.904 163.357 39.9562C163.096 40.0083 163.2 40.4256 163.461 40.3735Z" fill="#008ACE"/>
<path d="M172.38 42.2513C172.693 42.6164 171.806 42.7729 171.545 42.6686C171.18 42.5121 171.91 42.147 172.015 42.0948C172.119 42.0426 172.067 41.8862 171.963 41.8862C171.597 41.834 171.232 41.9905 171.076 42.3035C170.919 42.6164 171.076 42.9816 171.441 43.0859C171.754 43.1381 172.276 43.1381 172.484 42.8772C172.693 42.6686 172.745 42.3035 172.484 42.0948C172.432 42.0426 172.276 42.147 172.38 42.2513Z" fill="#008ACE"/>
<path d="M174.675 37.6089C174.883 37.661 174.675 37.8175 174.623 37.661C174.623 37.5567 174.779 37.4524 174.883 37.4524C174.936 37.4002 174.988 37.3481 174.936 37.2959C174.414 36.9308 173.945 37.8697 174.57 38.0783C175.144 38.287 175.353 37.3481 174.727 37.2959C174.518 37.2437 174.466 37.5567 174.675 37.6089Z" fill="#008ACE"/>
<path d="M180.36 39.2781C180.464 39.2259 180.516 39.2781 180.621 39.3302C180.621 39.2781 180.621 39.1737 180.569 39.1216C180.516 39.1737 180.464 39.2259 180.412 39.1737C180.36 39.1216 180.412 39.0173 180.412 38.9651C180.412 38.9129 180.36 38.8086 180.308 38.8608C179.995 38.9651 179.995 39.3302 180.203 39.5389C180.464 39.7475 180.829 39.6432 180.934 39.3824C180.986 39.2781 180.934 39.1737 180.881 39.1216C180.725 38.9651 180.516 39.0173 180.308 39.0694C180.099 39.0694 180.203 39.3302 180.36 39.2781Z" fill="#008ACE"/>
<path d="M186.671 27.9589C187.088 28.2719 186.984 29.0543 186.358 28.95C185.784 28.8456 186.097 28.2197 186.41 28.011C186.514 27.9589 186.462 27.8546 186.41 27.8024C185.993 27.6459 185.576 28.0632 185.523 28.4805C185.471 28.95 185.784 29.3673 186.254 29.4194C186.671 29.4716 187.088 29.2629 187.245 28.8456C187.349 28.4283 187.14 27.9589 186.775 27.8024C186.671 27.6459 186.514 27.8546 186.671 27.9589Z" fill="#008ACE"/>
<path d="M190.009 36.9308C190.061 36.9308 190.113 36.9829 190.113 37.0351C190.113 36.9308 190.113 36.8264 190.113 36.7221C190.061 36.7743 189.957 36.7743 189.853 36.8264C189.644 36.8786 189.696 37.1394 189.853 37.1916C190.061 37.2437 190.27 37.1916 190.426 37.0873C190.531 37.0351 190.583 36.8786 190.531 36.7743C190.374 36.5656 190.113 36.5135 189.905 36.6178C189.644 36.67 189.8 36.9829 190.009 36.9308Z" fill="#008ACE"/>
<path d="M159.132 41.1037C159.184 41.0516 159.236 41.0516 159.288 41.0516C159.288 40.9994 159.236 40.9472 159.236 40.8951C159.236 40.8951 159.288 40.8951 159.288 40.8429H159.236L159.184 40.7908C159.184 40.7386 159.132 40.7386 159.08 40.7386C158.871 40.7908 158.923 41.0516 159.08 41.1559C159.288 41.2602 159.497 41.2081 159.549 40.9472C159.549 40.8951 159.549 40.7908 159.497 40.7908C159.288 40.6343 159.028 40.6343 158.819 40.8429C158.715 40.9994 158.975 41.2602 159.132 41.1037Z" fill="#008ACE"/>
<path d="M153.186 43.9205C153.29 43.9205 153.342 43.9205 153.395 44.0248C153.395 43.9205 153.395 43.8683 153.395 43.764C153.238 43.9205 153.082 43.9727 152.925 43.8683C152.977 43.9205 153.029 43.9727 153.082 44.0248C153.029 43.8683 153.029 43.764 152.977 43.6075C152.925 43.5554 152.873 43.5032 152.769 43.5554C152.56 43.764 152.612 44.1813 152.925 44.2856C153.238 44.3378 153.499 44.2335 153.708 43.9727C153.76 43.9205 153.708 43.8162 153.655 43.764C153.499 43.6075 153.342 43.5554 153.134 43.6075C152.977 43.6597 153.029 43.9727 153.186 43.9205Z" fill="#008ACE"/>
<path d="M152.873 37.0873C153.134 36.67 153.812 36.8264 153.708 37.3481C153.655 37.5567 153.447 37.7132 153.238 37.661C152.977 37.6089 152.873 37.2959 152.821 37.0873C152.821 36.9829 152.664 36.9829 152.664 37.0873C152.456 37.5046 152.769 37.974 153.134 38.0783C153.551 38.1827 153.968 37.9219 154.073 37.5046C154.177 37.1394 154.02 36.7221 153.655 36.5656C153.29 36.4091 152.821 36.5656 152.612 36.9829C152.56 37.0873 152.769 37.2437 152.873 37.0873Z" fill="#008ACE"/>
<path d="M131.228 36.9308C131.332 36.7743 131.593 36.7221 131.801 36.8264C132.01 36.9829 131.906 37.2437 131.697 37.3481C131.28 37.5567 131.176 36.9308 131.384 36.67C131.436 36.5656 131.332 36.4613 131.28 36.5135C130.863 36.6178 130.758 37.1394 130.967 37.5046C131.176 37.974 131.801 37.974 132.114 37.661C132.427 37.3481 132.427 36.8264 132.062 36.5656C131.749 36.357 131.228 36.4091 131.019 36.7743C130.915 36.9308 131.123 37.0873 131.228 36.9308Z" fill="#008ACE"/>
<path d="M131.228 29.3151C131.332 29.4716 131.436 29.6281 131.593 29.7324C131.645 29.7846 131.697 29.7324 131.697 29.6802C131.593 29.5237 131.489 29.3673 131.384 29.2108C131.28 29.1064 131.123 29.2108 131.228 29.3151Z" fill="#1D1D1B"/>
<path d="M131.384 30.1497C131.28 30.3583 131.019 30.4105 130.915 30.2019C130.863 30.0975 130.915 29.9932 130.915 29.8367C130.915 29.7324 130.81 29.7324 130.758 29.7324C130.445 29.8889 130.55 30.3583 130.81 30.5148C131.123 30.6713 131.436 30.5148 131.541 30.2019C131.593 30.0454 131.436 29.9932 131.384 30.1497Z" fill="#008ACE"/>
<path d="M133.053 22.3254C133.523 22.0646 133.836 22.534 133.888 22.9513C133.888 23.2643 133.731 23.5773 133.523 23.7338C132.949 24.151 132.427 23.4729 132.792 22.9513C132.845 22.847 132.74 22.7948 132.688 22.7948C132.167 22.8992 132.062 23.5251 132.323 23.9424C132.636 24.4119 133.366 24.464 133.783 24.0989C134.253 23.7859 134.357 23.1078 134.201 22.5862C133.992 22.1167 133.47 21.8559 133.001 22.1167C132.845 22.2211 132.897 22.3775 133.053 22.3254Z" fill="#008ACE"/>
<path d="M128.985 24.3597C129.246 24.4119 129.194 24.5162 128.933 24.7248C128.933 24.777 128.985 24.8292 128.985 24.8813C129.037 24.777 129.037 24.6727 129.141 24.6205C129.194 24.5683 129.194 24.464 129.089 24.464C128.881 24.464 128.724 24.6205 128.724 24.8292C128.724 24.8813 128.776 24.9335 128.828 24.9335C129.246 24.9335 129.402 24.3597 128.933 24.2554C128.985 24.2554 128.933 24.3597 128.985 24.3597Z" fill="#008ACE"/>
<path d="M138.425 50.7016C138.686 50.9102 138.478 51.3797 138.165 51.2232C137.852 51.0667 137.956 50.6494 138.165 50.4929C138.217 50.4408 138.165 50.3364 138.06 50.3364C137.382 50.5451 137.434 51.484 138.165 51.5883C138.843 51.6926 139.156 50.858 138.634 50.4407C138.478 50.3364 138.321 50.5972 138.425 50.7016Z" fill="#008ACE"/>
<path d="M132.636 51.5362C132.792 51.5883 133.001 51.6405 133.158 51.6405C133.105 51.5883 133.105 51.5362 133.053 51.484C133.053 51.484 132.845 51.3797 132.792 51.3275C132.74 51.3275 132.688 51.3275 132.636 51.3797C132.48 51.6405 132.74 51.9013 133.001 51.9013C133.262 51.9013 133.47 51.6405 133.366 51.4318C133.314 51.3275 133.262 51.3275 133.158 51.3275C133.001 51.3797 132.792 51.3797 132.636 51.4318C132.584 51.4318 132.584 51.5362 132.636 51.5362Z" fill="#008ACE"/>
<path d="M136.965 17.7873C136.965 18.2567 136.913 18.987 136.339 19.0913C136.131 19.0913 135.922 19.0392 135.87 18.8305C135.818 18.5697 136.078 18.3611 136.183 18.1003C136.235 17.9959 136.131 17.9438 136.026 17.9959C135.713 18.1524 135.452 18.6219 135.557 18.987C135.661 19.3 135.922 19.4565 136.235 19.4565C137.069 19.4565 137.226 18.5175 137.174 17.8394C137.122 17.683 136.965 17.683 136.965 17.7873Z" fill="#008ACE"/>
<path d="M152.925 49.0324C153.134 48.8237 153.447 48.9281 153.551 49.1889C153.655 49.554 153.342 49.8148 153.029 49.9191C152.821 49.9713 152.195 50.0756 152.195 49.7105C152.195 49.5018 152.508 49.241 152.612 49.0324C152.664 48.9802 152.56 48.8759 152.508 48.8759C152.038 48.9802 151.465 49.554 151.778 50.0756C152.091 50.5972 153.029 50.4408 153.447 50.1799C153.916 49.867 154.177 49.1889 153.812 48.7194C153.499 48.3543 152.873 48.3543 152.664 48.7716C152.612 48.9802 152.769 49.1367 152.925 49.0324Z" fill="#008ACE"/>
<path d="M145.519 51.171C145.675 51.0667 145.727 51.4318 145.467 51.3797C145.362 51.3275 145.206 51.1189 145.206 51.0145C145.206 50.9624 145.102 50.9102 145.049 50.9624C144.893 51.2232 144.893 51.484 145.154 51.6926C145.362 51.8491 145.623 51.8491 145.832 51.6926C146.301 51.3275 145.78 50.5972 145.31 50.9624C145.206 51.0145 145.362 51.2753 145.519 51.171Z" fill="#008ACE"/>
<path d="M169.459 49.1367C169.928 49.2932 169.876 49.867 169.563 50.1799C169.355 50.3886 169.042 50.5451 168.781 50.5451C168.416 50.5972 168.259 50.3364 168.259 49.9713C168.259 49.6062 168.52 49.3453 168.572 49.0324C168.572 48.9281 168.468 48.8237 168.364 48.8759C167.946 49.1889 167.634 49.8148 167.79 50.3364C167.946 50.8581 168.416 51.171 168.937 50.9624C169.407 50.8059 169.928 50.4408 169.981 49.9191C170.033 49.5018 169.876 49.0845 169.459 48.9802C169.407 48.9281 169.355 49.0845 169.459 49.1367Z" fill="#008ACE"/>
<path d="M157.567 17.9438C157.619 18.1524 157.671 18.5175 157.359 18.5697C157.098 18.6219 157.15 18.3611 157.202 18.2046C157.202 18.1524 157.15 18.0481 157.098 18.1002C156.628 18.1524 156.785 18.8827 157.202 18.9348C157.463 18.987 157.671 18.8305 157.828 18.6219C157.932 18.3611 157.88 18.1002 157.776 17.8916C157.724 17.7351 157.515 17.8394 157.567 17.9438Z" fill="#008ACE"/>
<path d="M150.735 17.7873C150.943 17.683 151.048 17.8916 150.995 18.0481C150.995 18.1524 150.839 18.2567 150.787 18.3089C150.735 18.3611 150.369 18.4654 150.422 18.2567C150.422 18.2046 150.369 18.1003 150.265 18.2046C150.109 18.3611 150.109 18.6219 150.317 18.7262C150.578 18.8827 150.891 18.674 151.048 18.4654C151.204 18.2567 151.308 17.9959 151.152 17.7873C151.048 17.6308 150.787 17.5265 150.63 17.683C150.578 17.683 150.63 17.8394 150.735 17.7873Z" fill="#008ACE"/>
<path d="M168.52 49.1367C168.677 49.0845 168.781 49.0845 168.937 49.1367C169.042 49.1367 169.094 49.1889 169.198 49.1889C169.25 49.1889 169.303 49.1367 169.25 49.0845C169.094 48.8237 168.677 48.8759 168.468 48.9281C168.312 48.9281 168.364 49.1889 168.52 49.1367Z" fill="#1D1D1B"/>
<path d="M162.626 50.2843C162.731 50.2843 162.939 50.2843 162.939 50.4408C162.939 50.4929 162.835 50.6494 162.783 50.5972C162.679 50.4929 162.835 50.2843 162.939 50.2321C162.992 50.1799 162.992 50.0756 162.939 50.0756C162.418 49.7626 162.157 50.9102 162.783 50.9624C163.044 51.0145 163.304 50.7016 163.304 50.4408C163.304 50.0756 162.992 49.9713 162.679 49.9713C162.418 50.0235 162.418 50.2843 162.626 50.2843Z" fill="#008ACE"/>
<path d="M180.569 49.1889C181.09 49.0845 181.403 49.6062 181.247 50.0756C181.142 50.3886 180.881 50.5972 180.621 50.7537C180.203 50.9624 179.317 51.2232 179.056 50.6494C178.639 49.6583 179.891 49.3453 180.464 48.8759C180.569 48.8237 180.464 48.6672 180.36 48.6672C179.63 48.6672 178.795 49.2932 178.639 50.0235C178.482 50.6494 178.847 51.3797 179.525 51.3797C180.308 51.3797 181.247 51.0145 181.507 50.2321C181.716 49.554 181.247 48.8237 180.464 48.9802C180.308 48.9281 180.412 49.1889 180.569 49.1889Z" fill="#008ACE"/>
<path d="M163.617 18.1524C163.67 18.2567 163.722 18.3611 163.67 18.4654C163.617 18.5697 163.513 18.5697 163.461 18.5175C163.409 18.4654 163.409 18.3611 163.461 18.3089C163.513 18.2567 163.461 18.2046 163.409 18.1524C163.044 17.9959 162.992 18.7262 163.357 18.7783C163.774 18.9348 163.826 18.3611 163.617 18.1524C163.617 18.1002 163.565 18.1002 163.617 18.1524Z" fill="#008ACE"/>
<path d="M166.173 47.0502C166.121 47.1024 166.069 47.1024 166.069 47.0502C166.069 46.9981 166.069 46.9981 166.069 46.9459C166.069 46.8937 166.017 46.8416 165.912 46.8416C165.599 46.8937 165.756 47.4154 166.017 47.4675C166.382 47.5718 166.59 47.1545 166.434 46.8937C166.382 46.6851 166.069 46.8416 166.173 47.0502Z" fill="#008ACE"/>
<path d="M172.223 51.484C172.328 51.5362 172.276 51.797 172.171 51.797C172.067 51.797 172.067 51.484 172.067 51.4318C172.119 51.3275 172.015 51.2753 171.963 51.3275C171.441 51.4318 171.754 52.2664 172.223 52.2143C172.693 52.2143 172.849 51.4318 172.38 51.2232C172.223 51.1189 172.067 51.3797 172.223 51.484Z" fill="#008ACE"/>
<path d="M176.187 47.6762C176.5 47.7283 176.709 47.9891 176.709 48.3021C176.709 48.6151 176.396 48.9802 176.083 48.928C175.718 48.8759 175.822 48.3543 175.927 48.0935C176.031 47.8326 176.24 47.6762 176.396 47.5197C176.448 47.4675 176.396 47.3632 176.292 47.3632C175.353 47.5197 174.988 49.3975 176.135 49.2932C176.605 49.241 176.97 48.8237 177.022 48.4064C177.074 47.937 176.709 47.4675 176.24 47.3632C176.083 47.311 175.979 47.624 176.187 47.6762Z" fill="#008ACE"/>
<path d="M188.34 17.5265C188.496 17.6308 188.496 17.9959 188.288 18.0481C187.975 18.1524 187.923 17.7351 187.923 17.5265C187.923 17.4743 187.871 17.4221 187.766 17.4221C187.297 17.7351 187.923 18.4132 188.34 18.3089C188.862 18.1524 188.862 17.4743 188.496 17.2135C188.34 17.1092 188.184 17.37 188.34 17.5265Z" fill="#008ACE"/>
<path d="M170.137 17.057C170.294 17.2657 170.346 17.5265 170.241 17.7873C170.189 18.0481 169.981 18.3089 169.72 18.3089C169.407 18.3089 169.459 17.9959 169.563 17.8394C169.72 17.6308 169.981 17.5786 170.137 17.37C170.189 17.3178 170.137 17.2135 170.085 17.2135C169.72 17.2135 169.25 17.4743 169.146 17.8916C169.042 18.2567 169.198 18.6219 169.563 18.7262C169.928 18.7784 170.294 18.4654 170.45 18.1524C170.607 17.7873 170.607 17.37 170.346 17.0048C170.241 16.7962 170.085 16.9005 170.137 17.057Z" fill="#008ACE"/>
<path d="M175.092 19.4565C175.144 19.4565 175.196 19.613 175.144 19.613C175.092 19.6651 175.04 19.5608 175.092 19.4565C175.144 19.2478 174.883 19.1435 174.779 19.3C174.518 19.613 174.988 20.1867 175.353 19.9259C175.666 19.7173 175.509 19.1435 175.092 19.1435C174.883 19.1435 174.883 19.4565 175.092 19.4565Z" fill="#008ACE"/>
<path d="M181.038 17.8916C181.194 18.3089 180.829 18.7783 180.412 18.5175C179.995 18.2567 180.256 17.8394 180.569 17.6308C180.621 17.5786 180.621 17.5265 180.569 17.4743C180.256 17.4221 179.995 17.6308 179.89 17.9438C179.786 18.2567 179.943 18.6219 180.256 18.7783C180.881 19.1435 181.559 18.4132 181.194 17.7873C181.142 17.7351 180.986 17.7873 181.038 17.8916Z" fill="#008ACE"/>
<path d="M188.34 50.4407C188.862 50.4407 188.914 51.171 188.392 51.2232C187.871 51.2753 187.923 50.7016 187.975 50.3886C187.975 50.2843 187.923 50.2321 187.818 50.2843C187.453 50.4408 187.453 50.9624 187.662 51.2753C187.871 51.5883 188.236 51.7448 188.601 51.5883C188.914 51.484 189.174 51.171 189.122 50.8059C189.07 50.4408 188.757 50.1278 188.34 50.1278C188.131 50.1278 188.131 50.4407 188.34 50.4407Z" fill="#008ACE"/>
<path d="M191.104 47.3632C191.052 47.3632 190.739 47.2589 190.687 47.2067C190.635 47.1545 190.583 47.2067 190.583 47.2589C190.531 47.4675 190.635 47.624 190.791 47.6762C191 47.7805 191.104 47.6762 191.209 47.5197C191.261 47.4675 191.209 47.3632 191.104 47.3632Z" fill="#008ACE"/>
</svg>
