<svg width="200" height="40" viewBox="0 0 200 40" fill="none" xmlns="http://www.w3.org/2000/svg">
<g clip-path="url(#clip0_3_285)">
<path d="M40.7596 0.648438V22.3251H53.1728V27.8833H34.553V0.648438H40.7596Z" fill="white"/>
<path d="M62.7142 0.648438V27.8833H56.5076V0.648438H62.7142Z" fill="white"/>
<path d="M73.8305 0.648438L90.1343 18.9903V0.648438H96.2483V27.8833H90.4122L74.1084 9.54144V27.9759H67.9944V0.648438H73.8305Z" fill="white"/>
<path d="M123.946 10.0973C121.908 7.13293 119.129 5.55813 114.868 5.55813C109.403 5.55813 105.882 8.98564 105.882 14.3585C105.882 19.7314 109.588 23.1589 114.868 23.1589C119.222 23.1589 121.908 21.4914 123.946 18.5271L128.763 21.3062C125.984 26.1232 121.352 28.6244 114.961 28.6244C106.253 28.6244 99.6758 23.1589 99.6758 14.3585C99.6758 5.55813 106.346 0 114.868 0C121.26 0 125.892 2.50116 128.671 7.3182L123.946 10.0973Z" fill="white"/>
<path d="M145.16 28.6244C136.915 28.6244 129.875 22.881 129.875 14.3585C129.875 5.83604 136.915 0 145.16 0C153.497 0 160.445 5.7434 160.445 14.2659C160.445 22.7883 153.497 28.6244 145.16 28.6244ZM145.16 23.3441C150.255 23.3441 154.331 19.9166 154.331 14.3585C154.331 8.80037 150.347 5.28022 145.16 5.28022C139.972 5.28022 135.989 8.70774 135.989 14.3585C135.989 20.0093 140.065 23.3441 145.16 23.3441Z" fill="white"/>
<path d="M172.209 0.648438L181.751 20.4724H181.936L191.941 0.648438H199.815V27.8833H193.793V8.80036H193.515L184.252 27.8833H179.064L170.264 8.80036H169.986V27.8833H163.965V0.648438H172.209Z" fill="white"/>
<path d="M5.37289 36.8689V39.7406H4.72444L4.53917 39.3701C3.98335 39.648 3.42754 39.8332 2.77909 39.8332C1.38956 39.9259 0.0926627 38.8143 2.71727e-05 37.4247C-0.0926083 36.0352 1.01902 34.7383 2.40855 34.6457C2.50119 34.6457 2.59382 34.6457 2.68646 34.6457C3.70545 34.553 4.6318 35.0162 5.18761 35.8499L4.26126 36.3131C3.89072 35.7573 3.24227 35.4794 2.68646 35.572C1.85274 35.4794 1.01902 36.1278 1.01902 37.0542C0.926382 37.8879 1.57483 38.7216 2.50119 38.7216C2.59382 38.7216 2.68646 38.7216 2.77909 38.7216C3.3349 38.7216 3.89072 38.629 4.26126 38.2584V37.7026H3.057V36.7763L5.37289 36.8689Z" fill="white"/>
<path d="M8.4298 34.7383V38.629H11.8573V39.648H7.31818V34.7383H8.4298Z" fill="white"/>
<path d="M17.9713 34.7383V35.7573H14.6364V36.6836H17.6934V37.7026H14.6364V38.7216H18.1566V39.7406H13.5248V34.8309H17.9713V34.7383Z" fill="white"/>
<path d="M23.7147 34.7383L25.8453 39.648H24.6411L24.3632 38.9069H21.3062L20.9356 39.648H19.7314L21.862 34.7383H23.7147ZM21.6767 37.9805H23.9L22.9736 35.7573H22.6031L21.6767 37.9805Z" fill="white"/>
<path d="M28.6243 34.7383L31.5887 38.0732V34.7383H32.7003V39.648H31.6813L28.717 36.4057V39.7406H27.6053V34.8309H28.6243V34.7383Z" fill="white"/>
<path d="M35.6647 34.7383V39.648H34.553V34.7383H35.6647Z" fill="white"/>
<path d="M38.629 34.7383L41.5933 38.0732V34.7383H42.7049V39.648H41.6859L38.7216 36.3131V39.648H37.61V34.7383H38.629Z" fill="white"/>
<path d="M49.8379 36.8689V39.7406H49.0968L48.9115 39.3701C48.4484 39.7406 47.7999 39.9259 47.1515 39.8332C45.7619 39.9259 44.465 38.8143 44.3724 37.4247C44.2798 36.0352 45.3914 34.7383 46.7809 34.6457C46.8736 34.6457 46.9662 34.6457 47.0588 34.6457C48.0778 34.553 49.0042 35.0162 49.56 35.8499L48.6336 36.3131C48.2631 35.7573 47.6146 35.4794 46.9662 35.572C46.1325 35.4794 45.2988 36.1278 45.2988 37.0542C45.2061 37.8879 45.8546 38.7216 46.7809 38.7216C46.8736 38.7216 46.9662 38.7216 47.0588 38.7216C47.6146 38.7216 48.1705 38.629 48.541 38.2584V37.7026H47.2441V36.7763L49.8379 36.8689Z" fill="white"/>
<path d="M56.5076 34.7383V39.648H55.396V34.7383H56.5076Z" fill="white"/>
<path d="M59.472 34.7383L62.4363 38.0732V34.7383H63.5479V39.648H62.4363L59.472 36.3131V39.648H58.3604V34.7383H59.472Z" fill="white"/>
<path d="M66.5123 34.7383L68.1797 38.629H68.4576L70.1251 34.7383H71.3293L69.1987 39.648H67.6239L65.4933 34.7383H66.5123Z" fill="white"/>
<path d="M77.3506 34.7383V35.7573H74.0157V36.6836H77.0727V37.7026H74.0157V38.7216H77.5359V39.7406H72.9041V34.8309H77.3506V34.7383Z" fill="white"/>
<path d="M83.5572 36.2205C83.0014 35.8499 82.2603 35.6647 81.6119 35.6647C80.6855 35.6647 80.4076 35.9426 80.4076 36.2205C80.4076 36.4984 80.6855 36.591 81.056 36.591L82.5382 36.7763C83.5572 36.8689 84.2057 37.3321 84.2057 38.2585C84.2057 39.3701 83.094 39.8333 81.6119 39.8333C80.6855 39.8333 79.7592 39.5554 79.0181 38.9996L79.5739 38.1658C80.2223 38.629 80.9634 38.9069 81.7045 38.9069C82.4456 38.9069 83.094 38.7216 83.094 38.2585C83.094 37.9806 82.9088 37.8879 82.5382 37.7953L80.8708 37.61C79.8518 37.5174 79.2033 37.1468 79.2033 36.2205C79.2033 35.2941 80.2223 34.6457 81.5192 34.6457C82.4456 34.6457 83.2793 34.831 84.0204 35.3868L83.5572 36.2205Z" fill="white"/>
<path d="M90.968 34.7383V35.7573H88.9301V39.648H87.8184V35.7573H85.7805V34.7383H90.968Z" fill="white"/>
<path d="M94.1177 34.7383L95.8777 38.3511L97.6378 34.7383H99.0273V39.648H97.9157V36.2204H97.8231L96.1556 39.648H95.2293L93.6545 36.2204H93.5619V39.648H92.6355V34.7383H94.1177Z" fill="white"/>
<path d="M105.512 34.7383V35.7573H102.177V36.6836H105.234V37.7026H102.177V38.7216H105.697V39.7406H101.065V34.8309H105.512V34.7383Z" fill="white"/>
<path d="M108.569 34.7383L111.533 38.0732V34.7383H112.645V39.648H111.626L108.661 36.3131V39.648H107.55V34.7383H108.569Z" fill="white"/>
<path d="M119.5 34.7383V35.7573H117.462V39.648H116.35V35.7573H114.312V34.7383H119.5Z" fill="white"/>
<path d="M129.041 36.4984C128.671 35.9426 128.022 35.6647 127.374 35.6647C126.54 35.572 125.799 36.2205 125.706 37.0542C125.706 37.1468 125.706 37.2395 125.706 37.2395C125.706 38.0732 126.355 38.8143 127.189 38.8143C127.281 38.8143 127.281 38.8143 127.374 38.8143C128.022 38.8143 128.671 38.5364 129.041 37.9805L129.875 38.4437C129.319 39.2774 128.393 39.8333 127.374 39.7406C125.984 39.8333 124.687 38.7216 124.595 37.3321C124.502 35.9426 125.614 34.6457 127.003 34.553C127.096 34.553 127.189 34.553 127.281 34.553C128.3 34.4604 129.227 35.0162 129.782 35.8499L129.041 36.4984Z" fill="white"/>
<path d="M134.321 39.8332C132.932 39.7406 131.82 38.4437 131.913 37.0542C132.006 35.6646 133.302 34.553 134.692 34.6457C136.082 34.7383 137.101 35.8499 137.101 37.2394C137.101 38.7216 135.896 39.8332 134.414 39.8332C134.414 39.8332 134.414 39.8332 134.321 39.8332ZM134.321 38.9069C135.248 38.9069 135.896 38.1658 135.896 37.2394C135.896 36.3131 135.155 35.6646 134.229 35.6646C133.302 35.6646 132.654 36.4057 132.654 37.2394C132.654 38.0732 133.302 38.8143 134.136 38.9069C134.229 38.9069 134.321 38.9069 134.321 38.9069Z" fill="white"/>
<path d="M140.435 34.7383L142.103 38.3511H142.195L143.956 34.7383H145.345V39.648H144.233V36.2204H144.141L142.473 39.648H141.547L139.972 36.2204H139.88V39.648H138.953V34.7383H140.435Z" fill="white"/>
<path d="M150.44 34.7383C151.181 34.6457 151.83 35.1089 152.015 35.85C152.015 35.9426 152.015 36.0352 152.015 36.0352C152.015 36.4058 151.922 36.6837 151.644 36.8689C152.107 37.1468 152.385 37.61 152.385 38.0732C152.385 38.9069 151.644 39.648 150.811 39.648C150.811 39.648 150.811 39.648 150.718 39.648H147.29V34.6457H150.44V34.7383ZM148.402 36.6837H150.533C150.811 36.6837 150.996 36.4058 150.996 36.2205C150.996 35.9426 150.718 35.7573 150.533 35.7573H148.495V36.6837H148.402ZM148.402 38.7216H150.718C150.996 38.7216 151.274 38.5364 151.274 38.2585C151.274 38.2585 151.274 38.2585 151.274 38.1658C151.274 37.8879 151.088 37.61 150.811 37.61H148.495V38.7216H148.402Z" fill="white"/>
<path d="M155.257 34.7383V39.648H154.238V34.7383H155.257Z" fill="white"/>
<path d="M158.221 34.7383L161.186 38.0732V34.7383H162.297V39.648H161.186L158.221 36.3131V39.648H157.11V34.7383H158.221Z" fill="white"/>
<path d="M167.948 34.7383L170.079 39.648H168.874L168.597 38.9069H165.54L165.262 39.648H163.965L166.095 34.7383H167.948ZM165.91 37.9805H168.041L167.114 35.7573H166.744L165.91 37.9805Z" fill="white"/>
<path d="M175.915 34.7383V35.7573H173.877V39.648H172.765V35.7573H170.727V34.7383H175.915Z" fill="white"/>
<path d="M178.786 34.7383V39.648H177.675V34.7383H178.786Z" fill="white"/>
<path d="M183.326 39.8332C181.936 39.7406 180.824 38.4437 180.917 37.0542C181.01 35.6646 182.307 34.553 183.696 34.6457C185.086 34.7383 186.105 35.8499 186.105 37.2394C186.105 38.7216 184.9 39.8332 183.418 39.8332C183.418 39.8332 183.418 39.8332 183.326 39.8332ZM183.326 38.9069C184.252 38.9069 184.993 38.1658 184.9 37.2394C184.9 36.3131 184.159 35.572 183.233 35.6646C182.307 35.6646 181.658 36.4057 181.658 37.2394C181.658 38.0732 182.307 38.8143 183.14 38.9069C183.233 38.9069 183.326 38.9069 183.326 38.9069Z" fill="white"/>
<path d="M188.976 34.7383L191.941 38.0732V34.7383H193.052V39.648H192.033L189.069 36.3131V39.648H187.957V34.7383H188.976Z" fill="white"/>
<path d="M199.259 36.2205C198.703 35.8499 197.962 35.6647 197.314 35.6647C196.387 35.6647 196.109 35.9426 196.109 36.2205C196.109 36.4984 196.387 36.591 196.758 36.591L198.24 36.7763C199.259 36.8689 199.907 37.3321 199.907 38.2585C199.907 39.3701 198.796 39.8333 197.314 39.8333C196.387 39.8333 195.461 39.5554 194.72 38.9996L195.276 38.1658C195.924 38.629 196.665 38.9069 197.406 38.9069C198.147 38.9069 198.703 38.7216 198.703 38.2585C198.703 37.9806 198.61 37.8879 198.147 37.7953L196.48 37.61C195.461 37.5174 194.812 37.1468 194.812 36.2205C194.812 35.2941 195.831 34.6457 197.128 34.6457C198.055 34.6457 198.888 34.831 199.629 35.3868L199.259 36.2205Z" fill="white"/>
<path d="M29.4581 12.0426V27.8833H25.5674L24.7337 25.7527C21.9546 27.698 18.6197 28.717 15.1922 28.5317C6.66975 28.5317 0 23.0662 0 14.2659C0 5.46549 6.66975 0 15.1922 0C21.4914 0 25.8453 2.31589 28.9023 6.85503L23.9926 9.63409C21.862 6.85503 19.5461 5.55813 15.0996 5.55813C9.63409 5.55813 6.11394 8.89301 6.11394 14.2659C6.11394 19.6387 9.63409 22.9736 15.0996 22.9736C18.9903 22.9736 21.2135 22.2325 23.4368 20.4724V17.3228L16.4891 17.0449V12.0426H29.4581Z" fill="white"/>
</g>
<defs>
<clipPath id="clip0_3_285">
<rect width="200" height="39.8333" fill="white"/>
</clipPath>
</defs>
</svg>
