<svg width="200" height="47" viewBox="0 0 200 47" fill="none" xmlns="http://www.w3.org/2000/svg">
<path d="M117.041 22.551C117.041 23.2653 116.939 23.9796 116.633 24.5919C116.429 25.1668 116.106 25.6918 115.684 26.1317C115.261 26.5717 114.75 26.9164 114.184 27.1429C113.532 27.3944 112.841 27.5325 112.143 27.551H107.041L103.98 23.4694V10.9184H111.837C112.653 10.9184 113.367 11.1225 113.98 11.3266C114.55 11.517 115.068 11.8374 115.493 12.2624C115.918 12.6875 116.238 13.2055 116.429 13.7755L116.633 15.5102L116.531 16.4286L116.122 17.347C115.946 17.6389 115.741 17.9123 115.51 18.1633C115.213 18.4322 114.867 18.6402 114.49 18.7755C115 18.9796 115.306 19.1837 115.612 19.5919L116.429 20.5102L116.837 21.5306L117.041 22.551ZM112.653 16.0204C112.653 15.5102 112.551 15.1021 112.245 14.898C111.939 14.5919 111.531 14.4898 110.714 14.4898H107.857V17.347H110.714C111.429 17.347 111.939 17.2449 112.245 16.9388C112.551 16.6327 112.653 16.3266 112.653 15.9184V16.0204ZM112.857 22.449C112.857 21.9388 112.755 21.4286 112.449 21.1225C112.056 20.7752 111.544 20.5925 111.02 20.6123H107.959V24.1837H111.02C111.633 24.1837 112.041 23.9796 112.449 23.6735C112.653 23.3674 112.857 22.9592 112.857 22.449Z" fill="white"/>
<path d="M118.98 11.0204H130.612V14.4898H122.857V17.551H129.49V20.9183H122.857V24.1837H130.612V27.551H119.082V11.0204H118.98Z" fill="white"/>
<path d="M140.816 11.0204C141.837 11.0204 142.551 11.2245 143.265 11.5306C143.878 11.7347 144.388 12.1429 144.796 12.6531C145.306 13.1633 145.51 13.6735 145.816 14.3878C146.155 15.6289 146.119 16.9423 145.714 18.1633L144.694 19.898C144.184 20.4082 143.673 20.8164 142.959 21.0204C142.245 21.3266 141.531 21.4286 140.714 21.4286H137.347V27.551H133.673V10.9184H140.918L140.816 11.0204ZM137.449 18.1633H140.204C140.918 18.1633 141.531 17.9592 141.837 17.5511C142.127 17.1891 142.284 16.7392 142.284 16.2755C142.284 15.8119 142.127 15.362 141.837 15C141.531 14.5919 141.02 14.3878 140.306 14.3878H137.449V18.1633Z" fill="white"/>
<path d="M167.449 11.0204V27.551H147.755V11.0204H151.531V24.1837H155.612V11.0204H159.49V24.1837H163.571V11.0204H167.449Z" fill="white"/>
<path d="M180.102 17.8571L173.775 27.551H170.408V11.0204H174.184V20.9183H174.286L180.714 11.0204H184.082V27.551H180.306V17.8571H180.102Z" fill="white"/>
<path d="M196.122 27.551V20.8163H190.816V27.551H187.041V11.0204H190.816V17.449H196.122V11.0204H200V27.551H196.122Z" fill="white"/>
<path d="M81.1224 1.73469L69.5918 27.551H61.8367L70.9184 7.7551L71.4286 6.32653H60V0H79.7959L81.1224 1.73469Z" fill="white"/>
<path d="M93.9796 12.9592L92.7551 13.4694L89.1837 8.46938L86.7347 9.48979L82.8572 4.28571L72.6531 27.551H104.286L94.0816 12.9592H93.9796ZM83.4694 9.18366L84.6939 10.9184L85.8163 12.551L87.7551 11.7347L88.3674 11.5306L90.8163 14.898L91.9388 16.4286L93.2653 16.0204L98.5714 23.5714L92.6531 20L91.2245 20.2041L87.6531 17.6531L85.6123 18.2653L82.7551 16.6326L79.1837 18.8775L83.4694 9.18366Z" fill="white"/>
<path d="M0 27.551V10.9184H3.87755V17.347H5.10204C5.81633 17.347 6.42857 17.2449 6.73469 16.9388C7.14286 16.7347 7.55102 16.1225 7.7551 15.4082L9.18367 11.0204H13.1633L11.6327 15.8164C11.4286 16.6327 11.0204 17.347 10.6122 17.8572C10.3061 18.4694 9.79592 18.7755 9.28571 18.8776C9.92484 19.1409 10.4866 19.5622 10.9184 20.1021L11.8367 22.1429L13.4694 27.449H9.18367L7.85714 22.7551C7.65306 21.9388 7.34694 21.4286 6.83673 21.1225C6.42857 20.9184 5.81633 20.8164 5.20408 20.8164H3.87755V27.449H0V27.551Z" fill="white"/>
<path d="M20.8163 14.4898V18.3673C20.8163 19.6939 20.8163 20.8163 20.6122 22.0408C20.5102 23.0612 20.2041 24.0816 19.7959 24.8979C19.2857 25.7143 18.7755 26.4285 17.8571 26.9388C16.8663 27.5106 15.7352 27.7934 14.5918 27.7551L13.9796 24.6939C14.7959 24.4898 15.3061 24.2857 15.7143 23.8775C16.1316 23.5404 16.4783 23.1243 16.7347 22.653C16.8367 22.1428 17.0408 21.6326 17.0408 20.8163V11.0204H28.2653V27.551H24.4898V14.4898H20.8163Z" fill="white"/>
<path d="M32.2449 24.7959H33.5714C34.0816 24.7959 34.3878 24.6939 34.5918 24.4898L35.102 23.7755L35.2041 23.3673L30.3061 11.1224H34.2857L35.7143 15.5102L37.0408 19.5918H37.1429L38.6735 15.2041L40.102 11.1224H43.9796L39.1837 23.1633C38.9434 23.9853 38.6005 24.7738 38.1633 25.5102C37.8677 26.0133 37.4881 26.462 37.0408 26.8367C36.6362 27.197 36.1433 27.4435 35.6122 27.551C35.102 27.7551 34.5918 27.7551 33.8776 27.7551H32.2449V24.6939V24.7959Z" fill="white"/>
<path d="M45.6122 11.0204H56.5306V14.4898H49.4898V17.0408H52.8571C54.5918 17.0408 55.9184 17.551 56.9388 18.4694C57.9592 19.3877 58.3673 20.6122 58.3673 22.2449C58.3595 22.8691 58.2563 23.4886 58.0612 24.0816C57.8571 24.6939 57.551 25.2041 57.1429 25.7143C56.7347 26.2245 56.1224 26.6326 55.5102 26.9388C54.7959 27.2449 53.9796 27.449 52.9592 27.449H45.6122V11.1224V11.0204ZM49.4898 24.1837H52.449C53.1633 24.1837 53.6735 23.9796 54.0816 23.5714C54.4898 23.1632 54.6939 22.7551 54.6939 22.2449C54.6939 21.7347 54.4898 21.3265 54.0816 20.9183C53.6735 20.6122 53.0612 20.4081 52.449 20.4081H49.4898V24.1837Z" fill="white"/>
<path d="M6.42857 41.2245L6.32653 42.1429L5.81633 42.8571L5 43.3674C4.68321 43.5224 4.33165 43.5927 3.97959 43.5714H0V35.4082H3.87755C4.28571 35.4082 4.59184 35.4082 4.89796 35.6123L5.71429 36.1225L6.22449 36.8367L6.32653 37.6531C6.32653 37.9592 6.32653 38.2653 6.12245 38.6735L5.20408 39.3878L5.81633 39.6939C5.81633 39.898 6.02041 40 6.12245 40.2041L6.42857 40.7143V41.2245ZM5.20408 37.6531L5.10204 37.0408L4.69388 36.7347L4.28571 36.5306H1.02041V38.7755H3.67347C3.97959 38.7755 4.38776 38.7755 4.69388 38.5714C5 38.3674 5.10204 38.0612 5.10204 37.6531H5.20408ZM5.30612 41.2245L5.20408 40.6123C5.13825 40.4525 5.03292 40.312 4.89796 40.2041C4.74975 40.0907 4.57329 40.0201 4.38776 40L3.87755 39.898H1.02041V42.6531H3.67347C4.18367 42.6531 4.4898 42.551 4.79592 42.3469C5.10204 42.0408 5.20408 41.7347 5.20408 41.2245H5.30612ZM14.5918 40.8163L14.2857 42.0408C14.1837 42.3469 13.9796 42.7551 13.5714 42.9592C13.3673 43.1633 12.9592 43.4694 12.551 43.4694C12.1231 43.6102 11.6749 43.6791 11.2245 43.6735C10.7741 43.6791 10.3258 43.6102 9.89796 43.4694C9.4898 43.4694 9.18367 43.1633 8.87755 42.8571C8.57143 42.6531 8.36735 42.3469 8.16327 41.9388C7.95918 41.6327 7.95918 41.1225 7.95918 40.7143V38.3674C7.95918 37.8571 7.95918 37.449 8.26531 37.1429C8.36735 36.7347 8.67347 36.5306 8.97959 36.1225L10 35.6123C10.3954 35.4822 10.8083 35.4134 11.2245 35.4082C11.7347 35.4082 12.2449 35.4082 12.551 35.6123C12.9592 35.7143 13.3673 35.9184 13.5714 36.2245C13.8776 36.4286 14.1837 36.7347 14.2857 37.1429L14.5918 38.3674V40.7143V40.8163ZM13.4694 38.5714C13.4694 38.1633 13.4694 37.7551 13.2653 37.551C13.2257 37.42 13.1601 37.2982 13.0724 37.193C12.9848 37.0879 12.8769 37.0014 12.7551 36.9388L12.0408 36.5306H10.5102C10.2041 36.5306 10 36.7347 9.79592 36.9388L9.28572 37.551C9.09513 37.8581 8.98949 38.2102 8.97959 38.5714V40.5102C8.97296 40.8329 9.03297 41.1536 9.15587 41.452C9.27877 41.7505 9.46193 42.0204 9.69388 42.2449L10.3061 42.551L11.2245 42.6531L12.0408 42.551L12.7551 42.1429L13.2653 41.5306L13.4694 40.5102V38.4694V38.5714ZM19.2857 35.3061L20.6122 35.5102C21.1225 35.7143 21.6327 35.9184 21.8367 36.2245L21.2245 37.0408L20.2041 36.5306L19.3878 36.4286C19.1501 36.4077 18.9111 36.4077 18.6735 36.4286C18.3673 36.5306 18.0612 36.6327 17.9592 36.8367C17.6531 37.0408 17.449 37.2449 17.3469 37.551L17.2449 38.5714V40.5102L17.3469 41.5306L17.9592 42.2449L18.6735 42.551L19.3878 42.6531L20.4082 42.551L21.2245 42.0408L21.9388 42.8571C21.5306 43.1633 21.2245 43.3674 20.7143 43.4694C19.8176 43.7514 18.8559 43.7514 17.9592 43.4694L16.9388 42.8571C16.7347 42.551 16.4286 42.2449 16.3265 41.8367C16.1225 41.5306 16.1225 41.1225 16.1225 40.7143V38.2653C16.1225 37.7551 16.1225 37.449 16.3265 37.0408C16.4286 36.6327 16.7347 36.3265 16.9388 36.0204L17.9592 35.5102L19.2857 35.3061ZM27.7551 43.5714L25.7143 40.3061L23.6735 43.5714H22.449L25.2041 39.4898L22.6531 35.4082H23.9796L25.9184 38.4694L27.8571 35.4082H29.1837L26.5306 39.4898L29.2857 43.5714H27.8571H27.7551ZM36.7347 40.8163L36.4286 42.0408C36.2245 42.3469 36.0204 42.7551 35.7143 42.9592C35.4082 43.1633 35.102 43.4694 34.6939 43.4694C34.266 43.6102 33.8178 43.6791 33.3674 43.6735C32.9169 43.6791 32.4687 43.6102 32.0408 43.4694C31.6327 43.4694 31.3265 43.1633 31.0204 42.8571C30.7143 42.6531 30.5102 42.3469 30.3061 41.9388C30.102 41.6327 30.102 41.1225 30.102 40.7143V38.3674C30.102 37.8571 30.102 37.449 30.3061 37.1429L31.0204 36.1225L32.0408 35.6123C32.4687 35.4715 32.9169 35.4025 33.3674 35.4082C33.8776 35.4082 34.2857 35.4082 34.6939 35.6123C35.102 35.7143 35.4082 35.9184 35.7143 36.2245C36.0204 36.4286 36.2245 36.7347 36.4286 37.1429C36.6327 37.551 36.6327 37.9592 36.6327 38.3674V40.7143L36.7347 40.8163ZM35.6123 38.5714C35.6123 38.1633 35.6123 37.7551 35.4082 37.551C35.3686 37.42 35.303 37.2982 35.2153 37.193C35.1277 37.0879 35.0197 37.0014 34.898 36.9388L34.1837 36.5306H32.6531C32.3469 36.5306 32.1429 36.7347 31.9388 36.9388C31.6327 37.0408 31.5306 37.3469 31.4286 37.551C31.2735 37.8678 31.2032 38.2194 31.2245 38.5714V40.5102C31.2045 40.8257 31.2484 41.142 31.3536 41.44C31.4588 41.7381 31.6231 42.0119 31.8367 42.2449L32.551 42.551L33.3674 42.6531L34.1837 42.551L34.898 42.1429L35.4082 41.5306L35.6123 40.5102V38.4694V38.5714ZM42.6531 43.5714V40H40.8163C40.6122 40 40.5102 40 40.3061 40.2041L39.898 40.6123L39.6939 41.2245L38.9796 43.5714H37.9592L38.6735 40.9184L39.1837 39.898C39.2857 39.5918 39.5918 39.3878 40 39.3878C39.6939 39.2857 39.3878 39.0816 39.1837 38.7755L38.7755 37.7551L37.9592 35.5102H39.0816L39.898 37.8571L40.102 38.4694L40.5102 38.8776L40.9184 38.9796H42.551V35.5102H43.6735V39.0816H45.4082L45.8163 38.8776L46.2245 38.4694L46.4286 37.8571L47.2449 35.5102H48.2653L47.551 37.8571C47.551 38.2653 47.3469 38.5714 47.1429 38.8776C47.0593 39.0232 46.941 39.146 46.7986 39.235C46.6562 39.324 46.4941 39.3765 46.3265 39.3878C46.7347 39.3878 47.0408 39.5918 47.2449 39.898L47.6531 40.9184L48.4694 43.5714H47.449L46.6327 41.2245C46.6327 40.9184 46.4286 40.7143 46.3265 40.6123C46.3265 40.4082 46.1225 40.3061 46.0204 40.2041L45.5102 40H43.6735V43.5714H42.6531ZM56.9388 42.6531H57.551V45.7143H56.5306V43.6735H50.2041V45.7143H49.1837V42.6531H49.6939C49.898 42.6531 50.102 42.3469 50.2041 42.2449L50.6122 41.4286L50.8163 40.4082C50.9406 39.3901 51.0427 38.3695 51.1225 37.3469V35.5102H56.9388V42.6531ZM55.9184 36.5306H52.0408L51.9388 38.9796L51.7347 41.2245L51.1225 42.6531H55.8163V36.5306H55.9184ZM60 40V40.6123C60 41.0204 60 41.3265 60.2041 41.6327L60.7143 42.2449L61.4286 42.6531H62.3469C63.1068 42.6531 63.8375 42.3608 64.3878 41.8367L65.1021 42.6531L63.7755 43.4694L62.2449 43.6735C61.7945 43.6791 61.3463 43.6102 60.9184 43.4694C60.5415 43.334 60.1948 43.126 59.898 42.8571C59.571 42.5829 59.3097 42.2389 59.1331 41.8505C58.9565 41.462 58.8692 41.0389 58.8776 40.6123V38.4694C58.8776 37.9592 58.9796 37.551 59.1837 37.1429C59.1837 36.7347 59.4898 36.4286 59.7959 36.1225L60.8163 35.5102C61.6732 35.1983 62.6126 35.1983 63.4694 35.5102C63.847 35.6417 64.1899 35.8569 64.4726 36.1396C64.7554 36.4223 64.9705 36.7653 65.1021 37.1429L65.4082 38.3674V40H60ZM64.2857 38.5714L64.1837 37.551C64.1441 37.42 64.0785 37.2982 63.9908 37.193C63.9032 37.0879 63.7952 37.0014 63.6735 36.9388L62.9592 36.5306L62.1429 36.4286L61.3265 36.5306L60.6123 36.9388C60.4082 37.0408 60.3061 37.2449 60.2041 37.551C60.049 37.8678 59.9787 38.2194 60 38.5714V38.9796H64.2857V38.5714ZM72.449 43.5714V40H67.9592V43.5714H66.9388V35.4082H67.9592V38.9796H72.449V35.4082H73.4694V43.5714H72.449ZM76.3265 41.8367L76.7347 41.4286L77.1429 40.7143L77.6531 40L78.0612 39.4898L80.8163 35.5102H81.8367V43.6735H80.6123V37.1429L80.2041 37.6531L79.6939 38.3674L79.1837 39.0816L78.8776 39.5918L78.4694 40.102L78.0612 40.8163L77.449 41.6327L76.9388 42.3469L76.4286 43.0612L76.1225 43.5714H75.102V35.4082H76.1225V41.8367H76.2245H76.3265ZM83.3674 37.8571C83.3674 37.551 83.3674 37.2449 83.5714 36.9388C83.5714 36.6327 83.8776 36.4286 84.0816 36.1225C84.2857 35.9184 84.4898 35.7143 84.898 35.6123L85.9184 35.4082H89.7959V43.5714H88.7755V40.102H86.5306C86.1225 40.102 85.8163 40.2041 85.5102 40.4082C85.3061 40.6122 85.1021 40.9184 85 41.4286L84.3878 43.6735H83.2653L83.8776 41.3265C83.8776 41.0204 84.0816 40.7143 84.2857 40.5102C84.3878 40.2041 84.5918 40 85 39.898C84.4898 39.7959 84.0816 39.4898 83.8776 39.1837C83.6735 38.7755 83.4694 38.3674 83.4694 37.8571H83.3674ZM84.3878 37.8571C84.3878 38.3674 84.5918 38.6735 84.898 38.8776C85.2041 39.0816 85.6123 39.1837 86.0204 39.1837H88.5714V36.4286H86.0204C85.6123 36.4286 85.2041 36.5306 85 36.7347C84.5918 37.0408 84.3878 37.449 84.3878 37.8571ZM98.1633 35.3061L99.5918 35.5102L100.816 36.2245L100.102 37.0408L99.0816 36.5306L98.2653 36.4286C97.9939 36.4013 97.7204 36.4013 97.449 36.4286L96.7347 36.8367L96.2245 37.551L96.0204 38.5714V40.5102C96.0204 40.9184 96.0204 41.2245 96.2245 41.5306L96.7347 42.2449L97.449 42.551L98.2653 42.7551C98.4694 42.7551 98.8776 42.7551 99.2857 42.551C99.5918 42.551 99.898 42.3469 100.204 42.0408L100.816 42.8571C100.408 43.1633 100.102 43.4694 99.5918 43.4694C98.7268 43.7304 97.8039 43.7304 96.9388 43.4694C96.5306 43.3674 96.1225 43.1633 95.9184 42.8571C95.6123 42.551 95.3061 42.3469 95.2041 41.8367L95 40.8163V38.2653C95 37.8571 95 37.449 95.2041 37.0408L95.8163 36.1225L96.8368 35.5102L98.1633 35.3061ZM108.878 35.3061L110.306 35.5102C110.714 35.7143 111.225 35.9184 111.531 36.2245L110.816 37.0408L109.796 36.5306L108.98 36.4286H108.163L107.449 36.8367L106.939 37.551L106.735 38.5714V40.5102C106.735 40.9184 106.735 41.2245 106.939 41.5306L107.449 42.2449L108.163 42.551L108.98 42.7551C109.286 42.7551 109.592 42.7551 110 42.551C110.306 42.551 110.612 42.3469 110.918 42.0408L111.531 42.8571C111.225 43.1633 110.816 43.4694 110.306 43.4694C109.441 43.7304 108.518 43.7304 107.653 43.4694C107.245 43.3674 106.837 43.1633 106.633 42.8571C106.327 42.551 106.122 42.3469 105.918 41.8367L105.714 40.8163V38.2653C105.714 37.8571 105.714 37.449 105.918 37.0408L106.633 36.1225L107.653 35.5102L108.878 35.3061ZM113.776 46.9388L115 43.4694L114.49 42.9592L112.041 35.5102H113.265L113.469 36.2245L113.776 37.2449L114.184 38.3674L114.388 39.1837L115.408 42.6531H115.51L116.735 39.1837L117.041 38.3674L117.449 37.3469L117.755 36.3265L118.061 35.5102H119.286L118.776 36.8367L117.959 38.8776L117.143 41.2245L116.327 43.5714L115.51 45.6123L115 46.9388H113.776ZM125.714 43.5714V36.4286H121.225V43.5714H120.204V35.4082H126.735V43.5714H125.714ZM129.49 40V40.6123C129.49 41.0204 129.49 41.3265 129.694 41.6327C129.796 41.8367 129.898 42.0408 130.204 42.2449L130.918 42.6531H131.735C132.495 42.6531 133.225 42.3608 133.776 41.8367L134.49 42.6531L133.163 43.4694L131.735 43.6735C131.284 43.6791 130.836 43.6102 130.408 43.4694C130.031 43.334 129.685 43.126 129.388 42.8571C129.061 42.5829 128.799 42.2389 128.623 41.8505C128.446 41.462 128.359 41.0389 128.367 40.6123V38.4694C128.367 37.9592 128.367 37.551 128.571 37.1429C128.673 36.7347 128.98 36.4286 129.286 36.1225L130.306 35.5102C131.163 35.1983 132.102 35.1983 132.959 35.5102C133.337 35.6417 133.68 35.8569 133.962 36.1396C134.245 36.4223 134.46 36.7653 134.592 37.1429L134.796 38.3674V40H129.592H129.49ZM133.776 38.5714C133.776 38.1633 133.776 37.7551 133.571 37.551C133.571 37.2449 133.265 37.0408 133.163 36.9388L132.449 36.5306L131.633 36.4286L130.816 36.5306C130.51 36.5306 130.306 36.7347 130.102 36.9388C129.98 37.0014 129.872 37.0879 129.785 37.193C129.697 37.2982 129.631 37.42 129.592 37.551C129.437 37.8678 129.366 38.2194 129.388 38.5714V38.9796H133.776V38.5714ZM137.245 35.5102L137.449 36.5306C137.739 36.3032 138.046 36.0985 138.367 35.9184L139.082 35.5102L139.694 35.4082H140.204C141.02 35.4082 141.735 35.6123 142.245 36.0204C142.653 36.5306 142.959 37.2449 142.959 38.2653V40.8163C142.959 41.8367 142.755 42.449 142.143 42.8571C141.633 43.4694 140.918 43.6735 140.102 43.6735C139.728 43.6964 139.353 43.6964 138.98 43.6735L137.449 43.0612V46.9388H136.429V35.5102H137.245ZM137.449 42.0408L138.878 42.551L139.898 42.6531C140.51 42.6531 140.918 42.551 141.327 42.2449C141.633 41.9388 141.837 41.4286 141.837 40.6123V38.2653C141.837 37.6531 141.735 37.0408 141.429 36.8367C141.122 36.5306 140.714 36.4286 140.204 36.4286H139.592C139.345 36.5077 139.105 36.6102 138.878 36.7347C138.571 36.7347 138.367 36.9388 138.061 37.0408L137.347 37.551V42.0408H137.449ZM144.592 39.7959V38.7755H149.184V39.7959H144.592ZM151.939 36.5306V43.6735H150.816V35.5102H156.633V36.5306H151.939ZM158.571 41.8367L158.98 41.4286L159.49 40.7143L159.898 40L160.306 39.4898L163.061 35.5102H164.082V43.6735H162.959V37.1429L162.551 37.6531L162.041 38.3674L161.531 39.0816L161.225 39.5918L160.816 40.102L160.408 40.8163L159.796 41.6327L159.286 42.3469L158.776 43.0612L158.469 43.5714H157.449V35.4082H158.469V41.8367H158.571ZM172.959 42.6531H173.571V45.7143H172.551V43.6735H166.122V45.7143H165.102V42.6531H165.714C165.918 42.6531 166.02 42.3469 166.225 42.2449C166.327 42.0408 166.531 41.7347 166.531 41.4286L166.837 40.4082C166.927 39.3894 166.995 38.3687 167.041 37.3469L167.143 35.5102H172.857V42.6531H172.959ZM171.837 36.5306H168.163L168.061 38.9796L167.857 41.2245L167.245 42.6531H171.837V36.5306ZM180.204 42.7551C179.49 43.1633 178.878 43.4694 178.469 43.4694L177.347 43.6735C176.531 43.6735 175.918 43.4694 175.408 43.0612C174.898 42.6531 174.694 42.0408 174.694 41.3265C174.694 40.9184 174.796 40.5102 175 40.2041L175.714 39.3878L176.735 38.9796L177.551 38.8776H180.306V38.1633C180.306 37.551 180.102 37.1429 179.796 36.7347C179.388 36.5306 178.878 36.3265 178.163 36.3265C177.857 36.3265 177.449 36.3265 177.143 36.5306C176.633 36.5306 176.225 36.7347 175.816 37.0408L175.306 36.2245C175.816 35.9184 176.327 35.6123 176.837 35.5102C177.347 35.3061 177.857 35.3061 178.265 35.3061C179.388 35.3061 180.204 35.5102 180.714 36.0204C181.122 36.5306 181.327 37.2449 181.327 38.0612V43.5714H180.408L180.204 42.7551ZM180.204 39.898H177.245L176.531 40.102C176.327 40.102 176.225 40.3061 176.02 40.6123L175.816 41.3265C175.816 41.8367 176.02 42.2449 176.327 42.3469C176.633 42.6531 177.041 42.7551 177.449 42.7551H178.163L178.98 42.449L179.694 42.1429L180.306 41.7347V39.898H180.204ZM190 37.7551L189.694 38.2653L189.388 38.7755L189.082 39.3878L188.878 39.898L187.449 42.449H186.633L185.612 40.6123L184.082 37.8571V43.5714H182.959V35.4082H183.98L185.816 38.7755L185.918 39.1837L186.429 39.898L186.735 40.6123L187.041 41.0204L188.265 38.7755L188.571 38.0612L189.082 37.0408L189.694 36.0204L190 35.4082H191.02V43.5714H190V37.7551ZM193.878 41.8367C194.082 41.8367 194.184 41.6327 194.286 41.4286L194.796 40.7143L195.306 40L195.612 39.4898L198.367 35.5102H199.388V43.6735H198.367V37.1429H198.265L197.857 37.6531L197.449 38.3674L196.939 39.0816L196.531 39.5918L196.225 40.102L195.714 40.8163L195.204 41.6327L194.592 42.3469L194.184 43.0612L193.776 43.5714H192.755V35.4082H193.776V41.8367H193.98H193.878Z" fill="white"/>
</svg>
