<svg width="72" height="27" viewBox="0 0 72 27" fill="none" xmlns="http://www.w3.org/2000/svg">
<path d="M6.34005 26.4186H0.408231L9.44658 0.236791H16.5801L25.6057 26.4186H19.6739L13.1156 6.21975H12.9111L6.34005 26.4186ZM5.96931 16.1274H19.9807V20.4484H5.96931V16.1274ZM38.0382 26.4186H28.757V0.236791H38.1149C40.7484 0.236791 43.0155 0.760939 44.916 1.80923C46.8166 2.84901 48.2783 4.34474 49.301 6.29645C50.3322 8.24815 50.8479 10.5834 50.8479 13.3021C50.8479 16.0294 50.3322 18.3732 49.301 20.3334C48.2783 22.2936 46.8081 23.7979 44.8905 24.8462C42.9814 25.8945 40.6973 26.4186 38.0382 26.4186ZM34.2925 21.6757H37.8081C39.4445 21.6757 40.8209 21.3859 41.9374 20.8064C43.0624 20.2183 43.9061 19.3107 44.4686 18.0834C45.0396 16.8476 45.3251 15.2538 45.3251 13.3021C45.3251 11.3675 45.0396 9.78651 44.4686 8.55923C43.9061 7.33196 43.0666 6.42855 41.9501 5.84901C40.8337 5.26946 39.4572 4.97969 37.8209 4.97969H34.2925V21.6757ZM54.9484 26.4186V0.236791H60.4839V21.8547H71.7083V26.4186H54.9484Z" fill="white"/>
</svg>
