<svg width="560" height="112" viewBox="0 0 560 112" fill="none" xmlns="http://www.w3.org/2000/svg">
<mask id="mask0_320_3" style="mask-type:alpha" maskUnits="userSpaceOnUse" x="0" y="0" width="560" height="112">
<rect width="560" height="112" fill="#D9D9D9"/>
</mask>
<g mask="url(#mask0_320_3)">
<path d="M-5.05181 95.2157C-0.970918 82.9159 11.8825 71.8768 26.742 65.8196C27.5109 65.5091 28.2849 65.2056 29.0636 64.9091C28.8077 64.3895 28.5458 63.8728 28.3214 63.3383C20.782 45.3946 57.9091 3.67939 81.7461 1.84091C96.5534 0.699179 110.602 -0.909744 132.566 5.55527C148.858 10.3505 188.391 24.1113 190.385 24.4883C205.709 30.3229 268.592 57.8785 312.513 68.0154C336.021 73.441 358.6 75.7546 382.986 71.9302C422.019 65.8081 432.227 44.9901 466.261 31.5941C469.29 30.6505 472.374 29.8138 475.523 29.1495C477.16 29.0402 478.801 28.9824 480.442 28.9762C483.137 29.332 485.799 29.8026 488.416 30.3857C498.219 33.5847 507.112 37.9162 515.985 42.359C516.514 42.644 517.043 42.929 517.57 43.2151C519.808 44.4287 522.037 45.6499 524.269 46.8683C531.228 50.6669 538.233 54.4218 545.323 58.0841C554.483 62.8151 564.009 67.3034 574.377 70.4789C589.696 75.1703 605.242 78.3427 622.167 77.6477C632.081 77.24 641.727 75.6059 650.948 73.0191C659.058 77.6233 664.527 84.5211 664.319 92.8831C663.965 107.022 649.057 121.786 628.399 121.588C622.404 121.531 616.427 121.275 610.487 120.827C606.021 125.114 601.131 128.77 594.361 131.739C584.984 135.853 576.042 137.387 565.509 138.627C553.295 140.064 540.64 139.47 528.357 139.549L443.688 140.096L275.575 141.183L107.463 142.27L65.7414 142.539C50.2868 142.639 34.4852 142.567 20.5369 137.165C0.399397 129.367 -10.5973 111.93 -5.05181 95.2157ZM63.5615 112.738C63.4816 112.774 63.3977 112.806 63.3178 112.843C62.8297 113.071 62.4177 113.29 62.0763 113.491L62.1662 113.384C62.051 113.47 61.9444 113.554 61.8511 113.631C60.0276 114.774 60.7556 115.173 63.5615 112.738Z" fill="#67B0FF"/>
</g>
</svg>
