<svg width="560" height="112" viewBox="0 0 560 112" fill="none" xmlns="http://www.w3.org/2000/svg">
<mask id="mask0_320_3" style="mask-type:alpha" maskUnits="userSpaceOnUse" x="0" y="0" width="560" height="112">
<rect width="560" height="112" fill="#D9D9D9"/>
</mask>
<g mask="url(#mask0_320_3)">
<path d="M553.898 91.5602C547.191 91.9593 540.467 89.3062 534.517 85.5943C516.355 69.9049 490.483 39.9079 465.469 60.3847C463.875 61.6973 462.208 63.4224 460.895 65.0067C451.097 78.0508 436.831 88.4632 420.05 88.9875C395.949 89.9804 373.953 75.4257 356.945 59.3819C349.568 54.2937 337.609 52.3371 331.354 60.2662C310.883 83.6433 278.71 100.68 251.617 77.5444C240.289 69.2105 234.819 52.9788 218.98 51.6227C210.528 50.3056 202.682 54.2937 197.175 60.7269C193.404 64.4387 189.132 68.0344 184.869 71.1559C167.822 83.9205 146.218 89.8786 127.147 78.099C118.431 73.193 110.559 65.9592 103.679 57.7126C100.514 54.2691 96.8442 52.1515 92.7772 50.7975C64.9979 42.7074 49.7306 63.6864 31.0667 78.6859C24.1068 83.953 17.8161 87.2479 9.58591 86.9471C0.534303 86.6028 -7.05011 93.9271 -6.99975 102.979C-6.16711 123.787 18.9341 120.191 32.2015 113.969C49.753 106.245 61.082 91.3108 74.8419 79.9549C77.2559 78.5674 81.1896 77.5232 83.8017 77.8507C125.896 123.59 175.349 120.356 217.323 75.0489C217.331 75.0489 217.324 75.0389 217.307 75.0143C253.205 123.339 304.009 121.992 344.971 76.4365C383.956 113.209 440.668 124.523 476.487 76.7092C481.243 70.8809 487.902 73.4479 493.357 77.1251C514.323 92.1594 523.92 113.662 553.898 114.824C570.034 115.283 570.035 91.0906 553.898 91.5602ZM82.2909 76.1916C82.4442 76.3637 82.5997 76.5281 82.7531 76.6992C82.5953 76.5334 82.4412 76.3641 82.2909 76.1916ZM554.888 200.936C549.438 200.142 544.466 198.123 539.817 195.061C529.796 188.75 522.055 178.412 514.536 169.215C507.001 161.497 496.721 156.751 485.991 156.582C478.358 154.708 467.219 156.386 462.511 164.086C452.711 177.033 439.012 188.953 422.715 191.55C400.618 195.641 386.688 175.722 372.946 161.803C363.271 153.459 346.717 151.461 337.156 161.2C334.545 163.791 333.044 167.085 330.787 170.019C308.831 203.005 265.859 199.962 237.338 176.576C232.046 172.495 227.054 167.937 222.604 162.877C221.89 162.118 221.057 161.481 220.138 160.989C215.798 158.939 211.044 158.953 206.673 161.223C204.753 162.235 203.058 164.799 201.513 166.291C175.092 195.573 122.957 212.582 97.6276 173.217C93.8729 166.049 86.7786 162.522 79.2233 162.643C49.6702 162.842 36.6557 201.494 7.58713 200.761C-6.53978 201.243 -7.56156 228.123 26.0653 215.615C46.0083 209.573 64.0914 181.769 79.2434 181.456C79.756 181.494 80.1287 181.552 80.3951 181.612C111.096 232.905 174.807 221.531 213.104 185.856C253.202 226.867 316.811 236.25 354.738 188.137C365.832 200.675 377.629 213.485 393.666 219.616C427.877 233.673 465.3 211.741 483.859 184.809C484.861 184.836 485.968 184.831 487.281 184.743C491.252 185.122 495.279 186.868 497.823 189.853C512.211 205.251 531.478 220.097 553.898 218.798C564.301 218.272 565.268 202.658 554.888 200.936ZM80.7062 181.694C80.9792 181.876 81.0609 181.81 80.7062 181.694V181.694Z" fill="white"/>
</g>
</svg>
