<svg width="163" height="183" viewBox="0 0 163 183" fill="none" xmlns="http://www.w3.org/2000/svg">
<path d="M159.667 159C157.362 165.502 153.133 172.946 145.317 178.207C140.798 181.251 135.357 182.625 129.91 182.625H40.3805C35.973 182.639 31.6207 181.644 27.6577 179.715C12.8824 172.45 5.98904 160.542 2.78296 151.028L159.667 159Z" fill="#EA4E56"/>
<path d="M153.782 166.612C149.263 169.656 143.822 171.03 138.375 171.03H31.8C27.3924 171.044 23.0402 170.048 19.0771 168.119C14.3206 165.802 9.97569 162.722 6.21509 159C10.227 166.551 16.8131 174.384 27.6576 179.715C31.6204 181.644 35.9728 182.64 40.3805 182.625H129.91C135.357 182.625 140.798 181.251 145.317 178.207C151.431 174.094 155.327 168.644 157.849 163.354C156.602 164.502 155.278 165.606 153.782 166.612Z" fill="#D83049"/>
<path d="M5.54309 118.338C37.4918 117.942 65.6171 123.56 78.7632 126.699C77.4538 119.264 76.4849 110.142 76.1445 99.0054C74.3113 38.6936 91.8569 3.16748 91.8569 3.16748C91.8569 3.16748 33.7208 38.6936 5.54309 118.338Z" fill="#72D4E7"/>
<path d="M88.6895 136.991C88.6895 136.991 80.8472 132.546 76.6983 113.2C64.6591 110.841 38.9021 106.619 9.64362 106.917C7.86893 111.015 6.23812 115.286 4.75122 119.707L74.5878 137.785L88.6895 136.991Z" fill="#34B8D6"/>
<path d="M95.0244 142.537V2.96865C95.0244 2.18131 94.6907 1.42623 94.0967 0.869497C93.5027 0.312767 92.697 0 91.8569 0C91.0169 0 90.2112 0.312767 89.6172 0.869497C89.0232 1.42623 88.6895 2.18131 88.6895 2.96865V142.219L91.8569 142.376L95.0244 142.537Z" fill="#ADADAD"/>
<path d="M69.2236 139.955L55.0774 139.183L52.1786 139.027L49.2798 138.873L0 136.244C0 136.244 1.72783e-07 142.708 2.78286 151.028L159.666 159C162.333 151.318 162.333 144.941 162.333 144.941L69.2236 139.955Z" fill="#F99430"/>
</svg>
