<svg width="210" height="76" viewBox="0 0 210 76" fill="none" xmlns="http://www.w3.org/2000/svg">
<path d="M58.2852 28.1035C58.1875 30.61 57.6829 32.9049 56.7715 34.9883C55.86 37.0716 54.6556 38.9596 53.1582 40.6523C51.6608 42.3125 49.9193 43.8099 47.9336 45.1445C45.9479 46.4466 43.832 47.5697 41.5859 48.5137L55.7949 70.877L45.6875 74.1973L32.0156 51.3945C30.4531 51.6875 28.8255 51.9316 27.1328 52.127C25.4727 52.3223 23.6335 52.4199 21.6152 52.4199C19.9876 52.4199 18.1973 52.3548 16.2441 52.2246C14.3236 52.0618 12.3053 51.7852 10.1895 51.3945L10.3848 72.0977L0.0820312 72.4883V3.39648C2.88151 2.55013 5.68099 1.91536 8.48047 1.49219C11.2799 1.06901 13.8353 0.74349 16.1465 0.515625C18.8158 0.28776 21.4036 0.141276 23.9102 0.0761719C26.026 0.0761719 28.3698 0.222656 30.9414 0.515625C33.513 0.808594 36.0846 1.32943 38.6562 2.07812C41.2604 2.82682 43.7669 3.86849 46.1758 5.20312C48.6172 6.53776 50.7493 8.24674 52.5723 10.3301C54.4277 12.3809 55.8763 14.8711 56.918 17.8008C57.9596 20.7305 58.4154 24.1647 58.2852 28.1035ZM23.9102 9.89062C22.4128 9.89062 20.8665 9.95573 19.2715 10.0859C17.9043 10.1836 16.3906 10.3301 14.7305 10.5254C13.0703 10.6882 11.459 10.9486 9.89648 11.3066L10.0918 42.4102C11.6217 42.7031 13.1517 42.9147 14.6816 43.0449C16.2441 43.1426 17.7578 43.1914 19.2227 43.1914C23.1289 43.1914 26.8236 42.752 30.3066 41.873C33.8223 40.9616 36.8984 39.7246 39.5352 38.1621C42.1719 36.5996 44.2715 34.7604 45.834 32.6445C47.3965 30.4961 48.1777 28.1849 48.1777 25.7109C48.1777 23.2044 47.5755 20.9746 46.3711 19.0215C45.1992 17.0684 43.5391 15.4245 41.3906 14.0898C39.2422 12.7227 36.6706 11.681 33.6758 10.9648C30.7135 10.2487 27.4583 9.89062 23.9102 9.89062Z" fill="#241400"/>
<path d="M132.602 52.9082C132.699 56.3587 132.146 59.321 130.941 61.7949C129.737 64.2689 128.093 66.3522 126.01 68.0449C123.959 69.7051 121.55 71.0397 118.783 72.0488C116.049 73.0905 113.168 73.8717 110.141 74.3926C107.146 74.946 104.118 75.304 101.059 75.4668C97.9987 75.6296 95.1341 75.7109 92.4648 75.7109C89.763 75.7109 86.752 75.6296 83.4316 75.4668C80.1439 75.3366 76.5306 75.1087 72.5918 74.7832L70.4922 3.68945C73.8776 3.07096 77.1654 2.61523 80.3555 2.32227C83.5456 1.99674 86.3939 1.76888 88.9004 1.63867C91.8301 1.50846 94.597 1.45964 97.2012 1.49219C99.6751 1.55729 102.165 1.70378 104.672 1.93164C107.178 2.15951 109.571 2.55013 111.85 3.10352C114.161 3.62435 116.309 4.35677 118.295 5.30078C120.281 6.24479 122.006 7.44922 123.471 8.91406C124.936 10.3789 126.091 12.153 126.938 14.2363C127.784 16.2871 128.207 18.7122 128.207 21.5117C128.207 25.1576 127.54 28.2826 126.205 30.8867C124.87 33.4583 123.129 35.5905 120.98 37.2832C122.348 37.7389 123.568 38.3086 124.643 38.9922C125.717 39.6432 126.645 40.3757 127.426 41.1895C128.24 42.0033 128.923 42.8659 129.477 43.7773C130.062 44.6562 130.551 45.5352 130.941 46.4141C131.82 48.4323 132.374 50.597 132.602 52.9082ZM97.3965 10.3789C95.8665 10.3789 94.2064 10.4277 92.416 10.5254C90.8861 10.5905 89.1283 10.7207 87.1426 10.916C85.1895 11.1113 83.1061 11.3717 80.8926 11.6973L81.6738 36.5996C84.4733 36.5345 87.0124 36.4531 89.291 36.3555C91.6022 36.2253 93.5879 36.1113 95.248 36.0137C97.2012 35.8835 98.9427 35.7533 100.473 35.623C102.882 35.4928 105.176 35.1022 107.357 34.4512C109.571 33.7676 111.492 32.8398 113.119 31.668C114.747 30.4961 116 29.0638 116.879 27.3711C117.79 25.6784 118.132 23.7253 117.904 21.5117C117.709 19.8841 117.253 18.4681 116.537 17.2637C115.854 16.0267 114.975 14.985 113.9 14.1387C112.859 13.2598 111.654 12.5599 110.287 12.0391C108.952 11.4857 107.553 11.0788 106.088 10.8184C104.656 10.5254 103.191 10.3626 101.693 10.3301C100.196 10.265 98.7637 10.2812 97.3965 10.3789ZM106.674 43.4844C105.86 43.5495 105.144 43.6146 104.525 43.6797C103.939 43.7122 103.419 43.7448 102.963 43.7773C102.54 43.8099 102.149 43.8424 101.791 43.875C101.465 43.9076 101.156 43.9238 100.863 43.9238C99.0729 44.0866 97.1523 44.2331 95.1016 44.3633C93.3438 44.4935 91.3255 44.64 89.0469 44.8027C86.7682 44.9329 84.4082 45.0632 81.9668 45.1934L82.6992 66.8242C83.6107 66.8893 84.5059 66.9219 85.3848 66.9219C86.2637 66.9219 87.1263 66.9219 87.9727 66.9219C89.5026 66.9219 91.4232 66.9219 93.7344 66.9219C96.0781 66.8893 98.5195 66.7754 101.059 66.5801C103.63 66.3522 106.186 65.9779 108.725 65.457C111.296 64.9036 113.591 64.1224 115.609 63.1133C117.66 62.0716 119.288 60.737 120.492 59.1094C121.729 57.4818 122.299 55.4473 122.201 53.0059C121.908 51.248 121.16 49.6693 119.955 48.2695C119.434 47.6836 118.783 47.0977 118.002 46.5117C117.253 45.9258 116.342 45.4212 115.268 44.998C114.193 44.5423 112.94 44.1842 111.508 43.9238C110.108 43.6309 108.497 43.4844 106.674 43.4844Z" fill="#241400"/>
<path d="M155.893 40.7988L198.91 38.6992L198.422 2.41992L209.311 3.20117L209.896 70.291L199.398 71.1211L199.105 47.7812L155.99 49.6855L156.332 71.6094L146.127 72L145.199 2.17578L155.502 1.6875L155.893 40.7988Z" fill="#241400"/>
</svg>
