<svg width="560" height="373" viewBox="0 0 560 373" fill="none" xmlns="http://www.w3.org/2000/svg">
<path d="M223.249 55.484C223.446 55.7099 223.42 56.0505 223.192 56.2445C222.963 56.4378 222.619 56.413 222.422 56.1878L220.472 53.9469L219.199 56.6183C219.07 56.8888 218.746 57.0035 218.473 56.8774C218.2 56.7507 218.083 56.43 218.212 56.1595L219.41 53.6481L216.627 54.056C216.328 54.0999 216.05 53.8967 216.006 53.6014C215.962 53.3062 216.167 53.0307 216.467 52.9868L219.278 52.5741L217.427 50.4436C217.23 50.2185 217.256 49.8786 217.484 49.6839C217.713 49.4899 218.057 49.5161 218.254 49.7413L220.202 51.9822L221.477 49.3101C221.606 49.041 221.93 48.9249 222.203 49.0509C222.475 49.1784 222.593 49.4998 222.464 49.7689L221.267 52.2817L224.048 51.8717C224.348 51.8285 224.626 52.0317 224.67 52.3277C224.714 52.6229 224.508 52.8976 224.209 52.9422L221.397 53.355L223.249 55.484Z" fill="#63CCE0"/>
<path d="M326.249 40.484C326.446 40.7099 326.42 41.0505 326.192 41.2445C325.963 41.4378 325.619 41.413 325.422 41.1878L323.472 38.9469L322.199 41.6183C322.07 41.8888 321.746 42.0035 321.473 41.8774C321.2 41.7507 321.083 41.43 321.212 41.1595L322.41 38.6481L319.627 39.056C319.328 39.0999 319.05 38.8967 319.006 38.6014C318.962 38.3062 319.167 38.0307 319.467 37.9868L322.278 37.5741L320.427 35.4436C320.23 35.2185 320.256 34.8786 320.484 34.6839C320.713 34.4899 321.057 34.5161 321.254 34.7413L323.202 36.9822L324.477 34.3101C324.606 34.041 324.93 33.9249 325.203 34.0509C325.475 34.1784 325.593 34.4998 325.464 34.7689L324.267 37.2817L327.048 36.8717C327.348 36.8285 327.626 37.0317 327.67 37.3277C327.714 37.6229 327.508 37.8976 327.209 37.9422L324.397 38.355L326.249 40.484Z" fill="#63CCE0"/>
<path d="M64.2495 27.484C64.4459 27.7099 64.4201 28.0505 64.1921 28.2445C63.9627 28.4378 63.6187 28.413 63.4222 28.1878L61.4725 25.9469L60.1987 28.6183C60.0704 28.8888 59.7457 29.0035 59.4733 28.8774C59.2001 28.7507 59.0833 28.43 59.2116 28.1595L60.4101 25.6481L57.6267 26.056C57.3285 26.0999 57.0504 25.8967 57.0059 25.6014C56.9622 25.3062 57.1672 25.0307 57.4669 24.9868L60.2783 24.5741L58.4267 22.4436C58.2303 22.2185 58.2561 21.8786 58.484 21.6839C58.7127 21.4899 59.0575 21.5161 59.2539 21.7413L61.2022 23.9822L62.4768 21.3101C62.6058 21.041 62.9305 20.9249 63.2029 21.0509C63.4753 21.1784 63.5928 21.4998 63.4645 21.7689L62.2674 24.2817L65.048 23.8717C65.3476 23.8285 65.6258 24.0317 65.6702 24.3277C65.7139 24.6229 65.5082 24.8976 65.2093 24.9422L62.3972 25.355L64.2495 27.484Z" fill="#63CCE0"/>
<path d="M454.873 236.935C455.114 237.212 455.083 237.629 454.802 237.866C454.523 238.104 454.101 238.072 453.86 237.796L451.475 235.053L449.915 238.323C449.759 238.653 449.362 238.795 449.028 238.64C448.694 238.485 448.551 238.092 448.707 237.762L450.174 234.687L446.769 235.188C446.403 235.242 446.062 234.993 446.008 234.631C445.953 234.27 446.205 233.933 446.572 233.879L450.013 233.373L447.747 230.767C447.506 230.491 447.538 230.075 447.818 229.837C448.096 229.6 448.519 229.631 448.76 229.907L451.145 232.649L452.704 229.379C452.861 229.049 453.259 228.908 453.593 229.063C453.926 229.218 454.07 229.611 453.913 229.941L452.447 233.016L455.851 232.515C456.217 232.461 456.558 232.711 456.612 233.072C456.666 233.433 456.414 233.77 456.048 233.824L452.606 234.329L454.873 236.935Z" fill="#61CAE7"/>
<path d="M529.873 179.935C530.114 180.212 530.083 180.629 529.802 180.866C529.523 181.104 529.101 181.072 528.86 180.796L526.475 178.053L524.915 181.323C524.759 181.653 524.362 181.795 524.028 181.64C523.694 181.485 523.551 181.092 523.707 180.762L525.174 177.687L521.769 178.188C521.403 178.242 521.062 177.993 521.008 177.631C520.953 177.27 521.205 176.933 521.572 176.879L525.013 176.373L522.747 173.767C522.506 173.491 522.538 173.075 522.818 172.837C523.096 172.6 523.519 172.631 523.76 172.907L526.145 175.649L527.704 172.379C527.861 172.049 528.259 171.908 528.593 172.063C528.926 172.218 529.07 172.611 528.913 172.941L527.447 176.016L530.851 175.515C531.217 175.461 531.558 175.711 531.612 176.072C531.666 176.433 531.414 176.77 531.048 176.824L527.606 177.329L529.873 179.935Z" fill="#61CAE7"/>
<path d="M296.873 255.935C297.114 256.212 297.083 256.629 296.802 256.866C296.523 257.104 296.101 257.072 295.86 256.796L293.475 254.053L291.915 257.323C291.759 257.653 291.362 257.795 291.028 257.64C290.694 257.485 290.551 257.092 290.707 256.762L292.174 253.687L288.769 254.188C288.403 254.242 288.062 253.993 288.008 253.631C287.953 253.27 288.205 252.933 288.572 252.879L292.013 252.373L289.747 249.767C289.506 249.491 289.538 249.075 289.818 248.837C290.096 248.6 290.519 248.631 290.76 248.907L293.145 251.649L294.704 248.379C294.861 248.049 295.259 247.908 295.593 248.063C295.926 248.218 296.07 248.611 295.913 248.941L294.447 252.016L297.851 251.515C298.217 251.461 298.558 251.711 298.612 252.072C298.666 252.433 298.414 252.77 298.048 252.824L294.606 253.329L296.873 255.935Z" fill="#61CAE7"/>
<path d="M513.873 350.935C514.114 351.212 514.083 351.629 513.802 351.866C513.523 352.104 513.101 352.072 512.86 351.796L510.475 349.053L508.915 352.323C508.759 352.653 508.362 352.795 508.028 352.64C507.694 352.485 507.551 352.092 507.707 351.762L509.174 348.687L505.769 349.188C505.403 349.242 505.062 348.993 505.008 348.631C504.953 348.27 505.205 347.933 505.572 347.879L509.013 347.373L506.747 344.767C506.506 344.491 506.538 344.075 506.818 343.837C507.096 343.6 507.519 343.631 507.76 343.907L510.145 346.649L511.704 343.379C511.861 343.049 512.259 342.908 512.593 343.063C512.926 343.218 513.07 343.611 512.913 343.941L511.447 347.016L514.851 346.515C515.217 346.461 515.558 346.711 515.612 347.072C515.666 347.433 515.414 347.77 515.048 347.824L511.606 348.329L513.873 350.935Z" fill="#61CAE7"/>
<path d="M454.873 115.935C455.114 116.212 455.083 116.629 454.802 116.866C454.523 117.104 454.101 117.072 453.86 116.796L451.475 114.053L449.915 117.323C449.759 117.653 449.362 117.795 449.028 117.64C448.694 117.485 448.551 117.092 448.707 116.762L450.174 113.687L446.769 114.188C446.403 114.242 446.062 113.993 446.008 113.631C445.953 113.27 446.205 112.933 446.572 112.879L450.013 112.373L447.747 109.767C447.506 109.491 447.538 109.075 447.818 108.837C448.096 108.6 448.519 108.631 448.76 108.907L451.145 111.649L452.704 108.379C452.861 108.049 453.259 107.908 453.593 108.063C453.926 108.218 454.07 108.611 453.913 108.941L452.447 112.016L455.851 111.515C456.217 111.461 456.558 111.711 456.612 112.072C456.666 112.433 456.414 112.77 456.048 112.824L452.606 113.329L454.873 115.935Z" fill="#61CAE7"/>
<path d="M316.873 321.935C317.114 322.212 317.083 322.629 316.802 322.866C316.523 323.104 316.101 323.072 315.86 322.796L313.475 320.053L311.915 323.323C311.759 323.653 311.362 323.795 311.028 323.64C310.694 323.485 310.551 323.092 310.707 322.762L312.174 319.687L308.769 320.188C308.403 320.242 308.062 319.993 308.008 319.631C307.953 319.27 308.205 318.933 308.572 318.879L312.013 318.373L309.747 315.767C309.506 315.491 309.538 315.075 309.818 314.837C310.096 314.6 310.519 314.631 310.76 314.907L313.145 317.649L314.704 314.379C314.861 314.049 315.259 313.908 315.593 314.063C315.926 314.218 316.07 314.611 315.913 314.941L314.447 318.016L317.851 317.515C318.217 317.461 318.558 317.711 318.612 318.072C318.666 318.433 318.414 318.77 318.048 318.824L314.606 319.329L316.873 321.935Z" fill="#61CAE7"/>
<path d="M397.873 111.935C398.114 112.212 398.083 112.629 397.802 112.866C397.523 113.104 397.101 113.072 396.86 112.796L394.475 110.053L392.915 113.323C392.759 113.653 392.362 113.795 392.028 113.64C391.694 113.485 391.551 113.092 391.707 112.762L393.174 109.687L389.769 110.188C389.403 110.242 389.062 109.993 389.008 109.631C388.953 109.27 389.205 108.933 389.572 108.879L393.013 108.373L390.747 105.767C390.506 105.491 390.538 105.075 390.818 104.837C391.096 104.6 391.519 104.631 391.76 104.907L394.145 107.649L395.704 104.379C395.861 104.049 396.259 103.908 396.593 104.063C396.926 104.218 397.07 104.611 396.913 104.941L395.447 108.016L398.851 107.515C399.217 107.461 399.558 107.711 399.612 108.072C399.666 108.433 399.414 108.77 399.048 108.824L395.606 109.329L397.873 111.935Z" fill="#61CAE7"/>
<path d="M156.873 277.935C157.114 278.212 157.083 278.629 156.802 278.866C156.523 279.104 156.101 279.072 155.86 278.796L153.475 276.053L151.915 279.323C151.759 279.653 151.362 279.795 151.028 279.64C150.694 279.485 150.551 279.092 150.707 278.762L152.174 275.687L148.769 276.188C148.403 276.242 148.062 275.993 148.008 275.631C147.953 275.27 148.205 274.933 148.572 274.879L152.013 274.373L149.747 271.767C149.506 271.491 149.538 271.075 149.818 270.837C150.096 270.6 150.519 270.631 150.76 270.907L153.145 273.649L154.704 270.379C154.861 270.049 155.259 269.908 155.593 270.063C155.926 270.218 156.07 270.611 155.913 270.941L154.447 274.016L157.851 273.515C158.217 273.461 158.558 273.711 158.612 274.072C158.666 274.433 158.414 274.77 158.048 274.824L154.606 275.329L156.873 277.935Z" fill="#61CAE7"/>
<path d="M355.873 276.935C356.114 277.212 356.083 277.629 355.802 277.866C355.523 278.104 355.101 278.072 354.86 277.796L352.475 275.053L350.915 278.323C350.759 278.653 350.362 278.795 350.028 278.64C349.694 278.485 349.551 278.092 349.707 277.762L351.174 274.687L347.769 275.188C347.403 275.242 347.062 274.993 347.008 274.631C346.953 274.27 347.205 273.933 347.572 273.879L351.013 273.373L348.747 270.767C348.506 270.491 348.538 270.075 348.818 269.837C349.096 269.6 349.519 269.631 349.76 269.907L352.145 272.649L353.704 269.379C353.861 269.049 354.259 268.908 354.593 269.063C354.926 269.218 355.07 269.611 354.913 269.941L353.447 273.016L356.851 272.515C357.217 272.461 357.558 272.711 357.612 273.072C357.666 273.433 357.414 273.77 357.048 273.824L353.606 274.329L355.873 276.935Z" fill="#61CAE7"/>
<path d="M213.873 252.935C214.114 253.212 214.083 253.629 213.802 253.866C213.523 254.104 213.101 254.072 212.86 253.796L210.475 251.053L208.915 254.323C208.759 254.653 208.362 254.795 208.028 254.64C207.694 254.485 207.551 254.092 207.707 253.762L209.174 250.687L205.769 251.188C205.403 251.242 205.062 250.993 205.008 250.631C204.953 250.27 205.205 249.933 205.572 249.879L209.013 249.373L206.747 246.767C206.506 246.491 206.538 246.075 206.818 245.837C207.096 245.6 207.519 245.631 207.76 245.907L210.145 248.649L211.704 245.379C211.861 245.049 212.259 244.908 212.593 245.063C212.926 245.218 213.07 245.611 212.913 245.941L211.447 249.016L214.851 248.515C215.217 248.461 215.558 248.711 215.612 249.072C215.666 249.433 215.414 249.77 215.048 249.824L211.606 250.329L213.873 252.935Z" fill="#61CAE7"/>
<path d="M37.8725 203.935C38.1135 204.212 38.0825 204.629 37.8015 204.866C37.5225 205.104 37.1005 205.072 36.8595 204.796L34.4745 202.053L32.9145 205.323C32.7585 205.653 32.3615 205.795 32.0275 205.64C31.6935 205.485 31.5505 205.092 31.7065 204.762L33.1735 201.687L29.7685 202.188C29.4025 202.242 29.0615 201.993 29.0075 201.631C28.9525 201.27 29.2045 200.933 29.5715 200.879L33.0125 200.373L30.7465 197.767C30.5055 197.491 30.5375 197.075 30.8175 196.837C31.0955 196.6 31.5185 196.631 31.7595 196.907L34.1445 199.649L35.7035 196.379C35.8605 196.049 36.2585 195.908 36.5925 196.063C36.9255 196.218 37.0695 196.611 36.9125 196.941L35.4465 200.016L38.8505 199.515C39.2165 199.461 39.5575 199.711 39.6115 200.072C39.6655 200.433 39.4135 200.77 39.0475 200.824L35.6055 201.329L37.8725 203.935Z" fill="#61CAE7"/>
<path d="M206.859 96.1348C207.045 96.3478 207.021 96.6698 206.805 96.8538C206.588 97.0378 206.262 97.0138 206.077 96.7998L204.232 94.6798L203.026 97.2078C202.906 97.4618 202.598 97.5728 202.34 97.4518C202.082 97.3328 201.971 97.0288 202.092 96.7738L203.226 94.3958L200.594 94.7838C200.31 94.8248 200.047 94.6318 200.006 94.3528C199.963 94.0738 200.159 93.8128 200.442 93.7718L203.102 93.3798L201.35 91.3658C201.164 91.1518 201.189 90.8308 201.404 90.6468C201.621 90.4628 201.947 90.4868 202.133 90.7008L203.977 92.8208L205.183 90.2928C205.304 90.0382 205.611 89.9285 205.869 90.0489C206.127 90.1678 206.238 90.4718 206.117 90.7268L204.983 93.1038L207.615 92.7168C207.898 92.6758 208.161 92.8678 208.203 93.1468C208.246 93.4268 208.05 93.6868 207.768 93.7288L205.107 94.1198L206.859 96.1348Z" fill="#6F3A9F"/>
<path d="M516.859 247.135C517.045 247.348 517.021 247.67 516.805 247.854C516.588 248.038 516.262 248.014 516.077 247.8L514.232 245.68L513.026 248.208C512.906 248.462 512.598 248.573 512.34 248.452C512.082 248.333 511.971 248.029 512.092 247.774L513.226 245.396L510.594 245.784C510.31 245.825 510.047 245.632 510.006 245.353C509.963 245.074 510.159 244.813 510.442 244.772L513.102 244.38L511.35 242.366C511.164 242.152 511.189 241.831 511.404 241.647C511.621 241.463 511.947 241.487 512.133 241.701L513.977 243.821L515.183 241.293C515.304 241.038 515.611 240.928 515.869 241.049C516.127 241.168 516.238 241.472 516.117 241.727L514.983 244.104L517.615 243.717C517.898 243.676 518.161 243.868 518.203 244.147C518.246 244.427 518.05 244.687 517.768 244.729L515.107 245.12L516.859 247.135Z" fill="#6F3A9F"/>
<path d="M495.859 122.135C496.045 122.348 496.021 122.67 495.805 122.854C495.588 123.038 495.262 123.014 495.077 122.8L493.232 120.68L492.026 123.208C491.906 123.462 491.598 123.573 491.34 123.452C491.082 123.333 490.971 123.029 491.092 122.774L492.226 120.396L489.594 120.784C489.31 120.825 489.047 120.632 489.006 120.353C488.963 120.074 489.159 119.813 489.442 119.772L492.102 119.38L490.35 117.366C490.164 117.152 490.189 116.831 490.404 116.647C490.621 116.463 490.947 116.487 491.133 116.701L492.977 118.821L494.183 116.293C494.304 116.038 494.611 115.928 494.869 116.049C495.127 116.168 495.238 116.472 495.117 116.727L493.983 119.104L496.615 118.717C496.898 118.676 497.161 118.868 497.203 119.147C497.246 119.427 497.05 119.687 496.768 119.729L494.107 120.12L495.859 122.135Z" fill="#6F3A9F"/>
<path d="M106.859 88.1348C107.045 88.3478 107.021 88.6698 106.805 88.8538C106.588 89.0378 106.262 89.0138 106.077 88.7998L104.232 86.6798L103.026 89.2078C102.906 89.4618 102.598 89.5728 102.34 89.4518C102.082 89.3328 101.971 89.0288 102.092 88.7738L103.226 86.3958L100.594 86.7838C100.31 86.8248 100.047 86.6318 100.006 86.3528C99.9634 86.0738 100.159 85.8128 100.442 85.7718L103.102 85.3798L101.35 83.3658C101.164 83.1518 101.189 82.8308 101.404 82.6468C101.621 82.4628 101.947 82.4868 102.133 82.7008L103.977 84.8208L105.183 82.2928C105.304 82.0382 105.611 81.9285 105.869 82.0489C106.127 82.1678 106.238 82.4718 106.117 82.7268L104.983 85.1038L107.615 84.7168C107.898 84.6758 108.161 84.8678 108.203 85.1468C108.246 85.4268 108.05 85.6868 107.768 85.7288L105.107 86.1198L106.859 88.1348Z" fill="#6F3A9F"/>
<path d="M106.859 39.1348C107.045 39.3478 107.021 39.6698 106.805 39.8538C106.588 40.0378 106.262 40.0138 106.077 39.7998L104.232 37.6798L103.026 40.2078C102.906 40.4618 102.598 40.5728 102.34 40.4518C102.082 40.3328 101.971 40.0288 102.092 39.7738L103.226 37.3958L100.594 37.7838C100.31 37.8248 100.047 37.6318 100.006 37.3528C99.9634 37.0738 100.159 36.8128 100.442 36.7718L103.102 36.3798L101.35 34.3658C101.164 34.1518 101.189 33.8308 101.404 33.6468C101.621 33.4628 101.947 33.4868 102.133 33.7008L103.977 35.8208L105.183 33.2928C105.304 33.0382 105.611 32.9285 105.869 33.0489C106.127 33.1678 106.238 33.4718 106.117 33.7268L104.983 36.1038L107.615 35.7168C107.898 35.6758 108.161 35.8678 108.203 36.1468C108.246 36.4268 108.05 36.6868 107.768 36.7288L105.107 37.1198L106.859 39.1348Z" fill="#6F3A9F"/>
<path d="M116.859 255.135C117.045 255.348 117.021 255.67 116.805 255.854C116.588 256.038 116.262 256.014 116.077 255.8L114.232 253.68L113.026 256.208C112.906 256.462 112.598 256.573 112.34 256.452C112.082 256.333 111.971 256.029 112.092 255.774L113.226 253.396L110.594 253.784C110.31 253.825 110.047 253.632 110.006 253.353C109.963 253.074 110.159 252.813 110.442 252.772L113.102 252.38L111.35 250.366C111.164 250.152 111.189 249.831 111.404 249.647C111.621 249.463 111.947 249.487 112.133 249.701L113.977 251.821L115.183 249.293C115.304 249.038 115.611 248.928 115.869 249.049C116.127 249.168 116.238 249.472 116.117 249.727L114.983 252.104L117.615 251.717C117.898 251.676 118.161 251.868 118.203 252.147C118.246 252.427 118.05 252.687 117.768 252.729L115.107 253.12L116.859 255.135Z" fill="#6F3A9F"/>
<path d="M253.873 292.935C254.114 293.211 254.082 293.628 253.802 293.866C253.522 294.104 253.101 294.072 252.86 293.796L250.474 291.053L248.915 294.323C248.758 294.653 248.361 294.795 248.027 294.64C247.694 294.485 247.551 294.092 247.707 293.762L249.173 290.687L245.768 291.188C245.403 291.242 245.062 290.992 245.007 290.631C244.953 290.27 245.206 289.933 245.571 289.879L249.014 289.373L246.746 286.767C246.506 286.491 246.538 286.075 246.818 285.837C247.097 285.599 247.519 285.631 247.759 285.907L250.145 288.649L251.704 285.379C251.861 285.049 252.259 284.908 252.593 285.063C252.926 285.218 253.069 285.611 252.912 285.941L251.446 289.016L254.851 288.515C255.216 288.461 255.557 288.711 255.612 289.072C255.666 289.433 255.413 289.77 255.048 289.824L251.606 290.329L253.873 292.935Z" fill="#34308A"/>
<path d="M497.873 302.935C498.114 303.211 498.082 303.628 497.802 303.866C497.522 304.104 497.101 304.072 496.86 303.796L494.474 301.053L492.915 304.323C492.758 304.653 492.361 304.795 492.027 304.64C491.694 304.485 491.551 304.092 491.707 303.762L493.173 300.687L489.768 301.188C489.403 301.242 489.062 300.992 489.007 300.631C488.953 300.27 489.206 299.933 489.571 299.879L493.014 299.373L490.746 296.767C490.506 296.491 490.538 296.075 490.818 295.837C491.097 295.599 491.519 295.631 491.759 295.907L494.145 298.649L495.704 295.379C495.861 295.049 496.259 294.908 496.593 295.063C496.926 295.218 497.069 295.611 496.912 295.941L495.446 299.016L498.851 298.515C499.216 298.461 499.557 298.711 499.612 299.072C499.666 299.433 499.413 299.77 499.048 299.824L495.606 300.329L497.873 302.935Z" fill="#34308A"/>
<path d="M505.873 45.9349C506.114 46.2109 506.082 46.6279 505.802 46.8659C505.522 47.1039 505.101 47.0719 504.86 46.7959L502.474 44.053L500.915 47.3229C500.758 47.6529 500.361 47.7949 500.027 47.6399C499.694 47.4849 499.551 47.092 499.707 46.762L501.173 43.6869L497.768 44.1879C497.403 44.2419 497.062 43.9919 497.007 43.6309C496.953 43.2699 497.206 42.9329 497.571 42.8789L501.014 42.3729L498.746 39.7669C498.506 39.4909 498.538 39.0749 498.818 38.8369C499.097 38.5989 499.519 38.6309 499.759 38.9069L502.145 41.6489L503.704 38.3789C503.861 38.0489 504.259 37.9079 504.593 38.0629C504.926 38.2179 505.069 38.611 504.912 38.941L503.446 42.0159L506.851 41.5149C507.216 41.4609 507.557 41.7109 507.612 42.0719C507.666 42.4329 507.413 42.7699 507.048 42.8239L503.606 43.329L505.873 45.9349Z" fill="#34308A"/>
<path d="M73.8729 246.935C74.1137 247.211 74.0822 247.628 73.8019 247.866C73.5223 248.104 73.1008 248.072 72.86 247.796L70.4744 245.053L68.9153 248.323C68.7584 248.653 68.3612 248.795 68.0272 248.64C67.6939 248.485 67.5505 248.092 67.7068 247.762L69.1734 244.687L65.7685 245.188C65.4029 245.242 65.0617 244.992 65.0072 244.631C64.9535 244.27 65.2058 243.933 65.5714 243.879L69.0135 243.373L66.7462 240.767C66.5061 240.491 66.5376 240.075 66.8179 239.837C67.0968 239.599 67.519 239.631 67.7591 239.907L70.1447 242.649L71.7038 239.379C71.8607 239.049 72.2586 238.908 72.5926 239.063C72.9259 239.218 73.0693 239.611 72.9123 239.941L71.4464 243.016L74.8506 242.515C75.2162 242.461 75.5574 242.711 75.6119 243.072C75.6656 243.433 75.4133 243.77 75.0477 243.824L71.6055 244.329L73.8729 246.935Z" fill="#34308A"/>
<path d="M361.873 83.9349C362.114 84.2109 362.082 84.6279 361.802 84.8659C361.522 85.1039 361.101 85.0719 360.86 84.7959L358.474 82.053L356.915 85.3229C356.758 85.6529 356.361 85.7949 356.027 85.6399C355.694 85.4849 355.551 85.092 355.707 84.762L357.173 81.6869L353.768 82.1879C353.403 82.2419 353.062 81.9919 353.007 81.6309C352.953 81.2699 353.206 80.9329 353.571 80.8789L357.014 80.3729L354.746 77.7669C354.506 77.4909 354.538 77.0749 354.818 76.8369C355.097 76.5989 355.519 76.6309 355.759 76.9069L358.145 79.6489L359.704 76.3789C359.861 76.0489 360.259 75.9079 360.593 76.0629C360.926 76.2179 361.069 76.611 360.912 76.941L359.446 80.0159L362.851 79.5149C363.216 79.4609 363.557 79.7109 363.612 80.0719C363.666 80.4329 363.413 80.7699 363.048 80.8239L359.606 81.329L361.873 83.9349Z" fill="#34308A"/>
<path d="M421.864 273.138C422.05 273.352 422.025 273.674 421.809 273.857C421.593 274.041 421.267 274.017 421.08 273.804L419.235 271.682L418.029 274.212C417.908 274.467 417.6 274.576 417.341 274.456C417.084 274.337 416.973 274.033 417.094 273.778L418.229 271.399L415.594 271.786C415.311 271.827 415.048 271.635 415.006 271.355C414.964 271.076 415.159 270.816 415.442 270.774L418.105 270.382L416.351 268.367C416.165 268.153 416.189 267.831 416.406 267.647C416.622 267.463 416.948 267.488 417.134 267.701L418.98 269.823L420.186 267.293C420.307 267.038 420.615 266.929 420.873 267.048C421.131 267.168 421.242 267.472 421.121 267.727L419.987 270.106L422.62 269.718C422.903 269.677 423.167 269.87 423.209 270.149C423.251 270.429 423.056 270.69 422.773 270.731L420.11 271.122L421.864 273.138Z" fill="#46A2C8"/>
<path d="M434.864 337.138C435.05 337.352 435.025 337.674 434.809 337.857C434.593 338.041 434.267 338.017 434.08 337.804L432.235 335.682L431.029 338.212C430.908 338.467 430.6 338.576 430.341 338.456C430.084 338.337 429.973 338.033 430.094 337.778L431.229 335.399L428.594 335.786C428.311 335.827 428.048 335.635 428.006 335.355C427.964 335.076 428.159 334.816 428.442 334.774L431.105 334.382L429.351 332.367C429.165 332.153 429.189 331.831 429.406 331.647C429.622 331.463 429.948 331.488 430.134 331.701L431.98 333.823L433.186 331.293C433.307 331.038 433.615 330.929 433.873 331.048C434.131 331.168 434.242 331.472 434.121 331.727L432.987 334.106L435.62 333.718C435.903 333.677 436.167 333.87 436.209 334.149C436.251 334.429 436.056 334.69 435.773 334.731L433.11 335.122L434.864 337.138Z" fill="#46A2C8"/>
<path d="M177.864 74.1382C178.05 74.3522 178.025 74.6742 177.809 74.8572C177.593 75.0412 177.267 75.0172 177.08 74.8042L175.235 72.6822L174.029 75.2122C173.908 75.4672 173.6 75.5762 173.341 75.4562C173.084 75.3372 172.973 75.0332 173.094 74.7782L174.229 72.3992L171.594 72.7862C171.311 72.8272 171.048 72.6352 171.006 72.3552C170.964 72.0762 171.159 71.8162 171.442 71.7742L174.105 71.3822L172.351 69.3672C172.165 69.1532 172.189 68.8312 172.406 68.6472C172.622 68.4632 172.948 68.4882 173.134 68.7012L174.98 70.8232L176.186 68.2932C176.307 68.0382 176.615 67.9292 176.873 68.0482C177.131 68.1682 177.242 68.4722 177.121 68.7272L175.987 71.1062L178.62 70.7182C178.903 70.6772 179.167 70.8702 179.209 71.1492C179.251 71.4292 179.056 71.6902 178.773 71.7312L176.11 72.1222L177.864 74.1382Z" fill="#46A2C8"/>
<path d="M177.864 31.1382C178.05 31.3522 178.025 31.6742 177.809 31.8572C177.593 32.0412 177.267 32.0172 177.08 31.8042L175.235 29.6822L174.029 32.2122C173.908 32.4672 173.6 32.5762 173.341 32.4562C173.084 32.3372 172.973 32.0332 173.094 31.7782L174.229 29.3992L171.594 29.7862C171.311 29.8272 171.048 29.6352 171.006 29.3552C170.964 29.0762 171.159 28.8162 171.442 28.7742L174.105 28.3822L172.351 26.3672C172.165 26.1532 172.189 25.8312 172.406 25.6472C172.622 25.4632 172.948 25.4882 173.134 25.7012L174.98 27.8232L176.186 25.2932C176.307 25.0382 176.615 24.9292 176.873 25.0482C177.131 25.1682 177.242 25.4722 177.121 25.7272L175.987 28.1062L178.62 27.7182C178.903 27.6772 179.167 27.8702 179.209 28.1492C179.251 28.4292 179.056 28.6902 178.773 28.7312L176.11 29.1222L177.864 31.1382Z" fill="#46A2C8"/>
<path d="M72.8637 120.138C73.0497 120.352 73.0247 120.674 72.8087 120.857C72.5927 121.041 72.2667 121.017 72.0797 120.804L70.2347 118.682L69.0287 121.212C68.9077 121.467 68.5997 121.576 68.3407 121.456C68.0837 121.337 67.9727 121.033 68.0937 120.778L69.2287 118.399L66.5937 118.786C66.3107 118.827 66.0477 118.635 66.0057 118.355C65.9637 118.076 66.1587 117.816 66.4417 117.774L69.1047 117.382L67.3507 115.367C67.1647 115.153 67.1887 114.831 67.4057 114.647C67.6217 114.463 67.9477 114.488 68.1337 114.701L69.9797 116.823L71.1857 114.293C71.3067 114.038 71.6147 113.929 71.8727 114.048C72.1307 114.168 72.2417 114.472 72.1207 114.727L70.9867 117.106L73.6197 116.718C73.9027 116.677 74.1667 116.87 74.2087 117.149C74.2507 117.429 74.0557 117.69 73.7727 117.731L71.1097 118.122L72.8637 120.138Z" fill="#46A2C8"/>
<path d="M282.605 100.013C282.757 100.187 282.737 100.45 282.56 100.6C282.384 100.75 282.117 100.731 281.966 100.556L280.458 98.8239L279.473 100.89C279.375 101.098 279.123 101.187 278.912 101.09C278.701 100.991 278.611 100.743 278.71 100.534L279.637 98.5924L277.486 98.9089C277.255 98.9428 277.039 98.785 277.005 98.5563C276.971 98.329 277.131 98.1159 277.361 98.0819L279.535 97.7619L278.104 96.1157C277.951 95.9415 277.971 95.6781 278.148 95.5287C278.325 95.3786 278.591 95.3985 278.743 95.5726L280.25 97.3052L281.236 95.2392C281.334 95.0317 281.585 94.9418 281.796 95.0395C282.007 95.1372 282.097 95.3857 281.998 95.5939L281.072 97.5367L283.223 97.2209C283.454 97.1862 283.669 97.3441 283.704 97.5721C283.738 97.8008 283.578 98.0132 283.347 98.0472L281.173 98.3658L282.605 100.013Z" fill="#63CCE0"/>
<path d="M436.605 72.0127C436.757 72.1868 436.737 72.4502 436.56 72.6003C436.384 72.7504 436.117 72.7306 435.966 72.5564L434.458 70.8239L433.473 72.8899C433.375 73.0981 433.123 73.1866 432.912 73.0896C432.701 72.9912 432.611 72.7433 432.71 72.5345L433.637 70.5924L431.486 70.9089C431.255 70.9428 431.039 70.785 431.005 70.5563C430.971 70.329 431.131 70.1159 431.361 70.0819L433.535 69.7619L432.104 68.1157C431.951 67.9415 431.971 67.6781 432.148 67.5287C432.325 67.3786 432.591 67.3985 432.743 67.5726L434.25 69.3052L435.236 67.2392C435.334 67.0317 435.585 66.9418 435.796 67.0395C436.007 67.1372 436.097 67.3857 435.998 67.5939L435.072 69.5367L437.223 69.2209C437.454 69.1862 437.669 69.3441 437.704 69.5721C437.738 69.8008 437.578 70.0132 437.347 70.0472L435.173 70.3658L436.605 72.0127Z" fill="#63CCE0"/>
</svg>
