<svg width="300" height="64" viewBox="0 0 300 64" fill="none" xmlns="http://www.w3.org/2000/svg">
<mask id="mask0_301_161" style="mask-type:luminance" maskUnits="userSpaceOnUse" x="0" y="0" width="300" height="64">
<path d="M300 0H0V63.1579H300V0Z" fill="white"/>
</mask>
<g mask="url(#mask0_301_161)">
<path fill-rule="evenodd" clip-rule="evenodd" d="M296.344 44.7805C297.964 46.7147 298.935 48.8905 298.935 51.3082C298.935 53.484 297.721 55.4182 295.858 56.8687C293.915 58.4805 291.081 59.6893 288.328 60.4147C282.822 61.9458 279.097 62.0264 276.101 62.0264C273.997 62.1071 271.486 61.8653 269.057 61.4623C266.629 61.0594 264.281 60.4147 262.256 59.6087C260.556 58.964 259.099 58.1582 258.046 57.4329C256.669 56.3853 255.86 55.2571 255.86 54.2093C255.86 53.4035 256.103 52.5976 256.589 52.0335C257.074 51.3887 257.803 50.9858 258.775 50.9858C259.503 50.9858 260.151 51.55 260.961 52.2753C261.689 53.0005 262.742 53.8871 263.714 54.4511C265.251 55.2571 266.467 55.4182 267.681 55.5793C267.681 55.0153 267.681 54.2093 267.681 53.4035C267.681 52.4364 267.6 51.3887 267.519 50.4216C267.519 49.9382 267.437 49.4547 267.437 49.0516H267.357C264.847 48.0847 260.961 46.4729 260.961 42.2823C260.961 37.6082 265.171 36.6411 267.843 36.2382C267.924 35.4323 267.843 34.7069 267.843 33.8205V32.2893C267.843 31.2416 267.763 30.1135 267.681 29.1464C267.6 27.7764 267.519 26.6482 267.6 25.9229V25.8422C267.762 25.0364 268.167 24.3916 268.815 23.9082C269.462 23.4246 270.272 23.1022 271.162 23.2635C272.862 23.5053 273.754 25.1169 274.239 27.0511C274.564 28.5016 274.725 30.2746 274.807 31.6446C274.887 32.37 274.887 33.4982 274.968 34.5458C274.968 35.1905 275.049 35.8353 275.049 36.3993C275.454 36.3993 275.858 36.48 276.183 36.48C276.587 36.48 277.074 36.5605 277.478 36.5605C279.422 36.6411 281.446 36.9635 283.389 37.4469C285.413 37.9305 287.357 38.6558 289.218 39.5423C292.133 40.9929 294.643 42.7658 296.344 44.7805ZM291.972 52.5171C292.782 51.8723 293.349 51.0664 293.349 50.2605C293.349 49.7771 292.619 48.8905 291.404 47.8429C289.947 46.5535 288.004 45.264 285.899 44.2969C284.279 43.4911 282.418 42.9269 280.717 42.524C278.774 42.0405 277.074 41.8793 276.021 41.96H275.535C275.211 41.96 274.968 41.96 274.644 42.0405C274.644 42.2823 274.564 42.524 274.564 42.8464H274.644C275.292 43.0076 275.94 43.2493 276.425 43.7329C276.993 44.2969 277.235 45.1029 277.074 46.1505C276.993 46.8758 276.668 47.7623 276.021 48.4876C275.617 48.9711 274.968 49.4547 274.158 49.8576V50.2605V51.55C274.158 51.9529 274.158 52.3558 274.239 52.7587V52.8393C274.239 53.484 274.239 53.8871 274.239 54.2093C274.239 54.854 274.239 55.4987 274.239 55.8211V56.224C274.887 56.3853 275.617 56.4658 276.831 56.4658C277.56 56.4658 279.503 56.3853 281.85 55.9823C283.308 55.7405 285.008 55.4182 286.628 54.9347C288.651 54.3705 290.676 53.5647 291.972 52.5171ZM267.437 43.2493C267.437 42.8464 267.437 42.3629 267.437 41.96C267.357 41.96 267.276 42.0405 267.196 42.0405C266.871 42.2016 266.629 42.2823 266.386 42.3629C266.547 42.524 266.71 42.7658 266.953 42.9269C267.114 43.0882 267.276 43.1687 267.437 43.2493ZM266.224 42.0405C266.224 42.1211 266.304 42.2823 266.304 42.3629V42.2823L266.224 42.0405ZM266.224 41.96L266.304 42.2823C266.224 41.96 266.143 41.5569 266.224 41.96Z" fill="#7AC4E3"/>
<path fill-rule="evenodd" clip-rule="evenodd" d="M233.836 25.6823C233.513 25.9241 233.269 26.0047 233.269 26.1659C233.35 26.0852 233.593 25.9241 233.836 25.6823Z" fill="black"/>
<path fill-rule="evenodd" clip-rule="evenodd" d="M119.753 34.7093C118.863 33.6616 118.538 32.8557 118.133 32.9364L117.89 33.0169H117.728C118.214 33.4198 118.943 33.984 119.753 34.7093Z" fill="black"/>
<path d="M43.3986 14.8021C46.3944 14.8021 48.8236 12.3847 48.8236 9.40267C48.8236 6.42065 46.3944 4.00323 43.3986 4.00323C40.4028 4.00323 37.9736 6.42065 37.9736 9.40267C37.9736 12.3847 40.4028 14.8021 43.3986 14.8021Z" fill="#5D9EC1"/>
<path d="M141.451 13.0291C143.956 13.0291 145.986 11.0086 145.986 8.51619C145.986 6.02376 143.956 4.00323 141.451 4.00323C138.947 4.00323 136.918 6.02376 136.918 8.51619C136.918 11.0086 138.947 13.0291 141.451 13.0291Z" fill="#7AC4E3"/>
<path d="M147.768 22.7809C150.093 22.7809 151.978 20.9048 151.978 18.5903C151.978 16.2759 150.093 14.3998 147.768 14.3998C145.443 14.3998 143.557 16.2759 143.557 18.5903C143.557 20.9048 145.443 22.7809 147.768 22.7809Z" fill="#39348E"/>
<path d="M196.429 16.6555C198.442 16.6555 200.072 15.0319 200.072 13.0291C200.072 11.0262 198.442 9.40265 196.429 9.40265C194.417 9.40265 192.785 11.0262 192.785 13.0291C192.785 15.0319 194.417 16.6555 196.429 16.6555Z" fill="#39348E"/>
<path fill-rule="evenodd" clip-rule="evenodd" d="M11.74 58.6429C12.0639 59.0459 11.9829 59.5294 11.659 59.8518C11.2542 60.1741 10.7683 60.0936 10.4444 59.7712L7.28681 56.1447L5.18153 60.4965C4.93862 60.8994 4.45292 61.1412 4.04806 60.8994C3.6432 60.6576 3.40029 60.1741 3.6432 59.6905L5.5864 55.5805L1.05223 56.2252C0.566395 56.3058 0.0805612 55.9834 0.0805612 55.5C-0.000410989 55.0165 0.323483 54.5329 0.809317 54.5329L5.34348 53.8881L2.34765 50.4229C2.02376 50.02 2.10472 49.5365 2.42861 49.2141C2.83347 48.8918 3.31931 48.9723 3.6432 49.2947L6.80098 52.9212L8.90612 48.5694C9.14903 48.1665 9.63487 47.9247 10.1207 48.1665C10.5254 48.4082 10.7683 48.8918 10.5254 49.3752L8.58223 53.4852L13.1165 52.8405C13.6022 52.76 14.0881 53.0823 14.0881 53.5658C14.169 54.0494 13.8451 54.5329 13.3594 54.5329L8.82515 55.1776L11.74 58.6429Z" fill="#39348E"/>
<path fill-rule="evenodd" clip-rule="evenodd" d="M298.207 37.7699C298.449 38.0923 298.449 38.4952 298.125 38.737C297.801 38.9788 297.397 38.9788 297.154 38.6564L294.725 35.8357L293.106 39.2205C292.943 39.5428 292.539 39.7041 292.215 39.5428C291.89 39.3817 291.729 38.9788 291.89 38.6564L293.429 35.5134L289.947 35.997C289.543 36.0775 289.219 35.7552 289.137 35.4328C289.057 35.0299 289.381 34.7075 289.704 34.627L293.267 34.1435L290.919 31.4841C290.676 31.1617 290.676 30.7588 291 30.517C291.324 30.2752 291.729 30.2752 291.972 30.5975L294.401 33.4181L296.019 30.0334C296.182 29.7112 296.588 29.5499 296.911 29.7112C297.235 29.8723 297.397 30.2752 297.235 30.5975L295.696 33.7405L299.178 33.257C299.583 33.1764 299.907 33.4988 299.988 33.8212C300.068 34.2241 299.744 34.5464 299.421 34.627L295.858 35.1105L298.207 37.7699Z" fill="#3D6AA2"/>
<path fill-rule="evenodd" clip-rule="evenodd" d="M86.4736 13.7568C86.7167 14.0791 86.7167 14.482 86.3931 14.7237C86.0694 14.9655 85.6639 14.9655 85.4208 14.6431L82.9917 11.8226L81.3736 15.2073C81.2111 15.5297 80.8056 15.6908 80.4819 15.5297C80.1583 15.3684 79.9958 14.9655 80.1583 14.6431L81.6972 11.5002L78.2153 11.9837C77.8097 12.0644 77.4861 11.742 77.4055 11.4197C77.325 11.0168 77.6486 10.6944 77.9722 10.6137L81.5347 10.1302L79.1875 7.47081C78.9444 7.14846 78.9444 6.74552 79.268 6.50375C79.5917 6.26199 79.9958 6.262 80.2389 6.58435L82.668 9.40493L84.2875 6.02023C84.45 5.69786 84.8542 5.5367 85.1778 5.69788C85.5028 5.85904 85.6639 6.262 85.5028 6.58435L83.9639 9.72731L87.4458 9.24375C87.85 9.16317 88.1736 9.48553 88.2556 9.80786C88.3361 10.2108 88.0125 10.5331 87.6889 10.6137L84.1264 11.0973L86.4736 13.7568Z" fill="#6B4C9A"/>
<path fill-rule="evenodd" clip-rule="evenodd" d="M271.974 23.0223C272.621 23.5864 273.026 24.3117 273.026 25.2788C273.026 27.0517 272.378 28.1799 271.488 28.9052C270.678 29.5499 269.625 29.7917 268.654 29.8723C267.601 30.0335 266.954 29.8723 266.306 29.7112C266.062 29.6305 265.739 29.5499 265.496 29.5499C264.039 29.5499 260.476 29.6305 257.318 29.6305C255.618 29.6305 253.999 29.7112 252.785 29.7917C252.542 33.257 252.542 38.3341 252.622 43.6528V43.7335C252.622 47.7628 252.946 52.9205 253.026 55.6605C253.108 56.7082 253.108 57.4335 253.108 57.5946C253.108 58.8035 252.703 59.9317 252.056 60.7375C251.326 61.7046 250.274 62.3493 249.14 62.3493C248.169 62.3493 247.197 61.8659 246.55 61.0599C245.901 60.3346 245.497 59.4482 245.497 58.4005C245.497 57.3528 245.497 54.2099 245.578 50.0999C245.578 47.6017 245.658 44.8617 245.74 42.4441V39.2205C245.74 36.0775 245.821 33.4181 245.821 29.9528C244.607 29.9528 243.149 29.9528 241.853 30.0335C239.829 30.1141 237.806 30.1946 236.59 30.3557C235.943 30.4364 235.457 30.5975 234.971 30.6781C233.675 30.9199 232.704 31.1617 231.571 31.0005C230.599 30.9199 229.951 30.3557 229.628 29.5499C229.385 28.9857 229.303 28.4217 229.385 27.8575C229.546 25.8428 231.246 25.5205 234.161 24.8757C234.728 24.7952 235.376 24.6341 236.267 24.4728C237.237 24.2312 239.667 23.8281 242.582 23.5864C244.768 23.4252 247.278 23.2641 249.626 23.2641C251.569 23.1834 253.594 23.1834 255.456 23.1834C258.938 23.1834 262.096 23.1028 264.443 22.8612C265.092 22.7805 265.901 22.6999 266.629 22.5388C268.087 22.297 269.058 22.2164 269.788 22.2164C270.435 22.2164 271.326 22.4581 271.974 23.0223Z" fill="#6B4C9A"/>
<path fill-rule="evenodd" clip-rule="evenodd" d="M241.772 50.3427C242.419 51.068 242.906 51.9544 242.906 52.8409C242.906 53.8886 239.828 57.4344 234.728 59.6909C231.812 60.9804 228.169 61.9474 224.039 62.028C220.962 62.028 214.81 60.9804 210.356 56.7898C207.522 54.0498 205.417 50.0204 205.417 44.218C205.417 41.6391 206.389 38.2544 208.25 35.0309C209.869 32.3715 212.138 29.712 215.051 27.6973C216.833 26.5691 218.857 25.4409 221.206 24.6351C223.554 23.8291 226.225 23.2651 229.14 23.2651C230.922 23.2651 233.513 23.9097 235.456 24.3933C235.456 24.232 235.456 23.9904 235.538 23.8291C235.618 23.1844 235.861 22.7009 236.347 22.298C236.751 21.8951 237.318 21.5727 237.885 21.4115H237.967H238.047H238.128C239.181 21.2504 240.071 21.6533 240.638 22.3786C241.043 22.9427 241.367 23.5873 241.529 24.3127C241.529 24.4738 241.61 24.5544 241.61 24.5544V24.6351C241.69 25.4409 241.61 26.6497 241.529 28.1004C241.367 30.0344 241.204 32.3715 241.447 33.6609C241.447 33.7415 241.529 33.9027 241.61 33.9833C241.933 34.4668 242.257 34.9504 242.257 35.9174C242.257 36.8038 241.69 37.5291 240.963 38.1738C240.071 38.8991 238.694 39.4633 238.29 39.4633C236.508 39.4633 235.537 38.5768 234.971 37.2068C234.565 36.2397 234.403 34.9504 234.403 33.7415C234.403 32.3715 234.565 31.3238 234.728 30.518L234.808 30.2762C233.999 30.0344 232.946 29.712 231.732 29.4704C230.517 29.2286 229.14 29.0673 227.764 29.0673C226.468 29.0673 224.606 29.3897 222.501 30.1151C220.882 30.6791 219.1 31.5656 217.643 32.6938C215.781 34.0638 214.161 35.9173 213.108 37.8515C212.056 39.7051 211.408 41.6391 211.408 43.3315C211.408 45.1044 211.975 49.2951 215.214 52.1962C217.237 53.9691 220.315 55.3391 224.931 55.3391C231.65 55.3391 234.646 52.5186 236.428 50.8262C237.399 49.8591 238.128 49.2144 239.181 49.1338H239.343C239.99 48.9727 241.043 49.5368 241.772 50.3427Z" fill="#5D9EC1"/>
<path fill-rule="evenodd" clip-rule="evenodd" d="M210.762 27.5363C213.353 30.3569 215.135 34.064 215.135 38.0128C215.135 40.8334 214.568 43.5734 213.596 46.1523C212.543 48.9728 210.924 51.6323 209.224 53.8081C207.118 56.3063 204.771 58.2405 202.422 59.6105C199.831 61.061 197.24 61.867 195.054 61.867C190.925 61.867 187.119 59.9328 184.367 57.0316C181.614 54.0499 179.832 49.9399 179.832 45.6687C179.832 42.1228 180.804 38.8187 182.261 35.9176C184.042 32.5328 186.553 29.7928 189.063 27.8587C190.033 27.1334 191.006 26.5692 191.896 26.1663C192.625 25.844 193.435 25.5216 194.082 25.2798C194.892 24.6352 196.025 23.9905 197.078 23.5069C198.536 22.8621 199.993 22.4592 200.803 22.4592C204.203 22.4592 207.928 24.474 210.762 27.5363ZM207.685 44.4599C208.494 42.5258 208.981 40.2692 208.981 37.771C208.9 35.1116 207.928 32.9358 206.471 31.4045C204.771 29.551 202.585 28.5034 200.722 28.5034C199.913 28.5034 199.021 28.8258 198.211 29.3092C197.321 29.8734 196.431 30.6792 195.701 31.7269C195.215 32.4521 194.811 33.4998 194.488 34.6281C194.082 36.2399 194.001 37.9321 194.001 39.3021V39.3828C194.001 39.7052 194.164 40.0276 194.325 40.3499C194.488 40.511 194.731 40.6721 195.054 40.6721H195.215H195.297C195.783 40.6721 196.268 40.511 196.674 40.2692C196.835 40.1887 196.997 40.1081 197.16 40.0276C196.674 39.8663 196.268 39.6245 195.944 39.2216C195.297 38.5769 194.892 37.6099 194.892 36.401C194.892 35.1116 195.621 34.064 196.593 33.2581C197.644 32.3716 199.183 31.8881 200.156 31.8881C202.017 31.8881 203.232 32.4521 204.042 33.3387C204.851 34.2252 205.094 35.4339 205.094 36.8039V37.0458C205.094 39.6245 203.879 41.9616 201.936 43.6539C200.074 45.3463 197.644 46.4745 195.054 46.5552H194.731C192.868 46.5552 191.168 45.9105 190.033 44.5405C189.063 43.3316 188.415 41.6392 188.415 39.3828C188.415 38.4963 188.496 37.2876 188.576 36.0787C188.09 36.7234 187.606 37.4487 187.2 38.174C186.633 39.3023 186.147 40.511 185.824 41.7199C185.5 42.9287 185.337 44.1376 185.337 45.1045C185.337 45.9105 185.581 47.2805 186.147 48.731C186.553 49.8592 187.119 50.9876 187.929 51.9545C188.739 53.0023 189.792 53.8887 191.006 54.4528C192.058 54.9363 193.272 55.2587 194.568 55.2587C195.783 55.2587 197.564 54.6946 199.426 53.6469C201.046 52.6799 202.826 51.3905 204.285 49.6176C205.742 48.0863 206.875 46.3939 207.685 44.4599Z" fill="#CA0088"/>
<path fill-rule="evenodd" clip-rule="evenodd" d="M183.069 33.7409C183.961 34.4662 184.528 35.3527 184.365 36.642V36.7227C184.204 37.6091 183.799 38.4957 183.232 39.0598C182.585 39.7044 181.775 40.0268 180.803 40.0268C179.669 40.0268 179.103 39.7044 178.536 39.3015C178.456 39.2209 178.293 39.1404 178.213 39.1404C177.646 38.9791 176.997 38.9791 176.431 38.9791C176.431 39.7851 176.431 40.7522 176.431 41.8804C176.431 43.8144 176.431 45.9098 176.511 47.7633C176.593 49.6975 176.754 52.0345 176.836 54.0493C176.917 55.8222 176.997 57.2727 176.997 57.6757C176.997 58.4815 176.917 59.368 176.511 60.0933C176.026 61.0604 175.135 61.6245 173.597 61.6245C171.896 61.6245 171.006 60.8993 170.439 59.7709C170.035 58.9651 169.953 57.998 169.953 57.0309V56.9504C169.953 55.8222 169.953 53.9686 169.872 52.1151C169.872 50.6645 169.792 48.9722 169.71 47.3604C169.629 45.5875 169.549 43.8951 169.549 42.2833C169.549 40.9939 169.468 39.7851 169.468 38.7375C167.443 38.6568 164.124 38.6568 162.018 38.6568L161.938 40.9133C161.938 42.0415 161.857 43.0086 161.857 43.8145C161.938 45.8291 161.937 48.4886 162.018 50.9062C162.099 53.888 162.099 56.4669 162.181 57.0309V57.1115V57.1922V57.2727V57.3533C162.181 58.3204 161.694 59.0457 160.965 59.5291C160.399 59.9322 159.751 60.0933 159.022 60.1738H158.942H158.779H158.699C157.889 60.1738 157.079 59.9322 156.512 59.5291C155.865 59.0457 155.379 58.3204 155.299 57.4338C155.217 56.3862 155.217 53.4851 155.217 50.3422C155.217 48.8915 155.217 47.3604 155.217 45.1845C155.217 43.6533 155.136 42.2833 155.136 40.9938L155.056 38.7375C154.893 38.7375 154.65 38.7375 154.489 38.7375C153.84 38.7375 153.111 38.7375 152.383 38.818C151.25 38.8986 150.115 39.2209 149.144 39.4627C148.092 39.7044 147.282 39.9462 146.472 39.9462C145.663 39.9462 145.015 39.5433 144.61 38.8986C144.206 38.3344 143.882 37.5286 143.882 37.0451C143.882 34.2244 147.768 33.4991 151.088 32.8544L152.06 32.6933C153.274 32.4515 154.164 32.3709 155.056 32.3709V32.0486C155.056 31.162 155.136 30.1144 155.136 29.0668C155.136 28.5027 155.217 27.7775 155.299 27.052C155.46 26.0851 155.703 25.0375 156.026 24.2315C156.513 22.942 157.322 22.0557 158.456 22.0557H158.618H158.699C159.346 22.1362 159.994 22.378 160.481 22.7809C160.965 23.1839 161.371 23.748 161.532 24.4733V24.5539C161.775 25.682 161.694 26.4075 161.614 27.4551C161.532 28.0998 161.532 28.8251 161.451 29.6309C161.451 30.6786 161.532 31.7262 161.614 32.4515C162.181 32.4515 162.828 32.4515 163.557 32.4515C164.528 32.4515 165.5 32.3709 166.39 32.3709C166.714 32.3709 167.282 32.3709 167.849 32.3709C168.415 32.3709 168.819 32.3709 169.225 32.3709C169.225 32.1291 169.225 31.8068 169.225 31.4844C169.225 30.7591 169.225 29.8727 169.143 28.9862L169.063 28.1804C168.9 26.8909 168.819 25.7627 168.819 24.5539C168.819 23.8286 169.062 23.0227 169.468 22.378C169.953 21.6527 170.682 21.1691 171.654 21.1691C173.435 21.1691 174.487 22.378 175.054 24.0704C175.46 25.3598 175.701 26.8909 175.864 28.5027C176.026 30.1144 176.107 31.6457 176.107 32.6933H177.16C177.969 32.6933 178.94 32.7739 179.589 32.7739C180.965 32.7739 182.179 33.0962 183.069 33.7409Z" fill="#5D9EC1"/>
<path fill-rule="evenodd" clip-rule="evenodd" d="M151.088 54.2125C154.813 57.1138 156.189 58.1614 155.217 60.0149V60.0956C154.65 61.5461 153.922 63.1578 152.14 63.1578C151.169 63.1578 150.44 62.5132 148.983 61.2238C147.688 60.0956 145.663 58.4032 142.667 56.1467C140.967 54.9379 139.186 53.5678 137.647 52.4396L136.351 51.4725C136.351 53.3261 136.351 55.1796 136.351 56.2272V56.7914C136.351 58.2419 136.19 59.3703 135.622 60.2567C134.975 61.3043 133.922 61.8685 132.385 61.8685C130.683 61.8685 129.874 61.1432 129.469 59.6119C129.226 58.7256 129.226 57.5167 129.226 55.9049C129.226 54.9379 129.226 54.2125 129.226 53.4872C129.226 52.5201 129.226 51.5532 129.226 50.5861L128.74 50.9085C127.444 51.7949 126.068 52.7619 124.774 53.729C123.072 55.099 119.51 57.9196 116.676 60.0149C114.49 61.6267 112.628 62.8356 111.981 62.8356H111.818L111.656 62.7549C111.008 62.5937 110.361 62.1101 109.875 61.5461C109.389 60.9819 109.065 60.2567 109.065 59.5314C109.065 58.8867 111.089 56.8719 113.761 54.6961C116.029 52.8425 118.943 50.5861 121.453 48.7325C122.668 47.7654 123.639 47.1208 124.449 46.5567C125.258 45.9925 126.068 45.4285 126.797 44.8643C126.474 44.6225 126.15 44.3001 125.744 43.9778C124.854 43.1719 123.478 41.9632 121.778 40.3514C120.886 39.6261 120.239 39.0619 119.592 38.5785C116.676 36.1608 114.247 34.3072 114.247 32.7761V32.6954C114.328 31.809 114.814 31.1643 115.543 30.7614C116.11 30.3585 116.919 30.1972 117.567 30.1167C118.782 30.1972 120.563 31.6478 122.831 33.4208C123.801 34.2267 124.854 35.0325 125.744 35.7578C127.04 36.8054 128.254 37.6919 129.226 38.4172C129.146 36.3219 129.146 33.8238 129.064 31.3254L128.983 29.7943C128.822 26.8125 128.822 25.6038 129.064 23.6696V23.589C129.226 22.9443 129.55 22.1385 130.036 21.4938C130.603 20.849 131.332 20.3654 132.222 20.3654C133.112 20.3654 134.085 21.0907 134.651 22.2996C134.975 23.0249 135.218 23.9114 135.218 25.0396V25.1201V25.9261C135.218 27.1349 135.218 27.699 135.461 30.439V30.5196C135.461 31.4061 135.542 32.3731 135.542 33.3401C135.622 35.5161 135.704 37.6114 135.785 39.2232C137.647 38.0143 140.4 36.3219 142.586 35.0325L142.749 34.9519C145.988 33.0178 150.278 30.5196 151.25 30.5196C152.14 30.5196 152.789 30.9225 153.193 31.4867C153.679 32.1314 153.922 33.0178 153.922 33.5014C153.922 35.1938 151.007 36.9667 147.931 38.7396C146.958 39.3038 145.906 39.9485 145.015 40.5125C143.396 41.5601 141.776 42.6078 140.4 43.5749C139.753 43.9778 139.186 44.3808 138.7 44.7838C139.59 45.4285 140.643 46.2343 141.776 47.1208C143.233 48.249 144.853 49.4578 146.472 50.6667C148.335 52.0367 149.874 53.2456 151.088 54.2125Z" fill="#7AC4E3"/>
<path fill-rule="evenodd" clip-rule="evenodd" d="M110.281 55.5803C118.296 55.7416 127.283 55.9027 127.283 58.8845C127.283 59.9321 126.717 60.6574 126.069 61.2216C125.26 61.8663 124.125 62.1887 123.478 62.1887C123.074 62.1887 122.425 62.0274 121.535 61.8663C120.401 61.6245 118.863 61.3021 117.406 61.3021C116.353 61.3021 115.057 61.2216 113.6 61.2216C111.818 61.1409 109.794 61.0603 106.636 61.0603C105.665 61.0603 103.883 61.0603 102.021 60.9798C98.9445 60.9798 95.7861 60.8992 93.3569 60.9798H92.8722C91.9 60.9798 90.8472 61.0603 89.9569 61.3021H89.8764H89.7944C89.4708 61.3827 89.1472 61.4633 88.9042 61.6245C88.3375 61.8663 87.8514 62.0274 87.1236 61.9469C86.1514 61.8663 85.5847 61.3827 85.1792 60.5769C84.9375 60.0933 84.9375 59.5292 84.9375 58.8845C84.9375 57.5145 86.1514 56.5474 87.7708 55.9027C88.5 55.5803 89.3903 55.258 90.2 55.0163C90.2 54.0492 90.2 52.6792 90.2806 51.3092C90.2806 49.9392 90.3611 48.5692 90.3611 47.3603C90.3611 45.5874 90.2806 43.734 90.2 42.2027C90.2 41.558 90.1195 40.9133 90.1195 40.4298C89.0667 39.8656 88.175 39.2209 88.0944 37.6092C88.0139 35.9169 88.9042 35.1915 90.1195 34.4662C90.1195 33.6603 90.0375 32.6127 90.0375 31.5651C90.0375 30.6785 89.9569 29.7921 89.9569 29.0669H89.7944C87.2847 28.7445 83.5611 28.2609 83.8847 25.6821V25.6015C84.0458 24.7151 84.4514 23.9091 85.0986 23.3451C85.7472 22.7809 86.5556 22.5392 87.6083 22.7003C88.257 22.7809 88.8236 22.8615 89.3903 23.0227C89.6333 23.1033 89.8764 23.1033 90.1195 23.1838C90.1195 22.7809 90.2 22.2974 90.2806 21.8945C90.4431 21.0885 90.6861 20.2827 91.0903 19.7185C91.5764 18.9933 92.3056 18.5098 93.1958 18.4291C95.9486 18.268 96.6778 20.1215 96.8389 22.2169C96.8389 22.6198 96.8389 22.9421 96.8389 23.3451C97.8111 23.2645 98.9445 23.1838 100.078 23.1838C101.211 23.1838 102.507 23.1838 103.722 23.1838C105.017 23.2645 106.313 23.2645 107.608 23.3451C109.389 23.5062 111.171 23.6674 112.79 23.8285C114.571 23.9898 116.272 24.2315 117.486 24.4733C118.619 24.6345 119.672 24.7956 120.482 25.1985C121.697 25.7627 122.425 26.6492 122.425 28.2609C122.425 29.3085 121.858 30.1145 120.968 30.598C120.239 31.0815 119.186 31.2427 118.376 31.2427C117.729 31.2427 117.082 31.0009 116.272 30.6785C115.381 30.3562 114.328 29.8727 113.033 29.6309C111.657 29.3892 109.794 29.228 107.851 29.1474C105.422 28.9862 102.831 28.9056 100.807 28.9056C99.1875 28.9056 97.8111 28.9862 96.7583 29.1474V29.5503C96.8389 30.2756 96.8389 31.0816 96.8389 31.968V32.6933C96.8389 33.1769 96.8389 33.4992 96.8389 33.8215C97.5681 33.9021 98.5389 33.9021 99.5111 33.9827C100.726 34.0633 102.021 34.0633 103.236 34.0633H104.126C108.904 34.0633 114.086 34.0633 114.086 38.0121C114.086 39.2209 113.438 40.188 112.547 40.8327C111.657 41.4774 110.442 41.7998 109.389 41.7998C108.904 41.7998 108.336 41.6385 107.689 41.3162C107.042 41.0745 106.069 40.6716 105.179 40.5909C103.397 40.3492 101.131 40.3492 97.8917 40.3492H97.4875C97.4875 40.9133 97.4056 41.4774 97.4056 42.0416C97.325 43.2503 97.325 44.5398 97.325 45.668C97.325 48.8109 97.4056 51.0674 97.4875 52.5985C97.5681 53.5656 97.6486 54.3716 97.7306 55.0163C98.7014 55.0969 100.158 55.0969 102.021 55.1774C103.397 55.1774 105.017 55.1774 106.799 55.258C107.769 55.5803 108.985 55.5803 110.281 55.5803Z" fill="#5D9EC1"/>
<path fill-rule="evenodd" clip-rule="evenodd" d="M86.5542 33.7409C87.4444 34.4662 88.0111 35.3527 87.85 36.642V36.7227C87.6875 37.6091 87.2833 38.4957 86.7167 39.0598C86.0681 39.7044 85.2583 40.0268 84.2875 40.0268C83.1542 40.0268 82.5875 39.7044 82.0208 39.3015C81.9389 39.2209 81.7778 39.1404 81.6958 39.1404C81.1292 38.9791 80.4819 38.9791 79.9153 38.9791C79.9153 39.7851 79.9153 40.7522 79.9153 41.8804C79.9153 43.8144 79.9153 45.9098 79.9958 47.7633C80.0764 49.6975 80.2389 52.0345 80.3194 54.0493C80.4014 55.8222 80.482 57.2727 80.482 57.6757C80.482 58.4815 80.4014 59.368 79.9958 60.0933C79.5097 61.0604 78.6194 61.6245 77.0806 61.6245C75.3806 61.6245 74.4903 60.8993 73.9236 59.7709C73.5181 58.9651 73.4375 57.998 73.4375 57.0309V56.9504C73.4375 55.8222 73.4375 53.9686 73.3569 52.1151C73.3569 50.6645 73.275 48.9722 73.1944 47.3604C73.1139 45.5875 73.0333 43.8951 73.0333 42.2833C73.0333 40.9939 72.9514 39.7851 72.9514 38.7375C70.9278 38.6568 67.6083 38.6568 65.5028 38.6568L65.4222 40.9133C65.4222 42.0415 65.3403 43.0086 65.3403 43.8145C65.4222 45.8291 65.4222 48.4886 65.5028 50.9062C65.5833 53.888 65.5833 56.4669 65.6639 57.0309V57.1115V57.1922V57.2727V57.3533C65.6639 58.3204 65.1792 59.0457 64.45 59.5291C63.8833 59.9322 63.2361 60.0933 62.5069 60.1738H62.4264H62.2639H62.1833C61.3736 60.1738 60.5639 59.9322 59.9972 59.5291C59.3486 59.0457 58.8625 58.3204 58.7819 57.4338C58.7014 56.3862 58.7014 53.4851 58.7014 50.3422C58.7014 48.8915 58.7014 47.3604 58.7014 45.1845C58.7014 43.6533 58.6208 42.2833 58.6208 40.9938L58.5389 38.7375C58.3778 38.7375 58.1347 38.7375 57.9722 38.7375C57.325 38.7375 56.5958 38.7375 55.8667 38.818C54.7333 38.8986 53.6 39.2209 52.6292 39.4627C51.5764 39.7044 50.7667 39.9462 49.9569 39.9462C49.1472 39.9462 48.4986 39.5433 48.0944 38.8986C47.6889 38.3344 47.3653 37.5286 47.3653 37.0451C47.3653 34.2244 51.2528 33.4991 54.5722 32.8544L55.5431 32.6933C56.7583 32.4515 57.6486 32.3709 58.5389 32.3709V32.0486C58.5389 31.162 58.6208 30.1144 58.6208 29.0668C58.6208 28.5027 58.7014 27.7775 58.7819 27.052C58.9444 26.0851 59.1875 25.0375 59.5111 24.2315C59.9972 22.942 60.8069 22.0557 61.9403 22.0557H62.1014H62.1833C62.8306 22.1362 63.4778 22.378 63.9639 22.7809C64.45 23.1839 64.8542 23.748 65.0167 24.4733V24.5539C65.2597 25.682 65.1792 26.4075 65.0972 27.4551C65.0167 28.0998 65.0167 28.8251 64.9361 29.6309C64.9361 30.6786 65.0167 31.7262 65.0972 32.4515C65.6639 32.4515 66.3125 32.4515 67.0417 32.4515C68.0125 32.4515 68.9847 32.3709 69.875 32.3709C70.1986 32.3709 70.7653 32.3709 71.3319 32.3709C71.8986 32.3709 72.3042 32.3709 72.7083 32.3709C72.7083 32.1291 72.7083 31.8068 72.7083 31.4844C72.7083 30.7591 72.7083 29.8727 72.6278 28.9862L72.5472 28.1804C72.3847 26.8909 72.3042 25.7627 72.3042 24.5539C72.3042 23.8286 72.5472 23.0227 72.9514 22.378C73.4375 21.6527 74.1667 21.1691 75.1375 21.1691C76.9194 21.1691 77.9722 22.378 78.5389 24.0704C78.9431 25.3598 79.1861 26.8909 79.3486 28.5027C79.5097 30.1144 79.5917 31.6457 79.5917 32.6933H80.6431C81.4528 32.6933 82.425 32.7739 83.0722 32.7739C84.5305 32.7739 85.7444 33.0962 86.5542 33.7409Z" fill="#39348E"/>
<path fill-rule="evenodd" clip-rule="evenodd" d="M54.7347 51.1471C55.3819 51.8724 55.868 52.7588 55.868 53.6453C55.868 54.6929 52.7903 58.2388 47.6903 60.4953C44.775 61.7847 41.1319 62.7517 37.0028 62.8324C33.925 62.8324 27.7722 61.7847 23.3181 57.594C20.4847 54.854 18.3792 50.8247 18.3792 45.0224C18.3792 42.4435 19.3514 39.0588 21.2139 35.8353C22.8333 33.1758 25.1 30.5164 28.0153 28.5017C29.7958 27.3735 31.8208 26.2453 34.168 25.4393C36.5167 24.6335 39.1889 24.0693 42.1028 24.0693C43.8847 24.0693 46.475 24.714 48.4181 25.1976C48.4181 25.0364 48.418 24.7946 48.5 24.6335C48.5805 23.9888 48.8236 23.5053 49.3097 23.1024C49.7139 22.6993 50.2806 22.377 50.8472 22.2158H50.9292H51.0097H51.0903C52.1431 22.0546 53.0333 22.4576 53.6 23.1829C54.0056 23.747 54.3292 24.3917 54.4917 25.117C54.4917 25.2782 54.5722 25.3588 54.5722 25.3588V25.4393C54.6528 26.2453 54.5722 27.454 54.4917 28.9047C54.3292 30.8388 54.1681 33.1758 54.4097 34.4653C54.4097 34.5458 54.4917 34.7071 54.5722 34.7876C54.8958 35.2711 55.2194 35.7547 55.2194 36.7217C55.2194 37.6082 54.6528 38.3335 53.925 38.9782C53.0333 39.7035 51.6569 40.2676 51.2528 40.2676C49.4708 40.2676 48.5 39.3811 47.9333 38.0111C47.5278 37.044 47.3667 35.7547 47.3667 34.5458C47.3667 33.1758 47.5278 32.1282 47.6903 31.3224L47.7708 31.0806C46.9611 30.8388 45.9083 30.5164 44.6944 30.2747C43.4792 30.0329 42.1028 29.8717 40.7264 29.8717C39.4305 29.8717 37.5694 30.194 35.4639 30.9193C33.8444 31.4835 32.0625 32.37 30.6056 33.4982C28.7431 34.8682 27.1236 36.7217 26.0708 38.6558C25.0194 40.5093 24.3708 42.4435 24.3708 44.1358C24.3708 45.9088 24.9375 50.0993 28.1764 53.0006C30.2014 54.7735 33.2778 56.1435 37.893 56.1435C44.6125 56.1435 47.6083 53.3229 49.3903 51.6306C50.3625 50.6635 51.0903 50.0188 52.1431 49.9382H52.3056C52.9528 49.7771 54.0055 50.4217 54.7347 51.1471Z" fill="#5D9EC1"/>
</g>
</svg>
