<svg width="200" height="189" viewBox="0 0 200 189" fill="none" xmlns="http://www.w3.org/2000/svg">
<mask id="mask0_301_138" style="mask-type:luminance" maskUnits="userSpaceOnUse" x="0" y="0" width="200" height="189">
<path d="M200 0H0V188.764H200V0Z" fill="white"/>
</mask>
<g mask="url(#mask0_301_138)">
<path d="M28.0899 137.079C33.6748 137.079 38.2023 132.551 38.2023 126.966C38.2023 121.381 33.6748 116.854 28.0899 116.854C22.505 116.854 17.9775 121.381 17.9775 126.966C17.9775 132.551 22.505 137.079 28.0899 137.079Z" fill="#BBDDE6"/>
<path d="M129.213 188.764C134.798 188.764 139.326 184.237 139.326 178.652C139.326 173.067 134.798 168.539 129.213 168.539C123.629 168.539 119.101 173.067 119.101 178.652C119.101 184.237 123.629 188.764 129.213 188.764Z" fill="#E4007D"/>
<path d="M165.169 128.09C170.753 128.09 175.281 123.562 175.281 117.978C175.281 112.393 170.753 107.865 165.169 107.865C159.584 107.865 155.056 112.393 155.056 117.978C155.056 123.562 159.584 128.09 165.169 128.09Z" fill="#BBDDE6"/>
<path d="M146.067 56.1798C149.791 56.1798 152.809 52.6585 152.809 48.3146C152.809 43.9708 149.791 40.4495 146.067 40.4495C142.344 40.4495 139.326 43.9708 139.326 48.3146C139.326 52.6585 142.344 56.1798 146.067 56.1798Z" fill="#097293"/>
<path d="M146.067 56.1798C149.791 56.1798 152.809 52.6585 152.809 48.3146C152.809 43.9708 149.791 40.4495 146.067 40.4495C142.344 40.4495 139.326 43.9708 139.326 48.3146C139.326 52.6585 142.344 56.1798 146.067 56.1798Z" fill="#186E9E"/>
<path d="M108.989 179.775C113.333 179.775 116.854 176.254 116.854 171.91C116.854 167.566 113.333 164.045 108.989 164.045C104.645 164.045 101.124 167.566 101.124 171.91C101.124 176.254 104.645 179.775 108.989 179.775Z" fill="#097293"/>
<path d="M108.989 179.775C113.333 179.775 116.854 176.254 116.854 171.91C116.854 167.566 113.333 164.045 108.989 164.045C104.645 164.045 101.124 167.566 101.124 171.91C101.124 176.254 104.645 179.775 108.989 179.775Z" fill="#BBDDE6"/>
<path d="M31.4607 38.2023C36.425 38.2023 40.4495 34.1778 40.4495 29.2135C40.4495 24.2492 36.425 20.2247 31.4607 20.2247C26.4964 20.2247 22.4719 24.2492 22.4719 29.2135C22.4719 34.1778 26.4964 38.2023 31.4607 38.2023Z" fill="#0095C8"/>
<path d="M162.809 103.146C168.332 103.146 172.809 98.669 172.809 93.1461C172.809 87.6231 168.332 83.1461 162.809 83.1461C157.286 83.1461 152.809 87.6231 152.809 93.1461C152.809 98.669 157.286 103.146 162.809 103.146Z" fill="#E4007D"/>
<path d="M135.955 49.4382C141.54 49.4382 146.067 44.9108 146.067 39.3259C146.067 33.7409 141.54 29.2135 135.955 29.2135C130.37 29.2135 125.843 33.7409 125.843 39.3259C125.843 44.9108 130.37 49.4382 135.955 49.4382Z" fill="#E4007D"/>
<path d="M85.618 83.4832C96.9119 83.4832 106.067 74.3277 106.067 63.0337C106.067 51.7398 96.9119 42.5843 85.618 42.5843C74.324 42.5843 65.1685 51.7398 65.1685 63.0337C65.1685 74.3277 74.324 83.4832 85.618 83.4832Z" fill="#BBDDE6"/>
<path fill-rule="evenodd" clip-rule="evenodd" d="M127.627 81.0674L137.111 74.12V74.0299L141.988 63.2027C142.349 62.3906 143.342 62.0297 144.155 62.3906C144.968 62.7515 145.329 63.744 144.968 64.556L142.439 70.1501L147.316 66.5411C148.039 65.9998 149.032 66.1802 149.574 66.902C150.116 67.6238 149.936 68.6162 149.213 69.1575L143.162 73.669L149.394 74.3908C150.297 74.4809 150.929 75.293 150.839 76.1953C150.749 77.0975 149.936 77.729 149.032 77.6389L139.369 76.4658L130.066 83.3231C129.253 82.6014 128.44 81.7892 127.627 81.0674Z" fill="#39348E"/>
<path fill-rule="evenodd" clip-rule="evenodd" d="M129.613 157.31C124.374 157.31 118.955 158.393 115.975 156.408C125.639 153.34 134.038 147.385 139.187 138.092C141.715 140.528 143.341 143.505 143.341 146.753C143.341 155.776 137.47 157.31 129.613 157.31Z" fill="#7AC4E3"/>
<path fill-rule="evenodd" clip-rule="evenodd" d="M91.5904 72.3192C99.3575 72.3192 107.486 69.2515 114.531 72.59C131.781 80.8005 144.697 97.5825 144.697 115.267C144.697 178.696 47.5157 168.049 47.5157 114.635C47.5157 99.0261 54.4701 84.3194 66.3919 75.5672C73.256 70.3342 81.5652 72.3192 91.5904 72.3192Z" fill="#DAEDF3"/>
<path d="M95.7454 71.2341C111.208 71.2341 123.743 60.0042 123.743 46.1512C123.743 32.2984 111.208 21.0684 95.7454 21.0684C80.2823 21.0684 67.7472 32.2984 67.7472 46.1512C67.7472 60.0042 80.2823 71.2341 95.7454 71.2341Z" fill="#DAEDF3"/>
<path fill-rule="evenodd" clip-rule="evenodd" d="M93.9388 36.1371C93.397 36.9492 93.6681 38.0319 94.2099 38.9342C96.5582 42.3627 97.7323 38.7537 96.4678 37.0394C95.4743 35.6861 94.4809 35.2349 93.9388 36.1371ZM98.0031 34.4229C98.6355 33.7012 99.4483 34.1522 100.171 35.3252C101.164 37.0394 99.8997 40.1072 98.0935 36.8589C97.642 36.047 97.5517 35.0544 98.0031 34.4229Z" fill="#2E1D60"/>
<path fill-rule="evenodd" clip-rule="evenodd" d="M96.558 43.8935C100.261 37.0364 108.028 37.307 116.067 36.2243C118.234 36.2243 118.866 36.9461 117.241 39.2018C113.628 43.7131 112.364 47.8636 108.209 51.1117C100.442 57.2472 92.6744 51.0216 96.558 43.8935Z" fill="#DB812E"/>
<path fill-rule="evenodd" clip-rule="evenodd" d="M102.97 41.4598C106.221 43.9861 100.441 47.7755 98.9054 47.1441C96.3764 46.2416 100.892 39.7454 102.97 41.4598Z" fill="white"/>
<path fill-rule="evenodd" clip-rule="evenodd" d="M71.358 78.0923C71.358 78.0022 71.358 77.9119 71.358 77.8218C71.358 77.7314 71.358 77.6413 71.4483 77.551C71.4483 77.4609 71.4483 77.3705 71.5387 77.2804C71.5387 77.1901 71.5387 77.1 71.629 77.0096C71.629 76.9195 71.7193 76.8292 71.7193 76.7391C71.7193 76.6487 71.8097 76.5586 71.8097 76.4683C71.8097 76.3782 71.9 76.2879 71.9 76.1977C71.9 76.1074 71.9904 76.0171 71.9904 75.9269C71.9904 75.8366 72.0807 75.7465 72.0807 75.6562C72.0807 75.5661 72.171 75.4757 72.171 75.3856C72.171 75.2953 72.2611 75.2052 72.2611 75.1148C72.2611 75.0247 72.3515 74.9344 72.3515 74.8443C72.3515 74.7539 72.4418 74.6638 72.4418 74.5735C72.4418 74.4834 72.5321 74.393 72.5321 74.393C72.5321 74.3029 72.6225 74.2126 72.7128 74.2126C72.8032 74.1225 72.8032 74.0321 72.8935 74.0321L73.0742 73.8517C73.1645 73.7616 73.1645 73.6712 73.2546 73.6712C73.345 73.5811 73.345 73.4908 73.4353 73.4908L73.616 73.3103L73.7966 73.1299L73.9773 72.9494L74.158 72.769L74.3384 72.5885L74.5191 72.4081L74.6998 72.2276L74.8805 72.0472L75.0611 71.8667L75.2416 71.6863L75.4223 71.5058L75.6029 71.3254L75.7836 71.1449L75.9643 70.9645L76.145 70.784L76.3254 70.6036L76.5964 70.4231L76.8674 70.2427L77.1384 70.0622L77.4092 69.8818L77.6802 69.7013L77.9512 69.5209L78.222 69.3404L78.493 69.16L78.7641 68.9795L79.0351 68.7991L79.3059 68.7087L79.5769 68.6186C79.7575 68.5283 79.9382 68.4382 80.1189 68.3479L80.3897 68.2577L80.6607 68.1674L80.9317 68.0773L81.2025 67.987L81.4735 67.8968L81.7445 67.8065L82.0155 67.7164L82.2863 67.6261L82.5573 67.5359L82.8283 67.4456L83.0993 67.3555L83.3701 67.2652L83.6411 67.175L83.9121 67.0847L84.1829 66.9946C83.009 63.8366 75.1515 63.927 73.4353 63.2049C71.5387 62.4831 70.2742 68.1674 69.642 68.7991C66.1198 72.8593 58.9847 74.7539 60.9717 79.7164C61.2425 80.4382 66.7519 79.6263 71.5387 78.6337V78.5436C71.358 78.1827 71.358 78.1827 71.358 78.0923ZM85.8991 82.333C84.8153 81.9721 83.8218 81.7013 82.738 81.3404C83.009 81.2503 83.1894 81.16 83.4605 81.0699C89.0602 78.724 89.5117 75.0247 94.118 70.1526C94.2984 69.9721 94.4791 69.7013 94.5695 69.5209C114.62 70.1526 110.014 61.22 118.323 61.7613C122.297 62.0321 120.31 67.6261 121.665 71.4157C122.387 73.5811 126 76.0171 124.374 77.6413C118.232 83.8669 110.104 85.8519 101.433 85.3105C96.3757 85.0398 91.1375 83.8669 85.8991 82.333ZM85.2668 81.3404C85.2668 81.2503 85.2668 81.2503 85.2668 81.3404C85.0863 81.2503 85.1764 81.2503 85.2668 81.3404Z" fill="#6B4C9A"/>
<path fill-rule="evenodd" clip-rule="evenodd" d="M84.0041 66.7221C87.6169 65.1881 96.829 67.2634 94.2099 70.1506C89.6039 75.023 89.0618 78.7221 83.5526 81.0681C80.3012 82.4214 70.9985 81.6095 71.4502 78.0906C72.1726 72.1355 78.4045 69.0679 84.0041 66.7221ZM101.435 85.3086C96.3776 85.038 91.1391 83.865 85.9007 82.2409C86.5331 84.4063 86.6234 89.3688 86.6234 91.5342C86.6234 94.3313 79.398 103.174 76.7787 105.88C74.1596 108.497 81.2043 114.181 84.0041 113.82C86.8039 113.549 90.9585 119.685 94.9324 119.685C98.9063 119.685 95.0227 114.632 98.2742 109.219C100.713 105.158 102.429 90.7223 101.435 85.3086ZM85.2686 81.3387C85.2686 81.2486 85.2686 81.2486 85.2686 81.3387V81.3387Z" fill="#39348E"/>
<path fill-rule="evenodd" clip-rule="evenodd" d="M66.482 161.189C76.4169 160.918 86.7131 163.084 86.442 153.971C86.2614 144.858 75.333 134.211 65.3982 134.482C55.4634 134.753 48.6897 141.971 48.8704 151.084C49.1414 160.106 56.5472 161.369 66.482 161.189Z" fill="#7AC4E3"/>
<path fill-rule="evenodd" clip-rule="evenodd" d="M106.585 14.0298C100.804 8.52593 94.3016 5.9996 87.0762 6.81164H87.1666C88.7922 9.4282 91.1405 12.6764 94.4821 14.12C96.469 14.932 102.791 14.7516 106.585 14.0298ZM72.0836 12.8568C66.3034 17.2779 63.4131 21.5185 61.9681 26.7516C60.3425 32.7968 60.794 40.015 64.2261 47.5038C65.5807 46.0602 66.8452 44.7067 67.929 43.4435C74.7931 35.684 77.6832 30.7215 78.2252 26.6615C78.3155 25.6689 78.3155 24.7667 78.2252 23.9545C77.5928 19.1727 73.5286 15.2929 72.2643 13.3079C72.174 13.0373 72.174 12.947 72.0836 12.8568Z" fill="#E6E6E7"/>
<path fill-rule="evenodd" clip-rule="evenodd" d="M109.384 17.0059C108.481 15.9232 107.578 15.0209 106.584 14.1186C102.791 14.8404 96.4688 15.0209 94.3915 14.1186C91.14 12.675 88.7919 9.51709 87.0758 6.8103C86.8951 6.8103 86.6243 6.8103 86.4436 6.90053C88.2499 9.87799 91.14 15.2013 95.9268 17.2765C98.3654 18.269 105.32 17.9081 109.384 17.0059ZM74.2508 11.2314C73.5283 11.7728 72.7155 12.3141 72.0832 12.7652C72.1735 12.8554 72.2638 13.0359 72.3542 13.1261C73.6187 15.1111 77.6829 19.0811 78.3151 23.7729C78.4054 24.6751 78.4054 25.5774 78.3151 26.4796C77.7733 30.5399 74.8829 35.412 68.0189 43.2617C66.8447 44.5248 65.6708 45.8783 64.316 47.3219C64.4063 47.5023 64.4967 47.8632 64.6773 48.134C77.9537 34.4196 81.4762 27.9232 80.7537 22.4194C80.1214 17.6374 76.0571 13.7577 74.7928 11.7728C74.5218 11.6825 74.3411 11.4118 74.2508 11.2314Z" fill="#D0D1D3"/>
<path fill-rule="evenodd" clip-rule="evenodd" d="M115.074 21.1584C113.719 18.7223 112.636 16.6471 112.094 15.9253C110.016 17.5494 99.0881 18.6321 95.927 17.1885C90.9596 15.023 87.9791 9.24857 86.263 6.36131C85.6308 5.27859 85.1794 4.55679 85.1794 4.55679L73.6187 10.3313C73.6187 10.3313 74.0704 10.8726 74.6122 11.7749C75.8767 13.7599 79.9409 17.7298 80.5731 22.4216C81.3859 28.3766 77.1412 35.4141 61.2454 51.4746C62.4194 52.8278 62.871 53.3692 63.1421 53.8204L80.8441 34.4218C89.6951 23.2337 98.7268 20.6171 110.739 21.6998L115.074 21.1584Z" fill="#E6E6E7"/>
<path fill-rule="evenodd" clip-rule="evenodd" d="M79.578 41.4595C90.8677 38.031 96.1962 36.2263 101.615 33.5195C105.95 31.3541 110.015 28.8278 113.266 26.6624C114.26 27.3842 115.253 28.1962 116.156 29.0984C116.789 27.8353 116.608 26.3015 115.976 24.858C116.337 24.5872 116.698 24.4067 117.059 24.2263C119.588 24.2263 119.588 21.4293 115.976 21.0684L110.828 21.7902C98.8156 20.7074 89.8742 23.324 80.9329 34.5121L63.0502 54.0912L66.8434 58.422C68.9207 53.0085 73.9785 45.7002 79.578 41.4595Z" fill="#BBBCBF"/>
<path fill-rule="evenodd" clip-rule="evenodd" d="M88.9712 23.0532C89.8744 22.8727 92.2227 22.3314 91.3195 18.1809C90.8679 16.1057 88.4294 15.4741 86.6229 16.2862C82.649 18.3614 85.9004 23.6847 88.9712 23.0532Z" fill="#39348E"/>
<path fill-rule="evenodd" clip-rule="evenodd" d="M70.9083 16.8271C69.7342 17.8196 67.8375 17.8196 67.1151 20.7971C66.3924 23.7746 66.6634 24.9474 68.56 24.2256C70.4566 23.5038 71.1793 20.7068 72.3533 19.173C73.5274 17.7294 72.0825 15.8346 70.9083 16.8271Z" fill="white"/>
<path fill-rule="evenodd" clip-rule="evenodd" d="M64.7659 27.1139C64.2241 28.5575 62.5985 33.159 63.4113 36.0462C64.2241 38.9334 65.0369 39.8357 66.3014 38.3019C67.656 36.768 66.8432 30.2718 67.2045 28.4673C67.5659 26.5725 65.3982 25.6703 64.7659 27.1139Z" fill="white"/>
<path fill-rule="evenodd" clip-rule="evenodd" d="M91.1384 29.7292C92.764 28.1953 100.531 24.2254 102.789 24.3158C105.047 24.4059 104.686 23.1427 101.796 22.7818C98.9959 22.4209 92.493 25.4886 91.0481 27.0225C89.6029 28.4661 89.5125 31.2632 91.1384 29.7292Z" fill="white"/>
<path fill-rule="evenodd" clip-rule="evenodd" d="M61.9658 135.385C57.2694 128.798 54.4696 120.858 54.4696 111.565C54.4696 99.655 58.4435 88.1964 65.488 79.4445C63.8624 79.6249 62.5979 79.715 61.8755 79.715C52.7534 88.8281 47.6053 101.821 47.6053 115.535C47.6053 124.918 50.4957 132.949 55.3728 139.625C55.3728 139.625 55.4631 139.625 55.4631 139.535C57.0887 137.731 59.3467 136.287 61.9658 135.385Z" fill="#7AC4E3"/>
<path fill-rule="evenodd" clip-rule="evenodd" d="M196.187 86.4749C197.713 86.1883 201.683 85.3288 200.156 78.7394C199.393 75.4448 195.271 74.4421 192.217 75.7313C185.5 79.0259 190.996 87.6209 196.187 86.4749Z" fill="#DAEDF3"/>
<path fill-rule="evenodd" clip-rule="evenodd" d="M170.299 62.9272C168.792 63.4744 168.107 65.3897 169.34 67.8521C170.025 69.22 172.218 70.0409 174.136 69.0831C177.425 67.3049 175.369 61.149 170.299 62.9272ZM167.147 12.0383C167.558 12.4487 167.421 13.1327 167.01 13.4062C166.599 13.8167 165.914 13.6798 165.64 13.2695L162.077 9.16551L159.748 14.0902C159.473 14.6374 158.925 14.7742 158.377 14.5006C157.829 14.227 157.692 13.6798 157.966 13.1327L160.159 8.48151L155.089 9.16551C154.54 9.30229 153.992 8.89191 153.992 8.3447C153.855 7.79751 154.266 7.25031 154.814 7.25031L159.885 6.42953L156.596 2.59917C156.185 2.18878 156.322 1.50478 156.733 1.23118C157.144 0.820791 157.829 0.957591 158.103 1.36799L161.666 5.47193L163.996 0.547193C164.27 -7.70172e-07 164.818 -0.136798 165.366 0.136799C165.914 0.410396 166.051 0.957589 165.777 1.50478L163.584 6.15593L168.655 5.47193C169.203 5.33515 169.751 5.74553 169.751 6.29272C169.888 6.83993 169.477 7.38712 168.929 7.38712L163.859 8.20791L167.147 12.0383ZM35.1034 109.439C35.5144 109.986 35.5144 110.807 34.9663 111.217C34.4182 111.628 33.5959 111.628 33.1847 111.08L28.6627 105.745L25.6481 112.038C25.3739 112.722 24.5517 112.995 24.0036 112.585C23.3184 112.311 23.0445 111.491 23.4555 110.944L26.1962 105.061L19.7557 106.019C19.0705 106.156 18.3853 105.608 18.2483 104.924C18.1112 104.24 18.6594 103.556 19.3446 103.42L25.922 102.462L21.5371 97.4005C21.126 96.8533 21.126 96.0326 21.6741 95.622C22.2222 95.2117 23.0445 95.2117 23.4555 95.7589L27.9775 101.094L30.9923 94.8013C31.2663 94.1173 32.0885 93.8438 32.6366 94.2542C33.3218 94.5276 33.5959 95.3485 33.1847 95.8957L30.4443 101.778L36.8847 100.82C37.5699 100.684 38.255 101.231 38.3921 101.915C38.529 102.599 37.9809 103.283 37.2957 103.42L30.7182 104.377L35.1034 109.439ZM176.055 115.184C180.713 115.184 184.551 119.015 184.551 123.666C184.551 128.317 180.713 132.147 176.055 132.147C171.395 132.147 167.558 128.317 167.558 123.666C167.422 119.015 171.258 115.184 176.055 115.184Z" fill="#7AC4E3"/>
<path fill-rule="evenodd" clip-rule="evenodd" d="M35.3562 161.09C37.0623 157.47 32.5643 154.322 29.3072 155.739C26.6706 156.841 27.291 159.674 27.7564 161.248C28.8421 163.923 33.1847 165.969 35.3562 161.09ZM149.076 139.857C149.697 140.486 149.542 141.588 148.921 142.218C148.301 142.847 147.215 142.69 146.595 142.06L140.856 135.292L137.134 143.32C136.824 144.107 135.738 144.421 134.962 144.107C134.187 143.792 133.877 142.69 134.187 141.903L137.754 134.348L129.534 135.607C128.603 135.764 127.828 135.135 127.673 134.191C127.518 133.246 128.138 132.459 129.069 132.302L137.289 131.043L131.86 124.59C131.24 123.96 131.395 122.858 132.016 122.229C132.636 121.599 133.722 121.757 134.342 122.386L140.08 129.154L143.803 121.127C144.113 120.34 145.199 120.025 145.974 120.34C146.75 120.655 147.06 121.757 146.75 122.544L143.183 130.098L151.403 128.839C152.333 128.682 153.109 129.311 153.264 130.256C153.419 131.2 152.799 131.987 151.868 132.144L143.648 133.404L149.076 139.857ZM67.9265 26.2038C69.6326 22.5838 65.1349 19.4359 61.8778 20.8525C59.2412 21.9543 59.8616 24.7874 60.3268 26.3614C61.2573 29.1944 65.6003 31.2405 67.9265 26.2038ZM56.4495 35.018C57.5351 32.4996 54.4331 30.2962 52.1068 31.2405C50.2454 32.0274 50.7108 33.9162 51.0209 35.1753C51.7964 37.064 54.8985 38.4807 56.4495 35.018ZM186.455 57.3825C188.161 53.7625 183.663 50.6146 180.406 52.031C177.769 53.1328 178.39 55.9658 178.855 57.5398C179.941 60.373 184.128 62.4191 186.455 57.3825Z" fill="#5D9EC1"/>
<path fill-rule="evenodd" clip-rule="evenodd" d="M58.6207 123.821C67.507 118.743 59.185 109.686 53.9661 112.019C45.9263 115.724 51.9915 127.526 58.6207 123.821ZM65.9553 147.974C67.789 147.563 72.4436 146.465 70.6099 138.368C69.7636 134.388 64.6859 133.016 61.3007 134.662C53.2609 138.779 59.7492 149.347 65.9553 147.974ZM83.8688 143.308C85.8434 139.191 80.6245 135.76 76.8162 137.27C73.7131 138.505 74.4184 141.661 75.1236 143.445C76.2522 146.602 81.3299 148.798 83.8688 143.308ZM76.6751 117.782C74.7005 118.469 73.713 120.939 75.4056 124.095C76.393 125.742 79.073 126.84 81.753 125.605C86.1256 123.409 83.4456 115.587 76.6751 117.782Z" fill="white"/>
<path fill-rule="evenodd" clip-rule="evenodd" d="M79.6693 64.1075C76.2371 60.4985 73.9791 56.0774 73.2567 51.2052C74.8823 48.6789 76.6888 46.3331 78.6758 44.4383C85.4495 41.5511 89.9652 39.5661 93.578 37.6713C93.4877 37.4005 93.4877 37.0396 93.4877 36.769C89.8749 38.1223 85.5398 39.4758 79.3982 41.2803C77.0499 42.9947 74.8823 45.3405 72.8953 47.7767C71.36 49.6713 70.0052 51.7466 68.9214 53.6414C70.1859 57.2504 72.4439 60.4985 75.2436 63.2052C76.6888 63.5661 78.2241 63.8369 79.6693 64.1075ZM96.0164 36.4983C96.5585 36.1374 97.1003 35.8668 97.6423 35.5059C97.6423 35.4156 97.6423 35.3254 97.6423 35.2351C97.0099 35.5059 96.2875 35.7765 95.565 36.0472C95.8358 36.2277 95.9261 36.3178 96.0164 36.4983Z" fill="#7AC4E3"/>
<path fill-rule="evenodd" clip-rule="evenodd" d="M118.956 120.41C120.401 120.41 121.575 121.583 121.575 123.026C121.575 124.47 120.401 125.643 118.956 125.643C117.511 125.643 116.337 124.47 116.337 123.026C116.337 121.583 117.511 120.41 118.956 120.41ZM115.614 87.6575C117.511 87.6575 119.046 89.1914 119.046 91.0862C119.046 92.9808 117.511 94.5148 115.614 94.5148C113.718 94.5148 112.182 92.9808 112.182 91.0862C112.092 89.1914 113.718 87.6575 115.614 87.6575ZM118.595 97.1314C121.485 97.1314 123.833 99.4772 123.833 102.364C123.833 105.252 121.485 107.597 118.595 107.597C115.705 107.597 113.356 105.252 113.356 102.364C113.356 99.4772 115.705 97.1314 118.595 97.1314ZM119.949 109.944C122.117 109.944 123.923 111.748 123.923 113.913C123.923 116.079 122.117 117.883 119.949 117.883C117.782 117.883 115.976 116.079 115.976 113.913C115.976 111.748 117.691 109.944 119.949 109.944Z" fill="#39348E"/>
<path fill-rule="evenodd" clip-rule="evenodd" d="M96.9978 107.791C97.4016 108.366 97.4016 109.23 96.8631 109.805C96.3245 110.237 95.5166 110.237 94.9782 109.661L90.4007 103.906L87.4389 110.812C87.1694 111.531 86.3618 111.819 85.6885 111.531C85.0155 111.244 84.7461 110.38 85.0155 109.661L87.8427 103.187L81.2456 104.194C80.5726 104.338 79.8993 103.763 79.7647 103.043C79.6301 102.324 80.1688 101.605 80.8418 101.461L87.4389 100.454L82.996 94.9869C82.5921 94.4114 82.5921 93.5481 83.1306 92.9728C83.6692 92.5411 84.4769 92.5411 85.0155 93.1166L89.593 98.8712L92.5548 91.9656C92.824 91.2463 93.6319 90.9586 94.3049 91.2463C94.9782 91.5341 95.2474 92.3973 94.9782 93.1166L92.151 99.5905L98.7479 98.5836C99.4211 98.4395 100.094 99.015 100.229 99.7344C100.364 100.454 99.8249 101.173 99.1517 101.317L92.5548 102.324L96.9978 107.791Z" fill="white"/>
<path fill-rule="evenodd" clip-rule="evenodd" d="M38.1221 76.1992C37.6704 75.4774 37.851 74.4848 38.5735 73.9434C39.296 73.4924 40.2895 73.6729 40.8315 74.3947L46.3407 82.8758L64.4944 88.7405C65.3072 89.0113 65.8493 89.9135 65.5782 90.8158C65.3072 91.6279 64.4041 92.1693 63.5009 91.8985L44.7151 85.8533L34.7803 88.5601C33.8771 88.8308 33.0643 88.2895 32.7933 87.3873C32.5223 86.485 33.0643 85.6729 33.9675 85.4023L39.1155 83.9585L32.432 81.7931C31.6191 81.5225 31.0773 80.6203 31.3481 79.718C31.6191 78.9059 32.5223 78.3646 33.4254 78.6353L41.3733 81.2518L38.1221 76.1992Z" fill="#39348E"/>
<path fill-rule="evenodd" clip-rule="evenodd" d="M104.235 56.436C98.8161 56.887 93.2164 55.9847 90.2359 51.4735C90.6876 51.1126 90.9584 50.4809 91.0487 49.8495L89.9649 49.5787C89.6941 50.8418 88.9714 51.4735 87.7072 51.654L87.7975 52.1953C88.4296 52.1953 89.0618 52.1953 89.5134 52.0149C92.2229 57.6991 96.7388 62.7517 102.79 62.3007C107.035 61.7591 110.377 58.4209 112.002 53.8193C112.273 54.0899 112.544 54.2704 112.996 54.4508L113.176 54.1802C112.454 53.6389 112.093 53.0072 112.364 52.105L111.551 51.9245C111.46 52.3758 111.46 52.7367 111.551 53.0976C109.835 54.9922 107.577 56.1652 104.235 56.436Z" fill="#2E1D60"/>
</g>
</svg>
