<svg width="200" height="71" viewBox="0 0 200 71" fill="none" xmlns="http://www.w3.org/2000/svg">
<path d="M52.4167 48.8467H44.33V21.8933H52.4633V38.4367L52.4167 48.8467Z" fill="#0F80C2"/>
<path d="M71.4667 38.3467H64.1233V48.85H56.0367V21.8967H64.17L64.1233 32.12H71.42L78.7167 21.8967H86.8933L78.53 35.3733L86.8933 48.85H78.7167L71.4667 38.3467Z" fill="#0F80C2"/>
<path d="M119.377 46.85C118.043 48.1833 115.567 48.8467 111.94 48.8467H100.043C96.45 48.8467 93.9567 48.2033 92.5633 46.9167C91.17 45.63 90.4733 43.6867 90.4733 41.0833V29.6533C90.4733 27.05 91.17 25.1067 92.5633 23.82C93.9567 22.5367 96.45 21.8933 100.043 21.8933H111.94C115.567 21.8933 118.043 22.56 119.377 23.89C120.707 25.2233 121.373 27.1433 121.373 29.6533V41.0833C121.373 43.5967 120.707 45.5167 119.377 46.85ZM113.243 32.3067C113.243 30.82 112.933 29.7367 112.313 29.0533C111.693 28.3733 110.317 28.03 108.177 28.03H103.623C101.64 28.03 100.317 28.4033 99.65 29.1467C98.9833 29.89 98.65 30.9433 98.65 32.3067V38.44C98.65 39.8033 98.9833 40.8567 99.65 41.6C100.317 42.3433 101.64 42.7167 103.623 42.7167H108.177C110.313 42.7167 111.677 42.3767 112.267 41.6933C112.853 41.0133 113.18 39.9433 113.243 38.4867V32.3067Z" fill="#0F80C2"/>
<path d="M190.333 28.03H178.717V48.8467H170.63V28.03H159.477V21.8967H168.867H180.76H190.333" fill="#0F80C2"/>
<path d="M155.877 48.85V21.8967H147.657V37.2367L135.663 25.3133C134.237 23.93 132.707 21.8967 130.13 21.8967C126.92 21.8967 125.667 23.5833 125.14 25.8467C125.07 26.1267 124.973 26.6233 124.973 27.0333V48.8633H133.613V34.8233L147.64 48.85" fill="#0F80C2"/>
<path d="M9.83667 21.8967H17.9633C17.9733 21.8967 17.9833 21.9033 17.9867 21.9167L22.1167 38.97C22.55 40.44 23.06 41.48 23.65 42.0867C23.67 42.1067 23.69 42.1267 23.71 42.1467C24.5933 43.0367 26.0167 42.9967 26.88 42.0867C27.4533 41.48 27.9567 40.44 28.39 38.97L32.52 21.9167C32.5233 21.9067 32.5333 21.8967 32.5433 21.8967H40.67C40.6867 21.8967 40.6967 21.9133 40.6933 21.93C37.4133 34.6333 35.65 41.2733 35.4033 41.85C35.3567 42.0033 35.3067 42.16 35.25 42.3167C34.2767 45 32.1333 47.06 29.5333 48.0633C26.7733 49.13 23.7333 49.1133 20.9867 48.02L20.8533 47.9667C18.66 47.0933 16.78 45.4767 15.6967 43.3233C15.4567 42.8467 15.2733 42.39 15.1433 41.9467" fill="#0F80C2"/>
</svg>
