<svg width="83" height="37" viewBox="0 0 83 37" fill="none" xmlns="http://www.w3.org/2000/svg">
<path d="M0.836107 0.614089C0.69796 0.375883 0.869833 0.0775204 1.1452 0.0775204H6.00566C6.13307 0.0775204 6.25084 0.145362 6.31474 0.255576L22.8912 28.8386L22.8933 28.8421C24.706 31.9336 29.4035 31.925 31.204 28.827L35.0032 22.2896C35.0671 22.1795 35.1849 22.1118 35.3122 22.1118H40.1752C40.4506 22.1118 40.6225 22.4104 40.484 22.6486L35.4572 31.2985C31.7624 37.6564 22.3594 37.6692 18.6456 31.3229L18.6407 31.3146L0.836107 0.614089Z" fill="url(#paint0_linear_2304_2)"/>
<path d="M30.2854 14.37C30.4142 14.37 30.5331 14.3007 30.5966 14.1886L34.4194 7.42859C36.2034 4.27408 40.7977 4.26402 42.5968 7.40728L55.8468 31.2079L55.8584 31.2286C59.5437 37.7001 68.9317 37.6864 72.5975 31.204L81.3475 15.7315C82.7515 13.2488 83.8028 9.0141 81.4286 4.84527C77.7435 -1.62603 68.3554 -1.61236 64.6895 4.87001L59.6185 13.8368C59.4837 14.075 59.6559 14.37 59.9297 14.37H64.7599C64.8886 14.37 65.0076 14.3007 65.0708 14.1886L68.9712 7.29151C70.7571 4.13386 75.3586 4.12692 77.154 7.27954C78.4114 9.48753 77.9122 11.8129 77.0657 13.31L68.3157 28.7823C66.5317 31.9369 61.9374 31.9471 60.1383 28.8035L46.8884 5.0031L46.8767 4.98235C43.1915 -1.48895 33.8034 -1.47528 30.1376 5.00709L25.1441 13.8368C25.0095 14.075 25.1815 14.37 25.4552 14.37H30.2854Z" fill="url(#paint1_linear_2304_2)"/>
<defs>
<linearGradient id="paint0_linear_2304_2" x1="77.6857" y1="20.5108" x2="17.5778" y2="1.00191e-05" gradientUnits="userSpaceOnUse">
<stop stop-color="#FF4D01"/>
<stop offset="1" stop-color="#FF8A01"/>
</linearGradient>
<linearGradient id="paint1_linear_2304_2" x1="77.6857" y1="20.5108" x2="17.5778" y2="1.03861e-05" gradientUnits="userSpaceOnUse">
<stop stop-color="#FF4D01"/>
<stop offset="1" stop-color="#FF8A01"/>
</linearGradient>
</defs>
</svg>
