<svg width="29" height="44" viewBox="0 0 29 44" fill="none" xmlns="http://www.w3.org/2000/svg">
<mask id="mask0_2305_5" style="mask-type:alpha" maskUnits="userSpaceOnUse" x="0" y="0" width="29" height="44">
<rect width="29" height="44" transform="matrix(-1 0 0 1 29 0)" fill="#D9D9D9"/>
</mask>
<g mask="url(#mask0_2305_5)">
<path fill-rule="evenodd" clip-rule="evenodd" d="M3.01781 15.662C2.04554 17.4392 1.55963 19.4801 1.55963 21.7848C1.55963 24.0895 2.04554 26.1583 3.01781 27.9909C4.01843 29.7957 5.36227 31.2119 7.04933 32.2394C8.73617 33.2389 10.5947 33.7387 12.6255 33.7387C14.4543 33.7387 16.0856 33.3779 17.5147 32.6559C18.9438 31.9339 20.0732 31.0315 20.9028 29.9484V33.3639H25.8338V10.4139H20.9028V13.7461C20.0732 12.6909 18.9578 11.8162 17.5565 11.122C16.1855 10.4001 14.5681 10.0391 12.7114 10.0391C10.6519 10.0391 8.76498 10.5389 7.04933 11.5385C5.36227 12.5104 4.01843 13.8849 3.01781 15.662ZM19.8734 17.7446C20.5589 18.9109 20.9028 20.2853 20.9028 21.8681C20.9028 23.4509 20.5589 24.8394 19.8734 26.0333C19.2157 27.1996 18.3443 28.088 17.2568 28.6989C16.1692 29.3098 14.9981 29.6152 13.7409 29.6152C12.5116 29.6152 11.3381 29.3098 10.2232 28.6989C9.13656 28.0603 8.25026 27.1441 7.56404 25.9499C6.90641 24.7559 6.5776 23.3675 6.5776 21.7848C6.5776 20.202 6.90641 18.8414 7.56404 17.703C8.25026 16.5367 9.13656 15.662 10.2232 15.0789C11.3095 14.468 12.4814 14.1626 13.7409 14.1626C14.9981 14.1626 16.1692 14.468 17.2568 15.0789C18.3443 15.6898 19.2157 16.5784 19.8734 17.7446Z" fill="white"/>
</g>
</svg>
