<svg width="26" height="44" viewBox="0 0 26 44" fill="none" xmlns="http://www.w3.org/2000/svg">
<mask id="mask0_2305_5" style="mask-type:alpha" maskUnits="userSpaceOnUse" x="0" y="0" width="26" height="44">
<rect width="26" height="44" fill="#D9D9D9"/>
</mask>
<g mask="url(#mask0_2305_5)">
<path fill-rule="evenodd" clip-rule="evenodd" d="M0.044281 21.7848C0.044281 19.4801 0.530421 17.4392 1.50246 15.662C2.50331 13.8849 3.84715 12.5104 5.53398 11.5385C7.24963 10.5389 9.13677 10.0391 11.1954 10.0391C13.054 10.0391 14.6695 10.4001 16.0419 11.122C17.4429 11.8162 18.5581 12.6909 19.3872 13.7461V10.4139H24.3194V33.3639H19.3872V29.9484C18.5581 31.0315 17.4285 31.9339 15.9989 32.6559C14.5693 33.3779 12.9396 33.7387 11.1097 33.7387C9.07961 33.7387 7.22105 33.2389 5.53398 32.2394C3.84715 31.2119 2.50331 29.7957 1.50246 27.9909C0.530421 26.1583 0.044281 24.0895 0.044281 21.7848ZM19.3872 21.8681C19.3872 20.2853 19.044 18.9109 18.3578 17.7446C17.7001 16.5784 16.828 15.6898 15.7417 15.0789C14.6551 14.468 13.4827 14.1626 12.2246 14.1626C10.9667 14.1626 9.79441 14.468 8.70781 15.0789C7.62121 15.662 6.73491 16.5367 6.04869 17.703C5.39106 18.8414 5.06225 20.202 5.06225 21.7848C5.06225 23.3675 5.39106 24.7559 6.04869 25.9499C6.73491 27.1441 7.62121 28.0603 8.70781 28.6989C9.82299 29.3098 10.9953 29.6152 12.2246 29.6152C13.4827 29.6152 14.6551 29.3098 15.7417 28.6989C16.828 28.088 17.7001 27.1996 18.3578 26.0333C19.044 24.8394 19.3872 23.4509 19.3872 21.8681Z" fill="white"/>
</g>
</svg>
