<svg width="28" height="44" viewBox="0 0 28 44" fill="none" xmlns="http://www.w3.org/2000/svg">
<mask id="mask0_2305_5" style="mask-type:alpha" maskUnits="userSpaceOnUse" x="0" y="0" width="28" height="44">
<rect width="28" height="44" fill="#D9D9D9"/>
</mask>
<g mask="url(#mask0_2305_5)">
<path fill-rule="evenodd" clip-rule="evenodd" d="M2.12207 4.2518V33.3639H7.01154V30.0318C7.84066 31.1147 8.95561 32.0033 10.3569 32.6974C11.7864 33.3918 13.4161 33.7387 15.2461 33.7387C17.3047 33.7387 19.1775 33.2389 20.8645 32.2394C22.5802 31.2119 23.924 29.7957 24.8961 27.9909C25.8683 26.1583 26.3542 24.0895 26.3542 21.7848C26.3542 19.4801 25.8683 17.4392 24.8961 15.662C23.924 13.8571 22.5943 12.4688 20.9075 11.4969C19.2204 10.525 17.3333 10.0391 15.2461 10.0391C13.4733 10.0391 11.8578 10.4001 10.3996 11.122C8.97003 11.8162 7.84066 12.7187 7.01154 13.8293V4.2518H2.12207ZM21.3792 21.7848C21.3792 20.202 21.036 18.8414 20.3498 17.703C19.6922 16.5367 18.8059 15.662 17.6907 15.0789C16.6043 14.468 15.432 14.1626 14.1739 14.1626C12.9444 14.1626 11.772 14.468 10.6571 15.0789C9.57048 15.6898 8.6842 16.5784 7.99798 17.7446C7.34035 18.9109 7.01154 20.2853 7.01154 21.8681C7.01154 23.4509 7.34035 24.8393 7.99798 26.0333C8.6842 27.1996 9.57048 28.088 10.6571 28.6989C11.772 29.3098 12.9444 29.6152 14.1739 29.6152C15.432 29.6152 16.6043 29.3098 17.6907 28.6989C18.8059 28.0603 19.6922 27.1441 20.3498 25.9499C21.036 24.7559 21.3792 23.3675 21.3792 21.7848Z" fill="white"/>
</g>
</svg>
