<svg width="28" height="44" viewBox="0 0 28 44" fill="none" xmlns="http://www.w3.org/2000/svg">
<mask id="mask0_2305_5" style="mask-type:alpha" maskUnits="userSpaceOnUse" x="0" y="0" width="28" height="44">
<rect width="28" height="44" fill="#D9D9D9"/>
</mask>
<g mask="url(#mask0_2305_5)">
<path d="M15.1801 10.0391C17.0391 10.0391 18.696 10.4139 20.1553 11.1637C21.6425 11.9134 22.7997 13.0241 23.6293 14.4958C24.4589 15.9675 24.8726 17.7446 24.8726 19.8272V33.3639H20.0251V20.5352C20.0251 18.4804 19.4977 16.9116 18.438 15.8286C17.3807 14.7179 15.9376 14.1626 14.1065 14.1626C12.2777 14.1626 10.8183 14.7179 9.73312 15.8286C8.6758 16.9116 8.14599 18.4804 8.14599 20.5352V33.3639H3.25674V10.4139H8.14599V13.038C8.94537 12.0939 9.96085 11.358 11.1901 10.8304C12.4496 10.3029 13.7788 10.0391 15.1801 10.0391Z" fill="white"/>
</g>
</svg>
