<svg width="24" height="24" viewBox="0 0 24 24" fill="none" xmlns="http://www.w3.org/2000/svg">
<g clip-path="url(#clip0_2343_3685)">
<g clip-path="url(#clip1_2343_3685)">
<path fill-rule="evenodd" clip-rule="evenodd" d="M20.4054 3.48755C18.1607 1.23755 15.1714 0 11.9946 0C5.4375 0 0.101791 5.33569 0.101791 11.8928C0.101791 13.9875 0.648209 16.0339 1.6875 17.8394L0 24L6.30536 22.3447C8.04108 23.293 9.99643 23.791 11.9893 23.791H11.9946C18.5464 23.791 24 18.4553 24 11.8982C24 8.72144 22.65 5.73755 20.4054 3.48755ZM11.9444 21.8184C10.1877 21.8184 8.46799 21.345 6.97054 20.4514L6.61601 20.2385L2.92262 21.2119L3.90681 17.5898L3.674 17.2175C2.69508 15.6541 2.18182 13.8508 2.18182 11.9946C2.18182 6.58569 6.5631 2.18188 11.9497 2.18188C14.5584 2.18188 17.0083 3.20312 18.8497 5.05933C20.6911 6.91553 21.8235 9.37793 21.8182 12C21.8182 17.4143 17.3258 21.8184 11.9444 21.8184ZM14.8344 13.3662C15.1059 13.46 16.5592 14.1582 16.852 14.304L16.9893 14.3689C17.2065 14.4705 17.3532 14.5391 17.411 14.6479C17.4855 14.7678 17.4855 15.3462 17.2406 16.0234C16.9957 16.7009 15.8193 17.3157 15.2497 17.3992C14.3127 17.5347 13.5781 17.4668 11.7043 16.6748C8.94281 15.5054 7.07709 12.8943 6.71336 12.3853C6.68654 12.3477 6.66788 12.3215 6.65764 12.3083C6.5139 12.1155 5.45454 10.74 5.45454 9.31738C5.45454 7.98853 6.11903 7.29175 6.42778 6.96802L6.48729 6.90503C6.75879 6.61841 7.07819 6.54541 7.27516 6.54541C7.47212 6.54541 7.6691 6.54541 7.83945 6.55591C7.86134 6.55713 7.88419 6.55713 7.90784 6.55713C8.07962 6.55664 8.29431 6.55615 8.50487 7.05078C8.57715 7.22144 8.67958 7.46582 8.78999 7.729C9.0536 8.35767 9.36266 9.09473 9.41518 9.19751C9.4897 9.34351 9.53761 9.51025 9.44179 9.70312C9.19087 10.1943 8.93153 10.46 8.74756 10.6484C8.51779 10.8835 8.40558 10.9983 8.57408 11.282C9.71861 13.2046 10.8578 13.8716 12.5933 14.7209C12.886 14.8667 13.0617 14.8408 13.2321 14.6479C13.4077 14.45 13.972 13.8037 14.169 13.512C14.366 13.2202 14.5629 13.2671 14.8344 13.3662Z" fill="white"/>
</g>
</g>
<defs>
<clipPath id="clip0_2343_3685">
<rect width="24" height="24" fill="white"/>
</clipPath>
<clipPath id="clip1_2343_3685">
<rect width="24" height="24" fill="white"/>
</clipPath>
</defs>
</svg>
