<svg width="519" height="653" viewBox="0 0 519 653" fill="none" xmlns="http://www.w3.org/2000/svg">
<path d="M2.26098 15L1 638" stroke="#636363" stroke-linecap="square"/>
<path d="M260.761 15L259.5 638" stroke="#636363" stroke-linecap="square"/>
<path d="M518 16.4421L518 638" stroke="#636363" stroke-linecap="square"/>
<path d="M330.956 652.5H331.456V652V296.99V296.49H330.956H189.356H188.856V296.99V652V652.5H189.356H330.956ZM195.548 156.574L195.557 156.583L195.566 156.592C213.146 173.349 234.686 181.725 260.156 181.725C284.757 181.725 305.427 173.345 322.132 156.583C339.71 138.947 348.5 117.332 348.5 91.7703C348.5 66.2108 339.711 44.5975 322.136 26.9617C305.434 9.32351 284.763 0.5 260.156 0.5C234.678 0.5 213.135 9.32051 195.557 26.9572L195.557 26.9571L195.548 26.9664C178.848 44.6047 170.5 66.2166 170.5 91.7703C170.5 117.324 178.848 138.936 195.548 156.574Z" stroke="#636363"/>
</svg>
