<svg width="698" height="665" viewBox="0 0 698 665" fill="none" xmlns="http://www.w3.org/2000/svg">
<mask id="mask0_27_57" style="mask-type:alpha" maskUnits="userSpaceOnUse" x="0" y="0" width="698" height="665">
<rect width="698" height="665" fill="#D9D9D9"/>
</mask>
<g mask="url(#mask0_27_57)">
<path d="M420 664.5H420.5V664V303V302.5H420H349H278.356H277.855L277.856 303L278 664L278 664.5H278.5H420ZM284.548 157.574L284.557 157.583L284.566 157.592C302.146 174.349 323.686 182.725 349.156 182.725C373.757 182.725 394.427 174.345 411.132 157.583C428.71 139.947 437.5 118.332 437.5 92.7703C437.5 67.2108 428.711 45.5975 411.136 27.9617C394.434 10.3235 373.763 1.5 349.156 1.5C323.678 1.5 302.135 10.3205 284.557 27.9572L284.557 27.9571L284.548 27.9664C267.848 45.6047 259.5 67.2166 259.5 92.7703C259.5 118.324 267.848 139.936 284.548 157.574Z" stroke="#636363"/>
<path d="M91.261 16L90 639" stroke="#636363" stroke-linecap="square"/>
<path d="M349 183V302" stroke="#636363" stroke-linecap="square"/>
<path d="M607 17.4421L607 639" stroke="#636363" stroke-linecap="square"/>
</g>
</svg>
