<svg width="723" height="642" viewBox="0 0 723 642" fill="none" xmlns="http://www.w3.org/2000/svg">
<path d="M0 0H723V79H0V0Z" fill="black"/>
<path d="M0 77H292V81H0V77Z" fill="black"/>
<path d="M432 77H723V81H432V77Z" fill="black"/>
<path d="M173 75H295L236 307H234L173 75Z" fill="black"/>
<path d="M429 75H551L492 307H490L429 75Z" fill="black"/>
<path d="M0 79H3L147 567H0V79Z" fill="black"/>
<path d="M720 79H723L723.001 567H576L720 79Z" fill="black"/>
<path d="M0 563H723V642H0V563Z" fill="black"/>
<path d="M356 338H359L426 565H292L356 338Z" fill="black"/>
</svg>
