<svg width="698" height="627" viewBox="0 0 698 627" fill="none" xmlns="http://www.w3.org/2000/svg">
<mask id="mask0_910_7" style="mask-type:alpha" maskUnits="userSpaceOnUse" x="0" y="0" width="698" height="627">
<rect width="698" height="627" fill="#D9D9D9"/>
</mask>
<g mask="url(#mask0_910_7)">
<path d="M298.857 625.656H299.264L299.346 625.257L358.118 339.885L419.272 625.261L419.357 625.656H419.761H562.284H562.688L562.773 625.262L696.489 4.49283L696.619 3.88754H696H533.459H533.042L532.967 4.29854L481.402 289.351L426.658 1.90646L426.58 1.5H426.167H298.056H297.64L297.564 1.90944L244.404 290.554L190.454 4.29494L190.377 3.88754H189.962H27.4219H26.8058L26.9326 4.49041L157.445 625.259L157.529 625.656H157.935H298.857Z" stroke="#636363"/>
</g>
</svg>
