<svg width="610" height="326" viewBox="0 0 610 326" fill="none" xmlns="http://www.w3.org/2000/svg">
<path opacity="0.23" d="M142.449 325.022L0 0H77.0386L175.88 235.462L275.207 0H350.792L208.343 325.022H142.449ZM514.581 325.022C462.253 325.022 418.484 309.797 383.276 279.346C348.391 248.597 330.948 213.967 330.948 166.5C330.948 119.033 348.229 80.0742 382.791 49.6236C417.677 18.8745 461.607 3.5 514.581 3.5C547.528 3.5 582.402 10.0678 609.212 23.2033V88.1346C583.694 72.0137 548.982 63.9533 515.065 63.9533C482.764 63.9533 455.792 73.6557 434.15 93.0605C412.832 112.465 402.172 136.945 402.172 166.5C402.172 196.353 413.155 216.505 435.12 235.909C457.084 255.016 484.702 264.569 517.972 264.569C554.796 264.569 584.017 255.463 609.212 237.253V302.184C581.11 317.409 550.758 325.022 514.581 325.022Z" fill="#FFD2D8" fill-opacity="0.6"/>
</svg>
