<svg width="111" height="35" viewBox="0 0 111 35" fill="none" xmlns="http://www.w3.org/2000/svg">
<path fill-rule="evenodd" clip-rule="evenodd" d="M14.8194 8.09664H25.377L30.7043 17.1461L25.377 26.1956H14.8194L9.4922 17.1461L14.8194 8.09664ZM26.6362 6.00098H13.5603L6.97388 17.1461L13.5603 28.2912H26.6362L33.2226 17.1461L26.6362 6.00098Z" fill="#EBEDF5"/>
<path d="M29.1545 32.7689L20.0497 17.1466H19.9529L20.0497 17.0514L29.1545 1.52441L29.3482 1.61967L20.2435 17.1466L29.3482 32.6736L29.1545 32.7689Z" fill="#F15A23"/>
<path d="M2.22778 17.0508H20.1466V17.2413H2.22778V17.0508Z" fill="#F15A23"/>
<path fill-rule="evenodd" clip-rule="evenodd" d="M23.8273 17.146L21.9869 13.9072H18.2095L16.3691 17.146L18.2095 20.3847H21.9869L23.8273 17.146Z" fill="#F15A23"/>
<path fill-rule="evenodd" clip-rule="evenodd" d="M31.0915 1.61938L30.1229 0H28.2826L27.4109 1.61938L28.2826 3.1435H30.1229L31.0915 1.61938Z" fill="#F15A23"/>
<path fill-rule="evenodd" clip-rule="evenodd" d="M28.1859 25.815L26.733 28.2917H23.8272L22.4712 25.815L23.8272 23.4336H26.733L28.1859 25.815Z" fill="#F15A23"/>
<path fill-rule="evenodd" clip-rule="evenodd" d="M31.0915 32.6735L30.1229 31.1494H28.2826L27.4109 32.6735L28.2826 34.2929H30.1229L31.0915 32.6735Z" fill="#F15A23"/>
<path fill-rule="evenodd" clip-rule="evenodd" d="M3.68063 17.1467L2.8089 15.5273H0.968587L0 17.1467L0.968587 18.6708H2.8089L3.68063 17.1467Z" fill="#F15A23"/>
<path fill-rule="evenodd" clip-rule="evenodd" d="M28.0889 8.38241L26.6361 10.8591H23.8271L22.3743 8.38241L23.8271 6.00098H26.6361L28.0889 8.38241Z" fill="#F15A23"/>
<path fill-rule="evenodd" clip-rule="evenodd" d="M12.7854 17.1466L11.3325 19.6233H8.42676L6.97388 17.1466L8.42676 14.6699H11.3325L12.7854 17.1466Z" fill="#F15A23"/>
<path d="M30.2199 17.1461L25.1832 8.47762H15.0131L9.97643 17.1461L15.0131 25.7192H25.1832L30.2199 17.1461ZM30.5105 17.1461L25.2801 26.005H14.9162L9.78271 17.1461L14.9162 8.28711H25.2801L30.5105 17.1461Z" fill="#F15A23"/>
<path fill-rule="evenodd" clip-rule="evenodd" d="M46.5889 10.5737V23.7192H45.4266V11.6215H42.9083C42.9083 13.5267 42.9083 15.0508 42.8114 16.1939C42.8114 17.718 42.7146 20.1947 42.3271 21.6236C41.8429 23.2429 41.068 23.7192 39.4214 23.7192V22.7667C40.7774 22.7667 41.068 21.9093 41.3586 20.7663C41.6491 19.0516 41.6491 16.956 41.6491 15.2413C41.746 14.0982 41.746 12.4788 41.746 10.5737H46.5889ZM55.8874 23.7192H55.5968C54.8219 23.7192 54.1439 23.5287 53.9502 22.6714C53.0785 23.3382 52.2067 23.7192 51.335 23.7192C49.4947 23.7192 48.7198 22.2904 48.7198 20.5757C48.7198 19.7184 48.9135 18.9564 49.3978 18.3848C50.1727 17.1465 51.1413 16.7654 52.4973 16.0986C53.1753 15.8129 53.6596 15.4318 53.9502 15.1461V13.3362C53.9502 12.0978 53.369 11.5263 52.3036 11.5263C50.657 11.5263 50.4633 12.5741 50.4633 13.9077V14.5745H49.301V13.9077C49.301 11.7168 49.979 10.4784 52.3036 10.4784C54.1439 10.4784 55.1125 11.3358 55.1125 13.1457V22.1951C55.1125 22.4809 55.3062 22.6714 55.8874 22.6714V23.7192ZM53.9502 21.4331V16.3844C53.9502 16.3844 53.5628 16.5749 52.8847 17.0512C52.013 17.5275 50.9476 18.0038 50.3664 18.9564C50.0758 19.4326 49.8821 20.0042 49.8821 20.671C49.8821 21.7188 50.3664 22.6714 51.6256 22.6714C52.4005 22.6714 53.1753 22.2904 53.9502 21.4331ZM66.3481 23.7192H65.2827L65.1858 12.5741L62.5706 23.7192H61.5052L58.89 12.5741V23.7192H57.7277L57.9214 10.5737H59.2774L61.9895 21.8141L64.7015 10.5737H66.1544L66.3481 23.7192ZM70.3193 23.7192H69.2539V10.5737H75.356V23.7192H74.1937V11.6215H70.3193V23.7192ZM86.4947 23.7192H85.3324V10.5737H86.4947V23.7192ZM78.2617 23.7192V10.5737H79.3272V15.9081H80.3926C82.6204 15.9081 83.9764 16.6702 83.9764 19.0516V20.5757C83.9764 22.7667 82.5235 23.7192 80.3926 23.7192H78.2617ZM79.3272 16.956V22.6714H80.4895C82.1361 22.6714 82.8141 22.0046 82.8141 20.4805V19.1469C82.8141 17.6228 82.1361 16.956 80.4895 16.956H79.3272ZM90.4659 23.7192H89.3036V21.3378H90.4659V23.7192ZM93.178 10.5737H94.3403V11.7168C94.9214 10.8595 95.7932 10.3832 96.8586 10.3832C98.5052 10.3832 99.3769 11.6215 99.3769 13.9077V20.7663C99.3769 22.3856 98.4083 23.8145 96.6649 23.8145C95.7932 23.8145 94.8246 23.3382 94.3403 22.6714V28.0058H93.178V10.5737ZM98.2146 20.1947V13.4314C98.2146 12.3836 97.6335 11.431 96.4712 11.431C95.5026 11.431 94.534 12.1931 94.3403 13.1457V21.2425C94.6308 22.1951 95.5026 22.7667 96.4712 22.7667C98.0209 22.7667 98.2146 21.4331 98.2146 20.1947ZM106.932 10.4784H107.804C109.838 10.4784 111 11.6215 111 13.6219V20.8615C111 22.7667 109.741 23.7192 107.9 23.7192H106.932V28.0058H105.77V23.7192H104.801C102.961 23.7192 101.702 22.7667 101.702 20.8615V13.6219C101.702 11.6215 102.864 10.4784 104.898 10.4784H105.77V6.28711H106.932V10.4784ZM109.838 20.5757V14.0982C109.838 12.5741 109.45 11.5263 107.804 11.5263H106.932V22.6714H107.9C109.257 22.6714 109.838 21.8141 109.838 20.5757ZM102.767 20.5757C102.767 21.8141 103.445 22.6714 104.801 22.6714H105.77V11.5263H104.898C103.251 11.5263 102.767 12.5741 102.767 14.0982V20.5757Z" fill="#F15A23"/>
</svg>
