<svg width="88" height="34" viewBox="0 0 88 34" fill="none" xmlns="http://www.w3.org/2000/svg">
<path d="M4.02007 32.3056C3.89541 32.5523 3.72227 32.7414 3.50078 32.8728C3.27914 33.0041 3.02785 33.0698 2.74647 33.0698C2.32994 33.0698 1.98243 32.9232 1.70378 32.63C1.42514 32.3368 1.28589 31.982 1.28589 31.5654C1.28589 31.1673 1.42909 30.8224 1.71579 30.5305C2.00219 30.2386 2.34454 30.0927 2.74252 30.0927C3.33949 30.0927 3.76544 30.3567 4.02007 30.8847H3.61418C3.39391 30.5823 3.10204 30.4311 2.73856 30.4311C2.43605 30.4311 2.17671 30.5445 1.96054 30.7713C1.74422 30.9981 1.63614 31.2629 1.63614 31.5654C1.63614 31.8784 1.73966 32.1504 1.94655 32.3813C2.16409 32.6201 2.42678 32.7395 2.73461 32.7395C3.10599 32.7395 3.39528 32.5949 3.60232 32.3056H4.02007ZM7.38481 33.0142H7.0259L6.68964 32.1305H5.53279L5.20048 33.0142H4.83761L5.956 30.1485H6.26642L7.38481 33.0142ZM6.56818 31.8201L6.11973 30.6261L6.10787 30.634L5.64954 31.8201H6.56818ZM10.3076 33.0142H9.96925V31.7126H8.67984V33.0142H8.34161V30.1485H8.67984V31.3943H9.96925V30.1485H10.3076V33.0142ZM13.8075 33.0142H13.4488L13.1124 32.1305H11.9555L11.6232 33.0142H11.2603L12.3787 30.1485H12.6893L13.8075 33.0142ZM12.991 31.8201L12.5426 30.6261L12.5306 30.634L12.0723 31.8201H12.991ZM16.0857 30.4589H15.4887V33.0142H15.1463V30.4589H14.5494V30.1485H16.0857V30.4589ZM19.9638 31.5613C19.9638 31.9806 19.8218 32.3374 19.5378 32.632C19.254 32.9266 18.9037 33.0737 18.4872 33.0737C18.0733 33.0737 17.725 32.9258 17.4424 32.63C17.1598 32.3342 17.0186 31.9792 17.0186 31.5654C17.0186 31.1647 17.1638 30.8192 17.4543 30.5285C17.7449 30.238 18.0905 30.0927 18.4912 30.0927C18.8971 30.0927 19.244 30.236 19.5319 30.5226C19.8198 30.8091 19.9638 31.1554 19.9638 31.5613ZM19.6096 31.5574C19.6096 31.2495 19.4994 30.9829 19.2792 30.7575C19.059 30.5319 18.7949 30.4191 18.4872 30.4191C18.1847 30.4191 17.9232 30.5345 17.7031 30.7654C17.4828 30.9961 17.3728 31.2629 17.3728 31.5654C17.3728 31.8863 17.4789 32.161 17.6911 32.3892C17.9086 32.6253 18.1767 32.7434 18.4951 32.7434C18.8188 32.7434 19.0868 32.6253 19.2991 32.3892C19.506 32.161 19.6096 31.8838 19.6096 31.5574ZM22.8269 30.9764C22.8269 31.2576 22.7314 31.4724 22.5403 31.6211C22.3679 31.7564 22.137 31.824 21.8477 31.824H21.4538V33.0142H21.1154V30.1485H21.8517C22.1435 30.1485 22.3745 30.2122 22.5443 30.3394C22.7328 30.4802 22.8269 30.6924 22.8269 30.9764ZM22.4766 30.9961C22.4766 30.638 22.2624 30.4589 21.8345 30.4589H21.4538V31.5136H21.8199C22.2577 31.5136 22.4766 31.3412 22.4766 30.9961ZM26.1477 33.0142H25.8055V30.7003L24.2877 33.0142H23.9507V30.1485H24.2891V32.461L25.8055 30.1485H26.1477V33.0142ZM29.1383 29.4121C29.1383 29.574 29.0799 29.7079 28.9632 29.8142C28.8464 29.9203 28.7058 29.9734 28.5412 29.9734C28.3794 29.9734 28.2402 29.9203 28.1233 29.8142C28.0067 29.7079 27.9483 29.574 27.9483 29.4121H28.2189C28.2189 29.5077 28.2487 29.5866 28.3084 29.649C28.368 29.7113 28.4457 29.7424 28.5412 29.7424C28.6395 29.7424 28.7171 29.712 28.7741 29.6509C28.8311 29.59 28.8596 29.5103 28.8596 29.4121H29.1383ZM29.6317 33.0142H29.2896V30.7017L27.773 33.0142H27.4348V30.1485H27.773V32.4695L29.2908 30.1485H29.6317V33.0142ZM34.644 32.1585C34.644 32.7288 34.3005 33.0142 33.6132 33.0142H32.9646V30.1485H33.5377C34.1666 30.1485 34.4809 30.4031 34.4809 30.9127C34.4809 31.1833 34.3616 31.3704 34.1228 31.4738C34.4703 31.5799 34.644 31.8082 34.644 32.1585ZM34.1386 30.9048C34.1386 30.6074 33.9436 30.4589 33.5535 30.4589H33.2949V31.3823H33.5377C33.9384 31.3823 34.1386 31.2231 34.1386 30.9048ZM34.2977 32.2021C34.2977 32.0005 34.2407 31.8572 34.1267 31.7723C34.0285 31.7007 33.8747 31.6649 33.6649 31.6649H33.2949V32.7036H33.6371C34.0776 32.7036 34.2977 32.5365 34.2977 32.2021ZM39.5729 32.1585C39.5729 32.4476 39.4745 32.6665 39.2783 32.8152C39.1032 32.9477 38.8671 33.0142 38.5699 33.0142H37.8455V30.1485H39.3937V30.4589H38.1838V31.3026H38.5659C38.8684 31.3026 39.1057 31.3677 39.2783 31.4976C39.4745 31.6463 39.5729 31.8666 39.5729 32.1585ZM39.2226 32.1585C39.2226 31.7948 39.005 31.6132 38.5699 31.6132H38.1838V32.7036H38.5659C39.0037 32.7036 39.2226 32.5219 39.2226 32.1585ZM42.2092 33.0142H40.7246V30.1485H42.2092V30.4589H41.0628V31.4022H42.1374V31.7126H41.0628V32.7036H42.2092V33.0142ZM45.5736 33.0142H45.2174L44.3645 30.6261L44.3485 30.6327L43.506 33.0142H43.1459L44.2006 30.1485H44.515L45.5736 33.0142ZM49.3523 31.5613C49.3523 31.9806 49.2103 32.3374 48.9263 32.632C48.6425 32.9266 48.2923 33.0737 47.8756 33.0737C47.4618 33.0737 47.1135 32.9258 46.8309 32.63C46.5483 32.3342 46.407 31.9792 46.407 31.5654C46.407 31.1647 46.5523 30.8192 46.8428 30.5285C47.1335 30.238 47.479 30.0927 47.8796 30.0927C48.2856 30.0927 48.6325 30.236 48.9204 30.5226C49.2083 30.8091 49.3523 31.1554 49.3523 31.5613ZM48.9981 31.5574C48.9981 31.2495 48.8879 30.9829 48.6678 30.7575C48.4475 30.5319 48.1834 30.4191 47.8756 30.4191C47.5732 30.4191 47.3118 30.5345 47.0915 30.7654C46.8714 30.9961 46.7612 31.2629 46.7612 31.5654C46.7612 31.8863 46.8674 32.161 47.0796 32.3892C47.2972 32.6253 47.5652 32.7434 47.8837 32.7434C48.2073 32.7434 48.4753 32.6253 48.6877 32.3892C48.8946 32.161 48.9981 31.8838 48.9981 31.5574ZM52.4694 30.1485L51.2297 31.5408L52.4867 33.0142H52.0561L50.8422 31.5613V33.0142H50.504V30.1485H50.8422V31.5454L52.0442 30.1485H52.4694ZM55.6596 30.1485L54.3939 33.0142H54.0457L54.2752 32.5146L53.1961 30.1485H53.5542L54.445 32.12L55.3027 30.1485H55.6596ZM58.3596 30.9764C58.3596 31.2576 58.2641 31.4724 58.0731 31.6211C57.9005 31.7564 57.6698 31.824 57.3805 31.824H56.9864V33.0142H56.6482V30.1485H57.3844C57.6763 30.1485 57.9072 30.2122 58.077 30.3394C58.2654 30.4802 58.3596 30.6924 58.3596 30.9764ZM58.0094 30.9961C58.0094 30.638 57.795 30.4589 57.3672 30.4589H56.9864V31.5136H57.3527C57.7905 31.5136 58.0094 31.3412 58.0094 30.9961ZM61.6804 33.0142H61.3382V30.7003L59.8205 33.0142H59.4835V30.1485H59.8217V32.461L61.3382 30.1485H61.6804V33.0142ZM65.0371 33.0142H64.6293L63.871 31.8372L63.1048 33.0142H62.6968L63.672 31.5694L62.7207 30.1485H63.1281L63.8704 31.3073L64.6033 30.1485H65.0172L64.0621 31.5654L65.0371 33.0142ZM67.5421 33.0142H66.0576V30.1485H67.5421V30.4589H66.3958V31.4022H67.4705V31.7126H66.3958V32.7036H67.5421V33.0142Z" fill="#2A2A21"/>
<path d="M73.0972 25.4832C73.0972 25.8243 72.9767 26.1151 72.7356 26.3562C72.4943 26.5968 72.203 26.7174 71.8613 26.7174C71.5264 26.7174 71.2373 26.5952 70.9939 26.3512C70.7505 26.1067 70.6289 25.8176 70.6289 25.4832C70.6289 25.1443 70.7493 24.8546 70.9906 24.6135C71.2317 24.373 71.522 24.2524 71.8613 24.2524C72.203 24.2524 72.4943 24.3724 72.7356 24.6118C72.9767 24.8518 73.0972 25.1422 73.0972 25.4832ZM72.8862 25.4899C72.8862 25.198 72.7885 24.9523 72.5931 24.7526C72.3978 24.5533 72.1538 24.4534 71.8613 24.4534C71.5778 24.4534 71.3361 24.5539 71.1362 24.7542C70.9364 24.9552 70.8364 25.198 70.8364 25.4832C70.8364 25.7641 70.9369 26.0063 71.1379 26.2106C71.3388 26.4143 71.5789 26.5164 71.858 26.5164C72.1438 26.5164 72.3865 26.4166 72.5864 26.2173C72.7863 26.0175 72.8862 25.7752 72.8862 25.4899ZM72.3938 26.128H72.0823L71.7072 25.5887V26.128H71.4493V24.8017H71.8981C72.0433 24.8017 72.1594 24.8397 72.2465 24.9155C72.3335 24.9914 72.3771 25.1008 72.3771 25.2437C72.3771 25.3509 72.3447 25.4424 72.28 25.5184C72.2152 25.5943 72.1304 25.6379 72.0255 25.649L72.3938 26.128ZM72.1225 25.2504C72.1225 25.1075 72.0288 25.0361 71.8412 25.0361H71.7072V25.4514H71.8412C71.9328 25.4514 71.9987 25.4402 72.0389 25.418C72.0947 25.3889 72.1225 25.333 72.1225 25.2504Z" fill="#008DD2"/>
<path fill-rule="evenodd" clip-rule="evenodd" d="M67.8295 26.3312V20.9199C67.8295 20.1727 67.6857 19.461 67.4255 18.8135C67.1655 18.1662 66.789 17.5833 66.3238 17.0936C65.8588 16.604 65.3048 16.2077 64.6898 15.9339C63.2833 15.3079 62.0492 15.2682 61.5465 15.2682C58.0176 15.1864 55.4155 16.213 55.4155 18.4344H55.4154C55.4154 19.8871 56.8033 21.0686 59.5636 21.4612C57.2213 21.9884 55.3762 23.4938 55.3762 26.3641H57.661C57.661 24.0554 59.2752 21.9148 61.6593 21.9148H64.6139V20.9304H61.5385C59.0612 20.9304 57.7002 19.7928 57.7002 18.4344C57.7002 17.0758 59.0683 15.87 61.5465 15.9435C63.9305 15.9435 65.5449 18.6112 65.5449 20.9199V26.3312H67.8295ZM27.8027 15.5088H32.9435H35.2283V15.5227H40.369V16.7251H35.2283V26.3312H32.9435V16.7113H27.8027V15.5088ZM25.7398 17.2604L29.4981 26.3312H27.2133L23.455 17.2604C23.2511 16.6236 22.8605 16.0847 22.4833 16.0847C22.106 16.0847 21.7152 16.6236 21.5113 17.2604L18.5848 24.3237C17.7741 26.2683 16.1948 26.3293 15.946 26.3312L15.4931 26.2713L15.6441 25.907L19.2266 17.2604H19.2251C19.9799 15.7784 21.2506 15.2682 22.4833 15.2682C23.7159 15.2682 24.9864 15.7784 25.7413 17.2604H25.7398ZM7.44122 15.9435C8.54486 15.9435 9.46898 16.6043 9.93384 17.0936C10.3987 17.583 10.7754 18.1662 11.0355 18.8135C11.2958 19.461 11.4396 20.1727 11.4396 20.9199V22.8002V22.833H11.44C11.4583 25.0903 13.348 26.0757 14.6938 26.2867L14.9662 25.6292C14.2604 25.452 13.7244 24.5393 13.7244 22.8002V20.9199C13.7244 20.1727 13.5804 19.461 13.3203 18.8135C13.0602 18.1662 12.6838 17.5833 12.2187 17.0936C11.7536 16.604 11.1995 16.2077 10.5846 15.9339C9.17802 15.3079 8.19766 15.2682 7.44122 15.2682C6.68494 15.2682 5.70443 15.3079 4.29781 15.9339C3.68305 16.2077 3.12895 16.604 2.66393 17.0936C2.19876 17.5833 1.82221 18.1662 1.56211 18.8135C1.30201 19.461 1.1582 20.1727 1.1582 20.9199C1.1582 22.4142 1.73374 23.8123 2.66378 24.8364C4.16252 26.4867 6.21019 26.5717 7.44122 26.5717C8.38099 26.5717 9.75796 26.2335 10.8236 25.1875L10.5022 24.6014C7.91278 26.287 3.44302 24.9274 3.44302 20.9199C3.44302 20.1727 3.58683 19.461 3.84693 18.8135C4.10703 18.1662 4.48388 17.583 4.94875 17.0936C5.41346 16.6043 6.33773 15.9435 7.44122 15.9435ZM52.9082 22.833C52.9082 24.7832 53.5822 25.6943 54.4139 25.6943V26.3641C53.1044 26.3641 50.6233 25.438 50.6233 22.833V20.9199C50.6233 20.1727 50.4794 19.461 50.2194 18.8135C49.9593 18.1662 49.5825 17.583 49.1176 17.0936C48.6527 16.6043 47.7286 15.9435 46.625 15.9435C45.5215 15.9435 44.5972 16.6043 44.1325 17.0936C43.6676 17.583 43.2908 18.1662 43.0307 18.8135C42.7706 19.461 42.6268 20.1727 42.6268 20.9199C42.6268 24.9274 47.0965 26.287 49.686 24.6014L50.0074 25.1875C48.9417 26.2335 47.5648 26.5717 46.625 26.5717C45.394 26.5717 43.3464 26.4867 41.8475 24.8364C40.9174 23.8123 40.342 22.4142 40.342 20.9199C40.342 20.1727 40.4858 19.461 40.746 18.8135C41.006 18.1662 41.3825 17.5833 41.8477 17.0936C42.3127 16.604 42.8667 16.2077 43.4817 15.9339C44.8883 15.3079 45.8687 15.2682 46.625 15.2682C47.3814 15.2682 48.3618 15.3079 49.7684 15.9339C50.3833 16.2077 50.9373 16.604 51.4024 17.0936C51.8674 17.5833 52.244 18.1662 52.5041 18.8135C52.7642 19.461 52.9082 20.1727 52.9082 20.9199V22.833Z" fill="#33AD43"/>
<path fill-rule="evenodd" clip-rule="evenodd" d="M43.9268 4.78443V5.7318V10.5547C43.9268 12.091 44.4578 12.8088 45.113 12.8088V13.3365C44.0814 13.3365 42.1268 12.6069 42.1268 10.5547V9.3644C41.0461 10.1376 39.7871 10.1844 38.977 10.1844C38.2809 10.1844 37.2804 9.94875 36.4654 9.23564L36.7212 8.7691C38.1206 9.51505 40.5594 9.16906 41.4523 7.92252C41.883 7.32144 42.1268 6.58872 42.1268 5.7318V4.78443H43.9268ZM65.9764 4.93736V4.78443H67.7765V4.93736C67.7765 6.11473 67.3232 7.2161 66.5903 8.023C66.0338 8.63578 65.381 8.97463 64.745 9.16161C64.921 9.22242 65.1068 9.29523 65.303 9.38249C65.7873 9.59805 66.2238 9.91045 66.5903 10.2961C66.9567 10.6818 67.2532 11.1412 67.4582 11.651C67.6631 12.1611 67.7765 12.722 67.7765 13.3106H65.9764C65.9764 12.722 65.8631 12.1611 65.6583 11.651C65.4534 11.1412 65.1565 10.6816 64.7903 10.2961C64.4241 9.9106 63.6959 9.38994 62.8265 9.38994C62.0862 9.38994 61.0014 9.1236 60.162 8.29937L60.4151 7.83784C62.4551 9.16571 65.9764 8.09445 65.9764 4.93736ZM9.28596 9.04744C9.28596 12.2045 5.76464 13.2756 3.72457 11.9478L3.47146 12.4095C4.3109 13.2337 5.39569 13.5 6.13602 13.5C7.10588 13.5 8.71909 13.4331 9.8998 12.1329C10.6327 11.3262 11.086 10.2247 11.086 9.04744C11.086 8.45883 10.9726 7.89804 10.7677 7.38803C10.5628 6.87801 10.2662 6.41877 9.8998 6.0331C9.53329 5.64728 9.097 5.33504 8.61252 5.11948C7.50432 4.62618 6.73192 4.59487 6.13602 4.59487C5.54011 4.59487 4.76786 4.62618 3.65966 5.11948C3.17518 5.33504 2.73874 5.64728 2.37238 6.0331C2.00602 6.41877 1.70943 6.87801 1.50451 7.38803C1.29959 7.89804 1.18619 8.45883 1.18619 9.04744V14.5433C1.18619 16.0796 0.655193 16.7974 0 16.7974V17.3251C1.03159 17.3251 2.98622 16.5955 2.98622 14.5433H2.98607V9.04744C2.98607 8.45883 3.09948 7.89804 3.30439 7.38803C3.50931 6.87801 3.8062 6.41846 4.17241 6.0331C4.53862 5.64758 5.26663 5.12693 6.13602 5.12693C7.0054 5.12693 7.73356 5.64758 8.09977 6.0331C8.46598 6.41846 8.76287 6.87801 8.96764 7.38803C9.17255 7.89804 9.28596 8.45883 9.28596 9.04744ZM55.6267 10.5547C55.6267 12.091 56.1577 12.8088 56.8129 12.8088V13.3365C55.7813 13.3365 53.8266 12.6069 53.8266 10.5547V4.78443H55.6267V10.5547ZM57.8767 13.3106V4.78443H59.6766V13.3106H57.8767ZM47.9769 9.04744C47.9769 9.90436 48.2207 10.6371 48.6514 11.2382C49.6041 12.5682 52.3165 12.8728 53.6486 11.9203L53.8181 12.383C52.9752 13.2279 51.875 13.5 51.1268 13.5C50.157 13.5 48.5437 13.4331 47.363 12.1329C46.6302 11.3262 46.1768 10.2247 46.1768 9.04744V4.78443H47.9769V9.04744ZM34.4855 13.3106V4.78443H36.2856V13.3106H34.4855ZM16.9359 12.968C16.0665 12.968 15.3384 12.4475 14.9722 12.0619C14.6059 11.6764 14.3091 11.2169 14.1043 10.7069C13.8994 10.197 13.786 9.63621 13.786 9.04744C13.786 8.45883 13.8994 7.89804 14.1043 7.38803C14.3091 6.87801 14.6059 6.41846 14.9722 6.0331C15.3384 5.64758 16.0665 5.12693 16.9359 5.12693C17.8053 5.12693 18.5333 5.64758 18.8995 6.0331C19.2657 6.41846 19.5626 6.87801 19.7675 7.38803C19.9725 7.89804 20.0859 8.45883 20.0859 9.04744C20.0859 9.63621 19.9725 10.197 19.7675 10.7069C19.5626 11.2169 19.2657 11.6764 18.8995 12.0619C18.5333 12.4475 17.8053 12.968 16.9359 12.968ZM11.9859 9.04744C11.9859 9.63621 12.0993 10.197 12.3043 10.7069C12.5092 11.2169 12.8058 11.6763 13.1723 12.0619C13.5386 12.4476 13.9751 12.76 14.4594 12.9756C15.5676 13.4687 16.34 13.5 16.9359 13.5C17.5318 13.5 18.3042 13.4687 19.4123 12.9756C19.8967 12.76 20.3332 12.4476 20.6996 12.0619C21.0661 11.6763 21.3626 11.2169 21.5674 10.7069C21.7725 10.197 21.8857 9.63621 21.8857 9.04744C21.8857 8.45883 21.7725 7.89804 21.5674 7.38803C21.3626 6.87801 21.0661 6.41877 20.6996 6.0331C20.3332 5.64728 19.8967 5.33504 19.4123 5.11948C18.3042 4.62618 17.5318 4.59487 16.9359 4.59487C16.34 4.59487 15.5676 4.62618 14.4594 5.11948C13.9751 5.33504 13.5386 5.64728 13.1723 6.0331C12.8058 6.41877 12.5092 6.87801 12.3043 7.38803C12.0993 7.89804 11.9859 8.45883 11.9859 9.04744ZM24.5857 9.04744C24.5857 5.89036 28.1072 4.81924 30.1471 6.14711L30.4002 5.68544C29.5609 4.86135 28.476 4.59487 27.7357 4.59487C26.7658 4.59487 25.1527 4.66191 23.972 5.96196C23.2391 6.76886 22.7858 7.87022 22.7858 9.04744C22.7858 9.63621 22.8991 10.197 23.104 10.7069C23.3089 11.2169 23.6057 11.6763 23.972 12.0619C24.3384 12.4476 24.7748 12.76 25.2593 12.9756C26.3675 13.4687 27.1398 13.5 27.7357 13.5C28.3316 13.5 29.104 13.4687 30.212 12.9756C30.6965 12.76 31.1329 12.4476 31.4993 12.0619C31.8658 11.6763 32.1624 11.2169 32.3673 10.7069C32.5722 10.197 32.6856 9.63621 32.6856 9.04744V6.4139C32.6856 5.27955 32.3308 3.93526 31.5689 2.91842C30.5911 1.61336 29.0882 0.94661 27.7357 0.565199V0.565047C27.486 0.494664 26.8369 0.382019 26.5432 0L26.276 0.494815C26.6559 0.889604 27.4248 1.15943 27.7357 1.24715C28.7558 1.62795 29.5433 2.27493 30.0758 3.19479C30.6082 4.11464 30.8856 5.2344 30.8856 6.4139V9.04744C30.8856 9.63621 30.7724 10.197 30.5673 10.7069C30.3625 11.2169 30.0656 11.6764 29.6994 12.0619C29.3332 12.4475 28.605 12.968 27.7357 12.968C26.8663 12.968 26.1383 12.4475 25.7721 12.0619C25.4058 11.6764 25.109 11.2169 24.904 10.7069C24.6991 10.197 24.5857 9.63621 24.5857 9.04744Z" fill="#008DD2"/>
<path fill-rule="evenodd" clip-rule="evenodd" d="M80.3128 26.9775C100.783 6.24985 73.976 -4.45564 73.2347 6.93515C72.8646 12.628 80.7906 15.2368 80.8181 21.7615C80.8262 23.6268 80.5271 25.3953 80.3128 26.9775Z" fill="url(#paint0_linear_1756_1078)"/>
<path fill-rule="evenodd" clip-rule="evenodd" d="M72.5707 5.55469C72.2652 7.34286 72.5628 8.7855 73.0054 10.0016C74.054 12.8824 76.357 14.4588 78.6016 17.3597C80.7222 20.1007 80.444 23.3185 79.7303 27.6485H79.7111C79.9106 25.888 79.9065 22.5999 77.1939 20.1258C72.886 16.1965 70.8776 12.4797 72.5707 5.55469Z" fill="#33AD43"/>
<path fill-rule="evenodd" clip-rule="evenodd" d="M71.5369 17.6934C75.1892 19.6608 74.4139 20.9307 76.0078 23.3672C77.118 25.0642 78.7852 24.5641 79.3068 28.1845L79.3066 28.1813C79.6154 23.1833 76.8727 19.8985 71.5369 17.6934Z" fill="#33AD43"/>
<path fill-rule="evenodd" clip-rule="evenodd" d="M75.0575 8.89735C74.2318 6.62333 75.7103 3.57889 78.1462 3.79779C79.1687 3.88961 79.4054 4.90569 78.7012 5.35475C77.3288 6.22946 75.0758 5.93637 75.0575 8.89735Z" fill="#FEFEFE"/>
<path fill-rule="evenodd" clip-rule="evenodd" d="M72.3005 15.5335C72.7355 15.4447 73.1583 15.7356 73.2448 16.1832C73.3311 16.6309 73.0484 17.066 72.6133 17.1548C72.1781 17.2437 71.7552 16.9528 71.6688 16.5051C71.5825 16.0575 71.8652 15.6223 72.3005 15.5335Z" fill="#00A0E3"/>
<path fill-rule="evenodd" clip-rule="evenodd" d="M71.6595 14.1448C71.9482 14.086 72.2289 14.2792 72.2862 14.5762C72.3436 14.8733 72.1558 15.162 71.8671 15.221C71.5783 15.28 71.2976 15.087 71.2403 14.7899C71.1829 14.4927 71.3706 14.204 71.6595 14.1448Z" fill="#00A0E3"/>
<path fill-rule="evenodd" clip-rule="evenodd" d="M71.48 13.3028C71.6284 13.2724 71.7728 13.3718 71.8023 13.5245C71.8319 13.6773 71.7352 13.8258 71.5867 13.8563C71.4381 13.8866 71.2938 13.7872 71.2643 13.6345C71.2349 13.4815 71.3314 13.333 71.48 13.3028Z" fill="#00A0E3"/>
<defs>
<linearGradient id="paint0_linear_1756_1078" x1="81.4114" y1="17.8796" x2="79.2745" y2="6.03034" gradientUnits="userSpaceOnUse">
<stop stop-color="#A2D9F7"/>
<stop offset="1" stop-color="#00A0E3"/>
</linearGradient>
</defs>
</svg>
