<svg width="34" height="41" viewBox="0 0 34 41" fill="none" xmlns="http://www.w3.org/2000/svg">
<path opacity="0.8" d="M8.12818 21.9608L8.82233 22.7141V21.6897V4.39286C8.82233 2.19232 10.5726 0.4 12.6632 0.4C14.7538 0.4 16.504 2.19232 16.504 4.39286V10.5246V11.0995L17.0431 10.8996C17.4584 10.7456 17.8799 10.65 18.3176 10.65C19.289 10.65 20.1875 11.0451 20.8714 11.6859L21.1449 11.9421L21.4184 11.6859C22.1022 11.0451 23.0007 10.65 23.9721 10.65C25.7426 10.65 27.2675 11.9432 27.6917 13.685L27.8068 14.1576L28.2483 13.9534C28.7355 13.728 29.2344 13.5786 29.7592 13.5786C31.8498 13.5786 33.6 15.3709 33.6 17.5714V29.0112C33.6 35.4445 28.6028 40.6 22.4259 40.6H19.9963C17.3971 40.6 15.0795 39.6719 13.2473 38.2699L13.2441 38.2634L13.1862 38.1435L13.0679 38.0823L13.0369 38.0663L1.62172 26.3773V26.3329L1.50951 26.2167C0.0301635 24.6842 0.0301635 22.1729 1.50951 20.6405C2.98121 19.1161 5.38177 19.1161 6.85347 20.6405L6.86271 20.6501L6.87258 20.659L7.21266 20.9673L8.12818 21.9608ZM10.8496 27.7464L5.44112 22.1441C5.07834 21.7683 4.65247 21.5328 4.18148 21.5328C3.71049 21.5328 3.28463 21.7683 2.92185 22.1441C2.55778 22.5212 2.3375 22.956 2.3375 23.4286C2.3375 23.9012 2.55778 24.336 2.92184 24.7131L2.92346 24.7148L14.3648 36.429L14.3839 36.4485L14.4054 36.4653C15.9472 37.6646 17.8206 38.4714 19.9963 38.4714H22.4259C27.558 38.4714 31.5728 34.2921 31.5728 29.0112V17.5714C31.5728 16.5516 30.7772 15.7071 29.7592 15.7071C28.7409 15.7071 27.9455 16.5517 27.9455 17.5714V20.1H25.7857V14.6429C25.7857 13.6231 24.9903 12.7786 23.9721 12.7786C22.9539 12.7786 22.1585 13.6231 22.1585 14.6429V20.1H20.1313V14.6429C20.1313 13.6231 19.3358 12.7786 18.3176 12.7786C17.2994 12.7786 16.504 13.6231 16.504 14.6429V20.1H14.4768V4.39286C14.4768 3.37312 13.6814 2.52857 12.6632 2.52857C11.645 2.52857 10.8496 3.37312 10.8496 4.39286V27.7464Z" fill="white" stroke="black" stroke-width="0.8"/>
</svg>
