<svg width="41" height="41" viewBox="0 0 41 41" fill="none" xmlns="http://www.w3.org/2000/svg">
<path opacity="0.8" fill-rule="evenodd" clip-rule="evenodd" d="M20.498 0C18.9736 0 17.4882 0.17199 16.0576 0.488607V20.5137C16.0576 22.9684 18.0589 24.9698 20.5098 24.9698C22.9606 24.9698 24.9659 22.9684 24.9659 20.5137C24.9659 18.0589 23.1248 16.2218 20.8068 16.0693V12.5005C25.087 12.6569 28.5268 16.1944 28.5268 20.5137C28.5268 24.833 24.9268 28.5307 20.5098 28.5307C16.0928 28.5307 12.4927 24.9268 12.4927 20.5137V1.62218C11.9846 1.83716 11.492 2.0756 11.0073 2.32968V20.5137C11.0073 25.7476 15.2797 30.0161 20.5098 30.0161C25.7437 30.0161 30.0122 25.7476 30.0122 20.5137C30.0122 15.2797 25.904 11.1754 20.8068 11.0152V7.45028C27.8662 7.61054 33.5771 13.4152 33.5771 20.5137C33.5771 27.7099 27.7099 33.581 20.5098 33.581C13.3136 33.581 7.44246 27.7099 7.44246 20.5137V4.69454C2.89646 8.45486 0 14.1383 0 20.498C0 31.822 9.17799 41 20.498 41C31.8181 41 41 31.822 41 20.498C41 9.17409 31.822 0 20.498 0Z" fill="white"/>
</svg>
