<svg width="30" height="41" viewBox="0 0 30 41" fill="none" xmlns="http://www.w3.org/2000/svg">
<g opacity="0.8">
<path d="M20.0527 5.57897C18.0001 5.4737 17.6317 4.31581 17.6317 4.31581C17.579 4.10528 17.3685 3.94739 17.1054 3.94739H13.0001C12.7896 3.94739 12.6317 4.05265 12.5264 4.21055C11.7369 5.52633 10.0527 5.4737 10.0001 5.4737C9.8422 5.4737 9.6843 5.52634 9.57904 5.6316C9.47378 5.73686 9.42114 5.89476 9.42114 6.00002C9.47377 6.15791 9.6843 12.7895 14.6843 16.8948C14.7896 17 14.8948 17 15.0001 17C15.1054 17 15.2106 16.9474 15.3159 16.8948C20.3159 12.7895 20.5264 6.36844 20.5264 6.10528C20.5264 5.84212 20.3159 5.57897 20.0527 5.57897ZM15.0527 15.7895C11.5264 12.6316 10.7369 7.94739 10.579 6.36844C11.2632 6.31581 12.5264 6.00002 13.3159 4.89476H16.8422C17.1054 5.42107 17.8422 6.26318 19.5264 6.52633C19.3685 8.00002 18.6317 12.6316 15.0527 15.7895Z" fill="white"/>
<path d="M29.4212 0H0.57905C0.263261 0 0.0527344 0.210526 0.0527344 0.526316V40.4737C0.0527344 40.7895 0.263261 41 0.57905 41H29.4212C29.7369 41 29.9475 40.7895 29.9475 40.4737V0.526316C29.9475 0.210526 29.7369 0 29.4212 0ZM28.8948 39.9474H1.10537V1.05263H28.8948V39.9474Z" fill="white"/>
<path d="M25.0527 19.6842H4.94746C4.63167 19.6842 4.42114 19.8947 4.42114 20.2105C4.42114 20.4737 4.6843 20.7368 4.94746 20.7368H25.0527C25.3685 20.7368 25.579 20.5263 25.579 20.2105C25.579 19.8947 25.3685 19.6842 25.0527 19.6842Z" fill="white"/>
<path d="M25.0527 23.3157H4.94746C4.63167 23.3157 4.42114 23.5262 4.42114 23.842C4.42114 24.1578 4.6843 24.3683 4.94746 24.3683H25.0527C25.3685 24.3683 25.579 24.1578 25.579 23.842C25.579 23.5262 25.3685 23.3157 25.0527 23.3157Z" fill="white"/>
<path d="M25.0527 27.0001H4.94746C4.63167 27.0001 4.42114 27.2106 4.42114 27.5264C4.42114 27.7896 4.6843 28.0528 4.94746 28.0528H25.0527C25.3685 28.0528 25.579 27.8422 25.579 27.5264C25.579 27.2106 25.3685 27.0001 25.0527 27.0001Z" fill="white"/>
<path d="M25.0527 30.6316H4.94746C4.63167 30.6316 4.42114 30.8421 4.42114 31.1579C4.42114 31.4737 4.6843 31.6842 4.94746 31.6842H25.0527C25.3685 31.6842 25.579 31.4737 25.579 31.1579C25.579 30.8421 25.3685 30.6316 25.0527 30.6316Z" fill="white"/>
<path d="M25.0527 34.3158H4.94746C4.63167 34.3158 4.42114 34.5263 4.42114 34.8421C4.42114 35.1053 4.6843 35.3684 4.94746 35.3684H25.0527C25.3685 35.3684 25.579 35.1579 25.579 34.8421C25.579 34.5263 25.3685 34.3158 25.0527 34.3158Z" fill="white"/>
</g>
</svg>
