<svg width="68" height="68" viewBox="0 0 68 68" fill="none" xmlns="http://www.w3.org/2000/svg">
<rect x="0.515821" y="0.515821" width="66.9684" height="66.9684" rx="33.4842" stroke="#33AD43" stroke-width="1.03164"/>
<g clip-path="url(#clip0_1756_171)">
<path fill-rule="evenodd" clip-rule="evenodd" d="M47.6956 39.8257V39.304V21.1304C47.6956 20.8306 47.5766 20.5431 47.3645 20.3311C47.1526 20.1191 46.865 20 46.5652 20H23.4348C23.135 20 22.8474 20.1191 22.6354 20.3311C22.4234 20.5431 22.3043 20.8306 22.3043 21.1304V30H24.5652V22.7826V22.2608H25.087H44.9131H45.4348V22.7826V39.304V39.8257H44.9131H25.087H24.5652V39.304V32H22.3043V39.304V39.8257H21.7826H20.1304C19.8306 39.8257 19.5431 39.9449 19.3311 40.1569C19.1191 40.3688 19 40.6564 19 40.9562C19 41.256 19.1191 41.5436 19.3311 41.7555C19.5431 41.9675 19.8306 42.0866 20.1304 42.0866H33.3478H33.8695V42.6083V44.5083V44.7893L33.6351 44.9439L26.1176 49.9003L26.1114 49.9044L26.105 49.9084C25.894 50.039 25.7319 50.2354 25.6436 50.4674C25.5553 50.6992 25.5457 50.9538 25.6165 51.1916C25.6872 51.4295 25.8342 51.6375 26.0349 51.7836C26.2355 51.9296 26.4787 52.0055 26.7268 51.9997L26.7359 51.9994L26.7451 51.9995C26.9608 52.002 27.1718 51.9368 27.3485 51.813L27.3602 51.8051L33.0602 48.0382L33.8695 47.5033V48.4734V50.8691C33.8695 51.1689 33.9887 51.4565 34.2006 51.6684C34.4127 51.8804 34.7001 51.9995 35 51.9995C35.2998 51.9995 35.5873 51.8804 35.7993 51.6684C36.0114 51.4565 36.1304 51.1689 36.1304 50.8691V48.4734V47.5033L36.9399 48.0382L42.6399 51.8051L42.6514 51.813C42.8282 51.9368 43.0392 52.002 43.2549 51.9995H43.2569C43.4983 51.9976 43.7329 51.9185 43.9262 51.7736C44.1194 51.6287 44.2612 51.4258 44.3307 51.1944C44.4002 50.9632 44.3938 50.7157 44.3125 50.4883C44.2313 50.2615 44.0799 50.0666 43.8801 49.9319L43.8786 49.9308L36.365 44.9769L36.1304 44.8222V44.5413V42.6083V42.0866H36.6522H49.8696C50.1694 42.0866 50.4569 41.9675 50.6689 41.7555C50.8809 41.5436 51 41.256 51 40.9562C51 40.6564 50.8809 40.3688 50.6689 40.1569C50.4569 39.9449 50.1694 39.8257 49.8696 39.8257H48.2174H47.6956ZM30.0375 35.478H30.0408C30.227 35.4771 30.41 35.4301 30.5737 35.3413C30.7374 35.2526 30.8766 35.1248 30.979 34.9693L30.9804 34.9674L33.1777 31.663L33.5322 31.1301L33.9828 31.5847L35.8493 33.4678C35.9679 33.5871 36.1116 33.6784 36.27 33.735C36.4277 33.7916 36.5959 33.8123 36.7627 33.7957C36.9286 33.7772 37.0882 33.7221 37.2304 33.6346C37.3731 33.5466 37.4945 33.4279 37.5857 33.2873L37.5893 33.2817L40.8786 28.348C41.0031 28.1044 41.035 27.8235 40.9681 27.5577C40.8993 27.2846 40.7311 27.047 40.4963 26.8914C40.2616 26.7358 39.9771 26.6735 39.6987 26.7166C39.4275 26.7586 39.1812 26.8978 39.0052 27.1079L36.8223 30.3905L36.4679 30.9234L36.0173 30.4689L34.1504 28.5855C34.0319 28.4664 33.8882 28.3751 33.73 28.3185C33.5724 28.262 33.404 28.2413 33.2373 28.2579C33.0714 28.2764 32.9117 28.3314 32.7696 28.419C32.6269 28.507 32.5055 28.6256 32.4143 28.7663L32.4106 28.7719L29.1084 33.7252L29.1074 33.7266C28.9445 33.9756 28.8863 34.2788 28.9455 34.5704C29.0047 34.8626 29.177 35.1195 29.4248 35.2852L29.4341 35.2916C29.6108 35.4153 29.8218 35.4805 30.0375 35.478Z" fill="#33AD43"/>
<path d="M47.6956 39.8257H47.1798V40.3415H47.6956V39.8257ZM47.3645 20.3311L46.9997 20.6958L46.9998 20.6959L47.3645 20.3311ZM22.6354 20.3311L22.2707 19.9663L22.2707 19.9663L22.6354 20.3311ZM22.3043 30H21.7885V30.5158H22.3043V30ZM24.5652 30V30.5158H25.081V30H24.5652ZM24.5652 22.2608V21.745H24.0494V22.2608H24.5652ZM45.4348 22.2608H45.9506V21.745H45.4348V22.2608ZM45.4348 39.8257V40.3415H45.9506V39.8257H45.4348ZM24.5652 39.8257H24.0494V40.3415H24.5652V39.8257ZM24.5652 32H25.081V31.4842H24.5652V32ZM22.3043 32V31.4842H21.7885V32H22.3043ZM22.3043 39.8257V40.3415H22.8202V39.8257H22.3043ZM19.3311 40.1569L19.6958 40.5217L19.6959 40.5216L19.3311 40.1569ZM19.3311 41.7555L19.6959 41.3908L19.6958 41.3907L19.3311 41.7555ZM33.8695 42.0866H34.3854V41.5708H33.8695V42.0866ZM33.8695 44.7893L34.1535 45.2199L34.3854 45.067V44.7893H33.8695ZM33.6351 44.9439L33.919 45.3745L33.9191 45.3745L33.6351 44.9439ZM26.1176 49.9003L26.3994 50.3324L26.4016 50.331L26.1176 49.9003ZM26.1114 49.9044L26.3845 50.3421L26.3932 50.3365L26.1114 49.9044ZM26.105 49.9084L26.3766 50.347L26.3781 50.346L26.105 49.9084ZM25.6436 50.4674L26.1256 50.6509L26.1256 50.6509L25.6436 50.4674ZM25.6165 51.1916L26.1109 51.0446L26.1109 51.0446L25.6165 51.1916ZM26.0349 51.7836L25.7313 52.2006L25.7314 52.2007L26.0349 51.7836ZM26.7268 51.9997L26.7389 52.5154L26.7444 52.5152L26.7268 51.9997ZM26.7359 51.9994L26.7419 51.4836L26.7301 51.4834L26.7183 51.4839L26.7359 51.9994ZM26.7451 51.9995L26.7391 52.5153H26.7391L26.7451 51.9995ZM27.3485 51.813L27.0582 51.3866L27.0526 51.3905L27.3485 51.813ZM27.3602 51.8051L27.0757 51.3747L27.0699 51.3787L27.3602 51.8051ZM33.0602 48.0382L33.3446 48.4685L33.3446 48.4685L33.0602 48.0382ZM33.8695 47.5033H34.3854V46.5441L33.5851 47.073L33.8695 47.5033ZM34.2006 51.6684L33.8359 52.0331H33.8359L34.2006 51.6684ZM35.7993 51.6684L35.4347 51.3036L35.4346 51.3036L35.7993 51.6684ZM36.1304 47.5033L36.4148 47.073L35.6146 46.5442V47.5033H36.1304ZM36.9399 48.0382L37.2243 47.6078L37.2242 47.6078L36.9399 48.0382ZM42.6399 51.8051L42.9313 51.3794L42.9243 51.3747L42.6399 51.8051ZM42.6514 51.813L42.9473 51.3904L42.9428 51.3874L42.6514 51.813ZM43.2549 51.9995V51.4836L43.2489 51.4837L43.2549 51.9995ZM43.2569 51.9995V52.5153L43.2609 52.5153L43.2569 51.9995ZM43.9262 51.7736L43.6168 51.3608L43.6167 51.3609L43.9262 51.7736ZM44.3307 51.1944L43.8367 51.046L43.8367 51.046L44.3307 51.1944ZM44.3125 50.4883L43.8268 50.6621L43.8268 50.6622L44.3125 50.4883ZM43.8801 49.9319L44.1686 49.5042L44.166 49.5025L43.8801 49.9319ZM43.8786 49.9308L44.1645 49.5015L44.1625 49.5002L43.8786 49.9308ZM36.365 44.9769L36.6489 44.5462L36.6489 44.5462L36.365 44.9769ZM36.1304 44.8222H35.6146V45.1L35.8465 45.2529L36.1304 44.8222ZM36.1304 42.0866V41.5708H35.6146V42.0866H36.1304ZM50.6689 41.7555L50.3043 41.3907L50.3042 41.3908L50.6689 41.7555ZM50.6689 40.1569L50.3042 40.5217L50.3043 40.5218L50.6689 40.1569ZM30.0408 35.478V35.9939L30.0434 35.9938L30.0408 35.478ZM30.0375 35.478V34.9622L30.0315 34.9622L30.0375 35.478ZM30.5737 35.3413L30.328 34.8878L30.3278 34.8879L30.5737 35.3413ZM30.979 34.9693L30.5534 34.6778L30.5482 34.6857L30.979 34.9693ZM30.9804 34.9674L31.406 35.2589L31.4099 35.253L30.9804 34.9674ZM33.1777 31.663L32.7482 31.3774L32.7482 31.3774L33.1777 31.663ZM33.5322 31.1301L33.8985 30.767L33.4531 30.3177L33.1027 30.8445L33.5322 31.1301ZM33.9828 31.5847L34.3491 31.2215L34.3491 31.2215L33.9828 31.5847ZM35.8493 33.4678L35.483 33.8309L35.4835 33.8314L35.8493 33.4678ZM36.27 33.735L36.444 33.2495L36.4437 33.2494L36.27 33.735ZM36.7627 33.7957L36.8138 34.309L36.8197 34.3083L36.7627 33.7957ZM37.2304 33.6346L37.5009 34.0737L37.501 34.0737L37.2304 33.6346ZM37.5857 33.2873L38.0185 33.5679L38.0185 33.5678L37.5857 33.2873ZM37.5893 33.2817L37.1601 32.9955L37.1565 33.0011L37.5893 33.2817ZM40.8786 28.348L41.3078 28.6341L41.3243 28.6093L41.3379 28.5827L40.8786 28.348ZM40.9681 27.5577L41.4683 27.4318L41.4683 27.4318L40.9681 27.5577ZM40.4963 26.8914L40.2114 27.3214L40.2114 27.3214L40.4963 26.8914ZM39.6987 26.7166L39.6197 26.2069L39.6197 26.2069L39.6987 26.7166ZM39.0052 27.1079L38.6098 26.7767L38.5915 26.7985L38.5757 26.8223L39.0052 27.1079ZM36.8223 30.3905L36.3927 30.1049L36.3927 30.1049L36.8223 30.3905ZM36.4679 30.9234L36.1016 31.2866L36.547 31.736L36.8974 31.2091L36.4679 30.9234ZM36.0173 30.4689L35.651 30.832L35.651 30.832L36.0173 30.4689ZM34.1504 28.5855L34.5168 28.2224L34.5161 28.2217L34.1504 28.5855ZM33.73 28.3185L33.9039 27.8329L33.9039 27.8329L33.73 28.3185ZM33.2373 28.2579L33.1864 27.7445L33.18 27.7452L33.2373 28.2579ZM32.7696 28.419L33.0402 28.8582L33.0403 28.8581L32.7696 28.419ZM32.4143 28.7663L32.8457 29.0491L32.8471 29.0469L32.4143 28.7663ZM32.4106 28.7719L32.8398 29.058L32.842 29.0547L32.4106 28.7719ZM29.1084 33.7252L29.5324 34.019L29.5375 34.0114L29.1084 33.7252ZM29.1074 33.7266L28.6832 33.4328L28.6758 33.4442L29.1074 33.7266ZM28.9455 34.5704L29.451 34.4679L29.451 34.4679L28.9455 34.5704ZM29.4248 35.2852L29.7165 34.8597L29.7115 34.8564L29.4248 35.2852ZM29.4341 35.2916L29.7301 34.8691L29.7257 34.8661L29.4341 35.2916ZM47.1798 39.304V39.8257H48.2114V39.304H47.1798ZM47.1798 21.1304V39.304H48.2114V21.1304H47.1798ZM46.9998 20.6959C47.1151 20.8111 47.1798 20.9674 47.1798 21.1304H48.2114C48.2114 20.6938 48.0381 20.2751 47.7292 19.9663L46.9998 20.6959ZM46.5652 20.5158C46.7282 20.5158 46.8846 20.5806 46.9997 20.6958L47.7293 19.9664C47.4206 19.6576 47.0018 19.4842 46.5652 19.4842V20.5158ZM23.4348 20.5158H46.5652V19.4842H23.4348V20.5158ZM23.0002 20.6958C23.1154 20.5806 23.2718 20.5158 23.4348 20.5158V19.4842C22.9982 19.4842 22.5794 19.6576 22.2707 19.9663L23.0002 20.6958ZM22.8202 21.1304C22.8202 20.9674 22.8849 20.8111 23.0002 20.6958L22.2707 19.9663C21.962 20.2751 21.7885 20.6938 21.7885 21.1304H22.8202ZM22.8202 30V21.1304H21.7885V30H22.8202ZM22.3043 30.5158H24.5652V29.4842H22.3043V30.5158ZM24.0494 22.7826V30H25.081V22.7826H24.0494ZM24.0494 22.2608V22.7826H25.081V22.2608H24.0494ZM25.087 21.745H24.5652V22.7766H25.087V21.745ZM44.9131 21.745H25.087V22.7766H44.9131V21.745ZM45.4348 21.745H44.9131V22.7766H45.4348V21.745ZM45.9506 22.7826V22.2608H44.919V22.7826H45.9506ZM45.9506 39.304V22.7826H44.919V39.304H45.9506ZM45.9506 39.8257V39.304H44.919V39.8257H45.9506ZM44.9131 40.3415H45.4348V39.3099H44.9131V40.3415ZM25.087 40.3415H44.9131V39.3099H25.087V40.3415ZM24.5652 40.3415H25.087V39.3099H24.5652V40.3415ZM24.0494 39.304V39.8257H25.081V39.304H24.0494ZM24.0494 32V39.304H25.081V32H24.0494ZM24.5652 31.4842H22.3043V32.5158H24.5652V31.4842ZM22.8202 39.304V32H21.7885V39.304H22.8202ZM22.8202 39.8257V39.304H21.7885V39.8257H22.8202ZM21.7826 40.3415H22.3043V39.3099H21.7826V40.3415ZM20.1304 40.3415H21.7826V39.3099H20.1304V40.3415ZM19.6959 40.5216C19.8112 40.4063 19.9675 40.3415 20.1304 40.3415V39.3099C19.6937 39.3099 19.275 39.4835 18.9663 39.7922L19.6959 40.5216ZM19.5158 40.9562C19.5158 40.7932 19.5806 40.6369 19.6958 40.5217L18.9664 39.7921C18.6576 40.1008 18.4842 40.5197 18.4842 40.9562H19.5158ZM19.6958 41.3907C19.5806 41.2756 19.5158 41.1192 19.5158 40.9562H18.4842C18.4842 41.3928 18.6576 41.8116 18.9664 42.1203L19.6958 41.3907ZM20.1304 41.5708C19.9674 41.5708 19.8111 41.506 19.6959 41.3908L18.9663 42.1202C19.2751 42.429 19.6939 42.6024 20.1304 42.6024V41.5708ZM33.3478 41.5708H20.1304V42.6024H33.3478V41.5708ZM33.8695 41.5708H33.3478V42.6024H33.8695V41.5708ZM34.3854 42.6083V42.0866H33.3537V42.6083H34.3854ZM34.3854 44.5083V42.6083H33.3537V44.5083H34.3854ZM34.3854 44.7893V44.5083H33.3537V44.7893H34.3854ZM33.9191 45.3745L34.1535 45.2199L33.5855 44.3587L33.3511 44.5133L33.9191 45.3745ZM26.4016 50.331L33.919 45.3745L33.3511 44.5133L25.8337 49.4697L26.4016 50.331ZM26.3932 50.3365L26.3994 50.3324L25.8358 49.4683L25.8296 49.4724L26.3932 50.3365ZM26.3781 50.346L26.3845 50.342L25.8383 49.4668L25.832 49.4708L26.3781 50.346ZM26.1256 50.6509C26.1736 50.5248 26.2618 50.418 26.3766 50.347L25.8335 49.4698C25.5263 49.66 25.2901 49.946 25.1615 50.2839L26.1256 50.6509ZM26.1109 51.0446C26.0724 50.9153 26.0776 50.7769 26.1256 50.6509L25.1615 50.2838C25.0329 50.6215 25.019 50.9923 25.122 51.3387L26.1109 51.0446ZM26.3385 51.3666C26.2293 51.2871 26.1493 51.174 26.1109 51.0446L25.122 51.3386C25.225 51.6851 25.4391 51.9879 25.7313 52.2006L26.3385 51.3666ZM26.7146 51.484C26.5797 51.4872 26.4475 51.4459 26.3383 51.3665L25.7314 52.2007C26.0236 52.4132 26.3776 52.5239 26.7389 52.5154L26.7146 51.484ZM26.7183 51.4839L26.7092 51.4842L26.7444 52.5152L26.7536 52.5149L26.7183 51.4839ZM26.7511 51.4837L26.7419 51.4836L26.7299 52.5152L26.7391 52.5153L26.7511 51.4837ZM27.0526 51.3905C26.9643 51.4524 26.8588 51.4849 26.7511 51.4837L26.7391 52.5153C27.0627 52.519 27.3794 52.4212 27.6444 52.2355L27.0526 51.3905ZM27.0699 51.3787L27.0582 51.3866L27.6388 52.2394L27.6505 52.2315L27.0699 51.3787ZM32.7758 47.6078L27.0758 51.3747L27.6446 52.2354L33.3446 48.4685L32.7758 47.6078ZM33.5851 47.073L32.7758 47.6079L33.3446 48.4685L34.1539 47.9336L33.5851 47.073ZM34.3854 48.4734V47.5033H33.3537V48.4734H34.3854ZM34.3854 50.8691V48.4734H33.3537V50.8691H34.3854ZM34.5654 51.3036C34.4501 51.1884 34.3854 51.032 34.3854 50.8691H33.3537C33.3537 51.3057 33.5273 51.7245 33.8359 52.0331L34.5654 51.3036ZM35 51.4837C34.8369 51.4837 34.6806 51.4189 34.5654 51.3036L33.8359 52.0331C34.1447 52.3419 34.5634 52.5153 35 52.5153V51.4837ZM35.4346 51.3036C35.3193 51.4189 35.163 51.4837 35 51.4837V52.5153C35.4366 52.5153 35.8553 52.3419 36.1641 52.0331L35.4346 51.3036ZM35.6146 50.8691C35.6146 51.0322 35.5499 51.1885 35.4347 51.3036L36.164 52.0332C36.4729 51.7245 36.6463 51.3056 36.6463 50.8691H35.6146ZM35.6146 48.4734V50.8691H36.6463V48.4734H35.6146ZM35.6146 47.5033V48.4734H36.6463V47.5033H35.6146ZM37.2242 47.6078L36.4148 47.073L35.8461 47.9337L36.6555 48.4685L37.2242 47.6078ZM42.9243 51.3747L37.2243 47.6078L36.6555 48.4685L42.3555 52.2354L42.9243 51.3747ZM42.9428 51.3874L42.9313 51.3794L42.3485 52.2307L42.3601 52.2386L42.9428 51.3874ZM43.2489 51.4837C43.1412 51.4849 43.0357 51.4524 42.9473 51.3905L42.3556 52.2356C42.6207 52.4211 42.9372 52.519 43.2609 52.5153L43.2489 51.4837ZM43.2569 51.4837H43.2549V52.5153H43.2569V51.4837ZM43.6167 51.3609C43.5117 51.4396 43.3842 51.4827 43.2529 51.4837L43.2609 52.5153C43.6124 52.5125 43.9541 52.3974 44.2356 52.1862L43.6167 51.3609ZM43.8367 51.046C43.7989 51.1717 43.7219 51.2821 43.6168 51.3608L44.2355 52.1863C44.517 51.9754 44.7235 51.6798 44.8247 51.3429L43.8367 51.046ZM43.8268 50.6622C43.871 50.7857 43.8745 50.9203 43.8367 51.046L44.8247 51.3429C44.9259 51.0062 44.9167 50.6457 44.7981 50.3145L43.8268 50.6622ZM43.5917 50.3595C43.7003 50.4327 43.7826 50.5387 43.8268 50.6621L44.7981 50.3145C44.6799 49.9843 44.4594 49.7004 44.1686 49.5042L43.5917 50.3595ZM43.5927 50.3602L43.5943 50.3612L44.166 49.5025L44.1645 49.5015L43.5927 50.3602ZM36.0811 45.4075L43.5946 50.3615L44.1625 49.5002L36.6489 44.5462L36.0811 45.4075ZM35.8465 45.2529L36.0811 45.4075L36.6489 44.5462L36.4143 44.3916L35.8465 45.2529ZM35.6146 44.5413V44.8222H36.6463V44.5413H35.6146ZM35.6146 42.6083V44.5413H36.6463V42.6083H35.6146ZM35.6146 42.0866V42.6083H36.6463V42.0866H35.6146ZM36.6522 41.5708H36.1304V42.6024H36.6522V41.5708ZM49.8696 41.5708H36.6522V42.6024H49.8696V41.5708ZM50.3042 41.3908C50.1889 41.5061 50.0326 41.5708 49.8696 41.5708V42.6024C50.3062 42.6024 50.7249 42.429 51.0336 42.1202L50.3042 41.3908ZM50.4842 40.9562C50.4842 41.1193 50.4194 41.2756 50.3043 41.3907L51.0336 42.1203C51.3425 41.8116 51.5158 41.3927 51.5158 40.9562H50.4842ZM50.3043 40.5218C50.4194 40.6369 50.4842 40.7932 50.4842 40.9562H51.5158C51.5158 40.5197 51.3425 40.1008 51.0336 39.7921L50.3043 40.5218ZM49.8696 40.3415C50.0325 40.3415 50.1888 40.4063 50.3042 40.5217L51.0336 39.7922C50.725 39.4835 50.3063 39.3099 49.8696 39.3099V40.3415ZM48.2174 40.3415H49.8696V39.3099H48.2174V40.3415ZM47.6956 40.3415H48.2174V39.3099H47.6956V40.3415ZM30.0408 34.9622H30.0375V35.9939H30.0408V34.9622ZM30.3278 34.8879C30.2387 34.9362 30.1393 34.9617 30.0382 34.9622L30.0434 35.9938C30.3146 35.9925 30.5812 35.9241 30.8196 35.7948L30.3278 34.8879ZM30.5482 34.6857C30.4925 34.7702 30.4169 34.8397 30.328 34.8878L30.8194 35.7949C31.058 35.6656 31.2608 35.4794 31.4098 35.253L30.5482 34.6857ZM30.5548 34.6759L30.5534 34.6779L31.4046 35.2608L31.4059 35.2589L30.5548 34.6759ZM32.7482 31.3774L30.5508 34.6817L31.4099 35.253L33.6072 31.9487L32.7482 31.3774ZM33.1027 30.8445L32.7482 31.3774L33.6072 31.9487L33.9617 31.4158L33.1027 30.8445ZM34.3491 31.2215L33.8985 30.767L33.1658 31.4933L33.6164 31.9478L34.3491 31.2215ZM36.2157 33.1047L34.3491 31.2215L33.6164 31.9478L35.483 33.8309L36.2157 33.1047ZM36.4437 33.2494C36.3576 33.2186 36.2796 33.169 36.2152 33.1042L35.4835 33.8314C35.6562 34.0052 35.8655 34.1382 36.0962 34.2207L36.4437 33.2494ZM36.7116 33.2824C36.6209 33.2914 36.5296 33.2802 36.444 33.2495L36.0959 34.2206C36.3258 34.303 36.5709 34.3331 36.8138 34.3089L36.7116 33.2824ZM36.9598 33.1954C36.8823 33.2431 36.7955 33.273 36.7056 33.283L36.8197 34.3083C37.0617 34.2814 37.2942 34.2011 37.5009 34.0737L36.9598 33.1954ZM37.1529 33.0067C37.1033 33.0831 37.0373 33.1476 36.9598 33.1954L37.501 34.0737C37.7089 33.9455 37.8857 33.7727 38.0185 33.5679L37.1529 33.0067ZM37.1565 33.0011L37.1528 33.0067L38.0185 33.5678L38.0222 33.5622L37.1565 33.0011ZM40.4494 28.0619L37.1601 32.9955L38.0185 33.5678L41.3078 28.6341L40.4494 28.0619ZM40.4679 27.6836C40.5043 27.8282 40.4869 27.9809 40.4192 28.1133L41.3379 28.5827C41.5193 28.2278 41.5657 27.8188 41.4683 27.4318L40.4679 27.6836ZM40.2114 27.3214C40.339 27.4059 40.4305 27.5351 40.4679 27.6837L41.4683 27.4318C41.3682 27.0341 41.1232 26.688 40.7813 26.4614L40.2114 27.3214ZM39.7777 27.2263C39.9291 27.2029 40.0838 27.2368 40.2114 27.3214L40.7813 26.4614C40.4393 26.2348 40.0251 26.144 39.6197 26.2069L39.7777 27.2263ZM39.4007 27.4391C39.4964 27.3248 39.6303 27.2492 39.7777 27.2263L39.6197 26.2069C39.2247 26.2681 38.8659 26.4708 38.6098 26.7767L39.4007 27.4391ZM37.2518 30.6762L39.4347 27.3935L38.5757 26.8223L36.3927 30.1049L37.2518 30.6762ZM36.8974 31.2091L37.2518 30.6762L36.3927 30.1049L36.0384 30.6378L36.8974 31.2091ZM35.651 30.832L36.1016 31.2866L36.8342 30.5603L36.3837 30.1058L35.651 30.832ZM33.7841 28.9486L35.651 30.832L36.3837 30.1058L34.5168 28.2224L33.7841 28.9486ZM33.5561 28.8041C33.6422 28.8349 33.7204 28.8846 33.7848 28.9493L34.5161 28.2217C34.3434 28.0481 34.1342 27.9153 33.9039 27.8329L33.5561 28.8041ZM33.2882 28.7712C33.379 28.7622 33.4705 28.7734 33.5561 28.8041L33.9039 27.8329C33.6742 27.7506 33.4291 27.7205 33.1864 27.7446L33.2882 28.7712ZM33.0403 28.8581C33.1176 28.8105 33.2044 28.7806 33.2946 28.7705L33.18 27.7452C32.9384 27.7722 32.7059 27.8524 32.499 27.9799L33.0403 28.8581ZM32.8471 29.0469C32.8967 28.9704 32.9627 28.906 33.0402 28.8582L32.499 27.9799C32.2911 28.108 32.1143 28.2808 31.9815 28.4857L32.8471 29.0469ZM32.842 29.0547L32.8457 29.0491L31.9829 28.4835L31.9793 28.4891L32.842 29.0547ZM29.5375 34.0114L32.8398 29.058L31.9815 28.4858L28.6792 33.4391L29.5375 34.0114ZM29.5314 34.0203L29.5324 34.0189L28.6843 33.4315L28.6834 33.4329L29.5314 34.0203ZM29.451 34.4679C29.4188 34.3093 29.4505 34.1444 29.5391 34.009L28.6758 33.4442C28.4386 33.8067 28.3538 34.2483 28.4399 34.673L29.451 34.4679ZM29.7115 34.8564C29.5769 34.7663 29.4832 34.6267 29.451 34.4679L28.4399 34.673C28.5263 35.0985 28.7772 35.4727 29.1381 35.714L29.7115 34.8564ZM29.7257 34.8661L29.7164 34.8597L29.1332 35.7107L29.1425 35.7171L29.7257 34.8661ZM30.0315 34.9622C29.9237 34.9635 29.8183 34.9309 29.7301 34.8691L29.1382 35.714C29.4032 35.8997 29.7198 35.9976 30.0435 35.9938L30.0315 34.9622Z" fill="#252525"/>
</g>
<defs>
<clipPath id="clip0_1756_171">
<rect width="33" height="33" fill="white" transform="translate(18 19)"/>
</clipPath>
</defs>
</svg>
