<svg width="68" height="68" viewBox="0 0 68 68" fill="none" xmlns="http://www.w3.org/2000/svg">
<rect x="0.515821" y="0.515821" width="66.9684" height="66.9684" rx="33.4842" stroke="#33AD43" stroke-width="1.03164"/>
<g clip-path="url(#clip0_1756_143)">
<path fill-rule="evenodd" clip-rule="evenodd" d="M24.5999 46.4921L24.6023 46.4885L27.4032 42.2822L27.5568 42.0514H27.8327H39.1673H39.4432L39.5969 42.2822L42.3977 46.4885L42.4001 46.4921C42.5016 46.6474 42.6397 46.775 42.8019 46.8636C42.9639 46.9521 43.1451 46.9989 43.3293 47H49.8793C50.1766 47 50.4617 46.8811 50.6718 46.6694C50.882 46.4578 51 46.1707 51 45.8714V24.4277C51 23.2534 50.5369 22.1272 49.7123 21.2968C48.8878 20.4665 47.7695 20 46.6034 20H20.3966C19.2305 20 18.1122 20.4665 17.2877 21.2968C16.4632 22.1272 16 23.2534 16 24.4277V45.8714C16 46.1707 16.1181 46.4578 16.3282 46.6694C16.5384 46.8811 16.8235 47 17.1207 47H23.6708C23.855 46.9989 24.0361 46.9521 24.1981 46.8636C24.3604 46.775 24.4984 46.6474 24.5999 46.4921ZM48.7587 44.7427H48.2414H44.2121H43.9392L43.7852 44.5159L40.9843 40.3922L40.9731 40.3756L40.9631 40.3582C40.8683 40.1925 40.7332 40.0537 40.5704 39.955C40.4102 39.8577 40.2283 39.8025 40.0415 39.7942H37V42H35V39.7942H33.4955H26.9496C26.7655 39.7954 26.5845 39.8423 26.4226 39.9306C26.2603 40.0192 26.1223 40.1468 26.0208 40.302L26.0185 40.3057L23.2175 44.512L23.0639 44.7427H22.7879H18.7586H18.2414V44.2218V35.9743V35.4534H18.7586H48.2414H48.7587V35.9743V44.2218V44.7427ZM24.7931 33.1961V32.6752V31.0257C24.7931 30.45 25.0202 29.898 25.4243 29.491C25.8285 29.084 26.3767 28.8553 26.9482 28.8553H30.2241C30.7957 28.8553 31.344 29.084 31.7481 29.491C32.1523 29.898 32.3793 30.45 32.3793 31.0257V32.6752V33.1961H31.862H25.3103H24.7931ZM34.6207 33.1961V32.6752V31.0257C34.6207 30.45 34.8478 29.898 35.2519 29.491C35.6561 29.084 36.2043 28.8553 36.7758 28.8553H40.0517C40.6233 28.8553 41.1716 29.084 41.5757 29.491C41.9799 29.898 42.2069 30.45 42.2069 31.0257V32.6752V33.1961H41.6896H35.1379H34.6207ZM48.7587 33.1961H48.2414H44.9655H44.4483V32.6752V31.0257C44.4483 29.8514 43.9851 28.7253 43.1606 27.8949C42.3361 27.0646 41.2178 26.5981 40.0517 26.5981H36.7774C35.6935 26.605 34.6501 27.0149 33.8479 27.7493L33.5 28.0677L33.1521 27.7493C32.3499 27.0149 31.3066 26.605 30.2226 26.5981H26.9482C25.7823 26.5981 24.664 27.0646 23.8395 27.8949C23.0149 28.7253 22.5517 29.8514 22.5517 31.0257V32.6752V33.1961H22.0345H18.7586H18.2414V32.6752V24.4277C18.2414 23.852 18.4684 23.3 18.8726 22.8929C19.2768 22.4859 19.825 22.2572 20.3966 22.2572H46.6034C47.1751 22.2572 47.7233 22.4859 48.1274 22.8929C48.5316 23.3 48.7587 23.852 48.7587 24.4277V32.6752V33.1961Z" fill="#33AD43"/>
<path d="M24.6023 46.4885L24.173 46.2026L24.1709 46.2057L24.6023 46.4885ZM24.5999 46.4921L24.1685 46.2094L24.1682 46.2098L24.5999 46.4921ZM27.4032 42.2822L27.8326 42.5681L27.8326 42.568L27.4032 42.2822ZM27.5568 42.0514V41.5356H27.2806L27.1275 41.7656L27.5568 42.0514ZM39.4432 42.0514L39.8724 41.7655L39.7193 41.5356H39.4432V42.0514ZM39.5969 42.2822L40.0262 41.9963L40.0262 41.9962L39.5969 42.2822ZM42.3977 46.4885L42.8299 46.2068L42.8271 46.2026L42.3977 46.4885ZM42.4001 46.4921L41.968 46.7737L41.9684 46.7744L42.4001 46.4921ZM42.8019 46.8636L42.5545 47.3163L42.5547 47.3164L42.8019 46.8636ZM43.3293 47L43.3261 47.5158H43.3293V47ZM50.6718 46.6694L50.3058 46.3059L50.3056 46.3061L50.6718 46.6694ZM49.7123 21.2968L49.3462 21.6603L49.3463 21.6603L49.7123 21.2968ZM17.2877 21.2968L16.9217 20.9334L16.9217 20.9334L17.2877 21.2968ZM16.3282 46.6694L16.6943 46.306L16.6942 46.3059L16.3282 46.6694ZM23.6708 47V47.5158L23.674 47.5158L23.6708 47ZM24.1981 46.8636L24.4453 47.3163L24.4454 47.3163L24.1981 46.8636ZM48.7587 44.7427V45.2585H49.2745V44.7427H48.7587ZM43.9392 44.7427L43.5125 45.0325L43.666 45.2585H43.9392V44.7427ZM43.7852 44.5159L44.2119 44.2261L44.2119 44.2261L43.7852 44.5159ZM40.9843 40.3922L41.411 40.1023L41.4107 40.1019L40.9843 40.3922ZM40.9731 40.3756L40.5251 40.6313L40.5352 40.649L40.5467 40.6659L40.9731 40.3756ZM40.9631 40.3582L41.4111 40.1025L41.4108 40.102L40.9631 40.3582ZM40.5704 39.955L40.3027 40.3959L40.303 40.3961L40.5704 39.955ZM40.0415 39.7942L40.0645 39.2789L40.053 39.2784H40.0415V39.7942ZM37 39.7942V39.2784H36.4842V39.7942H37ZM37 42V42.5158H37.5158V42H37ZM35 42H34.4842V42.5158H35V42ZM35 39.7942H35.5158V39.2784H35V39.7942ZM26.9496 39.7942V39.2783L26.9461 39.2784L26.9496 39.7942ZM26.4226 39.9306L26.6697 40.3835L26.6697 40.3834L26.4226 39.9306ZM26.0208 40.302L25.5891 40.0198L25.5888 40.0202L26.0208 40.302ZM26.0185 40.3057L26.4478 40.5916L26.4504 40.5876L26.0185 40.3057ZM23.2175 44.512L23.6469 44.7979L23.6469 44.7979L23.2175 44.512ZM23.0639 44.7427V45.2585H23.3401L23.4932 45.0286L23.0639 44.7427ZM18.2414 44.7427H17.7256V45.2585H18.2414V44.7427ZM18.2414 35.4534V34.9376H17.7256V35.4534H18.2414ZM48.7587 35.4534H49.2745V34.9376H48.7587V35.4534ZM24.7931 33.1961H24.2773V33.712H24.7931V33.1961ZM25.4243 29.491L25.0583 29.1275L25.0583 29.1275L25.4243 29.491ZM31.7481 29.491L32.1142 29.1275L32.1142 29.1275L31.7481 29.491ZM32.3793 33.1961V33.712H32.8951V33.1961H32.3793ZM34.6207 33.1961H34.1049V33.712H34.6207V33.1961ZM35.2519 29.491L34.8859 29.1275L34.8859 29.1275L35.2519 29.491ZM41.5757 29.491L41.9418 29.1275L41.9417 29.1275L41.5757 29.491ZM42.2069 33.1961V33.712H42.7227V33.1961H42.2069ZM48.7587 33.1961V33.712H49.2745V33.1961H48.7587ZM44.4483 33.1961H43.9325V33.712H44.4483V33.1961ZM36.7774 26.5981V26.0822L36.7741 26.0823L36.7774 26.5981ZM33.8479 27.7493L34.1962 28.1297L34.1962 28.1297L33.8479 27.7493ZM33.5 28.0677L33.1517 28.4482L33.5 28.767L33.8483 28.4482L33.5 28.0677ZM33.1521 27.7493L33.5004 27.3688L33.5004 27.3688L33.1521 27.7493ZM30.2226 26.5981L30.2259 26.0823H30.2226V26.5981ZM22.5517 33.1961V33.712H23.0676V33.1961H22.5517ZM18.2414 33.1961H17.7256V33.712H18.2414V33.1961ZM48.1274 22.8929L47.7614 23.2564L47.7614 23.2564L48.1274 22.8929ZM24.1709 46.2057L24.1685 46.2094L25.0314 46.7749L25.0337 46.7712L24.1709 46.2057ZM26.9739 41.9963L24.173 46.2026L25.0317 46.7744L27.8326 42.5681L26.9739 41.9963ZM27.1275 41.7656L26.9738 41.9964L27.8326 42.568L27.9862 42.3373L27.1275 41.7656ZM27.8327 41.5356H27.5568V42.5673H27.8327V41.5356ZM39.1673 41.5356H27.8327V42.5673H39.1673V41.5356ZM39.4432 41.5356H39.1673V42.5673H39.4432V41.5356ZM40.0262 41.9962L39.8724 41.7655L39.0139 42.3374L39.1676 42.5682L40.0262 41.9962ZM42.8271 46.2026L40.0262 41.9963L39.1675 42.5681L41.9684 46.7744L42.8271 46.2026ZM42.8323 46.2105L42.8299 46.2069L41.9656 46.7701L41.968 46.7737L42.8323 46.2105ZM43.0493 46.411C42.9618 46.3631 42.8869 46.2941 42.8319 46.2099L41.9684 46.7744C42.1163 47.0006 42.3177 47.1868 42.5545 47.3163L43.0493 46.411ZM43.3325 46.4842C43.2335 46.4836 43.1362 46.4585 43.0491 46.4109L42.5547 47.3164C42.7916 47.4457 43.0566 47.5141 43.3261 47.5158L43.3325 46.4842ZM49.8793 46.4842H43.3293V47.5158H49.8793V46.4842ZM50.3056 46.3061C50.1921 46.4205 50.0386 46.4842 49.8793 46.4842V47.5158C50.3145 47.5158 50.7312 47.3418 51.0379 47.0328L50.3056 46.3061ZM50.4842 45.8714C50.4842 46.0352 50.4196 46.1914 50.3058 46.3059L51.0377 47.033C51.3444 46.7243 51.5158 46.3063 51.5158 45.8714H50.4842ZM50.4842 24.4277V45.8714H51.5158V24.4277H50.4842ZM49.3463 21.6603C50.0745 22.3936 50.4842 23.389 50.4842 24.4277H51.5158C51.5158 23.1178 50.9992 21.8607 50.0783 20.9334L49.3463 21.6603ZM46.6034 20.5158C47.6315 20.5158 48.6182 20.9271 49.3462 21.6603L50.0783 20.9334C49.1574 20.0059 47.9075 19.4842 46.6034 19.4842V20.5158ZM20.3966 20.5158H46.6034V19.4842H20.3966V20.5158ZM17.6537 21.6603C18.3818 20.9271 19.3685 20.5158 20.3966 20.5158V19.4842C19.0925 19.4842 17.8427 20.0059 16.9217 20.9334L17.6537 21.6603ZM16.5158 24.4277C16.5158 23.389 16.9256 22.3936 17.6537 21.6603L16.9217 20.9334C16.0009 21.8607 15.4842 23.1177 15.4842 24.4277H16.5158ZM16.5158 45.8714V24.4277H15.4842V45.8714H16.5158ZM16.6942 46.3059C16.5804 46.1914 16.5158 46.0351 16.5158 45.8714H15.4842C15.4842 46.3063 15.6557 46.7243 15.9623 47.0329L16.6942 46.3059ZM17.1207 46.4842C16.9614 46.4842 16.808 46.4205 16.6943 46.306L15.9622 47.0329C16.2689 47.3417 16.6855 47.5158 17.1207 47.5158V46.4842ZM23.6708 46.4842H17.1207V47.5158H23.6708V46.4842ZM23.9509 46.4109C23.8638 46.4585 23.7665 46.4836 23.6676 46.4842L23.674 47.5158C23.9435 47.5141 24.2085 47.4457 24.4453 47.3163L23.9509 46.4109ZM24.1682 46.2098C24.1131 46.2942 24.0383 46.3632 23.9508 46.411L24.4454 47.3163C24.6825 47.1868 24.8837 47.0005 25.0316 46.7745L24.1682 46.2098ZM48.2414 45.2585H48.7587V44.2269H48.2414V45.2585ZM44.2121 45.2585H48.2414V44.2269H44.2121V45.2585ZM43.9392 45.2585H44.2121V44.2269H43.9392V45.2585ZM43.3585 44.8057L43.5125 45.0325L44.3659 44.4529L44.2119 44.2261L43.3585 44.8057ZM40.5576 40.682L43.3585 44.8057L44.2119 44.2261L41.411 40.1023L40.5576 40.682ZM40.5467 40.6659L40.5579 40.6824L41.4107 40.1019L41.3994 40.0853L40.5467 40.6659ZM40.5151 40.6139L40.5251 40.6313L41.4211 40.1199L41.4111 40.1025L40.5151 40.6139ZM40.303 40.3961C40.3906 40.4492 40.4638 40.5242 40.5154 40.6144L41.4108 40.102C41.2727 39.8607 41.0757 39.6582 40.8379 39.5139L40.303 40.3961ZM40.0185 40.3095C40.1188 40.314 40.2165 40.3436 40.3027 40.3959L40.8382 39.5141C40.6039 39.3718 40.3378 39.2911 40.0645 39.2789L40.0185 40.3095ZM37 40.31H40.0415V39.2784H37V40.31ZM36.4842 39.7942V42H37.5158V39.7942H36.4842ZM37 41.4842H35V42.5158H37V41.4842ZM35.5158 42V39.7942H34.4842V42H35.5158ZM33.4955 40.31H35V39.2784H33.4955V40.31ZM26.9496 40.31H33.4955V39.2784H26.9496V40.31ZM26.6697 40.3834C26.757 40.3358 26.8543 40.3107 26.9531 40.31L26.9461 39.2784C26.6766 39.2802 26.412 39.3488 26.1755 39.4779L26.6697 40.3834ZM26.4526 40.5843C26.5077 40.5 26.5824 40.4311 26.6697 40.3835L26.1756 39.4778C25.9382 39.6073 25.7369 39.7937 25.5891 40.0198L26.4526 40.5843ZM26.4504 40.5876L26.4528 40.5839L25.5888 40.0202L25.5865 40.0238L26.4504 40.5876ZM23.6469 44.7979L26.4478 40.5916L25.5891 40.0198L22.7882 44.2261L23.6469 44.7979ZM23.4932 45.0286L23.6469 44.7979L22.7882 44.2261L22.6345 44.4568L23.4932 45.0286ZM22.7879 45.2585H23.0639V44.2269H22.7879V45.2585ZM18.7586 45.2585H22.7879V44.2269H18.7586V45.2585ZM18.2414 45.2585H18.7586V44.2269H18.2414V45.2585ZM17.7256 44.2218V44.7427H18.7572V44.2218H17.7256ZM17.7256 35.9743V44.2218H18.7572V35.9743H17.7256ZM17.7256 35.4534V35.9743H18.7572V35.4534H17.7256ZM18.7586 34.9376H18.2414V35.9692H18.7586V34.9376ZM48.2414 34.9376H18.7586V35.9692H48.2414V34.9376ZM48.7587 34.9376H48.2414V35.9692H48.7587V34.9376ZM49.2745 35.9743V35.4534H48.2429V35.9743H49.2745ZM49.2745 44.2218V35.9743H48.2429V44.2218H49.2745ZM49.2745 44.7427V44.2218H48.2429V44.7427H49.2745ZM24.2773 32.6752V33.1961H25.3089V32.6752H24.2773ZM24.2773 31.0257V32.6752H25.3089V31.0257H24.2773ZM25.0583 29.1275C24.5578 29.6316 24.2773 30.3144 24.2773 31.0257H25.3089C25.3089 30.5857 25.4825 30.1644 25.7904 29.8544L25.0583 29.1275ZM26.9482 28.3395C26.2387 28.3395 25.559 28.6234 25.0583 29.1275L25.7903 29.8544C26.0981 29.5446 26.5147 29.3711 26.9482 29.3711V28.3395ZM30.2241 28.3395H26.9482V29.3711H30.2241V28.3395ZM32.1142 29.1275C31.6135 28.6234 30.9337 28.3395 30.2241 28.3395V29.3711C30.6577 29.3711 31.0744 29.5446 31.3821 29.8544L32.1142 29.1275ZM32.8951 31.0257C32.8951 30.3145 32.6147 29.6316 32.1142 29.1275L31.3821 29.8544C31.6899 30.1644 31.8635 30.5856 31.8635 31.0257H32.8951ZM32.8951 32.6752V31.0257H31.8635V32.6752H32.8951ZM32.8951 33.1961V32.6752H31.8635V33.1961H32.8951ZM31.862 33.712H32.3793V32.6803H31.862V33.712ZM25.3103 33.712H31.862V32.6803H25.3103V33.712ZM24.7931 33.712H25.3103V32.6803H24.7931V33.712ZM34.1049 32.6752V33.1961H35.1365V32.6752H34.1049ZM34.1049 31.0257V32.6752H35.1365V31.0257H34.1049ZM34.8859 29.1275C34.3854 29.6316 34.1049 30.3144 34.1049 31.0257H35.1365C35.1365 30.5857 35.3101 30.1644 35.618 29.8544L34.8859 29.1275ZM36.7758 28.3395C36.0663 28.3395 35.3866 28.6234 34.8859 29.1275L35.618 29.8544C35.9257 29.5446 36.3423 29.3711 36.7758 29.3711V28.3395ZM40.0517 28.3395H36.7758V29.3711H40.0517V28.3395ZM41.9417 29.1275C41.4411 28.6234 40.7613 28.3395 40.0517 28.3395V29.3711C40.4853 29.3711 40.902 29.5446 41.2097 29.8544L41.9417 29.1275ZM42.7227 31.0257C42.7227 30.3145 42.4423 29.6316 41.9418 29.1275L41.2097 29.8544C41.5175 30.1644 41.6911 30.5856 41.6911 31.0257H42.7227ZM42.7227 32.6752V31.0257H41.6911V32.6752H42.7227ZM42.7227 33.1961V32.6752H41.6911V33.1961H42.7227ZM41.6896 33.712H42.2069V32.6803H41.6896V33.712ZM35.1379 33.712H41.6896V32.6803H35.1379V33.712ZM34.6207 33.712H35.1379V32.6803H34.6207V33.712ZM48.2414 33.712H48.7587V32.6803H48.2414V33.712ZM44.9655 33.712H48.2414V32.6803H44.9655V33.712ZM44.4483 33.712H44.9655V32.6803H44.4483V33.712ZM43.9325 32.6752V33.1961H44.9641V32.6752H43.9325ZM43.9325 31.0257V32.6752H44.9641V31.0257H43.9325ZM42.7945 28.2584C43.5227 28.9917 43.9325 29.9871 43.9325 31.0257H44.9641C44.9641 29.7158 44.4474 28.4588 43.5266 27.5315L42.7945 28.2584ZM40.0517 27.1139C41.0798 27.1139 42.0665 27.5251 42.7945 28.2584L43.5266 27.5315C42.6057 26.604 41.3558 26.0823 40.0517 26.0823V27.1139ZM36.7774 27.1139H40.0517V26.0823H36.7774V27.1139ZM34.1962 28.1297C34.9044 27.4814 35.825 27.12 36.7807 27.1139L36.7741 26.0823C35.5619 26.09 34.3957 26.5484 33.4996 27.3688L34.1962 28.1297ZM33.8483 28.4482L34.1962 28.1297L33.4996 27.3688L33.1517 27.6873L33.8483 28.4482ZM32.8039 28.1297L33.1517 28.4482L33.8483 27.6873L33.5004 27.3688L32.8039 28.1297ZM30.2193 27.1139C31.1751 27.12 32.0956 27.4814 32.8039 28.1297L33.5004 27.3688C32.6043 26.5485 31.4382 26.09 30.2259 26.0823L30.2193 27.1139ZM26.9482 27.1139H30.2226V26.0823H26.9482V27.1139ZM24.2055 28.2584C24.9335 27.5251 25.9203 27.1139 26.9482 27.1139V26.0823C25.6443 26.0823 24.3944 26.604 23.4734 27.5315L24.2055 28.2584ZM23.0676 31.0257C23.0676 29.9871 23.4773 28.9917 24.2055 28.2584L23.4734 27.5315C22.5526 28.4588 22.0359 29.7158 22.0359 31.0257H23.0676ZM23.0676 32.6752V31.0257H22.0359V32.6752H23.0676ZM23.0676 33.1961V32.6752H22.0359V33.1961H23.0676ZM22.0345 33.712H22.5517V32.6803H22.0345V33.712ZM18.7586 33.712H22.0345V32.6803H18.7586V33.712ZM18.2414 33.712H18.7586V32.6803H18.2414V33.712ZM17.7256 32.6752V33.1961H18.7572V32.6752H17.7256ZM17.7256 24.4277V32.6752H18.7572V24.4277H17.7256ZM18.5066 22.5295C18.0061 23.0335 17.7256 23.7164 17.7256 24.4277H18.7572C18.7572 23.9877 18.9308 23.5664 19.2386 23.2564L18.5066 22.5295ZM20.3966 21.7414C19.687 21.7414 19.0072 22.0253 18.5066 22.5295L19.2386 23.2564C19.5464 22.9465 19.963 22.7731 20.3966 22.7731V21.7414ZM46.6034 21.7414H20.3966V22.7731H46.6034V21.7414ZM48.4935 22.5295C47.9928 22.0253 47.3131 21.7414 46.6034 21.7414V22.7731C47.0371 22.7731 47.4537 22.9465 47.7614 23.2564L48.4935 22.5295ZM49.2745 24.4277C49.2745 23.7164 48.994 23.0335 48.4935 22.5295L47.7614 23.2564C48.0693 23.5664 48.2429 23.9877 48.2429 24.4277H49.2745ZM49.2745 32.6752V24.4277H48.2429V32.6752H49.2745ZM49.2745 33.1961V32.6752H48.2429V33.1961H49.2745Z" fill="#252525"/>
</g>
<defs>
<clipPath id="clip0_1756_143">
<rect width="37" height="29" fill="white" transform="translate(15 19)"/>
</clipPath>
</defs>
</svg>
