<svg width="68" height="68" viewBox="0 0 68 68" fill="none" xmlns="http://www.w3.org/2000/svg">
<rect x="0.515821" y="0.515821" width="66.9684" height="66.9684" rx="33.4842" stroke="#33AD43" stroke-width="1.03164"/>
<g clip-path="url(#clip0_1756_157)">
<path fill-rule="evenodd" clip-rule="evenodd" d="M40.4931 27.2609V26.7391V25.087C40.4931 23.4726 39.8618 21.9244 38.7378 20.7828C37.6138 19.6413 36.0895 19 34.5 19C32.9105 19 31.3861 19.6413 30.2622 20.7828C29.1383 21.9244 28.5068 23.4726 28.5068 25.087V26.7391V27.2609H27.9931H23.113C22.8178 27.2609 22.5347 27.38 22.326 27.592C22.1173 27.804 22 28.0915 22 28.3913V46.5652C22 47.7414 22.46 48.8694 23.2789 49.7011C24.0978 50.5327 25.2084 51 26.3664 51H42.6336C43.7915 51 44.9023 50.5327 45.7211 49.7011C46.5399 48.8694 47 47.7414 47 46.5652V40H44.7739V46.5652C44.7739 47.1417 44.5484 47.6948 44.147 48.1025C43.7456 48.5102 43.2012 48.7391 42.6336 48.7391H26.3664C25.7988 48.7391 25.2543 48.5102 24.8529 48.1025C24.4515 47.6948 24.226 47.1417 24.226 46.5652V30.0435V29.5218H24.7397H27.9931H28.5068V30.0435V31.6956C28.5068 31.9954 28.6241 32.283 28.8328 32.4949C29.0416 32.707 29.3247 32.826 29.6199 32.826C29.915 32.826 30.1981 32.707 30.4069 32.4949C30.6156 32.283 30.7329 31.9954 30.7329 31.6956V30.0435V29.5218H31.2466H37.7534H38.2671V30.0435V31.6956C38.2671 31.9954 38.3844 32.283 38.5931 32.4949C38.8018 32.707 39.0849 32.826 39.3801 32.826C39.6753 32.826 39.9584 32.707 40.1671 32.4949C40.3759 32.283 40.4931 31.9954 40.4931 31.6956V30.0435V29.5218H41.0068H44.2602H44.7739V30.0435V38H47V28.3913C47 28.0915 46.8827 27.804 46.674 27.592C46.4652 27.38 46.1822 27.2609 45.8869 27.2609H41.0068H40.4931ZM38.2671 27.2609H37.7534H31.2466H30.7329V26.7391V25.087C30.7329 24.0722 31.1298 23.099 31.8362 22.3815C32.5427 21.664 33.5008 21.2609 34.5 21.2609C35.4991 21.2609 36.4573 21.664 37.1637 22.3815C37.8702 23.099 38.2671 24.0722 38.2671 25.087V26.7391V27.2609Z" fill="#33AD43"/>
<path d="M40.4931 27.2609H39.9773V27.7767H40.4931V27.2609ZM38.7378 20.7828L38.3702 21.1447L38.7378 20.7828ZM30.2622 20.7828L29.8946 20.4209L30.2622 20.7828ZM28.5068 27.2609V27.7767H29.0227V27.2609H28.5068ZM22.326 27.592L22.6936 27.9539H22.6936L22.326 27.592ZM23.2789 49.7011L23.6465 49.3392H23.6465L23.2789 49.7011ZM45.7211 49.7011L45.3535 49.3392H45.3535L45.7211 49.7011ZM47 40H47.5158V39.4842H47V40ZM44.7739 40V39.4842H44.2581V40H44.7739ZM44.147 48.1025L43.7795 47.7406L44.147 48.1025ZM24.8529 48.1025L24.4854 48.4644L24.4854 48.4644L24.8529 48.1025ZM24.226 29.5218V29.0059H23.7102V29.5218H24.226ZM28.5068 29.5218H29.0227V29.0059H28.5068V29.5218ZM28.8328 32.4949L29.2004 32.1331L29.2003 32.133L28.8328 32.4949ZM30.4069 32.4949L30.0394 32.133L30.0393 32.1331L30.4069 32.4949ZM30.7329 29.5218V29.0059H30.217V29.5218H30.7329ZM38.2671 29.5218H38.783V29.0059H38.2671V29.5218ZM38.5931 32.4949L38.9608 32.1331L38.9606 32.133L38.5931 32.4949ZM40.1671 32.4949L39.7996 32.133L39.7994 32.1331L40.1671 32.4949ZM40.4931 29.5218V29.0059H39.9773V29.5218H40.4931ZM44.7739 29.5218H45.2898V29.0059H44.7739V29.5218ZM44.7739 38H44.2581V38.5158H44.7739V38ZM47 38V38.5158H47.5158V38H47ZM46.674 27.592L47.0416 27.2301L47.0415 27.2301L46.674 27.592ZM38.2671 27.2609V27.7767H38.783V27.2609H38.2671ZM30.7329 27.2609H30.217V27.7767H30.7329V27.2609ZM31.8362 22.3815L32.2038 22.7434L32.2038 22.7434L31.8362 22.3815ZM37.1637 22.3815L36.7961 22.7434L36.7962 22.7434L37.1637 22.3815ZM39.9773 26.7391V27.2609H41.0089V26.7391H39.9773ZM39.9773 25.087V26.7391H41.0089V25.087H39.9773ZM38.3702 21.1447C39.3983 22.1889 39.9773 23.6068 39.9773 25.087H41.0089C41.0089 23.3384 40.3252 21.6598 39.1053 20.4209L38.3702 21.1447ZM34.5 19.5158C35.95 19.5158 37.3423 20.1008 38.3702 21.1447L39.1053 20.4209C37.8853 19.1818 36.2289 18.4842 34.5 18.4842V19.5158ZM30.6298 21.1447C31.6576 20.1008 33.0499 19.5158 34.5 19.5158V18.4842C32.7711 18.4842 31.1147 19.1818 29.8946 20.4209L30.6298 21.1447ZM29.0227 25.087C29.0227 23.6068 29.6017 22.1889 30.6298 21.1447L29.8946 20.4209C28.6749 21.6598 27.991 23.3384 27.991 25.087H29.0227ZM29.0227 26.7391V25.087H27.991V26.7391H29.0227ZM29.0227 27.2609V26.7391H27.991V27.2609H29.0227ZM27.9931 27.7767H28.5068V26.745H27.9931V27.7767ZM23.113 27.7767H27.9931V26.745H23.113V27.7767ZM22.6936 27.9539C22.8062 27.8395 22.9572 27.7767 23.113 27.7767V26.745C22.6784 26.745 22.2633 26.9205 21.9584 27.2301L22.6936 27.9539ZM22.5158 28.3913C22.5158 28.2257 22.5807 28.0685 22.6936 27.9539L21.9584 27.2301C21.6539 27.5394 21.4842 27.9573 21.4842 28.3913H22.5158ZM22.5158 46.5652V28.3913H21.4842V46.5652H22.5158ZM23.6465 49.3392C22.9234 48.6049 22.5158 47.6072 22.5158 46.5652H21.4842C21.4842 47.8757 21.9966 49.134 22.9113 50.063L23.6465 49.3392ZM26.3664 50.4842C25.3478 50.4842 24.3692 50.0732 23.6465 49.3392L22.9113 50.063C23.8263 50.9922 25.069 51.5158 26.3664 51.5158V50.4842ZM42.6336 50.4842H26.3664V51.5158H42.6336V50.4842ZM45.3535 49.3392C44.6308 50.0732 43.6521 50.4842 42.6336 50.4842V51.5158C43.931 51.5158 45.1737 50.9922 46.0887 50.063L45.3535 49.3392ZM46.4842 46.5652C46.4842 47.6072 46.0765 48.6049 45.3535 49.3392L46.0887 50.063C47.0033 49.134 47.5158 47.8757 47.5158 46.5652H46.4842ZM46.4842 40V46.5652H47.5158V40H46.4842ZM47 39.4842H44.7739V40.5158H47V39.4842ZM45.2898 46.5652V40H44.2581V46.5652H45.2898ZM44.5146 48.4644C45.0118 47.9593 45.2898 47.276 45.2898 46.5652H44.2581C44.2581 47.0075 44.085 47.4302 43.7795 47.7406L44.5146 48.4644ZM42.6336 49.2549C43.3406 49.2549 44.017 48.9697 44.5146 48.4644L43.7795 47.7406C43.4742 48.0506 43.0618 48.2233 42.6336 48.2233V49.2549ZM26.3664 49.2549H42.6336V48.2233H26.3664V49.2549ZM24.4854 48.4644C24.9829 48.9697 25.6594 49.2549 26.3664 49.2549V48.2233C25.9381 48.2233 25.5258 48.0506 25.2205 47.7406L24.4854 48.4644ZM23.7102 46.5652C23.7102 47.276 23.9881 47.9593 24.4854 48.4644L25.2205 47.7406C24.9149 47.4302 24.7418 47.0075 24.7418 46.5652H23.7102ZM23.7102 30.0435V46.5652H24.7418V30.0435H23.7102ZM23.7102 29.5218V30.0435H24.7418V29.5218H23.7102ZM24.7397 29.0059H24.226V30.0376H24.7397V29.0059ZM27.9931 29.0059H24.7397V30.0376H27.9931V29.0059ZM28.5068 29.0059H27.9931V30.0376H28.5068V29.0059ZM29.0227 30.0435V29.5218H27.991V30.0435H29.0227ZM29.0227 31.6956V30.0435H27.991V31.6956H29.0227ZM29.2003 32.133C29.0875 32.0184 29.0227 31.8612 29.0227 31.6956H27.991C27.991 32.1296 28.1607 32.5476 28.4653 32.8569L29.2003 32.133ZM29.6199 32.3102C29.464 32.3102 29.313 32.2475 29.2004 32.1331L28.4652 32.8568C28.7701 33.1665 29.1853 33.3419 29.6199 33.3419V32.3102ZM30.0393 32.1331C29.9267 32.2475 29.7757 32.3102 29.6199 32.3102V33.3419C30.0544 33.3419 30.4696 33.1665 30.7745 32.8568L30.0393 32.1331ZM30.217 31.6956C30.217 31.8612 30.1522 32.0184 30.0394 32.133L30.7744 32.8569C31.079 32.5476 31.2487 32.1296 31.2487 31.6956H30.217ZM30.217 30.0435V31.6956H31.2487V30.0435H30.217ZM30.217 29.5218V30.0435H31.2487V29.5218H30.217ZM31.2466 29.0059H30.7329V30.0376H31.2466V29.0059ZM37.7534 29.0059H31.2466V30.0376H37.7534V29.0059ZM38.2671 29.0059H37.7534V30.0376H38.2671V29.0059ZM38.783 30.0435V29.5218H37.7513V30.0435H38.783ZM38.783 31.6956V30.0435H37.7513V31.6956H38.783ZM38.9606 32.133C38.8478 32.0184 38.783 31.8613 38.783 31.6956H37.7513C37.7513 32.1296 37.9209 32.5476 38.2257 32.8569L38.9606 32.133ZM39.3801 32.3102C39.2243 32.3102 39.0733 32.2474 38.9608 32.1331L38.2255 32.8568C38.5303 33.1665 38.9456 33.3419 39.3801 33.3419V32.3102ZM39.7994 32.1331C39.687 32.2474 39.5359 32.3102 39.3801 32.3102V33.3419C39.8146 33.3419 40.2299 33.1665 40.5347 32.8568L39.7994 32.1331ZM39.9773 31.6956C39.9773 31.8613 39.9124 32.0185 39.7996 32.133L40.5346 32.8569C40.8393 32.5476 41.0089 32.1296 41.0089 31.6956H39.9773ZM39.9773 30.0435V31.6956H41.0089V30.0435H39.9773ZM39.9773 29.5218V30.0435H41.0089V29.5218H39.9773ZM41.0068 29.0059H40.4931V30.0376H41.0068V29.0059ZM44.2602 29.0059H41.0068V30.0376H44.2602V29.0059ZM44.7739 29.0059H44.2602V30.0376H44.7739V29.0059ZM45.2898 30.0435V29.5218H44.2581V30.0435H45.2898ZM45.2898 38V30.0435H44.2581V38H45.2898ZM44.7739 38.5158H47V37.4842H44.7739V38.5158ZM46.4842 28.3913V38H47.5158V28.3913H46.4842ZM46.3064 27.9538C46.4193 28.0686 46.4842 28.2258 46.4842 28.3913H47.5158C47.5158 27.9572 47.346 27.5394 47.0416 27.2301L46.3064 27.9538ZM45.8869 27.7767C46.0428 27.7767 46.1938 27.8395 46.3065 27.9539L47.0415 27.2301C46.7367 26.9205 46.3216 26.745 45.8869 26.745V27.7767ZM41.0068 27.7767H45.8869V26.745H41.0068V27.7767ZM40.4931 27.7767H41.0068V26.745H40.4931V27.7767ZM37.7534 27.7767H38.2671V26.745H37.7534V27.7767ZM31.2466 27.7767H37.7534V26.745H31.2466V27.7767ZM30.7329 27.7767H31.2466V26.745H30.7329V27.7767ZM30.217 26.7391V27.2609H31.2487V26.7391H30.217ZM30.217 25.087V26.7391H31.2487V25.087H30.217ZM31.4687 22.0196C30.6664 22.8345 30.217 23.938 30.217 25.087H31.2487C31.2487 24.2065 31.5931 23.3636 32.2038 22.7434L31.4687 22.0196ZM34.5 20.745C33.3614 20.745 32.2712 21.2045 31.4687 22.0196L32.2038 22.7434C32.8142 22.1235 33.6402 21.7767 34.5 21.7767V20.745ZM37.5313 22.0196C36.7287 21.2045 35.6385 20.745 34.5 20.745V21.7767C35.3597 21.7767 36.1858 22.1235 36.7961 22.7434L37.5313 22.0196ZM38.783 25.087C38.783 23.938 38.3336 22.8345 37.5313 22.0196L36.7962 22.7434C37.4069 23.3636 37.7513 24.2065 37.7513 25.087H38.783ZM38.783 26.7391V25.087H37.7513V26.7391H38.783ZM38.783 27.2609V26.7391H37.7513V27.2609H38.783Z" fill="#252525"/>
</g>
<defs>
<clipPath id="clip0_1756_157">
<rect width="27" height="33" fill="white" transform="translate(21 18)"/>
</clipPath>
</defs>
</svg>
