<svg width="68" height="68" viewBox="0 0 68 68" fill="none" xmlns="http://www.w3.org/2000/svg">
<rect x="0.515821" y="0.515821" width="66.9684" height="66.9684" rx="33.4842" stroke="#33AD43" stroke-width="1.03164"/>
<g clip-path="url(#clip0_1756_164)">
<path fill-rule="evenodd" clip-rule="evenodd" d="M39.3302 36.2907C39.1865 36.1786 39.0178 36.1029 38.8385 36.0699C38.6577 36.0369 38.472 36.0486 38.2967 36.1037C38.1214 36.1589 37.9623 36.2559 37.8329 36.3864L31.0263 43.2577L31.0243 43.2597C30.8572 43.4267 30.7465 43.6418 30.708 43.875C30.6694 44.1081 30.7049 44.3474 30.8096 44.5593L30.8105 44.5614L32.1653 47.3363L32.3285 47.6708L32.0654 47.9339L31.1401 48.8589L30.7709 49.2281L30.402 48.8585L22.0919 40.5337L21.6998 40.1409L22.1162 39.7739L23.0909 38.915L23.3554 38.682L23.6703 38.8403L26.4919 40.2591L26.4934 40.2598C26.705 40.3638 26.9438 40.3991 27.1764 40.3607C27.4092 40.3222 27.6249 40.2112 27.7918 40.0444L34.6308 33.1738L34.6331 33.1714C34.7631 33.0426 34.8597 32.8842 34.9149 32.7098C34.97 32.5354 34.982 32.3501 34.9497 32.1701C34.9175 31.99 34.8419 31.8205 34.7298 31.676C34.6177 31.5317 34.4716 31.4163 34.3054 31.3406L25.6996 27.4598L25.0112 27.1494L25.1606 27H22.0448C22.0183 27.0535 21.996 27.1092 21.9782 27.1666C21.9245 27.3397 21.9132 27.5233 21.9454 27.7017C21.9775 27.8801 22.0521 28.0482 22.1629 28.1917C22.2732 28.3347 22.4162 28.4491 22.5799 28.5255L31.1354 32.406L31.8216 32.7172L31.2888 33.2499L26.9934 37.5445L26.7268 37.8109L26.3901 37.6416L23.565 36.2211L23.5579 36.2176L23.551 36.2139C23.3423 36.1009 23.1034 36.0565 22.868 36.0869C22.6361 36.1169 22.4192 36.2181 22.2473 36.3764L19.3317 39.3573L19.3287 39.3603C19.1182 39.5719 19 39.8584 19 40.157C19 40.4553 19.1184 40.742 19.3287 40.9538L30.0491 51.6718C30.2608 51.882 30.5472 52 30.8456 52C31.1442 52 31.4307 51.8819 31.6426 51.6714L31.6456 51.6684L34.6337 48.747L34.6347 48.746C34.8037 48.5783 34.9155 48.3614 34.954 48.1264C34.9926 47.8909 34.9557 47.6492 34.8484 47.4361L33.4277 44.6116L33.2583 44.2748L33.5248 44.0084L37.8203 39.7138L38.353 39.1812L38.6643 39.8672L42.5449 48.4191L42.5457 48.4209C42.6221 48.5845 42.7366 48.7276 42.8796 48.8378C43.0231 48.9486 43.1912 49.0232 43.3697 49.0553C43.5481 49.0875 43.7317 49.0762 43.9049 49.0225C44.0777 48.969 44.235 48.8747 44.3638 48.7477L44.3647 48.7468L48.258 44.8544L48.2597 44.8528C48.4021 44.7068 48.5025 44.5252 48.5501 44.3269C48.5975 44.1291 48.5907 43.9222 48.5304 43.728L44.9635 33.0128L44.8629 32.7107L45.0856 32.4831L49.6619 27.8087L49.667 27.8036C50.0925 27.3809 50.4294 26.8778 50.6582 26.3236C50.887 25.7694 51.0033 25.1752 50.9999 24.5756V24.572C51.0012 23.6681 50.7341 22.7841 50.2323 22.0322C49.7306 21.2802 49.0169 20.694 48.1817 20.3479C47.3465 20.0018 46.4272 19.9114 45.5406 20.0881C44.6539 20.2648 43.8392 20.701 43.2005 21.3408L38.5581 25.9822L38.3302 26.21L38.0244 26.1083L27.3068 22.542C27.1126 22.4817 26.9057 22.4749 26.7079 22.5224C26.5092 22.5701 26.3272 22.6707 26.1812 22.8135L23.9757 25H27V25.161L27.032 25.1289L27.2601 24.901L27.5659 25.0029L38.2669 28.5691C38.4611 28.6294 38.668 28.6362 38.8657 28.5887C39.0641 28.5411 39.246 28.4407 39.3918 28.2982L39.3934 28.2967L44.7407 22.9505C44.9534 22.7336 45.2073 22.5612 45.4875 22.4433C45.7686 22.3251 46.0704 22.2642 46.3753 22.2642C46.6803 22.2642 46.9822 22.3251 47.2633 22.4433C47.5404 22.5599 47.7919 22.7299 48.0032 22.9436C48.2255 23.152 48.4016 23.4048 48.5199 23.6857C48.6376 23.9653 48.6955 24.2664 48.6899 24.5696C48.6991 24.8666 48.6499 25.1627 48.545 25.4409C48.4383 25.7244 48.2758 25.9837 48.0674 26.2035L48.0577 26.2134L42.7085 31.5615L42.7069 31.5631C42.5644 31.709 42.464 31.8907 42.4164 32.089C42.369 32.2867 42.3757 32.4936 42.4359 32.6877L46.0029 43.3864L46.105 43.6922L45.8769 43.9201L44.39 45.4067L43.8577 45.939L43.5462 45.2538L39.6636 36.7141C39.5883 36.5482 39.4738 36.4029 39.3302 36.2907ZM38.1402 35.6062C38.3964 35.5255 38.6684 35.5086 38.9326 35.5568C39.1947 35.6049 39.4413 35.7157 39.6512 35.8796C39.8613 36.0436 40.0285 36.2559 40.1387 36.4983L43.7905 44.5307L43.6522 44.6691L44.0211 45.0379L44.4961 44.8221L44.4151 44.644L45.508 43.5514L41.9395 32.848C41.8497 32.5626 41.8392 32.2582 41.9091 31.9673C41.9789 31.6764 42.1265 31.4099 42.336 31.1962L37.4859 35.9961C37.478 36.0038 37.4701 36.0115 37.4623 36.0194L37.4859 35.9961C37.6705 35.817 37.8945 35.6834 38.1402 35.6062Z" fill="#33AD43"/>
<path d="M38.8385 36.0699L38.9318 35.5626L38.931 35.5624L38.8385 36.0699ZM39.3302 36.2907L39.0128 36.6974L39.0128 36.6974L39.3302 36.2907ZM38.2967 36.1037L38.1421 35.6116L38.1419 35.6117L38.2967 36.1037ZM37.8329 36.3864L37.4666 36.0232L37.4665 36.0234L37.8329 36.3864ZM31.0263 43.2577L31.391 43.6225L31.3928 43.6207L31.0263 43.2577ZM31.0243 43.2597L31.3889 43.6246L31.389 43.6245L31.0243 43.2597ZM30.708 43.875L31.2169 43.959V43.959L30.708 43.875ZM30.8096 44.5593L31.28 44.3477L31.2762 44.3392L31.2721 44.3309L30.8096 44.5593ZM30.8105 44.5614L30.3401 44.773L30.3434 44.7804L30.347 44.7877L30.8105 44.5614ZM32.1653 47.3363L32.6289 47.1101L32.6288 47.11L32.1653 47.3363ZM32.3285 47.6708L32.6932 48.0356L32.9535 47.7754L32.7921 47.4446L32.3285 47.6708ZM32.0654 47.9339L31.7007 47.5691H31.7007L32.0654 47.9339ZM31.1401 48.8589L30.7754 48.4941L31.1401 48.8589ZM30.7709 49.2281L30.4058 49.5925L30.7705 49.9579L31.1356 49.5929L30.7709 49.2281ZM30.402 48.8585L30.7671 48.4941L30.7671 48.4941L30.402 48.8585ZM22.0919 40.5337L22.457 40.1693L22.4569 40.1692L22.0919 40.5337ZM21.6998 40.1409L21.3587 39.7539L20.9469 40.1169L21.3347 40.5053L21.6998 40.1409ZM22.1162 39.7739L21.7752 39.3869L21.7752 39.3869L22.1162 39.7739ZM23.0909 38.915L23.432 39.3021L23.432 39.302L23.0909 38.915ZM23.3554 38.682L23.5871 38.2211L23.2758 38.0646L23.0143 38.295L23.3554 38.682ZM23.6703 38.8403L23.4386 39.3012L23.4386 39.3012L23.6703 38.8403ZM26.4919 40.2591L26.2601 40.72L26.2689 40.7242L26.4919 40.2591ZM26.4934 40.2598L26.721 39.7969L26.7164 39.7947L26.4934 40.2598ZM27.1764 40.3607L27.2604 40.8696L27.2605 40.8696L27.1764 40.3607ZM27.7918 40.0444L28.1564 40.4093L28.1574 40.4083L27.7918 40.0444ZM34.6308 33.1738L34.9965 33.5378L35.0036 33.5304L34.6308 33.1738ZM34.6331 33.1714L34.2698 32.8051L34.2604 32.8149L34.6331 33.1714ZM34.9149 32.7098L35.4067 32.8654L35.4067 32.8652L34.9149 32.7098ZM34.9497 32.1701L34.442 32.261L34.9497 32.1701ZM34.7298 31.676L35.1372 31.3597L35.1371 31.3596L34.7298 31.676ZM34.3054 31.3406L34.5193 30.8712L34.5174 30.8704L34.3054 31.3406ZM25.6996 27.4598L25.9116 26.9896L25.9116 26.9896L25.6996 27.4598ZM25.0112 27.1494L24.6465 26.7846L24.1183 27.3126L24.7991 27.6196L25.0112 27.1494ZM25.1606 27L25.5253 27.3648L26.406 26.4842H25.1606V27ZM22.0448 27V26.4842H21.7246L21.5825 26.7711L22.0448 27ZM21.9782 27.1666L21.4855 27.0138L21.4855 27.0138L21.9782 27.1666ZM21.9454 27.7017L21.4377 27.7931L21.4377 27.7932L21.9454 27.7017ZM22.1629 28.1917L21.7545 28.5068L21.7545 28.5068L22.1629 28.1917ZM22.5799 28.5255L22.3618 28.993L22.3668 28.9953L22.5799 28.5255ZM31.1354 32.406L30.9224 32.8758L30.9224 32.8758L31.1354 32.406ZM31.8216 32.7172L32.1863 33.082L32.7132 32.5552L32.0347 32.2475L31.8216 32.7172ZM31.2888 33.2499L30.9241 32.8851L30.9241 32.8851L31.2888 33.2499ZM26.9934 37.5445L27.358 37.9093L27.3581 37.9092L26.9934 37.5445ZM26.7268 37.8109L26.4951 38.2718L26.828 38.4391L27.0915 38.1757L26.7268 37.8109ZM26.3901 37.6416L26.1583 38.1024L26.1584 38.1024L26.3901 37.6416ZM23.565 36.2211L23.7967 35.7602L23.7923 35.758L23.565 36.2211ZM23.5579 36.2176L23.3113 36.6706L23.3208 36.6758L23.3306 36.6806L23.5579 36.2176ZM23.551 36.2139L23.7977 35.7608L23.7966 35.7602L23.551 36.2139ZM22.868 36.0869L22.8021 35.5753L22.8018 35.5753L22.868 36.0869ZM22.2473 36.3764L21.898 35.9969L21.888 36.006L21.8785 36.0157L22.2473 36.3764ZM19.3317 39.3573L19.6977 39.7207L19.7005 39.7179L19.3317 39.3573ZM19.3287 39.3603L19.6944 39.724L19.6947 39.7237L19.3287 39.3603ZM19.3287 40.9538L18.9627 41.3172L18.964 41.3186L19.3287 40.9538ZM30.0491 51.6718L29.6844 52.0366L29.6857 52.0378L30.0491 51.6718ZM31.6426 51.6714L32.0062 52.0373L32.0072 52.0362L31.6426 51.6714ZM31.6456 51.6684L31.285 51.2995L31.2809 51.3036L31.6456 51.6684ZM34.6337 48.747L34.2882 48.364L34.2805 48.3709L34.2731 48.3781L34.6337 48.747ZM34.6347 48.746L34.9802 49.129L34.9893 49.1208L34.998 49.1122L34.6347 48.746ZM34.954 48.1264L34.445 48.0429L34.445 48.043L34.954 48.1264ZM34.8484 47.4361L34.3876 47.6679L34.3876 47.668L34.8484 47.4361ZM33.4277 44.6116L32.9668 44.8433L32.9669 44.8434L33.4277 44.6116ZM33.2583 44.2748L32.8936 43.9101L32.63 44.1736L32.7975 44.5066L33.2583 44.2748ZM33.5248 44.0084L33.1601 43.6436L33.5248 44.0084ZM37.8203 39.7138L38.185 40.0786L38.185 40.0786L37.8203 39.7138ZM38.353 39.1812L38.8227 38.968L38.5149 38.2898L37.9882 38.8164L38.353 39.1812ZM38.6643 39.8672L39.1341 39.654L39.1341 39.654L38.6643 39.8672ZM42.5449 48.4191L42.0751 48.6322L42.0782 48.6389L42.5449 48.4191ZM42.5457 48.4209L43.0132 48.2027L43.0124 48.2011L42.5457 48.4209ZM42.8796 48.8378L43.1949 48.4296L43.1945 48.4293L42.8796 48.8378ZM43.3697 49.0553L43.4611 48.5477L43.4611 48.5477L43.3697 49.0553ZM43.9049 49.0225L43.7523 48.5297L43.7521 48.5298L43.9049 49.0225ZM44.3638 48.7477L44.726 49.115L44.7285 49.1124L44.3638 48.7477ZM44.3647 48.7468L44 48.382L44 48.382L44.3647 48.7468ZM48.258 44.8544L48.6227 45.2192L48.6227 45.2192L48.258 44.8544ZM48.2597 44.8528L48.6244 45.2175L48.6288 45.213L48.2597 44.8528ZM48.5501 44.3269L48.0485 44.2065L48.0485 44.2065L48.5501 44.3269ZM48.5304 43.728L49.0232 43.575L49.0199 43.5651L48.5304 43.728ZM44.9635 33.0128L45.4529 32.8498L45.4529 32.8498L44.9635 33.0128ZM44.8629 32.7107L44.4943 32.3498L44.274 32.5748L44.3735 32.8736L44.8629 32.7107ZM45.0856 32.4831L45.4542 32.844L45.4542 32.844L45.0856 32.4831ZM49.6619 27.8087L49.2968 27.4443L49.2934 27.4479L49.6619 27.8087ZM49.667 27.8036L49.3035 27.4377L49.302 27.4392L49.667 27.8036ZM50.6582 26.3236L50.1814 26.1268V26.1268L50.6582 26.3236ZM50.9999 24.5756H50.4841L50.4841 24.5785L50.9999 24.5756ZM50.9999 24.572L50.4841 24.5713V24.572H50.9999ZM50.2323 22.0322L49.8032 22.3184L49.8032 22.3185L50.2323 22.0322ZM48.1817 20.3479L48.3792 19.8714L48.3792 19.8714L48.1817 20.3479ZM45.5406 20.0881L45.6414 20.594L45.6414 20.5939L45.5406 20.0881ZM43.2005 21.3408L43.5652 21.7056L43.5655 21.7052L43.2005 21.3408ZM38.5581 25.9822L38.9228 26.347L38.9228 26.347L38.5581 25.9822ZM38.3302 26.21L38.1674 26.6995L38.4697 26.8L38.6949 26.5748L38.3302 26.21ZM38.0244 26.1083L37.8616 26.5977L37.8616 26.5977L38.0244 26.1083ZM27.3068 22.542L27.4697 22.0525L27.4597 22.0494L27.3068 22.542ZM26.7079 22.5224L26.8282 23.024L26.8282 23.024L26.7079 22.5224ZM26.1812 22.8135L25.8205 22.4447L25.818 22.4472L26.1812 22.8135ZM23.9757 25L23.6125 24.6337L22.7227 25.5158H23.9757V25ZM27 25H27.5158V24.4842H27V25ZM27 25.161H26.4842V26.4061L27.3647 25.5257L27 25.161ZM27.032 25.1289L27.3967 25.4937L27.3967 25.4937L27.032 25.1289ZM27.2601 24.901L27.4231 24.4116L27.1208 24.3108L26.8954 24.5362L27.2601 24.901ZM27.5659 25.0029L27.4028 25.4923L27.4028 25.4923L27.5659 25.0029ZM38.2669 28.5691L38.1038 29.0586L38.114 29.0618L38.2669 28.5691ZM38.8657 28.5887L38.7454 28.0871L38.7454 28.0871L38.8657 28.5887ZM39.3918 28.2982L39.7523 28.6672L39.7553 28.6642L39.3918 28.2982ZM39.3934 28.2967L39.7569 28.6626L39.7581 28.6615L39.3934 28.2967ZM44.7407 22.9505L45.1054 23.3153L45.109 23.3117L44.7407 22.9505ZM45.4875 22.4433L45.6875 22.9188L45.6875 22.9188L45.4875 22.4433ZM47.2633 22.4433L47.4633 21.9679L47.4633 21.9679L47.2633 22.4433ZM48.0032 22.9436L47.6364 23.3063L47.6433 23.3133L47.6505 23.32L48.0032 22.9436ZM48.5199 23.6857L48.9953 23.4855L48.9953 23.4854L48.5199 23.6857ZM48.6899 24.5696L48.1741 24.56L48.1739 24.5728L48.1743 24.5855L48.6899 24.5696ZM48.545 25.4409L48.0624 25.259L48.0623 25.2591L48.545 25.4409ZM48.0674 26.2035L48.4366 26.5638L48.4416 26.5584L48.0674 26.2035ZM48.0577 26.2134L48.4224 26.5782L48.4268 26.5737L48.0577 26.2134ZM42.7085 31.5615L42.3438 31.1967L42.338 31.2025L42.3323 31.2085L42.7085 31.5615ZM42.7069 31.5631L43.0759 31.9237L43.0831 31.9161L42.7069 31.5631ZM42.4164 32.089L42.918 32.2095L42.918 32.2093L42.4164 32.089ZM42.4359 32.6877L41.9432 32.8405L41.9466 32.8508L42.4359 32.6877ZM46.0029 43.3864L45.5136 43.5496L45.5136 43.5497L46.0029 43.3864ZM46.105 43.6922L46.4696 44.0571L46.6953 43.8315L46.5943 43.5289L46.105 43.6922ZM45.8769 43.9201L45.5123 43.5553L45.5122 43.5554L45.8769 43.9201ZM44.39 45.4067L44.0253 45.0419L44.0252 45.042L44.39 45.4067ZM43.8577 45.939L43.3882 46.1525L43.6962 46.8299L44.2225 46.3037L43.8577 45.939ZM43.5462 45.2538L43.0766 45.4673L43.0766 45.4673L43.5462 45.2538ZM39.6636 36.7141L39.194 36.9274L39.1941 36.9276L39.6636 36.7141ZM38.9326 35.5568L39.0257 35.0495L39.0252 35.0494L38.9326 35.5568ZM38.1402 35.6062L38.2949 36.0983L38.2951 36.0982L38.1402 35.6062ZM39.6512 35.8796L39.9687 35.473L39.9686 35.473L39.6512 35.8796ZM40.1387 36.4983L39.6691 36.7118L39.6692 36.7118L40.1387 36.4983ZM43.7905 44.5307L44.1552 44.8955L44.4081 44.6427L44.2601 44.3172L43.7905 44.5307ZM43.6522 44.6691L43.2875 44.3043L42.9226 44.6691L43.2875 45.0338L43.6522 44.6691ZM44.0211 45.0379L43.6564 45.4027L43.9092 45.6554L44.2345 45.5075L44.0211 45.0379ZM44.4961 44.8221L44.7095 45.2917L45.1792 45.0783L44.9657 44.6086L44.4961 44.8221ZM44.4151 44.644L44.0504 44.2792L43.7976 44.532L43.9456 44.8575L44.4151 44.644ZM45.508 43.5514L45.8727 43.9161L46.0982 43.6907L45.9974 43.3882L45.508 43.5514ZM41.9395 32.848L41.4473 33.0028L41.4501 33.0112L41.9395 32.848ZM41.9091 31.9673L42.4107 32.0878L42.4107 32.0876L41.9091 31.9673ZM42.336 31.1962L42.7043 31.5574L41.9731 30.8296L42.336 31.1962ZM37.4623 36.0194L37.0958 35.6564L37.8251 36.386L37.4623 36.0194ZM38.7452 36.5772C38.8429 36.5952 38.9347 36.6364 39.0128 36.6974L39.6475 35.8841C39.4383 35.7208 39.1926 35.6105 38.9318 35.5626L38.7452 36.5772ZM38.4514 36.5958C38.547 36.5657 38.6478 36.5595 38.746 36.5773L38.931 35.5624C38.6675 35.5144 38.3971 35.5315 38.1421 35.6116L38.4514 36.5958ZM38.1992 36.7496C38.2697 36.6785 38.3563 36.6257 38.4516 36.5957L38.1419 35.6117C37.8866 35.692 37.6549 35.8333 37.4666 36.0232L38.1992 36.7496ZM31.3928 43.6207L38.1994 36.7494L37.4665 36.0234L30.6598 42.8947L31.3928 43.6207ZM31.389 43.6245L31.391 43.6225L30.6617 42.8929L30.6597 42.8949L31.389 43.6245ZM31.2169 43.959C31.2378 43.8325 31.2979 43.7155 31.3889 43.6246L30.6597 42.8948C30.4164 43.1379 30.2551 43.4512 30.199 43.7909L31.2169 43.959ZM31.2721 44.3309C31.2153 44.2159 31.1959 44.0859 31.2169 43.959L30.199 43.7909C30.143 44.1304 30.1946 44.479 30.3471 44.7878L31.2721 44.3309ZM31.281 44.3498L31.28 44.3477L30.3391 44.7709L30.3401 44.773L31.281 44.3498ZM32.6288 47.11L31.274 44.3351L30.347 44.7877L31.7018 47.5626L32.6288 47.11ZM32.7921 47.4446L32.6289 47.1101L31.7017 47.5625L31.8649 47.897L32.7921 47.4446ZM32.4301 48.2987L32.6932 48.0356L31.9638 47.306L31.7007 47.5691L32.4301 48.2987ZM31.5048 49.2237L32.4301 48.2987L31.7007 47.5691L30.7754 48.4941L31.5048 49.2237ZM31.1356 49.5929L31.5048 49.2237L30.7754 48.4941L30.4062 48.8633L31.1356 49.5929ZM30.0369 49.2228L30.4058 49.5925L31.136 48.8637L30.7671 48.4941L30.0369 49.2228ZM21.7268 40.8981L30.037 49.2229L30.7671 48.4941L22.457 40.1693L21.7268 40.8981ZM21.3347 40.5053L21.7268 40.8981L22.4569 40.1692L22.0648 39.7765L21.3347 40.5053ZM21.7752 39.3869L21.3587 39.7539L22.0408 40.5279L22.4572 40.1609L21.7752 39.3869ZM22.7499 38.528L21.7752 39.3869L22.4572 40.1609L23.432 39.3021L22.7499 38.528ZM23.0143 38.295L22.7499 38.528L23.432 39.302L23.6964 39.069L23.0143 38.295ZM23.902 38.3795L23.5871 38.2211L23.1237 39.1428L23.4386 39.3012L23.902 38.3795ZM26.7236 39.7983L23.902 38.3795L23.4386 39.3012L26.2602 40.7199L26.7236 39.7983ZM26.7164 39.7947L26.7149 39.794L26.2689 40.7242L26.2704 40.7249L26.7164 39.7947ZM27.0924 39.8518C26.9658 39.8727 26.836 39.8535 26.721 39.7969L26.2658 40.7227C26.5739 40.8742 26.9217 40.9255 27.2604 40.8696L27.0924 39.8518ZM27.4272 39.6795C27.3362 39.7705 27.2185 39.8309 27.0923 39.8518L27.2605 40.8696C27.5999 40.8135 27.9136 40.652 28.1564 40.4093L27.4272 39.6795ZM34.2653 32.8099L27.4262 39.6805L28.1574 40.4083L34.9964 33.5377L34.2653 32.8099ZM34.2604 32.8149L34.2581 32.8173L35.0036 33.5304L35.0059 33.528L34.2604 32.8149ZM34.4231 32.5542C34.3931 32.6491 34.3405 32.7352 34.2699 32.8052L34.9964 33.5377C35.1856 33.35 35.3263 33.1194 35.4067 32.8654L34.4231 32.5542ZM34.442 32.261C34.4595 32.3588 34.453 32.4595 34.423 32.5545L35.4067 32.8652C35.4869 32.6113 35.5044 32.3415 35.4575 32.0791L34.442 32.261ZM34.3223 31.9923C34.3834 32.071 34.4245 32.1633 34.442 32.261L35.4575 32.0791C35.4105 31.8168 35.3004 31.5699 35.1372 31.3597L34.3223 31.9923ZM34.0915 31.81C34.182 31.8512 34.2616 31.9142 34.3224 31.9924L35.1371 31.3596C34.9738 31.1493 34.7613 30.9815 34.5193 30.8712L34.0915 31.81ZM25.4875 27.93L34.0934 31.8108L34.5174 30.8704L25.9116 26.9896L25.4875 27.93ZM24.7991 27.6196L25.4875 27.93L25.9116 26.9896L25.2232 26.6791L24.7991 27.6196ZM24.7959 26.6352L24.6465 26.7846L25.3759 27.5141L25.5253 27.3648L24.7959 26.6352ZM25.1606 26.4842H22.0448V27.5158H25.1606V26.4842ZM22.4709 27.3194C22.4805 27.2882 22.4927 27.2579 22.5071 27.2289L21.5825 26.7711C21.5439 26.8491 21.5115 26.9302 21.4855 27.0138L22.4709 27.3194ZM22.453 27.6102C22.4356 27.5133 22.4417 27.4135 22.4709 27.3194L21.4855 27.0138C21.4073 27.266 21.3909 27.5333 21.4377 27.7931L22.453 27.6102ZM22.5712 27.8766C22.511 27.7985 22.4705 27.7072 22.453 27.6102L21.4377 27.7932C21.4845 28.053 21.5932 28.2978 21.7545 28.5068L22.5712 27.8766ZM22.798 28.058C22.709 28.0165 22.6312 27.9543 22.5712 27.8765L21.7545 28.5068C21.9152 28.7151 22.1235 28.8818 22.3618 28.993L22.798 28.058ZM31.3485 31.9363L22.793 28.0557L22.3668 28.9953L30.9224 32.8758L31.3485 31.9363ZM32.0347 32.2475L31.3485 31.9363L30.9224 32.8758L31.6086 33.187L32.0347 32.2475ZM31.6535 33.6147L32.1863 33.082L31.4569 32.3524L30.9241 32.8851L31.6535 33.6147ZM27.3581 37.9092L31.6535 33.6147L30.9241 32.8851L26.6287 37.1797L27.3581 37.9092ZM27.0915 38.1757L27.358 37.9093L26.6287 37.1796L26.3622 37.4461L27.0915 38.1757ZM26.1584 38.1024L26.4951 38.2718L26.9585 37.35L26.6218 37.1807L26.1584 38.1024ZM23.3332 36.6819L26.1583 38.1024L26.6218 37.1807L23.7967 35.7602L23.3332 36.6819ZM23.3306 36.6806L23.3376 36.6841L23.7923 35.758L23.7853 35.7546L23.3306 36.6806ZM23.3044 36.6669L23.3113 36.6706L23.8046 35.7646L23.7977 35.7608L23.3044 36.6669ZM22.934 36.5985C23.0622 36.5819 23.1921 36.6061 23.3055 36.6675L23.7966 35.7602C23.4926 35.5956 23.1446 35.5311 22.8021 35.5753L22.934 36.5985ZM22.5966 36.7559C22.6901 36.6698 22.8081 36.6148 22.9343 36.5984L22.8018 35.5753C22.4641 35.6191 22.1483 35.7664 21.898 35.9969L22.5966 36.7559ZM19.7005 39.7179L22.616 36.7371L21.8785 36.0157L18.963 38.9966L19.7005 39.7179ZM19.6947 39.7237L19.6977 39.7207L18.9657 38.9938L18.9627 38.9968L19.6947 39.7237ZM19.5158 40.157C19.5158 39.9947 19.5801 39.839 19.6944 39.724L18.963 38.9965C18.6563 39.3049 18.4842 39.7221 18.4842 40.157H19.5158ZM19.6947 40.5903C19.5802 40.4749 19.5158 40.3188 19.5158 40.157H18.4842C18.4842 40.5919 18.6567 41.0091 18.9627 41.3172L19.6947 40.5903ZM30.4138 51.307L19.6934 40.589L18.964 41.3186L29.6844 52.0366L30.4138 51.307ZM30.8456 51.4842C30.6833 51.4842 30.5276 51.42 30.4126 51.3058L29.6857 52.0378C29.9941 52.344 30.411 52.5158 30.8456 52.5158V51.4842ZM31.2789 51.3055C31.1638 51.4199 31.008 51.4842 30.8456 51.4842V52.5158C31.2804 52.5158 31.6977 52.3439 32.0062 52.0373L31.2789 51.3055ZM31.2809 51.3036L31.2779 51.3066L32.0072 52.0362L32.0103 52.0332L31.2809 51.3036ZM34.2731 48.3781L31.285 51.2995L32.0062 52.0372L34.9943 49.1158L34.2731 48.3781ZM34.2892 48.363L34.2882 48.364L34.9792 49.13L34.9802 49.129L34.2892 48.363ZM34.445 48.043C34.424 48.1708 34.3633 48.2887 34.2714 48.3799L34.998 49.1122C35.2442 48.8679 35.407 48.552 35.463 48.2097L34.445 48.043ZM34.3876 47.668C34.4459 47.7836 34.466 47.9149 34.445 48.0429L35.463 48.2098C35.5193 47.8669 35.4655 47.5148 35.3092 47.2042L34.3876 47.668ZM32.9669 44.8434L34.3876 47.6679L35.3092 47.2043L33.8885 44.3798L32.9669 44.8434ZM32.7975 44.5066L32.9668 44.8433L33.8885 44.3798L33.7191 44.0431L32.7975 44.5066ZM33.1601 43.6436L32.8936 43.9101L33.623 44.6396L33.8895 44.3732L33.1601 43.6436ZM37.4556 39.349L33.1601 43.6436L33.8895 44.3732L38.185 40.0786L37.4556 39.349ZM37.9882 38.8164L37.4556 39.3491L38.185 40.0786L38.7177 39.5459L37.9882 38.8164ZM39.1341 39.654L38.8227 38.968L37.8833 39.3943L38.1946 40.0804L39.1341 39.654ZM43.0146 48.2059L39.1341 39.654L38.1946 40.0803L42.0752 48.6322L43.0146 48.2059ZM43.0124 48.2011L43.0115 48.1993L42.0782 48.6389L42.0791 48.6406L43.0124 48.2011ZM43.1945 48.4293C43.1169 48.3695 43.0547 48.2918 43.0131 48.2027L42.0783 48.639C42.1895 48.8773 42.3562 49.0856 42.5647 49.2464L43.1945 48.4293ZM43.4611 48.5477C43.364 48.5302 43.2727 48.4897 43.1949 48.4296L42.5644 49.2461C42.7735 49.4076 43.0184 49.5162 43.2783 49.563L43.4611 48.5477ZM43.7521 48.5298C43.6579 48.559 43.5581 48.5651 43.4611 48.5477L43.2783 49.563C43.5382 49.6098 43.8055 49.5934 44.0577 49.5151L43.7521 48.5298ZM44.0016 48.3804C43.9315 48.4495 43.846 48.5007 43.7523 48.5297L44.0575 49.5152C44.3094 49.4372 44.5385 49.2998 44.726 49.115L44.0016 48.3804ZM44 48.382L43.9991 48.383L44.7285 49.1124L44.7295 49.1115L44 48.382ZM47.8933 44.4897L44 48.382L44.7294 49.1115L48.6227 45.2192L47.8933 44.4897ZM47.8949 44.488L47.8933 44.4897L48.6227 45.2192L48.6244 45.2175L47.8949 44.488ZM48.0485 44.2065C48.0226 44.3142 47.9681 44.413 47.8905 44.4925L48.6288 45.213C48.8361 45.0007 48.9823 44.7362 49.0516 44.4472L48.0485 44.2065ZM48.0378 43.8809C48.0706 43.9865 48.0743 44.099 48.0485 44.2065L49.0516 44.4473C49.1208 44.1592 49.1109 43.8579 49.0231 43.575L48.0378 43.8809ZM44.474 33.1757L48.041 43.8909L49.0199 43.5651L45.4529 32.8498L44.474 33.1757ZM44.3735 32.8736L44.474 33.1757L45.4529 32.8498L45.3523 32.5477L44.3735 32.8736ZM44.7171 32.1223L44.4943 32.3498L45.2314 33.0715L45.4542 32.844L44.7171 32.1223ZM49.2934 27.4479L44.7171 32.1223L45.4542 32.844L50.0305 28.1696L49.2934 27.4479ZM49.302 27.4392L49.2968 27.4443L50.027 28.1731L50.0321 28.168L49.302 27.4392ZM50.1814 26.1268C49.9787 26.6177 49.6803 27.0633 49.3035 27.4377L50.0306 28.1695C50.5046 27.6986 50.88 27.138 51.135 26.5205L50.1814 26.1268ZM50.4841 24.5785C50.4871 25.1095 50.3841 25.6358 50.1814 26.1268L51.135 26.5205C51.3899 25.903 51.5195 25.2409 51.5157 24.5727L50.4841 24.5785ZM50.4841 24.572V24.5756H51.5158V24.572H50.4841ZM49.8032 22.3185C50.2483 22.9855 50.4852 23.7695 50.4841 24.5713L51.5158 24.5728C51.5171 23.5667 51.2198 22.5828 50.6613 21.7458L49.8032 22.3185ZM47.9842 20.8244C48.7251 21.1314 49.3582 21.6514 49.8032 22.3184L50.6614 21.7459C50.103 20.9089 49.3087 20.2565 48.3792 19.8714L47.9842 20.8244ZM45.6414 20.5939C46.4279 20.4372 47.2433 20.5174 47.9843 20.8244L48.3792 19.8714C47.4496 19.4862 46.4265 19.3856 45.4398 19.5822L45.6414 20.5939ZM43.5655 21.7052C44.1321 21.1376 44.8548 20.7507 45.6414 20.594L45.4398 19.5822C44.4529 19.7789 43.5462 20.2643 42.8354 20.9764L43.5655 21.7052ZM38.9228 26.347L43.5652 21.7056L42.8358 20.976L38.1934 25.6174L38.9228 26.347ZM38.6949 26.5748L38.9228 26.347L38.1934 25.6174L37.9655 25.8452L38.6949 26.5748ZM37.8616 26.5977L38.1674 26.6995L38.4931 25.7206L38.1872 25.6188L37.8616 26.5977ZM27.144 23.0314L37.8616 26.5977L38.1873 25.6188L27.4697 22.0526L27.144 23.0314ZM26.8282 23.024C26.9358 22.9982 27.0483 23.0019 27.1539 23.0346L27.4597 22.0494C27.1769 21.9616 26.8756 21.9517 26.5875 22.0208L26.8282 23.024ZM26.5419 23.1822C26.6212 23.1046 26.7202 23.0499 26.8282 23.024L26.5875 22.0208C26.2982 22.0902 26.0331 22.2367 25.8205 22.4448L26.5419 23.1822ZM24.3388 25.3663L26.5443 23.1798L25.818 22.4472L23.6125 24.6337L24.3388 25.3663ZM23.9757 25.5158H27V24.4842H23.9757V25.5158ZM26.4842 25V25.161H27.5158V25H26.4842ZM26.6673 24.7641L26.6353 24.7962L27.3647 25.5257L27.3967 25.4937L26.6673 24.7641ZM26.8954 24.5362L26.6673 24.7641L27.3967 25.4937L27.6248 25.2657L26.8954 24.5362ZM27.729 24.5135L27.4231 24.4116L27.097 25.3903L27.4028 25.4923L27.729 24.5135ZM38.43 28.0798L27.729 24.5135L27.4028 25.4923L38.1038 29.0585L38.43 28.0798ZM38.7454 28.0871C38.6379 28.1129 38.5254 28.1092 38.4198 28.0765L38.114 29.0618C38.3968 29.1495 38.6981 29.1594 38.9861 29.0903L38.7454 28.0871ZM39.0314 27.9292C38.9522 28.0066 38.8533 28.0612 38.7454 28.0871L38.9861 29.0903C39.2749 29.021 39.5397 28.8748 39.7523 28.6672L39.0314 27.9292ZM39.0299 27.9307L39.0283 27.9323L39.7553 28.6642L39.7569 28.6626L39.0299 27.9307ZM44.376 22.5857L39.0287 27.9319L39.7581 28.6615L45.1054 23.3153L44.376 22.5857ZM45.2875 21.9678C44.9442 22.1122 44.6331 22.3235 44.3724 22.5894L45.109 23.3117C45.2738 23.1437 45.4704 23.0101 45.6875 22.9188L45.2875 21.9678ZM46.3753 21.7483C46.0017 21.7483 45.6319 21.823 45.2875 21.9679L45.6875 22.9188C45.9053 22.8272 46.1391 22.78 46.3753 22.78V21.7483ZM47.4633 21.9679C47.1189 21.823 46.749 21.7483 46.3753 21.7483V22.78C46.6116 22.78 46.8455 22.8272 47.0633 22.9188L47.4633 21.9679ZM48.37 22.5809C48.111 22.319 47.8028 22.1107 47.4633 21.9679L47.0633 22.9188C47.278 23.0091 47.4728 23.1408 47.6364 23.3063L48.37 22.5809ZM48.9953 23.4854C48.8489 23.1379 48.6311 22.8251 48.3559 22.5672L47.6505 23.32C47.82 23.4789 47.9543 23.6717 48.0445 23.8859L48.9953 23.4854ZM49.2056 24.5792C49.2126 24.204 49.1409 23.8314 48.9953 23.4855L48.0445 23.8858C48.1343 24.0991 48.1784 24.3288 48.1741 24.56L49.2056 24.5792ZM49.0277 25.6228C49.1564 25.2814 49.2167 24.9181 49.2054 24.5536L48.1743 24.5855C48.1814 24.8152 48.1434 25.044 48.0624 25.259L49.0277 25.6228ZM48.4416 26.5584C48.6974 26.2888 48.8968 25.9706 49.0278 25.6227L48.0623 25.2591C47.9798 25.4782 47.8543 25.6786 47.6931 25.8485L48.4416 26.5584ZM48.4268 26.5737L48.4365 26.5638L47.6982 25.8432L47.6885 25.8532L48.4268 26.5737ZM43.0732 31.9262L48.4224 26.5782L47.693 25.8487L42.3438 31.1967L43.0732 31.9262ZM43.0831 31.9161L43.0847 31.9144L42.3323 31.2085L42.3308 31.2102L43.0831 31.9161ZM42.918 32.2093C42.9439 32.1016 42.9984 32.0029 43.0758 31.9237L42.338 31.2026C42.1304 31.4151 41.9842 31.6798 41.9148 31.9687L42.918 32.2093ZM42.9286 32.5349C42.8959 32.4293 42.8922 32.3168 42.918 32.2095L41.9149 31.9685C41.8457 32.2565 41.8556 32.5578 41.9433 32.8405L42.9286 32.5349ZM46.4923 43.2233L42.9253 32.5246L41.9466 32.8508L45.5136 43.5496L46.4923 43.2233ZM46.5943 43.5289L46.4922 43.2231L45.5136 43.5497L45.6157 43.8555L46.5943 43.5289ZM46.2415 44.285L46.4696 44.0571L45.7404 43.3273L45.5123 43.5553L46.2415 44.285ZM44.7547 45.7715L46.2416 44.2849L45.5122 43.5554L44.0253 45.0419L44.7547 45.7715ZM44.2225 46.3037L44.7547 45.7715L44.0252 45.042L43.493 45.5742L44.2225 46.3037ZM43.0766 45.4673L43.3882 46.1525L44.3273 45.7254L44.0157 45.0403L43.0766 45.4673ZM39.1941 36.9276L43.0766 45.4673L44.0157 45.0403L40.1332 36.5006L39.1941 36.9276ZM39.0128 36.6974C39.0909 36.7583 39.1531 36.8373 39.194 36.9274L40.1333 36.5008C40.0235 36.2591 39.8568 36.0475 39.6475 35.8841L39.0128 36.6974ZM39.0252 35.0494C38.6786 34.9862 38.3216 35.0083 37.9853 35.1142L38.2951 36.0982C38.4712 36.0428 38.6583 36.0311 38.84 36.0643L39.0252 35.0494ZM39.9686 35.473C39.6932 35.258 39.3696 35.1126 39.0257 35.0495L38.8395 36.0642C39.0198 36.0973 39.1894 36.1735 39.3338 36.2862L39.9686 35.473ZM40.6083 36.2849C40.4637 35.9667 40.2442 35.6882 39.9687 35.473L39.3338 36.2862C39.4783 36.399 39.5934 36.5451 39.6691 36.7118L40.6083 36.2849ZM44.2601 44.3172L40.6083 36.2849L39.6692 36.7118L43.321 44.7442L44.2601 44.3172ZM44.0169 45.0338L44.1552 44.8955L43.4258 44.166L43.2875 44.3043L44.0169 45.0338ZM44.3858 44.6732L44.0169 44.3043L43.2875 45.0338L43.6564 45.4027L44.3858 44.6732ZM44.2827 44.3525L43.8077 44.5683L44.2345 45.5075L44.7095 45.2917L44.2827 44.3525ZM43.9456 44.8575L44.0265 45.0356L44.9657 44.6086L44.8847 44.4305L43.9456 44.8575ZM45.1433 43.1866L44.0504 44.2792L44.7798 45.0088L45.8727 43.9161L45.1433 43.1866ZM41.4501 33.0112L45.0187 43.7145L45.9974 43.3882L42.4288 32.6849L41.4501 33.0112ZM41.4076 31.8468C41.3158 32.2287 41.3296 32.6282 41.4474 33.0028L42.4316 32.6933C42.3698 32.497 42.3626 32.2878 42.4107 32.0878L41.4076 31.8468ZM41.9677 30.8351C41.6928 31.1154 41.4991 31.4652 41.4075 31.8469L42.4107 32.0876C42.4587 31.8877 42.5602 31.7043 42.7043 31.5574L41.9677 30.8351ZM37.8487 36.3627L42.6988 31.5629L41.9731 30.8296L37.1231 35.6294L37.8487 36.3627ZM37.1268 35.6258C37.1163 35.6359 37.106 35.6461 37.0958 35.6564L37.8288 36.3824C37.8342 36.377 37.8396 36.3716 37.845 36.3663L37.1268 35.6258ZM37.8251 36.386L37.8487 36.3627L37.1231 35.6294L37.0995 35.6528L37.8251 36.386ZM37.9856 35.1141C37.6631 35.2155 37.369 35.3908 37.1268 35.6258L37.845 36.3663C37.972 36.2432 38.126 36.1514 38.2949 36.0983L37.9856 35.1141ZM38.4253 35.4638L38.3311 35.9768L39.3459 36.163L39.44 35.6499L38.4253 35.4638Z" fill="#252525"/>
</g>
<defs>
<clipPath id="clip0_1756_164">
<rect width="33" height="33" fill="white" transform="translate(18 19)"/>
</clipPath>
</defs>
</svg>
