<svg width="68" height="68" viewBox="0 0 68 68" fill="none" xmlns="http://www.w3.org/2000/svg">
<rect x="0.515821" y="0.515821" width="66.9684" height="66.9684" rx="33.4842" stroke="#33AD43" stroke-width="1.03164"/>
<g clip-path="url(#clip0_1756_150)">
<path fill-rule="evenodd" clip-rule="evenodd" d="M38.4348 29.5652V29.0435V25.7391C38.4348 25.4393 38.3157 25.1518 38.1037 24.9398C37.8917 24.7278 37.6042 24.6087 37.3044 24.6087H30.6956C30.3958 24.6087 30.1084 24.7278 29.8963 24.9398C29.6843 25.1518 29.5652 25.4393 29.5652 25.7391V29.0435V29.5652H29.0435H25.7391C25.4393 29.5652 25.1518 29.6843 24.9398 29.8963C24.7278 30.1083 24.6087 30.3959 24.6087 30.6956V37.3043C24.6087 37.6042 24.7278 37.8917 24.9398 38.1037C25.1518 38.3156 25.4393 38.4348 25.7391 38.4348H29.0435H29.5652V38.9566V42.2608C29.5652 42.5607 29.6843 42.8482 29.8963 43.0602C30.1084 43.2722 30.3958 43.3913 30.6956 43.3913H37.3044C37.6042 43.3913 37.8917 43.2722 38.1037 43.0602C38.3157 42.8482 38.4348 42.5607 38.4348 42.2608V38.9566V38.4348H38.9565H42.2609C42.5607 38.4348 42.8482 38.3156 43.0602 38.1037C43.2723 37.8917 43.3913 37.6042 43.3913 37.3043V35H41.1304V35.6522V36.1739H40.6087H37.3044C37.0046 36.1739 36.717 36.2931 36.505 36.505C36.2931 36.717 36.1739 37.0045 36.1739 37.3043V40.6087V41.1304H35.6522H32.3479H31.8261V40.6087V37.3043C31.8261 37.0045 31.707 36.717 31.495 36.505C31.283 36.2931 30.9955 36.1739 30.6956 36.1739H27.3913H26.8696V35.6522V32.3478V31.826H27.3913H30.6956C30.9955 31.826 31.283 31.707 31.495 31.4949C31.707 31.283 31.8261 30.9954 31.8261 30.6956V27.3913V26.8696H32.3479H35.6522H36.1739V27.3913V30.6956C36.1739 30.9954 36.2931 31.283 36.505 31.4949C36.717 31.707 37.0046 31.826 37.3044 31.826H40.6087H41.1304V32.3478V33H43.3913V30.6956C43.3913 30.3959 43.2723 30.1083 43.0602 29.8963C42.8482 29.6843 42.5607 29.5652 42.2609 29.5652H38.9565H38.4348ZM45.5652 18H22.4348C21.2586 18 20.1306 18.4672 19.2989 19.2989C18.4672 20.1306 18 21.2586 18 22.4348V45.5652C18 46.7414 18.4672 47.8694 19.2989 48.7011C20.1306 49.5327 21.2586 50 22.4348 50H45.5652C46.7414 50 47.8694 49.5327 48.7011 48.7011C49.5328 47.8694 50 46.7414 50 45.5652V22.4348C50 21.2586 49.5328 20.1306 48.7011 19.2989C47.8694 18.4672 46.7414 18 45.5652 18ZM47.7392 45.5652C47.7392 46.1417 47.5102 46.6948 47.1025 47.1025C46.6948 47.5102 46.1418 47.7391 45.5652 47.7391H22.4348C21.8582 47.7391 21.3053 47.5102 20.8976 47.1025C20.4899 46.6948 20.2609 46.1418 20.2609 45.5652V22.4348C20.2609 21.8582 20.4899 21.3053 20.8976 20.8976C21.3053 20.4899 21.8582 20.2609 22.4348 20.2609H45.5652C46.1418 20.2609 46.6948 20.4899 47.1025 20.8976C47.5102 21.3053 47.7392 21.8582 47.7392 22.4348V45.5652Z" fill="#33AD43"/>
<path d="M38.4348 29.5652H37.919V30.0811H38.4348V29.5652ZM38.1037 24.9398L38.4684 24.575L38.4684 24.575L38.1037 24.9398ZM29.8963 24.9398L29.5316 24.575L29.5316 24.575L29.8963 24.9398ZM29.5652 29.5652V30.0811H30.081V29.5652H29.5652ZM24.9398 29.8963L25.3045 30.2611L25.3046 30.261L24.9398 29.8963ZM24.9398 38.1037L24.575 38.4684L24.5751 38.4685L24.9398 38.1037ZM29.5652 38.4348H30.081V37.919H29.5652V38.4348ZM29.8963 43.0602L29.5316 43.425L29.5317 43.4251L29.8963 43.0602ZM38.1037 43.0602L38.4684 43.4251L38.4684 43.425L38.1037 43.0602ZM38.4348 38.4348V37.919H37.919V38.4348H38.4348ZM43.0602 38.1037L43.4249 38.4685L43.425 38.4685L43.0602 38.1037ZM43.3913 35H43.9072V34.4842H43.3913V35ZM41.1304 35V34.4842H40.6146V35H41.1304ZM41.1304 36.1739V36.6897H41.6462V36.1739H41.1304ZM36.505 36.505L36.1403 36.1402L36.1402 36.1404L36.505 36.505ZM36.1739 41.1304V41.6463H36.6897V41.1304H36.1739ZM31.8261 41.1304H31.3103V41.6463H31.8261V41.1304ZM31.495 36.505L31.8599 36.1403L31.8597 36.1402L31.495 36.505ZM26.8696 36.1739H26.3538V36.6897H26.8696V36.1739ZM26.8696 31.826V31.3102H26.3538V31.826H26.8696ZM31.495 31.4949L31.1303 31.1302L31.1303 31.1302L31.495 31.4949ZM31.8261 26.8696V26.3538H31.3103V26.8696H31.8261ZM36.1739 26.8696H36.6897V26.3538H36.1739V26.8696ZM36.505 31.4949L36.1403 31.8597V31.8597L36.505 31.4949ZM41.1304 31.826H41.6462V31.3102H41.1304V31.826ZM41.1304 33H40.6146V33.5158H41.1304V33ZM43.3913 33V33.5158H43.9072V33H43.3913ZM43.0602 29.8963L42.6955 30.2611L42.6956 30.2612L43.0602 29.8963ZM19.2989 19.2989L18.9342 18.9342L19.2989 19.2989ZM19.2989 48.7011L19.6637 48.3363H19.6637L19.2989 48.7011ZM48.7011 48.7011L48.3364 48.3363L48.3363 48.3363L48.7011 48.7011ZM48.7011 19.2989L48.3363 19.6636L48.3364 19.6637L48.7011 19.2989ZM20.8976 47.1025L20.5329 47.4672H20.5329L20.8976 47.1025ZM47.1025 20.8976L46.7377 21.2623V21.2623L47.1025 20.8976ZM37.919 29.0435V29.5652H38.9506V29.0435H37.919ZM37.919 25.7391V29.0435H38.9506V25.7391H37.919ZM37.739 25.3046C37.8542 25.4198 37.919 25.5761 37.919 25.7391H38.9506C38.9506 25.3026 38.7772 24.8838 38.4684 24.575L37.739 25.3046ZM37.3044 25.1245C37.4673 25.1245 37.6237 25.1892 37.739 25.3046L38.4684 24.575C38.1597 24.2664 37.741 24.0929 37.3044 24.0929V25.1245ZM30.6956 25.1245H37.3044V24.0929H30.6956V25.1245ZM30.261 25.3046C30.3764 25.1892 30.5327 25.1245 30.6956 25.1245V24.0929C30.259 24.0929 29.8403 24.2664 29.5316 24.575L30.261 25.3046ZM30.081 25.7391C30.081 25.5761 30.1458 25.4198 30.261 25.3046L29.5316 24.575C29.2228 24.8838 29.0494 25.3026 29.0494 25.7391H30.081ZM30.081 29.0435V25.7391H29.0494V29.0435H30.081ZM30.081 29.5652V29.0435H29.0494V29.5652H30.081ZM29.0435 30.0811H29.5652V29.0494H29.0435V30.0811ZM25.7391 30.0811H29.0435V29.0494H25.7391V30.0811ZM25.3046 30.261C25.4198 30.1458 25.5761 30.0811 25.7391 30.0811V29.0494C25.3026 29.0494 24.8838 29.2228 24.575 29.5316L25.3046 30.261ZM25.1245 30.6956C25.1245 30.5326 25.1893 30.3763 25.3045 30.2611L24.5751 29.5315C24.2663 29.8403 24.0929 30.2591 24.0929 30.6956H25.1245ZM25.1245 37.3043V30.6956H24.0929V37.3043H25.1245ZM25.3046 37.739C25.1893 37.6237 25.1245 37.4674 25.1245 37.3043H24.0929C24.0929 37.741 24.2663 38.1597 24.575 38.4684L25.3046 37.739ZM25.7391 37.919C25.5762 37.919 25.4198 37.8542 25.3045 37.7389L24.5751 38.4685C24.8838 38.7771 25.3025 38.9506 25.7391 38.9506V37.919ZM29.0435 37.919H25.7391V38.9506H29.0435V37.919ZM29.5652 37.919H29.0435V38.9506H29.5652V37.919ZM30.081 38.9566V38.4348H29.0494V38.9566H30.081ZM30.081 42.2608V38.9566H29.0494V42.2608H30.081ZM30.2611 42.6955C30.1458 42.5802 30.081 42.424 30.081 42.2608H29.0494C29.0494 42.6975 29.2228 43.1162 29.5316 43.425L30.2611 42.6955ZM30.6956 42.8755C30.5327 42.8755 30.3764 42.8108 30.261 42.6954L29.5317 43.4251C29.8403 43.7336 30.2589 43.9072 30.6956 43.9072V42.8755ZM37.3044 42.8755H30.6956V43.9072H37.3044V42.8755ZM37.7391 42.6954C37.6236 42.8108 37.4673 42.8755 37.3044 42.8755V43.9072C37.7411 43.9072 38.1597 43.7336 38.4684 43.4251L37.7391 42.6954ZM37.919 42.2608C37.919 42.4239 37.8542 42.5802 37.739 42.6955L38.4684 43.425C38.7772 43.1162 38.9506 42.6975 38.9506 42.2608H37.919ZM37.919 38.9566V42.2608H38.9506V38.9566H37.919ZM37.919 38.4348V38.9566H38.9506V38.4348H37.919ZM38.9565 37.919H38.4348V38.9506H38.9565V37.919ZM42.2609 37.919H38.9565V38.9506H42.2609V37.919ZM42.6956 37.7389C42.5802 37.8542 42.4238 37.919 42.2609 37.919V38.9506C42.6976 38.9506 43.1162 38.7771 43.4249 38.4685L42.6956 37.7389ZM42.8755 37.3043C42.8755 37.4674 42.8108 37.6237 42.6955 37.739L43.425 38.4685C43.7338 38.1597 43.9072 37.741 43.9072 37.3043H42.8755ZM42.8755 35V37.3043H43.9072V35H42.8755ZM43.3913 34.4842H41.1304V35.5158H43.3913V34.4842ZM41.6462 35.6522V35H40.6146V35.6522H41.6462ZM41.6462 36.1739V35.6522H40.6146V36.1739H41.6462ZM40.6087 36.6897H41.1304V35.6581H40.6087V36.6897ZM37.3044 36.6897H40.6087V35.6581H37.3044V36.6897ZM36.8696 36.8698C36.985 36.7545 37.1415 36.6897 37.3044 36.6897V35.6581C36.8678 35.6581 36.449 35.8316 36.1403 36.1402L36.8696 36.8698ZM36.6897 37.3043C36.6897 37.1414 36.7545 36.9851 36.8698 36.8697L36.1402 36.1404C35.8317 36.449 35.6581 36.8676 35.6581 37.3043H36.6897ZM36.6897 40.6087V37.3043H35.6581V40.6087H36.6897ZM36.6897 41.1304V40.6087H35.6581V41.1304H36.6897ZM35.6522 41.6463H36.1739V40.6146H35.6522V41.6463ZM32.3479 41.6463H35.6522V40.6146H32.3479V41.6463ZM31.8261 41.6463H32.3479V40.6146H31.8261V41.6463ZM31.3103 40.6087V41.1304H32.342V40.6087H31.3103ZM31.3103 37.3043V40.6087H32.342V37.3043H31.3103ZM31.1302 36.8697C31.2456 36.9851 31.3103 37.1414 31.3103 37.3043H32.342C32.342 36.8676 32.1684 36.449 31.8599 36.1403L31.1302 36.8697ZM30.6956 36.6897C30.8586 36.6897 31.015 36.7545 31.1304 36.8698L31.8597 36.1402C31.551 35.8316 31.1324 35.6581 30.6956 35.6581V36.6897ZM27.3913 36.6897H30.6956V35.6581H27.3913V36.6897ZM26.8696 36.6897H27.3913V35.6581H26.8696V36.6897ZM26.3538 35.6522V36.1739H27.3854V35.6522H26.3538ZM26.3538 32.3478V35.6522H27.3854V32.3478H26.3538ZM26.3538 31.826V32.3478H27.3854V31.826H26.3538ZM27.3913 31.3102H26.8696V32.3419H27.3913V31.3102ZM30.6956 31.3102H27.3913V32.3419H30.6956V31.3102ZM31.1303 31.1302C31.015 31.2455 30.8587 31.3102 30.6956 31.3102V32.3419C31.1323 32.3419 31.551 32.1685 31.8598 31.8597L31.1303 31.1302ZM31.3103 30.6956C31.3103 30.8586 31.2455 31.015 31.1303 31.1302L31.8598 31.8597C32.1684 31.551 32.342 31.1323 32.342 30.6956H31.3103ZM31.3103 27.3913V30.6956H32.342V27.3913H31.3103ZM31.3103 26.8696V27.3913H32.342V26.8696H31.3103ZM32.3479 26.3538H31.8261V27.3854H32.3479V26.3538ZM35.6522 26.3538H32.3479V27.3854H35.6522V26.3538ZM36.1739 26.3538H35.6522V27.3854H36.1739V26.3538ZM36.6897 27.3913V26.8696H35.6581V27.3913H36.6897ZM36.6897 30.6956V27.3913H35.6581V30.6956H36.6897ZM36.8697 31.1302C36.7545 31.015 36.6897 30.8586 36.6897 30.6956H35.6581C35.6581 31.1323 35.8316 31.551 36.1403 31.8597L36.8697 31.1302ZM37.3044 31.3102C37.1414 31.3102 36.985 31.2455 36.8697 31.1302L36.1403 31.8597C36.4491 32.1685 36.8679 32.3419 37.3044 32.3419V31.3102ZM40.6087 31.3102H37.3044V32.3419H40.6087V31.3102ZM41.1304 31.3102H40.6087V32.3419H41.1304V31.3102ZM41.6462 32.3478V31.826H40.6146V32.3478H41.6462ZM41.6462 33V32.3478H40.6146V33H41.6462ZM41.1304 33.5158H43.3913V32.4842H41.1304V33.5158ZM42.8755 30.6956V33H43.9072V30.6956H42.8755ZM42.6956 30.2612C42.8107 30.3763 42.8755 30.5326 42.8755 30.6956H43.9072C43.9072 30.2591 43.7338 29.8403 43.4249 29.5315L42.6956 30.2612ZM42.2609 30.0811C42.4239 30.0811 42.5802 30.1458 42.6955 30.2611L43.425 29.5316C43.1162 29.2228 42.6975 29.0494 42.2609 29.0494V30.0811ZM38.9565 30.0811H42.2609V29.0494H38.9565V30.0811ZM38.4348 30.0811H38.9565V29.0494H38.4348V30.0811ZM22.4348 18.5158H45.5652V17.4842H22.4348V18.5158ZM19.6637 19.6637C20.3986 18.9287 21.3954 18.5158 22.4348 18.5158V17.4842C21.1218 17.4842 19.8626 18.0058 18.9342 18.9342L19.6637 19.6637ZM18.5158 22.4348C18.5158 21.3954 18.9287 20.3986 19.6637 19.6637L18.9342 18.9342C18.0058 19.8626 17.4842 21.1218 17.4842 22.4348H18.5158ZM18.5158 45.5652V22.4348H17.4842V45.5652H18.5158ZM19.6637 48.3363C18.9287 47.6014 18.5158 46.6046 18.5158 45.5652H17.4842C17.4842 46.8782 18.0058 48.1374 18.9342 49.0658L19.6637 48.3363ZM22.4348 49.4842C21.3954 49.4842 20.3986 49.0713 19.6637 48.3363L18.9342 49.0658C19.8626 49.9942 21.1218 50.5158 22.4348 50.5158V49.4842ZM45.5652 49.4842H22.4348V50.5158H45.5652V49.4842ZM48.3363 48.3363C47.6014 49.0713 46.6046 49.4842 45.5652 49.4842V50.5158C46.8782 50.5158 48.1374 49.9942 49.0658 49.0658L48.3363 48.3363ZM49.4842 45.5652C49.4842 46.6046 49.0713 47.6014 48.3364 48.3363L49.0658 49.0658C49.9943 48.1374 50.5158 46.8782 50.5158 45.5652H49.4842ZM49.4842 22.4348V45.5652H50.5158V22.4348H49.4842ZM48.3364 19.6637C49.0713 20.3986 49.4842 21.3954 49.4842 22.4348H50.5158C50.5158 21.1218 49.9943 19.8626 49.0658 18.9342L48.3364 19.6637ZM45.5652 18.5158C46.6046 18.5158 47.6014 18.9287 48.3363 19.6636L49.0658 18.9342C48.1374 18.0058 46.8782 17.4842 45.5652 17.4842V18.5158ZM47.4672 47.4672C47.9716 46.9628 48.255 46.2785 48.255 45.5652H47.2234C47.2234 46.0049 47.0487 46.4268 46.7377 46.7377L47.4672 47.4672ZM45.5652 48.2549C46.2786 48.2549 46.9627 47.9717 47.4672 47.4672L46.7377 46.7377C46.4268 47.0486 46.0051 47.2233 45.5652 47.2233V48.2549ZM22.4348 48.2549H45.5652V47.2233H22.4348V48.2549ZM20.5329 47.4672C21.0373 47.9717 21.7215 48.2549 22.4348 48.2549V47.2233C21.995 47.2233 21.5732 47.0486 21.2623 46.7377L20.5329 47.4672ZM19.7451 45.5652C19.7451 46.2786 20.0284 46.9628 20.5329 47.4672L21.2623 46.7377C20.9514 46.4268 20.7767 46.005 20.7767 45.5652H19.7451ZM19.7451 22.4348V45.5652H20.7767V22.4348H19.7451ZM20.5329 20.5329C20.0284 21.0373 19.7451 21.7214 19.7451 22.4348H20.7767C20.7767 21.995 20.9514 21.5733 21.2623 21.2623L20.5329 20.5329ZM22.4348 19.745C21.7214 19.745 21.0373 20.0284 20.5329 20.5329L21.2623 21.2623C21.5733 20.9514 21.995 20.7767 22.4348 20.7767V19.745ZM45.5652 19.745H22.4348V20.7767H45.5652V19.745ZM47.4672 20.5329C46.9628 20.0284 46.2786 19.745 45.5652 19.745V20.7767C46.005 20.7767 46.4268 20.9514 46.7377 21.2623L47.4672 20.5329ZM48.255 22.4348C48.255 21.7214 47.9716 21.0373 47.4672 20.5329L46.7377 21.2623C47.0487 21.5733 47.2234 21.995 47.2234 22.4348H48.255ZM48.255 45.5652V22.4348H47.2234V45.5652H48.255Z" fill="#252525"/>
</g>
<defs>
<clipPath id="clip0_1756_150">
<rect width="33" height="33" fill="white" transform="translate(17 17)"/>
</clipPath>
</defs>
</svg>
