<svg width="68" height="68" viewBox="0 0 68 68" fill="none" xmlns="http://www.w3.org/2000/svg">
<rect x="0.515821" y="0.515821" width="66.9684" height="66.9684" rx="33.4842" stroke="#33AD43" stroke-width="1.03164"/>
<g clip-path="url(#clip0_1756_185)">
<path fill-rule="evenodd" clip-rule="evenodd" d="M35.6435 34.8695V34.3478V27.7391V27.2174H36.1713H39.5139C40.0971 27.2174 40.6564 27.4464 41.0688 27.8541C41.4812 28.2618 41.7129 28.8147 41.7129 29.3913C41.7129 29.6911 41.8335 29.9786 42.0479 30.1907C42.2623 30.4026 42.5532 30.5218 42.8565 30.5218C43.1598 30.5218 43.4506 30.4026 43.6651 30.1907C43.8796 29.9786 44 29.6911 44 29.3913C44 28.2151 43.5273 27.0871 42.686 26.2554C41.8448 25.4238 40.7037 24.9565 39.5139 24.9565H36.1713H35.6435V24.4348V21.1304C35.6435 20.8306 35.523 20.5431 35.3086 20.3311C35.0942 20.1191 34.8033 20 34.5 20C34.1967 20 33.9059 20.1191 33.6914 20.3311C33.477 20.5431 33.3565 20.8306 33.3565 21.1304V24.4348V24.9565H32.8287H31.1574C29.5244 24.9565 27.9582 25.5978 26.8035 26.7394C25.9006 27.6319 25.3071 28.773 25.0911 30H27.4338C27.6123 29.3773 27.9495 28.8038 28.4206 28.338C29.1465 27.6205 30.1309 27.2174 31.1574 27.2174H32.8287H33.3565V27.7391V34.3478V34.8695H32.8287H31.1574C30.1309 34.8695 29.1465 34.4664 28.4206 33.7489C27.9276 33.2616 27.5813 32.6562 27.4099 32H25.0765C25.2793 33.26 25.8793 34.434 26.8035 35.3476C27.9582 36.4891 29.5244 37.1304 31.1574 37.1304H32.8287H33.3565V37.6522V44.2608V44.7826H32.8287H29.4861C28.9029 44.7826 28.3435 44.5536 27.9311 44.1459C27.5187 43.7383 27.287 43.1852 27.287 42.6087C27.287 42.3089 27.1666 42.0213 26.9521 41.8094C26.7377 41.5974 26.4468 41.4783 26.1435 41.4783C25.8402 41.4783 25.5494 41.5974 25.3349 41.8094C25.1205 42.0213 25 42.3089 25 42.6087C25 43.7849 25.4726 44.9129 26.314 45.7446C27.1553 46.5762 28.2963 47.0435 29.4861 47.0435H32.8287H33.3565V47.5652V50.8696C33.3565 51.1694 33.477 51.4569 33.6914 51.6689C33.9059 51.8809 34.1967 52 34.5 52C34.8033 52 35.0942 51.8809 35.3086 51.6689C35.523 51.4569 35.6435 51.1694 35.6435 50.8696V47.5652V47.0435H36.1713H37.8426C39.4757 47.0435 41.0418 46.4022 42.1966 45.2607C43.3513 44.1191 44 42.5709 44 40.9566C44 39.3422 43.3513 37.794 42.1966 36.6524C41.0418 35.5108 39.4757 34.8695 37.8426 34.8695H36.1713H35.6435ZM35.6435 44.7826V44.2608V37.6522V37.1304H36.1713H37.8426C38.8691 37.1304 39.8536 37.5335 40.5794 38.2511C41.3052 38.9686 41.7129 39.9418 41.7129 40.9566C41.7129 41.9712 41.3052 42.9445 40.5794 43.662C39.8536 44.3795 38.8691 44.7826 37.8426 44.7826H36.1713H35.6435Z" fill="#33AD43"/>
<path d="M35.6435 34.8695H35.1277V35.3853H35.6435V34.8695ZM35.6435 27.2174V26.7016H35.1277V27.2174H35.6435ZM41.0688 27.8541L40.7062 28.221L40.7062 28.221L41.0688 27.8541ZM42.0479 30.1907L41.6851 30.5574L41.6853 30.5576L42.0479 30.1907ZM43.6651 30.1907L44.0276 30.5576L44.0277 30.5575L43.6651 30.1907ZM42.686 26.2554L43.0487 25.8886L42.686 26.2554ZM35.6435 24.9565H35.1277V25.4723H35.6435V24.9565ZM35.3086 20.3311L34.9459 20.6979L34.946 20.698L35.3086 20.3311ZM33.6914 20.3311L34.054 20.6979L34.0541 20.6979L33.6914 20.3311ZM33.3565 24.9565V25.4723H33.8723V24.9565H33.3565ZM26.8035 26.7394L26.4408 26.3725L26.4408 26.3725L26.8035 26.7394ZM25.0911 30L24.5831 29.9106L24.4766 30.5158H25.0911V30ZM27.4338 30V30.5158H27.8224L27.9296 30.1422L27.4338 30ZM28.4206 28.338L28.7833 28.7049L28.7833 28.7049L28.4206 28.338ZM33.3565 27.2174H33.8723V26.7016H33.3565V27.2174ZM33.3565 34.8695V35.3853H33.8723V34.8695H33.3565ZM28.4206 33.7489L28.058 34.1158V34.1158L28.4206 33.7489ZM27.4099 32L27.909 31.8696L27.8083 31.4842H27.4099V32ZM25.0765 32V31.4842H24.471L24.5672 32.082L25.0765 32ZM26.8035 35.3476L26.4408 35.7145L26.4408 35.7145L26.8035 35.3476ZM33.3565 37.1304H33.8723V36.6146H33.3565V37.1304ZM33.3565 44.7826V45.2984H33.8723V44.7826H33.3565ZM27.9311 44.1459L27.5685 44.5128H27.5685L27.9311 44.1459ZM26.9521 41.8094L26.5895 42.1762L26.5895 42.1763L26.9521 41.8094ZM25.3349 41.8094L25.6975 42.1763L25.6976 42.1762L25.3349 41.8094ZM26.314 45.7446L26.6766 45.3777H26.6766L26.314 45.7446ZM33.3565 47.0435H33.8723V46.5277H33.3565V47.0435ZM33.6914 51.6689L34.0541 51.3021L34.0541 51.3021L33.6914 51.6689ZM35.3086 51.6689L34.9459 51.3021L34.9458 51.3022L35.3086 51.6689ZM35.6435 47.0435V46.5277H35.1277V47.0435H35.6435ZM42.1966 45.2607L42.5592 45.6275L42.5592 45.6275L42.1966 45.2607ZM42.1966 36.6524L42.5592 36.2856L42.5592 36.2856L42.1966 36.6524ZM35.6435 44.7826H35.1277V45.2984H35.6435V44.7826ZM35.6435 37.1304V36.6146H35.1277V37.1304H35.6435ZM40.5794 38.2511L40.2167 38.6179L40.2167 38.618L40.5794 38.2511ZM40.5794 43.662L40.2167 43.2951L40.5794 43.662ZM35.1277 34.3478V34.8695H36.1593V34.3478H35.1277ZM35.1277 27.7391V34.3478H36.1593V27.7391H35.1277ZM35.1277 27.2174V27.7391H36.1593V27.2174H35.1277ZM36.1713 26.7016H35.6435V27.7332H36.1713V26.7016ZM39.5139 26.7016H36.1713V27.7332H39.5139V26.7016ZM41.4315 27.4873C40.9219 26.9835 40.232 26.7016 39.5139 26.7016V27.7332C39.9622 27.7332 40.391 27.9093 40.7062 28.221L41.4315 27.4873ZM42.2287 29.3913C42.2287 28.676 41.9412 27.9912 41.4315 27.4873L40.7062 28.221C41.0212 28.5324 41.1971 28.9535 41.1971 29.3913H42.2287ZM42.4106 29.8239C42.2934 29.7081 42.2287 29.5523 42.2287 29.3913H41.1971C41.1971 29.8299 41.3735 30.2492 41.6851 30.5574L42.4106 29.8239ZM42.8565 30.0059C42.6881 30.0059 42.5278 29.9398 42.4104 29.8237L41.6853 30.5576C41.9969 30.8654 42.4182 31.0376 42.8565 31.0376V30.0059ZM43.3025 29.8237C43.1851 29.9398 43.0248 30.0059 42.8565 30.0059V31.0376C43.2948 31.0376 43.7161 30.8654 44.0276 30.5576L43.3025 29.8237ZM43.4842 29.3913C43.4842 29.5524 43.4195 29.7081 43.3024 29.8238L44.0277 30.5575C44.3396 30.2492 44.5158 29.8298 44.5158 29.3913H43.4842ZM42.3234 26.6223C43.0673 27.3577 43.4842 28.3539 43.4842 29.3913H44.5158C44.5158 28.0764 43.9873 26.8166 43.0487 25.8886L42.3234 26.6223ZM39.5139 25.4723C40.5688 25.4723 41.5793 25.8867 42.3234 26.6223L43.0487 25.8886C42.1102 24.9609 40.8386 24.4407 39.5139 24.4407V25.4723ZM36.1713 25.4723H39.5139V24.4407H36.1713V25.4723ZM35.6435 25.4723H36.1713V24.4407H35.6435V25.4723ZM35.1277 24.4348V24.9565H36.1593V24.4348H35.1277ZM35.1277 21.1304V24.4348H36.1593V21.1304H35.1277ZM34.946 20.698C35.063 20.8136 35.1277 20.9693 35.1277 21.1304H36.1593C36.1593 20.6919 35.9831 20.2725 35.6712 19.9642L34.946 20.698ZM34.5 20.5158C34.6684 20.5158 34.8287 20.582 34.9459 20.6979L35.6712 19.9643C35.3596 19.6562 34.9381 19.4842 34.5 19.4842V20.5158ZM34.0541 20.6979C34.1713 20.582 34.3316 20.5158 34.5 20.5158V19.4842C34.0618 19.4842 33.6404 19.6562 33.3288 19.9643L34.0541 20.6979ZM33.8723 21.1304C33.8723 20.9693 33.937 20.8137 34.054 20.6979L33.3288 19.9643C33.0169 20.2725 32.8407 20.6919 32.8407 21.1304H33.8723ZM33.8723 24.4348V21.1304H32.8407V24.4348H33.8723ZM33.8723 24.9565V24.4348H32.8407V24.9565H33.8723ZM32.8287 25.4723H33.3565V24.4407H32.8287V25.4723ZM31.1574 25.4723H32.8287V24.4407H31.1574V25.4723ZM27.1661 27.1062C28.2237 26.0607 29.6593 25.4723 31.1574 25.4723V24.4407C29.3895 24.4407 27.6927 25.1349 26.4408 26.3725L27.1661 27.1062ZM25.5991 30.0894C25.7966 28.9676 26.3394 27.9235 27.1661 27.1062L26.4408 26.3725C25.4619 27.3403 24.8176 28.5784 24.5831 29.9106L25.5991 30.0894ZM25.0911 30.5158H27.4338V29.4842H25.0911V30.5158ZM28.058 27.9712C27.5237 28.4994 27.1408 29.1504 26.9379 29.8578L27.9296 30.1422C28.0839 29.6042 28.3753 29.1082 28.7833 28.7049L28.058 27.9712ZM31.1574 26.7016C29.996 26.7016 28.881 27.1576 28.058 27.9712L28.7833 28.7049C29.4119 28.0834 30.2658 27.7332 31.1574 27.7332V26.7016ZM32.8287 26.7016H31.1574V27.7332H32.8287V26.7016ZM33.3565 26.7016H32.8287V27.7332H33.3565V26.7016ZM33.8723 27.7391V27.2174H32.8407V27.7391H33.8723ZM33.8723 34.3478V27.7391H32.8407V34.3478H33.8723ZM33.8723 34.8695V34.3478H32.8407V34.8695H33.8723ZM32.8287 35.3853H33.3565V34.3537H32.8287V35.3853ZM31.1574 35.3853H32.8287V34.3537H31.1574V35.3853ZM28.058 34.1158C28.881 34.9293 29.996 35.3853 31.1574 35.3853V34.3537C30.2658 34.3537 29.4119 34.0035 28.7833 33.3821L28.058 34.1158ZM26.9109 32.1304C27.1056 32.8759 27.4989 33.563 28.058 34.1158L28.7833 33.3821C28.3564 32.9601 28.0571 32.4365 27.909 31.8696L26.9109 32.1304ZM27.4099 31.4842H25.0765V32.5158H27.4099V31.4842ZM27.1661 34.9808C26.3199 34.1442 25.7711 33.07 25.5857 31.918L24.5672 32.082C24.7874 33.45 25.4388 34.7238 26.4408 35.7145L27.1661 34.9808ZM31.1574 36.6146C29.6593 36.6146 28.2237 36.0262 27.1661 34.9808L26.4408 35.7145C27.6928 36.952 29.3895 37.6462 31.1574 37.6462V36.6146ZM32.8287 36.6146H31.1574V37.6462H32.8287V36.6146ZM33.3565 36.6146H32.8287V37.6462H33.3565V36.6146ZM33.8723 37.6522V37.1304H32.8407V37.6522H33.8723ZM33.8723 44.2608V37.6522H32.8407V44.2608H33.8723ZM33.8723 44.7826V44.2608H32.8407V44.7826H33.8723ZM32.8287 45.2984H33.3565V44.2667H32.8287V45.2984ZM29.4861 45.2984H32.8287V44.2667H29.4861V45.2984ZM27.5685 44.5128C28.0781 45.0166 28.768 45.2984 29.4861 45.2984V44.2667C29.0377 44.2667 28.6089 44.0907 28.2938 43.7791L27.5685 44.5128ZM26.7712 42.6087C26.7712 43.3239 27.0587 44.0088 27.5685 44.5128L28.2938 43.7791C27.9788 43.4677 27.8029 43.0465 27.8029 42.6087H26.7712ZM26.5895 42.1763C26.7065 42.2919 26.7712 42.4476 26.7712 42.6087H27.8029C27.8029 42.1702 27.6266 41.7507 27.3147 41.4425L26.5895 42.1763ZM26.1435 41.9941C26.3119 41.9941 26.4722 42.0603 26.5895 42.1762L27.3148 41.4426C27.0031 41.1344 26.5817 40.9625 26.1435 40.9625V41.9941ZM25.6976 42.1762C25.8148 42.0603 25.9751 41.9941 26.1435 41.9941V40.9625C25.7054 40.9625 25.2839 41.1344 24.9723 41.4426L25.6976 42.1762ZM25.5158 42.6087C25.5158 42.4476 25.5805 42.2919 25.6975 42.1763L24.9723 41.4425C24.6604 41.7507 24.4842 42.1702 24.4842 42.6087H25.5158ZM26.6766 45.3777C25.9327 44.6423 25.5158 43.6462 25.5158 42.6087H24.4842C24.4842 43.9236 25.0126 45.1835 25.9513 46.1114L26.6766 45.3777ZM29.4861 46.5277C28.4312 46.5277 27.4207 46.1133 26.6766 45.3777L25.9513 46.1114C26.8898 47.0391 28.1614 47.5593 29.4861 47.5593V46.5277ZM32.8287 46.5277H29.4861V47.5593H32.8287V46.5277ZM33.3565 46.5277H32.8287V47.5593H33.3565V46.5277ZM33.8723 47.5652V47.0435H32.8407V47.5652H33.8723ZM33.8723 50.8696V47.5652H32.8407V50.8696H33.8723ZM34.0541 51.3021C33.937 51.1863 33.8723 51.0306 33.8723 50.8696H32.8407C32.8407 51.3082 33.017 51.7274 33.3288 52.0357L34.0541 51.3021ZM34.5 51.4842C34.3316 51.4842 34.1713 51.418 34.0541 51.3021L33.3287 52.0357C33.6404 52.3439 34.0619 52.5158 34.5 52.5158V51.4842ZM34.9458 51.3022C34.8287 51.418 34.6684 51.4842 34.5 51.4842V52.5158C34.9381 52.5158 35.3596 52.3439 35.6713 52.0356L34.9458 51.3022ZM35.1277 50.8696C35.1277 51.0307 35.063 51.1863 34.9459 51.3021L35.6712 52.0357C35.9831 51.7274 36.1593 51.3081 36.1593 50.8696H35.1277ZM35.1277 47.5652V50.8696H36.1593V47.5652H35.1277ZM35.1277 47.0435V47.5652H36.1593V47.0435H35.1277ZM36.1713 46.5277H35.6435V47.5593H36.1713V46.5277ZM37.8426 46.5277H36.1713V47.5593H37.8426V46.5277ZM41.834 44.8938C40.7764 45.9393 39.3408 46.5277 37.8426 46.5277V47.5593C39.6106 47.5593 41.3073 46.865 42.5592 45.6275L41.834 44.8938ZM43.4842 40.9566C43.4842 42.4322 42.8912 43.8486 41.8339 44.8939L42.5592 45.6275C43.8113 44.3897 44.5158 42.7097 44.5158 40.9566H43.4842ZM41.8339 37.0192C42.8912 38.0645 43.4842 39.4809 43.4842 40.9566H44.5158C44.5158 39.2034 43.8113 37.5234 42.5592 36.2856L41.8339 37.0192ZM37.8426 35.3853C39.3408 35.3853 40.7763 35.9737 41.834 37.0192L42.5592 36.2856C41.3073 35.0479 39.6106 34.3537 37.8426 34.3537V35.3853ZM36.1713 35.3853H37.8426V34.3537H36.1713V35.3853ZM35.6435 35.3853H36.1713V34.3537H35.6435V35.3853ZM35.1277 44.2608V44.7826H36.1593V44.2608H35.1277ZM35.1277 37.6522V44.2608H36.1593V37.6522H35.1277ZM35.1277 37.1304V37.6522H36.1593V37.1304H35.1277ZM36.1713 36.6146H35.6435V37.6462H36.1713V36.6146ZM37.8426 36.6146H36.1713V37.6462H37.8426V36.6146ZM40.942 37.8843C40.119 37.0706 39.0039 36.6146 37.8426 36.6146V37.6462C38.7342 37.6462 39.5881 37.9964 40.2167 38.6179L40.942 37.8843ZM42.2287 40.9566C42.2287 39.803 41.7652 38.6981 40.942 37.8843L40.2167 38.618C40.8451 39.2392 41.1971 40.0805 41.1971 40.9566H42.2287ZM40.942 44.0288C41.7652 43.215 42.2287 42.1099 42.2287 40.9566H41.1971C41.1971 41.8325 40.8451 42.6739 40.2167 43.2951L40.942 44.0288ZM37.8426 45.2984C39.0039 45.2984 40.119 44.8424 40.942 44.0288L40.2167 43.2951C39.5881 43.9166 38.7342 44.2667 37.8426 44.2667V45.2984ZM36.1713 45.2984H37.8426V44.2667H36.1713V45.2984ZM35.6435 45.2984H36.1713V44.2667H35.6435V45.2984Z" fill="#252525"/>
</g>
<defs>
<clipPath id="clip0_1756_185">
<rect width="21" height="33" fill="white" transform="translate(24 19)"/>
</clipPath>
</defs>
</svg>
