<svg width="68" height="68" viewBox="0 0 68 68" fill="none" xmlns="http://www.w3.org/2000/svg">
<rect x="0.515821" y="0.515821" width="66.9684" height="66.9684" rx="33.4842" stroke="#33AD43" stroke-width="1.03164"/>
<g clip-path="url(#clip0_1756_178)">
<path fill-rule="evenodd" clip-rule="evenodd" d="M45.5705 43.1023L45.8224 42.4034C45.9928 41.9306 46.082 41.4319 46.0862 40.9289V32.6802C46.0862 31.5054 45.623 30.3788 44.7985 29.5482C43.9739 28.7175 42.8556 28.2508 41.6897 28.2508H38V30.509H41.6897C42.2612 30.509 42.8094 30.7377 43.2136 31.1449C43.6177 31.5521 43.8448 32.1044 43.8448 32.6802V40.9311C43.8448 41.5069 43.6177 42.0592 43.2136 42.4664C42.8094 42.8736 42.2612 43.1023 41.6897 43.1023H31.8621C31.2904 43.1023 30.7423 42.8736 30.3381 42.4664C29.9339 42.0592 29.7069 41.5069 29.7069 40.9311V32.6802C29.7069 32.1044 29.9339 31.5521 30.3381 31.1449C30.7423 30.7377 31.2904 30.509 31.8621 30.509H36V28.2508H31.8621C30.696 28.2508 29.5777 28.7175 28.7533 29.5482C27.9287 30.3788 27.4655 31.5054 27.4655 32.6802V40.929C27.4697 41.432 27.5589 41.9306 27.7292 42.4034L27.9811 43.1023H27.2431H25.3103C24.7388 43.1023 24.1906 42.8736 23.7864 42.4664C23.3822 42.0592 23.1552 41.5069 23.1552 40.9311V24.4294C23.1552 23.2546 22.692 22.128 21.8674 21.2973C21.0429 20.4667 19.9247 20 18.7586 20H17.1207C16.8235 20 16.5384 20.119 16.3282 20.3307C16.1181 20.5424 16 20.8296 16 21.1291C16 21.4285 16.1181 21.7157 16.3282 21.9274C16.5384 22.1392 16.8235 22.2581 17.1207 22.2581H18.7586C19.3302 22.2581 19.8784 22.4869 20.2826 22.8941C20.6867 23.3013 20.9138 23.8535 20.9138 24.4294V40.9296C20.9195 41.899 21.2407 42.8397 21.8281 43.6075C22.4159 44.3756 23.2376 44.9282 24.1672 45.1804L24.7334 45.3339L24.5115 45.8808C24.2416 46.5459 24.1365 47.2673 24.2051 47.9827C24.2736 48.698 24.514 49.3857 24.9053 49.9866C25.2965 50.5874 25.8271 51.0834 26.4511 51.4315C27.0751 51.7797 27.7739 51.9697 28.487 51.9851C29.2002 52.0004 29.9063 51.8409 30.5446 51.5199C31.1828 51.199 31.7339 50.7264 32.1505 50.143C32.567 49.5596 32.8363 48.8828 32.9353 48.1711C33.0342 47.4594 32.9598 46.7341 32.7184 46.0579L32.4695 45.3605H33.2052H38.7086H39.4466L39.1948 46.0594C38.9538 46.7284 38.8763 47.4461 38.969 48.1516C39.0617 48.8572 39.3217 49.53 39.7273 50.1128C40.1328 50.6957 40.6716 51.1714 41.2983 51.4999C41.925 51.8284 42.6211 52 43.3276 52C44.034 52 44.7301 51.8284 45.3568 51.4999C45.9835 51.1714 46.5224 50.6957 46.9279 50.1128C47.3333 49.53 47.5935 48.8572 47.6861 48.1516C47.7788 47.4461 47.7013 46.7284 47.4603 46.0594L47.2085 45.3605H47.9465H49.8792C50.1766 45.3605 50.4616 45.2415 50.6718 45.0298C50.8819 44.818 51 44.5309 51 44.2314C51 43.9319 50.8819 43.6448 50.6718 43.433C50.4616 43.2213 50.1766 43.1023 49.8792 43.1023H46.3086H45.5705ZM28.5862 49.703C28.16 49.703 27.7433 49.5757 27.3889 49.337C27.0345 49.0985 26.7582 48.7593 26.595 48.3627C26.432 47.9659 26.3893 47.5293 26.4724 47.1082C26.5556 46.6869 26.7609 46.3 27.0623 45.9964C27.3636 45.6927 27.7476 45.486 28.1658 45.4022C28.5838 45.3184 29.0172 45.3614 29.411 45.5258C29.8047 45.69 30.1413 45.9684 30.3781 46.3255C30.6149 46.6825 30.7413 47.1023 30.7413 47.5317C30.7413 48.1077 30.5143 48.6599 30.1101 49.0671C29.7059 49.4743 29.1577 49.703 28.5862 49.703ZM43.3276 49.703C42.9014 49.703 42.4847 49.5757 42.1303 49.337C41.7758 49.0985 41.4995 48.7593 41.3364 48.3627C41.1734 47.9659 41.1306 47.5293 41.2138 47.1082C41.297 46.687 41.5022 46.3 41.8037 45.9964C42.105 45.6927 42.489 45.486 42.9071 45.4022C43.3252 45.3184 43.7585 45.3614 44.1524 45.5258C44.5461 45.69 44.8827 45.9684 45.1195 46.3255C45.3563 46.6825 45.4827 47.1023 45.4827 47.5317C45.4827 48.1075 45.2556 48.6599 44.8515 49.0671C44.4473 49.4743 43.8991 49.703 43.3276 49.703Z" fill="#33AD43"/>
<path d="M45.8224 42.4034L46.3077 42.5783L46.3077 42.5783L45.8224 42.4034ZM45.5705 43.1023L45.0853 42.9274L44.8363 43.6182H45.5705V43.1023ZM46.0862 40.9289L46.602 40.9333V40.9289H46.0862ZM44.7985 29.5482L45.1646 29.1848L45.1646 29.1848L44.7985 29.5482ZM38 28.2508V27.735H37.4842V28.2508H38ZM38 30.509H37.4842V31.0248H38V30.509ZM43.2136 31.1449L43.5797 30.7816H43.5797L43.2136 31.1449ZM43.2136 42.4664L43.5797 42.8298L43.2136 42.4664ZM30.3381 42.4664L30.7042 42.103H30.7042L30.3381 42.4664ZM30.3381 31.1449L30.7042 31.5083L30.3381 31.1449ZM36 30.509V31.0248H36.5158V30.509H36ZM36 28.2508H36.5158V27.735H36V28.2508ZM28.7533 29.5482L29.1193 29.9116L29.1194 29.9116L28.7533 29.5482ZM27.4655 40.929H26.9497L26.9497 40.9333L27.4655 40.929ZM27.7292 42.4034L27.244 42.5783L27.244 42.5783L27.7292 42.4034ZM27.9811 43.1023V43.6182H28.7153L28.4664 42.9274L27.9811 43.1023ZM23.7864 42.4664L24.1525 42.103H24.1525L23.7864 42.4664ZM21.8674 21.2973L21.5013 21.6607V21.6607L21.8674 21.2973ZM16.3282 20.3307L15.9622 19.9673L15.9621 19.9673L16.3282 20.3307ZM16.3282 21.9274L15.9621 22.2908H15.9621L16.3282 21.9274ZM20.2826 22.8941L20.6487 22.5307L20.2826 22.8941ZM20.9138 40.9296H20.398L20.398 40.9327L20.9138 40.9296ZM21.8281 43.6075L21.4185 43.9209L21.4185 43.9209L21.8281 43.6075ZM24.1672 45.1804L24.0322 45.6782L24.0322 45.6782L24.1672 45.1804ZM24.7334 45.3339L25.2114 45.5278L25.4302 44.9884L24.8684 44.8361L24.7334 45.3339ZM24.5115 45.8808L24.9895 46.0747L24.9895 46.0747L24.5115 45.8808ZM24.2051 47.9827L23.6916 48.0319L23.6916 48.0319L24.2051 47.9827ZM24.9053 49.9866L25.3375 49.7051L25.3375 49.705L24.9053 49.9866ZM26.4511 51.4315L26.7025 50.981L26.7024 50.981L26.4511 51.4315ZM28.487 51.9851L28.4758 52.5008L28.4759 52.5008L28.487 51.9851ZM30.5446 51.5199L30.3129 51.059L30.3128 51.059L30.5446 51.5199ZM32.1505 50.143L32.5703 50.4427L32.5703 50.4427L32.1505 50.143ZM32.9353 48.1711L33.4462 48.2422L33.4462 48.2421L32.9353 48.1711ZM32.7184 46.0579L32.2326 46.2313L32.2326 46.2313L32.7184 46.0579ZM32.4695 45.3605V44.8447H31.7378L31.9837 45.5339L32.4695 45.3605ZM39.4466 45.3605L39.9319 45.5353L40.1807 44.8447H39.4466V45.3605ZM39.1948 46.0594L39.6801 46.2342L39.6801 46.2342L39.1948 46.0594ZM38.969 48.1516L38.4576 48.2188L38.969 48.1516ZM39.7273 50.1128L40.1507 49.8182L40.1507 49.8182L39.7273 50.1128ZM41.2983 51.4999L41.0588 51.9568L41.2983 51.4999ZM45.3568 51.4999L45.1173 51.0431L45.3568 51.4999ZM46.9279 50.1128L47.3513 50.4073L47.3513 50.4073L46.9279 50.1128ZM47.6861 48.1516L48.1976 48.2188L47.6861 48.1516ZM47.4603 46.0594L46.975 46.2342L46.975 46.2342L47.4603 46.0594ZM47.2085 45.3605V44.8447H46.4744L46.7232 45.5353L47.2085 45.3605ZM50.6718 45.0298L51.0378 45.3933L51.0379 45.3931L50.6718 45.0298ZM50.6718 43.433L51.0379 43.0697L51.0378 43.0696L50.6718 43.433ZM27.3889 49.337L27.677 48.9092L27.6769 48.9091L27.3889 49.337ZM26.595 48.3627L26.1179 48.5587L26.118 48.5589L26.595 48.3627ZM26.4724 47.1082L26.9785 47.2081L26.9785 47.2081L26.4724 47.1082ZM27.0623 45.9964L27.4283 46.3599L27.4285 46.3598L27.0623 45.9964ZM28.1658 45.4022L28.2671 45.9079L28.2672 45.9079L28.1658 45.4022ZM29.411 45.5258L29.2123 46.0018L29.2124 46.0018L29.411 45.5258ZM30.3781 46.3255L29.9482 46.6106V46.6106L30.3781 46.3255ZM30.1101 49.0671L29.744 48.7037H29.744L30.1101 49.0671ZM42.1303 49.337L42.4184 48.9092L42.4183 48.9091L42.1303 49.337ZM41.3364 48.3627L40.8593 48.5587L40.8593 48.5589L41.3364 48.3627ZM41.2138 47.1082L40.7078 47.0082L40.7078 47.0082L41.2138 47.1082ZM41.8037 45.9964L42.1697 46.3599L42.1698 46.3598L41.8037 45.9964ZM42.9071 45.4022L43.0085 45.9079L43.0085 45.9079L42.9071 45.4022ZM44.1524 45.5258L43.9537 46.0018L43.9538 46.0018L44.1524 45.5258ZM44.8515 49.0671L44.4854 48.7037V48.7037L44.8515 49.0671ZM45.3372 42.2285L45.0853 42.9274L46.0558 43.2772L46.3077 42.5783L45.3372 42.2285ZM45.5704 40.9246C45.5667 41.3695 45.4878 41.8105 45.3371 42.2286L46.3077 42.5783C46.4978 42.0506 46.5973 41.4943 46.602 40.9333L45.5704 40.9246ZM45.5704 32.6802V40.9289H46.602V32.6802H45.5704ZM44.4324 29.9116C45.1606 30.6452 45.5704 31.641 45.5704 32.6802H46.602C46.602 31.3699 46.0854 30.1124 45.1646 29.1848L44.4324 29.9116ZM41.6897 28.7667C42.7176 28.7667 43.7042 29.178 44.4324 29.9116L45.1646 29.1848C44.2436 28.257 42.9937 27.735 41.6897 27.735V28.7667ZM38 28.7667H41.6897V27.735H38V28.7667ZM37.4842 28.2508V30.509H38.5158V28.2508H37.4842ZM41.6897 29.9932H38V31.0248H41.6897V29.9932ZM43.5797 30.7816C43.0791 30.2772 42.3993 29.9932 41.6897 29.9932V31.0248C42.1232 31.0248 42.5397 31.1983 42.8475 31.5083L43.5797 30.7816ZM44.3606 32.6802C44.3606 31.9688 44.0801 31.2858 43.5797 30.7816L42.8475 31.5083C43.1553 31.8185 43.329 32.24 43.329 32.6802H44.3606ZM44.3606 40.9311V32.6802H43.329V40.9311H44.3606ZM43.5797 42.8298C44.0801 42.3255 44.3606 41.6425 44.3606 40.9311H43.329C43.329 41.3713 43.1553 41.7928 42.8475 42.103L43.5797 42.8298ZM41.6897 43.6182C42.3993 43.6182 43.0791 43.3341 43.5797 42.8298L42.8475 42.103C42.5397 42.413 42.1232 42.5865 41.6897 42.5865V43.6182ZM31.8621 43.6182H41.6897V42.5865H31.8621V43.6182ZM29.972 42.8298C30.4726 43.3341 31.1524 43.6182 31.8621 43.6182V42.5865C31.4285 42.5865 31.0119 42.413 30.7042 42.103L29.972 42.8298ZM29.191 40.9311C29.191 41.6425 29.4715 42.3255 29.972 42.8298L30.7042 42.103C30.3963 41.7928 30.2227 41.3713 30.2227 40.9311H29.191ZM29.191 32.6802V40.9311H30.2227V32.6802H29.191ZM29.972 30.7816C29.4715 31.2858 29.191 31.9688 29.191 32.6802H30.2227C30.2227 32.24 30.3963 31.8185 30.7042 31.5083L29.972 30.7816ZM31.8621 29.9932C31.1524 29.9932 30.4726 30.2772 29.972 30.7816L30.7042 31.5083C31.0119 31.1983 31.4285 31.0248 31.8621 31.0248V29.9932ZM36 29.9932H31.8621V31.0248H36V29.9932ZM36.5158 30.509V28.2508H35.4842V30.509H36.5158ZM31.8621 28.7667H36V27.735H31.8621V28.7667ZM29.1194 29.9116C29.8474 29.178 30.8341 28.7667 31.8621 28.7667V27.735C30.558 27.735 29.3081 28.257 28.3872 29.1848L29.1194 29.9116ZM27.9814 32.6802C27.9814 31.641 28.3911 30.6452 29.1193 29.9116L28.3872 29.1848C27.4663 30.1125 26.9497 31.3699 26.9497 32.6802H27.9814ZM27.9814 40.929V32.6802H26.9497V40.929H27.9814ZM28.2145 42.2286C28.0639 41.8105 27.985 41.3696 27.9813 40.9248L26.9497 40.9333C26.9544 41.4944 27.0538 42.0506 27.244 42.5783L28.2145 42.2286ZM28.4664 42.9274L28.2145 42.2285L27.244 42.5783L27.4959 43.2772L28.4664 42.9274ZM27.2431 43.6182H27.9811V42.5865H27.2431V43.6182ZM25.3103 43.6182H27.2431V42.5865H25.3103V43.6182ZM23.4203 42.8298C23.9209 43.3341 24.6007 43.6182 25.3103 43.6182V42.5865C24.8768 42.5865 24.4602 42.413 24.1525 42.103L23.4203 42.8298ZM22.6393 40.9311C22.6393 41.6425 22.9198 42.3255 23.4203 42.8298L24.1525 42.103C23.8446 41.7928 23.671 41.3713 23.671 40.9311H22.6393ZM22.6393 24.4294V40.9311H23.671V24.4294H22.6393ZM21.5013 21.6607C22.2296 22.3944 22.6393 23.3902 22.6393 24.4294H23.671C23.671 23.1191 23.1544 21.8617 22.2335 20.934L21.5013 21.6607ZM18.7586 20.5158C19.7866 20.5158 20.7733 20.9272 21.5013 21.6607L22.2335 20.934C21.3126 20.0061 20.0627 19.4842 18.7586 19.4842V20.5158ZM17.1207 20.5158H18.7586V19.4842H17.1207V20.5158ZM16.6943 20.6941C16.8081 20.5795 16.9615 20.5158 17.1207 20.5158V19.4842C16.6854 19.4842 16.2688 19.6584 15.9622 19.9673L16.6943 20.6941ZM16.5158 21.1291C16.5158 20.9652 16.5805 20.8088 16.6943 20.6941L15.9621 19.9673C15.6557 20.2761 15.4842 20.694 15.4842 21.1291H16.5158ZM16.6943 21.564C16.5805 21.4493 16.5158 21.2929 16.5158 21.1291H15.4842C15.4842 21.5641 15.6557 21.982 15.9621 22.2908L16.6943 21.564ZM17.1207 21.7423C16.9615 21.7423 16.8081 21.6786 16.6943 21.564L15.9621 22.2908C16.2688 22.5997 16.6854 22.7739 17.1207 22.7739V21.7423ZM18.7586 21.7423H17.1207V22.7739H18.7586V21.7423ZM20.6487 22.5307C20.148 22.0264 19.4683 21.7423 18.7586 21.7423V22.7739C19.1922 22.7739 19.6087 22.9474 19.9165 23.2575L20.6487 22.5307ZM21.4296 24.4294C21.4296 23.718 21.1491 23.0349 20.6487 22.5307L19.9165 23.2575C20.2243 23.5676 20.398 23.9891 20.398 24.4294H21.4296ZM21.4296 40.9296V24.4294H20.398V40.9296H21.4296ZM22.2378 43.2941C21.7188 42.6157 21.4347 41.784 21.4296 40.9266L20.398 40.9327C20.4044 42.014 20.7626 43.0637 21.4185 43.9209L22.2378 43.2941ZM24.3023 44.6826C23.4825 44.4601 22.757 43.9726 22.2378 43.294L21.4185 43.9209C22.0747 44.7786 22.9928 45.3962 24.0322 45.6782L24.3023 44.6826ZM24.8684 44.8361L24.3022 44.6826L24.0322 45.6782L24.5984 45.8318L24.8684 44.8361ZM24.9895 46.0747L25.2114 45.5278L24.2554 45.14L24.0336 45.6869L24.9895 46.0747ZM24.7185 47.9335C24.6578 47.3007 24.7509 46.6627 24.9895 46.0747L24.0336 45.6868C23.7324 46.4291 23.6151 47.2339 23.6916 48.0319L24.7185 47.9335ZM25.3375 49.705C24.9917 49.1741 24.7792 48.5661 24.7185 47.9334L23.6916 48.0319C23.7681 48.8299 24.0362 49.5973 24.4731 50.2681L25.3375 49.705ZM26.7024 50.981C26.1519 50.6739 25.6833 50.236 25.3375 49.7051L24.473 50.268C24.9098 50.9388 25.5024 51.4929 26.1998 51.8819L26.7024 50.981ZM28.4981 51.4694C27.8694 51.4558 27.2531 51.2883 26.7025 50.981L26.1998 51.8819C26.8972 52.2711 27.6784 52.4835 28.4758 52.5008L28.4981 51.4694ZM30.3128 51.059C29.7497 51.3422 29.127 51.4829 28.4981 51.4694L28.4759 52.5008C29.2734 52.5179 30.0629 52.3395 30.7763 51.9807L30.3128 51.059ZM31.7307 49.8432C31.3626 50.3588 30.876 50.7759 30.3129 51.059L30.7763 51.9807C31.4897 51.622 32.1052 51.0941 32.5703 50.4427L31.7307 49.8432ZM32.4244 48.1001C32.3368 48.7296 32.0987 49.3278 31.7307 49.8433L32.5703 50.4427C33.0353 49.7913 33.3357 49.0361 33.4462 48.2422L32.4244 48.1001ZM32.2326 46.2313C32.446 46.8292 32.5118 47.4706 32.4243 48.1001L33.4462 48.2421C33.5565 47.4482 33.4735 46.6391 33.2042 45.8845L32.2326 46.2313ZM31.9837 45.5339L32.2326 46.2313L33.2042 45.8846L32.9554 45.1871L31.9837 45.5339ZM33.2052 44.8447H32.4695V45.8763H33.2052V44.8447ZM38.7086 44.8447H33.2052V45.8763H38.7086V44.8447ZM39.4466 44.8447H38.7086V45.8763H39.4466V44.8447ZM39.6801 46.2342L39.9319 45.5353L38.9613 45.1857L38.7095 45.8846L39.6801 46.2342ZM39.4804 48.0844C39.3984 47.4604 39.467 46.8258 39.6801 46.2342L38.7095 45.8846C38.4406 46.631 38.3541 47.4317 38.4576 48.2188L39.4804 48.0844ZM40.1507 49.8182C39.7924 49.3032 39.5624 48.7085 39.4804 48.0844L38.4576 48.2188C38.5609 49.0059 38.8511 49.7567 39.3038 50.4074L40.1507 49.8182ZM41.5378 51.0431C40.9848 50.7532 40.509 50.3332 40.1507 49.8182L39.3038 50.4073C39.7565 51.0581 40.3584 51.5896 41.0588 51.9568L41.5378 51.0431ZM43.3276 51.4842C42.7047 51.4842 42.0907 51.3329 41.5378 51.0431L41.0588 51.9568C41.7593 52.324 42.5375 52.5158 43.3276 52.5158V51.4842ZM45.1173 51.0431C44.5644 51.3329 43.9504 51.4842 43.3276 51.4842V52.5158C44.1176 52.5158 44.8958 52.324 45.5963 51.9568L45.1173 51.0431ZM46.5044 49.8182C46.1461 50.3332 45.6703 50.7532 45.1173 51.0431L45.5963 51.9568C46.2967 51.5896 46.8986 51.0581 47.3513 50.4073L46.5044 49.8182ZM47.1747 48.0844C47.0927 48.7085 46.8627 49.3032 46.5044 49.8182L47.3513 50.4073C47.8039 49.7567 48.0942 49.006 48.1976 48.2188L47.1747 48.0844ZM46.975 46.2342C47.1881 46.8258 47.2567 47.4604 47.1747 48.0844L48.1976 48.2188C48.301 47.4317 48.2146 46.631 47.9456 45.8846L46.975 46.2342ZM46.7232 45.5353L46.975 46.2342L47.9456 45.8846L47.6938 45.1857L46.7232 45.5353ZM47.9465 44.8447H47.2085V45.8763H47.9465V44.8447ZM49.8792 44.8447H47.9465V45.8763H49.8792V44.8447ZM50.3058 44.6663C50.1919 44.781 50.0384 44.8447 49.8792 44.8447V45.8763C50.3147 45.8763 50.7312 45.702 51.0378 45.3933L50.3058 44.6663ZM50.4842 44.2314C50.4842 44.3952 50.4195 44.5517 50.3056 44.6665L51.0379 45.3931C51.3442 45.0844 51.5158 44.6665 51.5158 44.2314H50.4842ZM50.3056 43.7963C50.4195 43.9112 50.4842 44.0676 50.4842 44.2314H51.5158C51.5158 43.7963 51.3442 43.3784 51.0379 43.0697L50.3056 43.7963ZM49.8792 43.6182C50.0384 43.6182 50.1919 43.6818 50.3058 43.7965L51.0378 43.0696C50.7312 42.7609 50.3147 42.5865 49.8792 42.5865V43.6182ZM46.3086 43.6182H49.8792V42.5865H46.3086V43.6182ZM45.5705 43.6182H46.3086V42.5865H45.5705V43.6182ZM27.1008 49.7649C27.5402 50.0608 28.0572 50.2188 28.5862 50.2188V49.1871C28.2628 49.1871 27.9464 49.0906 27.677 48.9092L27.1008 49.7649ZM26.118 48.5589C26.3197 49.0494 26.6616 49.4693 27.1009 49.765L27.6769 48.9091C27.4074 48.7277 27.1966 48.4693 27.0721 48.1665L26.118 48.5589ZM25.9664 47.0082C25.8636 47.5288 25.9164 48.0683 26.1179 48.5587L27.0721 48.1666C26.9476 47.8635 26.9149 47.5299 26.9785 47.2081L25.9664 47.0082ZM26.6963 45.633C26.3229 46.009 26.0692 46.4877 25.9664 47.0083L26.9785 47.2081C27.0421 46.8861 27.1988 46.5911 27.4283 46.3599L26.6963 45.633ZM28.0644 44.8964C27.5455 45.0004 27.0694 45.2569 26.6961 45.6331L27.4285 46.3598C27.6579 46.1286 27.9498 45.9715 28.2671 45.9079L28.0644 44.8964ZM29.6097 45.0498C29.1211 44.8459 28.5833 44.7924 28.0644 44.8964L28.2672 45.9079C28.5843 45.8444 28.9132 45.877 29.2123 46.0018L29.6097 45.0498ZM30.808 46.0404C30.515 45.5986 30.0981 45.2535 29.6096 45.0497L29.2124 46.0018C29.5113 46.1266 29.7676 46.3382 29.9482 46.6106L30.808 46.0404ZM31.2572 47.5317C31.2572 47.0012 31.101 46.4822 30.808 46.0404L29.9482 46.6106C30.1289 46.8829 30.2255 47.2035 30.2255 47.5317H31.2572ZM30.4762 49.4305C30.9767 48.9263 31.2572 48.2432 31.2572 47.5317H30.2255C30.2255 47.9721 30.0519 48.3936 29.744 48.7037L30.4762 49.4305ZM28.5862 50.2188C29.2957 50.2188 29.9755 49.9349 30.4762 49.4305L29.744 48.7037C29.4363 49.0137 29.0198 49.1871 28.5862 49.1871V50.2188ZM41.8421 49.7649C42.2816 50.0608 42.7985 50.2188 43.3276 50.2188V49.1871C43.0042 49.1871 42.6878 49.0906 42.4184 48.9092L41.8421 49.7649ZM40.8593 48.5589C41.0611 49.0494 41.4029 49.4693 41.8422 49.765L42.4183 48.9091C42.1487 48.7277 41.938 48.4693 41.8134 48.1665L40.8593 48.5589ZM40.7078 47.0082C40.605 47.5288 40.6577 48.0683 40.8593 48.5587L41.8135 48.1666C41.689 47.8635 41.6563 47.5299 41.7199 47.2081L40.7078 47.0082ZM41.4376 45.633C41.0642 46.009 40.8105 46.4878 40.7078 47.0082L41.7198 47.2081C41.7834 46.8862 41.9402 46.591 42.1697 46.3599L41.4376 45.633ZM42.8058 44.8964C42.2869 45.0004 41.8108 45.2569 41.4375 45.6331L42.1698 46.3598C42.3992 46.1286 42.6911 45.9715 43.0085 45.9079L42.8058 44.8964ZM44.351 45.0498C43.8625 44.8459 43.3247 44.7924 42.8058 44.8964L43.0085 45.9079C43.3257 45.8444 43.6546 45.877 43.9537 46.0018L44.351 45.0498ZM45.5494 46.0404C45.2564 45.5986 44.8394 45.2535 44.351 45.0497L43.9538 46.0018C44.2527 46.1266 44.509 46.3382 44.6896 46.6106L45.5494 46.0404ZM45.9985 47.5317C45.9985 47.0012 45.8423 46.4822 45.5494 46.0404L44.6896 46.6106C44.8702 46.8829 44.9669 47.2035 44.9669 47.5317H45.9985ZM45.2176 49.4305C45.718 48.9263 45.9985 48.2431 45.9985 47.5317H44.9669C44.9669 47.972 44.7932 48.3936 44.4854 48.7037L45.2176 49.4305ZM43.3276 50.2188C44.0371 50.2188 44.7169 49.9349 45.2176 49.4305L44.4854 48.7037C44.1777 49.0137 43.7611 49.1871 43.3276 49.1871V50.2188Z" fill="#252525"/>
</g>
<defs>
<clipPath id="clip0_1756_178">
<rect width="37" height="33" fill="white" transform="translate(15 19)"/>
</clipPath>
</defs>
</svg>
