<svg width="68" height="68" viewBox="0 0 68 68" fill="none" xmlns="http://www.w3.org/2000/svg">
<rect x="0.515821" y="0.515821" width="66.9684" height="66.9684" rx="33.4842" stroke="#33AD43" stroke-width="1.03164"/>
<path fill-rule="evenodd" clip-rule="evenodd" d="M47.7241 46.1003V46.616C47.7241 47.7788 47.2609 48.8938 46.4364 49.716C45.6119 50.5381 44.4936 51 43.3276 51C42.1615 51 41.0432 50.5381 40.2187 49.716C39.3943 48.8938 38.931 47.7788 38.931 46.616V46.1003H38.4138H28.5862H28.069V46.616C28.069 47.7788 27.6057 48.8938 26.7812 49.716C25.9568 50.5381 24.8384 51 23.6724 51C22.5064 51 21.3881 50.5381 20.5636 49.716C19.7391 48.8938 19.2759 47.7788 19.2759 46.616V46.1003H18.7586H17.1207C16.8235 46.1003 16.5384 45.9826 16.3282 45.773C16.1181 45.5634 16 45.2792 16 44.9828V35H18.2414V43.3495V43.8653H18.7586H20.0362H20.265L20.419 43.6964C20.831 43.2444 21.3333 42.8832 21.8936 42.636C22.4539 42.3889 23.0598 42.2612 23.6724 42.2612C24.2851 42.2612 24.891 42.3889 25.4512 42.636C26.0115 42.8832 26.5138 43.2444 26.9259 43.6964L27.0798 43.8653H27.3086H36.7759H37.2931V43.3495V25.384C37.2931 24.814 37.0661 24.2674 36.6619 23.8644C36.2577 23.4614 35.7095 23.235 35.1379 23.235H20.3965C19.825 23.235 19.2768 23.4614 18.8726 23.8644C18.4684 24.2674 18.2414 24.814 18.2414 25.384V33H16V25.384C16 24.2213 16.4632 23.1062 17.2877 22.284C18.1122 21.4619 19.2305 21 20.3965 21H35.1379C36.304 21 37.4222 21.4619 38.2467 22.284C39.0713 23.1062 39.5344 24.2213 39.5344 25.384V28.6504V29.1662H40.0517H43.3276C44.0101 29.1662 44.6833 29.3246 45.2937 29.629C45.9043 29.9334 46.4352 30.3753 46.8448 30.9197L50.7664 36.1337C50.7868 36.1653 50.8033 36.1994 50.8158 36.2349L50.8298 36.275L50.8502 36.3123L50.9318 36.4616C50.9742 36.577 50.9973 36.6986 51 36.8217V44.9828C51 45.2792 50.8819 45.5634 50.6718 45.773C50.4616 45.9826 50.1765 46.1003 49.8792 46.1003H48.2414H47.7241ZM39.5344 35.6992H40.0517H46.6035H47.6379L47.0172 34.874L45.0517 32.2607C44.8509 31.9939 44.5907 31.7773 44.2914 31.628C43.9921 31.4788 43.6621 31.4012 43.3276 31.4012H40.0517H39.5344V31.9169V35.1834V35.6992ZM48.7586 37.9341H48.2414H40.0517H39.5344V38.4498V42.9903V44.1429L40.3964 43.3748C41.2613 42.6041 42.3966 42.2054 43.555 42.2655C44.7135 42.3258 45.801 42.8401 46.5808 43.6963L46.7347 43.8653H46.9638H48.2414H48.7586V43.3495V38.4498V37.9341ZM25.8276 46.616C25.8276 46.191 25.7011 45.7756 25.4643 45.4221C25.2276 45.0687 24.891 44.7933 24.4972 44.6306C24.1034 44.468 23.67 44.4254 23.252 44.5084C22.8339 44.5913 22.4499 44.7959 22.1485 45.0964C21.8471 45.397 21.6418 45.7799 21.5587 46.1967C21.4755 46.6137 21.5182 47.0458 21.6813 47.4384C21.8444 47.8311 22.1206 48.1667 22.4751 48.4028C22.8295 48.639 23.2462 48.765 23.6724 48.765C24.244 48.765 24.7922 48.5386 25.1963 48.1356C25.6005 47.7326 25.8276 47.186 25.8276 46.616ZM45.4827 46.616C45.4827 46.191 45.3563 45.7755 45.1195 45.4221C44.8827 45.0687 44.5461 44.7933 44.1523 44.6306C43.7585 44.468 43.3252 44.4254 42.9072 44.5084C42.489 44.5913 42.105 44.7959 41.8037 45.0964C41.5022 45.397 41.297 45.7799 41.2138 46.1967C41.1306 46.6137 41.1734 47.0458 41.3364 47.4384C41.4995 47.8311 41.7757 48.1667 42.1303 48.4028C42.4847 48.639 42.9013 48.765 43.3276 48.765C43.8991 48.765 44.4473 48.5386 44.8515 48.1356C45.2556 47.7326 45.4827 47.186 45.4827 46.616Z" fill="#33AD43"/>
<path d="M47.7241 46.1003V45.5845H47.2083V46.1003H47.7241ZM46.4364 49.716L46.8006 50.0812H46.8006L46.4364 49.716ZM40.2187 49.716L39.8545 50.0812H39.8545L40.2187 49.716ZM38.931 46.1003H39.4468V45.5845H38.931V46.1003ZM28.069 46.1003V45.5845H27.5531V46.1003H28.069ZM26.7812 49.716L27.1455 50.0812L26.7812 49.716ZM20.5636 49.716L20.1994 50.0812H20.1994L20.5636 49.716ZM19.2759 46.1003H19.7917V45.5845H19.2759V46.1003ZM16.3282 45.773L15.964 46.1382L15.964 46.1382L16.3282 45.773ZM16 35V34.4842H15.4842V35H16ZM18.2414 35H18.7572V34.4842H18.2414V35ZM18.2414 43.8653H17.7256V44.3811H18.2414V43.8653ZM20.265 43.8653V44.3811H20.4928L20.6463 44.2128L20.265 43.8653ZM20.419 43.6964L20.0378 43.3489L20.0377 43.349L20.419 43.6964ZM21.8936 42.636L21.6854 42.1641L21.6854 42.1641L21.8936 42.636ZM25.4512 42.636L25.243 43.108L25.243 43.108L25.4512 42.636ZM26.9259 43.6964L26.5447 44.0439L26.5447 44.0439L26.9259 43.6964ZM27.0798 43.8653L26.6986 44.2128L26.852 44.3811H27.0798V43.8653ZM37.2931 43.8653V44.3811H37.8089V43.8653H37.2931ZM36.6619 23.8644L37.0261 23.4991L37.0261 23.4991L36.6619 23.8644ZM18.8726 23.8644L18.5084 23.4991L18.5084 23.4991L18.8726 23.8644ZM18.2414 33V33.5158H18.7572V33H18.2414ZM16 33H15.4842V33.5158H16V33ZM17.2877 22.284L16.9235 21.9188L17.2877 22.284ZM38.2467 22.284L37.8825 22.6493L37.8825 22.6493L38.2467 22.284ZM39.5344 29.1662H39.0186V29.682H39.5344V29.1662ZM45.2937 29.629L45.0635 30.0906L45.0635 30.0906L45.2937 29.629ZM46.8448 30.9197L47.257 30.6097L47.257 30.6097L46.8448 30.9197ZM50.7664 36.1337L51.2002 35.8545L51.19 35.8387L51.1786 35.8236L50.7664 36.1337ZM50.8158 36.2349L50.3289 36.4052L50.329 36.4055L50.8158 36.2349ZM50.8298 36.275L50.3431 36.4456L50.3569 36.4852L50.377 36.5221L50.8298 36.275ZM50.8502 36.3123L50.3974 36.5594L50.3976 36.5598L50.8502 36.3123ZM50.9318 36.4616L51.416 36.2837L51.4028 36.2477L51.3844 36.2141L50.9318 36.4616ZM51 36.8217H51.5159L51.5157 36.8104L51 36.8217ZM50.6718 45.773L51.036 46.1383L51.0361 46.1382L50.6718 45.773ZM39.5344 35.6992H39.0186V36.215H39.5344V35.6992ZM47.6379 35.6992V36.215H48.6714L48.0502 35.3891L47.6379 35.6992ZM47.0172 34.874L46.605 35.184L46.605 35.184L47.0172 34.874ZM45.0517 32.2607L45.464 31.9507L45.4639 31.9506L45.0517 32.2607ZM44.2914 31.628L44.5216 31.1664L44.5215 31.1663L44.2914 31.628ZM39.5344 31.4012V30.8853H39.0186V31.4012H39.5344ZM48.7586 37.9341H49.2744V37.4183H48.7586V37.9341ZM39.5344 37.9341V37.4183H39.0186V37.9341H39.5344ZM39.5344 44.1429H39.0186V45.2934L39.8776 44.528L39.5344 44.1429ZM40.3964 43.3748L40.7395 43.7599L40.7395 43.7599L40.3964 43.3748ZM43.555 42.2655L43.5818 41.7504L43.5818 41.7504L43.555 42.2655ZM46.5808 43.6963L46.1994 44.0436L46.1995 44.0437L46.5808 43.6963ZM46.7347 43.8653L46.3534 44.2127L46.5069 44.3811H46.7347V43.8653ZM48.7586 43.8653V44.3811H49.2744V43.8653H48.7586ZM25.4643 45.4221L25.8929 45.135L25.8929 45.1349L25.4643 45.4221ZM24.4972 44.6306L24.6941 44.1538L24.694 44.1538L24.4972 44.6306ZM23.252 44.5084L23.3523 45.0143L23.3523 45.0143L23.252 44.5084ZM22.1485 45.0964L21.7843 44.7311L21.7842 44.7312L22.1485 45.0964ZM21.5587 46.1967L21.0528 46.0958L21.0528 46.0958L21.5587 46.1967ZM21.6813 47.4384L22.1576 47.2405L22.1576 47.2405L21.6813 47.4384ZM22.4751 48.4028L22.1891 48.8321L22.1891 48.8321L22.4751 48.4028ZM25.1963 48.1356L25.5606 48.5008L25.5606 48.5008L25.1963 48.1356ZM45.1195 45.4221L45.548 45.1349L45.548 45.1349L45.1195 45.4221ZM44.1523 44.6306L44.3492 44.1538L44.3491 44.1538L44.1523 44.6306ZM42.9072 44.5084L43.0075 45.0143L43.0075 45.0143L42.9072 44.5084ZM41.8037 45.0964L41.4395 44.7312L41.8037 45.0964ZM41.2138 46.1967L40.708 46.0958L40.708 46.0958L41.2138 46.1967ZM41.3364 47.4384L40.86 47.6362L40.86 47.6363L41.3364 47.4384ZM42.1303 48.4028L42.4162 47.9736L42.4162 47.9735L42.1303 48.4028ZM44.8515 48.1356L45.2157 48.5008L45.2157 48.5008L44.8515 48.1356ZM48.2399 46.616V46.1003H47.2083V46.616H48.2399ZM46.8006 50.0812C47.722 49.1625 48.2399 47.9161 48.2399 46.616H47.2083C47.2083 47.6415 46.7998 48.6252 46.0722 49.3507L46.8006 50.0812ZM43.3276 51.5158C44.63 51.5158 45.8793 50.9999 46.8006 50.0812L46.0722 49.3507C45.3445 50.0763 44.3573 50.4842 43.3276 50.4842V51.5158ZM39.8545 50.0812C40.7759 50.9999 42.0252 51.5158 43.3276 51.5158V50.4842C42.2978 50.4842 41.3106 50.0763 40.583 49.3507L39.8545 50.0812ZM38.4152 46.616C38.4152 47.9161 38.9331 49.1625 39.8545 50.0812L40.583 49.3507C39.8554 48.6252 39.4468 47.6415 39.4468 46.616H38.4152ZM38.4152 46.1003V46.616H39.4468V46.1003H38.4152ZM38.4138 46.6161H38.931V45.5845H38.4138V46.6161ZM28.5862 46.6161H38.4138V45.5845H28.5862V46.6161ZM28.069 46.6161H28.5862V45.5845H28.069V46.6161ZM28.5848 46.616V46.1003H27.5531V46.616H28.5848ZM27.1455 50.0812C28.0668 49.1625 28.5848 47.9161 28.5848 46.616H27.5531C27.5531 47.6415 27.1446 48.6252 26.417 49.3507L27.1455 50.0812ZM23.6724 51.5158C24.9748 51.5158 26.2241 50.9999 27.1455 50.0812L26.417 49.3507C25.6894 50.0763 24.7021 50.4842 23.6724 50.4842V51.5158ZM20.1994 50.0812C21.1207 50.9999 22.37 51.5158 23.6724 51.5158V50.4842C22.6427 50.4842 21.6555 50.0763 20.9278 49.3507L20.1994 50.0812ZM18.76 46.616C18.76 47.9161 19.278 49.1625 20.1994 50.0812L20.9278 49.3507C20.2002 48.6252 19.7917 47.6415 19.7917 46.616H18.76ZM18.76 46.1003V46.616H19.7917V46.1003H18.76ZM18.7586 46.6161H19.2759V45.5845H18.7586V46.6161ZM17.1207 46.6161H18.7586V45.5845H17.1207V46.6161ZM15.964 46.1382C16.2711 46.4445 16.6872 46.6161 17.1207 46.6161V45.5845C16.9598 45.5845 16.8058 45.5207 16.6925 45.4078L15.964 46.1382ZM15.4842 44.9828C15.4842 45.4165 15.657 45.832 15.964 46.1382L16.6925 45.4078C16.5792 45.2947 16.5158 45.1419 16.5158 44.9828H15.4842ZM15.4842 35V44.9828H16.5158V35H15.4842ZM18.2414 34.4842H16V35.5158H18.2414V34.4842ZM18.7572 43.3495V35H17.7256V43.3495H18.7572ZM18.7572 43.8653V43.3495H17.7256V43.8653H18.7572ZM18.7586 43.3495H18.2414V44.3811H18.7586V43.3495ZM20.0362 43.3495H18.7586V44.3811H20.0362V43.3495ZM20.265 43.3495H20.0362V44.3811H20.265V43.3495ZM20.0377 43.349L19.8838 43.5178L20.6463 44.2128L20.8002 44.0439L20.0377 43.349ZM21.6854 42.1641C21.0595 42.4402 20.4983 42.8438 20.0378 43.3489L20.8002 44.044C21.1638 43.645 21.6072 43.3262 22.1018 43.108L21.6854 42.1641ZM23.6724 41.7454C22.9881 41.7454 22.3113 41.888 21.6854 42.1641L22.1018 43.108C22.5964 42.8898 23.1314 42.777 23.6724 42.777V41.7454ZM25.6594 42.1641C25.0335 41.888 24.3567 41.7454 23.6724 41.7454V42.777C24.2134 42.777 24.7484 42.8898 25.243 43.108L25.6594 42.1641ZM27.3071 43.3489C26.8466 42.8438 26.2853 42.4402 25.6594 42.1641L25.243 43.108C25.7377 43.3262 26.1811 43.6451 26.5447 44.0439L27.3071 43.3489ZM27.461 43.5178L27.3071 43.3489L26.5447 44.0439L26.6986 44.2128L27.461 43.5178ZM27.3086 43.3495H27.0798V44.3811H27.3086V43.3495ZM36.7759 43.3495H27.3086V44.3811H36.7759V43.3495ZM37.2931 43.3495H36.7759V44.3811H37.2931V43.3495ZM36.7773 43.3495V43.8653H37.8089V43.3495H36.7773ZM36.7773 25.384V43.3495H37.8089V25.384H36.7773ZM36.2977 24.2296C36.6049 24.536 36.7773 24.9513 36.7773 25.384H37.8089C37.8089 24.6767 37.5272 23.9988 37.0261 23.4991L36.2977 24.2296ZM35.1379 23.7508C35.5732 23.7508 35.9903 23.9232 36.2977 24.2296L37.0261 23.4991C36.5251 22.9995 35.8459 22.7191 35.1379 22.7191V23.7508ZM20.3965 23.7508H35.1379V22.7191H20.3965V23.7508ZM19.2368 24.2296C19.5442 23.9232 19.9613 23.7508 20.3965 23.7508V22.7191C19.6886 22.7191 19.0094 22.9995 18.5084 23.4991L19.2368 24.2296ZM18.7572 25.384C18.7572 24.9513 18.9296 24.536 19.2368 24.2296L18.5084 23.4991C18.0073 23.9988 17.7256 24.6767 17.7256 25.384H18.7572ZM18.7572 33V25.384H17.7256V33H18.7572ZM16 33.5158H18.2414V32.4842H16V33.5158ZM15.4842 25.384V33H16.5158V25.384H15.4842ZM16.9235 21.9188C16.0021 22.8375 15.4842 24.084 15.4842 25.384H16.5158C16.5158 24.3585 16.9243 23.3748 17.6519 22.6493L16.9235 21.9188ZM20.3965 20.4842C19.0942 20.4842 17.8449 21 16.9235 21.9188L17.6519 22.6493C18.3796 21.9237 19.3668 21.5158 20.3965 21.5158V20.4842ZM35.1379 20.4842H20.3965V21.5158H35.1379V20.4842ZM38.6109 21.9188C37.6896 21 36.4403 20.4842 35.1379 20.4842V21.5158C36.1676 21.5158 37.1549 21.9237 37.8825 22.6493L38.6109 21.9188ZM40.0503 25.384C40.0503 24.084 39.5324 22.8375 38.6109 21.9188L37.8825 22.6493C38.6102 23.3748 39.0186 24.3585 39.0186 25.384H40.0503ZM40.0503 28.6504V25.384H39.0186V28.6504H40.0503ZM40.0503 29.1662V28.6504H39.0186V29.1662H40.0503ZM40.0517 28.6504H39.5344V29.682H40.0517V28.6504ZM43.3276 28.6504H40.0517V29.682H43.3276V28.6504ZM45.5239 29.1674C44.8419 28.8274 44.0899 28.6504 43.3276 28.6504V29.682C43.9303 29.682 44.5246 29.8219 45.0635 30.0906L45.5239 29.1674ZM47.257 30.6097C46.7993 30.0012 46.2059 29.5074 45.5239 29.1674L45.0635 30.0906C45.6026 30.3594 46.0712 30.7494 46.4326 31.2298L47.257 30.6097ZM51.1786 35.8236L47.257 30.6097L46.4326 31.2298L50.3542 36.4437L51.1786 35.8236ZM51.3027 36.0645C51.277 35.9913 51.2427 35.9207 51.2002 35.8545L50.3326 36.4128C50.3308 36.41 50.3297 36.4075 50.3289 36.4052L51.3027 36.0645ZM51.3166 36.1043L51.3025 36.0642L50.329 36.4055L50.3431 36.4456L51.3166 36.1043ZM51.303 36.0652L51.2826 36.0279L50.377 36.5221L50.3974 36.5594L51.303 36.0652ZM51.3844 36.2141L51.3028 36.0648L50.3976 36.5598L50.4793 36.7091L51.3844 36.2141ZM51.5157 36.8104C51.5118 36.6303 51.478 36.4524 51.416 36.2837L50.4477 36.6395C50.4705 36.7016 50.4829 36.7669 50.4843 36.833L51.5157 36.8104ZM51.5158 44.9828V36.8217H50.4842V44.9828H51.5158ZM51.0361 46.1382C51.3429 45.8321 51.5158 45.4166 51.5158 44.9828H50.4842C50.4842 45.1418 50.4208 45.2947 50.3075 45.4078L51.0361 46.1382ZM49.8792 46.6161C50.3127 46.6161 50.7289 46.4445 51.036 46.1383L50.3075 45.4077C50.1942 45.5207 50.0402 45.5845 49.8792 45.5845V46.6161ZM48.2414 46.6161H49.8792V45.5845H48.2414V46.6161ZM47.7241 46.6161H48.2414V45.5845H47.7241V46.6161ZM40.0517 35.1834H39.5344V36.215H40.0517V35.1834ZM46.6035 35.1834H40.0517V36.215H46.6035V35.1834ZM47.6379 35.1834H46.6035V36.215H47.6379V35.1834ZM46.605 35.184L47.2257 36.0092L48.0502 35.3891L47.4295 34.5639L46.605 35.184ZM44.6395 32.5708L46.605 35.184L47.4295 34.5639L45.464 31.9507L44.6395 32.5708ZM44.0612 32.0896C44.289 32.2032 44.4869 32.368 44.6396 32.5709L45.4639 31.9506C45.215 31.6198 44.8924 31.3513 44.5216 31.1664L44.0612 32.0896ZM43.3276 31.917C43.5823 31.917 43.8335 31.9761 44.0613 32.0896L44.5215 31.1663C44.1507 30.9815 43.7419 30.8853 43.3276 30.8853V31.917ZM40.0517 31.917H43.3276V30.8853H40.0517V31.917ZM39.5344 31.917H40.0517V30.8853H39.5344V31.917ZM40.0503 31.9169V31.4012H39.0186V31.9169H40.0503ZM40.0503 35.1834V31.9169H39.0186V35.1834H40.0503ZM40.0503 35.6992V35.1834H39.0186V35.6992H40.0503ZM48.2414 38.4499H48.7586V37.4183H48.2414V38.4499ZM40.0517 38.4499H48.2414V37.4183H40.0517V38.4499ZM39.5344 38.4499H40.0517V37.4183H39.5344V38.4499ZM40.0503 38.4498V37.9341H39.0186V38.4498H40.0503ZM40.0503 42.9903V38.4498H39.0186V42.9903H40.0503ZM40.0503 44.1429V42.9903H39.0186V44.1429H40.0503ZM40.0532 42.9897L39.1913 43.7578L39.8776 44.528L40.7395 43.7599L40.0532 42.9897ZM43.5818 41.7504C42.288 41.6832 41.0197 42.1285 40.0532 42.9897L40.7395 43.7599C41.5029 43.0797 42.5053 42.7275 43.5283 42.7806L43.5818 41.7504ZM46.9622 43.349C46.0907 42.3921 44.8757 41.8177 43.5818 41.7504L43.5283 42.7806C44.5512 42.8338 45.5113 43.288 46.1994 44.0436L46.9622 43.349ZM47.116 43.5179L46.9621 43.349L46.1995 44.0437L46.3534 44.2127L47.116 43.5179ZM46.9638 43.3495H46.7347V44.3811H46.9638V43.3495ZM48.2414 43.3495H46.9638V44.3811H48.2414V43.3495ZM48.7586 43.3495H48.2414V44.3811H48.7586V43.3495ZM48.2428 43.3495V43.8653H49.2744V43.3495H48.2428ZM48.2428 38.4498V43.3495H49.2744V38.4498H48.2428ZM48.2428 37.9341V38.4498H49.2744V37.9341H48.2428ZM25.0358 45.7091C25.2158 45.9778 25.3117 46.2934 25.3117 46.616H26.3434C26.3434 46.0886 26.1865 45.5733 25.8929 45.135L25.0358 45.7091ZM24.3002 45.1073C24.6 45.2312 24.8559 45.4407 25.0358 45.7092L25.8929 45.1349C25.5992 44.6967 25.1819 44.3554 24.6941 44.1538L24.3002 45.1073ZM23.3523 45.0143C23.6706 44.9512 24.0005 44.9836 24.3003 45.1074L24.694 44.1538C24.2062 43.9524 23.6695 43.8997 23.1516 44.0024L23.3523 45.0143ZM22.5127 45.4617C22.7418 45.2332 23.034 45.0775 23.3523 45.0143L23.1516 44.0024C22.6338 44.1051 22.1579 44.3586 21.7843 44.7311L22.5127 45.4617ZM22.0645 46.2977C22.1276 45.9812 22.2835 45.6902 22.5127 45.4617L21.7842 44.7312C21.4106 45.1038 21.156 45.5786 21.0528 46.0958L22.0645 46.2977ZM22.1576 47.2405C22.0338 46.9423 22.0014 46.6142 22.0645 46.2976L21.0528 46.0958C20.9496 46.6131 21.0026 47.1492 21.2049 47.6363L22.1576 47.2405ZM22.761 47.9736C22.4915 47.794 22.2815 47.5388 22.1576 47.2405L21.2049 47.6362C21.4073 48.1234 21.7498 48.5395 22.1891 48.8321L22.761 47.9736ZM23.6724 48.2492C23.3479 48.2492 23.0307 48.1532 22.761 47.9736L22.1891 48.8321C22.6283 49.1247 23.1445 49.2808 23.6724 49.2808V48.2492ZM24.8321 47.7703C24.5248 48.0768 24.1077 48.2492 23.6724 48.2492V49.2808C24.3803 49.2808 25.0595 49.0004 25.5606 48.5008L24.8321 47.7703ZM25.3117 46.616C25.3117 47.0487 25.1394 47.4639 24.8321 47.7703L25.5606 48.5008C26.0616 48.0012 26.3434 47.3233 26.3434 46.616H25.3117ZM44.691 45.7092C44.8709 45.9777 44.9669 46.2933 44.9669 46.616H45.9985C45.9985 46.0886 45.8417 45.5732 45.548 45.1349L44.691 45.7092ZM43.9553 45.1073C44.2551 45.2312 44.5111 45.4407 44.691 45.7092L45.548 45.1349C45.2543 44.6966 44.837 44.3553 44.3492 44.1538L43.9553 45.1073ZM43.0075 45.0143C43.3258 44.9512 43.6557 44.9836 43.9554 45.1074L44.3491 44.1538C43.8614 43.9524 43.3246 43.8997 42.8068 44.0024L43.0075 45.0143ZM42.1679 45.4617C42.397 45.2332 42.6891 45.0775 43.0075 45.0143L42.8068 44.0024C42.2889 44.1051 41.8131 44.3586 41.4395 44.7312L42.1679 45.4617ZM41.7197 46.2977C41.7828 45.9812 41.9387 45.6902 42.1679 45.4617L41.4395 44.7312C41.0658 45.1038 40.8111 45.5786 40.708 46.0958L41.7197 46.2977ZM41.8128 47.2406C41.6889 46.9423 41.6565 46.6142 41.7197 46.2976L40.708 46.0958C40.6048 46.6131 40.6578 47.1492 40.86 47.6362L41.8128 47.2406ZM42.4162 47.9735C42.1466 47.794 41.9367 47.5388 41.8127 47.2405L40.86 47.6363C41.0624 48.1234 41.4049 48.5395 41.8443 48.8322L42.4162 47.9735ZM43.3276 48.2492C43.003 48.2492 42.6859 48.1532 42.4162 47.9736L41.8443 48.8321C42.2834 49.1247 42.7995 49.2808 43.3276 49.2808V48.2492ZM44.4872 47.7703C44.1799 48.0768 43.7628 48.2492 43.3276 48.2492V49.2808C44.0355 49.2808 44.7147 49.0004 45.2157 48.5008L44.4872 47.7703ZM44.9669 46.616C44.9669 47.0487 44.7945 47.4639 44.4872 47.7703L45.2157 48.5008C45.7167 48.0012 45.9985 47.3233 45.9985 46.616H44.9669Z" fill="#252525"/>
</svg>
