<svg width="24" height="24" viewBox="0 0 24 24" fill="none" xmlns="http://www.w3.org/2000/svg">
<g clip-path="url(#clip0_1756_1030)">
<path d="M23.8246 22.9756L17.8246 16.9756C17.8218 16.9728 17.8182 16.972 17.8155 16.9696C19.4183 15.168 20.4002 12.8016 20.4002 10.2C20.4002 4.5668 15.8334 0 10.2002 0C4.56704 0 0.000244141 4.5668 0.000244141 10.2C0.000244141 15.8332 4.56704 20.4 10.2002 20.4C12.8019 20.4 15.1678 19.418 16.9698 17.8148C16.9727 17.8176 16.9734 17.8212 16.9758 17.824L22.9758 23.824C23.093 23.9416 23.2466 24 23.4002 24C23.5539 24 23.7075 23.9416 23.8246 23.8244C24.0587 23.59 24.0587 23.21 23.8246 22.9756ZM10.2002 19.2C5.23782 19.2 1.20024 15.1624 1.20024 10.2C1.20024 5.23758 5.23782 1.2 10.2002 1.2C15.1627 1.2 19.2002 5.23758 19.2002 10.2C19.2002 15.1624 15.1627 19.2 10.2002 19.2Z" fill="#33AD43"/>
<path d="M7.19995 10.4002H13.6M10.4 7.2002V13.6002" stroke="#33AD43" stroke-linecap="round"/>
</g>
<defs>
<clipPath id="clip0_1756_1030">
<rect width="24" height="24" fill="white"/>
</clipPath>
</defs>
</svg>
