<svg width="39" height="57" viewBox="0 0 39 57" fill="none" xmlns="http://www.w3.org/2000/svg">
<path d="M19.3422 0.0244739C19.1701 0.0198765 18.9974 0.0175781 18.8242 0.0175781C18.651 0.0175781 18.4782 0.0198765 18.3062 0.0244739C4.89373 0.384219 -3.80644 15.1709 1.65487 28.1459L17.4703 55.9501C18.0848 57.0301 20.9152 57.0301 21.5294 55.9501L37.3448 28.1459C42.8061 15.1709 32.7547 0.384219 19.3418 0.0244739H19.3422ZM16.9607 29.3485C11.7381 29.3485 7.50428 24.8661 7.50428 19.3366C7.50428 13.8071 11.7381 9.3246 16.9607 9.3246C22.1833 9.3246 26.4172 13.8071 26.4172 19.3366C26.4172 24.8661 22.1833 29.3485 16.9607 29.3485Z" fill="url(#paint0_linear_1431_56)"/>
<path d="M20.6934 0.0244739C20.5214 0.0198765 18.9973 0.0175781 18.8242 0.0175781C18.651 0.0175781 18.4782 0.0198765 18.3062 0.0244739C17.8522 0.0367336 17.4036 0.0658504 16.9607 0.110675C29.6004 1.38415 37.5428 15.6104 32.2665 28.1463L17.4518 54.1913C17.15 54.7223 17.15 55.3866 17.4518 55.9176L17.4706 55.9505C18.0851 57.0305 20.9156 57.0305 21.5297 55.9505L37.3451 28.1463C42.8064 15.1713 34.1063 0.384603 20.6938 0.0248574L20.6934 0.0244739Z" fill="#33A742"/>
<path d="M16.9607 29.3484C17.5691 29.3484 18.1633 29.2867 18.7399 29.1706C14.3678 28.2894 11.0623 24.2219 11.0623 19.3364C11.0623 14.4509 14.3678 10.3834 18.7399 9.50223C18.1637 9.38614 17.5691 9.32446 16.9607 9.32446C11.7381 9.32446 7.50427 13.8069 7.50427 19.3364C7.50427 24.8659 11.7381 29.3484 16.9607 29.3484Z" fill="#50CB60"/>
<defs>
<linearGradient id="paint0_linear_1431_56" x1="3.99647" y1="33.9482" x2="39.9335" y2="19.4289" gradientUnits="userSpaceOnUse">
<stop offset="0.01" stop-color="#33AD43"/>
<stop offset="0.0839996" stop-color="#33AD43"/>
<stop offset="0.18" stop-color="#33AD43"/>
<stop offset="0.37" stop-color="#3EBA4E"/>
<stop offset="0.6" stop-color="#3EBA4E"/>
<stop offset="1" stop-color="#33AD43"/>
</linearGradient>
</defs>
</svg>
