<svg width="30" height="32" viewBox="0 0 30 32" fill="none" xmlns="http://www.w3.org/2000/svg">
<path d="M3.41831 29.4048C2.84091 28.7383 2.44059 27.7987 2.28624 26.7475L1.57898 9.59998H10H12H19H20H28.4211L27.6189 26.7706C27.4641 27.7979 27.0741 28.7173 26.5133 29.377C25.9525 30.0367 25.2545 30.3971 24.5345 30.3988H5.44972C4.71406 30.4227 3.99571 30.0712 3.41831 29.4048Z" stroke="#505050" stroke-linecap="round" stroke-linejoin="round"/>
<path d="M9.47363 7.99998V5.59998C9.47363 3.39084 11.2645 1.59998 13.4736 1.59998H16.5263C18.7354 1.59998 20.5263 3.39084 20.5263 5.59998V7.99998" stroke="#505050"/>
<path d="M12.4375 17.6875C13.0177 17.6875 13.5741 17.457 13.9843 17.0468C14.3945 16.6366 14.625 16.0802 14.625 15.5C14.625 14.2925 14.1875 13.75 13.75 12.875C12.812 10.9999 13.554 9.32775 15.5 7.625C15.9375 9.8125 17.25 11.9125 19 13.3125C20.75 14.7125 21.625 16.375 21.625 18.125C21.625 18.9293 21.4666 19.7258 21.1588 20.4689C20.851 21.2121 20.3998 21.8873 19.831 22.456C19.2623 23.0248 18.5871 23.476 17.8439 23.7838C17.1008 24.0916 16.3043 24.25 15.5 24.25C14.6957 24.25 13.8992 24.0916 13.1561 23.7838C12.4129 23.476 11.7377 23.0248 11.169 22.456C10.6002 21.8873 10.149 21.2121 9.84124 20.4689C9.53343 19.7258 9.375 18.9293 9.375 18.125C9.375 17.1161 9.75388 16.1178 10.25 15.5C10.25 16.0802 10.4805 16.6366 10.8907 17.0468C11.3009 17.457 11.8573 17.6875 12.4375 17.6875Z" fill="#0A0A0C" stroke="#33AD43" stroke-linecap="round" stroke-linejoin="round"/>
</svg>
