<svg width="30" height="32" viewBox="0 0 30 32" fill="none" xmlns="http://www.w3.org/2000/svg">
<path d="M3.41819 29.4048C2.84079 28.7383 2.44046 27.7987 2.28612 26.7475L1.57886 9.59998H9.99991H11.9999H18.9999H19.9999H28.421L27.6188 26.7706C27.464 27.7979 27.074 28.7173 26.5132 29.377C25.9524 30.0367 25.2544 30.3971 24.5344 30.3988H5.4496C4.71394 30.4227 3.99559 30.0712 3.41819 29.4048Z" stroke="white" stroke-opacity="0.5" stroke-linecap="round" stroke-linejoin="round"/>
<path d="M9.47363 7.99998V5.59998C9.47363 3.39084 11.2645 1.59998 13.4736 1.59998H16.5263C18.7354 1.59998 20.5263 3.39084 20.5263 5.59998V7.99998" stroke="white" stroke-opacity="0.5"/>
<path d="M21.5341 13.6667C21.8385 15.1609 21.6215 16.7143 20.9193 18.0679C20.2171 19.4214 19.072 20.4934 17.6751 21.1049C16.2782 21.7164 14.7138 21.8305 13.2429 21.4282C11.772 21.026 10.4835 20.1316 9.59225 18.8943C8.70097 17.657 8.26081 16.1515 8.34518 14.6289C8.42954 13.1063 9.03332 11.6587 10.0558 10.5274C11.0783 9.39616 12.4578 8.64961 13.9641 8.4123C15.4704 8.17498 17.0126 8.46123 18.3334 9.22333" fill="#0A0A0C"/>
<path d="M13.0001 14.3333L15.0001 16.3333L21.6667 9.66666" fill="#0A0A0C"/>
<path d="M21.5341 13.6667C21.8385 15.1609 21.6215 16.7143 20.9193 18.0679C20.2171 19.4214 19.072 20.4934 17.6751 21.1049C16.2782 21.7164 14.7138 21.8305 13.2429 21.4282C11.772 21.026 10.4835 20.1316 9.59225 18.8943C8.70097 17.657 8.26081 16.1515 8.34518 14.6289C8.42954 13.1063 9.03332 11.6587 10.0558 10.5274C11.0783 9.39616 12.4578 8.64961 13.9641 8.4123C15.4704 8.17498 17.0126 8.46123 18.3334 9.22333M13.0001 14.3333L15.0001 16.3333L21.6667 9.66666" stroke="#33AD43" stroke-linecap="round" stroke-linejoin="round"/>
</svg>
