<svg width="43" height="43" viewBox="0 0 43 43" fill="none" xmlns="http://www.w3.org/2000/svg">
<path d="M21.4968 0.00128174C19.8953 0.00128174 18.3378 0.182117 16.8371 0.514709V21.5165C16.8396 22.7549 17.3327 23.9419 18.2083 24.8176C19.0839 25.6932 20.2707 26.1864 21.509 26.1889C22.7468 26.1858 23.9329 25.6927 24.8081 24.8173C25.6832 23.942 26.1761 22.7556 26.179 21.5178C26.177 20.3332 25.726 19.1935 24.917 18.3282C24.1081 17.463 23.0013 16.9365 21.8196 16.855V13.1158C23.9926 13.2009 26.0485 14.1229 27.5575 15.6889C29.0665 17.2548 29.9118 19.3436 29.9166 21.5184C29.9166 26.1489 26.139 29.9282 21.509 29.9282C16.8791 29.9282 13.1002 26.1489 13.1002 21.5171V1.70365C12.5707 1.92952 12.0511 2.17774 11.5427 2.44763V21.5165C11.5433 27.0059 16.0209 31.4813 21.509 31.4813C26.9972 31.4813 31.4729 27.0059 31.4729 21.5178C31.4729 16.1317 27.1657 11.7221 21.819 11.5561V7.81689C29.2231 7.98481 35.2085 14.0748 35.2085 21.5171C35.2085 29.0653 29.0545 35.2193 21.5084 35.2193C13.9622 35.2193 7.80444 29.0647 7.80444 21.5152V4.92624C3.03886 8.86762 0 14.8278 0 21.499C0 33.3723 9.62414 43 21.5032 43C33.3823 43 43 33.3723 43 21.499C43 9.62581 33.3784 0 21.4968 0" fill="#6B6B6B"/>
</svg>
