<svg width="30" height="32" viewBox="0 0 30 32" fill="none" xmlns="http://www.w3.org/2000/svg">
<path d="M3.41831 29.4048C2.84091 28.7383 2.44059 27.7987 2.28624 26.7475L1.57898 9.59998H28.4211L27.6189 26.7706C27.4641 27.7979 27.0741 28.7173 26.5133 29.377C25.9525 30.0367 25.2545 30.3971 24.5345 30.3988H5.44972C4.71406 30.4227 3.99571 30.0712 3.41831 29.4048Z" stroke="white" stroke-opacity="0.5" stroke-linecap="round" stroke-linejoin="round"/>
<path d="M9.47363 7.99998V5.59998C9.47363 3.39084 11.2645 1.59998 13.4736 1.59998H16.5263C18.7354 1.59998 20.5263 3.39084 20.5263 5.59998V7.99998" stroke="white" stroke-opacity="0.5"/>
<path d="M15.165 8.58331H14.835C14.4372 8.58331 14.0556 8.75013 13.7743 9.04706C13.493 9.34399 13.335 9.74672 13.335 10.1666V10.3091C13.3347 10.5868 13.2653 10.8595 13.1337 11.0999C13.002 11.3403 12.8128 11.5399 12.585 11.6787L12.2625 11.8766C12.0345 12.0156 11.7758 12.0888 11.5125 12.0888C11.2492 12.0888 10.9905 12.0156 10.7625 11.8766L10.65 11.8133C10.3058 11.6037 9.89688 11.5469 9.513 11.6552C9.12913 11.7636 8.80166 12.0283 8.6025 12.3912L8.4375 12.6921C8.23895 13.0554 8.18508 13.487 8.28773 13.8922C8.39038 14.2974 8.64115 14.6431 8.985 14.8533L9.0975 14.9325C9.32421 15.0706 9.51272 15.269 9.64429 15.5079C9.77586 15.7468 9.84592 16.0178 9.8475 16.2941V16.6979C9.84855 16.9769 9.77974 17.2512 9.64803 17.4931C9.51633 17.735 9.32641 17.9359 9.0975 18.0754L8.985 18.1466C8.64115 18.3569 8.39038 18.7025 8.28773 19.1077C8.18508 19.5129 8.23895 19.9446 8.4375 20.3079L8.6025 20.6087C8.80166 20.9717 9.12913 21.2364 9.513 21.3447C9.89688 21.4531 10.3058 21.3962 10.65 21.1866L10.7625 21.1233C10.9905 20.9843 11.2492 20.9112 11.5125 20.9112C11.7758 20.9112 12.0345 20.9843 12.2625 21.1233L12.585 21.3212C12.8128 21.4601 13.002 21.6597 13.1337 21.9001C13.2653 22.1405 13.3347 22.4132 13.335 22.6908V22.8333C13.335 23.2532 13.493 23.656 13.7743 23.9529C14.0556 24.2498 14.4372 24.4166 14.835 24.4166H15.165C15.5628 24.4166 15.9444 24.2498 16.2257 23.9529C16.507 23.656 16.665 23.2532 16.665 22.8333V22.6908C16.6653 22.4132 16.7347 22.1405 16.8663 21.9001C16.998 21.6597 17.1872 21.4601 17.415 21.3212L17.7375 21.1233C17.9655 20.9843 18.2242 20.9112 18.4875 20.9112C18.7508 20.9112 19.0095 20.9843 19.2375 21.1233L19.35 21.1866C19.6942 21.3962 20.1031 21.4531 20.487 21.3447C20.8709 21.2364 21.1983 20.9717 21.3975 20.6087L21.5625 20.3C21.7611 19.9367 21.8149 19.505 21.7123 19.0998C21.6096 18.6946 21.3588 18.349 21.015 18.1387L20.9025 18.0754C20.6736 17.9359 20.4837 17.735 20.352 17.4931C20.2203 17.2512 20.1515 16.9769 20.1525 16.6979V16.3021C20.1515 16.0231 20.2203 15.7487 20.352 15.5068C20.4837 15.2649 20.6736 15.0641 20.9025 14.9246L21.015 14.8533C21.3588 14.6431 21.6096 14.2974 21.7123 13.8922C21.8149 13.487 21.7611 13.0554 21.5625 12.6921L21.3975 12.3912C21.1983 12.0283 20.8709 11.7636 20.487 11.6552C20.1031 11.5469 19.6942 11.6037 19.35 11.8133L19.2375 11.8766C19.0095 12.0156 18.7508 12.0888 18.4875 12.0888C18.2242 12.0888 17.9655 12.0156 17.7375 11.8766L17.415 11.6787C17.1872 11.5399 16.998 11.3403 16.8663 11.0999C16.7347 10.8595 16.6653 10.5868 16.665 10.3091V10.1666C16.665 9.74672 16.507 9.34399 16.2257 9.04706C15.9444 8.75013 15.5628 8.58331 15.165 8.58331Z" fill="#0A0B0D"/>
<path d="M15 18.875C16.2426 18.875 17.25 17.8117 17.25 16.5C17.25 15.1883 16.2426 14.125 15 14.125C13.7574 14.125 12.75 15.1883 12.75 16.5C12.75 17.8117 13.7574 18.875 15 18.875Z" fill="#0A0B0D"/>
<path d="M15.165 8.58331H14.835C14.4372 8.58331 14.0556 8.75013 13.7743 9.04706C13.493 9.34399 13.335 9.74672 13.335 10.1666V10.3091C13.3347 10.5868 13.2653 10.8595 13.1337 11.0999C13.002 11.3403 12.8128 11.5399 12.585 11.6787L12.2625 11.8766C12.0345 12.0156 11.7758 12.0888 11.5125 12.0888C11.2492 12.0888 10.9905 12.0156 10.7625 11.8766L10.65 11.8133C10.3058 11.6037 9.89688 11.5469 9.513 11.6552C9.12913 11.7636 8.80166 12.0283 8.6025 12.3912L8.4375 12.6921C8.23895 13.0554 8.18508 13.487 8.28773 13.8922C8.39038 14.2974 8.64115 14.6431 8.985 14.8533L9.0975 14.9325C9.32421 15.0706 9.51272 15.269 9.64429 15.5079C9.77586 15.7468 9.84592 16.0178 9.8475 16.2941V16.6979C9.84855 16.9769 9.77974 17.2512 9.64803 17.4931C9.51633 17.735 9.32641 17.9359 9.0975 18.0754L8.985 18.1466C8.64115 18.3569 8.39038 18.7025 8.28773 19.1077C8.18508 19.5129 8.23895 19.9446 8.4375 20.3079L8.6025 20.6087C8.80166 20.9717 9.12913 21.2364 9.513 21.3447C9.89688 21.4531 10.3058 21.3962 10.65 21.1866L10.7625 21.1233C10.9905 20.9843 11.2492 20.9112 11.5125 20.9112C11.7758 20.9112 12.0345 20.9843 12.2625 21.1233L12.585 21.3212C12.8128 21.4601 13.002 21.6597 13.1337 21.9001C13.2653 22.1405 13.3347 22.4132 13.335 22.6908V22.8333C13.335 23.2532 13.493 23.656 13.7743 23.9529C14.0556 24.2498 14.4372 24.4166 14.835 24.4166H15.165C15.5628 24.4166 15.9444 24.2498 16.2257 23.9529C16.507 23.656 16.665 23.2532 16.665 22.8333V22.6908C16.6653 22.4132 16.7347 22.1405 16.8663 21.9001C16.998 21.6597 17.1872 21.4601 17.415 21.3212L17.7375 21.1233C17.9655 20.9843 18.2242 20.9112 18.4875 20.9112C18.7508 20.9112 19.0095 20.9843 19.2375 21.1233L19.35 21.1866C19.6942 21.3962 20.1031 21.4531 20.487 21.3447C20.8709 21.2364 21.1983 20.9717 21.3975 20.6087L21.5625 20.3C21.7611 19.9367 21.8149 19.505 21.7123 19.0998C21.6096 18.6946 21.3588 18.349 21.015 18.1387L20.9025 18.0754C20.6736 17.9359 20.4837 17.735 20.352 17.4931C20.2203 17.2512 20.1515 16.9769 20.1525 16.6979V16.3021C20.1515 16.0231 20.2203 15.7487 20.352 15.5068C20.4837 15.2649 20.6736 15.0641 20.9025 14.9246L21.015 14.8533C21.3588 14.6431 21.6096 14.2974 21.7123 13.8922C21.8149 13.487 21.7611 13.0554 21.5625 12.6921L21.3975 12.3912C21.1983 12.0283 20.8709 11.7636 20.487 11.6552C20.1031 11.5469 19.6942 11.6037 19.35 11.8133L19.2375 11.8766C19.0095 12.0156 18.7508 12.0888 18.4875 12.0888C18.2242 12.0888 17.9655 12.0156 17.7375 11.8766L17.415 11.6787C17.1872 11.5399 16.998 11.3403 16.8663 11.0999C16.7347 10.8595 16.6653 10.5868 16.665 10.3091V10.1666C16.665 9.74672 16.507 9.34399 16.2257 9.04706C15.9444 8.75013 15.5628 8.58331 15.165 8.58331Z" stroke="#33AD43" stroke-linecap="round" stroke-linejoin="round"/>
<path d="M15 18.875C16.2426 18.875 17.25 17.8117 17.25 16.5C17.25 15.1883 16.2426 14.125 15 14.125C13.7574 14.125 12.75 15.1883 12.75 16.5C12.75 17.8117 13.7574 18.875 15 18.875Z" stroke="#33AD43" stroke-linecap="round" stroke-linejoin="round"/>
</svg>
