<svg width="211" height="191" viewBox="0 0 211 191" fill="none" xmlns="http://www.w3.org/2000/svg">
<mask id="mask0_3120_85" style="mask-type:alpha" maskUnits="userSpaceOnUse" x="0" y="0" width="211" height="191">
<rect width="211" height="191" fill="#D9D9D9"/>
</mask>
<g mask="url(#mask0_3120_85)">
<path d="M125.926 150.923L100.511 136.155L100.373 87.5991L125.788 102.372L125.926 150.923Z" fill="white"/>
<path d="M125.788 102.371L100.373 87.5988L149.2 59.4067L174.615 74.1792L125.788 102.371Z" fill="white"/>
<path d="M174.701 105.044L174.753 122.736L125.926 150.923L125.788 102.371L174.615 74.1792L174.663 91.4628" fill="white"/>
<path d="M125.788 102.371L100.373 87.599L100.235 39.0664L125.65 53.8389L125.788 102.371Z" fill="#F0F0F0"/>
<path d="M125.65 53.8386L100.235 39.0662L149.062 10.8789L174.477 25.6466L125.65 53.8386Z" fill="#F0F0F0"/>
<path d="M174.477 25.647L174.615 74.1796L125.788 102.372L125.651 53.839L174.477 25.647Z" fill="white"/>
<path d="M51.5938 133.193L51.5416 115.791L76.9566 130.559L77.0943 179.115L51.6792 164.347L51.6317 147.453" fill="#F0F0F0"/>
<path d="M76.9566 130.559L51.5416 115.791L100.373 87.5991L125.788 102.372L76.9566 130.559Z" fill="#F0F0F0"/>
<path d="M125.788 102.371L125.926 150.923L77.0942 179.115L76.9565 130.558L125.788 102.371Z" fill="white"/>
<path d="M62.4405 114.804L37.0254 100.036L36.8878 51.5034L62.3028 66.2711L62.4405 114.804Z" fill="#F0F0F0"/>
<path d="M76.2351 28.7845L85.7384 23.3018L111.154 38.0695L62.3028 66.271L36.8878 51.5033L62.4405 36.7498" fill="#F0F0F0"/>
<path d="M111.153 38.0698L111.291 86.6024L62.4404 114.804L62.3027 66.2713L111.153 38.0698Z" fill="white"/>
<path d="M86.7447 60.0762C94.7385 55.4621 101.228 59.1695 101.256 68.3453C101.28 77.5211 94.8335 88.7001 86.8397 93.3142C78.8459 97.9282 72.3473 94.2256 72.3188 85.0498C72.2951 75.8739 78.7509 64.6902 86.7447 60.0762Z" fill="white"/>
<path d="M163.042 119.313C163.018 111.077 156.938 107.636 149.789 111.77C142.986 115.701 137.466 125.251 137.489 133.06V135.396C137.499 135.709 137.665 135.998 137.936 136.15C138.068 136.226 138.22 136.269 138.372 136.269C138.524 136.269 138.676 136.231 138.809 136.15L162.61 122.408C162.881 122.251 163.052 121.962 163.047 121.649V119.313H163.042ZM139.241 133.877V133.051C139.217 125.802 144.344 116.935 150.662 113.284C156.643 109.833 161.267 112.43 161.29 119.318V121.15L139.241 133.881V133.877Z" fill="black"/>
<path d="M149.765 96.5132C146.788 98.2316 144.467 102.247 144.477 105.656C144.486 109.368 147.349 111.096 150.671 109.178C153.634 107.469 155.941 103.458 155.931 100.05C155.922 96.2474 152.978 94.6429 149.765 96.5084V96.5132ZM154.179 100.059C154.189 102.85 152.224 106.263 149.798 107.664C147.728 108.86 146.238 108.096 146.233 105.656C146.228 102.907 148.246 99.4183 150.643 98.0322C152.77 96.8028 154.175 97.7047 154.179 100.059Z" fill="black"/>
<path d="M138.235 84.2762C138.387 84.2762 138.539 84.2382 138.671 84.1575L162.473 70.4152C162.743 70.2585 162.914 69.9689 162.909 69.6557V67.3202C162.881 59.1032 156.819 55.6332 149.651 59.7773C142.849 63.703 137.328 73.2586 137.352 81.0673V83.4028C137.361 83.7161 137.527 84.0056 137.798 84.1623C137.931 84.2382 138.083 84.2809 138.235 84.2809V84.2762ZM150.529 61.2916C156.496 57.8453 161.134 60.4276 161.153 67.3249V69.1572L139.103 81.8885V81.0625C139.08 73.8092 144.206 64.9419 150.529 61.2916Z" fill="black"/>
<path d="M150.534 57.1853C153.491 55.4764 155.803 51.4653 155.793 48.057C155.784 44.2547 152.841 42.6502 149.627 44.5158C146.651 46.2342 144.33 50.2501 144.339 53.6584C144.349 57.3942 147.235 59.0841 150.534 57.1806V57.1853ZM150.505 46.0348C152.646 44.8006 154.037 45.7215 154.042 48.0617C154.051 50.8529 152.086 54.266 149.66 55.6711C147.567 56.872 146.1 56.0745 146.095 53.6631C146.091 50.9146 148.108 47.4256 150.505 46.0395V46.0348Z" fill="black"/>
<path d="M100.962 139.084C94.1595 143.015 88.6388 152.565 88.6626 160.374V162.71C88.672 163.023 88.8382 163.312 89.1088 163.469C89.2417 163.545 89.3936 163.588 89.5455 163.588C89.6974 163.588 89.8493 163.55 89.9822 163.469L113.783 149.727C114.054 149.57 114.225 149.281 114.22 148.967V146.632C114.187 138.358 108.068 134.973 100.957 139.089L100.962 139.084ZM90.4142 161.195V160.369C90.3905 153.121 95.5171 144.254 101.835 140.603C107.793 137.162 112.44 139.73 112.464 146.637V148.464L90.4142 161.195Z" fill="black"/>
<path d="M100.933 123.827C97.957 125.546 95.6357 129.562 95.6452 132.97C95.6547 136.706 98.5409 138.396 101.84 136.492C104.802 134.783 107.109 130.772 107.1 127.364C107.09 123.642 104.223 121.924 100.933 123.823V123.827ZM105.348 127.373C105.357 130.165 103.392 133.578 100.967 134.978C98.8874 136.179 97.4064 135.396 97.4016 132.97C97.3969 130.221 99.4143 126.732 101.811 125.346C103.895 124.141 105.343 124.976 105.348 127.373Z" fill="black"/>
<path d="M102.044 69.4275L104.204 68.1791C104.622 67.937 104.769 67.4006 104.522 66.9829C104.285 66.5651 103.743 66.418 103.326 66.6648L102.044 67.4054C101.598 59.0413 95.8777 55.0349 88.0738 58.5049V56.9384C88.069 56.4542 87.6751 56.0649 87.1956 56.0649C86.7114 56.0649 86.3174 56.4589 86.3221 56.9431V59.3166C86.3221 59.3166 86.3222 59.3166 86.3127 59.3213C78.091 64.0683 71.4215 75.6128 71.45 85.0592C71.45 85.0639 71.45 85.0687 71.45 85.0734L69.3946 86.2602C68.9769 86.5022 68.8297 87.0387 69.0766 87.4564C69.238 87.7365 69.5323 87.8931 69.8361 87.8931C69.9832 87.8931 70.1351 87.8551 70.2728 87.7744L71.6352 86.9864C72.5371 95.1369 78.6844 98.4882 86.4314 94.5103V95.9344C86.4361 96.4186 86.8301 96.8078 87.3095 96.8078C87.7937 96.8078 88.1877 96.4138 88.183 95.9297V93.4518C95.6689 88.6051 101.617 78.2948 102.049 69.4228L102.044 69.4275ZM86.4029 92.5593C79.5246 96.523 73.7808 94.1258 73.2871 86.0323L75.2808 84.8835C75.6986 84.6415 75.8457 84.1051 75.5988 83.6873C75.3567 83.2648 74.8203 83.1224 74.4026 83.3693L73.2823 84.0149C73.6953 75.6793 79.2872 65.9955 86.3316 61.4337V62.7059C86.3364 63.1901 86.7304 63.5793 87.2099 63.5793C87.6941 63.5793 88.088 63.1853 88.0833 62.7011V60.3846C95.3271 56.7343 100.354 60.4416 100.378 68.3547C100.378 68.3595 100.378 68.3642 100.378 68.3737L98.3129 69.5652C97.8952 69.8073 97.748 70.3437 97.9949 70.7614C98.1563 71.0415 98.4506 71.1982 98.7544 71.1982C98.9015 71.1982 99.0535 71.1602 99.1911 71.0795L100.207 70.4956C99.4237 78.2046 94.4726 86.7728 88.1687 91.3394V90.1811C88.1687 89.6969 87.77 89.3077 87.2905 89.3077C86.8063 89.3077 86.4124 89.7017 86.4171 90.1859V92.5546C86.4171 92.5546 86.4171 92.5641 86.4076 92.5641L86.4029 92.5593Z" fill="black"/>
</g>
<path d="M175.574 105.034C175.574 104.546 175.189 104.156 174.696 104.156C174.202 104.156 173.818 104.579 173.818 105.034L173.889 122.242L126.78 149.404L126.676 102.86L173.746 75.6984L173.78 91.4725C173.78 91.9614 174.164 92.3506 174.658 92.3506C175.151 92.3506 175.536 91.9282 175.536 91.4725C175.294 1.26657 175.379 32.3779 175.36 25.6468C175.36 25.3335 175.185 25.0487 174.905 24.8778L149.494 10.1196C149.247 9.97718 148.896 9.94395 148.616 10.1196L106.558 34.3717L86.194 22.5233C85.914 22.3809 85.5627 22.3809 85.2826 22.5233L75.784 28.025C75.3615 28.2718 75.2238 28.794 75.4707 29.2165C75.7175 29.639 76.2397 29.7766 76.6622 29.5298L85.7383 24.3082C86.0943 24.5123 110.964 38.9572 109.397 38.0458C103.834 41.2405 88.8998 49.8846 62.3265 65.2457H62.2932L38.6345 51.5081L62.8866 37.4904C63.309 37.2815 63.4467 36.7214 63.1999 36.2989C62.953 35.8764 62.4309 35.7388 62.0084 35.9856L36.4557 50.7438C36.1756 50.8862 36 51.1995 36 51.5128L36.1424 100.022C36.1424 100.335 36.318 100.62 36.5981 100.791L56.1222 112.112L51.1095 115.022C50.8294 115.198 50.6538 115.478 50.6538 115.791L50.7249 133.174C50.7249 133.663 51.1095 134.052 51.6032 134.052C52.0968 134.052 52.4813 133.668 52.4813 133.174L52.4101 117.296L76.0688 131.071L76.2112 177.582L52.5525 163.844L52.5193 147.439C52.5193 146.95 52.1348 146.561 51.6411 146.561C51.1474 146.561 50.7629 146.983 50.7629 147.439L50.7961 164.333C50.7961 164.646 50.9718 164.931 51.2519 165.102L76.6622 179.856C77.0134 180.031 77.1178 180.064 77.5403 179.856C111.68 160.156 141.049 143.195 175.189 123.495C175.469 123.32 175.645 123.04 175.645 122.726L175.574 105.025V105.034ZM110.275 39.598C110.323 47.9716 110.294 39.3227 110.418 86.1084C92.9821 96.1719 84.4234 101.099 63.309 113.27C63.2521 96.9172 63.1714 67.1445 63.1667 66.7932C63.5179 66.5891 112.639 38.2214 110.275 39.5933V39.598ZM112.065 46.9605L124.787 54.3562C124.796 59.1079 124.749 37.1391 124.891 100.833L106.701 90.2857L111.714 87.3759C111.994 87.2002 112.169 86.9202 112.169 86.6069C112.084 55.0683 112.065 47.3925 112.065 46.9653V46.9605ZM37.8988 99.5328L37.7563 53.0223L61.415 66.76C61.415 66.76 61.4483 72.2996 61.5574 113.27C61.2062 113.062 39.2659 100.335 37.8988 99.5328ZM76.9423 129.533L53.2835 115.796L57.8738 113.133L62.0084 115.549C62.2885 115.758 62.6397 115.725 62.8866 115.549C67.1873 113.066 47.3072 124.544 104.944 91.2589L124.013 102.371C77.5024 129.225 99.5804 116.47 76.9423 129.533ZM77.9581 177.587L77.8157 131.076C78.2097 130.848 125.28 103.672 124.924 103.876V103.947C124.924 104.683 124.924 111.31 125.029 150.425C120.12 153.263 80.303 176.257 77.9581 177.587ZM112.06 44.9241L112.027 38.0553C112.027 37.742 111.851 37.4572 111.604 37.3195C111.296 37.1628 109.174 35.9002 108.31 35.3922L149.072 11.9092L172.697 25.6468L125.66 52.8087L112.06 44.9241ZM126.533 54.3515C131.347 51.5698 109.098 64.4245 173.604 27.1516C173.609 29.4633 173.566 15.0611 173.746 73.662C133.023 97.164 168.506 76.6858 126.676 100.824C126.657 94.7621 126.733 120.225 126.533 54.3467V54.3515Z" fill="#33AD43"/>
<path d="M86.7589 74.7154C82.9043 76.9607 79.7856 82.3912 79.7856 86.8438V88.2109L93.8033 80.1127V78.7123C93.8033 74.2977 90.6513 72.5081 86.7589 74.7154Z" fill="#33AD43"/>
<path d="M86.792 72.2995C88.368 71.3881 89.6307 69.214 89.6307 67.3912C89.5974 65.5684 88.3347 64.8326 86.7588 65.744C85.1828 66.6554 83.8869 68.8628 83.8869 70.6856C83.9201 72.5084 85.1828 73.211 86.7967 72.2995H86.792Z" fill="#33AD43"/>
</svg>
