<svg width="211" height="201" viewBox="0 0 211 201" fill="none" xmlns="http://www.w3.org/2000/svg">
<mask id="mask0_3120_94" style="mask-type:alpha" maskUnits="userSpaceOnUse" x="0" y="0" width="211" height="201">
<rect width="211" height="201" fill="#D9D9D9"/>
</mask>
<g mask="url(#mask0_3120_94)">
<path d="M149.07 161.738L136.893 154.654L117.052 129.189L129.229 136.273L149.07 161.738Z" fill="white"/>
<path d="M127.674 38.0632L150.237 25.052C152.764 23.6135 155.066 23.4537 156.699 24.417L168.881 31.523C167.218 30.564 164.945 30.6893 162.418 32.158L60.0698 91.1878C55.0459 94.0648 50.9509 101.097 50.9768 106.89L51.1409 170.827C51.1409 173.704 52.1301 175.721 53.763 176.68L41.6114 169.605C39.9785 168.646 38.9591 166.628 38.9591 163.751L38.7949 99.8144C38.7949 93.9913 42.8642 86.989 47.8881 84.0818L111.937 47.139" fill="#F0F0F0"/>
<path d="M162.41 32.1448C167.429 29.2506 171.524 31.553 171.537 37.3545L171.688 101.309C171.701 107.11 167.632 114.121 162.608 117.02L152.733 122.718L149.07 161.738L129.229 136.273L60.2599 176.05C55.2403 178.944 51.1451 176.641 51.1321 170.84L50.981 106.886C50.968 101.084 55.0373 94.0732 60.0612 91.1746L162.414 32.1448H162.41Z" fill="white"/>
<path d="M172.336 37.3545C172.332 34.2701 171.239 31.9461 169.274 30.81C169.256 30.797 169.23 30.797 169.213 30.7884L157.105 23.7256C155.152 22.5722 152.573 22.8011 149.839 24.3606L127.277 37.3717C126.892 37.5921 126.763 38.0802 126.983 38.4647C127.199 38.8491 127.687 38.9787 128.076 38.7584L150.634 25.7515C152.82 24.5075 154.88 24.2742 156.297 25.1079L165.109 30.2484C164.029 30.4644 162.34 31.2679 162.012 31.458L59.6593 90.4877C54.4021 93.5159 50.1645 100.942 50.1817 106.89C50.2249 121.162 50.2854 169.509 50.3934 171.462C50.4539 172.615 50.5359 172.879 50.6828 173.462C50.7303 173.652 50.7563 173.864 50.8167 174.045L42.0217 168.926C40.5617 168.067 39.7625 166.231 39.7625 163.755L39.5983 99.8184C39.5983 94.2978 43.4991 87.5503 48.2897 84.777L112.339 47.8386C112.723 47.6183 112.853 47.1301 112.633 46.7457C112.412 46.3612 111.92 46.2316 111.54 46.4519L47.4905 83.3903C42.1729 86.4703 38.0043 93.6844 38 99.8184L38.1641 163.755C38.1641 166.818 39.2441 169.142 41.2139 170.304L53.3655 177.38C53.3655 177.38 53.3827 177.38 53.387 177.384C53.387 177.384 53.3913 177.389 53.3956 177.393C55.6678 178.702 58.385 178.058 60.6572 176.749L124.426 139.971L136.266 155.142C136.331 155.237 136.396 155.302 136.491 155.366L148.673 162.442C149.122 162.667 149.804 162.434 149.865 161.82L153.489 123.21L163.01 117.72C168.25 114.7 172.501 107.339 172.488 101.317L172.336 37.3631V37.3545ZM137.415 154.049L125.821 139.159L129.013 137.318L145.886 158.982L137.411 154.053L137.415 154.049ZM162.211 116.329L152.332 122.026C152.107 122.156 151.96 122.385 151.934 122.644L148.457 159.66L129.856 135.785C129.609 135.47 129.169 135.383 128.823 135.586L59.8537 175.363C55.2531 178.015 51.9356 175.903 51.9399 170.827L51.7757 106.886C51.7498 101.533 55.6593 94.6347 60.4672 91.8787L162.82 32.8446C167.196 30.2916 170.725 32.0973 170.734 37.3545L170.885 101.313C170.898 106.825 167.006 113.56 162.207 116.329H162.211Z" fill="#37B44A"/>
<path d="M107.008 109.145C107.008 109.525 106.753 110.031 106.416 110.285L102.533 113.236C102.278 113.447 102.066 113.828 101.984 114.165C101.561 116.696 100.758 119.271 99.7424 121.802C99.5739 122.182 99.5739 122.519 99.7424 122.687L102.062 124.925C102.274 125.137 102.231 125.599 101.976 126.022L98.9778 131.21C98.8914 131.465 98.684 131.634 98.5156 131.716C98.3471 131.798 98.2218 131.841 98.0922 131.841L94.887 131.038C94.7617 130.994 94.6322 131.038 94.5069 131.124C94.3816 131.21 94.252 131.336 94.1267 131.461C92.4809 133.612 90.6666 135.552 88.6795 137.241C88.3858 137.452 88.1741 137.872 88.1309 138.252C87.9624 139.392 87.7075 141.755 87.539 142.934C87.4959 143.358 87.2021 143.82 86.8651 143.988L82.6016 146.477C82.2646 146.688 81.9665 146.559 81.9277 146.222L81.2538 142.126C81.2106 141.833 81.0421 141.746 80.7484 141.79C78.7656 142.42 76.9081 142.589 75.219 142.377C75.137 142.334 75.0074 142.377 74.8821 142.42C74.7136 142.546 74.5883 142.632 74.4588 142.8L71.3356 147.271C71.2103 147.44 71.0807 147.565 70.9555 147.651C70.787 147.738 70.5753 147.777 70.45 147.695L67.4132 146.006C67.1583 145.88 67.1195 145.457 67.3311 145.034L69.612 140.057C69.7804 139.677 69.7805 139.34 69.6552 139.172C68.558 137.863 67.7588 136.174 67.3354 134.148C67.249 133.893 67.0418 133.768 66.7437 133.854L62.9466 135.37C62.6096 135.539 62.3547 135.327 62.3547 134.947L62.3159 130.053C62.3159 129.673 62.5707 129.21 62.9077 128.912L66.748 126.001C67.0029 125.746 67.2534 125.409 67.2966 125.029C67.7632 122.497 68.5234 119.923 69.5774 117.391C69.7027 117.055 69.7027 116.718 69.5342 116.549L67.2577 114.268C67.046 114.057 67.0893 113.633 67.301 113.214L70.2989 107.983C70.4241 107.771 70.6358 107.56 70.8042 107.478C70.9295 107.391 71.098 107.352 71.1844 107.391L74.3897 108.151C74.5149 108.195 74.6445 108.151 74.7698 108.065C74.895 108.022 75.0247 107.897 75.15 107.728C76.7958 105.62 78.6532 103.637 80.5971 101.991C80.8909 101.737 81.1458 101.318 81.189 100.937C81.3143 99.797 81.6123 97.4341 81.7376 96.2548C81.7808 95.8314 82.0746 95.4124 82.4115 95.2008L86.7183 92.7126C87.0121 92.5441 87.3489 92.6305 87.3921 92.9674L88.0229 97.0626C88.0661 97.3563 88.2778 97.4859 88.5715 97.3995C90.5543 96.7688 92.3686 96.6004 94.0576 96.8552C94.1829 96.8984 94.3124 96.812 94.4377 96.7688C94.563 96.6824 94.7315 96.5572 94.8179 96.3887L97.9411 91.9609C98.0664 91.7924 98.196 91.624 98.3644 91.5808C98.5329 91.4555 98.7446 91.4555 98.8267 91.4987L101.863 93.2309C102.118 93.3562 102.157 93.7795 101.989 94.2029L99.7078 99.1793C99.4962 99.5162 99.4962 99.8532 99.6647 100.065C100.719 101.331 101.518 103.063 101.984 105.046C102.028 105.339 102.278 105.469 102.533 105.339L106.373 103.823C106.71 103.655 106.965 103.866 106.965 104.246L107.004 109.141L107.008 109.145Z" fill="white"/>
<path d="M123.929 125.14L114.063 130.83L113.95 108.362L123.817 102.669L123.929 125.14Z" fill="#F0F0F0"/>
<path d="M160.246 47.8428L160.341 104.138L150.474 109.827L150.379 53.5319L160.246 47.8428Z" fill="#F0F0F0"/>
<path d="M142.033 71.1006L142.137 114.64L132.27 120.329L132.167 76.7897L142.033 71.1006Z" fill="#F0F0F0"/>
<path d="M106.084 103.088L102.663 104.44C102.157 102.505 101.345 100.833 100.347 99.706L102.736 94.505C103.073 93.6583 102.862 92.8418 102.261 92.5395L99.1853 90.7856C98.6886 90.5394 97.9024 90.6776 97.289 91.5027C96.1572 93.0967 94.2349 95.857 94.0449 96.0471C92.3774 95.8139 90.589 95.9737 88.7445 96.5137L88.1829 92.8721C88.0749 91.9779 87.1245 91.5632 86.3167 92.0254L81.9884 94.5266C81.4182 94.8808 81.0034 95.5331 80.9429 96.1724C80.8738 96.816 80.4289 100.522 80.39 100.851C80.3727 101.011 80.2302 101.252 80.079 101.382C78.1696 103.002 76.2474 105.024 74.5195 107.304C74.4979 107.313 74.4676 107.326 74.4373 107.339L71.5431 106.669C70.8476 106.32 70.0096 106.894 69.6078 107.581L66.5883 112.851C66.1995 113.633 66.2384 114.372 66.6963 114.83L68.8778 117.011C68.8778 117.011 68.8562 117.033 68.8432 117.08C67.7806 119.629 66.9987 122.251 66.5063 124.933C66.502 124.981 66.4631 125.149 66.2687 125.357L62.3852 128.303C61.8582 128.761 61.5212 129.448 61.5212 130.048L61.5602 134.938C61.5602 135.971 62.5061 136.476 63.2492 136.104L66.6532 134.739C67.1024 136.614 67.8713 138.23 68.9426 139.552C68.9339 139.59 68.921 139.647 68.8865 139.716L66.6186 144.671C66.1693 145.56 66.4544 146.411 67.029 146.697L70.0052 148.347C70.4934 148.675 71.3358 148.597 71.9967 147.72C72.0874 147.591 75.0853 143.284 75.1976 143.172C76.9298 143.379 78.7572 143.202 80.5412 142.679L81.1416 146.312C81.2583 147.241 82.2216 147.655 83.0121 147.154L87.2282 144.692C87.8157 144.398 88.2737 143.703 88.3384 143.033C88.5069 141.845 88.7617 139.491 88.9345 138.325C88.9561 138.126 89.0771 137.932 89.2067 137.832C92.4422 135.076 94.7835 131.919 94.8742 131.841L98.1011 132.627C98.7706 132.627 99.5526 132.07 99.6779 131.595L102.671 126.415C103.129 125.655 103.112 124.821 102.624 124.333L100.438 122.225C100.451 122.19 100.464 122.143 100.49 122.082C101.626 119.253 102.373 116.7 102.766 114.341C102.818 114.13 102.952 113.914 103.026 113.858L106.905 110.907C107.432 110.51 107.816 109.762 107.816 109.127L107.777 104.233C107.777 103.192 106.814 102.691 106.093 103.067L106.084 103.088ZM105.933 109.65L102.023 112.622C101.652 112.929 101.341 113.447 101.194 114.035C100.81 116.341 100.093 118.782 99.0126 121.478C98.7016 122.177 98.762 122.838 99.1897 123.266L101.388 125.387C101.376 125.443 101.345 125.525 101.285 125.625L98.2869 130.813C98.2653 130.852 98.1271 130.955 98.0752 131.016L95.1378 130.281C94.8915 130.195 94.5028 130.16 94.0622 130.458C93.1939 131.037 91.9454 133.409 88.2175 136.588C87.7509 136.921 87.4053 137.539 87.3406 138.135C87.1634 139.31 86.9128 141.677 86.7444 142.856C86.7271 143.033 86.5759 143.236 86.4636 143.301L82.6234 145.539L82.0445 142.018C81.9408 141.297 81.4051 140.904 80.5023 141.029C78.7269 141.595 77.0034 141.785 75.3964 141.595C74.8003 141.431 74.1782 141.845 73.8067 142.342L70.6964 146.792C70.6705 146.826 70.649 146.852 70.6274 146.878L68.0312 145.435C68.0441 145.396 68.0528 145.366 68.0528 145.366L70.3335 140.385C70.623 139.742 70.6014 139.111 70.2601 138.657C69.2234 137.418 68.4977 135.845 68.0873 133.897C67.8627 133.219 67.219 132.886 66.4414 133.111L63.1455 134.428L63.1109 130.052C63.1109 129.957 63.2189 129.698 63.3874 129.551L67.3097 126.571C67.7719 126.108 68.0311 125.625 68.0786 125.18C68.5408 122.661 69.2926 120.147 70.325 117.676C70.5755 117.011 70.4891 116.376 70.1004 115.987L67.9189 113.879C67.9189 113.853 67.9318 113.741 67.9923 113.616C70.6532 109.011 70.8347 108.462 71.1544 108.212L74.1393 108.916C75.7592 109.46 76.0141 106.929 81.1158 102.605C81.578 102.207 81.9193 101.589 81.9797 101.032C82.0186 100.708 82.4592 97.0191 82.5326 96.3409C82.5499 96.1897 82.6925 95.978 82.8134 95.9002L86.6926 93.6626L87.2326 97.1832C87.3406 97.9219 87.9885 98.41 88.8179 98.1724C90.6624 97.585 92.3428 97.4165 93.8072 97.6238C94.4034 97.8182 95.2501 97.3517 95.4704 96.8636L98.5633 92.3667C98.5979 92.358 98.6324 92.3451 98.6627 92.3321L101.28 93.8224C101.134 94.1464 98.8873 99.0839 99.0342 98.7643C98.6498 99.3733 98.654 100.086 99.0557 100.587C100.028 101.754 100.771 103.36 101.198 105.166C101.319 106.026 102.196 106.415 102.831 106.095L106.17 104.773L106.205 109.153C106.205 109.27 106.08 109.542 105.929 109.654L105.933 109.65Z" fill="black"/>
<path d="M84.265 108.548C78.9905 111.628 74.8868 118.769 74.9214 124.795C74.9559 131.05 79.6385 133.737 85.1289 130.558C90.3343 127.534 94.5288 120.251 94.4727 114.328C94.4381 108.03 89.7641 105.369 84.2607 108.548H84.265ZM84.3298 129.175C79.8891 131.741 76.5499 129.784 76.524 124.787C76.4937 119.37 80.3297 112.704 85.0685 109.931C89.4574 107.404 92.8485 109.218 92.8787 114.341C92.9262 119.754 89.0902 126.411 84.3298 129.175Z" fill="black"/>
<path d="M124.214 101.978C123.968 101.836 123.661 101.836 123.415 101.978L113.548 107.668C113.298 107.81 113.147 108.078 113.147 108.363L113.259 130.83C113.259 131.444 113.933 131.824 114.46 131.517L124.326 125.828C124.577 125.685 124.728 125.418 124.728 125.133L124.616 102.665C124.616 102.38 124.46 102.117 124.214 101.978ZM114.853 129.448L114.749 108.821L123.022 104.052L123.121 124.679L114.849 129.448H114.853Z" fill="black"/>
<path d="M161.044 47.843C161.044 47.5579 160.893 47.2944 160.647 47.1518C160.396 47.0093 160.094 47.0093 159.848 47.1518L149.981 52.8453C149.731 52.9879 149.58 53.2514 149.58 53.5365L149.679 109.832C149.679 110.45 150.353 110.83 150.88 110.523L160.746 104.829C160.997 104.687 161.148 104.423 161.148 104.138L161.049 47.843H161.044ZM151.273 108.445L151.178 53.9944L159.446 49.2253L159.541 103.676L151.273 108.445Z" fill="black"/>
<path d="M142.431 70.4053C142.184 70.2627 141.878 70.2627 141.631 70.4053L131.765 76.0944C131.519 76.237 131.363 76.5005 131.363 76.7856L131.467 120.325C131.467 120.951 132.145 121.318 132.668 121.016L142.534 115.327C142.78 115.184 142.936 114.921 142.936 114.635L142.832 71.0964C142.832 70.8113 142.681 70.5478 142.431 70.4053ZM133.065 118.947L132.966 77.2478L141.234 72.4787L141.333 114.178L133.065 118.947Z" fill="black"/>
</g>
</svg>
