<svg width="211" height="191" viewBox="0 0 211 191" fill="none" xmlns="http://www.w3.org/2000/svg">
<mask id="mask0_3120_87" style="mask-type:alpha" maskUnits="userSpaceOnUse" x="0" y="0" width="211" height="191">
<rect width="211" height="191" fill="#D9D9D9"/>
</mask>
<g mask="url(#mask0_3120_87)">
<path d="M40.8071 42.4925C43.7368 39.2363 47.0019 36.4743 50.4522 34.48C63.1152 27.169 73.4442 33.0549 73.4839 47.6063C73.5236 62.1886 63.2652 79.93 50.6022 87.241C37.9128 94.5697 27.6103 88.697 27.5706 74.1147C26.8426 64.2491 32.5608 48.7181 40.8071 42.4881V42.4925Z" fill="#F0F0F0"/>
<path d="M88.5118 51.5336C110.162 62.1185 118.404 76.0301 135.669 87.7842C148.862 96.816 175.498 107.392 175.132 118.272C175.013 121.158 171.929 123.801 169.365 123.36C173.733 125.522 177.7 128.447 181.022 131.972C189.842 141.485 178.499 145.946 175.573 140.947C178.018 143.669 177.378 148.28 174.77 150.804C172.127 153.327 168.081 153.967 164.516 153.208C160.951 152.489 157.788 150.565 154.783 148.522L154.743 148.483C156.424 153.649 152.219 159.822 146.81 160.14C143.567 160.352 143.479 160.087 102.463 144.556C101.1 146.519 98.4966 146.797 96.0125 146.48C94.0094 146.334 88.7236 144.874 86.3984 144.035C85.8733 144.035 80.9273 141.939 78.5447 140.748C58.2133 130.869 46.0489 111.619 45.1311 102.808C44.6105 97.8793 46.4945 92.7523 45.0517 88.0269C43.2118 82.3263 37.198 77.8435 37.198 72.8842C37.7186 57.3268 51.5553 41.8621 61.4739 41.6768H61.593C61.6945 41.6768 62.7622 41.7253 62.8328 41.7959C66.4729 42.0739 70.1086 43.6049 78.4255 47.0464" fill="white"/>
<path d="M169.365 123.36C169.365 123.36 161.772 116.98 134.125 105.036L169.365 123.36Z" fill="white"/>
<path d="M95.9947 146.493C95.4608 146.453 94.927 146.369 94.3975 146.246C88.9043 145.098 83.5744 143.254 78.5312 140.752C78.7342 140.095 79.0651 139.521 79.3519 138.908C79.6784 138.211 80.0888 137.514 80.6623 136.98C81.1124 136.53 81.6463 136.243 82.1801 135.996C84.8451 134.849 87.9601 135.339 90.7045 136.283C91.7723 136.654 92.7959 137.064 93.7401 137.717C94.6402 138.374 95.4211 139.274 95.7476 140.342C95.9506 140.955 95.9506 141.653 95.9947 142.31C96.0786 143.704 96.158 145.098 95.9947 146.493Z" fill="white"/>
<path d="M136.128 87.1184C130.935 83.5578 126.099 79.375 121.457 75.1614C121.197 75.682 120.968 76.2071 120.738 76.7277C125.314 80.8443 130.048 84.9609 135.21 88.4553C135.899 88.9451 136.613 89.4039 137.333 89.8275C137.659 89.4039 137.986 88.976 138.281 88.5215C137.531 88.0626 136.843 87.6082 136.124 87.1184H136.128ZM88.8867 50.7884C88.4631 50.5943 87.9733 50.7575 87.7748 51.1811C87.5807 51.5738 87.7439 52.0635 88.1675 52.2577C91.6972 53.9873 94.8343 55.7521 97.7066 57.5832C99.1097 58.4656 100.451 59.4143 101.792 60.3938L102.578 58.9907C101.272 58.0112 99.9657 57.0979 98.5935 56.2154C95.655 54.3226 92.4826 52.5577 88.8911 50.7928L88.8867 50.7884ZM181.605 131.417C178.794 128.412 175.529 125.862 171.933 123.806C174.091 122.893 175.855 120.638 175.952 118.286C176.085 114.139 172.948 110.838 170.561 108.681C166.541 105.12 162.032 102.182 157.426 99.4682C157.329 99.5652 157.232 99.6314 157.165 99.6976C156.936 99.7947 156.706 99.8917 156.512 99.83L153.309 99.0446C158.992 102.182 164.613 105.61 169.449 109.925C172.877 112.965 174.413 115.608 174.316 118.255C174.219 120.607 171.704 122.765 169.678 122.566C168.439 121.617 161.608 116.557 142.27 107.768C142.04 107.997 141.811 108.191 141.586 108.39C141.392 108.553 141.229 108.782 141.096 109.012C162.398 118.683 168.769 123.943 168.831 123.973C169.224 124.3 174.779 126.555 180.431 132.533C182.196 134.461 184.155 137.272 183.308 139.818C182.787 141.322 181.252 142.006 179.976 142.138C178.931 142.236 177.625 142.006 176.773 141.159C176.61 140.93 176.416 140.7 176.253 140.475C176.089 140.246 173.932 137.47 166.682 132.829C161.03 129.237 152.241 124.529 138.881 119.01C138.85 119.107 138.784 119.142 138.718 119.173L137.152 120.086C168.024 132.666 174.854 141.322 174.92 141.45C175.149 141.746 175.18 141.843 175.476 142.169C176.945 144.521 176.425 148.082 174.236 150.208C171.982 152.331 168.324 153.182 164.697 152.397C161.494 151.775 158.621 150.142 155.387 147.923C154.505 146.617 146.272 135.313 114.844 123.259L114.058 124.371C113.992 124.468 113.926 124.565 113.829 124.631C144.507 136.328 153.097 147.499 153.98 148.805C154.668 150.963 154.24 153.544 152.771 155.666C151.302 157.824 149.078 159.196 146.761 159.324C144.441 159.456 142.058 158.574 139.931 157.789C127.714 153.182 115.527 148.607 103.341 144C103.897 141.19 103.668 137.991 102.556 134.691C99.7451 126.85 92.3944 121.428 84.8495 117.867C84.523 117.638 79.5549 116.071 77.2385 110.746C76.6516 109.471 75.8663 107.022 76.9781 105.063C77.1723 104.67 77.0443 104.149 76.6516 103.92C76.259 103.726 75.7692 103.854 75.5398 104.247C74.0705 106.828 75.05 109.868 75.7692 111.465C78.3812 117.413 83.8391 119.142 84.1656 119.372C85.7011 120.091 87.0733 120.907 88.4455 121.56C93.9651 125.024 98.8008 129.105 101.025 135.247C102.101 138.481 102.3 141.583 101.647 144.265C100.733 145.377 99.1318 145.867 96.8772 145.704C96.9433 144.561 96.908 143.383 96.8463 142.275L96.8154 141.949C96.6212 138.357 94.596 136.756 91.0001 135.511C87.4042 134.302 84.3333 134.205 81.8536 135.251C79.6343 136.297 79.0784 137.603 78.1606 139.597C65.6829 133.358 55.3231 123.329 48.9519 111.24C47.6459 108.756 46.2737 105.782 45.9781 102.746C45.2898 96.212 48.493 91.4424 44.1823 84.1579C41.9586 80.4648 38.7597 77.3631 38.1067 73.7671C37.1581 66.187 44.1514 50.8678 54.8025 44.6599C57.1542 43.3186 59.8677 42.3082 62.5768 42.5685C62.6429 42.5994 62.7091 42.5994 62.8062 42.6347C65.78 42.8641 68.6876 44.0069 71.6262 45.1849C73.7837 46.0365 75.9722 46.9145 78.1297 47.797C78.5533 47.9911 79.0431 47.797 79.2063 47.3734C79.3696 46.9498 79.1754 46.4909 78.7827 46.2968C77.2473 45.6747 75.681 45.057 74.1455 44.4349C73.4572 38.7167 71.0746 34.4059 67.1875 32.1822C62.5503 29.504 56.4703 30.0908 50.0682 33.7838C46.6399 35.7781 43.3043 38.5225 40.2334 41.9508C39.9069 42.3082 39.9378 42.8024 40.2996 43.1289C40.6261 43.4245 41.1511 43.3892 41.4423 43.0627C44.4162 39.7624 47.5841 37.115 50.8844 35.1913C56.7659 31.8248 62.2547 31.238 66.3712 33.5897C69.5745 35.4516 71.5997 39.0123 72.3189 43.6848C72.2527 43.6848 72.2218 43.6539 72.1556 43.6186C69.0538 42.4097 65.1976 40.8742 61.5046 40.8742C59.2853 40.9051 56.7041 41.7214 53.9906 43.2259C40.957 50.8723 34.3872 69.7212 37.0699 75.9953C38.2479 79.0353 41.0232 82.0709 42.788 85.0138C43.997 87.1052 44.2264 88.0847 44.4559 88.9671C40.7982 89.9466 37.4625 89.7172 34.7535 88.1818C30.6678 85.861 28.4484 80.8619 28.4175 74.1333C28.4175 73.6745 28.0601 73.3171 27.6013 73.3171C27.1424 73.3171 26.785 73.6745 26.785 74.1333C26.8159 81.4841 29.3353 86.9728 33.9416 89.5848C37.4052 91.61 41.032 91.5439 44.7559 90.6305C45.1133 94.6809 43.9043 98.7004 44.3632 102.914C44.6897 106.245 46.159 109.382 47.5312 112.03C57.2998 130.521 75.3986 143.131 94.2475 147.054C94.8034 147.186 95.3902 147.283 95.977 147.314H96.0741C99.0788 147.671 101.369 147.054 102.772 145.549C114.958 150.155 127.145 154.731 139.393 159.302C141.449 160.087 143.805 161.001 146.254 161.001C149.519 161.001 152.365 159.236 154.125 156.624C155.467 154.665 156.084 152.41 155.921 150.253C158.798 152.084 161.441 153.42 164.384 154.007C168.531 154.921 172.749 153.91 175.361 151.395C177.484 149.339 178.335 146.233 177.779 143.555C178.498 143.784 179.315 143.85 180.166 143.784C182.421 143.555 184.217 142.218 184.87 140.352C185.752 137.673 184.675 134.7 181.635 131.435L181.605 131.417ZM94.574 145.43C89.5088 144.353 84.7083 142.818 79.5769 140.303C80.4285 138.472 80.8521 137.492 82.5155 136.742C84.5715 135.86 87.2542 135.957 90.4221 137.069C93.2327 138.018 94.9976 139.094 95.1608 142.002L95.1917 142.359C95.2579 143.436 95.2888 144.481 95.2579 145.527C95.0285 145.496 94.799 145.496 94.5696 145.43H94.574Z" fill="#37B44A"/>
<path d="M131.133 123.179L122.468 118.22C122.305 118.127 122.194 117.946 122.159 117.708L121.122 111.253C121.087 111.015 120.994 110.851 120.849 110.759L129.514 115.718C129.677 115.811 129.77 115.974 129.805 116.212L130.825 122.685C130.878 122.923 130.988 123.086 131.133 123.179Z" fill="#F0F0F0"/>
<path d="M170.098 55.3061C169.948 55.262 169.78 55.284 169.608 55.3679L163.537 57.8078L154.858 52.8397L160.929 50.3997C161.163 50.2938 161.375 50.2938 161.542 50.3997L170.093 55.3017L170.098 55.3061Z" fill="#F0F0F0"/>
<path d="M162.941 57.7811L154.262 52.813C154.421 52.9056 154.628 52.9145 154.858 52.8306L163.537 57.7988C163.307 57.8826 163.1 57.8738 162.941 57.7811Z" fill="white"/>
<path d="M107.775 122.319L99.1099 117.36C98.726 117.139 98.6907 116.486 98.9819 115.828L102.609 107.935L111.292 112.894L107.665 120.788C107.374 121.463 107.409 122.12 107.775 122.319Z" fill="#F0F0F0"/>
<path d="M98.6774 98.1309L107.356 103.099C107.497 103.183 107.603 103.333 107.652 103.54C108.371 106.743 109.615 109.4 111.314 111.46C111.548 111.756 111.548 112.303 111.296 112.89L102.617 107.922C102.873 107.33 102.869 106.783 102.635 106.492C100.941 104.431 99.6966 101.771 98.973 98.5721C98.9244 98.3603 98.8186 98.2103 98.6774 98.1309Z" fill="#F0F0F0"/>
<path d="M132.117 40.1984L140.787 45.1666C140.933 45.2416 141.118 45.2769 141.339 45.2019C144.494 44.2135 147.428 43.9179 150.106 44.3194C150.251 44.3547 150.472 44.2841 150.657 44.1738C150.913 44.0635 151.134 43.8429 151.319 43.587L156.27 36.5451C156.455 36.2495 156.671 36.0333 156.932 35.923C157.187 35.7377 157.483 35.7024 157.664 35.8127L162.504 38.5262L155.317 34.3435L148.994 30.8799C148.813 30.7696 148.517 30.8049 148.222 30.9549C148.001 31.1005 147.781 31.3211 147.56 31.577L142.645 38.6189C142.424 38.8748 142.204 39.0954 141.983 39.2057C141.798 39.316 141.577 39.391 141.396 39.3513C138.753 38.9498 135.819 39.241 132.664 40.2337C132.444 40.3088 132.259 40.269 132.113 40.1984H132.117Z" fill="#F0F0F0"/>
<path d="M113.485 54.0664C112.765 54.9136 112.068 55.7784 111.389 56.6696C111.208 56.8902 110.987 57.0711 110.802 57.2211C110.581 57.3314 110.361 57.3667 110.18 57.3314L118.85 62.2996C119.035 62.3746 119.251 62.2996 119.472 62.1893C119.693 62.079 119.878 61.8584 120.059 61.6377C122.702 58.2271 125.6 55.1077 128.68 52.5045C129.196 52.103 129.563 51.4412 129.633 50.819L120.963 45.8906C120.888 46.4774 120.522 47.1393 120.01 47.5408C119.401 48.0482 118.806 48.5732 118.214 49.1204L113.485 54.0708V54.0664Z" fill="#F0F0F0"/>
<path d="M106.738 90.5775L100.632 95.2633C100.085 95.6825 99.7009 96.4502 99.7009 97.0502L99.7539 104.833C99.7715 105.16 99.8818 105.398 100.08 105.526L91.3972 100.549C91.1986 100.439 91.0883 100.201 91.0883 99.8564L91.0133 92.0733C91.0133 91.4732 91.3972 90.7231 91.9443 90.304L98.0508 85.6006L106.734 90.5775H106.738Z" fill="#F0F0F0"/>
<path d="M120.968 45.8814L129.638 50.8098C129.858 49.0493 130.299 45.3078 130.52 43.4017C130.63 42.7399 131.072 42.0428 131.619 41.7163L138.405 37.7894C138.7 37.6041 138.991 37.6041 139.177 37.7144L130.507 32.7463C130.286 32.6007 130.03 32.636 129.699 32.8213L122.949 36.7834C122.397 37.079 121.96 37.7718 121.885 38.4336C121.629 40.3397 121.188 44.0812 120.968 45.8814Z" fill="#F0F0F0"/>
<path d="M106.73 90.5681L98.0509 85.6C98.4921 85.2779 98.8274 84.6955 98.9333 84.1263C99.6349 80.12 100.857 76.0211 102.538 71.9972C102.772 71.4324 102.759 70.8941 102.498 70.625L111.177 75.5931C111.433 75.8579 111.446 76.4006 111.217 76.9653C109.536 80.9892 108.314 85.0882 107.612 89.0944C107.511 89.6636 107.171 90.246 106.73 90.5681Z" fill="#F0F0F0"/>
<path d="M118.863 62.2991L113.776 61.0769C113.595 61.024 113.374 61.0769 113.136 61.2049C112.845 61.3681 112.571 61.6593 112.369 62.0255L107.608 70.3028C107.242 70.9602 107.189 71.6706 107.515 71.9794L111.177 75.5886L102.494 70.6293L98.8275 67.0201C98.5186 66.7113 98.5539 65.9789 98.9378 65.3259L103.676 57.0486C103.875 56.6824 104.171 56.4088 104.444 56.2279C104.682 56.1 104.899 56.047 105.102 56.1L110.171 57.3398L118.854 62.2991H118.863Z" fill="#F0F0F0"/>
<path d="M170.543 56.0433C170.543 55.4255 170.159 55.1167 169.617 55.3505L163.523 57.817C163.1 57.9714 162.751 57.7772 162.636 57.314C161.904 54.1548 160.669 51.4546 158.974 49.4117C158.745 49.1029 158.745 48.5646 159.014 47.9866L162.636 40.0843C162.945 39.4269 162.866 38.7342 162.482 38.5401L157.664 35.8398C157.47 35.7251 157.201 35.7648 156.892 35.9148C156.662 36.0295 156.428 36.2634 156.234 36.5325L151.302 43.5876C151.107 43.8568 150.878 44.0509 150.684 44.1656C150.454 44.2803 150.26 44.3598 150.066 44.3201C147.406 43.9362 144.476 44.2053 141.352 45.2069C140.889 45.3216 140.545 45.1319 140.505 44.6686L139.464 38.1915C139.389 37.6532 138.886 37.4591 138.383 37.7679L131.597 41.7389C131.058 42.0478 130.595 42.7405 130.516 43.3979C130.286 45.2863 129.823 49.0279 129.629 50.8369C129.554 51.4546 129.166 52.1076 128.667 52.4958C125.583 55.1167 122.653 58.2405 120.072 61.6335C119.878 61.8629 119.688 62.0571 119.454 62.1718C119.26 62.2865 119.031 62.3659 118.837 62.2865L113.785 61.0511C113.591 61.0114 113.361 61.0511 113.127 61.2055C112.858 61.3599 112.549 61.6688 112.355 62.0174L107.612 70.3035C107.228 70.9609 107.188 71.6536 107.497 71.9977L111.159 75.5849C111.429 75.854 111.429 76.3923 111.199 76.9747C109.505 80.9854 108.309 85.0711 107.612 89.0774C107.497 89.6553 107.149 90.2333 106.725 90.5819L100.597 95.2456C100.058 95.6692 99.67 96.4413 99.67 97.059L99.7495 104.807C99.7495 105.425 100.133 105.733 100.676 105.5L106.73 103.073C107.193 102.918 107.541 103.113 107.656 103.536C108.349 106.735 109.624 109.396 111.318 111.478C111.548 111.747 111.548 112.285 111.279 112.903L107.656 120.805C107.347 121.458 107.387 122.156 107.811 122.345L112.629 125.046C112.823 125.16 113.132 125.121 113.401 124.971C113.63 124.816 113.824 124.622 114.018 124.353L118.991 117.298C119.185 117.029 119.415 116.834 119.648 116.68C119.843 116.565 120.032 116.526 120.187 116.565C122.847 116.949 125.817 116.68 128.936 115.678C129.399 115.564 129.708 115.753 129.783 116.217L130.825 122.694C130.9 123.232 131.363 123.426 131.906 123.117L138.691 119.146C139.23 118.838 139.693 118.105 139.772 117.487C140.002 115.559 140.425 111.822 140.659 110.049C140.734 109.431 141.123 108.778 141.586 108.39C144.71 105.769 147.6 102.685 150.221 99.2519C150.415 99.0224 150.604 98.8283 150.799 98.7136C151.028 98.5989 151.222 98.5195 151.416 98.5592L156.504 99.8299C156.698 99.8696 156.927 99.7902 157.161 99.6754C157.43 99.521 157.739 99.2122 157.933 98.868L162.676 90.5819C163.06 89.9245 163.1 89.1921 162.791 88.8876L159.129 85.3005C158.86 85.0314 158.86 84.4887 159.089 83.9107C160.748 79.9 161.979 75.8143 162.676 71.7683C162.791 71.23 163.1 70.652 163.563 70.3035L169.692 65.6001C170.23 65.2162 170.618 64.4441 170.618 63.8264L170.543 56.0388V56.0433ZM135.303 100.871C125.49 106.554 117.442 102.036 117.372 90.7761C117.301 79.4808 125.208 65.6486 135.162 59.8245C145.01 54.1416 153.022 58.6244 153.093 69.9549C153.199 81.2148 145.257 95.0823 135.303 100.871Z" fill="white"/>
<path d="M141.833 57.4856C144.127 59.5814 145.5 63.0538 145.535 67.7042C145.632 79.0039 137.672 92.8582 127.718 98.6558C125.362 100.032 123.134 100.787 121.069 101.012C124.378 104.025 129.519 104.22 135.316 100.88C145.275 95.0819 153.199 81.2276 153.102 69.928C153.036 61.3463 148.385 56.6958 141.833 57.4812" fill="white"/>
<path d="M171.346 56.0472C171.346 55.4604 171.117 54.9354 170.693 54.6751C170.014 54.2206 173.68 56.3649 161.97 49.7113C161.578 49.451 161.088 49.451 160.629 49.6452L160.272 49.7775C160.108 49.4819 159.879 49.1907 159.649 48.926C159.619 48.8951 159.583 48.6965 159.746 48.3391L163.373 40.4325C163.894 39.3559 163.669 38.2087 162.884 37.8205C162.557 37.6352 148.526 29.6667 149.422 30.1741C148.998 29.9138 148.407 29.9447 147.754 30.2712C147.494 30.4345 147.233 30.6948 146.872 31.1228L142.036 38.0808C141.776 38.3764 141.679 38.4382 141.515 38.5397C141.123 38.4735 140.73 38.4426 140.337 38.4073L140.271 38.0808C140.205 37.6219 139.975 37.2292 139.618 37.0351C139.292 36.8719 130.635 31.8817 130.961 32.0714C130.635 31.842 130.079 31.6787 129.293 32.1376L122.565 36.06C121.78 36.4836 121.162 37.4013 121.06 38.3455C120.985 38.8794 120.151 45.7448 120.147 45.7933C120.116 46.186 119.821 46.6449 119.494 46.9052C114.508 51.1012 111.049 55.8752 110.378 56.5414C110.043 56.462 104.982 55.2354 105.318 55.3148C104.929 55.2133 104.501 55.2751 103.994 55.5531C103.694 55.756 103.27 56.109 102.975 56.6473L98.2361 64.9202C97.6581 65.9129 97.6669 67.016 98.2581 67.6116L101.867 71.1678C101.881 71.2164 101.898 71.3973 101.775 71.6929C100.054 75.8183 98.8273 79.9569 98.1214 83.9897C98.0508 84.3647 97.8213 84.7618 97.561 84.9515C97.561 84.9515 97.5522 84.9515 97.5478 84.9559L91.4413 89.6594C90.7044 90.2241 90.1926 91.2169 90.1926 92.0816L90.2632 99.8603C90.2632 100.743 90.7265 101.122 90.9824 101.259L99.6656 106.236C99.9083 106.377 100.548 106.461 100.998 106.262L101.355 106.13C101.55 106.426 101.748 106.717 101.978 106.982C101.978 107.013 102.009 107.242 101.845 107.604L98.2184 115.51C97.7595 116.587 97.9228 117.633 98.7082 118.061C99.0479 118.255 113.052 126.259 112.201 125.769C112.893 126.117 113.838 125.985 114.685 124.82L119.648 117.765C119.746 117.633 119.909 117.505 120.072 117.372C120.496 117.439 120.888 117.469 121.312 117.536L121.343 117.831C121.409 118.321 121.669 118.714 122.027 118.943C124.259 120.218 130.308 123.624 130.78 123.942C131.239 124.172 131.795 124.136 132.316 123.845L139.08 119.861C139.83 119.437 140.452 118.489 140.584 117.606C140.624 117.28 141.078 112.965 141.467 110.158C141.498 109.766 141.762 109.307 142.089 109.016C145.226 106.435 148.164 103.297 150.843 99.803C151.037 99.5735 151.266 99.4103 151.266 99.3794L156.331 100.655C157.209 100.813 158.22 100.085 158.617 99.2823L163.356 91.0183C163.942 90.0035 163.942 88.9269 163.356 88.3048L159.729 84.8103C159.729 84.7442 159.698 84.55 159.826 84.2544C161.555 80.0717 162.764 75.9242 163.453 71.9709C163.55 71.5473 163.779 71.1855 164.04 70.9561L170.15 66.2835C170.901 65.7629 171.426 64.7481 171.426 63.8348L171.328 56.0605L171.346 56.0472ZM168.081 55.0677L163.409 56.9959C162.888 54.7765 162.133 52.7822 161.154 51.1144L168.081 55.0677ZM141.229 40.1722C141.621 40.2384 142.014 40.1413 142.34 39.9427C142.733 39.7486 143.029 39.453 143.32 39.0912L148.187 32.0979C148.381 31.8684 148.544 31.7052 148.61 31.6081C148.937 31.789 156.402 35.9188 155.93 35.6585C155.798 35.7909 155.67 35.9541 155.573 36.0512L150.64 43.1063C150.507 43.3004 150.344 43.4328 150.344 43.4328C150.247 43.499 150.181 43.499 150.181 43.499C147.406 43.1063 144.396 43.4019 141.295 44.3814L140.606 40.1016C140.836 40.1016 141.03 40.1325 141.229 40.1678V40.1722ZM122.706 38.5397C122.737 38.1161 123.033 37.6572 123.359 37.494L130.088 33.4745L137.209 37.5249L131.2 41.0193C130.427 41.4738 129.814 42.4753 129.695 43.3048C129.624 43.724 129.885 41.6635 128.976 49.4775L121.855 45.4271C121.894 45.0962 122.159 42.4533 122.706 38.5352V38.5397ZM120.518 48.1759C120.875 47.8803 121.206 47.4876 121.431 47.0993L128.685 51.2159C128.552 51.4762 128.389 51.7056 128.164 51.8689C122.247 56.9429 119.732 61.0374 119.084 61.4742H119.07C118.744 61.2845 111.433 57.0885 111.901 57.3577C112.629 55.9061 118.382 50.0687 120.526 48.1759H120.518ZM99.6612 65.732L104.409 57.4459C104.559 57.1679 104.788 56.9915 104.921 56.8944L109.858 58.1033L109.867 58.1122C110.193 58.2975 113.935 60.4286 113.608 60.2388C112.911 60.2477 112.351 60.7109 111.94 61.2536C111.64 61.6375 107.091 69.5839 106.906 69.9104C106.65 70.3692 106.368 71.384 106.61 72.0326L103.01 69.9765L99.4715 66.5042C99.445 66.4336 99.4406 66.1247 99.6656 65.732H99.6612ZM103.297 72.315C103.332 72.2356 103.359 72.1562 103.385 72.0768L110.568 76.1889C110.586 76.6875 108.649 80.8041 107.449 85.8472C106.791 88.7504 106.893 89.0505 106.566 89.5358C106.227 89.3417 98.8538 85.1192 99.3215 85.3839C99.5244 85.0442 99.6744 84.6647 99.745 84.2721C100.429 80.3496 101.625 76.3301 103.297 72.315ZM91.909 99.8515L91.8384 92.0728C91.8384 91.7596 92.0722 91.2433 92.4473 90.9521L98.1214 86.5841C98.4479 86.7738 105.724 90.9389 105.265 90.6742H105.26L100.133 94.601V94.6275C99.4009 95.1922 98.8891 96.1894 98.8891 97.063C98.9288 102.38 98.9332 102.975 98.9376 103.924L91.909 99.8559V99.8515ZM110.158 111.292L103.592 107.533C103.69 106.946 103.592 106.39 103.266 105.967C103.134 105.804 103.037 105.671 102.939 105.508L106.924 103.906C107.497 106.51 108.499 108.967 110.158 111.288V111.292ZM106.924 120.474C106.858 120.606 106.827 120.704 106.791 120.832L99.6038 116.746C99.6038 116.68 99.6038 116.45 99.7362 116.159L102.966 109.077L110.22 113.251L110.237 113.212L110.25 113.22L110.22 113.251L106.919 120.47L106.924 120.474ZM122.966 117.566C124.925 117.536 126.92 117.174 129.011 116.521L129.796 121.485L122.966 117.562V117.566ZM169.193 64.9687L163.082 69.6412C162.495 70.1001 162.036 70.8193 161.873 71.6355C161.22 75.5227 160.011 79.5422 158.343 83.6235C157.986 84.5368 158.048 85.3883 158.573 85.8781L162.169 89.4079C162.2 89.474 162.2 89.8005 161.975 90.1932L157.236 98.4926C156.927 99.0308 156.649 98.9735 156.649 99.0485L151.584 97.7734C150.812 97.6189 150.093 98.1396 149.59 98.7529C146.942 102.216 144.101 105.252 141.061 107.771C140.439 108.292 139.949 109.174 139.852 109.96C139.75 110.701 138.996 117.165 138.969 117.408C138.939 117.765 138.612 118.255 138.286 118.453L131.619 122.34L130.604 116.102C130.445 115.157 129.744 114.654 128.711 114.924C125.737 115.837 122.927 116.163 120.381 115.775C119.648 115.577 118.854 116.137 118.325 116.821L113.361 123.876C113.229 124.07 113.101 124.202 113.035 124.335C112.99 124.308 108.296 121.74 108.296 121.687C108.296 121.343 108.428 121.171 108.428 121.167L112.055 113.229C112.448 112.347 112.412 111.5 111.958 110.975C110.29 108.919 109.117 106.368 108.464 103.328C108.331 102.905 108.106 102.578 107.744 102.38C107.55 102.283 107.321 102.216 107.06 102.216C106.866 102.216 106.668 102.247 106.438 102.314L100.592 104.665L100.526 97.0542C100.526 96.7277 100.875 96.1188 101.135 95.9202H101.144V95.9158C101.536 95.6158 107.621 90.9477 107.233 91.2433H107.255C108.027 90.4712 108.314 89.7829 108.406 89.2887C109.187 85.2295 110.184 81.5409 111.989 77.2964C112.36 76.4845 112.086 75.3682 111.826 75.1079C109.518 72.8003 109.99 73.2945 108.137 71.4635C108.115 71.3973 108.181 70.9825 108.331 70.7266L113.101 62.4273C113.229 62.2023 113.418 62.0169 113.608 61.8846C117.028 62.6876 118.682 63.1465 119.013 63.1465C119.485 63.1465 120.001 62.8773 120.319 62.5596C121.184 61.8669 123.293 58.2269 129.174 53.1528C129.863 52.6322 130.352 51.7807 130.449 50.9335C131.358 43.3975 131.314 43.7902 131.332 43.649C131.429 43.3225 131.389 43.0357 131.791 42.6342C132.122 42.3033 132.047 42.4577 138.718 38.5485L139.697 44.7564C139.755 45.5859 140.514 46.2742 141.626 45.9963C144.564 45.0476 147.375 44.7564 149.925 45.1491C150.481 45.2594 151.363 44.9682 151.981 44.0726L156.914 37.0175C157.077 36.8233 157.209 36.691 157.271 36.5586L162.01 39.1706C162.041 39.2368 162.041 39.4662 161.913 39.7574L158.286 47.6641C157.893 48.5156 157.893 49.3319 158.352 49.9496C159.954 51.8777 161.127 54.4236 161.847 57.5297C162.103 58.4298 162.839 58.9328 163.841 58.5754L169.722 56.1884L169.82 63.8348C169.82 64.2275 169.524 64.7172 169.197 64.9775L169.193 64.9687Z" fill="black"/>
<path d="M153.891 69.5969C153.64 57.5251 144.692 53.3909 134.751 59.1223C124.647 65.0347 116.489 79.2375 116.56 90.7842C116.617 99.7851 121.802 105.261 129.461 103.955C129.51 103.95 129.558 103.941 129.598 103.941C142.874 101.285 154.161 82.4893 153.896 69.5969H153.891ZM118.192 90.7754C118.109 76.5328 130.622 59.9165 141.493 58.3414C143.563 60.3842 144.692 63.5963 144.719 67.7129C144.816 78.7389 137.006 92.3064 127.308 97.9496C125.27 99.1365 123.28 99.8601 121.378 100.129C119.057 97.8173 118.192 94.0625 118.192 90.7754ZM129.333 102.304C126.783 102.763 124.661 102.344 123.112 101.471C124.753 101.056 126.43 100.354 128.129 99.3615C138.277 93.4536 146.453 79.2508 146.351 67.6996C146.325 63.786 145.385 60.5519 143.607 58.2267C149.444 58.4473 152.025 63.508 152.232 69.3366C152.674 82.3878 140.717 100.279 129.329 102.304H129.333Z" fill="black"/>
</g>
</svg>
