<svg width="211" height="191" viewBox="0 0 211 191" fill="none" xmlns="http://www.w3.org/2000/svg">
<mask id="mask0_3120_84" style="mask-type:alpha" maskUnits="userSpaceOnUse" x="0" y="0" width="211" height="191">
<rect width="211" height="191" fill="#D9D9D9"/>
</mask>
<g mask="url(#mask0_3120_84)">
<path d="M32.5964 75.108L32.7531 130.269C32.7626 132.605 33.5839 134.247 34.9132 135.021L28.3379 131.199C27.0086 130.43 26.1826 128.788 26.1778 126.447L26.0212 71.2862C26.0069 66.5862 29.3159 60.8561 33.4035 58.4918L112.397 12.8876C114.457 11.7007 116.323 11.5916 117.671 12.3702L124.246 16.1919C122.898 15.4086 121.032 15.5177 118.972 16.7093L39.9787 62.3136" fill="#F0F0F0"/>
<path d="M126.52 60.6752L126.563 76.1045C126.577 80.8045 123.268 86.5347 119.176 88.8942L40.1829 134.498C36.0906 136.863 32.7626 134.964 32.7483 130.264L32.5917 75.1027C32.5917 69.0924 36.2662 64.2263 39.9787 62.3131L118.972 16.7089C123.064 14.3446 126.392 16.2437 126.406 20.9437L126.459 38.8084" fill="white"/>
<path d="M38.678 75.0883C38.6732 72.5721 40.8238 68.8549 43.0219 67.5826L115.041 26.0042C117.396 24.6465 120.339 26.3365 120.344 29.0568L120.477 76.1233C120.486 78.6395 118.331 82.3567 116.133 83.629L44.1138 125.207C41.7591 126.565 38.8156 124.87 38.8109 122.155L38.678 75.0883Z" fill="white"/>
<path d="M48.434 155.42L40.2067 150.64C38.1843 149.467 37.1778 147.929 37.1731 146.391L37.1493 138.785C37.1493 140.324 38.1653 141.862 40.1877 143.034L87.876 170.75C91.9446 173.114 98.5531 173.114 102.645 170.75L181.639 125.146C183.694 123.964 184.72 122.402 184.72 120.845L184.739 128.441C184.748 129.998 183.718 131.56 181.658 132.747L102.669 178.351C98.5768 180.715 91.9636 180.71 87.8998 178.351L59.4909 161.839" fill="#F0F0F0"/>
<path d="M165.654 107.272L133.998 88.8752C129.934 86.511 123.321 86.511 119.228 88.8752L40.2352 134.479C36.1428 136.844 36.1238 140.67 40.1877 143.034L87.8808 170.75C91.9446 173.114 98.5578 173.114 102.65 170.75L181.643 125.146C185.736 122.782 185.755 118.951 181.691 116.591L176.825 113.761" fill="white"/>
<path d="M142.913 139.593L152.427 134.1L139.59 126.642L105.295 146.443L118.132 153.902L135.431 143.913" fill="white"/>
<path d="M118.132 154.78C117.98 154.78 117.828 154.742 117.69 154.661L104.853 147.203C104.582 147.047 104.416 146.757 104.416 146.444C104.416 146.13 104.582 145.841 104.853 145.689L139.149 125.887C139.419 125.73 139.756 125.73 140.027 125.887L152.864 133.345C153.135 133.502 153.301 133.792 153.301 134.105C153.301 134.418 153.135 134.708 152.864 134.86L143.355 140.353C142.932 140.59 142.396 140.452 142.159 140.035C141.917 139.617 142.059 139.08 142.477 138.838L150.676 134.105L139.585 127.663L107.042 146.453L118.132 152.895L134.99 143.163C135.408 142.916 135.944 143.063 136.186 143.481C136.428 143.899 136.286 144.435 135.868 144.678L118.568 154.666C118.436 154.747 118.279 154.785 118.132 154.785V154.78Z" fill="black"/>
<path d="M80.3273 129.979L90.5439 135.913L100.827 129.979L90.6104 124.04L80.3273 129.979Z" fill="#F0F0F0"/>
<path d="M90.5441 136.791C90.3922 136.791 90.2402 136.753 90.1026 136.672L79.886 130.733C79.6154 130.577 79.4492 130.287 79.4492 129.974C79.4492 129.66 79.6154 129.371 79.886 129.219L90.169 123.284C90.4444 123.128 90.7814 123.128 91.0473 123.284L101.264 129.219C101.534 129.375 101.701 129.665 101.701 129.978C101.701 130.292 101.534 130.581 101.264 130.733L90.9808 136.672C90.8479 136.753 90.6912 136.791 90.5441 136.791ZM82.0746 129.978L90.5441 134.902L99.0753 129.974L90.6058 125.051L82.0746 129.978Z" fill="black"/>
<path d="M70.1108 124.04L80.3274 129.979L90.6104 124.04L80.3938 118.105L70.1108 124.04Z" fill="#F0F0F0"/>
<path d="M80.3275 130.852C80.1756 130.852 80.0237 130.814 79.886 130.734L69.6695 124.799C69.3989 124.643 69.2327 124.353 69.2327 124.04C69.2327 123.726 69.3989 123.437 69.6695 123.285L79.9525 117.346C80.2279 117.189 80.5649 117.194 80.8308 117.346L91.0473 123.285C91.3179 123.441 91.4841 123.731 91.4841 124.044C91.4841 124.358 91.3179 124.647 91.0473 124.799L80.7643 130.734C80.6314 130.814 80.4747 130.852 80.3275 130.852ZM71.8581 124.04L80.3275 128.963L88.8588 124.035L80.3893 119.112L71.8581 124.04Z" fill="black"/>
<path d="M59.8283 129.979L70.0448 135.913L80.3278 129.979L70.1113 124.04L59.8283 129.979Z" fill="#F0F0F0"/>
<path d="M70.0447 136.791C69.8928 136.791 69.7408 136.753 69.6032 136.672L59.3866 130.733C59.116 130.577 58.9498 130.287 58.9498 129.974C58.9498 129.66 59.116 129.371 59.3866 129.219L69.6696 123.284C69.945 123.128 70.2821 123.128 70.5479 123.284L80.7645 129.219C81.0351 129.375 81.2012 129.665 81.2012 129.978C81.2012 130.292 81.0351 130.581 80.7645 130.733L70.4814 136.672C70.3485 136.753 70.1919 136.791 70.0447 136.791ZM61.5752 129.978L70.0447 134.902L78.5759 129.974L70.1064 125.051L61.5752 129.978Z" fill="black"/>
<path d="M90.6106 124.04L100.827 129.979L111.11 124.04L100.894 118.105L90.6106 124.04Z" fill="#F0F0F0"/>
<path d="M100.822 130.852C100.67 130.852 100.519 130.814 100.381 130.734L90.1643 124.799C89.8937 124.643 89.7276 124.353 89.7276 124.04C89.7276 123.726 89.8937 123.437 90.1643 123.285L100.447 117.346C100.723 117.189 101.06 117.194 101.326 117.346L111.542 123.285C111.813 123.441 111.979 123.731 111.979 124.044C111.979 124.358 111.813 124.647 111.542 124.799L101.259 130.734C101.126 130.814 100.97 130.852 100.822 130.852ZM92.3529 124.04L100.822 128.963L109.354 124.035L100.884 119.112L92.3529 124.04Z" fill="black"/>
<path d="M100.893 118.106L111.11 124.04L121.388 118.106L111.176 112.167L100.893 118.106Z" fill="#F0F0F0"/>
<path d="M111.105 124.918C110.953 124.918 110.801 124.88 110.664 124.8L100.447 118.861C100.177 118.704 100.01 118.414 100.01 118.101C100.01 117.788 100.177 117.498 100.447 117.346L110.73 111.407C111.006 111.25 111.343 111.25 111.609 111.407L121.825 117.346C122.096 117.503 122.262 117.792 122.262 118.106C122.262 118.419 122.096 118.709 121.825 118.861L111.542 124.8C111.409 124.88 111.252 124.918 111.105 124.918ZM102.636 118.106L111.105 123.029L119.641 118.101L111.172 113.178L102.636 118.106Z" fill="black"/>
<path d="M90.6769 112.167L100.893 118.106L111.176 112.167L100.96 106.228L90.6769 112.167Z" fill="#F0F0F0"/>
<path d="M100.889 118.979C100.737 118.979 100.585 118.941 100.447 118.861L90.2307 112.922C89.9601 112.765 89.7939 112.475 89.7939 112.162C89.7939 111.849 89.9601 111.559 90.2307 111.407L100.514 105.473C100.789 105.316 101.126 105.321 101.392 105.473L111.609 111.407C111.879 111.564 112.045 111.853 112.045 112.167C112.045 112.48 111.879 112.77 111.609 112.922L101.326 118.861C101.193 118.941 101.036 118.979 100.889 118.979ZM92.4193 112.167L100.889 117.09L109.42 112.162L100.95 107.239L92.4193 112.167Z" fill="black"/>
<path d="M80.3942 118.106L90.6108 124.04L100.894 118.106L90.6772 112.167L80.3942 118.106Z" fill="#F0F0F0"/>
<path d="M90.6106 124.918C90.4587 124.918 90.3068 124.88 90.1691 124.8L79.9525 118.861C79.6819 118.704 79.5158 118.414 79.5158 118.101C79.5158 117.788 79.6819 117.498 79.9525 117.346L90.2355 111.407C90.5109 111.25 90.848 111.25 91.1138 111.407L101.33 117.346C101.601 117.503 101.767 117.792 101.767 118.106C101.767 118.419 101.601 118.709 101.33 118.861L91.0474 124.8C90.9144 124.88 90.7578 124.918 90.6106 124.918ZM82.1411 118.106L90.6106 123.029L99.1418 118.101L90.6723 113.178L82.1364 118.106H82.1411Z" fill="black"/>
<path d="M121.389 118.106L131.605 124.04L141.888 118.106L131.672 112.167L121.389 118.106Z" fill="#F0F0F0"/>
<path d="M131.605 124.918C131.453 124.918 131.301 124.88 131.164 124.799L120.947 118.86C120.676 118.704 120.51 118.414 120.51 118.101C120.51 117.787 120.676 117.498 120.947 117.346L131.23 111.411C131.505 111.255 131.842 111.255 132.108 111.411L142.325 117.346C142.595 117.502 142.762 117.792 142.762 118.105C142.762 118.419 142.595 118.708 142.325 118.86L132.042 124.799C131.909 124.88 131.752 124.918 131.605 124.918ZM123.136 118.105L131.605 123.028L140.141 118.101L131.672 113.177L123.136 118.105Z" fill="black"/>
<path d="M80.2611 141.852L90.4776 147.787L100.756 141.852L121.322 129.979L131.605 124.04L121.388 118.105L111.11 124.04L100.827 129.979L90.5441 135.913L80.2611 141.852Z" fill="#F0F0F0"/>
<path d="M90.4775 148.665C90.3256 148.665 90.1737 148.627 90.036 148.546L79.8195 142.607C79.5489 142.45 79.3827 142.161 79.3827 141.847C79.3827 141.534 79.5489 141.244 79.8195 141.093L120.952 117.346C121.227 117.189 121.564 117.194 121.83 117.346L132.046 123.285C132.317 123.441 132.483 123.731 132.483 124.044C132.483 124.358 132.317 124.647 132.046 124.799L90.9143 148.546C90.7814 148.627 90.6247 148.665 90.4775 148.665ZM82.0081 141.852L90.4775 146.775L129.858 124.04L121.388 119.117L82.0081 141.852Z" fill="black"/>
<path d="M70.0448 135.913L80.2613 141.852L90.5443 135.913L80.3278 129.979L70.0448 135.913Z" fill="#F0F0F0"/>
<path d="M80.2612 142.726C80.1093 142.726 79.9574 142.688 79.8197 142.607L69.6031 136.673C69.3325 136.516 69.1664 136.226 69.1664 135.913C69.1664 135.6 69.3325 135.31 69.6031 135.158L79.8861 129.219C80.1615 129.062 80.4986 129.062 80.7644 129.219L90.981 135.158C91.2516 135.315 91.4178 135.604 91.4178 135.918C91.4178 136.231 91.2516 136.521 90.981 136.673L80.698 142.607C80.565 142.688 80.4084 142.726 80.2612 142.726ZM71.7917 135.913L80.2612 140.836L88.7924 135.908L80.3229 130.985L71.7917 135.913Z" fill="black"/>
<path d="M69.9875 147.782L80.2041 153.716L90.4776 147.787L80.261 141.853L69.9875 147.782Z" fill="#F0F0F0"/>
<path d="M80.2041 154.594C80.0522 154.594 79.9003 154.556 79.7626 154.476L69.5461 148.537C69.2755 148.38 69.1093 148.09 69.1093 147.777C69.1093 147.464 69.2755 147.174 69.5461 147.022L79.8196 141.093C80.0902 140.936 80.4273 140.936 80.6979 141.093L90.9144 147.032C91.185 147.188 91.3512 147.478 91.3512 147.791C91.3512 148.105 91.185 148.394 90.9144 148.546L80.6409 154.476C80.508 154.556 80.3513 154.594 80.2041 154.594ZM71.7346 147.782L80.2041 152.705L88.7258 147.787L80.2564 142.863L71.7346 147.782Z" fill="black"/>
<path d="M59.771 141.843L69.9875 147.782L80.2611 141.853L70.0445 135.914L59.771 141.843Z" fill="#F0F0F0"/>
<path d="M69.9876 148.655C69.8357 148.655 69.6837 148.617 69.5461 148.537L59.3295 142.602C59.0589 142.446 58.8927 142.156 58.8927 141.843C58.8927 141.529 59.0589 141.24 59.3295 141.088L69.603 135.158C69.8784 135.002 70.2155 135.006 70.4813 135.158L80.6979 141.093C80.9685 141.249 81.1346 141.539 81.1346 141.852C81.1346 142.166 80.9685 142.455 80.6979 142.607L70.4243 148.537C70.2914 148.617 70.1348 148.655 69.9876 148.655ZM61.5181 141.843L69.9876 146.766L78.5093 141.847L70.0398 136.924L61.5181 141.843Z" fill="black"/>
<path d="M49.5546 135.908L59.7711 141.842L70.0446 135.913L59.8281 129.979L49.5546 135.908Z" fill="#F0F0F0"/>
<path d="M59.7711 142.721C59.6191 142.721 59.4672 142.683 59.3295 142.602L49.113 136.663C48.8424 136.507 48.6762 136.217 48.6762 135.904C48.6762 135.59 48.8424 135.301 49.113 135.149L59.3865 129.219C59.6619 129.062 59.999 129.062 60.2648 129.219L70.4813 135.158C70.752 135.315 70.9181 135.604 70.9181 135.918C70.9181 136.231 70.752 136.521 70.4813 136.673L60.2078 142.602C60.0749 142.683 59.9182 142.721 59.7711 142.721ZM51.3016 135.908L59.7711 140.831L68.2928 135.913L59.8233 130.99L51.3016 135.908Z" fill="black"/>
<path d="M111.177 112.167L121.389 118.106L131.672 112.167L121.46 106.228L111.177 112.167Z" fill="#F0F0F0"/>
<path d="M121.393 118.979C121.241 118.979 121.089 118.941 120.952 118.861L110.735 112.922C110.465 112.765 110.298 112.475 110.298 112.162C110.298 111.849 110.465 111.559 110.735 111.407L121.018 105.473C121.289 105.316 121.626 105.321 121.897 105.473L132.113 111.412C132.384 111.568 132.55 111.858 132.55 112.171C132.55 112.485 132.384 112.774 132.113 112.926L121.83 118.861C121.697 118.941 121.54 118.979 121.393 118.979ZM112.924 112.167L121.393 117.09L129.924 112.162L121.455 107.239L112.924 112.167Z" fill="black"/>
<path d="M100.96 106.227L111.177 112.166L121.46 106.227L111.243 100.293L100.96 106.227Z" fill="#F0F0F0"/>
<path d="M111.177 113.04C111.025 113.04 110.873 113.002 110.735 112.921L100.518 106.987C100.248 106.83 100.082 106.54 100.082 106.227C100.082 105.914 100.248 105.624 100.518 105.472L110.801 99.533C111.077 99.3764 111.414 99.3764 111.68 99.533L121.896 105.472C122.167 105.629 122.333 105.918 122.333 106.232C122.333 106.545 122.167 106.835 121.896 106.987L111.613 112.921C111.48 113.002 111.324 113.04 111.177 113.04ZM102.707 106.227L111.177 111.15L119.708 106.222L111.238 101.299L102.707 106.227Z" fill="black"/>
<path d="M131.638 112.167L141.855 118.106L152.138 112.167L141.921 106.228L131.638 112.167Z" fill="#F0F0F0"/>
<path d="M141.855 118.979C141.703 118.979 141.551 118.941 141.413 118.861L131.197 112.922C130.926 112.765 130.76 112.475 130.76 112.162C130.76 111.849 130.926 111.559 131.197 111.407L141.48 105.473C141.755 105.316 142.092 105.321 142.358 105.473L152.574 111.412C152.845 111.568 153.011 111.858 153.011 112.171C153.011 112.485 152.845 112.774 152.574 112.926L142.291 118.861C142.159 118.941 142.002 118.979 141.855 118.979ZM133.385 112.167L141.855 117.09L150.386 112.162L141.916 107.239L133.385 112.167Z" fill="black"/>
<path d="M121.426 106.227L131.638 112.166L141.921 106.227L131.704 100.293L121.426 106.227Z" fill="#F0F0F0"/>
<path d="M131.638 113.04C131.486 113.04 131.334 113.002 131.197 112.921L120.98 106.987C120.709 106.83 120.543 106.54 120.543 106.227C120.543 105.914 120.709 105.624 120.98 105.472L131.263 99.533C131.538 99.3764 131.876 99.3764 132.141 99.533L142.358 105.472C142.629 105.629 142.795 105.918 142.795 106.232C142.795 106.545 142.629 106.835 142.358 106.987L132.075 112.921C131.942 113.002 131.785 113.04 131.638 113.04ZM123.169 106.227L131.638 111.15L140.169 106.222L131.7 101.299L123.169 106.227Z" fill="black"/>
<path d="M111.21 100.293L121.426 106.227L131.705 100.293L121.493 94.354L111.21 100.293Z" fill="#F0F0F0"/>
<path d="M121.422 107.106C121.27 107.106 121.118 107.068 120.98 106.987L110.764 101.048C110.493 100.891 110.327 100.602 110.327 100.288C110.327 99.9748 110.493 99.6852 110.764 99.5333L121.047 93.5989C121.322 93.4423 121.659 93.4423 121.925 93.5989L132.141 99.5333C132.412 99.6899 132.578 99.9796 132.578 100.293C132.578 100.606 132.412 100.896 132.141 101.048L121.858 106.987C121.725 107.068 121.569 107.106 121.422 107.106ZM112.952 100.293L121.422 105.216L129.953 100.288L121.483 95.365L112.952 100.293Z" fill="black"/>
<path d="M119.019 25.2542C117.619 24.4472 115.971 24.4472 114.604 25.2542L42.604 66.8279C40.1164 68.2284 37.7996 72.2589 37.7996 75.1027L37.942 122.145C37.942 125.473 41.4789 127.662 44.5695 125.967L116.57 84.3935C119.057 82.955 121.374 78.9624 121.374 76.1187L121.232 29.0427C121.232 27.4665 120.391 26.0281 119.024 25.259L119.019 25.2542ZM115.691 82.8838L43.6912 124.457C41.8872 125.435 39.6938 124.22 39.6938 122.145L39.5514 75.1027C39.5514 72.8571 41.5121 69.4579 43.4776 68.3375L115.478 26.7639C116.318 26.2749 117.301 26.2749 118.141 26.7639C118.981 27.2529 119.475 28.098 119.475 29.076L119.617 76.1187C119.617 78.3642 117.657 81.7634 115.691 82.8838Z" fill="#33AD43"/>
<path d="M185.598 120.845C185.598 120.845 185.598 120.845 185.598 120.84C185.598 118.913 184.364 117.132 182.128 115.836L177.261 113.007C176.844 112.765 176.307 112.902 176.065 113.325C175.823 113.743 175.965 114.279 176.383 114.521L181.249 117.351C184.872 119.454 184.506 122.483 181.202 124.386L102.209 169.991C98.4296 172.17 92.1819 172.236 88.3175 169.991L40.6291 142.275C37.3012 140.343 37.0353 137.342 40.6719 135.239L119.665 89.635C123.506 87.4179 129.739 87.4179 133.556 89.635L165.212 108.031C165.63 108.269 166.166 108.131 166.409 107.713C166.651 107.295 166.508 106.759 166.091 106.517L134.434 88.1206C131.391 86.3545 127.005 85.8607 123.154 86.5918C125.69 83.6293 127.441 79.6083 127.432 76.1047L127.389 60.6754C127.389 60.1912 126.995 59.8018 126.511 59.8018C126.027 59.8018 125.633 60.1959 125.637 60.6802L125.68 76.1094C125.694 80.5246 122.575 85.9224 118.735 88.1394L39.7414 133.748C36.176 135.799 33.6314 134.223 33.6219 130.268L33.5412 102.728L33.4652 75.1077C33.4652 69.3063 37.0496 64.8152 40.4108 63.0777L86.015 36.7481L119.399 17.4734C122.822 15.4985 125.509 16.8419 125.519 20.9532L125.571 38.818C125.571 39.3023 125.965 39.6916 126.449 39.6916C126.933 39.6916 127.327 39.2975 127.323 38.8133L127.27 20.9485C127.266 18.3659 126.34 16.4195 124.678 15.4462V15.4415H124.669C124.669 15.4415 124.669 15.432 124.664 15.432C124.664 15.432 124.664 15.432 124.659 15.432L118.108 11.6245C116.418 10.6418 114.234 10.8222 111.955 12.142L32.962 57.7461C28.6323 60.2481 25.1239 66.3296 25.1429 71.3002L25.2948 126.466C25.2996 129.048 26.2253 131.004 27.8917 131.968L34.4527 135.78C34.4527 135.78 34.4622 135.785 34.4669 135.79C34.4717 135.79 34.4764 135.799 34.4812 135.799C35.1933 136.208 35.9956 136.412 36.8502 136.412C36.8929 136.412 36.9451 136.393 36.9878 136.388C36.5416 137.143 36.2662 137.94 36.2662 138.781C36.2662 138.786 36.2662 138.79 36.2662 138.795C36.2662 138.795 36.2662 138.795 36.2662 138.8C36.2662 139.18 36.29 146.766 36.29 146.405C36.2947 148.337 37.5243 150.113 39.7604 151.409L47.9877 156.19C48.4008 156.427 48.942 156.289 49.1841 155.872C49.4262 155.454 49.2838 154.917 48.866 154.675L40.6386 149.895C38.9675 148.926 38.0465 147.687 38.0418 146.4L38.0275 142.541C38.0608 142.569 38.1082 142.593 38.1415 142.621C38.602 143.044 39.1242 143.447 39.7366 143.804L87.4297 171.519C91.7831 174.04 98.7619 174.012 103.077 171.519C110.915 166.995 172.471 131.455 182.066 125.915C182.071 125.915 182.075 125.906 182.08 125.906C182.707 125.545 183.234 125.136 183.699 124.709C183.742 124.671 183.803 124.643 183.841 124.605L183.851 128.465C183.856 129.761 182.92 131.019 181.206 132.006L102.218 177.61C98.3774 179.827 92.1487 179.832 88.327 177.61L59.9181 161.099C59.5003 160.852 58.9639 160.994 58.7218 161.417C58.4797 161.834 58.6221 162.371 59.0398 162.613L87.4487 179.125C89.604 180.373 92.4336 181 95.2678 181C98.102 181 100.936 180.373 103.096 179.125L182.085 133.521C184.368 132.205 185.617 130.401 185.607 128.45L185.588 120.854L185.598 120.845ZM28.7747 130.439C27.6686 129.799 27.0561 128.379 27.0514 126.447L26.8995 71.2812C26.8852 66.8708 29.9996 61.473 33.845 59.2464L112.838 13.6422C114.547 12.6547 116.104 12.4695 117.234 13.1247L120.567 15.0617C120.178 15.1709 119.252 15.5365 118.568 15.9305C118.559 15.9352 118.549 15.94 118.535 15.9448L39.542 61.5489C39.542 61.5489 39.542 61.5489 39.542 61.5536C35.7677 63.5238 31.7229 68.5846 31.7229 75.1029L31.8036 102.643L31.8796 130.264C31.8796 130.302 31.8891 130.33 31.8891 130.368C31.8986 131.038 31.9745 131.655 32.1027 132.229C32.1122 132.272 32.1074 132.329 32.1169 132.372L28.7795 130.435L28.7747 130.439Z" fill="#33AD43"/>
<path d="M54.9514 99C54.8282 99 54.7088 98.9689 54.5971 98.903C54.3775 98.7787 54.2388 98.5419 54.2388 98.2857L54 68.5927C54 68.3364 54.1348 68.0958 54.3544 67.9677L64.8434 61.8653C65.1824 61.6673 65.6177 61.7837 65.8142 62.1254C66.0106 62.467 65.8951 62.9056 65.5561 63.1036L55.4252 68.9964L55.6525 97.0396L105.575 67.9949L105.347 39.9516L76.2377 56.8847C75.8949 57.0827 75.4596 56.9623 75.267 56.6246C75.0706 56.283 75.1861 55.8443 75.5251 55.6464L105.69 38.0961C105.91 37.968 106.18 37.968 106.399 38.0961C106.619 38.2203 106.753 38.4571 106.757 38.7133L107 68.4063C107 68.6625 106.865 68.9032 106.646 69.0313L55.3097 98.8991C55.2018 98.9651 55.0747 98.9961 54.9553 98.9961L54.9514 99Z" fill="black"/>
<path d="M54.7176 108C54.473 108 54.2285 107.873 54.0965 107.645C53.8985 107.305 54.015 106.869 54.3566 106.672L91.9253 85.0977C92.2669 84.8969 92.7055 85.0166 92.9035 85.3564C93.1015 85.6962 92.985 86.1326 92.6434 86.3295L55.0747 107.903C54.9621 107.969 54.8379 108 54.7176 108Z" fill="black"/>
<path d="M100.716 81C100.468 81 100.228 80.8899 100.096 80.6931C99.8987 80.3996 100.015 80.0227 100.356 79.8526L105.927 77.0844C106.268 76.9109 106.706 77.0143 106.904 77.3078C107.101 77.6013 106.985 77.9782 106.644 78.1483L101.073 80.9166C100.96 80.9733 100.836 81 100.716 81Z" fill="black"/>
<path d="M56.7153 112C56.4715 112 56.2278 111.873 56.0962 111.646C55.8988 111.308 56.0149 110.874 56.3555 110.677L107.929 81.0973C108.269 80.8973 108.706 81.0165 108.904 81.3549C109.101 81.6932 108.985 82.1276 108.645 82.3237L57.0714 111.904C56.9591 111.969 56.8353 112 56.7153 112Z" fill="black"/>
<path d="M88.6594 56.3602L76.7325 77.2862L72.0695 74.5899C71.7284 74.3934 71.2904 74.5113 71.0927 74.8611C70.8989 75.211 71.019 75.6551 71.3601 75.8516L76.6433 78.9056C76.7557 78.9685 76.8798 79 76.9999 79C77.2441 79 77.4845 78.8703 77.6201 78.6384L89.9037 57.0873C90.1014 56.7415 89.985 56.2973 89.6439 56.0968C89.3067 55.8964 88.8687 56.0182 88.6672 56.3602H88.6594Z" fill="#33AD43"/>
</g>
</svg>
