<svg width="211" height="191" viewBox="0 0 211 191" fill="none" xmlns="http://www.w3.org/2000/svg">
<mask id="mask0_3120_92" style="mask-type:alpha" maskUnits="userSpaceOnUse" x="0" y="0" width="211" height="191">
<rect width="211" height="191" fill="#D9D9D9"/>
</mask>
<g mask="url(#mask0_3120_92)">
<path d="M150.417 76.3915L165.595 85.2125C165.527 85.1741 165.459 85.1399 165.382 85.11L150.203 76.2891C150.28 76.3189 150.349 76.3488 150.417 76.3915Z" fill="white"/>
<path d="M153.619 80.8527L138.441 72.0317L150.203 76.2928L165.386 85.1138L153.619 80.8527Z" fill="white"/>
<path d="M116.456 155.464L101.278 146.643L101.184 113.378L116.363 122.199L116.456 155.464Z" fill="white"/>
<path d="M118.399 55.4873L133.578 64.3083C137.971 66.8615 140.691 72.2839 140.712 79.9948C140.755 95.4807 129.859 114.382 116.358 122.2L101.18 113.379C114.68 105.557 125.576 86.6597 125.534 71.1738C125.512 63.4629 122.788 58.0363 118.399 55.4873Z" fill="white"/>
<path d="M158.495 31.5517C157.957 31.2486 157.218 31.3169 156.48 31.7524C156.142 31.9531 155.809 32.1879 155.472 32.5252L141.762 46.3032L126.571 37.4993L140.281 23.7212C140.618 23.3839 140.951 23.115 141.289 22.9143C142.061 22.4788 142.766 22.4105 143.304 22.7137L158.495 31.5517Z" fill="white"/>
<path d="M127.873 44.5703L112.695 35.7493C117.904 34.8527 122.613 35.4845 126.567 37.4998L141.745 46.3208C137.792 44.3056 133.082 43.6736 127.873 44.5703Z" fill="white"/>
<path d="M122.571 29.0074C123.945 28.2132 125.119 28.6701 125.376 30.0791L127.873 44.5701C133.082 43.6735 137.792 44.3054 141.745 46.3207L155.481 32.5341C155.814 32.2011 156.151 31.9363 156.488 31.7442C157.47 31.1763 158.41 31.219 158.922 31.9448L165.536 41.0263C166.227 41.9998 165.98 43.9083 164.929 45.5436L153.431 63.4716C153.965 66.1188 154.251 69.0391 154.26 72.173C154.268 75.0166 154.046 77.9157 153.619 80.8532L165.386 85.1142C166.466 85.5198 166.748 87.0996 166.086 88.8501L159.75 105.566C159.246 106.902 158.29 108.072 157.291 108.648C156.979 108.828 156.668 108.947 156.36 108.998L142.48 111.475C138.458 118.362 133.565 124.749 128.117 130.107L125.709 147.429C125.461 149.128 124.295 150.934 122.921 151.729L116.456 155.46L116.363 122.196C129.863 114.374 140.759 95.4766 140.716 79.9907C140.674 64.4792 129.705 58.2285 116.205 65.9693L116.111 32.7347L122.575 29.0031L122.571 29.0074Z" fill="white"/>
<path d="M116.205 65.9731L101.022 57.1521L100.928 23.9175L116.111 32.7386L116.205 65.9731Z" fill="white"/>
<path d="M124.59 28.798C124.086 28.4949 123.348 28.5632 122.575 28.9987L116.124 32.7303L100.932 23.9263L107.384 20.1947C108.191 19.7251 108.895 19.6909 109.399 19.9941L124.59 28.798Z" fill="white"/>
<path d="M119.462 146.323L102.2 136.294L101.901 29.8438L119.159 39.873L119.462 146.323Z" fill="white"/>
<path d="M97.6231 168.901L80.3611 158.872C78.2562 157.646 76.8473 155.217 76.6124 151.848L93.8702 161.877C94.105 165.246 95.5139 167.676 97.6189 168.901H97.6231Z" fill="white"/>
<path d="M74.2726 170.476L57.0149 160.447C55.2857 159.443 53.9578 157.744 53.2149 155.434C51.8188 151.019 52.4549 145.554 54.372 140.431L71.6297 150.46C69.7127 155.588 69.0765 161.053 70.4727 165.463C71.2156 167.773 72.5434 169.472 74.2726 170.476Z" fill="#F0F0F0"/>
<path d="M66.6727 149.798L49.415 139.769C47.1735 138.467 45.7944 135.683 45.7816 131.738C45.7645 126.076 48.6422 119.437 52.8606 114.753L70.1183 124.783C65.9042 129.466 63.0265 136.106 63.0393 141.767C63.0521 145.712 64.4269 148.496 66.6727 149.798Z" fill="#F0F0F0"/>
<path d="M115.841 32.4014C114.74 31.7097 113.352 31.5048 111.76 31.872C110.577 32.1153 109.394 32.6063 108.25 33.2596C102.209 36.7308 97.3114 45.1761 97.3541 52.0758V52.729L80.0878 42.6869V42.0336C80.0878 35.1766 84.985 26.6886 90.9838 23.2175C92.1281 22.5642 93.3108 22.0732 94.4934 21.8298C96.086 21.5053 97.4736 21.706 98.6136 22.3593L115.837 32.4014H115.841Z" fill="#F0F0F0"/>
<path d="M68.9357 124.228L51.6736 114.198C48.8386 112.55 47.0966 109.019 47.0838 104.049C47.0582 94.5282 53.4455 82.9789 61.5749 77.5693L78.8326 87.5986C70.7033 93.0125 64.3159 104.558 64.3416 114.079C64.3544 119.049 66.0964 122.58 68.9314 124.228H68.9357Z" fill="#F0F0F0"/>
<path d="M108.254 33.2464C109.386 32.5931 110.56 32.1149 111.747 31.8545C116.286 30.8853 119.142 34.3949 119.155 39.8728L119.458 146.323C119.471 150.396 117.63 155.238 115.056 159.302C112.315 163.657 109.356 166.543 106.542 168.166C100.07 171.906 94.3654 168.969 93.8701 161.877C91.4962 164.964 88.6569 167.564 85.6426 169.306C84.4983 169.968 83.3284 170.506 82.15 170.894C76.702 172.722 72.125 170.621 70.4684 165.463C69.0722 161.048 69.7084 155.583 71.6255 150.46C66.6172 151.463 63.0563 148.12 63.0393 141.771C63.0222 136.11 65.8999 129.47 70.1183 124.787C66.5916 123.493 64.3628 119.714 64.3458 114.083C64.3201 104.562 70.7075 93.0123 78.8368 87.6027C77.8932 85.5106 77.5175 82.7867 77.8206 79.5204C78.5806 70.8061 84.5026 60.5463 91.6926 55.4953C92.2946 55.0769 92.8923 54.6926 93.4815 54.351C94.8307 53.5739 96.133 53.0147 97.3498 52.7073V52.0796C97.3285 45.197 102.226 36.7304 108.259 33.2464H108.254Z" fill="white"/>
<path d="M78.8368 87.5991L61.5748 77.5698C60.6312 75.4777 60.2555 72.7537 60.5586 69.4875C61.3186 60.7732 67.2405 50.5133 74.4305 45.4624C75.0326 45.0397 75.6303 44.6596 76.2195 44.3181C77.5687 43.541 78.8709 42.9817 80.0878 42.6743L97.3455 52.7036C96.1287 53.011 94.8265 53.5703 93.4773 54.3474C92.8881 54.6889 92.2903 55.069 91.6883 55.4917C84.4983 60.5426 78.5764 70.7982 77.8164 79.5168C77.5132 82.783 77.8847 85.507 78.8325 87.5991H78.8368Z" fill="#F0F0F0"/>
<path d="M166.022 84.5718C166.022 84.2559 155.084 78.2187 154.768 78.0266C154.832 77.1428 155.054 75.2128 155.054 72.1771C155.054 69.1414 154.768 66.2637 154.264 63.6422L165.583 45.9703C166.846 44.0405 167.068 41.8288 166.185 40.565L159.575 31.492C159.007 30.668 158.627 30.826 143.705 22.0392C142.347 21.2792 140.827 22.069 139.722 23.1791L127.169 35.7617L126.157 29.9465C125.999 28.9987 125.431 28.3326 124.987 28.1148C120.278 25.3951 109.779 19.2939 109.779 19.2939C109.305 19.042 108.323 18.6919 106.995 19.5159L101.116 22.8974L98.998 21.6635C96.4235 20.1905 93.1231 21.0273 90.5869 22.5472C84.3576 26.1508 79.3024 34.8779 79.3024 42.021V42.085C74.8278 43.4897 70.6991 47.0719 67.7616 50.7779C67.5097 51.0939 67.5396 51.6019 67.8897 51.8837C68.2355 52.1356 68.7436 52.1058 68.9955 51.7557C71.6939 48.3613 75.844 44.6596 79.9641 43.5367L95.4244 52.5157C84.4643 56.9048 75.5921 73.5008 77.0565 83.7521C76.9882 83.893 77.364 85.6862 77.4024 85.8399L62.194 77.0189C61.3401 75.0293 61.0541 72.5316 61.3401 69.5599C61.6262 66.1784 62.732 62.4468 64.5338 58.7792C64.7216 58.3992 64.5637 57.9253 64.1879 57.7374C63.8079 57.5495 63.334 57.7074 63.112 58.0832C61.2462 61.9386 60.0763 65.8624 59.7604 69.4019C59.4743 72.4675 59.7604 75.1232 60.6143 77.3049C55.7128 80.7206 51.2895 86.506 48.6978 92.8592C48.51 93.2691 48.6978 93.713 49.1077 93.871C49.5176 94.0589 49.9915 93.8411 50.1495 93.4612C52.6472 87.33 56.9168 81.7966 61.592 78.509L77.3682 87.6758C73.3804 90.5749 69.2175 95.7069 66.6515 101.334C63.9745 106.983 62.1727 115.061 64.9138 120.842C63.8635 120.244 51.3663 113.101 52.0793 113.507C49.3596 111.957 47.8738 108.605 47.8738 104.054C47.8738 103.61 47.5279 103.264 47.0839 103.264C46.6399 103.264 46.294 103.61 46.294 104.054C46.294 109.178 48.0659 113.033 51.2895 114.899L51.5755 115.057C47.528 119.894 44.9662 126.341 45.0003 131.751C45.0003 135.863 46.4221 138.958 49.0138 140.478L52.8095 142.69C51.4176 147.463 51.2938 151.985 52.4636 155.682C53.2535 158.116 54.6753 160.012 56.6051 161.151C72.8937 170.583 73.9739 171.228 74.3112 171.394C76.8217 172.679 79.7549 172.551 82.4064 171.646C84.9596 170.839 88.1874 168.999 91.1633 166.083C92.41 166.804 97.0639 169.524 97.4524 169.721C100.138 171.142 103.524 170.86 106.935 168.867C111.662 166.143 115.82 160.396 118.002 155.494L123.313 152.429C124.893 151.511 126.221 149.521 126.507 147.561L128.877 130.491C134.124 125.308 138.991 118.985 142.975 112.217L156.475 109.784C156.885 109.72 157.299 109.596 157.675 109.34C158.845 108.674 159.921 107.316 160.489 105.86L166.812 89.136C167.414 87.5562 167.508 85.4385 166.022 84.5846V84.5718ZM154.546 79.7344L157.329 81.3482L154.486 80.3364C154.516 80.1485 154.55 79.9265 154.55 79.7344H154.546ZM140.823 24.285C141.267 23.8751 142.215 22.987 142.911 23.4012L156.061 31.0822C155.651 31.3341 155.301 31.6202 154.921 31.966L141.613 45.3085L127.861 37.3415L140.823 24.285ZM135.418 43.5708C134.248 43.3488 130.93 43.2847 128.527 43.6647L127.737 39.1133L135.418 43.5708ZM107.785 20.8736C108.293 20.5875 108.733 20.5278 108.985 20.6858L122.169 28.3027L116.256 31.7183C116.226 31.6885 116.192 31.6543 116.128 31.6543C116.098 31.6245 116.034 31.5903 115.97 31.5604L102.691 23.8153L107.781 20.8736H107.785ZM80.8821 42.243V42.021C80.8821 35.5098 85.6854 27.1927 91.3768 23.9051C93.439 22.701 96.146 21.8556 98.2039 23.0511L111.926 31.0182C111.798 31.0182 111.704 31.048 111.581 31.0822C111.226 31.2572 105.706 31.9532 100.672 39.6513C98.8828 42.3027 97.9221 44.8474 97.0682 47.8404V47.9343C96.7736 48.9718 96.5644 50.9871 96.5644 51.35L80.8821 42.2473V42.243ZM49.8036 139.078C47.7158 137.878 46.5801 135.282 46.5801 131.742C46.5502 126.619 49.0479 120.488 52.9674 115.872C60.5673 120.291 68.4874 124.911 68.8077 125.073C64.7942 129.941 62.2325 136.358 62.2623 141.767C62.2623 145.14 63.0864 146.31 63.0864 146.635C63.1163 146.699 63.1504 146.793 63.1803 146.857C62.8601 146.669 49.4877 138.894 49.8079 139.078H49.8036ZM57.3907 159.751C55.811 158.833 54.607 157.253 53.9452 155.2C52.9333 151.912 52.9973 147.835 54.1971 143.471C65.8616 149.841 66.5362 151.647 70.4472 151.408C68.9827 155.806 68.3124 161.254 69.7214 165.699C69.8793 166.266 70.1013 166.804 70.3533 167.278L57.3907 159.755V159.751ZM92.2948 164.904C92.6748 164.559 93.0206 164.179 93.3365 163.799C93.4732 164.439 93.7592 165.327 93.9684 165.886L92.2948 164.904ZM106.141 167.496C103.199 169.17 100.386 169.486 98.2039 168.32C95.8727 167.155 94.8352 164.405 94.6644 161.839C94.6644 161.241 93.7293 160.746 93.2426 161.395C90.0617 165.109 87.0261 168.393 81.894 170.152C77.1462 171.714 73.0815 170.468 71.2072 165.22C69.9434 161.237 70.3533 156.083 72.377 150.742C72.582 150.123 71.8562 149.5 71.4591 149.7C66.2587 150.631 63.8421 146.981 63.8421 141.763C63.8122 136.422 66.4978 129.97 70.7034 125.325C71.0492 124.979 70.9937 124.232 70.3874 124.027C69.4097 123.054 65.1401 122.981 65.1401 114.071C65.076 95.7112 85.3524 76.4296 97.8922 89.8874C98.2466 90.2375 98.7163 90.2034 98.998 89.9174C99.314 89.6313 99.3439 89.1274 99.0279 88.8115C91.5689 80.7505 82.0819 84.8579 79.2383 86.3778C74.0635 71.8398 96.3936 41.0176 107.819 59.2232C107.977 59.4751 108.229 59.6032 108.485 59.6032C108.643 59.6032 108.771 59.5391 108.895 59.4751C109.275 59.253 109.399 58.7493 109.147 58.3693C105.355 52.2979 100.202 51.7599 98.1441 51.824C98.4942 36.3381 118.207 24.1057 118.378 39.8733L118.664 146.319C118.728 153.522 112.464 163.858 106.145 167.5L106.141 167.496ZM165.352 88.5896L158.999 105.284C158.589 106.424 157.735 107.465 156.881 107.969C156.659 108.097 156.437 108.191 156.215 108.221L142.335 110.689C142.113 110.753 141.89 110.877 141.797 111.069C137.783 117.93 132.852 124.313 127.54 129.565C127.412 129.659 127.352 129.851 127.318 130.009L124.915 147.335C124.693 148.791 123.681 150.401 122.511 151.067L118.937 153.12C119.791 150.717 120.265 148.411 120.235 146.323L120.171 120.59C124.786 117.239 128.74 112.845 131.87 108.196C137.309 100.386 141.481 89.6398 141.481 79.9948C141.481 68.0783 135.251 62.2289 127.886 61.913C125.295 61.755 122.545 62.357 120.013 63.3049L119.949 39.8776C119.919 36.8419 119.095 34.3783 117.579 32.7943L122.955 29.6946C123.809 29.1907 124.377 29.2847 124.599 30.2325C124.663 30.5485 126.464 41.1073 127.096 44.7108C127.16 45.0908 127.54 45.4068 128.014 45.3427C133.01 44.4888 137.467 45.0566 141.357 46.9865L141.387 47.0164C141.831 47.2384 141.861 47.0463 142.177 46.9524C142.493 46.9524 156.023 33.106 156.023 33.106C156.591 32.5381 157.919 31.6842 158.269 32.4101L164.874 41.483C165.318 42.085 165.19 43.6648 164.242 45.1207L152.765 63.0445C152.637 63.2324 152.607 63.4244 152.637 63.6465C153.175 66.2381 153.461 69.1158 153.461 72.1814C153.461 75.247 153.115 79.0085 152.829 80.7505C152.765 81.0366 152.893 81.3184 153.115 81.4763C153.179 81.5404 153.273 81.5703 153.337 81.6045C153.653 81.7325 164.306 85.588 165.096 85.8741C165.886 86.126 165.634 87.7399 165.348 88.5938L165.352 88.5896ZM125.265 63.5525C134.905 62.3827 139.901 70.1619 139.901 79.9905V80.1186C139.901 87.7057 137.181 97.4447 130.922 106.834C128.044 111.163 124.411 115.339 120.175 118.626L120.111 93.649C125.551 83.3422 127.826 71.8356 125.265 63.5525ZM120.081 90.1736L120.017 64.9786C121.281 64.4407 122.515 64.0607 123.685 63.8088C126.025 70.9518 124.411 80.8786 120.081 90.1736Z" fill="#33AD43"/>
<path d="M106.969 132.088C97.4225 133.604 94.6729 127.725 94.2587 126.777V126.747C93.7848 114.352 102.068 107.969 102.132 107.905C102.478 107.653 102.576 107.145 102.29 106.799C102.038 106.453 101.564 106.389 101.184 106.641C100.838 106.927 92.3972 113.374 92.6491 126.273C90.4673 126.777 83.6402 128.958 82.5344 136.2C82.4405 136.61 82.7564 137.019 83.2005 137.083H83.2944C83.6744 137.083 84.0202 136.797 84.0843 136.422C85.0663 130.068 91.1035 128.233 92.9992 127.823C95.134 132.015 100.036 134.838 107.226 133.638C107.635 133.574 107.951 133.194 107.892 132.754C107.828 132.31 107.418 132.028 106.974 132.088H106.969Z" fill="black"/>
</g>
</svg>
