<svg width="211" height="201" viewBox="0 0 211 201" fill="none" xmlns="http://www.w3.org/2000/svg">
<mask id="mask0_3120_93" style="mask-type:alpha" maskUnits="userSpaceOnUse" x="0" y="0" width="211" height="201">
<rect width="211" height="201" fill="#D9D9D9"/>
</mask>
<g mask="url(#mask0_3120_93)">
<path d="M111.305 150.134L103.485 145.585L103.429 121.247L111.249 125.796L111.305 150.134Z" fill="white"/>
<path d="M132.734 88.6495L122.043 82.4262C123.068 83.0244 124.436 83.0374 125.938 82.353C126.184 82.2411 126.425 82.1163 126.666 81.9786C130.251 79.9084 133.156 74.8945 133.147 70.7671C133.143 68.7228 132.415 67.2724 131.253 66.5967L141.944 72.8201C143.11 73.4958 143.833 74.9461 143.838 76.9904C143.846 81.1178 140.946 86.1361 137.356 88.2019C137.115 88.3397 136.874 88.4645 136.629 88.5764C135.123 89.2564 133.758 89.2434 132.734 88.6495Z" fill="#F0F0F0"/>
<path d="M141.905 72.7987L131.215 66.5753L152.011 54.5806L162.702 60.8039L141.905 72.7987Z" fill="white"/>
<path d="M106.704 130.414L98.8843 125.865C99.164 125.706 99.3232 125.607 99.4825 125.504C101.006 124.496 102.379 122.977 103.425 121.247L111.245 125.796C110.199 127.526 108.826 129.046 107.303 130.053C107.143 130.156 106.984 130.255 106.704 130.414Z" fill="white"/>
<path d="M106.339 130.608L98.5186 126.058C98.6391 125.998 98.7639 125.934 98.8844 125.869L106.704 130.418C106.584 130.487 106.463 130.547 106.339 130.608Z" fill="white"/>
<path d="M102.211 130.784L94.3911 126.235C95.4714 126.863 96.9217 126.846 98.5184 126.059L106.339 130.608C104.738 131.395 103.287 131.413 102.211 130.784Z" fill="white"/>
<path d="M102.211 130.784L94.3913 126.235C93.3024 125.603 92.5922 124.311 92.5018 122.504C92.4932 122.375 92.4932 122.241 92.4889 122.108C92.4674 117.985 95.3725 112.941 98.9705 110.871C100.688 109.881 102.241 109.747 103.403 110.315L111.223 114.865C110.061 114.296 108.508 114.43 106.791 115.42C103.197 117.494 100.292 122.534 100.309 126.657C100.309 126.79 100.313 126.924 100.322 127.053C100.417 128.861 101.122 130.152 102.211 130.784Z" fill="white"/>
<path d="M111.223 114.86L103.403 110.31L103.343 85.9766L111.163 90.5257L111.223 114.86Z" fill="white"/>
<path d="M111.163 90.5265L100.472 84.3031L122.056 71.8564L132.747 78.0755L111.163 90.5265Z" fill="white"/>
<path d="M89.8591 102.813L82.0391 98.264L103.343 85.9766L111.163 90.5257L89.8591 102.813Z" fill="white"/>
<path d="M83.9714 92.9663C86.5795 94.4813 89.1833 96.0005 91.7914 97.5155C91.559 99.2887 90.8618 101.148 89.8547 102.813L82.0347 98.2643C83.0375 96.5988 83.7347 94.7395 83.9714 92.9663Z" fill="white"/>
<path d="M83.9714 92.9661C83.993 92.8026 84.0101 92.6347 84.023 92.4712L91.8431 97.0204C91.8301 97.1839 91.813 97.3475 91.7915 97.5153C89.1833 96.0004 86.5796 94.4811 83.9714 92.9661Z" fill="white"/>
<path d="M84.0577 91.8345C86.6659 93.3494 89.2696 94.8687 91.8778 96.3837C91.8778 96.5128 91.8648 96.7021 91.8476 97.0206L84.0276 92.4714C84.0448 92.1529 84.0534 91.9593 84.0577 91.8345Z" fill="white"/>
<path d="M84.0574 91.6279C86.6655 93.1429 89.2693 94.6622 91.8774 96.1771C91.8774 96.2288 91.8774 96.289 91.8774 96.3837C89.2693 94.8687 86.6655 93.3495 84.0574 91.8345C84.0574 91.7398 84.0574 91.6796 84.0574 91.6279Z" fill="white"/>
<path d="M84.0574 91.6279C84.0574 91.6279 84.0574 91.5935 84.0574 91.5806L91.8774 96.1297C91.8774 96.1297 91.8774 96.1599 91.8774 96.1771C89.2693 94.6621 86.6655 93.1429 84.0574 91.6279Z" fill="white"/>
<path d="M84.0574 91.4688C86.6655 92.9837 89.2693 94.503 91.8774 96.0179C91.8774 96.0524 91.8774 96.0868 91.8774 96.1255L84.0574 91.5763C84.0574 91.5376 84.0574 91.5032 84.0574 91.4688Z" fill="white"/>
<path d="M84.0405 91.1631C86.6486 92.678 89.2524 94.1973 91.8606 95.7122C91.8649 95.8026 91.8692 95.9016 91.8735 96.0221C89.2654 94.5071 86.6616 92.9879 84.0535 91.4729C84.0535 91.3524 84.0448 91.2535 84.0405 91.1631Z" fill="white"/>
<path d="M83.9802 90.5435C86.5883 92.0584 89.1921 93.5777 91.8003 95.0926C91.8089 95.1615 91.8218 95.2347 91.8304 95.3078C91.8433 95.4283 91.8562 95.5488 91.8648 95.7081C89.2566 94.1931 86.6529 92.6739 84.0447 91.1589C84.0361 90.9954 84.0232 90.8749 84.0103 90.7586C84.0017 90.6855 83.9931 90.6123 83.9802 90.5435Z" fill="white"/>
<path d="M83.6445 89.2866C86.2527 90.8016 88.8564 92.3208 91.4646 93.8357C91.6195 94.2102 91.7314 94.632 91.8003 95.0925C89.1921 93.5775 86.5884 92.0583 83.9802 90.5433C83.9114 90.0828 83.7995 89.6654 83.6445 89.2866Z" fill="white"/>
<path d="M83.6056 89.1918C83.2656 88.4214 82.7707 87.8533 82.1553 87.4961L89.9753 92.0452C90.5864 92.4024 91.0813 92.9663 91.4213 93.7323C91.4213 93.7323 91.4213 93.7367 91.4213 93.741C91.4342 93.7711 91.4472 93.8012 91.4601 93.8356C88.852 92.3207 86.2482 90.8015 83.6401 89.2865C83.6272 89.2564 83.6142 89.2219 83.6013 89.1918H83.6056Z" fill="white"/>
<path d="M59.6204 120.253L48.9297 114.03L73.1173 103.412L80.9373 107.961L59.6204 120.253Z" fill="white"/>
<path d="M80.765 107.866L72.945 103.317C71.9336 102.727 71.2579 101.561 71.0986 99.9214L78.9188 104.471C79.078 106.106 79.7536 107.277 80.765 107.866Z" fill="white"/>
<path d="M111.46 65.6543L103.64 61.1052C103.515 61.032 103.395 60.9502 103.283 60.8599L111.103 65.409C111.215 65.4994 111.335 65.5812 111.46 65.6543Z" fill="white"/>
<path d="M109.747 43.9798L120.438 50.2032C119.284 49.5318 117.688 49.6265 115.927 50.6422C113.978 51.7698 112.235 53.784 111.081 56.0435L100.391 49.8201C101.544 47.5606 103.287 45.5465 105.237 44.4188C106.997 43.4031 108.594 43.3085 109.747 43.9798Z" fill="white"/>
<path d="M72.9451 103.317C73.001 103.351 73.057 103.381 73.1173 103.407L80.9373 107.956C80.8814 107.926 80.821 107.896 80.7651 107.866C78.4195 106.502 75.2907 104.681 72.9451 103.317Z" fill="white"/>
<path d="M82.181 87.5136L90.0011 92.0627C89.3684 91.6969 88.598 91.5462 87.72 91.6452C87.139 91.7227 86.515 91.912 85.7059 92.3123L77.8857 87.7632C78.6949 87.3672 79.3146 87.1735 79.8999 87.096C80.7779 86.9971 81.5483 87.1434 82.181 87.5136Z" fill="white"/>
<path d="M85.366 92.5017L77.5459 87.9525C77.6621 87.888 77.774 87.8234 77.8902 87.7632L85.7103 92.3123C85.5984 92.3726 85.4822 92.4328 85.366 92.5017Z" fill="white"/>
<path d="M78.923 104.475L71.1029 99.926C71.0684 99.3234 71.0642 99.2029 71.0642 99.0781L78.8842 103.627C78.8842 103.752 78.8843 103.877 78.923 104.475Z" fill="white"/>
<path d="M78.8842 103.623L71.0642 99.0738C71.0771 98.6434 71.09 98.4239 71.1115 98.1958C71.176 97.5373 71.3095 96.8659 71.5032 96.1859C72.1832 93.8489 73.4915 91.5894 75.1141 89.8937C75.7209 89.2696 76.2761 88.7919 76.8528 88.3916C76.9174 88.3486 76.9819 88.3013 77.0465 88.2626C77.3219 88.0861 77.4338 88.0172 77.55 87.9526L85.3701 92.5018C85.2582 92.5664 85.142 92.6352 84.8665 92.8117C84.802 92.8547 84.7374 92.8978 84.6729 92.9408C84.0962 93.3411 83.5409 93.8188 82.9341 94.4428C81.3116 96.1386 80.0075 98.3981 79.3232 100.735C79.1296 101.411 78.9961 102.086 78.9315 102.745C78.91 102.973 78.8928 103.193 78.8842 103.623Z" fill="white"/>
<path d="M111.021 30.9227L111.081 56.0398C112.235 53.7803 113.978 51.7661 115.928 50.6385C119.534 48.5598 122.448 50.3459 122.28 54.6368C122.138 58.3079 119.655 62.7323 116.547 64.8455C116.349 64.9789 116.156 65.1037 115.962 65.2113C114.012 66.3346 112.269 66.3303 111.103 65.405L111.163 90.5221L89.8592 102.81C90.9566 100.989 91.6882 98.9361 91.8475 97.0166C91.8819 96.3753 91.882 96.2505 91.882 96.1214C91.869 95.7125 91.8562 95.506 91.8304 95.3037C91.7615 94.7184 91.6237 94.1933 91.4257 93.7371C90.7414 92.192 89.4331 91.4474 87.8019 91.6325C87.1951 91.71 86.6399 91.8735 86.0589 92.1361C85.9943 92.1662 85.9298 92.1963 85.8652 92.2264C85.5941 92.3641 85.4779 92.4287 85.366 92.4933C85.2498 92.5621 85.1379 92.631 85.0217 92.6998C84.7979 92.8462 84.7333 92.8892 84.6687 92.9323C84.092 93.3325 83.5369 93.8103 83.0161 94.3482C81.2989 96.1343 79.9991 98.3852 79.3449 100.64C79.1298 101.402 78.9962 102.078 78.9317 102.736C78.9102 102.965 78.893 103.184 78.8887 103.399C78.8844 103.739 78.8887 103.86 78.8887 103.98C79.091 106.188 79.8269 107.393 80.933 107.948L59.6205 120.24L59.4956 67.531C59.487 63.7221 62.1683 59.087 65.4822 57.176L111.021 30.9141V30.9227Z" fill="white"/>
<path d="M85.3659 92.5013C85.4821 92.4368 85.5939 92.3722 85.7101 92.3119C86.5193 91.916 87.1391 91.7223 87.7244 91.6449C89.4373 91.4512 90.7457 92.1958 91.4085 93.6892C91.6926 94.3477 91.8474 95.0793 91.8819 95.9228C91.8862 96.3102 91.8862 96.4092 91.8819 96.5082C91.6925 98.9355 90.9609 100.988 89.8634 102.813L111.167 90.5259L111.223 114.864C110.061 114.296 108.508 114.429 106.79 115.419C103.197 117.494 100.292 122.533 100.309 126.657C100.309 126.79 100.313 126.923 100.322 127.052C100.511 130.65 103.128 132.191 106.343 130.607C106.463 130.547 106.588 130.483 106.709 130.418C106.988 130.259 107.148 130.16 107.307 130.057C108.83 129.049 110.203 127.53 111.249 125.8L111.305 150.138L65.7662 176.4C62.4523 178.311 59.7538 176.775 59.7452 172.966L59.6204 120.257L80.9329 107.965C79.8269 107.414 79.0866 106.205 78.9188 104.479C78.8843 103.876 78.88 103.756 78.88 103.631C78.8886 103.201 78.9059 102.981 78.9274 102.753C78.992 102.095 79.1253 101.423 79.319 100.743C79.999 98.4062 81.3073 96.1467 82.9299 94.451C83.5367 93.8269 84.0919 93.3492 84.6686 92.9489C84.7332 92.9059 84.7977 92.8585 84.8623 92.8198C85.1377 92.6433 85.2497 92.5745 85.3659 92.5099V92.5013Z" fill="white"/>
<path d="M111.258 127.371L108.99 128.675C109.838 127.84 110.604 126.859 111.249 125.796V127.371H111.258Z" fill="white"/>
<path d="M162.749 81.213L162.702 60.8042L141.905 72.799C143.093 73.4661 143.834 74.9251 143.842 76.9909C143.851 81.1183 140.95 86.1366 137.361 88.2024C137.12 88.3401 136.879 88.4649 136.633 88.5768C133.694 89.9067 131.284 88.5897 130.9 85.4393C130.621 83.1411 131.383 80.434 132.751 78.0755L111.167 90.5222L111.223 114.86C110.061 114.292 108.508 114.426 106.791 115.416C103.197 117.49 100.292 122.53 100.309 126.653C100.309 126.786 100.313 126.92 100.322 127.049C100.511 130.647 103.128 132.188 106.343 130.604C106.463 130.544 106.588 130.479 106.829 130.345C106.988 130.251 107.148 130.156 107.307 130.049C108.831 129.041 110.203 127.522 111.249 125.792L111.305 150.13L156.84 123.868C160.154 121.957 162.835 117.318 162.826 113.509L162.788 97.0511" fill="white"/>
<path d="M48.99 139.001L48.9297 114.034L59.6204 120.253L59.7453 172.967C59.7496 174.852 60.4167 176.186 61.4927 176.814L50.8019 170.595C49.7259 169.967 49.0588 168.637 49.0545 166.743L49.0201 152.609" fill="#F0F0F0"/>
<path d="M84.5871 33.7803L100.335 24.6992L111.025 30.9268L65.4823 57.1888C62.1727 59.0997 59.4871 63.735 59.4957 67.5396L59.6206 120.253L48.9298 114.034L48.805 61.3205C48.7921 57.5159 51.4777 52.8721 54.7917 50.9612L74.301 39.711" fill="#F0F0F0"/>
<path d="M163.579 97.0509C163.579 96.6119 163.222 96.259 162.783 96.259C162.344 96.259 161.987 96.6162 161.991 97.0552L162.03 113.513C162.039 117.064 159.53 121.402 156.439 123.184L112.101 148.753C112.097 146.588 112.041 125.469 112.041 125.788C112.041 125.43 111.804 125.12 111.46 125.026C111.284 124.974 111.107 124.987 110.952 125.052C110.793 125.116 110.659 125.228 110.565 125.383C110.156 126.063 109.609 126.803 108.865 127.617C105.521 131.262 101.35 131.615 101.109 127.006L101.101 126.648C101.083 122.779 103.812 118.049 107.182 116.1C108.594 115.291 109.898 115.101 110.87 115.57C111.116 115.691 111.404 115.678 111.641 115.532C111.873 115.385 112.015 115.131 112.015 114.856L111.959 90.9954H111.972V90.9739C124.247 83.8984 131.344 79.8227 130.918 80.068V80.0464L130.931 80.0379C130.203 81.9488 129.906 83.8639 130.113 85.5295C130.56 89.1921 133.504 90.8533 136.96 89.2954C141.148 87.3974 144.647 81.7809 144.634 76.9821C144.634 75.2606 144.165 73.8532 143.3 72.9021L161.91 62.1684L161.957 81.2085C161.957 81.6475 162.314 82.0004 162.749 82.0004C163.188 82.0004 163.545 81.6432 163.541 81.2042L163.493 60.7954C163.493 60.6405 163.313 60.2402 163.08 60.0982L152.407 53.8964C152.153 53.7371 151.864 53.7371 151.61 53.8964C151.292 54.0814 130.504 66.0848 130.823 65.8997C130.242 66.2871 130.306 66.9456 130.823 67.2641C130.896 67.5826 134.387 69.3385 130.935 76.0482C130.995 76.0869 131.025 76.1558 131.086 76.1988L130.913 76.0956L122.461 71.1676C122.207 71.0084 121.888 71.0084 121.664 71.1676L111.908 76.7885L111.882 66.7132C113.186 67.0962 114.74 66.8079 116.362 65.8869C120.683 63.0076 122.921 58.3767 123.072 54.6711C123.166 52.2566 122.375 50.4447 120.881 49.5538C120.851 49.5538 120.851 49.5237 120.817 49.5237V49.4935L111.826 44.2773C111.826 42.913 111.83 49.2225 111.809 30.9226C111.809 30.6342 111.559 30.32 111.417 30.2296C106.713 27.4924 100.317 23.7696 100.722 24.0063C100.481 23.8686 100.175 23.8643 99.9257 24.0063L84.1781 33.0874C83.7993 33.3068 83.6658 33.7932 83.8853 34.1719C84.1048 34.5507 84.5869 34.6841 84.9699 34.4646L100.317 25.6159L109.424 30.9183C65.2584 56.3797 75.9276 50.2295 65.069 56.4916C61.4753 58.5574 58.6779 63.4165 58.6779 67.5482C58.7596 99.1899 58.695 73.595 58.8112 118.867L49.713 113.573L49.5881 61.3162C49.5795 57.7699 52.0843 53.4316 55.1745 51.6455L74.6838 40.3952C75.0625 40.1758 75.1959 39.6895 74.9764 39.3107C74.7569 38.932 74.2663 38.7985 73.8919 39.018L54.3827 50.2683C50.8535 52.3083 47.9871 57.262 48 61.3162C48.1033 104.342 48.0775 94.4729 48.1851 138.992C48.1851 139.431 48.5423 139.784 48.9813 139.784C49.4203 139.784 49.7775 139.426 49.7732 138.987L49.7173 115.407L58.8155 120.7L58.9403 172.958C59.1039 174.735 59.0652 174.313 59.0695 174.477L51.1935 169.893C50.3241 169.385 49.8464 168.262 49.8421 166.726L49.8076 152.592C49.8076 152.153 49.4505 151.8 49.0115 151.8C48.5725 151.8 48.2152 152.157 48.2195 152.596L48.254 166.73C48.2583 168.856 49.0201 170.466 50.3973 171.266C50.7201 171.451 61.7766 177.903 61.075 177.494C61.4021 177.537 62.9601 178.867 66.1579 177.085C66.1579 177.085 66.1622 177.085 66.1665 177.085C70.1906 174.765 73.2033 173.026 75.437 171.735C86.2998 165.469 110.031 151.778 157.223 124.557C160.812 122.487 163.618 117.632 163.609 113.509L163.571 97.0509H163.579ZM151.993 55.4845L161.079 60.7954C160.76 60.9805 140.618 72.618 141.901 71.8778H141.879L132.794 66.5669L151.993 55.4845ZM133.745 68.9512L141.432 73.4358C141.432 73.4558 141.442 73.4659 141.462 73.4659H141.488C141.759 73.7844 143.033 74.1932 143.037 76.9907C143.046 81.0492 140.016 86.1407 136.297 87.8536C133.866 88.9511 132.006 87.9784 131.684 85.3445C131.438 83.3174 132.071 80.8169 133.431 78.4756C133.608 78.1356 133.53 77.5718 133.009 77.3394L132.312 76.9262C133.521 74.5849 134.322 71.5421 133.745 68.9512ZM122.047 72.7601L130.117 77.4684L131.163 78.071L111.964 89.1447L111.903 78.6047L122.043 72.7644L122.047 72.7601ZM117.163 49.2095C115.036 49.9197 113.083 51.6196 111.856 53.3067L111.826 46.1237L117.163 49.2095ZM60.2832 67.5395C60.2746 63.9243 62.9386 59.5688 65.8696 57.8774L110.208 32.3084C110.208 33.4188 110.272 50.109 110.294 56.0397C110.294 56.8187 111.391 57.1845 111.787 56.3883C113.311 53.3885 117.352 49.2741 120.05 50.8966C121.036 51.4991 121.544 52.8376 121.479 54.6151C121.35 57.9979 118.944 62.4954 115.566 64.5269C114.103 65.3532 112.768 65.5124 111.847 64.9702C111.753 64.9056 111.688 64.841 111.593 64.7808C111.563 64.7506 111.529 64.7506 111.499 64.7162C110.926 64.3891 110.289 64.8324 110.289 65.4134C110.289 65.7233 110.367 88.5293 110.371 90.0744C109.648 90.4875 92.8159 100.171 91.7141 100.808C91.7442 100.778 91.7442 100.713 91.7786 100.683C92.8287 98.0666 93.1773 94.0081 91.2406 92.0714C91.2406 92.0714 91.2406 92.0412 91.2105 92.0714C89.0887 89.4202 84.9571 91.301 82.3446 93.9091C77.3866 99.1813 77.2489 105.594 79.5084 107.858H79.4782C78.7982 108.249 61.5313 118.226 60.408 118.876C60.3133 79.7753 60.3607 95.9534 60.2832 67.5395ZM65.3703 175.695C62.4653 177.382 60.5414 176.009 60.5414 172.962C60.4467 135.351 60.4209 124.324 60.4123 121.544C60.4123 121.522 60.4123 121.389 60.4123 121.071C60.4123 121.083 60.4123 121.096 60.4123 121.109C60.4123 120.903 60.4123 120.787 60.4123 120.735C60.4123 120.791 60.4123 120.911 60.4123 121.049C60.4123 120.95 60.4123 120.847 60.4123 120.713C60.4123 120.692 60.4123 120.696 60.4123 120.713L81.3246 108.65C81.94 108.267 81.8024 107.505 81.2945 107.251C77.9418 105.331 80.2013 98.3033 83.5884 94.9205C85.2109 93.1215 88.5206 91.5893 89.816 92.8891C92.2434 94.7139 90.7327 99.6633 89.1748 102.392C88.7702 103.068 89.5148 103.928 90.255 103.507C92.1272 102.426 109.209 92.5577 110.367 91.8906L110.419 113.788C109.201 113.595 107.802 113.913 106.386 114.731C102.573 116.93 99.4867 122.284 99.5083 126.666C99.5685 132.502 104.75 133.685 109.321 129.381C109.343 129.373 109.364 129.377 109.381 129.364L110.457 128.744L110.509 149.691C110.156 149.893 65.0346 175.893 65.3746 175.695H65.3703Z" fill="#37B44A"/>
<path d="M66.1797 177.089C84.623 166.666 84.623 166.666 66.1797 177.089V177.089Z" fill="#37B44A"/>
</g>
</svg>
