<svg width="441" height="439" viewBox="0 0 441 439" fill="none" xmlns="http://www.w3.org/2000/svg">
<path d="M436.9 305.454L362.55 262.524V264.014L436.25 306.574C438.01 307.604 438.98 308.924 438.98 310.294C438.98 311.644 438.02 312.954 436.28 313.974L227.87 435.104C223.99 437.324 217.69 437.304 213.83 435.074L4.05 313.954C2.27 312.924 1.29 311.604 1.29 310.234C1.29 308.884 2.24 307.574 3.98 306.564L50.67 279.434V277.944L3.33 305.454C1.18 306.714 0 308.414 0 310.234C0 312.074 1.21 313.794 3.4 315.064L213.19 436.164C215.34 437.414 218.11 438.034 220.88 438.034C223.65 438.034 226.37 437.424 228.51 436.194L436.93 315.064C439.08 313.804 440.27 312.104 440.27 310.274C440.27 308.434 439.07 306.714 436.9 305.444V305.454Z" fill="#F0F0F0"/>
<g opacity="0.4">
<path d="M378.06 256.164L200.59 360.564L104.77 304.564L282.23 200.164L378.06 256.164Z" fill="#F0F0F0"/>
</g>
<g opacity="0.4">
<path d="M397.24 325.594L301.14 382.134L249.25 351.804L345.35 295.264L397.24 325.594Z" fill="#F0F0F0"/>
</g>
<path d="M313.45 171.774L313.19 257.854L141.09 358.454L141.35 272.374L313.45 171.774Z" fill="white"/>
<path d="M64.7904 314.404L50.6704 306.254L50.9304 220.174L141.35 272.374L141.09 358.454L79.2304 322.744" fill="#F0F0F0"/>
<path d="M317.55 168.474L317.49 189.104L140.03 293.504L140.08 272.874L317.55 168.474Z" fill="white"/>
<path d="M140.08 272.874L140.03 293.504L44.2002 237.504L44.2602 216.874L140.08 272.874Z" fill="white"/>
<path d="M298.36 157.254L317.55 168.474L140.08 272.874L44.2603 216.874L221.73 112.474L274.32 143.204" fill="white"/>
<path d="M45.3804 237.194L45.4104 237.224C45.4104 237.224 45.4404 237.244 45.4504 237.244C45.4304 237.244 45.4104 237.214 45.3804 237.204V237.194Z" fill="#33AD43"/>
<path d="M87.4601 227.014C101.08 233.534 115.98 237.334 131.05 238.134C145.33 238.874 159.77 235.254 173.85 232.634C176.83 232.074 179.83 231.494 182.75 230.664C199.67 225.974 216.87 216.174 224.59 200.204C225.52 198.944 226.44 197.724 227.37 196.464C228.46 195.434 229.07 193.824 230.29 192.784C233 190.444 238.74 191.294 242.33 191.444C255.17 191.964 268.13 186.514 276.76 176.984C282.74 170.394 286.71 161.134 284.29 152.594C284.09 151.904 283.84 151.204 283.75 150.484C283.5 148.844 284.02 147.234 284.24 145.594C284.69 142.414 283.95 139.114 282.36 136.314C281.78 135.844 281.17 135.464 280.52 135.104C275.01 136.134 268.93 137.574 263.42 138.604C252.21 140.684 240.45 143.044 231.88 150.524C229.17 152.874 226.9 155.654 224.51 158.304C210.34 173.994 192.01 185.224 173.97 196.204C170.5 198.334 166.55 200.124 162.47 200.034C146 201.914 129.16 200.904 113.03 197.074C107.36 195.734 101.55 195.014 95.7701 195.394C93.2401 195.554 90.6601 195.974 88.4601 197.214C84.4001 199.504 82.2501 204.274 82.0101 208.914C81.7601 213.154 82.7001 218.994 84.0201 223.054C84.2701 223.814 84.6501 224.524 85.1501 225.154C85.3801 225.384 85.9801 226.294 87.4701 227.004L87.4601 227.014Z" fill="white"/>
<path d="M285.11 152.354L284.97 151.904C284.81 151.374 284.66 150.874 284.59 150.364C284.43 149.324 284.63 148.254 284.85 147.124C284.94 146.654 285.03 146.194 285.09 145.724C285.5 142.804 284.96 139.704 283.6 136.894C283.37 137.654 283.07 138.384 282.66 139.064C283.42 141.174 283.69 143.384 283.39 145.494C283.33 145.934 283.25 146.374 283.16 146.814C282.93 148.034 282.69 149.304 282.89 150.604C282.97 151.244 283.15 151.834 283.33 152.414L283.46 152.844C285.56 160.234 282.81 169.054 276.12 176.424C267.62 185.804 255 191.104 242.36 190.604C241.64 190.574 240.93 190.534 240.21 190.484C238.11 190.354 235.93 190.214 233.77 190.524C231.98 190.804 230.7 191.324 229.74 192.154C228.99 192.784 228.48 193.564 227.98 194.314C227.59 194.904 227.22 195.454 226.78 195.864C226.74 195.894 226.71 195.934 226.68 195.974L223.9 199.714C223.9 199.714 223.84 199.804 223.82 199.854C214.81 218.504 194.08 226.654 182.52 229.864C179.69 230.674 176.73 231.244 173.7 231.814C171.23 232.274 168.74 232.764 166.25 233.264C154.71 235.544 142.77 237.914 131.11 237.304C116.24 236.514 101.28 232.694 87.8402 226.264C87.0702 225.894 86.3702 225.334 85.8202 224.644C85.3802 224.094 85.0502 223.474 84.8302 222.824C83.4502 218.554 82.6402 212.874 82.8602 208.994C82.9802 206.674 83.5802 204.494 84.5502 202.634C84.4602 202.584 84.3802 202.524 84.3002 202.454C84.0502 202.204 83.9302 201.804 83.9702 201.444C83.9302 201.334 83.9102 201.214 83.9002 201.094C83.8902 200.744 83.9602 200.424 84.0902 200.134C82.3802 202.524 81.3102 205.584 81.1302 208.904C80.8902 212.964 81.7402 218.904 83.1802 223.354C83.4602 224.214 83.8902 225.004 84.4602 225.724C85.1702 226.614 86.0802 227.334 87.0802 227.814C100.72 234.344 115.91 238.214 131 239.024C132.29 239.094 133.58 239.124 134.88 239.124C145.49 239.124 156.19 237.004 166.56 234.954C169.05 234.464 171.53 233.974 173.99 233.514C177.06 232.934 180.06 232.354 182.96 231.524C194.78 228.244 215.99 219.894 225.31 200.684L228 197.064C228.55 196.524 228.98 195.884 229.39 195.264C229.84 194.584 230.27 193.944 230.84 193.464C231.56 192.844 232.57 192.454 234.01 192.234C235.99 191.944 237.98 192.074 240.09 192.214C240.82 192.264 241.55 192.304 242.28 192.334C255.42 192.874 268.54 187.354 277.38 177.594C284.47 169.784 287.36 160.364 285.1 152.394L285.11 152.354Z" fill="#33AD43"/>
<path d="M84.7399 203.294C86.7099 204.814 90.1199 205.314 92.3599 206.614C94.7999 208.024 97.0199 209.844 98.5499 212.244C101.98 217.644 106.11 225.094 111.29 228.854C114.81 231.434 119.61 231.074 123.95 230.584C138.72 228.944 149.11 227.694 163.39 223.494C177.65 219.304 191.43 212.374 201.63 201.574C209.09 193.684 214.7 183.714 223.95 178.044C229.84 174.434 236.73 172.864 243.14 170.264C255.2 165.404 265.4 156.954 275.39 148.634C277.94 146.504 280.57 144.284 282.14 141.354C285.57 134.874 283.01 127.054 281.33 119.924C279.69 112.974 278.98 105.804 279.18 98.6741C279.25 95.8741 279.34 92.7841 278.8 90.0041C278.24 87.0941 277.05 84.5341 274.52 83.0741C270.24 80.5641 264.64 82.8741 259.91 81.3741C253.1 79.2241 250.41 70.1441 243.64 67.9441C239.47 66.5741 234.83 68.3041 231.49 71.1241C228.15 73.9241 225.82 77.7341 223.38 81.3441C216.3 91.8341 207.76 101.294 198.1 109.454C192.5 114.134 186.53 118.394 180.26 122.164C170.53 127.974 160.07 132.604 151.01 139.404C138.7 148.614 129.49 161.464 117.52 171.144C115.08 173.114 112.54 174.974 109.94 176.794C103.55 181.274 96.9799 185.554 91.4499 191.114C89.4099 193.154 81.6299 200.904 84.7499 203.304L84.7399 203.294Z" fill="white"/>
<path d="M84.7401 203.294C86.7101 204.814 90.1201 205.314 92.3601 206.614C94.8001 208.024 97.0201 209.844 98.5501 212.244C101.98 217.644 106.1 225.084 111.28 228.854C114.8 231.434 119.6 231.074 123.94 230.584C138.71 228.944 149.11 227.694 163.39 223.504C177.65 219.314 191.43 212.384 201.63 201.584C209.09 193.694 214.7 183.724 223.95 178.054C229.84 174.444 236.73 172.874 243.14 170.274C255.2 165.414 265.4 156.964 275.39 148.644C277.94 146.514 280.57 144.294 282.14 141.364C285.57 134.884 283.01 127.064 281.33 119.934C279.69 112.984 278.98 105.814 279.18 98.6841C279.25 95.8841 279.34 92.7941 278.8 90.0141C278.78 89.9441 278.78 89.8541 278.76 89.7941C278.18 86.9741 276.99 84.5041 274.52 83.0941C270.24 80.5841 264.64 82.8941 259.91 81.3941C253.1 79.2441 250.41 70.1641 243.64 67.9641C239.47 66.5941 234.83 68.3241 231.49 71.1441C228.15 73.9441 225.82 77.7541 223.38 81.3641C216.3 91.8541 207.76 101.314 198.1 109.474C192.5 114.154 186.53 118.414 180.26 122.184C170.53 127.994 160.07 132.624 151.01 139.424C138.7 148.634 129.49 161.484 117.52 171.164C115.08 173.134 112.54 174.994 109.94 176.814C103.55 181.294 96.9801 185.574 91.4501 191.134C90.7301 191.854 89.3201 193.264 87.9301 194.904C85.3101 197.954 82.7301 201.764 84.7501 203.334L84.7401 203.294Z" fill="white"/>
<path d="M282.74 122.104C282.54 121.294 282.35 120.514 282.17 119.724C280.56 112.874 279.84 105.804 280.04 98.6941V98.4941C280.11 95.7541 280.19 92.6341 279.63 89.7641C279.63 89.6941 279.6 89.6341 279.59 89.5741C278.86 86.0641 277.34 83.7041 274.96 82.3241C272.35 80.7941 269.36 80.9141 266.47 81.0141C264.23 81.0941 262.11 81.1641 260.17 80.5541C256.98 79.5441 254.75 76.8941 252.38 74.0841C249.98 71.2341 247.5 68.2941 243.9 67.1341C239.11 65.5541 234.06 67.8241 230.94 70.4741C228.53 72.4841 226.64 75.0141 224.89 77.5641C224.56 78.0441 224.23 78.5241 223.91 79.0041C224.22 79.1441 224.53 79.2741 224.84 79.4041C224.86 79.4041 224.87 79.4241 224.89 79.4341L225.27 79.5841C225.36 79.6141 225.43 79.6541 225.52 79.6841C225.84 79.2041 226.16 78.7141 226.5 78.2341C228.13 75.8741 229.88 73.5841 232.04 71.7741C234.82 69.4241 239.25 67.3941 243.37 68.7441C246.51 69.7641 248.72 72.3941 251.07 75.1741C253.49 78.0441 255.99 81.0141 259.64 82.1741C261.88 82.8841 264.24 82.8041 266.52 82.7141C269.29 82.6241 271.9 82.5241 274.08 83.8041C276.03 84.9241 277.29 86.9341 277.92 89.9941C277.92 90.0641 277.94 90.1241 277.95 90.1841C278.45 92.8041 278.38 95.8041 278.31 98.4441V98.6441C278.1 105.894 278.83 113.114 280.48 120.114C280.67 120.904 280.87 121.704 281.06 122.504C282.64 128.884 284.26 135.464 281.37 140.934C279.84 143.784 277.18 146.014 274.83 147.964C265 156.154 254.82 164.614 242.81 169.464C240.68 170.324 238.47 171.084 236.32 171.824C231.99 173.314 227.5 174.854 223.49 177.304C217.18 181.174 212.5 187.044 207.97 192.724C205.74 195.514 203.44 198.394 200.99 200.994C191.84 210.694 179.1 217.984 163.14 222.674C149.08 226.804 139.05 228.044 123.84 229.734C119.49 230.224 114.97 230.514 111.78 228.164C107.49 225.054 103.94 219.324 100.82 214.274C100.28 213.414 99.7701 212.584 99.2701 211.784C97.8301 209.524 95.6401 207.534 92.7901 205.874C91.7301 205.254 90.4401 204.824 89.2101 204.404C87.7601 203.904 86.2601 203.394 85.2701 202.634C85.0401 202.454 84.9201 202.234 84.8901 201.924C84.8101 201.184 85.2001 199.374 88.5801 195.444C89.9601 193.824 91.3801 192.404 92.0501 191.724C96.7601 187.004 102.33 183.134 107.72 179.384C108.63 178.754 109.53 178.134 110.43 177.494C113.33 175.474 115.82 173.614 118.05 171.814C123.69 167.254 128.79 161.924 133.72 156.764C139.28 150.964 145.02 144.954 151.5 140.094C156.28 136.514 161.52 133.504 166.74 130.644C167.91 129.994 169.1 129.354 170.26 128.724C170.29 128.704 170.31 128.694 170.34 128.684C171.13 127.634 171.91 126.554 172.67 125.464C171.59 126.054 170.51 126.634 169.45 127.214C169.36 127.254 169.28 127.304 169.19 127.354C162.86 130.774 156.33 134.324 150.47 138.724C143.87 143.664 138.07 149.714 132.47 155.574C127.57 160.694 122.52 165.984 116.95 170.484C114.76 172.254 112.29 174.084 109.42 176.094C108.52 176.724 107.62 177.354 106.72 177.984C101.27 181.774 95.6301 185.694 90.8201 190.524C90.1301 191.214 88.6701 192.664 87.2501 194.344C84.3201 197.754 82.9701 200.294 83.1601 202.114C83.2401 202.884 83.5901 203.534 84.2001 204.004C85.4101 204.934 87.0501 205.504 88.6301 206.044C89.8501 206.454 91.0001 206.854 91.9101 207.384C94.5601 208.914 96.4901 210.664 97.8001 212.734C98.3001 213.514 98.8101 214.344 99.3401 215.194C102.55 220.384 106.19 226.254 110.74 229.574C113.11 231.304 115.95 231.814 118.93 231.814C120.6 231.814 122.32 231.654 124.01 231.464C139.31 229.764 149.41 228.514 163.6 224.344C179.86 219.564 192.85 212.114 202.22 202.184C204.72 199.544 207.05 196.624 209.29 193.814C213.72 188.254 218.32 182.504 224.37 178.794C228.21 176.434 232.61 174.924 236.85 173.474C239.02 172.724 241.26 171.964 243.43 171.084C255.69 166.144 265.97 157.584 275.91 149.324C278.38 147.264 281.18 144.924 282.86 141.774C286.07 135.724 284.36 128.814 282.71 122.134L282.74 122.104Z" fill="#33AD43"/>
<path d="M154.71 209.014C131.78 213.904 106.9 208.584 87.9204 194.874C85.3004 197.924 82.7204 201.734 84.7404 203.304C86.7104 204.824 90.1204 205.324 92.3604 206.624C94.8004 208.034 97.0204 209.854 98.5504 212.254C101.98 217.654 106.1 225.094 111.28 228.864C114.8 231.444 119.6 231.084 123.94 230.594C138.71 228.954 149.11 227.704 163.39 223.514C177.65 219.324 191.43 212.394 201.63 201.594C209.09 193.704 214.7 183.734 223.95 178.064C229.84 174.454 236.73 172.884 243.14 170.284C255.2 165.424 265.4 156.974 275.39 148.654C277.94 146.524 280.57 144.304 282.14 141.374C285.57 134.894 283.01 127.074 281.33 119.944C279.69 112.994 278.98 105.824 279.18 98.6941C279.25 95.8941 279.34 92.8041 278.8 90.0241C278.78 89.9541 278.78 89.8641 278.76 89.8041C274.32 91.4441 270.2 94.1541 266.72 97.3541C260.18 103.404 255.51 111.164 250.92 118.784C239.24 138.194 227.32 157.674 211.85 174.214C202.61 184.084 191.94 192.904 180.13 199.404" fill="#F0F0F0"/>
<path d="M252.28 114.864C251.59 115.974 250.9 117.094 250.23 118.204L250.17 118.304C237.15 139.944 226.02 157.754 211.21 173.594C201.37 184.104 190.77 192.524 179.71 198.624C179.3 198.854 179.14 199.374 179.37 199.784C179.6 200.204 180.12 200.344 180.53 200.124C191.75 193.944 202.5 185.404 212.46 174.764C227.38 158.804 238.56 140.914 251.64 119.194L251.7 119.094C252.57 117.644 253.46 116.204 254.37 114.754C253.7 114.934 252.97 114.954 252.28 114.864Z" fill="black"/>
<path d="M282.74 122.094C282.54 121.294 282.35 120.504 282.16 119.714C280.55 112.864 279.83 105.784 280.03 98.6841V98.4841C280.1 95.7441 280.18 92.6341 279.62 89.7541C279.61 89.6641 279.59 89.5641 279.56 89.4941C279.49 89.2741 279.33 89.0941 279.12 88.9941C278.91 88.8941 278.67 88.8841 278.45 88.9641C277.91 89.1641 277.37 89.3741 276.84 89.6141C277.1 90.1341 277.27 90.7141 277.35 91.2741C277.6 91.1641 277.84 91.0541 278.09 90.9541C278.45 93.3841 278.38 96.0641 278.33 98.4541V98.6541C278.12 105.904 278.85 113.124 280.5 120.124C280.69 120.914 280.88 121.714 281.08 122.514C282.65 128.884 284.28 135.474 281.38 140.944C279.86 143.794 277.19 146.014 274.84 147.974C265 156.154 254.83 164.624 242.81 169.464C240.69 170.324 238.47 171.084 236.33 171.824C231.99 173.314 227.51 174.854 223.5 177.304C217.19 181.174 212.51 187.044 207.98 192.724C205.76 195.514 203.46 198.394 201.01 200.984C191.86 210.684 179.12 217.974 163.15 222.674C149.09 226.804 139.06 228.044 123.85 229.724C119.5 230.214 114.99 230.504 111.79 228.154C107.5 225.034 103.96 219.314 100.83 214.264C100.3 213.404 99.7803 212.574 99.2803 211.784C97.8403 209.514 95.6603 207.524 92.8003 205.874C91.7403 205.254 90.4503 204.814 89.2203 204.394C87.7703 203.894 86.2703 203.384 85.2803 202.624C85.0503 202.444 84.9303 202.224 84.9003 201.914C84.8303 201.224 85.1703 199.554 88.0803 196.034C107.18 209.554 132.1 214.714 154.91 209.854C155.37 209.754 155.67 209.304 155.57 208.834C155.47 208.374 155.02 208.074 154.55 208.174C131.95 212.994 107.24 207.754 88.4403 194.174C88.0803 193.914 87.5803 193.974 87.2903 194.314C84.3503 197.724 83.0103 200.274 83.1903 202.084C83.2703 202.854 83.6303 203.514 84.2303 203.984C85.4403 204.924 87.0803 205.484 88.6703 206.024C89.8803 206.444 91.0303 206.834 91.9503 207.364C94.6003 208.894 96.5303 210.644 97.8403 212.704C98.3403 213.484 98.8503 214.314 99.3803 215.174C102.59 220.354 106.23 226.234 110.79 229.544C113.16 231.274 116.01 231.784 118.98 231.784C120.66 231.784 122.37 231.624 124.06 231.434C139.36 229.734 149.46 228.484 163.66 224.324C179.92 219.544 192.92 212.084 202.28 202.174C204.78 199.524 207.1 196.614 209.35 193.804C213.79 188.244 218.38 182.494 224.43 178.784C228.28 176.434 232.67 174.924 236.92 173.464C239.09 172.724 241.33 171.954 243.49 171.074C255.75 166.124 266.03 157.574 275.97 149.304C278.44 147.244 281.24 144.914 282.93 141.764C286.13 135.714 284.43 128.804 282.78 122.114L282.74 122.094Z" fill="black"/>
<path d="M198.08 109.454C204.96 112.364 212.63 113.484 220.13 113.314C222.15 113.244 224.19 113.114 226.09 112.484C227.46 112.054 228.73 111.404 230.12 111.054C236.17 109.444 242.11 113.614 248.25 114.734C256.14 116.164 264.7 111.954 268.36 104.824C269.77 102.094 270.49 99.0141 271.81 96.2441C273.16 93.4641 275.33 90.7941 278.33 90.1041C278.49 90.0641 278.62 90.0341 278.78 90.0141C278.22 87.1041 277.03 84.5441 274.5 83.0841C270.22 80.5741 264.62 82.8841 259.89 81.3841C253.08 79.2341 250.39 70.1541 243.62 67.9541C239.45 66.5841 234.81 68.3141 231.47 71.1341C228.13 73.9341 225.8 77.7441 223.36 81.3541C216.28 91.8441 207.74 101.304 198.08 109.464V109.454Z" fill="white"/>
<path d="M182.48 125.434C182.88 126.354 183.31 127.284 183.98 128.054C184.63 128.814 185.49 129.354 186.39 129.764C190.71 131.664 195.69 129.984 200.11 128.324L206.45 126.474V109.034C206.45 109.034 209.47 110.834 213.28 113.104C215.56 113.304 217.86 113.374 220.14 113.314C222.15 113.244 224.2 113.114 226.1 112.484C227.47 112.064 228.75 111.414 230.14 111.054C230.55 110.944 230.97 110.864 231.38 110.804C231.64 109.444 231.8 108.524 231.8 108.524C231.8 108.524 234.63 99.2441 235.49 94.2441C235.92 91.9141 236.25 89.4441 235.67 87.1841C235.56 86.6641 235.4 86.2041 235.17 85.7341C233.45 81.9141 229.08 80.2341 225.2 78.6541C225.2 78.6541 225.2 78.6541 225.18 78.6541C219.82 76.4341 214.7 73.7141 209.91 70.5041C207.73 69.0441 204.94 67.4741 202.4 66.9341C198.89 66.1841 195.28 67.4941 192.05 69.0941C190.72 69.7441 190.03 70.4541 189 71.5341C187.9 72.6841 187.21 74.1341 186.56 75.5941C184.55 80.1041 182.8 84.7341 181.5 89.5141C180.51 93.0041 179.79 96.5741 179.37 100.204C178.38 108.714 179.19 117.524 182.48 125.474V125.434Z" fill="white"/>
<path d="M215.84 81.7642C215.12 81.5342 214.4 81.3042 213.68 81.0842C209.17 79.6742 204.5 78.2242 200.42 75.0542L199.66 74.4442C199.66 74.4442 199.65 74.4442 199.64 74.4342C198.77 73.7342 197.53 73.6542 196.59 74.2542C195.98 74.6442 195.3 75.1642 194.73 75.8142C192.63 78.2242 190.94 80.9342 189.7 83.8742C188.57 86.5442 187.81 89.4142 187 92.4442C186.67 93.6742 186.34 94.9142 185.99 96.1342C183.34 105.304 179.32 113.994 174.04 121.964C172.12 124.864 170.04 127.644 168.03 130.324L160.69 140.134C160.13 140.894 160.11 141.924 160.66 142.684C161.35 143.644 162.42 144.844 163.78 145.994C166.13 147.984 169.4 149.234 172.55 150.454L176.49 151.974C177.71 152.444 178.86 152.884 179.92 153.104C181.22 153.364 182.68 153.344 183.93 153.284L184.34 153.264C186.01 153.174 187.42 153.104 188.53 152.784C188.98 152.654 189.44 152.544 189.89 152.444C190.45 152.314 190.94 152.204 191.28 152.054L192.13 151.634L192.34 151.554C196.13 150.174 199.37 147.134 202.36 144.144C207.99 138.514 211.79 133.934 214.69 129.284C216.87 125.794 218.65 122.044 219.98 118.154L219.93 118.124C220.62 116.344 221.45 114.614 222.25 112.944C223.01 111.354 223.73 109.844 224.3 108.394C224.6 107.614 224.92 106.834 225.23 106.054C226.47 102.984 227.64 100.084 228.01 97.2142C228.26 88.8442 223.37 84.3142 215.83 81.7442L215.84 81.7642Z" fill="#F0F0F0"/>
<path d="M274.95 82.3341C270.38 79.6541 264.72 82.0041 260.16 80.5541C256.98 79.5441 254.74 76.8941 252.37 74.0841C249.97 71.2341 247.49 68.2941 243.89 67.1241C239.1 65.5541 234.05 67.8241 230.92 70.4641C228.51 72.4841 226.62 75.0041 224.87 77.5641C206.84 70.0841 205.4 61.5041 191.67 68.2941C190.19 69.0241 189.38 69.8541 188.38 70.9141C187.18 72.1541 186.43 73.7141 185.77 75.2141C180.5 87.0341 177.01 99.9341 178.43 112.794C173.46 121.824 174.08 120.814 160 139.644C159.21 140.694 159.19 142.134 159.97 143.214C163.89 148.674 169.08 150.034 176.19 152.794C179.08 153.904 180.34 154.364 183.98 154.154L184.39 154.134C188.26 153.914 187.91 153.804 190.12 153.284C190.7 153.144 191.22 153.034 191.66 152.834C193.29 151.844 195.47 152.264 202.98 144.764C210.96 136.784 217.14 129.174 220.81 118.444C220.84 118.354 220.85 118.274 220.85 118.184C221.41 116.764 222.07 115.364 222.71 114.004C227.27 113.554 228.46 112.104 231.31 111.664C237.67 110.624 243.91 115.854 251.46 115.854C258.71 115.854 265.8 111.714 269.14 105.194C270.61 102.354 271.29 99.3541 272.6 96.5941C273.48 94.7841 275.41 91.6441 278.59 90.9041C278.71 90.8741 278.81 90.8541 278.92 90.8441C279.15 90.8141 279.36 90.6841 279.5 90.4941C279.64 90.3041 279.69 90.0641 279.64 89.8341C278.94 86.1941 277.41 83.7441 274.95 82.3341ZM230.98 108.264C230.94 108.424 230.87 108.884 230.65 110.044C227.76 110.614 226.92 111.664 223.61 112.164C224.17 110.984 225.05 109.074 226.05 106.384C227.31 103.264 228.5 100.314 228.88 97.3341C228.94 96.8641 228.61 96.4341 228.14 96.3741C227.68 96.3141 227.24 96.6441 227.18 97.1241C226.81 100.044 225.5 103.154 224.38 105.944C223.61 107.874 222.75 110.094 221.54 112.524L222.31 112.894L221.5 112.604C221.25 113.124 219.11 117.574 219.11 118.154C215.56 128.434 209.54 135.804 201.78 143.564C198.86 146.484 195.7 149.454 192.07 150.774C191.55 150.954 191.64 150.964 190.96 151.284C190.62 151.434 189.21 151.724 188.31 151.974C187.18 152.294 185.48 152.364 183.91 152.444C180.66 152.584 179.82 152.344 176.82 151.184C169.7 148.434 164.9 147.114 161.37 142.204C161.04 141.744 161.05 141.124 161.4 140.664C169.82 128.784 180.68 117.674 186.83 96.3841C187.19 95.1541 187.52 93.9041 187.85 92.6441C188.66 89.6541 189.41 86.8141 190.51 84.2041C191.72 81.3441 193.37 78.7041 195.4 76.3641C195.83 75.8641 196.39 75.4041 197.07 74.9641C197.7 74.5641 198.54 74.6141 199.14 75.1141L199.9 75.7241C204.1 78.9841 208.84 80.4641 213.44 81.8941C214.15 82.1141 214.87 82.3441 215.58 82.5741C216.03 82.7141 216.51 82.4741 216.66 82.0141C216.81 81.5641 216.56 81.0841 216.11 80.9341C215.39 80.7041 214.67 80.4841 213.93 80.2441C209.5 78.8641 204.9 77.4341 200.96 74.3741L200.19 73.7541C199.02 72.8241 197.4 72.7241 196.14 73.5241C195.33 74.0341 194.63 74.6241 194.09 75.2341C191.94 77.7141 190.2 80.5041 188.92 83.5241C187.77 86.2441 187 89.1341 186.18 92.2141C185.85 93.4441 185.52 94.6741 185.17 95.8941C183.79 100.664 182.04 105.294 179.93 109.764C179.31 98.1241 182.55 86.6141 187.34 75.8941C187.97 74.4841 188.61 73.1341 189.62 72.0741C190.58 71.0641 191.21 70.4041 192.43 69.8041C195.18 68.4541 198.78 66.9841 202.22 67.7241C204.75 68.2641 207.54 69.8941 209.43 71.1741C227.77 83.4541 237.32 79.4541 234.64 94.0641C233.79 98.9641 231 108.154 230.97 108.244L230.98 108.264ZM271.05 95.8541C269.73 98.6341 268.97 101.774 267.61 104.414C264.15 111.164 255.9 115.234 248.42 113.864C243.14 112.904 237.92 109.574 232.43 109.824C232.54 109.244 232.61 108.834 232.63 108.694C232.88 107.884 235.49 99.2241 236.33 94.3741C236.86 91.4441 237.26 88.0441 235.95 85.3441C234.21 81.4741 230.19 79.7841 226.48 78.2241C228.11 75.8641 229.86 73.5641 232.02 71.7541C234.79 69.4041 239.23 67.3741 243.35 68.7341C249.81 70.8341 252.51 79.9141 259.63 82.1641C264.5 83.7141 270.09 81.4541 274.08 83.7941C275.93 84.8641 277.12 86.6341 277.77 89.3241C275.09 90.0941 272.71 92.3841 271.04 95.8341L271.05 95.8541Z" fill="#33AD43"/>
<path d="M224.26 120.364C224.26 122.804 226.3 124.784 228.78 124.784C231.26 124.784 233.28 122.804 233.28 120.364C233.28 117.924 231.27 115.944 228.78 115.944C226.29 115.944 224.26 117.924 224.26 120.364Z" fill="#F0F0F0"/>
<path d="M228.78 125.634C225.81 125.634 223.4 123.264 223.4 120.354C223.4 117.444 225.81 115.074 228.78 115.074C231.75 115.074 234.13 117.444 234.13 120.354C234.13 123.264 231.73 125.634 228.78 125.634ZM228.78 116.794C226.76 116.794 225.12 118.394 225.12 120.354C225.12 122.314 226.76 123.914 228.78 123.914C230.8 123.914 232.42 122.314 232.42 120.354C232.42 118.394 230.79 116.794 228.78 116.794Z" fill="#33AD43"/>
<path d="M218.39 132.884C218.39 135.324 220.43 137.304 222.91 137.304C225.39 137.304 227.41 135.324 227.41 132.884C227.41 130.444 225.4 128.464 222.91 128.464C220.42 128.464 218.39 130.444 218.39 132.884Z" fill="#F0F0F0"/>
<path d="M222.91 138.154C219.94 138.154 217.53 135.784 217.53 132.874C217.53 129.964 219.94 127.594 222.91 127.594C225.88 127.594 228.26 129.964 228.26 132.874C228.26 135.784 225.86 138.154 222.91 138.154ZM222.91 129.314C220.89 129.314 219.25 130.914 219.25 132.874C219.25 134.834 220.89 136.434 222.91 136.434C224.93 136.434 226.55 134.834 226.55 132.874C226.55 130.914 224.92 129.314 222.91 129.314Z" fill="#33AD43"/>
<path d="M210.67 145.704C210.67 148.144 212.71 150.124 215.19 150.124C217.67 150.124 219.69 148.144 219.69 145.704C219.69 143.264 217.68 141.284 215.19 141.284C212.7 141.284 210.67 143.264 210.67 145.704Z" fill="#F0F0F0"/>
<path d="M215.2 150.984C212.23 150.984 209.82 148.614 209.82 145.704C209.82 142.794 212.23 140.424 215.2 140.424C218.17 140.424 220.56 142.794 220.56 145.704C220.56 148.614 218.16 150.984 215.2 150.984ZM215.2 142.144C213.18 142.144 211.54 143.744 211.54 145.704C211.54 147.664 213.18 149.264 215.2 149.264C217.22 149.264 218.84 147.664 218.84 145.704C218.84 143.744 217.21 142.144 215.2 142.144Z" fill="#33AD43"/>
<path d="M200.47 157.244C200.47 159.684 202.51 161.664 204.99 161.664C207.47 161.664 209.49 159.684 209.49 157.244C209.49 154.804 207.48 152.824 204.99 152.824C202.5 152.824 200.47 154.804 200.47 157.244Z" fill="#F0F0F0"/>
<path d="M204.99 162.524C202.02 162.524 199.61 160.154 199.61 157.244C199.61 154.334 202.02 151.964 204.99 151.964C207.96 151.964 210.34 154.334 210.34 157.244C210.34 160.154 207.94 162.524 204.99 162.524ZM204.99 153.684C202.97 153.684 201.33 155.284 201.33 157.244C201.33 159.204 202.97 160.804 204.99 160.804C207.01 160.804 208.63 159.204 208.63 157.244C208.63 155.284 207 153.684 204.99 153.684Z" fill="#33AD43"/>
<path d="M228.77 121.214C228.77 121.214 228.74 121.214 228.73 121.214C200.07 119.744 183.19 112.764 178.57 100.474C178.4 100.034 178.63 99.5342 179.07 99.3742C179.51 99.2042 180.01 99.4342 180.17 99.8742C184.53 111.474 200.89 118.074 228.81 119.504C229.28 119.524 229.65 119.934 229.62 120.404C229.6 120.864 229.22 121.214 228.76 121.214H228.77Z" fill="black"/>
<path d="M222.89 133.734C197.47 133.324 181.87 127.744 176.51 117.124C176.3 116.704 176.47 116.184 176.89 115.974C177.31 115.754 177.83 115.934 178.04 116.354C183.09 126.354 198.19 131.634 222.91 132.024C223.38 132.024 223.76 132.424 223.75 132.894C223.75 133.364 223.36 133.734 222.89 133.734Z" fill="black"/>
<path d="M213.99 146.574C194.36 146.574 179.27 140.514 169.12 128.564C168.81 128.204 168.86 127.664 169.22 127.354C169.58 127.044 170.12 127.094 170.43 127.454C180.58 139.404 195.22 145.104 215.18 144.854C215.66 144.854 216.04 145.224 216.05 145.704C216.05 146.174 215.68 146.564 215.2 146.574C214.8 146.574 214.39 146.574 213.99 146.574Z" fill="black"/>
<path d="M204.98 158.104H204.96C182.46 157.524 167.33 149.194 159.99 133.364C159.79 132.934 159.98 132.424 160.41 132.224C160.84 132.024 161.35 132.214 161.55 132.644C168.69 148.044 182.9 155.814 205.01 156.384C205.48 156.394 205.86 156.794 205.84 157.264C205.83 157.734 205.45 158.104 204.98 158.104Z" fill="black"/>
<path d="M242.76 255.534L327.51 205.584L338.72 215.514L361.78 225.364L276.89 275.694L262.79 262.704L242.76 255.534Z" fill="white"/>
<path d="M272.51 250.474C272.51 247.444 274.58 243.884 277.22 242.364C280.24 240.604 282.84 242.334 282.84 245.544C282.84 248.754 280.77 252.194 278.13 253.714C275.13 255.394 272.51 253.754 272.51 250.474ZM278.07 243.854C275.98 245.054 274.22 248.084 274.22 250.474C274.22 252.484 275.5 253.214 277.28 252.224C279.36 251.034 281.12 247.974 281.12 245.554C281.12 243.654 279.94 242.774 278.07 243.864V243.854Z" fill="black"/>
<path d="M363.55 326.064L275.3 377.374L276.89 275.694L361.78 225.364" fill="white"/>
<path d="M275.3 378.224C275.15 378.224 275 378.184 274.87 378.104C274.6 377.944 274.44 377.664 274.45 377.354L276.03 275.674C276.03 275.374 276.19 275.104 276.45 274.954L361.34 224.624C361.75 224.384 362.27 224.514 362.51 224.924C362.75 225.334 362.62 225.854 362.21 226.094L277.73 276.174L276.18 375.854L363.11 325.314C363.52 325.074 364.04 325.214 364.28 325.624C364.52 326.034 364.38 326.554 363.97 326.794L275.72 378.104C275.59 378.184 275.44 378.224 275.29 378.224H275.3Z" fill="#33AD43"/>
<path d="M363.16 299.314L363.55 326.064L275.3 377.374L276.89 275.704L361.77 225.364L362.93 283.204" fill="white"/>
<path d="M337.2 258.454C337.97 257.074 338.43 255.534 338.43 254.074C338.43 250.014 334.89 248.554 331.89 250.344C329.34 251.914 327.42 255.324 327.42 258.284C327.42 262.334 330.83 263.824 333.85 261.984C334.72 261.484 335.51 260.764 336.19 259.934C336.92 260.954 337.34 262.184 337.34 263.404V276.364C337.34 284.054 331.95 293.274 325.3 296.934C319.47 300.434 313.13 297.934 313.13 289.764L313.07 274.844C313.07 274.844 313.07 274.764 313.07 274.734C312.96 273.924 312.76 273.254 312.47 272.664C313.27 271.264 313.75 269.684 313.75 268.184C313.75 264.184 310.27 262.634 307.21 264.454C304.66 266.024 302.74 269.434 302.74 272.394C302.74 276.424 306.14 277.944 309.17 276.094C309.93 275.654 310.63 275.044 311.26 274.334C311.3 274.514 311.34 274.704 311.37 274.904L311.43 289.764C311.43 299.264 319.24 302.574 326.17 298.414C333.28 294.504 339.07 284.604 339.07 276.354V263.394C339.07 261.614 338.39 259.834 337.22 258.434L337.2 258.454ZM332.98 260.514C331.08 261.674 329.14 261.014 329.14 258.294C329.14 255.964 330.78 253.054 332.78 251.824C334.62 250.724 336.72 251.334 336.72 254.084C336.72 255.094 336.4 256.194 335.9 257.224C335.53 256.944 335.12 256.664 334.85 256.534L333.31 255.664C332.9 255.434 332.37 255.574 332.14 255.984C331.91 256.394 332.05 256.924 332.46 257.154L334.04 258.044C334.25 258.144 334.66 258.434 334.99 258.694C334.41 259.454 333.72 260.104 332.98 260.524V260.514ZM308.29 274.624C306.39 275.784 304.45 275.134 304.45 272.404C304.45 270.074 306.09 267.164 308.09 265.934C310 264.794 312.03 265.514 312.03 268.194C312.03 269.154 311.75 270.194 311.28 271.174C311.06 270.984 310.82 270.804 310.56 270.644L308.73 269.564C308.32 269.324 307.8 269.464 307.56 269.874C307.32 270.284 307.46 270.804 307.87 271.044L309.69 272.104C309.97 272.274 310.21 272.464 310.41 272.674C309.81 273.484 309.09 274.174 308.3 274.624H308.29Z" fill="black"/>
<path d="M262.43 354.794L241.44 357.664L275.3 377.374L262.43 354.794Z" fill="white"/>
<path d="M262.8 262.704L262.41 354.834L241.41 357.634L242.73 255.554L262.8 262.704Z" fill="#F0F0F0"/>
<path d="M262.79 262.704L276.89 275.694L275.3 377.374L262.43 354.794L262.79 262.704Z" fill="white"/>
<path d="M364.02 299.304C364.02 298.834 363.6 298.454 363.15 298.464C362.68 298.464 362.3 298.864 362.31 299.334L362.69 325.574L276.19 375.874L277.74 276.204C277.84 276.144 360.78 226.964 360.95 226.874L362.08 283.234C362.08 283.704 362.48 284.084 362.95 284.074C363.42 284.074 363.8 283.674 363.79 283.204L362.63 225.404C362.63 225.404 362.63 225.354 362.63 225.334C362.63 225.194 362.57 225.064 362.5 224.944C362.47 224.884 362.43 224.844 362.38 224.794C362.38 224.784 362.36 224.774 362.35 224.764C362.31 224.724 362.27 224.694 362.22 224.674C362.2 224.664 362.19 224.654 362.18 224.644C362.18 224.644 362.16 224.644 362.15 224.634C362.14 224.634 362.12 224.614 362.11 224.604L339.18 214.804L328.08 204.964C327.8 204.714 327.4 204.674 327.08 204.864L314.19 212.464L314.25 192.034L317.94 189.864C318.2 189.714 318.36 189.424 318.36 189.124L318.42 168.494C318.42 168.164 318.22 167.874 317.99 167.744L298.8 156.534C298.4 156.294 297.87 156.434 297.63 156.844C297.39 157.244 297.53 157.774 297.94 158.014L315.87 168.494C311.45 171.094 152.83 264.414 140.09 271.894C140.09 271.894 140.07 271.874 140.06 271.874C140.06 271.874 140.03 271.854 140.03 271.844H140.01C139.02 271.264 128.88 265.334 45.9701 216.884L94.2801 188.474C97.8001 185.334 101.64 182.584 105.5 179.884L43.8501 216.154C43.6401 216.304 43.4201 216.514 43.4201 216.864C43.3901 229.074 43.3901 225.574 43.3701 237.514C43.3701 237.824 43.5201 238.104 43.7901 238.264L50.0201 241.904L49.8201 306.264C49.8201 306.564 49.9801 306.854 50.2501 307.004L64.3701 315.154C64.7801 315.394 65.3001 315.254 65.5401 314.844C65.7701 314.434 65.6301 313.914 65.2201 313.674L51.5401 305.764L51.7301 242.904L139.6 294.264C139.83 294.404 140.18 294.414 140.43 294.264L140.24 356.984L79.6601 322.014C79.2501 321.774 78.7301 321.924 78.4901 322.334C78.2501 322.734 78.3901 323.264 78.8001 323.504L140.65 359.214C140.79 359.294 140.93 359.324 141.08 359.324C141.23 359.324 141.38 359.294 141.51 359.214L241.28 300.894L240.55 357.634C240.55 357.834 240.72 358.254 241.01 358.414L274.86 378.114C275.14 378.274 275.47 378.264 275.72 378.114L363.96 326.804C364.23 326.644 364.39 326.364 364.39 326.054L364 299.314L364.02 299.304ZM139.17 292.014C60.9901 246.324 47.4001 238.374 45.5101 237.274C45.4901 237.274 45.4801 237.254 45.4701 237.244C45.4501 237.244 45.4301 237.214 45.4001 237.204L45.4301 237.234C45.4301 237.234 45.3801 237.204 45.3601 237.194C45.3601 237.174 45.3301 237.174 45.3201 237.164C45.3001 237.164 45.2901 237.144 45.2901 237.144C45.2301 237.114 45.1701 237.064 45.0901 237.024L45.1401 218.384C163.71 287.684 108.65 255.504 139.25 273.384L139.2 292.024L139.17 292.014ZM242.28 356.654L243.57 256.764L261.93 263.314C261.49 367.844 261.56 352.464 261.55 354.054C259.58 354.324 268.69 353.094 242.28 356.654ZM263.65 264.654L276.02 276.064L274.49 374.224L263.28 354.574C263.28 352.984 263.22 368.364 263.64 264.654H263.65ZM327.41 206.634L338.15 216.154C338.22 216.214 338.3 216.264 338.38 216.304L359.88 225.484C359.78 225.544 277.09 274.574 277 274.624L263.38 262.064C263.38 262.064 263.13 261.904 263.09 261.884L244.78 255.334L327.42 206.624L327.41 206.634ZM140.89 292.004L140.94 273.374C166.38 258.414 277.02 193.314 316.69 169.984L316.64 188.614C314.75 189.724 327.77 182.064 140.89 292.004ZM141.95 356.964C141.98 348.944 142.11 301.114 142.14 293.254L312.53 193.034L312.47 213.454L242.32 254.794C242.32 254.794 242.28 254.824 242.26 254.844C242.26 254.844 242.25 254.844 242.24 254.854C242.22 254.874 242.2 254.894 242.18 254.914C242.16 254.934 242.14 254.944 242.12 254.964C241.97 255.124 241.88 255.324 241.87 255.544L241.31 298.874L141.95 356.964ZM261.98 355.754L272.74 374.624L272.97 375.024L244.02 358.174C245.86 357.924 237.37 359.074 261.98 355.754Z" fill="#33AD43"/>
<path d="M297.51 236.104C297.51 233.064 299.55 229.474 302.15 227.944C304.77 226.274 307.78 227.504 307.78 231.114C307.78 234.174 305.71 237.764 303.07 239.284C300.27 240.904 297.51 239.624 297.51 236.104ZM303.04 229.404C300.96 230.634 299.22 233.694 299.22 236.104C299.22 238.254 300.49 238.794 302.21 237.794C304.3 236.594 306.06 233.534 306.06 231.114C306.06 228.954 304.63 228.394 303.04 229.404Z" fill="black"/>
<path d="M340.11 149.554L325.93 141.314L330.68 114.494L344.86 122.734L340.11 149.554Z" fill="white"/>
<path d="M342.76 6.98417C355.15 -0.165825 366.36 -0.835825 374.47 3.86417L388.65 12.1142C380.55 7.40417 369.34 8.07418 356.95 15.2242C332.34 29.4342 312.47 63.8542 312.55 92.1342C312.58 106.184 317.54 116.054 325.54 120.714L311.36 112.464C303.35 107.824 298.4 97.9342 298.36 83.8942C298.29 59.8442 312.65 31.3542 332.09 14.6242" fill="#F0F0F0"/>
<path d="M356.95 15.2242C381.56 1.01422 401.56 12.4142 401.64 40.6942C401.72 68.6142 382.34 102.544 358.15 117.054L340.11 149.554L344.86 122.734C326.25 127.314 312.61 115.454 312.55 92.1242C312.47 63.8442 332.34 29.4242 356.95 15.2142V15.2242Z" fill="white"/>
<path d="M389.08 11.3742C389.08 11.3742 389.04 11.3442 389.02 11.3342C389 11.3242 388.98 11.3142 388.97 11.3042L374.92 3.13417C366.18 -1.93583 354.62 -0.825826 342.36 6.25417C341.95 6.49417 341.81 7.01417 342.05 7.42417C342.29 7.83417 342.81 7.97417 343.22 7.73417C354.93 0.974174 365.88 -0.135825 374.07 4.61417L380.76 8.50417C380.32 8.44417 379.27 8.32417 378.41 8.28417C371.76 7.93417 364.3 10.0142 356.56 14.4842C331.76 28.8042 311.65 63.6342 311.73 92.1342C311.76 101.294 313.9 109.054 317.87 114.684C317.84 114.664 317.81 114.634 317.78 114.614C318.02 114.954 318.26 115.284 318.51 115.604L311.83 111.714C303.76 107.034 299.3 97.1542 299.26 83.8842C299.19 60.4842 312.94 32.2642 332.69 15.2742C333.05 14.9642 333.09 14.4242 332.78 14.0642C332.47 13.7042 331.93 13.6642 331.57 13.9742C311.47 31.2742 297.48 60.0242 297.55 83.8942C297.59 97.7942 302.36 108.204 310.97 113.204C325.26 121.514 325.98 122.074 328.34 122.984L325.12 141.164C325.06 141.514 325.22 141.874 325.53 142.054L339.71 150.294C340.11 150.524 340.65 150.404 340.89 149.964L358.82 117.664C383.02 103.024 402.61 68.5442 402.53 40.6842C402.49 26.7842 397.72 16.3742 389.11 11.3742H389.08ZM329.95 123.534C334.12 124.784 338.79 124.904 343.8 123.854L339.49 148.194L326.88 140.864L329.95 123.534ZM357.72 116.314C357.59 116.394 357.48 116.504 357.41 116.634L341.86 144.654L345.72 122.884C345.83 122.274 345.27 121.754 344.67 121.904C325.21 126.694 313.48 113.104 313.42 92.1242C313.34 64.1742 333.07 30.0042 357.39 15.9642C366.79 10.5342 375.7 8.76417 383.08 10.7342C384.97 11.2442 386.83 12.0542 388.21 12.8442C396.28 17.5242 400.75 27.4142 400.79 40.6842C400.87 68.0842 381.55 102.004 357.72 116.304V116.314Z" fill="#33AD43"/>
<path d="M359.08 36.1241L365.13 53.7841L384.32 42.7041L368.82 64.6541L374.87 82.3141L359.2 78.2341L343.63 100.344L349.54 75.7841L333.96 71.7841L353.17 60.6841L359.08 36.1241Z" fill="white"/>
<path d="M343.63 101.204C343.51 101.204 343.39 101.184 343.28 101.124C342.9 100.954 342.7 100.544 342.8 100.144L348.51 76.4041L333.75 72.6141C333.41 72.5241 333.16 72.2441 333.11 71.9041C333.06 71.5541 333.23 71.2241 333.53 71.0441L352.43 60.1341L358.25 35.9341C358.34 35.5641 358.66 35.2941 359.04 35.2741C359.41 35.2641 359.77 35.4941 359.89 35.8541L365.6 52.5241L383.89 41.9641C384.24 41.7641 384.68 41.8341 384.95 42.1241C385.22 42.4241 385.25 42.8641 385.02 43.1941L369.77 64.7841L375.68 82.0241C375.78 82.3241 375.71 82.6541 375.5 82.8841C375.29 83.1141 374.96 83.2141 374.66 83.1341L359.57 79.2041L344.34 100.834C344.18 101.064 343.91 101.194 343.64 101.194L343.63 101.204ZM336.21 71.4741L349.76 74.9541C350.21 75.0741 350.49 75.5341 350.38 75.9841L345.52 96.1841L358.51 77.7441C358.72 77.4541 359.08 77.3141 359.43 77.4041L373.55 81.0741L368.02 64.9241C367.93 64.6641 367.97 64.3741 368.13 64.1541L381.38 45.3941L365.57 54.5241C365.35 54.6541 365.08 54.6741 364.84 54.5841C364.6 54.4941 364.41 54.3041 364.33 54.0641L359.24 39.1941L354.02 60.8941C353.97 61.1241 353.82 61.3141 353.62 61.4341L336.22 71.4741H336.21Z" fill="black"/>
<path d="M338.72 239.894C338.25 239.894 337.86 239.514 337.86 239.034V215.514C337.86 215.044 338.24 214.654 338.72 214.654C339.2 214.654 339.58 215.034 339.58 215.514V239.034C339.58 239.504 339.2 239.894 338.72 239.894Z" fill="#33AD43"/>
</svg>
