<svg width="535" height="477" viewBox="0 0 535 477" fill="none" xmlns="http://www.w3.org/2000/svg">
<circle cx="218" cy="218" r="218" fill="#EEEEEE"/>
<path d="M253.821 164.986C253.631 164.986 253.452 164.878 253.368 164.699C253.264 164.478 253.335 164.214 253.536 164.075L264.406 156.562C251.652 153.195 243.16 144.27 243.16 134.09C243.16 120.942 257.503 110.245 275.133 110.245C292.766 110.245 307.111 120.942 307.111 134.09C307.111 145.822 295.399 155.964 279.867 157.679L253.955 164.968C253.911 164.98 253.866 164.986 253.821 164.986ZM275.135 111.245C258.056 111.245 244.162 121.493 244.162 134.09C244.162 144.081 252.824 152.829 265.716 155.858C265.908 155.903 266.056 156.058 266.093 156.252C266.13 156.446 266.049 156.644 265.886 156.756L256.57 163.195L279.678 156.701C294.782 155.026 306.112 145.312 306.112 134.09C306.112 121.493 292.216 111.245 275.135 111.245Z" fill="#201F33"/>
<path d="M407.595 170.716C407.536 170.716 407.477 170.706 407.418 170.684L370.008 156.574C349.855 154.324 334.665 141.169 334.665 125.955C334.665 108.886 353.311 95 376.228 95C399.145 95 417.791 108.886 417.791 125.955C417.791 139.369 406.464 151.066 389.494 155.308L407.903 169.824C408.096 169.977 408.15 170.248 408.029 170.463C407.939 170.623 407.77 170.716 407.595 170.716ZM376.228 96C353.861 96 335.665 109.438 335.665 125.955C335.665 140.674 350.504 153.413 370.181 155.586C370.223 155.591 370.264 155.601 370.303 155.615L404.747 168.607L388.066 155.454C387.915 155.335 387.845 155.14 387.887 154.952C387.93 154.764 388.075 154.617 388.263 154.574C405.326 150.657 416.791 139.155 416.791 125.954C416.792 109.438 398.595 96 376.228 96Z" fill="#201F33"/>
<path d="M226.53 341.951L247.196 465.55H240.973L207.311 341.951H226.53Z" fill="#424E60"/>
<path d="M126.665 341.951L106 465.55H112.223L145.884 341.951H126.665Z" fill="#424E60"/>
<path d="M112.797 303.34L106.231 236.185C105.104 224.66 114.16 214.675 125.74 214.675H168.365C178.204 214.675 186.519 221.969 187.8 231.725L196.621 298.88C198.163 310.619 189.025 321.035 177.186 321.035H132.307C122.219 321.035 113.779 313.38 112.797 303.34Z" fill="#979797"/>
<path d="M148.839 134.464C148.981 134.217 149.13 133.971 149.28 133.724C149.624 133.179 149.99 132.641 150.378 132.125C154.697 126.274 161.497 122.329 168.707 121.26C174.408 120.423 180.259 121.29 185.774 122.979C191.289 124.668 196.519 127.163 201.72 129.644C202.579 130.055 203.491 130.511 203.969 131.325C204.582 132.371 204.328 133.686 204.006 134.852C202.863 138.969 201.032 142.9 198.604 146.419L198.477 146.434C197.805 141.136 196.288 136.003 193.725 131.333C190.751 137.214 186.171 142.272 180.604 145.807C175.112 149.289 168.686 151.277 162.185 151.501C161.61 150.5 160.489 149.805 159.331 149.7C157.844 149.558 156.357 150.283 155.378 151.404C154.399 152.525 153.891 154.004 153.749 155.484C153.615 156.971 153.824 158.465 154.138 159.923C154.683 162.456 155.722 165.124 157.874 166.513L157.089 171.751C154.04 166.535 149.654 162.104 147.285 156.545C144.289 149.498 145.006 141.084 148.839 134.464Z" fill="#201F33"/>
<path d="M147.332 137.548C147.332 137.548 139.095 159.623 140.671 176.858C140.671 176.858 146.857 175.202 161.687 184.086C176.305 192.843 196.872 187.329 202.525 179.406C202.525 179.406 191.988 173.076 198.605 146.419C198.605 146.419 195.17 130.712 193.287 130.526C191.404 130.341 147.332 137.548 147.332 137.548Z" fill="#201F33"/>
<path d="M197.969 163.934C196.96 169.785 194.958 175.934 190.16 179.424C187.373 181.449 183.853 182.353 180.409 182.196L181.403 189.795C181.403 189.795 186.252 199.584 173.146 201.115C160.032 202.647 154.428 189.413 154.428 189.413L157.088 171.749L157.873 166.511C155.721 165.121 154.682 162.454 154.137 159.921C153.823 158.464 153.614 156.969 153.748 155.483C153.89 154.004 154.398 152.524 155.377 151.403C156.356 150.282 157.843 149.557 159.33 149.699C160.488 149.804 161.609 150.499 162.184 151.5C168.685 151.276 175.111 149.288 180.603 145.806C186.17 142.272 190.75 137.213 193.724 131.332C196.287 136.002 197.804 141.136 198.476 146.433C199.217 152.218 198.955 158.188 197.969 163.934Z" fill="#FFCDB7"/>
<path d="M180.181 182.026C174.572 182.165 169.026 179.47 165.675 174.967C165.389 174.582 164.762 174.989 165.05 175.376C168.565 180.099 174.341 182.917 180.228 182.771C180.709 182.76 180.662 182.014 180.181 182.026Z" fill="#201F33"/>
<path d="M191.165 164.49C190.776 160.193 190.388 155.896 189.999 151.599C189.956 151.121 189.21 151.165 189.253 151.646C189.638 155.9 190.022 160.153 190.407 164.407C188.933 164.874 187.426 165.222 185.894 165.435C185.421 165.501 185.463 166.247 185.941 166.181C187.594 165.951 189.225 165.58 190.812 165.065C190.964 165.016 191.034 164.903 191.05 164.781C191.127 164.718 191.176 164.622 191.165 164.49Z" fill="#201F33"/>
<path d="M180.387 171.842C181.653 169.333 181.247 166.576 179.48 165.684C177.714 164.793 175.255 166.104 173.989 168.614C172.723 171.123 173.128 173.88 174.895 174.771C176.662 175.663 179.121 174.351 180.387 171.842Z" fill="#F79A9A"/>
<path d="M173.057 164.562L183.757 171.175C183.757 171.175 179.356 175.711 175.171 172.729C170.979 169.755 173.057 164.562 173.057 164.562Z" fill="white"/>
<path d="M181.014 155.586C182.333 155.586 183.403 154.269 183.403 152.644C183.403 151.019 182.333 149.702 181.014 149.702C179.694 149.702 178.625 151.019 178.625 152.644C178.625 154.269 179.694 155.586 181.014 155.586Z" fill="#201F33"/>
<path d="M198.064 152.644C198.064 154.269 196.995 155.586 195.675 155.586C194.355 155.586 193.286 154.269 193.286 152.644C193.286 151.019 194.355 149.702 195.675 149.702C196.995 149.702 198.064 151.019 198.064 152.644Z" fill="#201F33"/>
<path d="M197.841 144.597C196.37 144.387 194.876 144.299 193.391 144.346C192.609 144.371 191.909 145.146 191.993 145.932C192.082 146.758 192.741 147.357 193.579 147.33C194.325 147.306 195.07 147.322 195.815 147.369C196.288 147.408 196.76 147.456 197.23 147.523C197.625 147.579 198.013 147.534 198.354 147.311C198.661 147.11 198.939 146.734 198.999 146.366C199.121 145.608 198.67 144.715 197.841 144.597Z" fill="#201F33"/>
<path d="M179.327 144.597C180.798 144.387 182.292 144.299 183.777 144.346C184.559 144.371 185.259 145.146 185.175 145.932C185.086 146.758 184.427 147.357 183.589 147.33C182.843 147.306 182.098 147.322 181.353 147.369C180.88 147.408 180.408 147.456 179.938 147.523C179.543 147.579 179.155 147.534 178.814 147.311C178.507 147.11 178.229 146.734 178.169 146.366C178.046 145.608 178.498 144.715 179.327 144.597Z" fill="#201F33"/>
<path d="M261.408 240.061L260.414 253.929L260.369 254.572L207.742 261.499L212.173 286.15C207.555 290.566 200.927 293.151 193.507 294.526C193.5 294.526 193.5 294.526 193.5 294.526C169.634 298.95 137.533 290.857 137.533 290.857C137.398 275.068 147.643 253.324 147.643 253.324C147.643 253.324 127.147 214.588 132.063 202.573C136.98 190.558 154.427 189.414 154.427 189.414C154.427 189.414 160.031 202.647 173.145 201.115C186.251 199.583 181.402 189.795 181.402 189.795C181.402 189.795 191.37 187.927 198.327 189.795C205.284 191.671 211 210.568 211 210.568L213.077 210.157L214.355 212.01L222.866 224.324L226.161 229.091L213.286 237.677L261.616 237.124L261.408 240.061Z" fill="#33AD43"/>
<mask id="mask0_3157_159" style="mask-type:luminance" maskUnits="userSpaceOnUse" x="131" y="188" width="131" height="108">
<path d="M261.408 240.061L260.414 253.929L260.369 254.572L207.742 261.499L212.173 286.15C207.555 290.566 200.927 293.151 193.507 294.526C193.5 294.526 193.5 294.526 193.5 294.526C169.634 298.95 137.533 290.857 137.533 290.857C137.398 275.068 147.643 253.324 147.643 253.324C147.643 253.324 127.147 214.588 132.063 202.573C136.98 190.558 154.427 189.414 154.427 189.414C154.427 189.414 160.031 202.647 173.145 201.115C186.251 199.583 181.402 189.795 181.402 189.795C181.402 189.795 191.37 187.927 198.327 189.795C205.284 191.671 211 210.568 211 210.568L213.077 210.157L214.355 212.01L222.866 224.324L226.161 229.091L213.286 237.677L261.616 237.124L261.408 240.061Z" fill="white"/>
</mask>
<g mask="url(#mask0_3157_159)">
<path d="M218.594 190.308C205.754 191.219 192.922 192.245 180.1 193.39C167.279 194.535 154.468 195.796 141.669 197.175C134.408 197.957 127.152 198.777 119.9 199.634C117.999 199.858 118.17 202.844 120.088 202.618C132.872 201.108 145.668 199.713 158.477 198.435C171.286 197.158 184.107 195.997 196.937 194.954C204.216 194.362 211.497 193.809 218.782 193.292C220.698 193.156 220.519 190.172 218.594 190.308Z" fill="#33AD43"/>
</g>
<mask id="mask1_3157_159" style="mask-type:luminance" maskUnits="userSpaceOnUse" x="131" y="188" width="131" height="108">
<path d="M261.408 240.061L260.414 253.929L260.369 254.572L207.742 261.499L212.173 286.15C207.555 290.566 200.927 293.151 193.507 294.526C193.5 294.526 193.5 294.526 193.5 294.526C169.634 298.95 137.533 290.857 137.533 290.857C137.398 275.068 147.643 253.324 147.643 253.324C147.643 253.324 127.147 214.588 132.063 202.573C136.98 190.558 154.427 189.414 154.427 189.414C154.427 189.414 160.031 202.647 173.145 201.115C186.251 199.583 181.402 189.795 181.402 189.795C181.402 189.795 191.37 187.927 198.327 189.795C205.284 191.671 211 210.568 211 210.568L213.077 210.157L214.355 212.01L222.866 224.324L226.161 229.091L213.286 237.677L261.616 237.124L261.408 240.061Z" fill="white"/>
</mask>
<g mask="url(#mask1_3157_159)">
<path d="M221.532 196.754C207.858 198.592 194.204 200.581 180.574 202.725C166.944 204.869 153.339 207.165 139.761 209.615C132.123 210.993 124.495 212.42 116.875 213.893C116.083 214.046 115.423 214.6 115.477 215.479C115.522 216.205 116.265 217.031 117.063 216.877C130.609 214.258 144.184 211.788 157.786 209.472C171.388 207.156 185.015 204.993 198.665 202.984C206.343 201.854 214.029 200.773 221.72 199.739C223.614 199.483 223.446 196.497 221.532 196.754Z" fill="#33AD43"/>
</g>
<mask id="mask2_3157_159" style="mask-type:luminance" maskUnits="userSpaceOnUse" x="131" y="188" width="131" height="108">
<path d="M261.408 240.061L260.414 253.929L260.369 254.572L207.742 261.499L212.173 286.15C207.555 290.566 200.927 293.151 193.507 294.526C193.5 294.526 193.5 294.526 193.5 294.526C169.634 298.95 137.533 290.857 137.533 290.857C137.398 275.068 147.643 253.324 147.643 253.324C147.643 253.324 127.147 214.588 132.063 202.573C136.98 190.558 154.427 189.414 154.427 189.414C154.427 189.414 160.031 202.647 173.145 201.115C186.251 199.583 181.402 189.795 181.402 189.795C181.402 189.795 191.37 187.927 198.327 189.795C205.284 191.671 211 210.568 211 210.568L213.077 210.157L214.355 212.01L222.866 224.324L226.161 229.091L213.286 237.677L261.616 237.124L261.408 240.061Z" fill="white"/>
</mask>
<g mask="url(#mask2_3157_159)">
<path d="M237.521 212.96C222.134 213.853 206.746 214.747 191.359 215.64C176.096 216.526 160.833 217.412 145.569 218.298C136.883 218.802 128.196 219.306 119.51 219.811C117.592 219.922 117.772 222.907 119.698 222.795C135.085 221.902 150.473 221.008 165.86 220.115C181.123 219.229 196.386 218.343 211.65 217.457L237.709 215.944C239.627 215.832 239.447 212.848 237.521 212.96Z" fill="#33AD43"/>
</g>
<mask id="mask3_3157_159" style="mask-type:luminance" maskUnits="userSpaceOnUse" x="131" y="188" width="131" height="108">
<path d="M261.408 240.061L260.414 253.929L260.369 254.572L207.742 261.499L212.173 286.15C207.555 290.566 200.927 293.151 193.507 294.526C193.5 294.526 193.5 294.526 193.5 294.526C169.634 298.95 137.533 290.857 137.533 290.857C137.398 275.068 147.643 253.324 147.643 253.324C147.643 253.324 127.147 214.588 132.063 202.573C136.98 190.558 154.427 189.414 154.427 189.414C154.427 189.414 160.031 202.647 173.145 201.115C186.251 199.583 181.402 189.795 181.402 189.795C181.402 189.795 191.37 187.927 198.327 189.795C205.284 191.671 211 210.568 211 210.568L213.077 210.157L214.355 212.01L222.866 224.324L226.161 229.091L213.286 237.677L261.616 237.124L261.408 240.061Z" fill="white"/>
</mask>
<g mask="url(#mask3_3157_159)">
<path d="M243.325 221.834C227.148 223.05 210.995 224.567 194.875 226.39C178.756 228.213 162.671 230.34 146.631 232.77C137.639 234.132 128.662 235.59 119.701 237.141C118.906 237.279 118.249 237.859 118.303 238.727C118.349 239.466 119.089 240.263 119.889 240.125C135.874 237.359 151.91 234.89 167.987 232.727C184.064 230.563 200.182 228.703 216.33 227.148C225.382 226.276 234.444 225.501 243.513 224.819C245.427 224.673 245.25 221.689 243.325 221.834Z" fill="#33AD43"/>
</g>
<mask id="mask4_3157_159" style="mask-type:luminance" maskUnits="userSpaceOnUse" x="131" y="188" width="131" height="108">
<path d="M261.408 240.061L260.414 253.929L260.369 254.572L207.742 261.499L212.173 286.15C207.555 290.566 200.927 293.151 193.507 294.526C193.5 294.526 193.5 294.526 193.5 294.526C169.634 298.95 137.533 290.857 137.533 290.857C137.398 275.068 147.643 253.324 147.643 253.324C147.643 253.324 127.147 214.588 132.063 202.573C136.98 190.558 154.427 189.414 154.427 189.414C154.427 189.414 160.031 202.647 173.145 201.115C186.251 199.583 181.402 189.795 181.402 189.795C181.402 189.795 191.37 187.927 198.327 189.795C205.284 191.671 211 210.568 211 210.568L213.077 210.157L214.355 212.01L222.866 224.324L226.161 229.091L213.286 237.677L261.616 237.124L261.408 240.061Z" fill="white"/>
</mask>
<g mask="url(#mask4_3157_159)">
<path d="M276.958 238.225C256.992 240.138 236.989 241.668 216.964 242.809C196.939 243.95 176.892 244.704 156.838 245.07C145.573 245.275 134.306 245.357 123.039 245.319C121.117 245.312 121.307 248.296 123.227 248.303C143.285 248.371 163.343 248.055 183.388 247.349C203.433 246.643 223.465 245.55 243.467 244.069C254.703 243.237 265.93 242.282 277.146 241.208C279.055 241.026 278.88 238.041 276.958 238.225Z" fill="#33AD43"/>
</g>
<mask id="mask5_3157_159" style="mask-type:luminance" maskUnits="userSpaceOnUse" x="131" y="188" width="131" height="108">
<path d="M261.408 240.061L260.414 253.929L260.369 254.572L207.742 261.499L212.173 286.15C207.555 290.566 200.927 293.151 193.507 294.526C193.5 294.526 193.5 294.526 193.5 294.526C169.634 298.95 137.533 290.857 137.533 290.857C137.398 275.068 147.643 253.324 147.643 253.324C147.643 253.324 127.147 214.588 132.063 202.573C136.98 190.558 154.427 189.414 154.427 189.414C154.427 189.414 160.031 202.647 173.145 201.115C186.251 199.583 181.402 189.795 181.402 189.795C181.402 189.795 191.37 187.927 198.327 189.795C205.284 191.671 211 210.568 211 210.568L213.077 210.157L214.355 212.01L222.866 224.324L226.161 229.091L213.286 237.677L261.616 237.124L261.408 240.061Z" fill="white"/>
</mask>
<g mask="url(#mask5_3157_159)">
<path d="M265.104 246.385C247.364 248.018 229.654 249.969 211.985 252.241C194.377 254.506 176.81 257.089 159.295 259.989C149.416 261.624 139.555 263.362 129.712 265.197C128.919 265.345 128.26 265.907 128.314 266.783C128.36 267.513 129.102 268.33 129.9 268.181C147.413 264.916 164.984 261.964 182.603 259.334C200.161 256.713 217.767 254.409 235.409 252.424C245.359 251.304 255.321 250.287 265.292 249.369C267.202 249.193 267.027 246.208 265.104 246.385Z" fill="#33AD43"/>
</g>
<mask id="mask6_3157_159" style="mask-type:luminance" maskUnits="userSpaceOnUse" x="131" y="188" width="131" height="108">
<path d="M261.408 240.061L260.414 253.929L260.369 254.572L207.742 261.499L212.173 286.15C207.555 290.566 200.927 293.151 193.507 294.526C193.5 294.526 193.5 294.526 193.5 294.526C169.634 298.95 137.533 290.857 137.533 290.857C137.398 275.068 147.643 253.324 147.643 253.324C147.643 253.324 127.147 214.588 132.063 202.573C136.98 190.558 154.427 189.414 154.427 189.414C154.427 189.414 160.031 202.647 173.145 201.115C186.251 199.583 181.402 189.795 181.402 189.795C181.402 189.795 191.37 187.927 198.327 189.795C205.284 191.671 211 210.568 211 210.568L213.077 210.157L214.355 212.01L222.866 224.324L226.161 229.091L213.286 237.677L261.616 237.124L261.408 240.061Z" fill="white"/>
</mask>
<g mask="url(#mask6_3157_159)">
<path d="M231.471 269.536L146.481 269.429C138.529 269.419 130.576 269.409 122.624 269.399C120.702 269.397 120.892 272.38 122.812 272.383L207.802 272.49C215.754 272.5 223.707 272.51 231.659 272.52C233.581 272.522 233.391 269.538 231.471 269.536Z" fill="#33AD43"/>
</g>
<mask id="mask7_3157_159" style="mask-type:luminance" maskUnits="userSpaceOnUse" x="131" y="188" width="131" height="108">
<path d="M261.408 240.061L260.414 253.929L260.369 254.572L207.742 261.499L212.173 286.15C207.555 290.566 200.927 293.151 193.507 294.526C193.5 294.526 193.5 294.526 193.5 294.526C169.634 298.95 137.533 290.857 137.533 290.857C137.398 275.068 147.643 253.324 147.643 253.324C147.643 253.324 127.147 214.588 132.063 202.573C136.98 190.558 154.427 189.414 154.427 189.414C154.427 189.414 160.031 202.647 173.145 201.115C186.251 199.583 181.402 189.795 181.402 189.795C181.402 189.795 191.37 187.927 198.327 189.795C205.284 191.671 211 210.568 211 210.568L213.077 210.157L214.355 212.01L222.866 224.324L226.161 229.091L213.286 237.677L261.616 237.124L261.408 240.061Z" fill="white"/>
</mask>
<g mask="url(#mask7_3157_159)">
<path d="M229.229 275.598C214.456 277.375 199.714 279.417 185.016 281.731C170.378 284.035 155.781 286.606 141.237 289.442C132.996 291.049 124.772 292.737 116.565 294.51C115.776 294.68 115.386 295.697 115.622 296.402C115.901 297.236 116.722 297.516 117.514 297.345C131.932 294.23 146.406 291.375 160.928 288.788C175.456 286.2 190.032 283.875 204.645 281.815C212.891 280.653 221.15 279.576 229.418 278.582C231.317 278.353 231.146 275.368 229.229 275.598Z" fill="#33AD43"/>
</g>
<path d="M212.275 237.69C203.402 243.896 194.528 250.103 185.506 256.091C181.049 259.049 176.582 262.023 171.994 264.776C169.891 266.038 167.659 267.219 165.23 267.694C162.932 268.143 160.621 267.809 158.53 266.763C153.65 264.322 151.1 259.234 148.794 254.563C148.581 254.132 147.958 254.546 148.169 254.972C150.295 259.279 152.57 263.766 156.663 266.532C158.475 267.756 160.568 268.552 162.765 268.64C165.227 268.738 167.609 267.924 169.789 266.847C172.126 265.692 174.311 264.231 176.508 262.834C178.844 261.35 181.167 259.846 183.479 258.326C188.105 255.286 192.689 252.184 197.251 249.048C202.415 245.499 207.549 241.907 212.684 238.316C213.078 238.04 212.67 237.414 212.275 237.69Z" fill="#201F33"/>
<path d="M210.269 210.975C207.989 212.487 205.701 213.988 203.408 215.481C203.4 215.446 203.395 215.411 203.376 215.375C200.865 210.712 198.025 206.232 194.879 201.971C194.594 201.585 193.967 201.992 194.254 202.38C197.4 206.641 200.24 211.12 202.751 215.784C202.77 215.819 202.795 215.841 202.819 215.865C195.618 220.544 188.354 225.126 181.026 229.605C178.404 231.208 175.772 232.796 173.134 234.373C169.542 227.45 165.95 220.527 162.357 213.605C162.135 213.178 161.512 213.591 161.732 214.014C165.349 220.985 168.966 227.955 172.583 234.926C172.594 235.037 172.653 235.144 172.746 235.213C172.907 235.43 173.193 235.341 173.317 235.135C183.185 229.238 192.946 223.162 202.591 216.906C205.296 215.151 207.992 213.382 210.678 211.6C211.08 211.334 210.671 210.708 210.269 210.975Z" fill="#201F33"/>
<path d="M209.732 240.188C209.889 239.735 209.156 239.586 209.001 240.035C207.966 243.028 206.658 245.92 205.115 248.685C204.956 248.719 204.826 248.839 204.858 249.05C205.478 253.098 206.318 257.11 207.376 261.066C207.5 261.531 208.209 261.293 208.085 260.829C207.067 257.022 206.255 253.165 205.649 249.271C207.285 246.372 208.645 243.333 209.732 240.188Z" fill="#201F33"/>
<path d="M249.079 465.55H218.204L213.975 444.501L211.898 465.55H207.885L204.433 432.65L229.069 431.895L230.593 448.169C240.777 450.905 249.079 465.55 249.079 465.55Z" fill="#33AD43"/>
<path d="M192.365 414.881L182.509 427.135C187.904 436.191 183.667 452.488 183.667 452.488L161.512 430.975L173.139 412.93L156.992 426.589L154.108 423.787L172.512 400.362L192.365 414.881Z" fill="#33AD43"/>
<path d="M192.365 414.881L172.511 400.363L171.323 399.496L194.816 354.416L199.531 406.834L193.762 415.905L192.365 414.881Z" fill="#201F33"/>
<path d="M240.912 307.886C242.055 313.602 231.138 360.438 231.138 360.438H231.108C231.287 336.041 230.63 314.14 227.828 311.42C221.252 305.054 194.121 294.757 193.508 294.525C200.928 293.15 207.556 290.565 212.174 286.149C212.174 286.149 239.769 302.178 240.912 307.886Z" fill="#201F33"/>
<path d="M199.531 406.834L194.816 354.416L193.135 335.721C120.953 340.399 137.534 290.858 137.534 290.858C137.534 290.858 169.635 298.95 193.501 294.527C193.501 294.527 193.501 294.527 193.508 294.527C194.121 294.759 221.252 305.055 227.828 311.422C230.63 314.142 231.288 336.043 231.108 360.44C230.869 393.833 229.068 431.897 229.068 431.897L204.432 432.652L201.862 432.734L199.531 406.834Z" fill="#201F33"/>
<path d="M196.683 385.821C196.356 379.125 196.028 372.428 195.701 365.732C195.516 361.95 195.331 358.168 195.146 354.386C195.123 353.906 194.376 353.952 194.4 354.433C194.727 361.129 195.055 367.825 195.382 374.522C195.709 381.218 196.037 387.914 196.364 394.611C196.549 398.393 196.734 402.175 196.919 405.957C196.943 406.437 197.688 406.391 197.665 405.91C197.338 399.213 197.01 392.517 196.683 385.821Z" fill="white"/>
<path d="M229.515 306.673C227.72 305.036 225.392 304.157 223.112 303.43C220.272 302.525 217.406 301.696 214.547 300.853C207.927 298.902 201.285 297.027 194.622 295.227C194.157 295.102 194.006 295.833 194.469 295.958C200.299 297.533 206.113 299.165 211.911 300.855C214.81 301.7 217.704 302.56 220.594 303.435C222.982 304.158 225.458 304.821 227.594 306.154C229.669 307.45 231.022 309.412 231.656 311.758C232.28 314.067 232.272 316.511 232.189 318.884C231.98 324.88 231.675 330.874 231.416 336.869C231.122 343.691 230.827 350.514 230.533 357.336C230.512 357.815 231.258 357.766 231.279 357.289L232.884 320.076C233.083 315.472 233.223 310.054 229.515 306.673Z" fill="white"/>
<path d="M246.86 213.998L246.867 214.215C249.751 214.394 252.591 215.194 255.139 216.554C255.438 216.711 255.774 216.95 255.752 217.286C255.73 217.704 255.214 217.876 254.796 217.929C251.628 218.37 248.415 218.587 245.209 218.587V218.669C246.726 218.878 248.183 219.491 249.401 220.418C249.842 220.762 250.298 221.292 250.096 221.823C249.887 222.368 249.155 222.436 248.564 222.406C239.926 222.032 231.049 221.584 222.867 224.326L214.356 212.012C218.862 205.235 223.554 198.525 229.263 192.734C229.637 192.353 230.212 191.957 230.645 192.271C231.034 192.562 230.892 193.168 230.72 193.623C229.151 197.673 227.589 201.723 226.027 205.773L226.087 205.795C233.933 204.562 241.958 204.069 249.826 205.167C250.252 205.227 250.693 205.294 251.059 205.518C251.425 205.742 251.709 206.168 251.634 206.594C251.529 207.184 250.857 207.468 250.274 207.633C247.92 208.313 245.514 208.858 243.093 209.254L243.13 209.478C246.56 209.411 250.012 210.001 253.225 211.219C253.584 211.353 253.942 211.503 254.219 211.764C254.495 212.026 254.667 212.437 254.548 212.795C254.361 213.348 253.666 213.505 253.083 213.565C251.022 213.781 248.945 213.923 246.86 213.998Z" fill="#FFCDB7"/>
<path d="M243.278 209.006L235.019 209.703C234.541 209.743 234.585 210.49 235.066 210.449L243.325 209.752C243.803 209.712 243.759 208.966 243.278 209.006Z" fill="#201F33"/>
<path d="M246.858 213.929C243.727 213.758 240.595 213.586 237.464 213.415C236.985 213.389 237.035 214.135 237.511 214.161C240.642 214.332 243.774 214.504 246.905 214.675C247.384 214.701 247.334 213.955 246.858 213.929Z" fill="#201F33"/>
<path d="M245.766 218.309C243.983 218.082 242.201 217.854 240.418 217.627C239.944 217.567 239.787 218.297 240.265 218.358C242.048 218.585 243.83 218.813 245.613 219.04C246.087 219.101 246.244 218.37 245.766 218.309Z" fill="#201F33"/>
<path d="M288.958 243.072C291.05 243.378 293.135 243.685 295.235 243.991C295.833 244.081 296.453 244.17 296.969 244.499C297.485 244.828 297.858 245.455 297.694 246.046C297.485 246.786 296.611 247.077 295.856 247.234C292.748 247.899 289.594 248.332 286.426 248.527C289.564 248.639 292.673 249.304 295.579 250.485C296.364 250.799 297.268 251.404 297.118 252.233C296.969 253.01 295.997 253.279 295.205 253.369C291.073 253.832 286.881 253.758 282.771 253.16C284.572 253.698 286.305 254.483 287.904 255.476C288.248 255.685 288.621 255.969 288.644 256.373C288.674 256.963 287.957 257.277 287.374 257.359C286.074 257.538 284.751 257.404 283.444 257.254C275.733 256.402 268.051 255.296 260.415 253.929L261.409 240.061C265.347 236.96 269.434 234.053 273.656 231.348C274.037 231.109 274.433 230.855 274.874 230.758C275.322 230.661 275.83 230.743 276.137 231.079C276.443 231.415 276.481 231.923 276.354 232.357C276.219 232.783 275.943 233.157 275.667 233.508C274.075 235.578 272.349 237.543 270.511 239.396C277.206 238.44 284.058 238.537 290.716 239.695C291.344 239.807 292.113 240.069 292.181 240.704C292.226 241.197 291.8 241.593 291.389 241.87C290.639 242.385 289.818 242.788 288.958 243.072Z" fill="#FFCDB7"/>
<path d="M283.362 252.902C281.75 252.584 280.138 252.265 278.526 251.947C278.055 251.854 277.9 252.585 278.373 252.678C279.985 252.996 281.597 253.315 283.209 253.633C283.68 253.727 283.835 252.996 283.362 252.902Z" fill="#201F33"/>
<path d="M287.072 248.43C284.741 248.424 282.41 248.419 280.078 248.413C279.597 248.412 279.645 249.158 280.125 249.159C282.456 249.165 284.787 249.17 287.119 249.176C287.6 249.177 287.552 248.431 287.072 248.43Z" fill="#201F33"/>
<path d="M289.288 243.061C286.15 243.285 283.012 243.509 279.875 243.733C279.789 243.739 279.725 243.773 279.673 243.817C279.626 243.237 279.565 242.657 279.475 242.08C279.401 241.609 278.654 241.651 278.729 242.127C279.187 245.047 279.077 248.013 278.398 250.89C278.288 251.358 279.019 251.511 279.129 251.043C279.64 248.875 279.837 246.647 279.718 244.429C279.774 244.462 279.839 244.484 279.922 244.478C283.06 244.254 286.197 244.03 289.335 243.806C289.814 243.773 289.77 243.027 289.288 243.061Z" fill="#201F33"/>
<path d="M155.019 147.544H160.316C160.316 147.544 160.31 121.672 180.566 121.672C180.566 121.672 158.758 114.17 155.019 147.544Z" fill="#A1AFB7"/>
<path d="M156.303 167.572C160.683 167.572 164.234 162.248 164.234 155.68C164.234 149.112 160.683 143.788 156.303 143.788C151.923 143.788 148.372 149.112 148.372 155.68C148.372 162.248 151.923 167.572 156.303 167.572Z" fill="#33AD43"/>
<path d="M156.303 143.788C157.623 143.546 159.065 143.938 160.262 144.678C161.459 145.434 162.444 146.501 163.184 147.693C164.69 150.083 165.325 152.909 165.354 155.68C165.329 158.452 164.693 161.279 163.187 163.669C162.446 164.861 161.461 165.929 160.263 166.685C159.065 167.424 157.623 167.816 156.302 167.572C157.614 167.307 158.723 166.672 159.591 165.813C160.475 164.971 161.135 163.924 161.655 162.825C162.666 160.597 163.088 158.133 163.113 155.68C163.091 153.227 162.668 150.762 161.658 148.533C161.138 147.434 160.478 146.386 159.593 145.544C158.724 144.686 157.616 144.051 156.303 143.788Z" fill="#A1AFB7"/>
<path d="M152.89 162.181C155.586 162.181 157.771 158.995 157.771 155.064C157.771 151.133 155.586 147.947 152.89 147.947C150.194 147.947 148.009 151.133 148.009 155.064C148.009 158.995 150.194 162.181 152.89 162.181Z" fill="#A1AFB7"/>
<path d="M159.995 147.519C159.083 146.201 157.86 145.106 156.392 144.447C155.954 144.25 155.611 144.915 156.05 145.112C158.663 146.285 160.268 148.815 160.951 151.52C161.707 154.517 161.66 157.979 160.696 160.922C160.182 162.489 159.334 163.935 158.159 165.096C157.816 165.435 158.372 165.934 158.713 165.597C161.045 163.293 161.997 160.048 162.152 156.845C162.306 153.65 161.854 150.204 159.995 147.519Z" fill="#201F33"/>
<path d="M194.189 347.442H143.758C128.683 347.442 116.053 336.032 114.528 321.034L109.737 273.938C109.737 273.938 194.189 255.976 194.189 347.442Z" fill="#BFBFBF"/>
<path d="M171.854 294.829C167.702 290.412 162.777 286.726 157.306 284.103C151.626 281.379 145.471 279.775 139.257 278.852C132.082 277.787 124.811 277.589 117.568 277.544C116.925 277.54 116.989 278.538 117.631 278.542C130.095 278.619 143.047 279.098 154.691 284.02C165.796 288.715 174.583 297.564 180.035 308.238C183.332 314.694 185.41 321.744 186.44 328.908C186.531 329.54 187.53 329.484 187.438 328.845C185.634 316.296 180.602 304.138 171.854 294.829Z" fill="#201F33"/>
<path d="M412.138 343.789L391.472 467.388H397.695L431.357 343.789H412.138Z" fill="#424E60"/>
<path d="M512.003 343.789L532.668 467.388H526.445L492.784 343.789H512.003Z" fill="#424E60"/>
<path d="M525.871 305.178L532.437 238.023C533.564 226.498 524.508 216.513 512.928 216.513H470.303C460.464 216.513 452.149 223.807 450.868 233.563L442.047 300.718C440.505 312.457 449.643 322.873 461.482 322.873H506.361C516.449 322.873 524.889 315.218 525.871 305.178Z" fill="#979797"/>
<path d="M432.537 450.905L433.195 468.943L371.153 476.834C369.285 464.512 401.998 450.905 401.998 450.905H432.537Z" fill="#201F33"/>
<path d="M366.169 452.877L354.124 469.914L310.225 442.214C310.225 442.214 315.343 428.831 341.549 439.786L366.169 452.877Z" fill="#201F33"/>
<path d="M509.777 301.52C513.012 324.437 496.095 331.88 496.095 331.88L424.436 349.955L432.536 450.905H401.997C401.997 450.905 398.351 434.952 394.278 415.046L366.168 452.878L341.547 439.787L385.73 368.629C383.705 355.381 382.644 344.591 383.615 340.294C385.349 332.65 404.216 319.521 422.441 308.403L434.994 287.81C434.994 287.81 444.768 287.75 457.411 288.624C457.419 288.624 457.419 288.624 457.419 288.624C475.936 289.901 500.601 293.174 509.777 301.52Z" fill="#33AD43"/>
<path d="M447.749 292.175L428.01 304.586L422.427 308.097C422.019 308.353 422.429 308.978 422.836 308.722L442.575 296.311L448.158 292.8C448.566 292.543 448.157 291.918 447.749 292.175Z" fill="#201F33"/>
<path d="M424.176 347.871C422.948 345.157 421.55 342.523 419.982 339.99C419.728 339.58 419.104 339.99 419.357 340.399C420.891 342.878 422.266 345.452 423.468 348.108C423.664 348.542 424.375 348.31 424.176 347.871Z" fill="#201F33"/>
<path d="M422.721 349.059C420.208 347.854 417.696 346.649 415.183 345.444C414.75 345.236 414.407 345.9 414.841 346.109L422.378 349.724C422.813 349.931 423.155 349.267 422.721 349.059Z" fill="#201F33"/>
<path d="M388.448 379.473C387.8 376.165 387.126 372.863 386.426 369.566C386.326 369.097 385.618 369.337 385.717 369.803C388.166 381.341 390.294 392.947 392.093 404.604C392.598 407.875 393.077 411.149 393.53 414.427C393.595 414.9 394.342 414.858 394.276 414.38C392.658 402.693 390.715 391.052 388.448 379.473Z" fill="#201F33"/>
<path d="M492.728 295.688C492.492 295.268 491.868 295.679 492.103 296.097C495.415 302.004 493.185 309.377 489.027 314.249C484.302 319.785 477.027 322.354 470.223 324.242C462.099 326.497 453.886 328.465 445.719 330.559C437.158 332.754 428.597 334.949 420.036 337.145C417.674 337.751 415.313 338.356 412.951 338.962C411.237 339.402 409.392 339.817 408.02 341.008C406.969 341.921 406.463 343.187 406.743 344.568C406.85 345.095 407.074 345.577 407.389 345.967C405.577 346.232 403.925 347.671 403.801 349.602C403.635 352.189 406.39 354.192 408.804 353.645C410.822 365.849 412.618 378.089 414.183 390.359C415.767 402.78 417.117 415.23 418.233 427.701C418.86 434.713 419.412 441.732 419.892 448.755C419.925 449.234 420.671 449.189 420.638 448.708C419.785 436.216 418.7 423.74 417.379 411.289C416.058 398.838 414.503 386.411 412.715 374.019C411.71 367.051 410.629 360.094 409.478 353.149C409.44 352.92 409.233 352.729 408.986 352.818C407.007 353.531 404.481 351.933 404.538 349.745C404.586 347.902 406.494 346.493 408.259 346.661C408.548 346.795 408.869 346.877 409.225 346.883C409.584 346.89 409.712 346.312 409.372 346.178C409.072 346.059 408.761 345.984 408.448 345.946C407.538 345.44 407.247 344.04 407.499 343.07C407.928 341.418 409.823 340.635 411.292 340.183C415.207 338.979 419.257 338.115 423.224 337.097C431.588 334.952 439.953 332.807 448.317 330.663L460.716 327.484C464.542 326.503 468.39 325.579 472.179 324.46C478.631 322.554 485.398 319.823 489.796 314.494C494.038 309.353 496.156 301.802 492.728 295.688Z" fill="#201F33"/>
<path d="M514.208 186.717C519.05 196.483 510.464 245.292 510.464 245.292L509.777 301.52C500.601 293.174 475.935 289.901 457.419 288.623C457.419 288.623 457.419 288.623 457.411 288.623C444.768 287.749 434.994 287.809 434.994 287.809L418.787 271.609L437.901 258.174C429.173 256.582 394.278 232.141 394.278 232.141L396.692 228.801L405.741 216.3L406.608 215.104L432.014 230.474C432.014 230.474 431.327 212.13 433.591 198.074C435.863 184.019 454.147 177.989 454.147 177.989L453.826 183.362C453.826 183.362 456.531 195.146 458.19 199.248L461.62 185.439L478.858 169.023L477.939 165.728C484.036 164.816 485.68 172.842 485.68 172.842C485.68 172.842 509.359 176.951 514.208 186.717Z" fill="white"/>
<path d="M442.928 207.303C441.831 213.573 440.93 219.877 440.231 226.203C439.535 232.502 439.036 238.823 438.736 245.153C438.565 248.76 438.459 252.37 438.417 255.98C438.411 256.46 439.157 256.412 439.163 255.933C439.238 249.571 439.509 243.212 439.986 236.867C440.459 230.581 441.129 224.31 441.995 218.066C442.487 214.52 443.043 210.982 443.66 207.455C443.742 206.984 443.011 206.829 442.928 207.303Z" fill="#201F33"/>
<path d="M483.337 202.266C477.856 212.846 472.374 223.426 466.893 234.006C465.351 236.982 463.81 239.957 462.268 242.933C462.263 242.943 462.264 242.951 462.26 242.961C462.253 242.965 462.246 242.965 462.239 242.969C455.879 247.056 449.519 251.143 443.16 255.231C441.335 256.404 439.511 257.576 437.686 258.749C437.281 259.009 437.69 259.635 438.095 259.374C444.455 255.287 450.815 251.199 457.175 247.112C458.999 245.939 460.824 244.767 462.649 243.594C462.722 243.547 462.761 243.486 462.786 243.422C462.843 243.39 462.895 243.347 462.933 243.275C468.414 232.695 473.896 222.115 479.377 211.534C480.919 208.558 482.46 205.583 484.002 202.607C484.223 202.18 483.558 201.839 483.337 202.266Z" fill="#201F33"/>
<path d="M511.19 209.434C509.226 216.868 507.262 224.321 504.599 231.542C502.173 238.12 499.158 244.522 495.167 250.303C491.205 256.042 486.274 260.914 480.529 264.862C474.741 268.84 468.415 271.94 462.09 274.955C454.918 278.374 447.74 281.781 440.564 285.194C439.666 285.621 438.768 286.048 437.87 286.475C437.441 286.679 437.673 287.39 438.107 287.184C445.46 283.687 452.812 280.19 460.165 276.693C466.541 273.66 472.961 270.646 478.916 266.829C484.828 263.04 490.066 258.411 494.293 252.787C498.472 247.226 501.683 240.997 504.245 234.546C507.111 227.33 509.199 219.84 511.191 212.346C511.435 211.427 511.678 210.507 511.921 209.588C512.045 209.121 511.313 208.97 511.19 209.434Z" fill="#201F33"/>
<path d="M485.728 173.613C483.096 181.26 478.913 188.363 473.523 194.39C472.188 195.882 470.768 197.294 469.294 198.648C468.366 193.801 465.959 189.306 462.388 185.885C462.04 185.551 461.54 186.107 461.887 186.439C465.45 189.853 467.85 194.398 468.662 199.265C468.489 199.503 468.721 199.792 468.993 199.8C469.196 199.854 469.425 199.756 469.446 199.529C475.462 194.102 480.387 187.483 483.86 180.162C484.847 178.08 485.71 175.943 486.46 173.764C486.615 173.313 485.882 173.164 485.728 173.613Z" fill="#201F33"/>
<path d="M453.463 184.581C450.958 187.178 449.216 190.443 448.42 193.955C446.99 190.204 446.89 185.992 448.251 182.198C448.411 181.751 447.748 181.405 447.586 181.856C446.038 186.17 446.2 190.993 448.101 195.172C448.236 195.47 448.609 195.449 448.768 195.268C448.859 195.226 448.932 195.147 448.956 195.017C449.618 191.28 451.384 187.814 454.019 185.082C454.352 184.735 453.796 184.235 453.463 184.581Z" fill="#201F33"/>
<path d="M405.342 228.444C405.304 227.663 404.551 226.961 403.756 227.046C402.941 227.133 402.318 227.795 402.358 228.632C402.445 230.433 402.532 232.233 402.62 234.034C402.658 234.815 403.411 235.517 404.206 235.432C405.021 235.344 405.644 234.683 405.604 233.846C405.517 232.045 405.429 230.244 405.342 228.444Z" fill="#D5E2E2"/>
<path d="M416.206 225.814C414.451 226.039 412.696 226.264 410.942 226.489C410.168 226.588 409.454 227.236 409.544 228.075C409.626 228.838 410.3 229.579 411.13 229.473C412.885 229.248 414.64 229.023 416.394 228.798C417.168 228.699 417.882 228.051 417.792 227.212C417.71 226.449 417.036 225.707 416.206 225.814Z" fill="#D5E2E2"/>
<path d="M415.491 239.146C415.323 238.586 415.184 238.019 415.065 237.447C414.905 236.577 414.798 235.699 414.754 234.815C414.715 234.034 413.963 233.332 413.168 233.417C412.354 233.504 411.729 234.166 411.77 235.003C411.856 236.725 412.161 238.444 412.656 240.095C412.881 240.845 413.811 241.321 414.548 241.038C415.323 240.74 415.732 239.948 415.491 239.146Z" fill="#D5E2E2"/>
<path d="M427.55 234.029C427.414 233.675 427.172 233.337 426.816 233.174C426.426 232.995 426.074 233.002 425.658 233.086C423.678 233.486 421.728 234.018 419.819 234.679C419.08 234.935 418.585 235.812 418.876 236.571C419.164 237.32 419.977 237.788 420.768 237.514C422.677 236.853 424.627 236.321 426.607 235.921C426.948 235.852 427.311 235.481 427.462 235.187C427.632 234.857 427.686 234.382 427.55 234.029Z" fill="#D5E2E2"/>
<path d="M425.92 247.026C425.415 245.456 424.91 243.885 424.405 242.315C424.166 241.57 423.261 241.085 422.513 241.372C421.75 241.665 421.314 242.467 421.57 243.264C422.075 244.834 422.58 246.405 423.084 247.975C423.323 248.72 424.228 249.205 424.976 248.918C425.74 248.624 426.176 247.822 425.92 247.026Z" fill="#D5E2E2"/>
<path d="M435.328 242.322C434.97 240.704 434.612 239.086 434.253 237.468C434.177 237.125 433.819 236.767 433.519 236.613C433.189 236.443 432.714 236.39 432.361 236.525C432.007 236.661 431.669 236.904 431.506 237.259C431.329 237.646 431.326 238.004 431.418 238.417C431.776 240.035 432.134 241.653 432.492 243.271C432.568 243.614 432.926 243.972 433.226 244.126C433.556 244.296 434.031 244.35 434.384 244.214C434.738 244.078 435.076 243.836 435.239 243.48C435.417 243.094 435.42 242.735 435.328 242.322Z" fill="#D5E2E2"/>
<path d="M439.311 222.624C439.086 222.31 438.759 222.043 438.366 221.979C437.989 221.918 437.559 221.955 437.242 222.191C436.626 222.651 436.041 223.165 435.522 223.733C435.002 224.303 434.547 224.936 434.143 225.593C433.949 225.908 433.941 226.41 434.055 226.751C434.169 227.092 434.457 227.454 434.789 227.606C435.146 227.77 435.57 227.839 435.947 227.694C436.326 227.548 436.589 227.307 436.802 226.96C436.855 226.873 436.913 226.789 436.969 226.704C437.427 226.062 437.957 225.477 438.549 224.955C438.658 224.866 438.766 224.776 438.879 224.691C439.198 224.452 439.44 224.146 439.524 223.746C439.598 223.389 439.529 222.927 439.311 222.624Z" fill="#D5E2E2"/>
<path d="M438.874 213.533C438.458 212.241 438.042 210.949 437.625 209.656C437.385 208.911 436.481 208.426 435.733 208.713C434.97 209.006 434.533 209.808 434.79 210.605C435.206 211.897 435.622 213.189 436.039 214.482C436.279 215.227 437.183 215.712 437.931 215.425C438.694 215.132 439.13 214.33 438.874 213.533Z" fill="#D5E2E2"/>
<path d="M444.43 197.694C443.962 197.041 443.056 196.798 442.361 197.262C441.169 198.059 439.976 198.855 438.784 199.652C438.463 199.866 438.218 200.218 438.139 200.597C438.064 200.956 438.134 201.418 438.351 201.721C438.819 202.374 439.725 202.617 440.42 202.153C441.612 201.356 442.805 200.56 443.997 199.763C444.318 199.549 444.562 199.197 444.642 198.818C444.718 198.459 444.648 197.997 444.43 197.694Z" fill="#D5E2E2"/>
<path d="M454.301 202.891C453.156 201.82 452.011 200.749 450.866 199.677C450.586 199.415 450.15 199.27 449.77 199.294C449.411 199.317 448.989 199.502 448.755 199.784C448.231 200.417 448.251 201.324 448.862 201.895L452.297 205.109C452.577 205.371 453.013 205.516 453.393 205.492C453.752 205.469 454.174 205.284 454.408 205.002C454.932 204.369 454.912 203.462 454.301 202.891Z" fill="#D5E2E2"/>
<path d="M453.285 214.006C452.315 212.576 451.345 211.145 450.374 209.715C449.935 209.067 448.969 208.807 448.305 209.283C447.656 209.749 447.404 210.661 447.873 211.352C448.843 212.782 449.813 214.213 450.784 215.643C451.223 216.291 452.189 216.551 452.853 216.075C453.501 215.609 453.753 214.697 453.285 214.006Z" fill="#D5E2E2"/>
<path d="M449.445 219.623C448.709 219.285 447.814 219.524 447.432 220.269C446.678 221.738 445.923 223.207 445.169 224.676C444.812 225.371 445.081 226.352 445.815 226.689C446.551 227.027 447.446 226.788 447.828 226.043C448.582 224.574 449.337 223.105 450.091 221.636C450.448 220.941 450.179 219.959 449.445 219.623Z" fill="#D5E2E2"/>
<path d="M458.883 228.802C458.3 227.502 457.718 226.201 457.135 224.901C456.971 224.536 456.769 224.235 456.401 224.046C456.071 223.876 455.596 223.823 455.243 223.958C454.889 224.094 454.551 224.337 454.388 224.692C454.23 225.037 454.138 225.489 454.3 225.85C454.883 227.15 455.465 228.451 456.048 229.751C456.212 230.116 456.414 230.417 456.782 230.606C457.112 230.776 457.587 230.829 457.94 230.694C458.294 230.558 458.632 230.315 458.795 229.96C458.953 229.615 459.045 229.163 458.883 228.802Z" fill="#D5E2E2"/>
<path d="M464.655 218.635C464.519 218.281 464.277 217.943 463.921 217.78C463.582 217.624 463.116 217.523 462.763 217.692C461.515 218.289 460.267 218.886 459.02 219.483C458.653 219.658 458.359 219.84 458.165 220.217C457.995 220.547 457.942 221.022 458.077 221.375C458.213 221.729 458.456 222.067 458.811 222.23C459.15 222.386 459.616 222.487 459.969 222.318C461.217 221.721 462.465 221.124 463.712 220.527C464.079 220.352 464.373 220.17 464.567 219.793C464.737 219.463 464.791 218.987 464.655 218.635Z" fill="#D5E2E2"/>
<path d="M465.464 208.472C465.25 208.174 464.903 207.856 464.519 207.827C463.735 207.768 462.956 207.735 462.17 207.791C461.392 207.847 460.623 207.98 459.861 208.149C459.517 208.225 459.16 208.583 459.006 208.883C458.836 209.213 458.783 209.688 458.918 210.041C459.054 210.395 459.297 210.733 459.652 210.896C459.778 210.94 459.904 210.985 460.03 211.029C460.294 211.083 460.554 211.068 460.81 210.984C460.839 210.977 460.869 210.972 460.898 210.966C461.998 210.764 463.116 210.698 464.232 210.776C464.126 210.768 464.021 210.761 463.915 210.753C464.326 210.784 464.67 210.776 465.031 210.54C465.338 210.339 465.616 209.963 465.676 209.595C465.738 209.214 465.696 208.795 465.464 208.472Z" fill="#D5E2E2"/>
<path d="M474.666 206.346C473.126 204.86 471.418 203.558 469.6 202.429C469.286 202.234 468.781 202.227 468.442 202.341C468.101 202.455 467.739 202.743 467.587 203.075C467.227 203.861 467.521 204.646 468.233 205.088C468.578 205.303 468.916 205.528 469.253 205.757C470.459 206.605 471.6 207.54 472.662 208.564C473.226 209.108 474.27 209.065 474.773 208.457C475.303 207.816 475.267 206.926 474.666 206.346Z" fill="#D5E2E2"/>
<path d="M471.445 219.949C470.85 218.977 470.255 218.004 469.659 217.032C469.463 216.711 469.078 216.463 468.714 216.387C468.355 216.312 467.893 216.382 467.59 216.599C467.276 216.824 467.009 217.151 466.945 217.544C466.88 217.942 466.944 218.319 467.157 218.668C467.752 219.64 468.347 220.613 468.943 221.585C469.139 221.906 469.524 222.154 469.888 222.23C470.247 222.305 470.709 222.235 471.012 222.018C471.326 221.793 471.593 221.466 471.657 221.073C471.722 220.675 471.658 220.298 471.445 219.949Z" fill="#D5E2E2"/>
<path d="M449.811 233.002C450.336 232.422 450.326 231.406 449.704 230.891C449.08 230.374 448.153 230.378 447.593 230.998C446.328 232.397 445.434 234.051 444.888 235.851C444.783 236.198 444.908 236.682 445.1 236.975C445.301 237.282 445.677 237.56 446.045 237.62C446.427 237.682 446.845 237.64 447.169 237.408C447.507 237.165 447.693 236.861 447.814 236.463C447.839 236.379 447.868 236.297 447.895 236.214C448.184 235.438 448.559 234.699 449.013 234.007C449.262 233.657 449.524 233.32 449.811 233.002Z" fill="#D5E2E2"/>
<path d="M447.232 246.059C446.77 244.859 446.309 243.659 445.847 242.458C445.708 242.097 445.463 241.783 445.113 241.603C444.783 241.433 444.308 241.38 443.955 241.515C443.601 241.651 443.263 241.894 443.1 242.249C442.937 242.606 442.867 243.03 443.012 243.407L444.397 247.008C444.536 247.369 444.781 247.683 445.131 247.863C445.461 248.033 445.936 248.086 446.289 247.951C446.643 247.815 446.981 247.572 447.144 247.217C447.307 246.861 447.377 246.436 447.232 246.059Z" fill="#D5E2E2"/>
<path d="M457.977 239.197C457.752 238.883 457.425 238.616 457.032 238.552C456.617 238.485 456.281 238.575 455.908 238.764C454.417 239.52 452.925 240.277 451.434 241.033C451.115 241.195 450.859 241.644 450.79 241.978C450.715 242.337 450.785 242.799 451.002 243.102C451.227 243.416 451.554 243.683 451.947 243.747C452.362 243.814 452.698 243.724 453.071 243.535C454.562 242.779 456.054 242.022 457.545 241.266C457.864 241.104 458.12 240.655 458.19 240.321C458.264 239.962 458.195 239.5 457.977 239.197Z" fill="#D5E2E2"/>
<path d="M433.848 266.139C433.082 266.014 432.208 266.469 432.08 267.296C431.837 268.864 431.594 270.431 431.35 271.999C431.23 272.77 431.681 273.633 432.507 273.767C433.273 273.892 434.147 273.437 434.275 272.61C434.518 271.042 434.761 269.475 435.005 267.907C435.125 267.136 434.674 266.273 433.848 266.139Z" fill="#D5E2E2"/>
<path d="M437.568 279.309C436.734 278.528 435.899 277.747 435.064 276.967C434.784 276.705 434.348 276.56 433.968 276.584C433.609 276.607 433.187 276.792 432.953 277.074C432.703 277.376 432.527 277.769 432.57 278.17C432.612 278.561 432.768 278.912 433.06 279.185C433.895 279.966 434.729 280.747 435.564 281.527C435.844 281.789 436.28 281.934 436.66 281.91C437.019 281.887 437.441 281.702 437.675 281.42C437.925 281.118 438.101 280.726 438.058 280.324C438.015 279.932 437.859 279.581 437.568 279.309Z" fill="#D5E2E2"/>
<path d="M444.563 271.913C444.338 271.599 444.011 271.332 443.618 271.268C443.215 271.202 442.85 271.273 442.494 271.48C441.618 271.99 440.743 272.5 439.867 273.01C439.546 273.197 439.297 273.6 439.222 273.955C439.147 274.314 439.217 274.776 439.434 275.079C439.659 275.393 439.986 275.66 440.379 275.724C440.782 275.79 441.147 275.719 441.503 275.512C442.379 275.002 443.255 274.492 444.13 273.982C444.451 273.795 444.7 273.392 444.775 273.037C444.85 272.678 444.781 272.216 444.563 271.913Z" fill="#D5E2E2"/>
<path d="M450.256 264.495C450.126 264.157 449.878 263.772 449.522 263.64C448.509 263.264 447.496 262.889 446.483 262.513C446.301 262.411 446.109 262.362 445.905 262.365C445.708 262.333 445.515 262.353 445.325 262.425C444.984 262.539 444.622 262.827 444.47 263.159C444.306 263.516 444.237 263.94 444.382 264.317C444.512 264.655 444.76 265.04 445.116 265.172C446.129 265.548 447.142 265.923 448.155 266.299C448.337 266.401 448.529 266.45 448.733 266.447C448.929 266.479 449.123 266.459 449.313 266.387C449.654 266.273 450.016 265.985 450.168 265.653C450.331 265.296 450.4 264.872 450.256 264.495Z" fill="#D5E2E2"/>
<path d="M455.49 271.971L454.509 268.235C454.418 267.886 454.087 267.54 453.775 267.38C453.445 267.21 452.97 267.157 452.617 267.292C452.263 267.428 451.925 267.67 451.762 268.026C451.588 268.405 451.568 268.779 451.674 269.184L452.655 272.92C452.746 273.269 453.077 273.615 453.389 273.775C453.719 273.945 454.194 273.999 454.547 273.863C454.901 273.727 455.239 273.485 455.402 273.129C455.576 272.75 455.596 272.376 455.49 271.971Z" fill="#D5E2E2"/>
<path d="M453.871 255.019C452.486 255.073 451.102 255.127 449.717 255.18C448.936 255.21 448.235 255.977 448.319 256.766C448.407 257.587 449.068 258.196 449.905 258.164C451.29 258.11 452.674 258.056 454.059 258.003C454.84 257.973 455.541 257.206 455.457 256.417C455.369 255.595 454.709 254.986 453.871 255.019Z" fill="#D5E2E2"/>
<path d="M461.339 264.9L460.232 260.884C460.024 260.129 459.066 259.662 458.34 259.941C457.551 260.244 457.174 261.025 457.397 261.833C457.766 263.172 458.135 264.51 458.504 265.849C458.712 266.604 459.67 267.071 460.396 266.792C461.185 266.489 461.562 265.707 461.339 264.9Z" fill="#D5E2E2"/>
<path d="M469.512 258.128C469.376 257.774 469.133 257.436 468.778 257.273C468.4 257.1 468.023 257.075 467.62 257.185C466.604 257.461 465.589 257.738 464.573 258.014C464.223 258.109 463.88 258.433 463.718 258.748C463.548 259.078 463.495 259.553 463.63 259.906C463.766 260.26 464.008 260.598 464.364 260.761C464.741 260.934 465.119 260.959 465.522 260.849C466.538 260.573 467.553 260.296 468.569 260.02C468.919 259.925 469.262 259.601 469.424 259.286C469.593 258.956 469.647 258.481 469.512 258.128Z" fill="#D5E2E2"/>
<path d="M465.775 249.551C465.639 249.197 465.396 248.859 465.041 248.696C464.66 248.521 464.29 248.505 463.883 248.608C462.776 248.888 461.669 249.167 460.561 249.447C460.214 249.535 459.865 249.872 459.706 250.181C459.536 250.511 459.482 250.986 459.618 251.339C459.754 251.693 459.997 252.031 460.352 252.194C460.733 252.369 461.103 252.385 461.51 252.282C462.617 252.002 463.724 251.723 464.832 251.443C465.179 251.355 465.528 251.018 465.687 250.709C465.856 250.379 465.91 249.903 465.775 249.551Z" fill="#D5E2E2"/>
<path d="M471.158 265.532C471.022 265.178 470.78 264.84 470.424 264.677C470.298 264.632 470.172 264.588 470.046 264.543C469.782 264.489 469.522 264.504 469.266 264.588C467.836 264.87 466.406 265.151 464.976 265.433C464.636 265.5 464.271 265.875 464.121 266.167C463.951 266.497 463.897 266.972 464.033 267.325C464.169 267.679 464.411 268.017 464.767 268.18C464.893 268.225 465.019 268.269 465.145 268.314C465.409 268.368 465.669 268.353 465.925 268.269C467.355 267.987 468.785 267.706 470.215 267.424C470.555 267.357 470.92 266.982 471.07 266.69C471.239 266.36 471.293 265.885 471.158 265.532Z" fill="#D5E2E2"/>
<path d="M479.501 255.681C479.226 255.432 478.78 255.258 478.405 255.298C478.027 255.339 477.64 255.487 477.39 255.788C477.317 255.894 477.243 256 477.17 256.107C477.046 256.352 476.992 256.611 477.008 256.885C476.956 258.085 476.905 259.285 476.853 260.485C476.838 260.836 477.093 261.274 477.343 261.5C477.618 261.749 478.064 261.923 478.439 261.883C478.817 261.842 479.204 261.694 479.454 261.393C479.527 261.287 479.601 261.181 479.675 261.074C479.799 260.829 479.853 260.57 479.837 260.296C479.889 259.096 479.94 257.896 479.992 256.696C480.006 256.344 479.751 255.907 479.501 255.681Z" fill="#D5E2E2"/>
<path d="M474.616 238.549C474.338 237.826 473.502 237.3 472.724 237.606C471.241 238.19 469.757 238.774 468.274 239.359C467.912 239.501 467.6 239.741 467.419 240.093C467.25 240.423 467.195 240.898 467.331 241.251C467.609 241.974 468.445 242.5 469.223 242.194C470.706 241.61 472.19 241.026 473.673 240.441C474.034 240.299 474.347 240.059 474.528 239.707C474.698 239.377 474.752 238.901 474.616 238.549Z" fill="#D5E2E2"/>
<path d="M474.381 244.049C474.106 243.8 473.66 243.626 473.285 243.666C472.907 243.707 472.52 243.855 472.27 244.156C471.997 244.486 471.912 244.828 471.887 245.252C471.798 246.773 471.709 248.294 471.62 249.814C471.6 250.162 471.864 250.606 472.11 250.829C472.385 251.078 472.831 251.252 473.206 251.212C473.584 251.171 473.971 251.023 474.221 250.722C474.494 250.392 474.579 250.05 474.604 249.626C474.693 248.105 474.782 246.584 474.871 245.064C474.891 244.716 474.627 244.272 474.381 244.049Z" fill="#D5E2E2"/>
<path d="M485.991 242.477C485.855 242.123 485.612 241.785 485.257 241.622C484.896 241.457 484.481 241.396 484.099 241.534C482.946 241.951 481.792 242.368 480.639 242.786C480.28 242.916 479.96 243.177 479.784 243.52C479.614 243.85 479.561 244.325 479.696 244.678C479.832 245.032 480.074 245.37 480.43 245.533C480.791 245.698 481.205 245.759 481.588 245.621C482.741 245.204 483.895 244.787 485.048 244.369C485.407 244.239 485.727 243.978 485.903 243.635C486.073 243.305 486.127 242.83 485.991 242.477Z" fill="#D5E2E2"/>
<path d="M483.96 232.208C483.677 230.871 483.395 229.533 483.112 228.196C483.04 227.854 482.675 227.493 482.378 227.341C482.048 227.171 481.573 227.117 481.22 227.253C480.866 227.389 480.528 227.631 480.365 227.987C480.32 228.113 480.276 228.239 480.231 228.365C480.177 228.629 480.192 228.889 480.276 229.145C480.559 230.482 480.841 231.82 481.124 233.157C481.196 233.499 481.561 233.86 481.858 234.012C482.188 234.182 482.663 234.235 483.016 234.1C483.37 233.964 483.708 233.721 483.871 233.366C483.916 233.24 483.96 233.114 484.005 232.988C484.06 232.724 484.044 232.464 483.96 232.208Z" fill="#D5E2E2"/>
<path d="M476.27 230.288C476.205 230.102 476.16 229.91 476.115 229.719C476.058 229.355 476.036 228.988 476.052 228.62C476.059 228.557 476.064 228.493 476.074 228.43C476.134 228.038 476.083 227.644 475.862 227.306C475.661 226.999 475.285 226.721 474.917 226.661C474.535 226.599 474.117 226.641 473.793 226.873C473.481 227.097 473.208 227.425 473.148 227.818C472.973 228.966 473.053 230.136 473.435 231.236C473.559 231.594 473.831 231.917 474.169 232.091C474.499 232.261 474.974 232.315 475.327 232.179C475.681 232.043 476.019 231.8 476.182 231.445C476.348 231.083 476.404 230.675 476.27 230.288Z" fill="#D5E2E2"/>
<path d="M486.667 218.171C486.531 217.817 486.288 217.479 485.933 217.316C485.807 217.271 485.681 217.227 485.555 217.182C485.291 217.128 485.031 217.143 484.775 217.227C483.347 217.518 481.919 217.809 480.491 218.1C480.15 218.17 479.787 218.54 479.636 218.834C479.466 219.164 479.413 219.639 479.548 219.992C479.684 220.346 479.927 220.684 480.282 220.847C480.408 220.892 480.534 220.936 480.66 220.981C480.924 221.035 481.184 221.02 481.44 220.936L485.724 220.063C486.065 219.993 486.428 219.623 486.579 219.329C486.749 218.999 486.803 218.523 486.667 218.171Z" fill="#D5E2E2"/>
<path d="M491.934 212.061C491.245 210.767 490.555 209.473 489.866 208.178C489.696 207.858 489.262 207.605 488.921 207.533C488.562 207.458 488.1 207.528 487.797 207.745C487.483 207.97 487.216 208.297 487.152 208.69C487.085 209.101 487.169 209.447 487.364 209.814C488.053 211.108 488.742 212.402 489.432 213.697C489.602 214.017 490.036 214.27 490.377 214.342C490.736 214.417 491.198 214.347 491.501 214.13C491.815 213.905 492.082 213.578 492.145 213.185C492.214 212.774 492.13 212.428 491.934 212.061Z" fill="#D5E2E2"/>
<path d="M484.29 195.167C483.833 194.53 482.901 194.25 482.221 194.735C481.636 195.152 481.019 195.518 480.379 195.843C479.658 196.181 478.914 196.464 478.147 196.678C477.393 196.888 476.925 197.843 477.204 198.57C477.506 199.357 478.289 199.738 479.096 199.513C480.792 199.04 482.424 198.258 483.858 197.236C484.494 196.782 484.773 195.841 484.29 195.167Z" fill="#D5E2E2"/>
<path d="M456.463 285.001C456.203 284.591 455.971 284.164 455.754 283.73C455.457 283.087 455.201 282.425 455.003 281.745C454.784 280.993 453.844 280.52 453.111 280.802C452.331 281.101 451.934 281.89 452.168 282.694C452.572 284.081 453.188 285.419 453.962 286.638C454.381 287.299 455.381 287.536 456.031 287.07C456.696 286.593 456.91 285.707 456.463 285.001Z" fill="#D5E2E2"/>
<path d="M466.585 278.716C466.449 278.362 466.207 278.024 465.851 277.861C465.511 277.705 465.047 277.605 464.693 277.773C463.63 278.278 462.567 278.783 461.504 279.288C461.314 279.344 461.151 279.441 461.015 279.579C460.856 279.693 460.734 279.841 460.649 280.022C460.479 280.352 460.426 280.827 460.561 281.18C460.697 281.534 460.94 281.872 461.295 282.035C461.635 282.191 462.099 282.291 462.453 282.123C463.516 281.618 464.579 281.113 465.642 280.608C465.832 280.552 465.995 280.455 466.131 280.317C466.29 280.203 466.412 280.055 466.497 279.874C466.666 279.544 466.72 279.069 466.585 278.716Z" fill="#D5E2E2"/>
<path d="M477.627 278.975C476.636 277.604 475.391 276.475 473.934 275.617C473.611 275.427 473.123 275.413 472.776 275.529C472.435 275.643 472.073 275.931 471.921 276.263C471.757 276.62 471.688 277.044 471.833 277.421C471.977 277.797 472.218 278.07 472.567 278.276C472.721 278.367 472.87 278.467 473.019 278.565C473.654 279.021 474.233 279.547 474.75 280.133C474.878 280.291 475.007 280.448 475.126 280.613C475.357 280.933 475.678 281.175 476.071 281.258C476.43 281.333 476.892 281.263 477.195 281.046C477.509 280.821 477.776 280.494 477.84 280.101C477.902 279.718 477.86 279.297 477.627 278.975Z" fill="#D5E2E2"/>
<path d="M475.315 287.343C475.231 287.096 475.093 286.885 474.9 286.709C474.075 285.826 473.25 284.944 472.425 284.061C472.173 283.792 471.684 283.656 471.329 283.678C470.97 283.701 470.548 283.886 470.314 284.168C470.064 284.47 469.888 284.862 469.931 285.264C469.956 285.391 469.981 285.518 470.005 285.644C470.089 285.891 470.227 286.102 470.42 286.278C471.245 287.161 472.07 288.043 472.895 288.926C473.147 289.195 473.636 289.331 473.991 289.309C474.35 289.286 474.772 289.101 475.006 288.819C475.256 288.517 475.432 288.124 475.389 287.723C475.365 287.597 475.34 287.47 475.315 287.343Z" fill="#D5E2E2"/>
<path d="M486.395 286.205C486.11 285.464 485.29 284.978 484.503 285.262C483.115 285.762 481.728 286.263 480.341 286.763C479.606 287.028 479.104 287.889 479.398 288.655C479.683 289.396 480.503 289.882 481.29 289.598C482.677 289.098 484.065 288.597 485.453 288.097C486.187 287.831 486.689 286.97 486.395 286.205Z" fill="#D5E2E2"/>
<path d="M489.543 276.447C489.318 276.133 488.991 275.866 488.598 275.802C488.234 275.743 487.77 275.766 487.474 276.014C486.496 276.835 485.518 277.655 484.54 278.476C484.37 278.579 484.236 278.715 484.139 278.884C484.011 279.039 483.93 279.218 483.895 279.421C483.82 279.78 483.89 280.242 484.107 280.545C484.332 280.859 484.659 281.126 485.052 281.19C485.416 281.249 485.88 281.226 486.176 280.978C487.154 280.157 488.132 279.337 489.11 278.516C489.28 278.413 489.414 278.277 489.511 278.108C489.639 277.953 489.72 277.774 489.755 277.571C489.831 277.212 489.761 276.75 489.543 276.447Z" fill="#D5E2E2"/>
<path d="M492.903 270.313C492.847 270.198 492.792 270.084 492.736 269.969C492.591 269.75 492.402 269.579 492.169 269.458C490.903 268.589 489.636 267.721 488.369 266.852C488.072 266.649 487.535 266.655 487.211 266.764C486.87 266.878 486.508 267.166 486.356 267.498C486.192 267.855 486.123 268.279 486.268 268.656C486.324 268.771 486.379 268.885 486.435 269C486.58 269.219 486.769 269.39 487.002 269.511C488.269 270.38 489.535 271.248 490.802 272.117C491.099 272.32 491.636 272.314 491.96 272.205C492.301 272.091 492.663 271.803 492.815 271.471C492.979 271.114 493.048 270.69 492.903 270.313Z" fill="#D5E2E2"/>
<path d="M502.617 276.302C501.469 275.188 500.32 274.075 499.172 272.961C498.61 272.416 497.564 272.461 497.061 273.068C496.529 273.71 496.568 274.597 497.168 275.179C498.316 276.293 499.465 277.406 500.613 278.52C501.175 279.065 502.222 279.02 502.724 278.413C503.256 277.771 503.217 276.884 502.617 276.302Z" fill="#D5E2E2"/>
<path d="M498.704 286.157C497.955 284.824 497.205 283.492 496.456 282.159C496.276 281.839 495.861 281.587 495.511 281.514C495.152 281.439 494.69 281.509 494.387 281.726C494.073 281.951 493.806 282.278 493.742 282.671C493.676 283.077 493.752 283.435 493.954 283.795C494.703 285.128 495.453 286.46 496.202 287.793C496.382 288.113 496.797 288.365 497.147 288.438C497.506 288.513 497.968 288.443 498.271 288.226C498.585 288.001 498.852 287.674 498.916 287.281C498.982 286.875 498.906 286.517 498.704 286.157Z" fill="#D5E2E2"/>
<path d="M507.172 288.549C506.718 287.915 505.78 287.628 505.103 288.117C503.68 289.143 502.256 290.169 500.833 291.195C500.199 291.652 499.916 292.587 500.401 293.264C500.855 293.898 501.792 294.185 502.47 293.696L506.74 290.618C507.374 290.16 507.657 289.225 507.172 288.549Z" fill="#D5E2E2"/>
<path d="M507.53 270.404C507.346 268.973 507.162 267.542 506.978 266.111C506.928 265.722 506.786 265.365 506.488 265.096C506.213 264.847 505.767 264.673 505.392 264.713C504.63 264.795 503.888 265.469 503.994 266.299C504.178 267.73 504.362 269.161 504.546 270.592C504.596 270.981 504.738 271.338 505.036 271.607C505.311 271.856 505.757 272.03 506.132 271.99C506.895 271.908 507.637 271.234 507.53 270.404Z" fill="#D5E2E2"/>
<path d="M501.192 260.264C500.991 259.957 500.615 259.679 500.247 259.619C499.429 259.486 498.673 259.961 498.479 260.776C498.248 261.745 498.017 262.715 497.786 263.684C497.699 264.05 497.794 264.496 497.998 264.808C498.199 265.115 498.575 265.393 498.943 265.453C499.761 265.586 500.517 265.111 500.712 264.296C500.943 263.327 501.174 262.357 501.404 261.388C501.492 261.021 501.396 260.576 501.192 260.264Z" fill="#D5E2E2"/>
<path d="M504.931 249.6C504.706 249.286 504.379 249.019 503.986 248.955L503.586 248.926C503.324 248.944 503.082 249.024 502.862 249.167C501.846 249.721 500.831 250.275 499.815 250.829C499.495 251.004 499.242 251.429 499.17 251.774C499.095 252.133 499.165 252.595 499.382 252.898C499.607 253.212 499.934 253.479 500.327 253.543C500.46 253.553 500.594 253.562 500.727 253.572C500.989 253.554 501.231 253.474 501.451 253.331C502.467 252.777 503.482 252.223 504.498 251.669C504.818 251.494 505.07 251.069 505.143 250.724C505.218 250.366 505.148 249.904 504.931 249.6Z" fill="#D5E2E2"/>
<path d="M509.668 240.805C509.345 239.697 509.022 238.589 508.699 237.481C508.596 237.129 508.286 236.791 507.965 236.626C507.635 236.456 507.16 236.402 506.807 236.538C506.027 236.837 505.629 237.626 505.864 238.43C506.187 239.538 506.51 240.646 506.833 241.754C506.936 242.106 507.246 242.444 507.567 242.609C507.897 242.779 508.372 242.832 508.725 242.697C509.504 242.397 509.902 241.608 509.668 240.805Z" fill="#D5E2E2"/>
<path d="M492.924 257.684C492.101 257.55 491.356 258.027 491.156 258.841C491.111 259.023 491.053 259.2 490.996 259.378C490.788 259.922 490.523 260.439 490.203 260.926C489.958 261.258 489.694 261.574 489.401 261.865C489.134 262.129 488.995 262.595 489.018 262.961C489.041 263.32 489.226 263.742 489.508 263.976C490.16 264.517 491.025 264.458 491.619 263.869C492.833 262.666 493.674 261.107 494.081 259.452C494.269 258.693 493.702 257.811 492.924 257.684Z" fill="#D5E2E2"/>
<path d="M492.501 242.741C492.161 241.967 491.911 241.16 491.735 240.334C491.672 239.974 491.616 239.612 491.584 239.248C491.551 238.868 491.38 238.492 491.094 238.233C490.819 237.984 490.373 237.81 489.998 237.85C489.209 237.935 488.527 238.602 488.6 239.436C488.728 240.895 489.076 242.348 489.665 243.69C489.825 244.055 490.033 244.357 490.399 244.545C490.729 244.715 491.204 244.768 491.557 244.633C491.911 244.497 492.249 244.254 492.412 243.899C492.571 243.553 492.66 243.105 492.501 242.741Z" fill="#D5E2E2"/>
<path d="M489.865 251.883C489.729 251.529 489.486 251.191 489.131 251.028C488.771 250.863 488.355 250.801 487.973 250.94L484.926 252.048C484.567 252.179 484.247 252.439 484.071 252.782C483.901 253.112 483.848 253.587 483.983 253.94C484.119 254.294 484.362 254.632 484.717 254.795C485.077 254.96 485.493 255.022 485.875 254.883C486.891 254.514 487.906 254.144 488.922 253.775C489.281 253.644 489.601 253.384 489.777 253.041C489.946 252.711 490 252.236 489.865 251.883Z" fill="#D5E2E2"/>
<path d="M499.155 232.004C499.062 231.553 498.917 231.115 498.728 230.695C498.672 230.505 498.575 230.342 498.437 230.206C498.323 230.047 498.175 229.925 497.994 229.84C497.664 229.67 497.189 229.617 496.836 229.752C496.482 229.888 496.144 230.131 495.981 230.486C495.823 230.83 495.73 231.284 495.893 231.644C496.067 232.03 496.194 232.432 496.288 232.844C496.343 233.192 496.376 233.542 496.373 233.895C496.37 234.254 496.604 234.675 496.863 234.91C497.138 235.159 497.584 235.333 497.959 235.293C498.337 235.252 498.724 235.104 498.974 234.803C499.047 234.697 499.121 234.591 499.194 234.484C499.318 234.239 499.372 233.98 499.357 233.706C499.361 233.128 499.271 232.571 499.155 232.004Z" fill="#D5E2E2"/>
<path d="M495.543 224.187C495.407 223.833 495.164 223.495 494.809 223.332C494.466 223.175 494.01 223.08 493.651 223.244C492.912 223.581 492.196 223.959 491.533 224.429C490.874 224.896 490.253 225.431 489.693 226.013C489.429 226.287 489.287 226.734 489.31 227.109C489.333 227.468 489.518 227.89 489.8 228.124C490.44 228.654 491.332 228.62 491.911 228.017C492.111 227.809 492.324 227.616 492.539 227.425C493.19 226.889 493.895 226.426 494.651 226.053C494.992 225.891 495.274 225.698 495.455 225.345C495.624 225.015 495.678 224.539 495.543 224.187Z" fill="#D5E2E2"/>
<path d="M504.821 221.002C504.406 220.033 503.99 219.063 503.575 218.094C503.419 217.73 503.204 217.425 502.841 217.239C502.511 217.069 502.036 217.016 501.683 217.151C501.329 217.287 500.991 217.53 500.828 217.885C500.668 218.233 500.583 218.677 500.74 219.043C501.155 220.012 501.571 220.982 501.986 221.951C502.142 222.315 502.357 222.62 502.72 222.806C503.05 222.976 503.525 223.03 503.878 222.894C504.232 222.758 504.57 222.516 504.733 222.16C504.893 221.811 504.978 221.368 504.821 221.002Z" fill="#D5E2E2"/>
<path d="M501.331 208.612C501.106 208.298 500.779 208.031 500.386 207.967C499.983 207.902 499.617 207.972 499.262 208.179C498.024 208.903 496.906 209.896 496.056 211.052C495.914 211.198 495.818 211.367 495.769 211.56C495.685 211.745 495.653 211.942 495.673 212.149C495.695 212.508 495.881 212.93 496.163 213.164C496.465 213.414 496.858 213.59 497.259 213.547C497.624 213.508 498.047 213.365 498.274 213.057C498.683 212.5 499.156 211.995 499.673 211.537C500.061 211.222 500.467 210.932 500.899 210.68C501.22 210.492 501.469 210.091 501.544 209.735C501.619 209.377 501.549 208.915 501.331 208.612Z" fill="#D5E2E2"/>
<path d="M509.114 206.738C508.745 205.492 508.376 204.245 508.006 202.999C507.784 202.248 506.85 201.774 506.114 202.056C505.337 202.354 504.933 203.145 505.171 203.948C505.54 205.194 505.91 206.441 506.279 207.687C506.501 208.438 507.435 208.912 508.171 208.63C508.948 208.331 509.352 207.541 509.114 206.738Z" fill="#D5E2E2"/>
<path d="M511.387 191.281C511.366 191.087 511.298 190.909 511.183 190.747C510.982 190.44 510.606 190.162 510.238 190.102C509.856 190.04 509.438 190.082 509.114 190.314C508.816 190.527 508.499 190.875 508.469 191.259C508.385 192.367 508.3 193.476 508.216 194.584C508.166 194.784 508.169 194.98 508.224 195.174C508.245 195.368 508.313 195.546 508.428 195.708C508.629 196.015 509.005 196.293 509.373 196.353C509.755 196.415 510.173 196.373 510.497 196.141C510.795 195.927 511.112 195.58 511.142 195.196C511.226 194.088 511.31 192.979 511.395 191.871C511.445 191.672 511.442 191.475 511.387 191.281Z" fill="#D5E2E2"/>
<path d="M503.052 186.509C502.671 185.359 502.29 184.209 501.909 183.059C501.791 182.703 501.508 182.375 501.175 182.204C500.845 182.034 500.37 181.98 500.017 182.116C499.259 182.407 498.811 183.214 499.074 184.008C499.455 185.158 499.836 186.308 500.217 187.458C500.335 187.814 500.618 188.142 500.951 188.313C501.281 188.483 501.756 188.537 502.109 188.401C502.867 188.11 503.315 187.304 503.052 186.509Z" fill="#D5E2E2"/>
<path d="M492.736 183.025C491.306 182.331 489.875 181.638 488.445 180.944C487.743 180.603 486.774 180.844 486.432 181.59C486.101 182.312 486.325 183.238 487.078 183.603C488.508 184.297 489.939 184.99 491.369 185.684C492.071 186.025 493.04 185.784 493.382 185.038C493.713 184.316 493.488 183.39 492.736 183.025Z" fill="#D5E2E2"/>
<path d="M497.237 190.419C497.123 190.078 496.835 189.716 496.503 189.564C496.146 189.4 495.722 189.331 495.345 189.476C495.23 189.532 495.116 189.587 495.001 189.643C494.809 189.77 494.661 189.936 494.545 190.131C494.105 190.756 493.591 191.322 493.019 191.828C492.711 192.077 492.393 192.313 492.057 192.524C491.736 192.726 491.489 193.101 491.412 193.469C491.337 193.828 491.407 194.29 491.624 194.593C491.849 194.907 492.176 195.174 492.569 195.238C492.965 195.302 493.348 195.242 493.693 195.026C494.385 194.591 495.027 194.067 495.611 193.496C496.201 192.919 496.694 192.266 497.148 191.578C497.349 191.273 497.347 190.748 497.237 190.419Z" fill="#D5E2E2"/>
<path d="M504.146 197.453C503.546 196.022 502.945 194.591 502.345 193.16C502.192 192.797 501.971 192.49 501.611 192.305C501.281 192.135 500.806 192.081 500.453 192.217C499.743 192.49 499.187 193.338 499.51 194.109C500.11 195.54 500.711 196.971 501.311 198.402C501.463 198.765 501.685 199.072 502.045 199.257C502.375 199.427 502.85 199.48 503.203 199.345C503.913 199.072 504.47 198.223 504.146 197.453Z" fill="#D5E2E2"/>
<path d="M497.548 200.285C497.323 199.971 496.996 199.704 496.603 199.64C496.193 199.573 495.845 199.656 495.479 199.852C494.169 200.555 492.86 201.259 491.55 201.962C491.23 202.134 490.977 202.564 490.905 202.907C490.83 203.266 490.9 203.728 491.117 204.031C491.342 204.345 491.669 204.612 492.062 204.676C492.472 204.743 492.82 204.66 493.186 204.464C494.496 203.761 495.805 203.057 497.115 202.354C497.435 202.182 497.688 201.752 497.76 201.409C497.835 201.05 497.766 200.588 497.548 200.285Z" fill="#D5E2E2"/>
<path d="M477.938 165.727L478.857 169.022L461.619 185.438L458.189 199.247C456.53 195.145 453.825 183.361 453.825 183.361L454.146 177.988L454.452 172.84L454.415 172.638C451.09 173.176 447.615 172.653 444.746 170.919C441.593 169.014 439.366 165.86 437.774 162.535C435.226 157.237 434.09 151.357 433.732 145.491C433.388 139.894 433.739 134.275 434.113 128.664C435.436 128.791 436.773 128.776 438.081 128.649C442.49 128.231 446.689 126.676 450.926 125.399C453.384 124.659 456.052 124.002 458.481 124.854C461.021 125.751 462.763 128.134 463.846 130.608C464.922 133.074 465.512 135.749 466.671 138.177C467.695 140.322 469.309 142.354 471.476 143.236C471.67 142.167 472.096 141.144 472.836 140.352C473.733 139.41 475.108 138.88 476.363 139.201C478.007 139.619 479.008 141.293 479.442 142.93C480.107 145.403 479.853 148.116 478.732 150.432C477.88 152.203 476.528 153.727 474.876 154.796L476.505 160.617L477.938 165.727Z" fill="#FFCDB7"/>
<path d="M456.979 157.224C456.979 157.224 459.109 162.514 454.147 165.249C449.185 167.984 445.591 163.224 445.591 163.224L456.979 157.224Z" fill="white"/>
<path d="M434.114 128.665C430.991 128.381 427.957 127.335 425.67 125.235C424.138 123.83 422.98 121.955 422.689 119.9C422.398 117.853 423.048 115.626 424.579 114.229C427.254 111.801 431.379 112.495 434.958 112.891C441.287 113.601 447.758 112.906 453.825 110.963C456.896 109.984 459.877 108.684 463.038 108.019C466.191 107.346 469.643 107.369 472.468 108.931C475.293 110.485 477.25 113.87 476.428 116.994C481.001 116.344 485.716 118.735 488.391 122.494C491.073 126.253 491.836 131.169 491.029 135.712C490.222 140.263 487.958 144.455 485.081 148.064C483.213 150.41 481.083 152.54 479.327 154.976C478.094 156.687 477.041 158.593 476.503 160.618L474.874 154.797C476.525 153.728 477.878 152.204 478.73 150.433C479.851 148.117 480.105 145.404 479.44 142.931C479.007 141.295 478.005 139.621 476.361 139.202C475.106 138.881 473.731 139.411 472.834 140.353C472.094 141.145 471.668 142.169 471.474 143.237C469.307 142.355 467.693 140.323 466.669 138.178C465.511 135.75 464.921 133.074 463.845 130.609C462.762 128.136 461.02 125.752 458.48 124.855C456.052 124.003 453.384 124.661 450.926 125.4C446.689 126.678 442.49 128.232 438.081 128.65C436.774 128.777 435.436 128.792 434.114 128.665Z" fill="#201F33"/>
<path d="M467.485 158.68C466.006 165.19 461.092 170.46 454.708 172.404C454.248 172.544 454.484 173.253 454.945 173.113C460.046 171.559 464.358 167.922 466.706 163.129C467.375 161.762 467.879 160.317 468.216 158.834C468.323 158.364 467.592 158.211 467.485 158.68Z" fill="#201F33"/>
<path d="M448.818 156.026C446.649 156.009 444.479 155.991 442.31 155.974C442.633 150.724 443.181 145.49 443.951 140.287C444.021 139.813 443.29 139.657 443.22 140.134C442.425 145.504 441.867 150.906 441.543 156.325C441.533 156.486 441.614 156.582 441.723 156.627C441.784 156.678 441.86 156.715 441.96 156.716C444.262 156.734 446.564 156.753 448.866 156.771C449.345 156.776 449.298 156.03 448.818 156.026Z" fill="#201F33"/>
<path d="M452.328 145.907C453.647 145.907 454.717 144.59 454.717 142.965C454.717 141.34 453.647 140.023 452.328 140.023C451.009 140.023 449.939 141.34 449.939 142.965C449.939 144.59 451.009 145.907 452.328 145.907Z" fill="#201F33"/>
<path d="M437.666 145.907C438.985 145.907 440.055 144.59 440.055 142.965C440.055 141.34 438.985 140.023 437.666 140.023C436.347 140.023 435.277 141.34 435.277 142.965C435.277 144.59 436.347 145.907 437.666 145.907Z" fill="#201F33"/>
<path d="M435.501 134.918C436.972 134.708 438.466 134.62 439.951 134.667C440.733 134.692 441.433 135.467 441.349 136.253C441.26 137.079 440.601 137.678 439.763 137.651C439.017 137.627 438.272 137.643 437.527 137.69C437.054 137.729 436.582 137.777 436.112 137.844C435.717 137.9 435.33 137.855 434.988 137.632C434.681 137.431 434.403 137.055 434.343 136.687C434.22 135.929 434.672 135.036 435.501 134.918Z" fill="#201F33"/>
<path d="M454.015 134.918C452.544 134.708 451.05 134.62 449.565 134.667C448.783 134.692 448.083 135.467 448.167 136.253C448.256 137.079 448.915 137.678 449.753 137.651C450.499 137.627 451.244 137.643 451.989 137.69C452.462 137.729 452.934 137.777 453.404 137.844C453.799 137.9 454.187 137.855 454.528 137.632C454.835 137.431 455.113 137.055 455.173 136.687C455.295 135.929 454.844 135.036 454.015 134.918Z" fill="#201F33"/>
<path d="M373.222 214.11C371.84 213.587 370.525 212.885 369.321 212.033C368.813 211.674 368.312 211.278 367.983 210.748C367.647 210.225 367.497 209.552 367.721 208.97C367.953 208.402 368.61 207.984 369.193 208.156C368.782 207.894 368.401 207.581 368.102 207.192C367.728 206.706 367.497 206.079 367.586 205.466C367.668 204.891 368.027 204.383 368.475 204.009C368.901 203.643 369.402 203.389 369.902 203.127C369.655 202.469 369.999 201.685 370.545 201.244C371.113 200.781 371.853 200.594 372.57 200.489C376.03 199.966 379.527 200.825 382.912 201.692C387.186 202.783 391.587 203.956 395.077 206.646L395.331 206.564C394.524 204.068 394.001 201.475 393.769 198.86C393.724 198.412 393.717 197.904 394.023 197.582C394.337 197.253 394.875 197.238 395.286 197.433C395.69 197.627 395.996 197.978 396.287 198.322C400.598 203.508 403.774 209.635 405.53 216.143L405.739 216.3L396.69 228.801L396.503 228.667C390.914 225.252 384.899 222.525 378.652 220.56C376.425 219.865 374.116 219.237 372.241 217.848C371.471 217.28 370.732 216.346 371.068 215.449C371.374 214.649 372.338 214.38 373.175 214.216L373.222 214.11Z" fill="#FFCDB7"/>
<path d="M385.159 207.024C380.764 204.626 375.905 203.13 370.922 202.647C370.449 202.601 370.29 203.332 370.769 203.378C375.693 203.855 380.475 205.32 384.817 207.689C385.24 207.92 385.58 207.254 385.159 207.024Z" fill="#201F33"/>
<path d="M383.522 211.5C378.994 210.049 374.409 208.781 369.78 207.697C369.312 207.587 369.159 208.319 369.627 208.428C374.257 209.512 378.841 210.78 383.369 212.231C383.827 212.378 383.976 211.646 383.522 211.5Z" fill="#201F33"/>
<path d="M382.176 216.108C379.448 215.218 376.679 214.462 373.878 213.843C373.408 213.739 373.255 214.471 373.725 214.574C376.527 215.193 379.296 215.948 382.023 216.839C382.48 216.989 382.629 216.256 382.176 216.108Z" fill="#201F33"/>
<path d="M386.921 205C385.014 207.955 383.476 211.121 382.31 214.439C382.151 214.891 382.884 215.04 383.042 214.592C384.184 211.341 385.718 208.236 387.586 205.342C387.847 204.937 387.18 204.599 386.921 205Z" fill="#201F33"/>
<path d="M476.701 137.615H471.404C471.404 137.615 471.41 111.743 451.154 111.743C451.154 111.743 472.962 104.241 476.701 137.615Z" fill="#A1AFB7"/>
<path d="M475.417 157.643C479.797 157.643 483.348 152.319 483.348 145.751C483.348 139.183 479.797 133.859 475.417 133.859C471.037 133.859 467.486 139.183 467.486 145.751C467.486 152.319 471.037 157.643 475.417 157.643Z" fill="#33AD43"/>
<path d="M475.417 133.859C474.097 133.617 472.655 134.009 471.458 134.749C470.261 135.505 469.276 136.572 468.536 137.764C467.03 140.154 466.395 142.98 466.366 145.751C466.391 148.523 467.027 151.35 468.533 153.74C469.274 154.932 470.259 156 471.457 156.756C472.655 157.495 474.097 157.887 475.418 157.643C474.106 157.378 472.997 156.743 472.129 155.884C471.245 155.042 470.585 153.995 470.066 152.896C469.055 150.668 468.633 148.204 468.608 145.751C468.63 143.298 469.053 140.833 470.063 138.604C470.583 137.505 471.243 136.457 472.128 135.615C472.996 134.757 474.105 134.122 475.417 133.859Z" fill="#A1AFB7"/>
<path d="M478.83 152.252C481.526 152.252 483.711 149.065 483.711 145.135C483.711 141.204 481.526 138.018 478.83 138.018C476.134 138.018 473.949 141.204 473.949 145.135C473.949 149.065 476.134 152.252 478.83 152.252Z" fill="#A1AFB7"/>
<path d="M474.521 135.65C474.862 135.309 474.305 134.809 473.967 135.149C470.29 138.835 468.767 144.236 469.981 149.298C470.335 150.775 470.921 152.185 471.694 153.49C471.94 153.905 472.564 153.494 472.319 153.081C470.652 150.267 469.961 146.896 470.454 143.657C470.915 140.63 472.361 137.816 474.521 135.65Z" fill="#201F33"/>
<path d="M444.479 349.281H494.91C509.985 349.281 522.615 337.871 524.14 322.874L528.931 275.778C528.931 275.778 444.479 257.814 444.479 349.281Z" fill="#BFBFBF"/>
<path d="M473.075 288.795C466.603 293.601 461.04 299.569 456.697 306.36C452.025 313.665 448.847 321.901 447.358 330.442C446.496 335.385 446.2 340.423 446.471 345.433C446.506 346.075 447.504 346.014 447.469 345.37C446.994 336.589 448.298 327.72 451.321 319.459C454.108 311.842 458.339 304.785 463.717 298.717C466.696 295.356 470.018 292.31 473.623 289.632C474.137 289.249 473.593 288.41 473.075 288.795Z" fill="#201F33"/>
<path d="M475.249 287.186C474.606 287.186 474.669 288.184 475.312 288.184C475.955 288.184 475.892 287.186 475.249 287.186Z" fill="#201F33"/>
<path d="M477.288 285.054C476.645 285.054 476.708 286.052 477.351 286.052C477.994 286.053 477.93 285.054 477.288 285.054Z" fill="#201F33"/>
<path d="M477.751 287.649C477.108 287.649 477.171 288.647 477.814 288.647C478.457 288.647 478.394 287.649 477.751 287.649Z" fill="#201F33"/>
<path d="M534.829 288.467H121.878V297.918H534.829V288.467Z" fill="#201F33"/>
<path d="M148.967 467.388H141.008V297.918H156.439L148.967 467.388Z" fill="#201F33"/>
<path d="M507.74 467.388H515.699V297.918H500.268L507.74 467.388Z" fill="#201F33"/>
<path d="M463.009 281.913V288.466H342.288L334.815 227.777H423.78L430.445 281.913H463.009Z" fill="#A1AFB7"/>
<path d="M423.78 227.777H419.761L427.627 288.466H463.009V281.913H430.445L423.78 227.777Z" fill="#8297A0"/>
<path d="M342.625 257.673C342.364 255.191 342.114 252.709 341.874 250.225C341.828 249.749 341.081 249.773 341.127 250.253C341.969 258.992 342.947 267.719 344.063 276.427C344.38 278.902 344.709 281.376 345.048 283.848C345.113 284.319 345.86 284.297 345.795 283.82C344.602 275.122 343.544 266.405 342.625 257.673Z" fill="#201F33"/>
<path d="M347.76 273.807C347.704 273.331 346.979 273.517 347.035 273.989C347.401 277.077 347.767 280.165 348.133 283.253C348.189 283.729 348.914 283.543 348.858 283.071C348.492 279.983 348.126 276.895 347.76 273.807Z" fill="#201F33"/>
<path d="M188 281.913V288.466H308.721L316.194 227.777H227.229L220.564 281.913H188Z" fill="#A1AFB7"/>
<path d="M227.229 227.777H231.248L223.382 288.466H188V281.913H220.564L227.229 227.777Z" fill="#8297A0"/>
<path d="M308.384 257.673C308.645 255.191 308.895 252.709 309.135 250.225C309.181 249.749 309.928 249.773 309.882 250.253C309.04 258.992 308.062 267.719 306.946 276.427C306.629 278.902 306.3 281.376 305.961 283.848C305.896 284.319 305.149 284.297 305.214 283.82C306.407 275.122 307.465 266.405 308.384 257.673Z" fill="#201F33"/>
<path d="M303.249 273.807C303.305 273.331 304.03 273.517 303.974 273.989C303.608 277.077 303.242 280.165 302.876 283.253C302.82 283.729 302.095 283.543 302.151 283.071C302.517 279.983 302.883 276.895 303.249 273.807Z" fill="#201F33"/>
</svg>
