<svg width="535" height="477" viewBox="0 0 535 477" fill="none" xmlns="http://www.w3.org/2000/svg">
<circle cx="218" cy="218" r="218" fill="#EEEEEE"/>
<path d="M455.924 347.481H534.893V242.205C534.893 231.751 526.418 223.276 515.964 223.276H474.853C464.399 223.276 455.924 231.751 455.924 242.205V347.481Z" fill="#525252"/>
<path d="M522.573 451.024H534.493V347.481H513.8L522.573 451.024Z" fill="#525252"/>
<path d="M456.324 451.024H468.245L477.018 347.481H456.324V451.024Z" fill="#525252"/>
<path d="M417.582 451.024H429.139V341.562H417.582V451.024Z" fill="#525252"/>
<path d="M417.582 347.78H534.693V337.27H417.582V347.78Z" fill="#525252"/>
<path d="M510.062 220.485C523.158 220.485 533.774 209.869 533.774 196.773C533.774 183.677 523.158 173.061 510.062 173.061C496.966 173.061 486.35 183.677 486.35 196.773C486.35 209.869 496.966 220.485 510.062 220.485Z" fill="#0A1227"/>
<path d="M490.577 222.02H510.487L499.023 182.487H479.114L490.577 222.02Z" fill="#FFCDB7"/>
<path d="M486.001 205.548C495.929 205.548 503.054 195.984 500.213 186.471L499.023 182.487H479.113L486.001 205.548Z" fill="#E28674"/>
<path d="M490.461 169.472C493.218 162.031 490 153.979 483.274 151.488C476.548 148.996 468.862 153.009 466.105 160.45C463.349 167.891 466.566 175.943 473.292 178.434C480.018 180.925 487.704 176.913 490.461 169.472Z" fill="#0A1227"/>
<path d="M466.071 184.465L470.458 180.499C469.523 177.982 469.01 175.26 469.01 172.418C469.01 159.598 479.402 149.206 492.222 149.206C505.042 149.206 515.434 159.598 515.434 172.418C515.434 181.508 510.206 189.372 502.595 193.182C497.494 199.063 490.621 203.189 482.952 204.883L478.794 205.802C475.736 206.478 472.583 205.159 470.917 202.508L469.198 199.774L467.696 198.272C467.082 197.658 467.143 196.644 467.826 196.108L468.303 195.733L467.368 194.233C467.003 193.648 467.09 192.888 467.578 192.4L468.585 191.393L465.904 188.539C464.811 187.374 464.886 185.537 466.071 184.465Z" fill="#FFCDB7"/>
<path d="M478.606 153.525C479.08 156.85 479.841 160.101 481.466 163.008C483.593 166.807 487.039 169.686 490.67 172.091C494.301 174.487 498.183 176.493 501.704 179.057C504.88 181.37 507.797 184.221 509.515 187.722C513.109 183.635 515.283 178.286 515.283 172.416C515.283 159.599 504.89 149.206 492.073 149.206C487.048 149.206 482.404 150.803 478.606 153.525Z" fill="#0A1227" stroke="#0A1227" stroke-width="0.8773" stroke-miterlimit="10"/>
<path d="M512.969 182.317C512.969 178.576 509.936 175.544 506.196 175.544C502.455 175.544 499.423 178.576 499.423 182.317C499.423 186.058 502.455 189.09 506.196 189.09C509.937 189.09 512.969 186.058 512.969 182.317Z" fill="#FFCDB7"/>
<path d="M508.588 181.828C506.779 181.877 505.026 182.902 504.095 184.453" stroke="#CC6D60" stroke-width="0.4387" stroke-miterlimit="10" stroke-linecap="round" stroke-linejoin="round"/>
<path d="M504.989 178.842C506.382 179.143 507.624 180.078 508.298 181.334C508.971 182.59 509.063 184.143 508.542 185.469" stroke="#CC6D60" stroke-width="0.4387" stroke-miterlimit="10" stroke-linecap="round" stroke-linejoin="round"/>
<path d="M467.623 198.403L468.412 199.192L474.631 196.765L467.354 192.709C467.001 193.192 466.973 193.842 467.298 194.362L468.227 195.867L467.753 196.238C467.066 196.778 467.01 197.79 467.623 198.403Z" fill="#CC6D60"/>
<path d="M468.236 195.78C470.622 196.761 473.311 196.988 475.827 196.421" stroke="#0A1227" stroke-width="0.2322" stroke-miterlimit="10"/>
<path d="M482.584 172.197C483.122 172.007 483.263 171.387 482.848 171.036C482.182 170.473 481.48 170.07 480.763 169.726C479.767 169.266 478.737 168.957 477.677 168.777C476.617 168.596 475.527 168.549 474.403 168.653C473.603 168.737 472.788 168.88 471.939 169.179C471.378 169.376 471.23 170.025 471.663 170.389C472.319 170.94 473.01 171.336 473.714 171.673C474.71 172.133 475.74 172.442 476.801 172.617C477.862 172.792 478.952 172.84 480.076 172.736C480.892 172.65 481.72 172.503 482.584 172.197Z" fill="#0A1227"/>
<path d="M472.8 188.361C472.57 189.563 471.313 190.472 470.099 190.313" stroke="#0A1227" stroke-width="0.2322" stroke-miterlimit="10"/>
<path d="M467.658 189.225C467.205 189.538 468.087 190.194 468.599 190.428C469.026 190.623 470.11 190.813 469.638 190.171C469.311 189.728 468.109 188.914 467.658 189.225Z" fill="#E28674"/>
<path d="M473.372 179.363C473.539 179.865 473.762 180.347 474.041 180.793C474.06 180.802 474.088 180.802 474.106 180.802C475.025 180.802 475.778 179.474 475.778 177.839C475.778 177.356 475.713 176.901 475.592 176.502C474.784 176.335 473.957 176.223 473.131 176.158C472.955 177.227 473.038 178.332 473.372 179.363Z" fill="#0A1227"/>
<path d="M471.228 176.274C473.069 175.798 475.026 175.917 476.869 176.351C478.71 176.811 480.478 177.586 481.968 178.761C480.147 178.245 478.424 177.671 476.651 177.253C474.881 176.81 473.101 176.533 471.228 176.274Z" fill="#0A1227"/>
<path d="M431.235 285.417C426.68 281.453 426.201 274.546 430.165 269.991L464.544 230.49C468.508 225.935 475.415 225.456 479.97 229.42C484.525 233.385 485.004 240.291 481.04 244.846L446.661 284.347C442.696 288.902 435.79 289.381 431.235 285.417Z" fill="#FFCDB7"/>
<path d="M484.304 221.229C477.111 217.02 468.911 220.161 463.659 226.631C460.36 230.696 449.991 242.629 449.991 242.629L480.956 259.953L489.706 241.873C493.916 234.681 491.497 225.438 484.304 221.229Z" fill="#33AD43"/>
<path d="M432.395 205.023C430.882 205.203 429.762 206.53 429.648 208.049L429.346 212.097C428.665 212.046 428.004 212.117 427.379 212.281L425.353 198.191C425.177 196.964 424.186 195.946 422.946 195.902C421.318 195.844 420.111 197.254 420.331 198.788L421.573 207.429L419.661 197.348C419.387 195.907 417.751 195.154 416.648 195.433C414.29 196.221 414.622 197.906 414.896 199.348L417.681 214.03C417.552 214.089 417.57 214.081 417.441 214.14L409.656 204.313C408.883 203.337 407.509 202.955 406.412 203.542C404.97 204.313 404.635 206.147 405.602 207.366L407.955 210.335C406.906 209.882 405.6 210.139 404.832 211.247C404.195 212.166 404.32 213.418 405.015 214.294L413.638 225.178C413.678 225.229 413.727 225.267 413.77 225.314C414.359 227.567 415.623 229.734 418.105 231.411C421.098 233.432 424.952 233.918 428.292 232.545C433.557 230.379 434.943 224.995 435.245 219.849C435.435 216.617 435.94 208.382 435.94 208.382C436.084 206.442 434.436 204.781 432.395 205.023Z" fill="#FFCDB7"/>
<path d="M407.955 210.336L413.91 217.664" stroke="#CC6D60" stroke-width="0.4387" stroke-miterlimit="10" stroke-linecap="round" stroke-linejoin="round"/>
<path d="M420.699 202.482L422.334 211.72" stroke="#CC6D60" stroke-width="0.4387" stroke-miterlimit="10" stroke-linecap="round" stroke-linejoin="round"/>
<path d="M422.543 218.704C422.247 215.406 424.68 212.493 427.978 212.196" stroke="#CC6D60" stroke-width="0.4387" stroke-miterlimit="10" stroke-linecap="round" stroke-linejoin="round"/>
<path d="M439.926 287.566C434.082 289.402 427.856 286.154 426.02 280.31L416.225 225.763L432.672 227.488L447.182 273.66C449.018 279.503 445.77 285.729 439.926 287.566Z" fill="#FFCDB7"/>
<path d="M525.276 234.71L516.568 313.646L460.835 318.106L458.18 269.506C457.738 261.347 459.702 253.223 463.844 246.179L470.711 234.516C474.64 227.826 479.914 222.056 486.18 217.543C488.021 216.216 489.95 214.994 491.967 213.88L493.79 212.889C497.029 211.119 500.569 210.252 504.073 210.252C506.799 210.252 509.524 210.783 512.073 211.809C514.214 212.659 516.232 213.88 518.055 215.437C523.595 220.215 526.321 227.489 525.276 234.71Z" fill="#33AD43"/>
<path d="M512.073 211.808C510.763 213.542 508.126 215.224 506.976 216.126C502.268 219.843 497.047 222.922 491.49 225.205C490.234 225.736 488.8 226.214 487.526 225.718C486.499 225.293 485.809 224.302 485.473 223.24C484.854 221.346 485.225 219.311 486.181 217.541C488.022 216.214 489.951 214.992 491.968 213.878L493.791 212.887C497.03 211.117 500.57 210.25 504.074 210.25C506.799 210.251 509.525 210.781 512.073 211.808Z" fill="#FFCDB7"/>
<path d="M488.695 226.149C488.273 226.149 487.855 226.082 487.446 225.923C486.455 225.513 485.661 224.56 485.264 223.307C484.669 221.489 484.926 219.404 485.988 217.437L486.052 217.363C487.892 216.036 489.846 214.799 491.862 213.686L493.687 212.694C496.877 210.951 500.469 210.03 504.075 210.03C506.845 210.03 509.563 210.559 512.157 211.603L512.423 211.71L512.25 211.939C511.219 213.304 509.413 214.615 508.093 215.572C507.712 215.848 507.374 216.093 507.114 216.298C502.338 220.069 497.11 223.134 491.575 225.408C490.633 225.806 489.653 226.149 488.695 226.149ZM486.35 217.69C485.366 219.537 485.128 221.482 485.681 223.173C486.04 224.304 486.743 225.158 487.609 225.516C488.789 225.974 490.131 225.541 491.404 225.003C496.903 222.744 502.095 219.7 506.84 215.954C507.105 215.746 507.447 215.498 507.833 215.218C509.055 214.332 510.702 213.137 511.718 211.903C509.26 210.952 506.69 210.469 504.073 210.469C500.54 210.469 497.02 211.372 493.895 213.079L492.071 214.071C490.088 215.168 488.163 216.386 486.35 217.69Z" fill="#FFCDB7"/>
<path d="M483.472 219.618C478.389 223.775 474.059 228.814 470.704 234.52L463.851 246.175C459.705 253.226 457.732 261.343 458.178 269.51" stroke="#45D057" stroke-width="0.8773" stroke-miterlimit="10"/>
<path d="M406.258 427.291H394.523V444.643H406.258V427.291Z" fill="#FFCDB7"/>
<path d="M415.536 460.165H364.897V457.757L389.506 442.534H415.536V460.165Z" fill="#33AD43"/>
<path d="M411.024 435.967H391.453V442.534H411.024V435.967Z" fill="white"/>
<path d="M377.536 331.478L389.52 431.417H411.155L414.435 408.15C417.639 385.423 416.526 362.296 411.155 339.982H471.879C487.507 339.982 500.18 327.31 500.18 311.675L405.626 302.689C399.103 302.069 392.588 303.951 387.401 307.954C380.2 313.512 376.453 322.447 377.536 331.478Z" fill="#1F1F1F"/>
<path d="M442.22 427.291H430.485V444.643H442.22V427.291Z" fill="#FFCDB7"/>
<path d="M451.497 460.165H400.859V457.757L425.467 442.534H451.497V460.165Z" fill="#33AD43"/>
<path d="M446.986 435.967H427.415V442.534H446.986V435.967Z" fill="white"/>
<path d="M413.702 331.478L425.686 431.417H447.321L450.601 408.15C453.805 385.423 452.692 362.296 447.321 339.982H489.883C505.511 339.982 517.559 336.355 517.559 309.768L441.791 302.689C435.268 302.069 428.753 303.951 423.566 307.954C416.366 313.512 412.619 322.447 413.702 331.478Z" fill="#383838"/>
<path d="M487.65 298.916C491.298 300.311 495.238 299.606 498.135 297.383C499.714 296.203 500.986 294.562 501.737 292.57L510.811 268.642L511.807 265.99L520.299 243.595C520.79 242.323 521.019 241.004 521.019 239.717C521.019 235.302 518.321 231.163 513.952 229.508C508.311 227.362 501.996 230.198 499.85 235.854L493.581 252.409L492.171 256.103L484.507 276.337L482.453 281.717L481.288 284.813C481.257 284.89 481.227 284.981 481.211 285.058C479.235 290.654 482.07 296.801 487.65 298.916Z" fill="#FFCDB7"/>
<path d="M441.802 281.135L487.696 299.054C491.344 300.48 495.299 299.713 498.135 297.383C499.484 296.295 500.572 294.839 501.247 293.106C502.657 289.473 501.906 285.579 499.668 282.774C498.381 281.149 496.587 279.892 494.441 279.264L484.508 276.336L470.022 272.09L445.281 264.809L441.802 281.135Z" fill="#FFCDB7"/>
<path d="M430.423 263.202C430.738 264.834 429.668 266.41 428.033 266.723L424.404 267.417L426.193 272.236C426.771 273.796 425.977 275.526 424.42 276.101C423.474 276.454 422.463 276.298 421.683 275.768C421.183 275.429 420.782 274.938 420.554 274.328L417.831 266.988L417.518 266.148C416.969 264.669 417.658 263.03 419.065 262.376C419.07 262.375 419.078 262.371 419.083 262.37C419.263 262.297 419.451 262.239 419.649 262.201L420.189 262.098L426.905 260.816C428.535 260.502 430.111 261.572 430.423 263.202Z" fill="#FFCDB7"/>
<path d="M420.19 262.096L419.65 262.199C419.452 262.237 419.264 262.295 419.084 262.368C419.15 262.339 419.219 262.306 419.292 262.281C419.586 262.17 419.891 262.111 420.19 262.096Z" fill="#FFCDB7"/>
<path d="M433.633 273.678L426.378 275.065C424.746 275.377 423.677 276.953 423.989 278.584C423.997 278.625 424.009 278.663 424.018 278.703C424.081 279.848 424.843 280.885 426.004 281.238L430.844 282.708C432.329 283.159 433.898 282.321 434.349 280.836C434.47 280.438 434.495 280.035 434.443 279.648L434.763 279.587C436.395 279.275 437.464 277.699 437.152 276.068C436.84 274.436 435.264 273.366 433.633 273.678Z" fill="#FFCDB7"/>
<path d="M432.752 271.327L432.84 271.786C433.128 273.291 432.141 274.744 430.636 275.032L422.922 276.507C421.417 276.795 419.964 275.808 419.676 274.304L419.588 273.844C419.3 272.339 420.287 270.886 421.792 270.598L429.506 269.123C431.011 268.836 432.465 269.822 432.752 271.327Z" fill="#FFCDB7"/>
<path d="M424.441 276.217L423.152 276.464C421.52 276.776 419.945 275.706 419.633 274.075C419.321 272.443 420.391 270.868 422.022 270.556L429.277 269.168" stroke="#CC6D60" stroke-width="0.4387" stroke-miterlimit="10" stroke-linecap="round" stroke-linejoin="round"/>
<path d="M419.066 262.374C417.659 263.028 416.97 264.667 417.519 266.146L417.832 266.986C417.556 266.626 417.354 266.197 417.26 265.719C417.105 264.907 417.292 264.104 417.726 263.464C418.05 262.987 418.511 262.602 419.066 262.374Z" fill="#FFCDB7"/>
<path d="M427.579 255.905L418.367 255.702C417.277 255.678 416.312 256.239 415.766 257.095C415.68 257.192 415.597 257.294 415.522 257.404L410.62 264.624C409.687 265.998 410.045 267.869 411.419 268.802C412.793 269.735 414.664 269.377 415.597 268.003L419.842 261.751L427.446 261.919C429.107 261.956 430.483 260.639 430.52 258.978C430.556 257.318 429.24 255.942 427.579 255.905Z" fill="#FFCDB7"/>
<path d="M427.579 255.905L418.367 255.702C417.277 255.678 416.312 256.239 415.766 257.095C415.68 257.192 415.597 257.294 415.522 257.404L410.62 264.624C409.687 265.998 410.045 267.869 411.419 268.802C412.793 269.735 414.664 269.377 415.597 268.003L417.183 265.667" stroke="#CC6D60" stroke-width="0.4387" stroke-miterlimit="10" stroke-linecap="round" stroke-linejoin="round"/>
<path d="M417.183 265.667L419.842 261.751L427.446 261.919C429.107 261.956 430.483 260.639 430.52 258.978C430.557 257.317 429.24 255.941 427.579 255.904" fill="#FFCDB7"/>
<path d="M425.959 256.256L426.793 266.465L427.066 270.515L431.939 280.126L438.343 282.112C438.418 282.136 438.493 282.16 438.568 282.182L438.614 282.196L438.616 282.195C442.624 283.35 447.087 281.877 449.557 278.239C452.084 274.516 451.735 269.69 449.015 266.383L449.031 265.905L436.198 257.192C434.183 255.824 431.719 255.286 429.317 255.69L425.959 256.256Z" fill="#FFCDB7"/>
<path d="M419.72 272.078L417.832 266.987L417.519 266.147C416.97 264.668 417.659 263.029 419.066 262.375C419.071 262.374 419.079 262.37 419.084 262.369C419.264 262.296 419.452 262.238 419.65 262.2L420.19 262.097L426.906 260.815" stroke="#CC6D60" stroke-width="0.4387" stroke-miterlimit="10" stroke-linecap="round" stroke-linejoin="round"/>
<path d="M422.756 267.605L426.861 266.82" stroke="#CC6D60" stroke-width="0.4387" stroke-miterlimit="10" stroke-linecap="round" stroke-linejoin="round"/>
<path d="M430.224 274.33L426.378 275.065C424.746 275.377 423.677 276.953 423.989 278.584C423.997 278.625 424.009 278.663 424.018 278.703C424.081 279.848 424.843 280.885 426.004 281.238L430.844 282.708C432.329 283.159 433.898 282.321 434.349 280.836" stroke="#CC6D60" stroke-width="0.4387" stroke-miterlimit="10" stroke-linecap="round" stroke-linejoin="round"/>
<path d="M427.491 280.474L434.348 280.836" stroke="#CC6D60" stroke-width="0.4387" stroke-miterlimit="10" stroke-linecap="round" stroke-linejoin="round"/>
<path d="M517.676 215.829C508.322 212.988 499.824 218.808 495.597 227.622C492.941 233.159 484.367 249.6 484.367 249.6L524.417 260.92L529.47 237.908C532.309 228.554 527.029 218.669 517.676 215.829Z" fill="#33AD43"/>
<path d="M517.676 215.829C508.322 212.988 499.824 218.808 495.597 227.622C492.941 233.159 484.367 249.6 484.367 249.6L512.204 257.468" stroke="#45D057" stroke-width="0.8773" stroke-miterlimit="10"/>
<path d="M231.969 347.481H153V242.205C153 231.751 161.475 223.276 171.929 223.276H213.04C223.494 223.276 231.969 231.751 231.969 242.205V347.481Z" fill="#525252"/>
<path d="M165.321 451.024H153.401V347.481H174.094L165.321 451.024Z" fill="#525252"/>
<path d="M231.569 451.024H219.649L210.876 347.481H231.569V451.024Z" fill="#525252"/>
<path d="M270.312 341.562H258.755V451.024H270.312V341.562Z" fill="#525252"/>
<path d="M270.312 337.27H153.201V347.78H270.312V337.27Z" fill="#525252"/>
<path d="M202.523 217.752L180.834 218.9L191.043 175.173L212.732 174.025L202.523 217.752Z" fill="#FFCDB7"/>
<path d="M206.558 199.544C195.743 200.116 187.43 190.108 189.976 179.582L191.043 175.173L212.732 174.025L206.558 199.544Z" fill="#FFCDB7"/>
<path d="M228.964 179.778L225.58 182.502L224.707 192.716C224.094 196.665 220.623 199.709 216.641 199.413C216.396 199.396 211.33 198.568 211.33 198.568C201.118 196.552 193.443 192.808 187.792 188.4C178.139 180.835 174.409 171.323 174.078 165.07C173.339 151.108 184.051 139.188 198.023 138.448C198.387 138.429 198.752 138.42 199.117 138.421C199.238 138.415 199.35 138.409 199.471 138.412C199.806 138.414 200.141 138.417 200.477 138.44C200.965 138.455 201.443 138.49 201.913 138.537C202.28 138.578 202.648 138.62 203.006 138.672C203.057 138.679 203.098 138.687 203.149 138.695C203.568 138.754 203.978 138.824 204.388 138.913C205.208 139.073 206.011 139.284 206.805 139.526C207.197 139.647 207.589 139.779 207.972 139.921C209.182 140.354 210.346 140.881 211.453 141.482C211.85 141.705 212.238 141.928 212.615 142.161C212.972 142.386 213.329 142.61 213.676 142.856C213.75 142.903 213.823 142.95 213.898 143.017C214.192 143.214 214.487 143.422 214.763 143.641C214.816 143.679 214.858 143.707 214.9 143.745C215.239 144.011 215.567 144.278 215.886 144.555C216.226 144.841 216.566 145.138 216.877 145.456C217.209 145.773 217.52 146.092 217.831 146.42C221.787 150.624 224.324 156.192 224.652 162.394C224.816 165.49 225.043 165.945 224.166 168.74L228.987 174.491C231.496 177.131 230.091 178.45 228.964 179.778Z" fill="#FFCDB7"/>
<path d="M217.834 146.419C215.542 147.981 212.954 149.112 210.258 149.742C205.357 150.884 199.997 150.447 195.591 152.872C191.145 155.319 188.57 160.346 187.944 165.391C187.328 170.426 188.399 175.513 189.743 180.413C190.772 184.133 187.181 184.718 187.792 188.4C178.139 180.835 174.409 171.323 174.078 165.07C173.339 151.108 184.051 139.188 198.023 138.448C198.387 138.429 198.752 138.42 199.117 138.421C199.238 138.415 199.35 138.409 199.471 138.412C199.806 138.414 200.141 138.417 200.477 138.44C200.965 138.455 201.443 138.49 201.913 138.537C202.28 138.578 202.648 138.62 203.006 138.672C203.057 138.679 203.098 138.687 203.149 138.695C203.568 138.754 203.978 138.824 204.388 138.913C205.208 139.073 206.011 139.284 206.805 139.526C207.197 139.647 207.589 139.779 207.972 139.921C209.182 140.354 210.346 140.881 211.453 141.482C211.85 141.705 212.238 141.928 212.615 142.161C212.972 142.386 213.329 142.61 213.676 142.856C213.75 142.903 213.823 142.95 213.898 143.017C214.192 143.214 214.487 143.422 214.763 143.641C214.816 143.679 214.858 143.707 214.9 143.745C215.239 144.011 215.567 144.278 215.886 144.555C216.226 144.841 216.557 145.149 216.877 145.456C217.212 145.772 217.523 146.091 217.834 146.419Z" fill="#0A1227"/>
<path d="M201.104 156.243C200.086 159.777 200.308 163.631 198.889 167.023C197.808 169.606 195.709 171.824 193.052 172.707C190.394 173.589 187.208 172.973 185.307 170.917C183.374 168.827 183.017 165.708 183.338 162.88C184.003 157.029 187.262 151.521 192.07 148.121C196.878 144.721 203.158 143.485 208.896 144.808C211.979 145.519 206.402 148.245 205.46 149.139C203.422 151.072 201.883 153.539 201.104 156.243Z" fill="#0A1227"/>
<path d="M204.208 150.46C208.802 151.164 213.058 153.28 217.58 154.353C222.102 155.426 227.397 155.232 230.716 151.978C233.523 149.226 234.176 144.533 232.227 141.119C231.407 139.683 230.107 138.44 228.495 138.068C226.884 137.696 224.982 138.396 224.297 139.901C226.675 136.843 225.172 131.635 221.53 130.314C217.888 128.993 213.396 132.027 213.261 135.898C210.813 132.531 205.864 131.593 201.996 133.132C198.128 134.671 195.335 138.252 193.918 142.167C193.046 144.573 191.073 151.198 192.806 153.357C196.337 150.951 199.848 149.792 204.208 150.46Z" fill="#0A1227"/>
<path d="M179.354 172.956C179.138 168.881 182.267 165.403 186.342 165.187C190.417 164.971 193.895 168.1 194.111 172.175C194.327 176.25 191.198 179.728 187.123 179.944C183.048 180.159 179.57 177.031 179.354 172.956Z" fill="#FFCDB7"/>
<path d="M184.098 172.171C186.071 172.121 188.04 173.135 189.144 174.772" stroke="#FFCDB7" stroke-width="0.4387" stroke-miterlimit="10" stroke-linecap="round" stroke-linejoin="round"/>
<path d="M187.846 168.71C186.346 169.118 185.047 170.209 184.386 171.616C183.725 173.023 183.715 174.72 184.358 176.134" stroke="#FFCDB7" stroke-width="0.4387" stroke-miterlimit="10" stroke-linecap="round" stroke-linejoin="round"/>
<path d="M209.212 162.971C208.615 162.794 208.426 162.127 208.857 161.722C209.55 161.07 210.292 160.59 211.052 160.175C212.11 159.616 213.215 159.221 214.359 158.963C215.503 158.705 216.688 158.591 217.918 158.639C218.795 158.684 219.69 158.793 220.632 159.069C221.255 159.251 221.454 159.95 221.002 160.372C220.319 161.01 219.589 161.481 218.841 161.889C217.783 162.447 216.678 162.843 215.533 163.096C214.387 163.348 213.203 163.463 211.972 163.414C211.081 163.367 210.171 163.255 209.212 162.971Z" fill="#0A1227"/>
<path d="M225.153 188.848C222.384 189.348 219.464 188.974 216.909 187.793" stroke="#0A1227" stroke-width="0.2533" stroke-miterlimit="10"/>
<path d="M222.527 179.793C222.559 181.128 223.748 182.331 225.082 182.379" stroke="#0A1227" stroke-width="0.2533" stroke-miterlimit="10"/>
<path d="M227.379 180.113C227.891 180.428 226.968 181.193 226.423 181.478C225.969 181.716 224.799 181.984 225.277 181.258C225.608 180.756 226.871 179.8 227.379 180.113Z" fill="#FFCDB7"/>
<path d="M219.62 169.497C219.289 170.722 218.639 171.862 217.755 172.782L211.012 169.682C213.148 167.169 216.006 164.457 219.841 166.593C220.093 167.747 219.925 168.355 219.62 169.497Z" fill="#FFCDB7"/>
<path d="M219.66 170.246C219.507 170.802 219.292 171.341 219.014 171.843C218.994 171.854 218.964 171.856 218.944 171.857C217.942 171.91 217.046 170.506 216.952 168.726C216.924 168.2 216.969 167.7 217.077 167.258C217.948 167.029 218.842 166.86 219.738 166.742C219.992 167.895 219.964 169.104 219.66 170.246Z" fill="#0A1227"/>
<path d="M221.818 166.758C219.793 167.148 217.869 167.552 215.968 168.137C214.06 168.694 212.216 169.419 210.262 170.086C211.816 168.72 213.698 167.774 215.677 167.167C217.66 166.588 219.785 166.345 221.818 166.758Z" fill="#0A1227"/>
<path d="M265.029 271.504C269.219 266.952 268.925 259.866 264.373 255.676L224.898 219.344C220.346 215.155 213.26 215.448 209.07 220C204.881 224.552 205.174 231.638 209.726 235.828L249.202 272.16C253.753 276.35 260.84 276.056 265.029 271.504Z" fill="#FFCDB7"/>
<path d="M203.73 212.15C210.578 207.05 219.283 209.321 225.363 215.315C229.182 219.081 241.09 230.058 241.09 230.058L211.521 251.202L200.565 233.782C195.465 226.935 196.882 217.25 203.73 212.15Z" fill="#303030"/>
<path d="M203.73 212.15C210.578 207.05 219.283 209.321 225.363 215.315C229.182 219.081 241.09 230.058 241.09 230.058L220.538 244.754" fill="#303030"/>
<path d="M168.774 228.369L170.482 310.239L235.432 314.627L234.25 282.152C233.422 259.293 226.381 237.013 213.454 218.148C212.022 216.059 210.603 214.128 209.25 212.46C207.069 209.806 205.02 207.809 203.22 206.824L201.341 205.786C198.004 203.96 194.339 203.054 190.7 203.054C188.335 203.054 185.984 203.435 183.737 204.171C181.031 205.064 178.482 206.496 176.236 208.427C170.508 213.366 167.697 220.881 168.774 228.369Z" fill="#303030"/>
<path d="M213.456 218.256C226.383 237.096 233.425 259.341 234.254 282.163L234.421 286.759" stroke="#5D5D5D" stroke-width="0.8766" stroke-miterlimit="10"/>
<path d="M183.737 204.17L208.75 220.342L209.249 212.46C207.068 209.806 205.019 207.809 203.219 206.824L201.34 205.786C198.003 203.96 194.338 203.054 190.699 203.054C188.335 203.054 185.984 203.435 183.737 204.17Z" fill="#FFCDB7"/>
<path d="M209.112 291.632C205.555 293.465 201.464 293.193 198.263 291.257C196.522 290.234 195.041 288.708 194.051 286.764L182.103 263.426L180.789 260.838L169.608 238.995C168.965 237.755 168.581 236.439 168.435 235.128C167.936 230.633 170.214 226.113 174.475 223.933C179.976 221.11 186.728 223.283 189.553 228.799L197.81 244.947L199.664 248.549L209.757 268.285L212.457 273.531L213.993 276.552C214.033 276.627 214.074 276.717 214.099 276.793C216.747 282.267 214.555 288.847 209.112 291.632Z" fill="#FFCDB7"/>
<path d="M253.785 268.339L209.081 291.778C205.527 293.642 201.414 293.309 198.263 291.258C196.766 290.302 195.493 288.943 194.611 287.255C192.764 283.715 193.088 279.666 195.05 276.556C196.177 274.756 197.861 273.273 199.975 272.39L209.758 268.285L224.027 262.322L248.395 252.109L253.785 268.339Z" fill="#FFCDB7"/>
<path d="M169.139 210.427C178.342 206.476 187.653 211.44 192.955 219.937C196.286 225.274 206.877 241.045 206.877 241.045L167.378 257.103L159.63 234.243C155.679 225.04 159.936 214.377 169.139 210.427Z" fill="#303030"/>
<path d="M169.139 210.551C178.342 206.607 187.653 211.563 192.955 220.045C196.286 225.374 206.877 241.119 206.877 241.119L179.422 252.262" stroke="#5D5D5D" stroke-width="0.8766" stroke-miterlimit="10"/>
<path d="M226.64 268.506C225.487 270.783 222.459 271.119 219.951 271.588C217.754 272.006 215.61 272.765 213.473 273.588C208.399 275.558 203.43 277.912 198.16 277.122C197.452 277.011 196.754 276.836 196.065 276.612C191.929 275.223 188.493 271.749 187.312 267.519C187.022 266.477 186.813 265.299 185.963 264.619C185.165 263.981 184.008 263.952 183.119 263.481C183.034 263.427 182.949 263.374 182.864 263.32C182.094 262.789 181.768 261.846 181.804 260.894C181.801 260.294 181.953 259.676 182.243 259.154C182.979 257.809 184.333 256.915 185.635 256.123C189.081 254.002 192.662 252.103 196.347 250.429C197.627 249.86 199.221 248.846 200.679 248.605L210.772 268.341L225.042 262.379C225.618 263.01 226.119 263.681 226.488 264.446C227.088 265.707 227.275 267.25 226.64 268.506Z" fill="url(#paint0_linear_3157_158)"/>
<path d="M206.519 252.315L203.947 262.877L256.331 275.128C262.512 275.385 267.731 270.583 267.989 264.402C268.246 258.221 263.444 253.002 257.262 252.745L206.519 252.315Z" fill="#FFCDB7"/>
<path d="M253.155 252.71L206.519 252.315" stroke="#FFCDB7" stroke-width="0.4387" stroke-miterlimit="10" stroke-linecap="round" stroke-linejoin="round"/>
<path d="M218.898 266.374L256.332 275.128" stroke="#FFCDB7" stroke-width="0.4387" stroke-miterlimit="10" stroke-linecap="round" stroke-linejoin="round"/>
<path d="M215.117 267.79C215.518 267.357 215.808 266.849 216.012 266.293L217.024 264.526L221.477 261.84L214.132 252.232L208.073 251.478L202.173 249.005L201.24 248.473C201.085 248.413 200.92 248.365 200.756 248.338L203.035 251.417C201.454 251.419 200.076 251.906 199.126 252.927C196.569 255.675 198.075 261.232 202.489 265.339C206.9 269.443 212.547 270.546 215.106 267.804L215.108 267.807L215.117 267.79Z" fill="#FFCDB7"/>
<path d="M214.99 265.149C214.303 263.674 212.572 262.972 211.124 263.583L201.496 267.643C201.395 267.685 201.309 267.744 201.217 267.797L196.011 269.936C194.557 270.533 193.926 272.218 194.6 273.699C195.274 275.18 197 275.896 198.453 275.299L204.031 273.007C204.153 272.957 204.261 272.889 204.371 272.824L213.613 268.927C215.061 268.315 215.677 266.624 214.99 265.149Z" fill="#FFCDB7"/>
<path d="M208.625 264.637L201.497 267.643C201.396 267.685 201.31 267.744 201.218 267.797L196.012 269.936C194.558 270.533 193.927 272.218 194.601 273.699C195.275 275.18 197.001 275.896 198.454 275.299L204.032 273.007C204.154 272.957 204.262 272.889 204.372 272.824L213.614 268.927" stroke="#FFCDB7" stroke-width="0.4387" stroke-miterlimit="10" stroke-linecap="round" stroke-linejoin="round"/>
<path d="M208.22 260.938C207.165 259.682 205.292 259.52 204.037 260.574L197.18 266.334L192.399 268.774C190.938 269.52 190.359 271.308 191.104 272.769C191.849 274.229 193.638 274.809 195.099 274.064L200.703 271.204C201.173 270.964 201.541 270.608 201.814 270.198L207.856 265.122C209.112 264.067 209.275 262.194 208.22 260.938Z" fill="#FFCDB7"/>
<path d="M200.508 263.539L197.18 266.335L192.399 268.775C190.938 269.521 190.359 271.309 191.104 272.77C191.849 274.23 193.638 274.81 195.099 274.065L200.703 271.205C201.173 270.965 201.541 270.609 201.814 270.199L207.856 265.123C208.451 264.623 208.801 263.939 208.892 263.224" stroke="#FFCDB7" stroke-width="0.4387" stroke-miterlimit="10" stroke-linecap="round" stroke-linejoin="round"/>
<path d="M198.009 266.425C198.09 266.37 198.174 266.32 198.248 266.258C198.438 266.11 198.619 265.945 198.774 265.746L204.333 258.61C205.341 257.316 205.109 255.45 203.815 254.443C202.521 253.435 200.655 253.667 199.647 254.961L194.474 261.602L188.349 264.728C186.888 265.473 186.309 267.262 187.054 268.723C187.799 270.184 189.588 270.763 191.049 270.018L197.705 266.621C197.756 266.595 197.798 266.558 197.847 266.53C197.903 266.499 197.954 266.46 198.009 266.425Z" fill="#FFCDB7"/>
<path d="M202.426 253.297C202.845 252.847 203.118 252.26 203.205 251.647C203.247 251.286 203.233 250.916 203.133 250.55C202.98 249.924 202.634 249.392 202.174 249.006C201.904 248.776 201.582 248.581 201.241 248.474C201.086 248.414 200.921 248.366 200.757 248.339C200.363 248.266 199.949 248.281 199.539 248.383L191.621 250.366C191.534 250.387 191.456 250.426 191.373 250.455C191.301 250.478 191.231 250.502 191.161 250.531C191.082 250.566 191.006 250.604 190.931 250.645C190.811 250.707 190.695 250.777 190.583 250.856C190.565 250.87 190.547 250.883 190.529 250.897C190.434 250.968 190.335 251.032 190.247 251.116L181.62 259.319C180.432 260.449 180.384 262.329 181.515 263.517C182.645 264.705 184.525 264.753 185.713 263.623L193.786 255.947L200.979 254.153C201.559 254.003 202.048 253.702 202.426 253.297Z" fill="#FFCDB7"/>
<path d="M200.923 254.014C200.436 254.201 199.992 254.519 199.648 254.961L194.475 261.602L188.35 264.728C186.889 265.473 186.31 267.262 187.055 268.723C187.8 270.184 189.589 270.763 191.05 270.018L197.706 266.621C197.757 266.595 197.799 266.558 197.848 266.53C197.904 266.5 197.955 266.46 198.01 266.426C198.091 266.371 198.175 266.321 198.249 266.259C198.439 266.111 198.62 265.946 198.775 265.747L204.334 258.611" stroke="#FFCDB7" stroke-width="0.4387" stroke-miterlimit="10" stroke-linecap="round" stroke-linejoin="round"/>
<path d="M200.756 248.339C200.362 248.266 199.948 248.281 199.538 248.383L191.62 250.366C191.533 250.387 191.455 250.426 191.372 250.455C191.3 250.478 191.23 250.502 191.16 250.531C191.081 250.566 191.005 250.604 190.93 250.645C190.81 250.707 190.694 250.777 190.582 250.856C190.564 250.87 190.546 250.883 190.528 250.897C190.433 250.968 190.334 251.032 190.246 251.116L181.619 259.319C180.431 260.449 180.383 262.329 181.514 263.517C182.644 264.705 184.524 264.753 185.712 263.623L193.785 255.947L200.978 254.153" stroke="#FFCDB7" stroke-width="0.4387" stroke-miterlimit="10" stroke-linecap="round" stroke-linejoin="round"/>
<path d="M207.31 251.096C210.864 253.472 213.757 256.827 215.585 260.692" stroke="#FFCDB7" stroke-width="0.4387" stroke-miterlimit="10" stroke-linecap="round" stroke-linejoin="round"/>
<path d="M281.635 444.643H293.37V427.291H281.635V444.643Z" fill="#FFCDB7"/>
<path d="M272.358 460.165H322.996V457.757L298.388 442.534H272.358V460.165Z" fill="#263238"/>
<path d="M276.87 442.535H296.441V435.968H276.87V442.535Z" fill="white"/>
<path d="M310.358 331.478L298.374 431.417H276.738L273.458 408.15C270.254 385.423 271.367 362.296 276.738 339.982H216.015C200.386 339.982 187.714 327.31 187.714 311.675L282.268 302.689C288.791 302.069 295.305 303.951 300.493 307.954C307.694 313.512 311.441 322.447 310.358 331.478Z" fill="#33AD43"/>
<path d="M245.673 444.643H257.408V427.291H245.673V444.643Z" fill="#FFCDB7"/>
<path d="M236.397 460.165H287.035V457.757L262.427 442.534H236.397V460.165Z" fill="#263238"/>
<path d="M240.908 442.535H260.479V435.968H240.908V442.535Z" fill="white"/>
<path d="M274.192 331.478L262.208 431.417H240.573L237.293 408.15C234.089 385.423 235.202 362.296 240.573 339.982H198.011C182.382 339.982 170.335 336.355 170.335 309.768L246.103 302.689C252.626 302.069 259.14 303.951 264.328 307.954C271.528 313.512 275.275 322.447 274.192 331.478Z" fill="#41BF51"/>
<path d="M213.908 476.766C211.523 476.003 210.208 473.451 210.971 471.065L266.323 305.34C267.086 302.955 269.638 301.64 272.024 302.403C274.409 303.166 275.724 305.718 274.961 308.104L219.609 473.829C218.845 476.215 216.293 477.53 213.908 476.766Z" fill="#555555"/>
<path d="M466.226 473.83L410.874 308.105C410.111 305.72 411.426 303.167 413.811 302.404C416.196 301.641 418.748 302.956 419.511 305.341L474.863 471.066C475.626 473.451 474.311 476.004 471.926 476.767C469.542 477.53 466.99 476.215 466.226 473.83Z" fill="#555555"/>
<path d="M491.019 289.695H194.814V315.114H491.019V289.695Z" fill="#555555"/>
<path d="M491.019 289.695H194.814V306.995H491.019V289.695Z" fill="#525252"/>
<path d="M491.019 289.695H194.814V294.751H491.019V289.695Z" fill="#555555"/>
<defs>
<linearGradient id="paint0_linear_3157_158" x1="214.561" y1="253.157" x2="196.54" y2="272.152" gradientUnits="userSpaceOnUse">
<stop stop-color="#93413B"/>
<stop offset="1" stop-color="#93413B" stop-opacity="0"/>
</linearGradient>
</defs>
</svg>
