<svg width="535" height="478" viewBox="0 0 535 478" fill="none" xmlns="http://www.w3.org/2000/svg">
<circle cx="218" cy="218" r="218" fill="#EEEEEE"/>
<path d="M119.905 387.344H522.955" stroke="#263238" stroke-miterlimit="10"/>
<path d="M119.905 311.036H522.955" stroke="#263238" stroke-miterlimit="10"/>
<path d="M119.905 234.728H522.955" stroke="#263238" stroke-miterlimit="10"/>
<path d="M119.905 158.42H522.955" stroke="#263238" stroke-miterlimit="10"/>
<path d="M211.548 115.085V387.528" stroke="#263238" stroke-miterlimit="10"/>
<path d="M453.807 115.085V387.528" stroke="#263238" stroke-miterlimit="10"/>
<path d="M220.545 216.08L217.549 219.24" stroke="#263238" stroke-miterlimit="10"/>
<path d="M271.631 162.195L224.159 212.268" stroke="#263238" stroke-miterlimit="10"/>
<path d="M274.594 170.344L247.924 197.756" stroke="#263238" stroke-miterlimit="10"/>
<path d="M464.172 216.08L461.177 219.24" stroke="#263238" stroke-miterlimit="10"/>
<path d="M515.259 162.195L467.787 212.268" stroke="#263238" stroke-miterlimit="10"/>
<path d="M518.222 170.344L491.551 197.756" stroke="#263238" stroke-miterlimit="10"/>
<path d="M113.862 370.178L110.866 373.338" stroke="#263238" stroke-miterlimit="10"/>
<path d="M164.948 316.292L117.476 366.365" stroke="#263238" stroke-miterlimit="10"/>
<path d="M167.912 324.442L141.241 351.853" stroke="#263238" stroke-miterlimit="10"/>
<path d="M153.127 150.885L150.131 154.045" stroke="#263238" stroke-miterlimit="10"/>
<path d="M204.214 97L156.742 147.073" stroke="#263238" stroke-miterlimit="10"/>
<path d="M207.177 105.149L180.506 132.561" stroke="#263238" stroke-miterlimit="10"/>
<path d="M375.127 150.885L372.131 154.045" stroke="#263238" stroke-miterlimit="10"/>
<path d="M426.214 97L378.741 147.073" stroke="#263238" stroke-miterlimit="10"/>
<path d="M429.177 105.149L402.506 132.561" stroke="#263238" stroke-miterlimit="10"/>
<path d="M306.484 295.352L303.488 298.512" stroke="#263238" stroke-miterlimit="10"/>
<path d="M357.57 241.466L310.098 291.539" stroke="#263238" stroke-miterlimit="10"/>
<path d="M360.533 249.615L333.863 277.027" stroke="#263238" stroke-miterlimit="10"/>
<path d="M353.309 372.591H260.382V211.073C260.382 200.859 268.663 192.578 278.877 192.578H334.814C345.029 192.578 353.309 200.859 353.309 211.073V372.591Z" fill="#263238" stroke="#263238" stroke-miterlimit="10" stroke-linecap="round" stroke-linejoin="round"/>
<path d="M364.277 467.098L315.193 452.662V436.585H312.423V377.264H303.697V436.585H300.927V452.225L251.843 467.099V469.448H252.497C252.133 470.122 251.927 470.894 251.927 471.713C251.927 474.354 254.068 476.496 256.71 476.496C259.351 476.496 261.493 474.355 261.493 471.713C261.493 470.027 260.619 468.548 259.301 467.696L259.396 467.601L304.369 462.192V468.672C303.688 469.499 303.278 470.558 303.278 471.712C303.278 474.353 305.419 476.495 308.061 476.495C310.702 476.495 312.844 474.354 312.844 471.712C312.844 470.557 312.435 469.498 311.753 468.672V462.192L356.655 467.593C355.243 468.424 354.293 469.956 354.293 471.713C354.293 474.354 356.434 476.496 359.076 476.496C361.717 476.496 363.859 474.355 363.859 471.713C363.859 470.893 363.652 470.122 363.289 469.448H364.279V467.098H364.277Z" fill="#263238" stroke="#263238" stroke-miterlimit="10" stroke-linecap="round" stroke-linejoin="round"/>
<path d="M350.428 394.38H264.981C260.958 394.38 257.697 391.119 257.697 387.096V379.773C257.697 375.75 260.958 372.489 264.981 372.489H350.428C354.451 372.489 357.712 375.75 357.712 379.773V387.096C357.712 391.119 354.451 394.38 350.428 394.38Z" fill="white" stroke="#263238" stroke-miterlimit="10" stroke-linecap="round" stroke-linejoin="round"/>
<path d="M343.28 336.989H273.807V375.614H343.28V336.989Z" fill="white" stroke="#263238" stroke-miterlimit="10" stroke-linecap="round" stroke-linejoin="round"/>
<path d="M302.182 225.81L291.538 229.975C291.538 229.975 295.395 253.886 300.485 266.228C305.576 278.569 324.396 298.161 324.396 298.161C324.396 298.161 334.115 283.969 337.509 272.707C340.903 261.446 337.355 229.821 337.355 229.821C337.355 229.821 334.27 227.816 329.487 227.044C324.705 226.272 302.182 225.81 302.182 225.81Z" fill="white" stroke="#263238" stroke-miterlimit="10" stroke-linecap="round" stroke-linejoin="round"/>
<path d="M312.518 242.625L317.437 252.077L309.279 270.084L322.391 289.83L330.413 271.781L320.694 251.726L325.785 242.933L318.535 235.683L312.518 242.625Z" fill="#263238" stroke="#263238" stroke-miterlimit="10" stroke-linecap="round" stroke-linejoin="round"/>
<path d="M303.725 224.73L300.331 225.656L297.091 231.364L305.113 254.041L318.226 240.466L332.573 255.121C332.573 255.121 334.27 232.29 334.27 229.667C334.27 227.044 331.956 226.119 330.259 225.656C328.562 225.193 303.725 224.73 303.725 224.73Z" fill="white" stroke="#263238" stroke-miterlimit="10" stroke-linecap="round" stroke-linejoin="round"/>
<path d="M300.331 225.655C300.331 225.655 301.8 246.171 310.358 264.221C314.767 273.52 323.008 286.59 323.008 286.127C323.008 285.664 331.184 261.444 331.493 253.268C331.801 245.092 333.344 227.66 333.344 227.66C333.344 227.66 349.16 233.958 352.936 236.145C358.798 239.539 366.203 240.31 366.049 244.321C365.993 245.775 366.992 255.341 368.258 266.953C368.459 268.795 378.388 284.669 378.599 286.59C380.729 305.957 373.503 314.114 373.145 314.204C372.528 314.358 359.724 314.204 359.724 314.204C359.724 314.204 366.666 345.829 367.746 347.525C368.826 349.222 368.826 349.222 368.826 349.222H313.66L311.356 342.28L309.308 349.222H252.662L260.222 314.821H251.892C251.892 314.821 249.732 310.502 252.663 294.304C255.594 278.106 265.467 237.534 265.467 236.146C265.467 234.758 297.092 229.049 300.331 225.655Z" fill="#33AD43" stroke="#263238" stroke-miterlimit="10" stroke-linecap="round" stroke-linejoin="round"/>
<path d="M312.108 305.811L311.356 342.28" stroke="#263238" stroke-miterlimit="10" stroke-linecap="round" stroke-linejoin="round"/>
<path d="M333.344 291.99C342.446 283.505 346.457 266.536 346.457 266.536L338.281 262.988L346.148 259.131L339.351 230.156C335.502 226.836 333.239 226.928 333.344 227.66C333.344 227.66 331.801 245.092 331.493 253.268C331.184 261.444 323.008 285.664 323.008 286.127C323.008 286.59 313.938 273.869 310.358 264.221C302.02 241.754 300.421 228.183 300.181 225.627C300.163 225.441 299.959 225.352 299.798 225.447C298.649 226.132 295.839 226.691 293.776 228.45C293.216 232.454 292.497 238.251 292 244.629C291.074 256.507 291.074 261.753 291.074 261.753L301.718 264.375L294.159 268.694C294.159 268.694 302.489 277.179 309.431 283.504C316.373 289.829 321.001 292.143 321.001 292.143L312.106 305.81C312.108 305.811 324.242 300.474 333.344 291.99Z" fill="#33AD43" stroke="#263238" stroke-miterlimit="10" stroke-linecap="round" stroke-linejoin="round"/>
<path d="M302.182 214.548V227.815C302.182 227.815 305.576 238.922 317.609 239.693C330.256 240.504 332.419 228.277 332.419 228.277V216.553C332.419 216.553 308.97 222.261 302.182 214.548Z" fill="#FFCDB7" stroke="#263238" stroke-miterlimit="10" stroke-linecap="round" stroke-linejoin="round"/>
<path d="M335.35 196.653C335.35 196.653 335.813 190.637 339.515 190.637C343.217 190.637 343.217 197.579 342.292 200.356C341.366 203.133 336.584 205.138 335.042 202.978" fill="#FFCDB7"/>
<path d="M335.35 196.653C335.35 196.653 335.813 190.637 339.515 190.637C343.217 190.637 343.217 197.579 342.292 200.356C341.366 203.133 336.584 205.138 335.042 202.978" stroke="#263238" stroke-miterlimit="10" stroke-linecap="round" stroke-linejoin="round"/>
<path d="M319.989 166.619C319.989 166.619 306.36 166.123 301.652 169.593C296.944 173.062 297.935 182.479 297.935 185.452C297.935 188.425 300.165 213.949 301.652 217.666C303.139 221.383 314.042 227.082 323.459 224.852C332.875 222.622 335.849 215.931 336.345 212.462C336.841 208.993 336.841 182.478 336.345 175.54C335.849 168.602 326.679 167.362 319.989 166.619Z" fill="#FFCDB7" stroke="#263238" stroke-miterlimit="10" stroke-linecap="round" stroke-linejoin="round"/>
<path d="M336.482 178.294C336.441 177.2 336.395 176.259 336.344 175.539C335.848 168.601 326.68 167.362 319.989 166.618C319.989 166.618 306.36 166.122 301.652 169.592C296.944 173.061 297.935 182.478 297.935 185.451C297.935 186.64 298.292 191.44 298.816 197.006C299.686 197.352 300.833 197.43 301.405 195.858C302.396 193.132 300.909 190.654 302.148 187.185C303.387 183.716 303.883 181.486 306.856 179.751C309.829 178.016 312.803 177.273 312.803 177.273C312.803 177.273 306.608 184.459 320.237 184.211C329.095 184.051 334.077 182.213 336.482 178.294Z" fill="#263238" stroke="#263238" stroke-miterlimit="10" stroke-linecap="round" stroke-linejoin="round"/>
<path d="M322.7 190.945C322.7 190.945 325.014 201.898 322.854 202.978C320.694 204.058 319.306 204.366 317.455 200.664" stroke="#263238" stroke-miterlimit="10" stroke-linecap="round" stroke-linejoin="round"/>
<path d="M310.667 202.824C310.667 202.824 310.204 207.915 320.54 207.144" stroke="#263238" stroke-miterlimit="10" stroke-linecap="round" stroke-linejoin="round"/>
<path d="M313.907 191.177C313.907 192.242 313.458 193.105 312.904 193.105C312.35 193.105 311.901 192.242 311.901 191.177C311.901 190.112 312.35 189.249 312.904 189.249C313.458 189.249 313.907 190.112 313.907 191.177Z" fill="#263238"/>
<path d="M329.41 191.177C329.41 192.242 328.961 193.105 328.407 193.105C327.853 193.105 327.404 192.242 327.404 191.177C327.404 190.112 327.853 189.249 328.407 189.249C328.961 189.249 329.41 190.112 329.41 191.177Z" fill="#263238"/>
<path d="M316.275 195.728H307.893C306.997 195.728 306.229 195.09 306.064 194.21L304.96 188.323H318.844L318.122 194.098C318.005 195.029 317.213 195.728 316.275 195.728Z" stroke="#263238" stroke-width="2" stroke-miterlimit="10" stroke-linecap="round" stroke-linejoin="round"/>
<path d="M334.169 195.728H325.787C324.891 195.728 324.123 195.09 323.958 194.21L322.854 188.323H336.738L336.016 194.098C335.9 195.029 335.108 195.728 334.169 195.728Z" stroke="#263238" stroke-width="2" stroke-miterlimit="10" stroke-linecap="round" stroke-linejoin="round"/>
<path d="M318.843 188.323H322.854" stroke="#263238" stroke-width="2" stroke-miterlimit="10" stroke-linecap="round" stroke-linejoin="round"/>
<path d="M304.959 188.323L298.326 191.254" stroke="#263238" stroke-width="2" stroke-miterlimit="10" stroke-linecap="round" stroke-linejoin="round"/>
<path d="M299.868 196.653C299.868 196.653 299.405 190.637 295.703 190.637C292.001 190.637 292.001 197.579 292.926 200.356C293.852 203.133 298.634 205.138 300.177 202.978" fill="#FFCDB7"/>
<path d="M299.868 196.653C299.868 196.653 299.405 190.637 295.703 190.637C292.001 190.637 292.001 197.579 292.926 200.356C293.852 203.133 298.634 205.138 300.177 202.978" stroke="#263238" stroke-miterlimit="10" stroke-linecap="round" stroke-linejoin="round"/>
<path d="M339.823 273.632C339.823 273.632 336.547 270.395 332.417 269.502C330 268.979 330.861 269.279 329.627 269.279C328.393 269.279 322.241 267.063 320.698 266.6C319.155 266.137 318.23 267.68 318.692 269.377C319.155 271.074 322.451 272.521 323.685 272.83C324.919 273.139 324.396 273.169 324.396 273.169C324.396 273.169 326.401 278.105 325.476 279.957C324.55 281.808 321.311 285.973 322.391 288.904C323.471 291.835 325.168 293.378 328.562 293.378C331.956 293.378 333.961 293.532 334.733 293.378C335.504 293.224 349.234 300.011 347.691 300.166C346.148 300.32 347.074 286.436 347.074 286.436L339.823 273.632Z" fill="#FFCDB7" stroke="#263238" stroke-miterlimit="10" stroke-linecap="round" stroke-linejoin="round"/>
<path d="M308.662 281.808C308.662 281.808 315.913 278.26 319.461 274.712C323.009 271.164 324.243 270.238 325.477 269.93C326.711 269.622 331.648 268.233 332.882 267.153C334.116 266.073 335.042 268.079 333.19 269.621C331.339 271.164 329.642 272.089 328.871 272.552C328.1 273.015 327.328 275.174 327.328 275.174C327.328 275.174 334.887 271.934 337.51 272.706C340.133 273.477 342.729 275.815 342.575 277.203C342.421 278.591 341.928 277.915 340.231 277.761C338.534 277.607 336.122 276.871 334.271 277.642C332.42 278.413 330.26 280.265 330.26 281.036C330.26 281.807 332.42 282.27 334.117 282.116C335.814 281.962 337.048 281.499 338.745 281.807C340.442 282.116 341.83 283.041 341.985 283.967C342.139 284.893 341.368 284.893 339.517 285.047C337.666 285.201 334.426 285.356 333.346 286.127C332.266 286.898 326.712 289.521 327.638 290.446C328.564 291.371 329.117 291.377 330.968 291.377C332.819 291.377 334.802 289.955 335.879 290.038C337.33 290.15 338.111 290.261 338.111 290.261C338.111 290.261 340.678 290.373 340.455 291.377C340.095 292.999 339.227 293.051 335.506 293.223C332.578 293.358 331.804 293.069 329.181 293.686C326.558 294.303 326.713 294.612 322.239 294.92C317.765 295.229 309.744 293.069 309.744 293.069L308.662 281.808Z" fill="#FFCDB7" stroke="#263238" stroke-miterlimit="10" stroke-linecap="round" stroke-linejoin="round"/>
<path d="M337.775 271.735C337.775 271.735 334.65 268.833 332.864 268.722C331.078 268.61 325.609 273.41 324.828 275.195C324.047 276.981 325.833 276.311 327.283 275.865C328.734 275.419 332.64 273.633 333.98 273.075C335.319 272.517 335.905 272.451 337.509 272.707" fill="#FFCDB7"/>
<path d="M337.775 271.735C337.775 271.735 334.65 268.833 332.864 268.722C331.078 268.61 325.609 273.41 324.828 275.195C324.047 276.981 325.833 276.311 327.283 275.865C328.734 275.419 332.64 273.633 333.98 273.075C335.319 272.517 335.905 272.451 337.509 272.707" stroke="#263238" stroke-miterlimit="10" stroke-linecap="round" stroke-linejoin="round"/>
<path d="M341.793 278.096C341.793 278.096 337.329 275.864 334.538 277.091C331.748 278.319 328.288 280.774 328.288 281.89C328.288 283.006 328.846 282.783 331.302 282.671C333.757 282.559 338.15 281.835 338.744 281.807C339.338 281.778 341.347 282.336 341.347 282.336" fill="#FFCDB7"/>
<path d="M341.793 278.096C341.793 278.096 337.329 275.864 334.538 277.091C331.748 278.319 328.288 280.774 328.288 281.89C328.288 283.006 328.846 282.783 331.302 282.671C333.757 282.559 338.15 281.835 338.744 281.807C339.338 281.778 341.347 282.336 341.347 282.336" stroke="#263238" stroke-miterlimit="10" stroke-linecap="round" stroke-linejoin="round"/>
<path d="M279.197 264.685L275.34 285.357C275.34 285.357 308.816 278.724 310.05 279.649C311.284 280.575 312.403 305.106 312.403 305.106C312.403 305.106 269.169 312.662 264.079 314.359C258.988 316.056 253.743 316.364 251.892 314.822C250.041 313.279 249.887 309.423 251.275 301.864C252.663 294.305 265.93 239.078 265.93 239.078" fill="#33AD43"/>
<path d="M279.197 264.685L275.34 285.357C275.34 285.357 308.816 278.724 310.05 279.649C311.284 280.575 312.403 305.106 312.403 305.106C312.403 305.106 269.169 312.662 264.079 314.359C258.988 316.056 253.743 316.364 251.892 314.822C250.041 313.279 249.887 309.423 251.275 301.864C252.663 294.305 265.93 239.078 265.93 239.078" stroke="#263238" stroke-miterlimit="10" stroke-linecap="round" stroke-linejoin="round"/>
<path d="M356.793 263.296L358.181 286.899L347.074 286.436L345.965 306C345.965 306 376.593 313.124 378.29 314.05C379.987 314.976 379.678 313.124 381.684 310.193C383.689 307.262 385.386 300.937 385.232 298.16C385.078 295.383 378.753 286.127 378.599 286.59" fill="#33AD43"/>
<path d="M356.793 263.296L358.181 286.899L347.074 286.436L345.965 306C345.965 306 376.593 313.124 378.29 314.05C379.987 314.976 379.678 313.124 381.684 310.193C383.689 307.262 385.386 300.937 385.232 298.16C385.078 295.383 378.753 286.127 378.599 286.59" stroke="#263238" stroke-miterlimit="10" stroke-linecap="round" stroke-linejoin="round"/>
<path d="M358.181 286.899H368.517" stroke="#263238" stroke-miterlimit="10" stroke-linecap="round" stroke-linejoin="round"/>
<path d="M275.34 285.356L261.61 290.139" stroke="#263238" stroke-miterlimit="10" stroke-linecap="round" stroke-linejoin="round"/>
<path d="M278.617 452.614C278.617 452.614 276.38 462.235 273.247 465.591C270.115 468.947 267.206 471.185 267.43 473.87C267.654 476.555 267.654 476.555 267.654 476.555H299.874C299.874 476.555 299.874 473.199 299.874 468.5C299.874 463.801 297.86 455.523 297.86 452.167C297.86 448.811 277.723 452.391 277.723 452.391" fill="#263238"/>
<path d="M278.617 452.614C278.617 452.614 276.38 462.235 273.247 465.591C270.115 468.947 267.206 471.185 267.43 473.87C267.654 476.555 267.654 476.555 267.654 476.555H299.874C299.874 476.555 299.874 473.199 299.874 468.5C299.874 463.801 297.86 455.523 297.86 452.167C297.86 448.811 277.723 452.391 277.723 452.391" stroke="#263238" stroke-miterlimit="10" stroke-linecap="round" stroke-linejoin="round"/>
<path d="M268.204 471.185C267.655 472.069 267.352 472.943 267.43 473.87C267.654 476.555 267.654 476.555 267.654 476.555H299.874C299.874 476.555 299.874 474.424 299.874 471.185H268.204Z" fill="#586166" stroke="#263238" stroke-miterlimit="10" stroke-linecap="round" stroke-linejoin="round"/>
<path d="M306.586 367.142C306.586 367.142 309.718 347.228 304.349 338.055C298.979 328.881 280.184 328.658 269.668 334.922C259.152 341.187 255.071 351.449 258.874 364.65C262.678 377.851 271.458 378.105 271.458 378.105C271.458 378.105 269.22 396.229 269.22 403.388C269.22 410.548 276.827 455.074 276.827 455.074H298.978C298.978 455.074 306.138 376.54 306.586 367.142Z" fill="#586166" stroke="#263238" stroke-miterlimit="10" stroke-linecap="round" stroke-linejoin="round"/>
<path d="M271.457 378.106L273.695 359.758" stroke="#263238" stroke-miterlimit="10" stroke-linecap="round" stroke-linejoin="round"/>
<path d="M343.752 452.614C343.752 452.614 345.989 462.235 349.122 465.591C352.254 468.947 355.163 471.185 354.939 473.87C354.715 476.555 354.715 476.555 354.715 476.555H322.495C322.495 476.555 322.495 473.199 322.495 468.5C322.495 463.801 324.509 455.523 324.509 452.167C324.509 448.811 344.646 452.391 344.646 452.391" fill="#263238"/>
<path d="M343.752 452.614C343.752 452.614 345.989 462.235 349.122 465.591C352.254 468.947 355.163 471.185 354.939 473.87C354.715 476.555 354.715 476.555 354.715 476.555H322.495C322.495 476.555 322.495 473.199 322.495 468.5C322.495 463.801 324.509 455.523 324.509 452.167C324.509 448.811 344.646 452.391 344.646 452.391" stroke="#263238" stroke-miterlimit="10" stroke-linecap="round" stroke-linejoin="round"/>
<path d="M354.165 471.185C354.714 472.069 355.017 472.943 354.939 473.87C354.715 476.555 354.715 476.555 354.715 476.555H322.495C322.495 476.555 322.495 474.424 322.495 471.185H354.165Z" fill="#586166" stroke="#263238" stroke-miterlimit="10" stroke-linecap="round" stroke-linejoin="round"/>
<path d="M315.783 367.142C315.783 367.142 312.651 347.228 318.021 338.055C323.391 328.881 342.186 328.658 352.702 334.922C363.218 341.187 367.387 351.449 363.583 364.65C359.779 377.851 350.912 378.105 350.912 378.105C350.912 378.105 353.15 396.229 353.15 403.388C353.15 410.548 345.543 455.074 345.543 455.074H323.392C323.392 455.074 316.231 376.54 315.783 367.142Z" fill="#586166" stroke="#263238" stroke-miterlimit="10" stroke-linecap="round" stroke-linejoin="round"/>
<path d="M350.912 378.106L348.674 359.758" stroke="#263238" stroke-miterlimit="10" stroke-linecap="round" stroke-linejoin="round"/>
<path d="M361.624 130.066H405.882C408.489 130.066 410.603 132.18 410.603 134.787V155.327C410.603 157.934 408.489 160.048 405.882 160.048H392.586L396.059 169.445L385.127 160.048H361.624C359.017 160.048 356.903 157.934 356.903 155.327V134.787C356.903 132.18 359.017 130.066 361.624 130.066Z" fill="#263238" stroke="#263238" stroke-miterlimit="10" stroke-linecap="round" stroke-linejoin="round"/>
<path d="M394.828 147.071C396.249 147.071 397.401 145.919 397.401 144.498C397.401 143.077 396.249 141.925 394.828 141.925C393.407 141.925 392.255 143.077 392.255 144.498C392.255 145.919 393.407 147.071 394.828 147.071Z" fill="#33AD43"/>
<path d="M382.522 147.071C383.943 147.071 385.095 145.919 385.095 144.498C385.095 143.077 383.943 141.925 382.522 141.925C381.101 141.925 379.949 143.077 379.949 144.498C379.949 145.919 381.101 147.071 382.522 147.071Z" fill="#33AD43"/>
<path d="M370.216 147.071C371.637 147.071 372.789 145.919 372.789 144.498C372.789 143.077 371.637 141.925 370.216 141.925C368.795 141.925 367.643 143.077 367.643 144.498C367.643 145.919 368.795 147.071 370.216 147.071Z" fill="#33AD43"/>
<path d="M189.673 297.195L181.9 313.605H203.925L211.698 297.995L189.673 297.195Z" fill="#263238" stroke="#263238" stroke-miterlimit="10" stroke-linecap="round" stroke-linejoin="round"/>
<path d="M238.041 297.195H189.673L197.447 313.605H245.815L238.041 297.195Z" fill="white" stroke="#263238" stroke-miterlimit="10" stroke-linecap="round" stroke-linejoin="round"/>
<path d="M152.08 336.206H141.178V476.496H152.08V336.206Z" fill="#A3A3A3" stroke="#263238" stroke-miterlimit="10" stroke-linecap="round" stroke-linejoin="round"/>
<path d="M500.982 336.574H490.08V476.864H500.982V336.574Z" fill="#A3A3A3" stroke="#263238" stroke-miterlimit="10" stroke-linecap="round" stroke-linejoin="round"/>
<path d="M505.769 313.16H138.812V448.374H505.769V313.16Z" fill="#A3A3A3" stroke="#263238" stroke-miterlimit="10" stroke-linecap="round" stroke-linejoin="round"/>
<path d="M505.769 313.16H138.812V327.227H505.769V313.16Z" fill="#263238" stroke="#263238" stroke-miterlimit="10" stroke-linecap="round" stroke-linejoin="round"/>
<path d="M515.113 313.16H129.468V321.551H515.113V313.16Z" fill="white" stroke="#263238" stroke-miterlimit="10" stroke-linecap="round" stroke-linejoin="round"/>
<path d="M144.692 437.036C144.692 437.036 119.922 384.278 125.31 382.749C130.698 381.22 141.971 389.63 141.971 389.63C141.971 389.63 108.862 300.936 117.432 294.054C126.003 287.173 142.006 322.344 142.006 322.344C142.006 322.344 124.918 268.057 126.927 247.413C128.936 226.769 150.648 246.648 150.648 246.648C150.648 246.648 133.258 172.481 149.403 168.658C165.549 164.835 165.015 253.529 165.015 253.529C165.015 253.529 170.314 190.067 176.786 207.653C183.259 225.239 169.656 284.114 169.656 284.114C169.656 284.114 178.529 264.234 183.454 282.585C188.379 300.936 173.656 375.102 173.656 375.102C173.656 375.102 186.174 362.868 187.348 378.16C188.522 393.452 161.423 440.858 161.423 440.858L146.095 442.387L144.692 437.036Z" fill="#33AD43"/>
<path opacity="0.6" d="M144.692 437.036C144.692 437.036 119.922 384.278 125.31 382.749C130.698 381.22 141.971 389.63 141.971 389.63C141.971 389.63 108.862 300.936 117.432 294.054C126.003 287.173 142.006 322.344 142.006 322.344C142.006 322.344 124.918 268.057 126.927 247.413C128.936 226.769 150.648 246.648 150.648 246.648C150.648 246.648 133.258 172.481 149.403 168.658C165.549 164.835 165.015 253.529 165.015 253.529C165.015 253.529 170.314 190.067 176.786 207.653C183.259 225.239 169.656 284.114 169.656 284.114C169.656 284.114 178.529 264.234 183.454 282.585C188.379 300.936 173.656 375.102 173.656 375.102C173.656 375.102 186.174 362.868 187.348 378.16C188.522 393.452 161.423 440.858 161.423 440.858L146.095 442.387L144.692 437.036Z" fill="white"/>
<path d="M149.979 439.33C149.979 439.33 129.335 402.629 133.158 395.747C136.981 388.865 148.45 404.922 148.45 404.922C148.45 404.922 122.453 339.93 126.276 333.814C130.099 327.697 142.333 354.458 142.333 354.458C142.333 354.458 137.745 264.999 145.391 268.058C153.037 271.117 153.802 313.934 153.802 313.934C153.802 313.934 149.214 212.241 156.096 215.3C162.978 218.359 162.213 331.52 162.213 331.52C162.213 331.52 175.976 287.938 178.27 307.817C180.564 327.697 160.684 381.219 160.684 381.219C160.684 381.219 179.799 339.166 182.093 361.339C184.387 383.513 166.801 424.801 166.801 424.801C166.801 424.801 173.683 407.98 173.683 417.155C173.683 426.33 168.331 437.799 168.331 437.799" stroke="#263238" stroke-miterlimit="10" stroke-linecap="round" stroke-linejoin="round"/>
<path d="M177.885 439.039H134.177V476.864H177.885V439.039Z" fill="#263238" stroke="#263238" stroke-miterlimit="10"/>
<path d="M417.788 183.083C417.788 183.083 413.313 190.467 412.642 193.823C411.971 197.179 413.09 198.522 412.195 200.983C411.3 203.444 407.496 203.444 407.496 205.906C407.496 208.368 410.181 210.605 411.076 211.276C411.971 211.947 410.405 214.856 411.971 219.107C413.537 223.358 414.209 228.728 416.893 228.728C419.578 228.728 425.172 227.833 425.172 227.833L426.514 236L444.973 234.322C444.973 234.322 444.749 226.267 449.672 222.911C454.594 219.555 464.327 200.312 458.51 187.783C452.693 175.252 428.304 172.791 417.788 183.083Z" fill="#FFCDB7" stroke="#263238" stroke-miterlimit="10" stroke-linecap="round" stroke-linejoin="round"/>
<path d="M411.659 173.8C411.071 175.657 410.822 177.707 410.941 179.877C411.155 183.782 412.499 187.687 414.518 191.02C416.8 194.789 422.265 197.187 423.606 201.207C424.053 202.549 425.172 206.129 428.305 207.024C431.438 207.919 430.766 207.919 429.871 213.96C428.976 220.001 431.661 226.042 437.031 227.609C442.401 229.175 447.547 227.833 451.798 224.476C456.049 221.12 464.104 207.248 464.328 194.717C464.724 172.547 442.87 161.693 423.158 164.417C417.248 165.234 413.235 168.826 411.659 173.8Z" fill="#263238" stroke="#263238" stroke-miterlimit="10" stroke-linecap="round" stroke-linejoin="round"/>
<path d="M435.36 230.264C435.36 230.264 430.596 230.264 426.738 232.308C424.237 233.633 415.551 241.929 413.313 243.272C411.076 244.614 406.824 243.943 409.286 245.062C411.747 246.181 413.537 246.405 417.788 244.838C422.039 243.272 430.989 240.139 433.674 240.139C436.359 240.139 446.204 241.481 447.099 241.705C447.994 241.929 453.812 244.614 453.812 244.614C453.812 244.614 450.903 238.349 447.547 235.217C444.19 232.084 440.058 230.04 435.36 230.264Z" fill="white" stroke="#263238" stroke-miterlimit="10" stroke-linecap="round" stroke-linejoin="round"/>
<path d="M428.09 202.425C427.106 202.776 426.548 203.82 426.657 204.86C426.867 206.863 427.169 210.957 426.515 213.737C425.62 217.541 430.369 217.542 431.409 211.306C432.093 207.193 430.529 201.555 428.09 202.425Z" fill="#FFCDB7" stroke="#263238" stroke-miterlimit="10" stroke-linecap="round" stroke-linejoin="round"/>
<path d="M390.715 254.011C390.715 254.011 388.03 255.353 387.806 261.842C387.582 268.331 376.395 313.975 375.724 321.135C375.053 328.295 378.857 332.994 385.345 335.455C391.834 337.916 404.14 341.944 406.377 340.825C408.614 339.706 412.866 316.66 414.432 306.592C415.998 296.523 397.203 261.619 396.308 260.276C395.413 258.933 392.281 254.235 390.715 254.011Z" fill="white" stroke="#263238" stroke-miterlimit="10" stroke-linecap="round" stroke-linejoin="round"/>
<path d="M405.258 307.487L392.952 325.834" stroke="#263238" stroke-miterlimit="10" stroke-linecap="round" stroke-linejoin="round"/>
<path d="M428.975 388.95L444.515 474.975C444.722 476.121 445.891 476.822 446.999 476.465C447.884 476.18 448.439 475.304 448.318 474.382L436.848 387.121L428.975 388.95Z" fill="white" stroke="#263238" stroke-miterlimit="10" stroke-linecap="round" stroke-linejoin="round"/>
<path d="M411.747 370.155C411.747 370.155 405.93 448.69 405.93 450.928C405.93 453.165 399.889 476.659 399.889 476.659H415.999C415.999 476.659 417.565 473.526 417.565 467.038C417.565 460.549 418.236 446.677 418.236 445.335C418.236 443.993 436.136 374.631 436.136 374.631C436.136 374.631 435.241 367.695 426.515 363.667C417.788 359.639 413.089 368.365 411.747 370.155Z" fill="#FFCDB7" stroke="#263238" stroke-miterlimit="10" stroke-linecap="round" stroke-linejoin="round"/>
<path d="M417.564 467.038C417.564 461.112 418.124 449.032 418.221 445.959C410.772 441.778 406.153 447.349 406.153 447.349L406.142 447.366C406.006 449.4 405.929 450.672 405.929 450.929C405.929 453.166 399.888 476.66 399.888 476.66H415.998C415.998 476.66 417.564 473.526 417.564 467.038Z" fill="#263238" stroke="#263238" stroke-miterlimit="10" stroke-linecap="round" stroke-linejoin="round"/>
<path d="M415.998 476.659C415.998 476.659 417.564 473.526 417.564 467.038C417.564 464.625 417.657 461.193 417.773 457.763C416.22 455.948 412.872 453.177 409.285 457.417C407.72 459.267 403.587 470.95 401.623 476.659H415.998Z" fill="#4F4F4F" stroke="#263238" stroke-miterlimit="10" stroke-linecap="round" stroke-linejoin="round"/>
<path d="M409.286 457.416L410.628 476.658H414.655L418.011 456.968C418.011 456.968 413.537 451.599 409.286 457.416Z" fill="#263238" stroke="#263238" stroke-miterlimit="10" stroke-linecap="round" stroke-linejoin="round"/>
<path d="M379.08 359.863C379.08 359.863 372.144 367.47 371.473 373.959C370.802 380.448 394.743 449.138 394.743 449.138C394.743 449.138 394.295 452.718 390.939 456.969C387.583 461.22 382.884 467.261 382.213 471.289C381.542 475.316 382.213 476.659 382.213 476.659H398.099C398.099 476.659 403.693 462.339 405.93 458.759C408.168 455.179 406.825 448.243 406.154 445.11C405.483 441.977 399.442 369.707 399.442 369.707C399.442 369.707 394.742 354.493 379.08 359.863Z" fill="#FFCDB7" stroke="#263238" stroke-miterlimit="10" stroke-linecap="round" stroke-linejoin="round"/>
<path d="M405.929 458.759C407.871 455.652 407.116 450.02 406.444 446.538C405.138 445.523 403.034 444.468 400.335 445.111C395.636 446.23 394.741 449.138 394.741 449.138C394.741 449.138 394.293 452.718 390.937 456.969C387.581 461.22 382.882 467.261 382.211 471.289C381.54 475.316 382.211 476.659 382.211 476.659H398.097C398.097 476.659 403.692 462.339 405.929 458.759Z" fill="#263238" stroke="#263238" stroke-miterlimit="10" stroke-linecap="round" stroke-linejoin="round"/>
<path d="M389.925 476.659H398.098C398.098 476.659 403.074 463.922 405.516 459.472C404.316 458.367 400.685 455.562 397.203 458.312C392.952 461.668 392.504 469.947 391.386 473.079C390.86 474.552 390.335 475.774 389.925 476.659Z" fill="#4F4F4F" stroke="#263238" stroke-miterlimit="10" stroke-linecap="round" stroke-linejoin="round"/>
<path d="M397.203 458.312L398.098 476.659H401.007L405.929 458.759C405.929 458.759 401.454 454.284 397.203 458.312Z" fill="#263238" stroke="#263238" stroke-miterlimit="10" stroke-linecap="round" stroke-linejoin="round"/>
<path d="M397.141 284.342C400.865 296.902 404.196 320.45 404.196 322.652C404.196 326.679 392.505 349.775 392.505 349.775C392.505 349.775 379.528 356.487 376.395 361.186C373.263 365.885 373.263 371.031 375.5 375.506C377.737 379.981 381.094 381.995 388.477 383.337C395.86 384.679 464.551 383.337 464.551 383.337C464.551 383.337 471.711 374.611 468.355 360.738C466.793 354.283 465.09 348.669 463.209 340.825C463.209 340.825 470.593 341.049 475.963 336.574C481.333 332.099 481.557 325.163 481.557 320.017C481.557 314.871 478.201 271.911 478.201 267.66C478.201 263.409 477.977 258.039 473.95 254.906C469.923 251.773 460.525 246.851 452.023 242.376C445.323 238.85 440.388 239.467 435.018 239.467C429.648 239.467 423.159 243.494 423.159 243.494C423.159 243.494 393.401 251.325 391.163 252.668C389.072 253.923 389.717 255.372 390.541 260.305" fill="white"/>
<path d="M397.141 284.342C400.865 296.902 404.196 320.45 404.196 322.652C404.196 326.679 392.505 349.775 392.505 349.775C392.505 349.775 379.528 356.487 376.395 361.186C373.263 365.885 373.263 371.031 375.5 375.506C377.737 379.981 381.094 381.995 388.477 383.337C395.86 384.679 464.551 383.337 464.551 383.337C464.551 383.337 471.711 374.611 468.355 360.738C466.793 354.283 465.09 348.669 463.209 340.825C463.209 340.825 470.593 341.049 475.963 336.574C481.333 332.099 481.557 325.163 481.557 320.017C481.557 314.871 478.201 271.911 478.201 267.66C478.201 263.409 477.977 258.039 473.95 254.906C469.923 251.773 460.525 246.851 452.023 242.376C445.323 238.85 440.388 239.467 435.018 239.467C429.648 239.467 423.159 243.494 423.159 243.494C423.159 243.494 393.401 251.325 391.163 252.668C389.072 253.923 389.717 255.372 390.541 260.305" stroke="#263238" stroke-miterlimit="10" stroke-linecap="round" stroke-linejoin="round"/>
<path d="M466.789 266.541C466.789 266.541 457.633 319.761 457.633 322.67C457.633 325.579 463.209 340.825 463.209 340.825" stroke="#263238" stroke-miterlimit="10" stroke-linecap="round" stroke-linejoin="round"/>
<path d="M403.715 324.899C401.519 331.965 392.504 349.775 392.504 349.775C392.504 349.775 379.527 356.487 376.394 361.186C373.261 365.885 373.261 371.031 375.499 375.506C377.736 379.981 381.093 381.995 388.476 383.337C395.86 384.679 464.55 383.337 464.55 383.337C464.55 383.337 471.71 374.611 468.354 360.738C466.792 354.283 465.089 348.669 463.208 340.824L457.633 324.899H403.715Z" fill="#263238" stroke="#263238" stroke-miterlimit="10"/>
<path d="M384.45 388.036L372.882 474.684C372.728 475.838 373.626 476.864 374.79 476.864C375.72 476.864 376.516 476.2 376.683 475.285L392.504 388.707L384.45 388.036Z" fill="white" stroke="#263238" stroke-miterlimit="10" stroke-linecap="round" stroke-linejoin="round"/>
<path d="M461.021 388.036L472.589 474.684C472.743 475.838 471.845 476.864 470.681 476.864C469.751 476.864 468.955 476.2 468.788 475.285L452.967 388.707L461.021 388.036Z" fill="white" stroke="#263238" stroke-miterlimit="10" stroke-linecap="round" stroke-linejoin="round"/>
<path d="M415.998 388.036L404.43 474.684C404.276 475.838 405.174 476.864 406.338 476.864C407.268 476.864 408.064 476.2 408.231 475.285L424.052 388.707L415.998 388.036Z" fill="white" stroke="#263238" stroke-miterlimit="10" stroke-linecap="round" stroke-linejoin="round"/>
<path d="M473.501 288.916H401.231C401.231 288.916 399.217 305.921 400.336 320.464C401.455 335.008 403.916 353.579 403.469 365.437C403.021 377.296 396.309 383.784 396.309 383.784H380.199C378.593 383.784 377.29 385.086 377.29 386.693C377.29 388.299 378.592 389.602 380.199 389.602H467.237C467.237 389.602 475.292 378.191 474.621 361.186C473.95 344.181 467.237 324.939 469.475 311.29C471.711 297.642 473.501 288.916 473.501 288.916Z" fill="#33AD43" stroke="#263238" stroke-miterlimit="10" stroke-linecap="round" stroke-linejoin="round"/>
<path d="M454.371 184.985C454.371 184.985 449.896 186.775 449.672 191.026C449.448 195.277 448.106 209.821 442.736 218.099C437.366 226.378 442.736 239.579 455.937 241.592C469.138 243.606 479.878 223.692 474.955 203.107C470.033 182.524 458.846 183.195 454.371 184.985Z" fill="#263238" stroke="#263238" stroke-miterlimit="10" stroke-linecap="round" stroke-linejoin="round"/>
<path d="M97 476.864H534.333" stroke="#263238" stroke-miterlimit="10" stroke-linecap="round" stroke-linejoin="round"/>
</svg>
