<svg width="550" height="477" viewBox="0 0 550 477" fill="none" xmlns="http://www.w3.org/2000/svg">
<circle cx="218" cy="218" r="218" fill="#EEEEEE"/>
<path d="M550 375.634C550.013 375.658 549.689 375.868 549.06 376.247C548.362 376.657 547.442 377.198 546.292 377.873C543.795 379.297 540.308 381.288 536.027 383.73C527.252 388.649 515.241 395.383 501.937 402.843L501.657 403L501.448 402.753C501.288 402.564 501.116 402.36 500.942 402.155C490.992 390.307 481.987 379.585 475.402 371.745C472.204 367.878 469.598 364.727 467.732 362.471C466.878 361.412 466.194 360.565 465.677 359.923C465.213 359.335 464.98 359.018 465.001 359.001C465.022 358.983 465.295 359.265 465.798 359.82C466.343 360.437 467.064 361.253 467.965 362.272C469.878 364.488 472.549 367.584 475.826 371.382C482.455 379.183 491.522 389.852 501.542 401.642C501.714 401.846 501.888 402.051 502.047 402.24L501.558 402.15C514.906 394.772 526.956 388.111 535.761 383.244C540.092 380.893 543.62 378.977 546.146 377.605C547.325 376.983 548.269 376.486 548.985 376.108C549.638 375.774 549.986 375.611 550 375.634Z" fill="#E0E0E0"/>
<path d="M454.002 415.997C453.865 415.827 461.813 409.199 471.752 401.193C481.693 393.186 489.861 386.834 489.998 387.003C490.135 387.172 482.189 393.799 472.247 401.808C462.309 409.812 454.139 416.166 454.002 415.997Z" fill="#E0E0E0"/>
<path d="M518.006 392.001C518.202 391.902 523.059 400.999 528.853 412.319C534.65 423.643 539.189 432.9 538.994 432.999C538.798 433.098 533.942 424.003 528.146 412.679C522.351 401.359 517.81 392.1 518.006 392.001Z" fill="#E0E0E0"/>
<path d="M513 108.518C513 108.552 512.497 108.584 511.539 108.616C510.492 108.638 509.097 108.668 507.35 108.706C503.611 108.743 498.372 108.795 491.941 108.859C478.843 108.894 460.913 108.945 441.105 109C439.864 109 438.629 109 437.481 108.999H437L437.001 108.518C437.059 89.4626 437.111 72.3748 437.149 59.9318C437.211 53.8301 437.262 48.8728 437.299 45.3333C437.336 43.685 437.364 42.3696 437.387 41.3769C437.418 40.4733 437.448 40 437.481 40C437.513 40 437.544 40.4733 437.575 41.3769C437.596 42.3696 437.626 43.685 437.663 45.3333C437.699 48.8728 437.749 53.8291 437.813 59.9318C437.85 72.3748 437.902 89.4626 437.961 108.518L437.482 108.038C438.63 108.038 439.865 108.038 441.106 108.037C460.914 108.092 478.844 108.141 491.942 108.178C498.373 108.242 503.612 108.294 507.351 108.331C509.098 108.369 510.493 108.399 511.54 108.421C512.497 108.453 513 108.486 513 108.518Z" fill="#E0E0E0"/>
<path d="M504.998 57.0026C505.041 57.0537 504.238 57.8177 502.748 59.1558C501.122 60.5857 498.977 62.4733 496.383 64.7562C490.982 69.4526 483.476 75.8906 475.15 82.9557L473.888 84.0251L473.564 84.2999L473.254 84.0108C469.926 80.9108 466.748 77.9508 463.81 75.2154L464.399 75.2287C458.838 79.8251 454.063 83.7718 450.53 86.6931C448.898 88.0005 447.556 89.076 446.505 89.9197C445.559 90.6572 445.034 91.0361 445.002 90.9973C444.969 90.9585 445.432 90.505 446.318 89.697C447.327 88.8033 448.615 87.6624 450.179 86.2753C453.656 83.2866 458.355 79.248 463.826 74.5454L464.122 74.29L464.415 74.5597C467.365 77.2797 470.559 80.2234 473.903 83.306L473.269 83.2928L474.53 82.2223C482.857 75.1572 490.431 68.802 495.945 64.2373C498.619 62.0494 500.831 60.2405 502.506 58.8698C504.071 57.6206 504.956 56.9526 504.998 57.0026Z" fill="#E0E0E0"/>
<path d="M504.529 73C504.403 73 504.288 71.1721 504.203 68.1949C504.119 65.2167 504.063 61.0893 504.057 56.4893L504.528 56.9775C504.274 56.9775 504.001 56.9785 503.726 56.9785C499.107 56.9785 494.925 56.9233 491.899 56.8349C488.872 56.7464 487 56.6246 487 56.4893C487 56.3539 488.872 56.2321 491.899 56.1437C494.925 56.0552 499.107 56 503.726 56C504.001 56 504.274 56 504.528 56H505V56.4882C504.994 61.0882 504.939 65.2167 504.854 68.1939C504.77 71.1731 504.656 73 504.529 73Z" fill="#E0E0E0"/>
<path d="M467.164 64.4289L163 87L191.701 475.942L495.865 453.371L467.164 64.4289Z" fill="white"/>
<path d="M190.818 477L190.78 476.493L162 86.656L162.506 86.6184L467.183 64L467.221 64.5077L496 454.344L495.495 454.382L190.818 477ZM163.087 87.5961L191.754 475.91L494.913 453.403L466.246 65.0896L163.087 87.5961Z" fill="#263238"/>
<path d="M439.787 82.0976L358 88L358.378 92.9857L440.166 87.0832L439.787 82.0976Z" fill="#33AD43"/>
<path d="M439 122.019C439.001 122.038 438.828 122.069 438.496 122.112C438.103 122.156 437.623 122.209 437.043 122.274C435.698 122.399 433.888 122.566 431.69 122.77C427.093 123.16 420.884 123.688 414.023 124.271C407.12 124.851 400.867 125.314 396.337 125.613C394.134 125.746 392.321 125.856 390.973 125.937C390.389 125.961 389.907 125.981 389.512 125.997C389.178 126.004 389.002 126 389 125.981C388.999 125.962 389.172 125.931 389.504 125.888C389.897 125.844 390.377 125.791 390.957 125.727C392.302 125.601 394.111 125.435 396.31 125.23C400.907 124.84 407.116 124.313 413.98 123.73C420.881 123.15 427.133 122.687 431.663 122.388C433.866 122.254 435.679 122.145 437.028 122.063C437.612 122.039 438.094 122.019 438.489 122.003C438.822 121.996 438.999 122.001 439 122.019Z" fill="#33AD43"/>
<path d="M444 142.012C444.011 142.16 426.109 143.616 404.021 145.266C381.926 146.916 364.011 148.136 364 147.988C363.989 147.841 381.887 146.384 403.983 144.734C426.07 143.084 443.989 141.865 444 142.012Z" fill="#263238"/>
<path d="M445 167.012C445.011 167.159 427.109 168.616 405.021 170.266C382.926 171.916 365.011 173.136 365 172.988C364.989 172.841 382.887 171.384 404.983 169.734C427.071 168.084 444.99 166.865 445 167.012Z" fill="#263238"/>
<path d="M445 155.012C445.011 155.159 427.109 156.616 405.021 158.266C382.926 159.916 365.011 161.136 365 160.988C364.989 160.841 382.887 159.384 404.983 157.734C427.071 156.084 444.99 154.865 445 155.012Z" fill="#263238"/>
<path d="M277 333.022C277.011 333.163 267.84 333.937 256.52 334.754C245.195 335.571 236.01 336.119 236 335.978C235.989 335.838 245.158 335.062 256.482 334.246C267.802 333.43 276.989 332.882 277 333.022Z" fill="#33AD43"/>
<path d="M261 357.016C261.011 357.157 248.483 358.159 233.021 359.255C217.554 360.35 205.011 361.125 205 360.983C204.989 360.843 217.515 359.841 232.981 358.745C248.443 357.649 260.989 356.876 261 357.016Z" fill="#33AD43"/>
<path d="M362 359.006C362.011 359.157 327.095 361.964 284.023 365.274C240.936 368.584 206.011 371.145 206 370.994C205.989 370.843 240.898 368.037 283.985 364.725C327.057 361.416 361.99 358.855 362 359.006Z" fill="#263238"/>
<path d="M263 381.016C263.011 381.157 250.483 382.159 235.021 383.255C219.554 384.35 207.011 385.125 207 384.983C206.989 384.843 219.515 383.841 234.981 382.745C250.443 381.65 262.99 380.876 263 381.016Z" fill="#33AD43"/>
<path d="M363 383.006C363.011 383.157 328.095 385.964 285.023 389.274C241.936 392.584 207.011 395.145 207 394.994C206.989 394.843 241.898 392.036 284.985 388.725C328.056 385.416 362.99 382.855 363 383.006Z" fill="#263238"/>
<path d="M264 404.016C264.011 404.157 251.482 405.159 236.021 406.255C220.555 407.35 208.011 408.125 208 407.983C207.989 407.843 220.515 406.841 235.981 405.745C251.443 404.65 263.989 403.876 264 404.016Z" fill="#33AD43"/>
<path d="M365 406.006C365.011 406.158 330.095 408.964 287.023 412.274C243.936 415.584 209.011 418.145 209 417.994C208.989 417.843 243.898 415.037 286.985 411.725C330.056 408.416 364.989 405.855 365 406.006Z" fill="#263238"/>
<path d="M268 428.017C268.011 428.157 255.483 429.159 240.021 430.254C224.554 431.35 212.011 432.125 212 431.983C211.989 431.843 224.515 430.841 239.981 429.745C255.443 428.65 267.99 427.875 268 428.017Z" fill="#33AD43"/>
<path d="M369 430.006C369.011 430.157 334.095 432.964 291.023 436.274C247.936 439.584 213.011 442.145 213 441.994C212.989 441.843 247.898 439.036 290.985 435.725C334.057 432.417 368.99 429.856 369 430.006Z" fill="#263238"/>
<path d="M225.945 327.552L207 329L207.929 341.967L226.874 340.518L225.945 327.552Z" fill="#33AD43"/>
<path d="M221.982 341.462L214 342L214.243 344.99L222.225 344.453L221.982 341.462Z" fill="#33AD43"/>
<path d="M225 344.046C225.013 344.16 222.114 344.458 218.525 344.709C214.934 344.959 212.013 345.069 212 344.954C211.987 344.84 214.885 344.543 218.476 344.291C222.066 344.041 224.987 343.931 225 344.046Z" fill="#33AD43"/>
<path d="M379 313.896L391.095 307L403 311.7L391.85 319L379 313.896Z" fill="#33AD43"/>
<path d="M382 316.383L382.488 324L401 322.344L400.364 315L391.812 320.259L382 316.383Z" fill="#33AD43"/>
<path d="M455 315.022C455.011 315.162 445.617 315.937 434.021 316.754C422.42 317.571 413.011 318.119 413 317.978C412.989 317.838 422.38 317.062 433.981 316.246C445.578 315.43 454.989 314.882 455 315.022Z" fill="#33AD43"/>
<path d="M412 340.03C412.011 340.164 405.527 340.707 397.521 341.242C389.511 341.778 383.011 342.104 383 341.97C382.989 341.836 389.471 341.293 397.481 340.758C405.488 340.222 411.99 339.896 412 340.03Z" fill="#263238"/>
<path d="M464 347.012C464.011 347.159 446.109 348.615 424.021 350.266C401.926 351.917 384.011 353.135 384 352.988C383.989 352.841 401.886 351.384 423.982 349.734C446.071 348.084 463.989 346.865 464 347.012Z" fill="#263238"/>
<path d="M414 367.03C414.011 367.163 407.527 367.707 399.521 368.243C391.511 368.778 385.011 369.104 385 368.97C384.989 368.836 391.471 368.293 399.48 367.758C407.488 367.222 413.99 366.896 414 367.03Z" fill="#263238"/>
<path d="M466 373.012C466.011 373.159 448.109 374.616 426.021 376.266C403.926 377.917 386.011 379.135 386 378.988C385.989 378.841 403.886 377.384 425.982 375.733C448.071 374.084 465.989 372.865 466 373.012Z" fill="#263238"/>
<path d="M416 393.03C416.011 393.163 409.527 393.707 401.521 394.243C393.511 394.778 387.011 395.104 387 394.97C386.989 394.836 393.471 394.293 401.48 393.758C409.488 393.222 415.99 392.896 416 393.03Z" fill="#263238"/>
<path d="M468 399.012C468.011 399.158 450.109 400.616 428.021 402.266C405.926 403.917 388.011 405.135 388 404.988C387.989 404.84 405.887 403.384 427.982 401.733C450.071 400.084 467.99 398.865 468 399.012Z" fill="#263238"/>
<path d="M419 421.03C419.011 421.163 412.527 421.707 404.521 422.242C396.511 422.778 390.011 423.104 390 422.97C389.989 422.836 396.471 422.293 404.48 421.757C412.488 421.222 418.989 420.896 419 421.03Z" fill="#263238"/>
<path d="M471 427.012C471.011 427.159 453.109 428.616 431.021 430.266C408.926 431.917 391.011 433.135 391 432.988C390.989 432.841 408.886 431.384 430.982 429.733C453.07 428.084 470.989 426.865 471 427.012Z" fill="#263238"/>
<path d="M373.049 120.926C374.621 120.125 375.651 118.363 375.516 116.389C375.335 113.802 373.225 111.841 370.801 112.01C368.378 112.178 366.56 114.412 366.741 116.998C366.88 118.991 368.168 120.6 369.86 121.162C363.186 122.68 364.035 130 364.035 130L380 128.891C380 128.891 379.814 121.442 373.049 120.926Z" fill="#33AD43"/>
<path d="M399 224.03C399.011 224.162 392.528 224.705 384.52 225.241C376.51 225.777 370.011 226.104 370 225.97C369.989 225.838 376.471 225.296 384.482 224.759C392.488 224.223 398.989 223.896 399 224.03Z" fill="#263238"/>
<path d="M400 237.03C400.011 237.162 393.528 237.705 385.521 238.241C377.51 238.777 371.011 239.104 371 238.97C370.989 238.838 377.471 238.296 385.482 237.759C393.488 237.223 399.989 236.896 400 237.03Z" fill="#263238"/>
<path d="M455.531 221.34L408.703 224.995C407.829 225.064 407.069 224.372 407.004 223.451C406.939 222.53 407.596 221.727 408.469 221.66L455.297 218.005C456.171 217.936 456.932 218.628 456.996 219.549C457.06 220.469 456.405 221.272 455.531 221.34Z" fill="#E0E0E0"/>
<path d="M448.536 222.1L408.697 224.996C407.826 225.059 407.068 224.417 407.004 223.563C406.94 222.708 407.593 221.963 408.464 221.9L448.303 219.004C449.174 218.941 449.932 219.583 449.996 220.437C450.06 221.291 449.406 222.036 448.536 222.1Z" fill="#33AD43"/>
<path d="M456.531 233.34L409.703 236.995C408.829 237.064 408.069 236.372 408.004 235.451C407.939 234.53 408.596 233.727 409.469 233.66L456.297 230.005C457.171 229.936 457.932 230.628 457.996 231.549C458.06 232.47 457.404 233.273 456.531 233.34Z" fill="#E0E0E0"/>
<path d="M442.532 234.391L409.702 236.995C408.829 237.065 408.068 236.363 408.004 235.427C407.939 234.492 408.595 233.677 409.468 233.609L442.298 231.005C443.171 230.935 443.932 231.637 443.996 232.573C444.061 233.508 443.405 234.323 442.532 234.391Z" fill="#33AD43"/>
<path d="M401 250.03C401.011 250.163 394.528 250.705 386.521 251.241C378.51 251.777 372.011 252.104 372 251.97C371.989 251.838 378.471 251.296 386.482 250.759C394.488 250.223 400.989 249.896 401 250.03Z" fill="#263238"/>
<path d="M402 263.03C402.011 263.162 395.528 263.705 387.52 264.241C379.51 264.777 373.011 265.104 373 264.97C372.989 264.838 379.471 264.296 387.482 263.759C395.488 263.223 401.989 262.896 402 263.03Z" fill="#263238"/>
<path d="M457.531 247.34L410.703 250.995C409.83 251.064 409.069 250.372 409.004 249.451C408.939 248.53 409.596 247.727 410.469 247.66L457.297 244.005C458.171 243.936 458.932 244.628 458.996 245.549C459.06 246.469 458.404 247.272 457.531 247.34Z" fill="#E0E0E0"/>
<path d="M450.536 248.1L410.697 250.996C409.827 251.059 409.068 250.417 409.004 249.563C408.94 248.708 409.593 247.963 410.464 247.9L450.303 245.004C451.174 244.941 451.932 245.583 451.996 246.437C452.06 247.291 451.406 248.036 450.536 248.1Z" fill="#33AD43"/>
<path d="M458.531 259.34L411.703 262.995C410.829 263.064 410.069 262.372 410.004 261.451C409.939 260.53 410.596 259.727 411.469 259.66L458.297 256.005C459.17 255.936 459.931 256.628 459.995 257.549C460.062 258.469 459.405 259.272 458.531 259.34Z" fill="#E0E0E0"/>
<path d="M444.532 260.391L411.702 262.995C410.829 263.065 410.068 262.363 410.004 261.427C409.939 260.492 410.595 259.677 411.468 259.609L444.298 257.005C445.171 256.935 445.932 257.637 445.996 258.573C446.06 259.508 445.405 260.323 444.532 260.391Z" fill="#33AD43"/>
<path d="M404 276.03C404.011 276.162 397.528 276.705 389.521 277.241C381.51 277.776 375.01 278.104 375 277.97C374.99 277.837 381.471 277.295 389.482 276.759C397.488 276.223 403.99 275.897 404 276.03Z" fill="#263238"/>
<path d="M460.53 273.34L413.703 276.995C412.829 277.064 412.068 276.372 412.004 275.451C411.94 274.529 412.595 273.727 413.469 273.66L460.297 270.005C461.171 269.936 461.932 270.628 461.996 271.549C462.06 272.47 461.404 273.273 460.53 273.34Z" fill="#E0E0E0"/>
<path d="M439.538 275.109L413.695 276.996C412.825 277.06 412.068 276.416 412.004 275.558C411.941 274.701 412.592 273.954 413.462 273.891L439.305 272.004C440.175 271.94 440.932 272.584 440.996 273.442C441.06 274.298 440.408 275.045 439.538 275.109Z" fill="#33AD43"/>
<path d="M383 211.18L381.356 208.189C382.083 206.971 382.504 205.536 382.504 204C382.504 199.582 379.033 196 374.752 196C370.47 196 367 199.582 367 204C367 208.418 370.471 212 374.752 212C376.539 212 378.185 211.374 379.496 210.324L379.493 210.327L383 211.18Z" fill="#33AD43"/>
<path d="M443 200.022C443.011 200.182 432.274 201.198 419.021 202.29C405.764 203.382 395.01 204.139 395 203.978C394.989 203.819 405.724 202.803 418.982 201.709C432.234 200.618 442.989 199.861 443 200.022Z" fill="#33AD43"/>
<path d="M169 87.1636L188.341 317L359 304.249L340.566 74L169 87.1636Z" fill="#EBEBEB"/>
<path d="M344.536 65.4816L176 78L192.984 308.375L361.52 295.856L344.536 65.4816Z" fill="#FAFAFA"/>
<path d="M192.065 309L192.027 308.493L175 77.6285L175.505 77.5908L344.935 65L344.973 65.5069L362 296.373L361.495 296.41L192.065 309ZM176.086 78.5681L193.002 307.91L360.916 295.432L343.999 66.0902L176.086 78.5681Z" fill="#263238"/>
<path d="M310.705 100.634C310.696 100.635 310.671 100.505 310.632 100.249C310.592 99.9665 310.539 99.5898 310.471 99.1097C310.337 98.0772 310.146 96.6052 309.902 94.7231C309.663 92.8074 309.373 90.4776 309.036 87.7782C308.85 86.428 308.754 84.9611 308.376 83.485C308.181 82.751 307.903 82.012 307.449 81.3653C306.996 80.7268 306.353 80.1826 305.567 79.9329C303.996 79.4091 302.068 79.9329 300.739 81.1501C299.387 82.3917 298.635 84.2545 298.261 86.1966C297.509 90.1375 297.885 94.4825 298.664 98.93C299.066 101.156 299.494 103.452 300.003 105.76C300.527 108.059 301.233 110.391 302.502 112.473C303.758 114.53 305.708 116.282 308.082 117.076C309.259 117.463 310.543 117.603 311.768 117.338C313.001 117.108 314.135 116.46 315.081 115.614C316.968 113.87 318.014 111.4 318.317 108.922C318.648 106.425 318.39 103.918 318.122 101.47C317.571 96.5595 317.039 91.8237 316.532 87.3102C316.281 85.0545 316.035 82.8536 315.796 80.7156C315.557 78.5776 315.343 76.5036 314.96 74.5332C314.589 72.5627 314.039 70.6927 313.213 69.0329C312.388 67.3761 311.262 65.9559 309.925 64.9103C307.219 62.821 303.985 62.1733 301.297 62.3256C298.58 62.485 296.317 63.4362 294.888 64.6961C293.432 65.9458 292.78 67.3447 292.434 68.2746C292.104 69.2258 292.034 69.7567 292 69.7496C292 69.7496 292.032 69.2136 292.333 68.2401C292.65 67.2888 293.281 65.8463 294.752 64.5407C296.196 63.2251 298.505 62.22 301.279 62.0302C304.024 61.8465 307.344 62.4759 310.157 64.6148C311.548 65.6869 312.724 67.1508 313.58 68.8492C314.438 70.5496 315.007 72.4561 315.393 74.4489C315.789 76.4427 316.013 78.5279 316.261 80.6628C316.507 82.7998 316.759 84.9997 317.019 87.2544C317.535 91.7669 318.077 96.5027 318.639 101.411C318.911 103.863 319.18 106.409 318.842 108.989C318.529 111.552 317.444 114.154 315.441 116.002C314.436 116.904 313.211 117.604 311.874 117.854C310.546 118.139 309.163 117.986 307.913 117.574C305.394 116.727 303.365 114.889 302.057 112.741C300.744 110.58 300.032 108.193 299.507 105.871C298.997 103.536 298.578 101.254 298.18 99.0112C297.411 94.5383 297.041 90.1365 297.828 86.1113C298.221 84.1215 299.006 82.1714 300.46 80.8486C301.902 79.5492 303.951 78.9949 305.688 79.5776C306.554 79.8598 307.26 80.4679 307.742 81.1613C308.226 81.8628 308.509 82.6414 308.704 83.3997C309.08 84.9296 309.16 86.3925 309.333 87.7427C309.634 90.4461 309.895 92.779 310.109 94.6977C310.31 96.5839 310.468 98.061 310.578 99.0954C310.624 99.5777 310.66 99.9573 310.686 100.241C310.707 100.5 310.714 100.633 310.705 100.634Z" fill="#263238"/>
<path d="M241.747 92.5976L228.191 87C224.527 89.3181 218.555 95.6816 216.89 102.792C215.906 106.995 215.661 110.384 215.886 114.695C216.109 119.005 215.72 123.564 213.321 127.162C211.614 129.723 208.857 131.953 208.807 135.026C208.748 138.565 212.435 141.607 211.684 145.067C211.083 147.838 207.977 149.239 206.351 151.569C203.991 154.95 205.132 159.572 206.67 163.394C210.378 172.612 202.485 185.874 209.442 193C216.292 187.409 236.574 177.043 243.425 171.453C244.947 170.211 246.518 168.906 247.335 167.125C248.522 164.538 247.878 161.53 247.261 158.753C242.45 137.079 240.589 114.761 241.747 92.5976Z" fill="#263238"/>
<path d="M321.174 251.737L314.532 245L243.527 265.047C243.527 265.047 239.628 296.298 240.029 298.295C240.43 300.291 240 306 240 306L337.986 298.36C337.986 298.36 339.123 271.749 321.174 251.737Z" fill="#263238"/>
<path d="M262.996 279.002C263.026 279.023 262.884 279.31 262.599 279.814C262.306 280.312 261.876 281.029 261.276 281.872C260.673 282.71 259.903 283.687 258.872 284.598C257.846 285.511 256.524 286.301 255.036 286.794C252.085 287.793 249.257 288.027 247.245 287.998C246.236 287.985 245.422 287.922 244.863 287.856C244.303 287.789 243.997 287.727 244 287.69C244.006 287.604 245.247 287.682 247.241 287.613C249.229 287.544 251.99 287.253 254.875 286.277C256.305 285.802 257.56 285.068 258.564 284.213C259.571 283.36 260.354 282.433 260.985 281.637C262.228 280.023 262.926 278.953 262.996 279.002Z" fill="#455A64"/>
<path d="M285.984 302C285.946 302.007 285.844 301.666 285.692 301.044C285.539 300.423 285.345 299.519 285.123 298.397C284.683 296.155 284.165 293.04 283.76 289.58C283.357 286.12 283.144 282.972 283.057 280.693C283.014 279.554 282.996 278.631 283.001 277.993C283.005 277.355 283.026 277.001 283.065 277C283.144 276.997 283.26 278.402 283.448 280.671C283.635 282.94 283.909 286.072 284.31 289.522C284.714 292.971 285.168 296.084 285.509 298.337C285.851 300.591 286.062 301.986 285.984 302Z" fill="#455A64"/>
<path d="M292.971 301C292.841 301.013 292.299 295.651 291.763 289.025C291.226 282.396 290.898 277.014 291.029 277C291.16 276.987 291.701 282.348 292.237 288.976C292.773 295.603 293.102 300.987 292.971 301Z" fill="#455A64"/>
<path d="M327.998 264.003C328.024 264.03 327.786 264.337 327.327 264.866C326.868 265.393 326.192 266.146 325.302 267.028C324.411 267.905 323.299 268.911 321.915 269.826C320.534 270.733 318.86 271.539 316.97 271.861C315.08 272.204 313.207 271.878 311.683 271.248C310.145 270.624 308.91 269.757 307.931 268.988C306.951 268.212 306.219 267.514 305.724 267.02C305.23 266.526 304.978 266.231 305.002 266.204C305.064 266.128 306.181 267.201 308.155 268.665C309.147 269.381 310.375 270.19 311.859 270.761C313.335 271.338 315.088 271.627 316.883 271.304C318.679 271 320.297 270.241 321.652 269.384C323.01 268.52 324.129 267.562 325.043 266.732C326.859 265.05 327.936 263.938 327.998 264.003Z" fill="#455A64"/>
<path d="M332 284.005C332.015 284.04 331.686 284.242 331.078 284.577C330.369 284.967 329.51 285.439 328.504 285.992C326.335 287.192 323.371 288.91 320.194 290.978C317.019 293.051 314.236 295.079 312.249 296.589C311.33 297.29 310.546 297.889 309.898 298.383C309.342 298.807 309.023 299.027 309.001 298.997C308.978 298.968 309.254 298.692 309.773 298.216C310.29 297.738 311.059 297.074 312.029 296.278C313.966 294.684 316.729 292.594 319.921 290.511C323.113 288.432 326.12 286.759 328.339 285.646C329.448 285.087 330.355 284.657 330.992 284.383C331.627 284.107 331.985 283.971 332 284.005Z" fill="#455A64"/>
<path d="M267.975 275.999C267.893 276.022 267.59 275.501 267.201 274.626C266.82 273.749 266.338 272.511 266.109 271.076C265.876 269.641 266.042 268.304 266.36 267.394C266.674 266.479 267.046 265.976 267.113 266.001C267.304 266.049 266.234 268.226 266.748 271.008C266.967 272.385 267.368 273.617 267.636 274.514C267.912 275.411 268.063 275.976 267.975 275.999Z" fill="#455A64"/>
<path d="M272.44 276C272.352 276.014 272.134 275.458 271.836 274.55C271.553 273.639 271.144 272.372 271.023 270.908C270.967 270.177 271.013 269.47 271.152 268.837C271.314 268.207 271.545 267.655 271.825 267.227C272.379 266.366 272.938 265.967 272.988 266.002C273.077 266.056 272.657 266.533 272.242 267.38C271.815 268.225 271.539 269.473 271.669 270.875C271.784 272.274 272.114 273.544 272.285 274.472C272.466 275.401 272.527 275.986 272.44 276Z" fill="#455A64"/>
<path d="M298.814 274C298.637 274.018 298.979 270.369 297.288 266.379C295.656 262.361 292.872 260.125 293.005 260.003C293.038 259.956 293.774 260.433 294.756 261.463C295.737 262.487 296.916 264.118 297.769 266.162C298.614 268.208 298.947 270.221 298.992 271.668C299.039 273.121 298.87 274.007 298.814 274Z" fill="#455A64"/>
<path d="M302.953 272C302.792 272.022 302.574 268.813 301.18 265.201C299.818 261.572 297.877 259.105 298.006 259.002C298.053 258.96 298.598 259.521 299.327 260.564C300.057 261.606 300.941 263.155 301.645 264.999C302.345 266.845 302.723 268.613 302.879 269.899C303.04 271.19 303.014 271.996 302.953 272Z" fill="#455A64"/>
<path d="M285.42 268.868C285.401 268.851 285.615 268.573 286.173 268.309C286.72 268.049 287.659 267.865 288.729 268.213C289.256 268.389 289.805 268.715 290.249 269.225C290.682 269.742 290.969 270.449 290.996 271.206C291.031 271.961 290.833 272.76 290.394 273.46C289.959 274.155 289.227 274.734 288.357 274.926C286.613 275.282 284.88 274.312 284.259 272.904C283.929 272.182 283.973 271.438 284.072 270.8C284.189 270.158 284.399 269.56 284.796 269.114C285.595 268.295 286.5 268.036 287.109 268.002C287.739 267.975 288.039 268.219 288.017 268.237C288 268.285 287.694 268.131 287.13 268.223C286.587 268.31 285.752 268.633 285.097 269.38C284.799 269.744 284.619 270.291 284.535 270.876C284.462 271.46 284.452 272.123 284.731 272.684C285.258 273.848 286.788 274.677 288.236 274.37C289.698 274.052 290.532 272.506 290.475 271.226C290.464 270.574 290.238 269.977 289.887 269.526C289.524 269.082 289.058 268.774 288.593 268.594C287.65 268.236 286.784 268.336 286.252 268.517C285.71 268.698 285.45 268.909 285.42 268.868Z" fill="#455A64"/>
<path d="M222.103 169C221.546 169.684 205.25 180.152 202.795 186.896C200.34 193.641 204.292 221.129 204.969 225.883C205.644 230.637 214.897 248.58 214.897 248.58C214.897 248.58 212.955 256.322 215.504 261.099C218.054 265.875 222.62 268 222.62 268L239 258.958L228.823 212.595L222.103 169Z" fill="#33AD43"/>
<path d="M223.928 218.056C224.387 217.409 225.005 216.991 225.377 216.499C225.749 216.008 226.571 215.789 226.962 216.265C227.406 216.805 226.92 217.594 226.449 218.111C228.068 218.179 229.289 215.963 230.849 216.402C231.869 216.69 232.247 218.062 231.838 219.043C231.43 220.024 230.499 220.673 229.581 221.205C228.664 221.736 227.681 222.233 227.035 223.074C226.696 223.515 226.479 224.181 226.844 224.601C227.464 225.313 228.92 224.472 229.472 225.237C229.846 225.755 229.396 226.454 228.965 226.925C227.402 228.64 225.84 230.354 224.277 232.069C223.864 232.523 223.421 232.996 222.837 233.18C222.253 233.366 221.491 233.137 221.307 232.551C221.126 231.975 221.573 231.38 222.085 231.063C222.597 230.746 223.202 230.578 223.66 230.186C224.118 229.794 224.362 229.031 223.946 228.595C223.427 228.053 222.532 228.507 221.943 228.971C220.119 230.409 218.296 231.846 216.472 233.284C216.071 233.6 215.642 233.928 215.136 233.992C214.629 234.056 214.039 233.736 214.002 233.225C213.983 232.96 214.112 232.709 214.244 232.477C215.24 230.736 216.625 229.222 218.269 228.079C218.892 227.646 219.566 227.251 220.022 226.644C220.478 226.037 220.654 225.134 220.198 224.527C219.124 225.54 217.934 226.43 216.659 227.172C216.204 227.438 215.552 227.655 215.215 227.25C214.867 226.832 215.227 226.215 215.58 225.801C217.467 223.582 219.354 221.362 221.242 219.142C221.723 218.575 222.289 217.966 223.029 217.922L223.928 218.056Z" fill="white"/>
<path d="M231.593 154.083L230.315 162.158L218.301 171.873C218.301 171.873 215.464 190.12 218.168 208.686C218.168 208.686 235.721 256.718 236.149 258.81C236.946 262.703 244.038 265.982 244.038 265.982C244.038 265.982 270.783 266.23 279.972 264.891C289.161 263.553 311.386 249.405 313.479 247.523C315.572 245.64 318 236.613 318 236.613L301.648 190.357L300.73 157.823L276.287 151.488L267.986 145L231.593 154.083Z" fill="#33AD43"/>
<path d="M303.927 188.056C304.386 187.41 305.004 186.991 305.376 186.499C305.747 186.008 306.57 185.789 306.962 186.265C307.406 186.805 306.919 187.594 306.449 188.111C308.068 188.179 309.289 185.963 310.849 186.402C311.869 186.691 312.247 188.062 311.838 189.043C311.43 190.024 310.499 190.673 309.581 191.205C308.664 191.736 307.681 192.234 307.034 193.074C306.695 193.515 306.479 194.182 306.844 194.601C307.465 195.313 308.92 194.472 309.473 195.237C309.847 195.755 309.396 196.454 308.966 196.925C307.403 198.64 305.841 200.354 304.278 202.069C303.864 202.523 303.422 202.996 302.838 203.18C302.253 203.366 301.491 203.137 301.307 202.551C301.126 201.975 301.573 201.38 302.085 201.063C302.597 200.746 303.202 200.578 303.66 200.186C304.119 199.794 304.363 199.031 303.947 198.595C303.428 198.053 302.532 198.507 301.943 198.971C300.12 200.409 298.296 201.846 296.472 203.284C296.071 203.6 295.643 203.928 295.136 203.992C294.629 204.056 294.038 203.736 294.002 203.225C293.983 202.96 294.112 202.709 294.244 202.477C295.24 200.736 296.625 199.223 298.269 198.079C298.892 197.645 299.566 197.251 300.022 196.644C300.478 196.037 300.654 195.134 300.198 194.527C299.124 195.54 297.934 196.43 296.659 197.172C296.204 197.438 295.552 197.655 295.215 197.25C294.867 196.832 295.227 196.215 295.58 195.801C297.467 193.582 299.354 191.362 301.243 189.142C301.724 188.575 302.289 187.966 303.029 187.922L303.927 188.056Z" fill="white"/>
<path d="M300.546 158C300.546 158 314.115 162.755 317.658 170.981C321.201 179.206 334.809 218.136 333.962 225.239C333.116 232.343 330.84 240.63 324.697 240.986C318.553 241.341 311.497 235.03 311.497 235.03L305.972 225.965L306.265 216.466L300 191.177L300.546 158Z" fill="#33AD43"/>
<path d="M232 158.229C232.005 158.285 259.922 193 259.922 193L263.717 160.841L269 145L232.644 154.134L232 158.229Z" fill="#FFCDB7"/>
<g opacity="0.3">
<path d="M289.745 155.39C288.106 154.549 286.13 155.214 284.472 156.014C275.08 160.545 264.872 166.038 262.115 176.272L262 182.458C262.864 186.181 266.633 188.639 270.363 188.955C274.095 189.272 277.759 187.863 281.103 186.142C284.101 184.599 286.965 182.785 289.651 180.729C291.142 179.587 292.682 178.193 292.956 176.309C293.329 173.74 291.223 171.505 290.743 168.955C290.296 166.576 291.294 164.197 291.757 161.822C292.221 159.445 291.864 156.478 289.745 155.39Z" fill="#353535"/>
</g>
<path d="M218.003 209C218.02 208.994 218.114 209.197 218.276 209.592C218.454 210.039 218.682 210.613 218.964 211.323C219.551 212.831 220.379 215.022 221.372 217.739C223.382 223.165 225.941 230.74 228.823 239.078C230.272 243.246 231.686 247.204 232.987 250.8C233.644 252.596 234.238 254.315 234.877 255.88C235.522 257.443 236.232 258.85 237.021 260.044C238.596 262.448 240.462 263.922 241.813 264.776C243.184 265.617 244.026 265.94 243.999 265.998C243.992 266.015 243.783 265.938 243.387 265.774C242.984 265.626 242.422 265.342 241.706 264.952C240.306 264.142 238.36 262.681 236.71 260.253C235.884 259.046 235.141 257.622 234.471 256.049C233.807 254.471 233.199 252.759 232.528 250.968C231.202 247.38 229.772 243.424 228.323 239.253C225.48 230.929 222.907 223.395 221.019 217.866C220.086 215.181 219.323 212.986 218.77 211.396C218.526 210.672 218.329 210.087 218.176 209.63C218.047 209.223 217.986 209.007 218.003 209Z" fill="#263238"/>
<path d="M259.999 193.24C259.988 193.248 259.898 193.145 259.733 192.937C259.544 192.693 259.309 192.387 259.02 192.012C258.399 191.202 257.489 190.018 256.3 188.554C253.922 185.624 250.396 181.574 245.775 177.253L246.177 177.083C246.069 181.745 245.949 186.977 245.82 192.494C245.808 192.981 245.796 193.464 245.785 193.913L245.758 195L245.287 194.024C241.009 185.159 237.165 177.191 234.36 171.378C233.009 168.523 231.91 166.199 231.123 164.533C230.768 163.759 230.484 163.139 230.268 162.666C230.078 162.236 229.986 162.008 230.002 162C230.018 161.992 230.141 162.206 230.361 162.62C230.599 163.082 230.912 163.689 231.302 164.445C232.126 166.094 233.275 168.392 234.688 171.216C237.529 177.012 241.424 184.953 245.759 193.791L245.261 193.901C245.272 193.452 245.284 192.969 245.296 192.482C245.44 186.966 245.577 181.734 245.699 177.073L245.714 176.535L246.101 176.902C250.715 181.273 254.204 185.385 256.524 188.374C257.685 189.869 258.56 191.083 259.143 191.922C259.409 192.316 259.625 192.636 259.797 192.892C259.94 193.114 260.01 193.233 259.999 193.24Z" fill="#263238"/>
<path d="M299.999 219.001C300.105 219.102 291.907 227.916 281.693 238.682C271.474 249.454 263.107 258.1 263.001 257.999C262.895 257.898 271.091 249.086 281.309 238.316C291.525 227.548 299.893 218.9 299.999 219.001Z" fill="#263238"/>
<path d="M284.983 263C284.903 263.013 284.652 261.796 284.188 259.847C283.726 257.898 283.022 255.222 282.06 252.321C281.094 249.42 280.055 246.851 279.258 245.008C278.461 243.165 277.934 242.037 278.007 242.001C278.066 241.97 278.715 243.043 279.603 244.856C280.493 246.669 281.597 249.237 282.57 252.159C283.539 255.081 284.19 257.793 284.559 259.772C284.929 261.751 285.049 262.99 284.983 263Z" fill="#263238"/>
<path d="M215.998 206.995C215.918 207.115 212.944 205.2 209.356 202.718C205.767 200.235 202.922 198.126 203.002 198.005C203.082 197.885 206.055 199.799 209.645 202.282C213.233 204.765 216.078 206.874 215.998 206.995Z" fill="#263238"/>
<path d="M324 240.945C324.001 240.958 323.882 240.969 323.65 240.977C323.373 240.981 323.037 240.987 322.628 240.993C322.179 241.024 321.633 240.944 320.991 240.855C320.341 240.809 319.63 240.581 318.825 240.367C317.249 239.841 315.415 238.894 313.7 237.324C312 235.75 310.402 233.629 309.3 230.98L309.296 230.971L309.292 230.954C308.361 227.094 307.325 222.801 306.233 218.283C304.203 209.683 302.366 201.899 301.017 196.188C300.385 193.402 299.869 191.127 299.494 189.477C299.335 188.727 299.206 188.12 299.106 187.647C299.022 187.227 298.987 187.004 299.004 187C299.021 186.996 299.091 187.21 299.207 187.621C299.331 188.088 299.491 188.687 299.69 189.428C300.104 191.068 300.674 193.33 301.373 196.098C302.759 201.8 304.649 209.57 306.736 218.157C307.812 222.679 308.833 226.975 309.752 230.839L309.744 230.812C310.781 233.357 312.333 235.478 313.965 237.027C315.616 238.579 317.384 239.535 318.914 240.09C322.036 241.095 324.015 240.806 324 240.945Z" fill="#263238"/>
<path d="M226 241.066C226.004 241.16 225.218 241.215 224.007 241.534C222.796 241.846 221.168 242.496 219.596 243.624C218.028 244.762 216.862 246.128 216.145 247.206C215.423 248.284 215.088 249.037 215.008 248.999C214.955 248.978 215.171 248.159 215.835 246.99C216.493 245.823 217.667 244.349 219.301 243.166C220.937 241.989 222.663 241.371 223.931 241.15C225.201 240.92 226.001 241.008 226 241.066Z" fill="#263238"/>
<path d="M225.999 240.021C226.057 240.17 223.948 241.375 221.15 242.183C218.355 243.004 216.009 243.096 216 242.933C215.985 242.748 218.271 242.379 221.02 241.571C223.771 240.776 225.939 239.85 225.999 240.021Z" fill="#263238"/>
<path d="M222.928 183.056C223.387 182.409 224.005 181.991 224.377 181.499C224.748 181.008 225.571 180.789 225.963 181.265C226.407 181.805 225.92 182.594 225.45 183.111C227.069 183.179 228.29 180.963 229.849 181.402C230.869 181.69 231.247 183.062 230.838 184.043C230.43 185.024 229.499 185.673 228.581 186.205C227.664 186.736 226.681 187.233 226.034 188.074C225.695 188.515 225.479 189.182 225.844 189.601C226.465 190.313 227.92 189.472 228.473 190.237C228.847 190.755 228.396 191.454 227.966 191.925C226.403 193.64 224.841 195.355 223.278 197.069C222.864 197.523 222.422 197.996 221.838 198.18C221.253 198.365 220.491 198.137 220.307 197.551C220.126 196.975 220.573 196.38 221.085 196.063C221.597 195.746 222.202 195.578 222.66 195.186C223.119 194.794 223.363 194.031 222.947 193.595C222.428 193.053 221.532 193.507 220.943 193.971C219.12 195.409 217.296 196.846 215.472 198.284C215.071 198.6 214.643 198.928 214.136 198.992C213.629 199.056 213.038 198.736 213.002 198.225C212.983 197.96 213.112 197.709 213.244 197.477C214.24 195.736 215.625 194.222 217.269 193.079C217.892 192.646 218.566 192.251 219.022 191.644C219.478 191.037 219.654 190.134 219.198 189.527C218.124 190.54 216.934 191.43 215.659 192.172C215.204 192.438 214.552 192.655 214.215 192.25C213.867 191.832 214.227 191.215 214.58 190.801C216.467 188.582 218.354 186.362 220.243 184.142C220.724 183.576 221.289 182.966 222.029 182.922L222.928 183.056Z" fill="white"/>
<path d="M264.927 197.056C265.386 196.41 266.004 195.991 266.376 195.499C266.747 195.008 267.57 194.789 267.962 195.265C268.406 195.805 267.92 196.594 267.449 197.11C269.068 197.178 270.289 194.962 271.849 195.402C272.869 195.691 273.247 197.062 272.838 198.043C272.43 199.024 271.499 199.673 270.581 200.205C269.664 200.736 268.681 201.234 268.034 202.074C267.695 202.515 267.479 203.182 267.844 203.601C268.465 204.313 269.92 203.472 270.473 204.237C270.847 204.755 270.396 205.454 269.966 205.925C268.403 207.64 266.841 209.354 265.278 211.069C264.864 211.523 264.422 211.996 263.838 212.18C263.253 212.366 262.491 212.137 262.307 211.551C262.126 210.975 262.573 210.38 263.085 210.063C263.597 209.746 264.202 209.578 264.66 209.186C265.119 208.794 265.363 208.031 264.947 207.595C264.428 207.053 263.532 207.507 262.943 207.971C261.12 209.409 259.296 210.846 257.472 212.284C257.071 212.6 256.643 212.928 256.136 212.992C255.629 213.056 255.039 212.736 255.002 212.225C254.983 211.96 255.112 211.709 255.244 211.477C256.24 209.736 257.625 208.223 259.269 207.079C259.892 206.646 260.566 206.251 261.022 205.644C261.478 205.037 261.654 204.134 261.198 203.527C260.124 204.54 258.934 205.43 257.659 206.173C257.204 206.438 256.552 206.655 256.215 206.25C255.867 205.832 256.227 205.215 256.58 204.801C258.467 202.582 260.355 200.362 262.243 198.142C262.724 197.576 263.289 196.966 264.029 196.922L264.927 197.056Z" fill="white"/>
<path d="M248.929 238.056C249.388 237.409 250.006 236.991 250.378 236.499C250.749 236.008 251.572 235.789 251.963 236.265C252.407 236.805 251.921 237.594 251.45 238.111C253.069 238.179 254.29 235.963 255.849 236.402C256.869 236.69 257.247 238.062 256.838 239.043C256.43 240.024 255.499 240.673 254.581 241.205C253.664 241.736 252.681 242.233 252.034 243.074C251.695 243.515 251.479 244.182 251.844 244.601C252.465 245.313 253.92 244.472 254.473 245.237C254.847 245.755 254.396 246.454 253.966 246.925C252.403 248.64 250.841 250.354 249.278 252.069C248.864 252.523 248.423 252.996 247.838 253.18C247.252 253.365 246.491 253.137 246.307 252.551C246.127 251.975 246.573 251.38 247.085 251.063C247.597 250.746 248.202 250.578 248.66 250.186C249.119 249.794 249.363 249.031 248.947 248.595C248.428 248.053 247.532 248.507 246.943 248.971C245.12 250.409 243.296 251.846 241.472 253.284C241.071 253.6 240.643 253.928 240.136 253.992C239.629 254.056 239.038 253.736 239.002 253.225C238.983 252.96 239.112 252.709 239.244 252.477C240.24 250.736 241.625 249.223 243.269 248.079C243.892 247.646 244.566 247.251 245.022 246.644C245.478 246.037 245.654 245.134 245.198 244.527C244.124 245.54 242.934 246.43 241.659 247.172C241.204 247.438 240.552 247.655 240.215 247.25C239.867 246.832 240.227 246.215 240.579 245.801C242.466 243.582 244.354 241.362 246.242 239.142C246.723 238.576 247.288 237.966 248.028 237.922L248.929 238.056Z" fill="white"/>
<path d="M296.928 234.056C297.387 233.41 298.005 232.991 298.377 232.499C298.748 232.008 299.571 231.789 299.962 232.265C300.406 232.805 299.92 233.593 299.449 234.111C301.068 234.178 302.289 231.962 303.849 232.402C304.869 232.69 305.247 234.062 304.838 235.042C304.43 236.023 303.499 236.672 302.581 237.204C301.664 237.735 300.681 238.233 300.034 239.074C299.695 239.514 299.479 240.182 299.844 240.6C300.465 241.312 301.92 240.472 302.473 241.237C302.847 241.754 302.396 242.453 301.966 242.925C300.403 244.64 298.841 246.354 297.278 248.069C296.864 248.523 296.422 248.996 295.838 249.18C295.253 249.366 294.491 249.137 294.307 248.551C294.127 247.975 294.573 247.38 295.085 247.063C295.597 246.746 296.202 246.578 296.66 246.186C297.119 245.794 297.363 245.031 296.947 244.595C296.428 244.053 295.532 244.506 294.943 244.971C293.12 246.409 291.296 247.846 289.472 249.284C289.071 249.6 288.643 249.928 288.136 249.992C287.629 250.056 287.039 249.736 287.002 249.225C286.983 248.96 287.112 248.709 287.244 248.477C288.24 246.736 289.625 245.222 291.269 244.079C291.891 243.645 292.566 243.251 293.022 242.644C293.478 242.036 293.654 241.134 293.198 240.527C292.124 241.54 290.934 242.429 289.66 243.172C289.205 243.437 288.553 243.655 288.216 243.25C287.868 242.832 288.228 242.215 288.581 241.801C290.468 239.581 292.356 237.361 294.244 235.141C294.725 234.574 295.29 233.965 296.03 233.921L296.928 234.056Z" fill="white"/>
<path d="M278.998 240C278.981 240.008 278.885 239.863 278.716 239.576C278.521 239.233 278.286 238.816 278 238.312C277.385 237.21 276.532 235.597 275.511 233.585C273.465 229.565 270.797 223.926 268.165 217.56C265.537 211.19 263.448 205.308 262.06 201.012C261.365 198.865 260.831 197.118 260.489 195.902C260.335 195.344 260.208 194.881 260.104 194.5C260.022 194.177 259.986 194.006 260.005 194C260.022 193.995 260.092 194.156 260.206 194.468C260.336 194.84 260.495 195.292 260.687 195.838C261.123 197.11 261.707 198.816 262.418 200.889C263.895 205.148 266.034 210.997 268.657 217.353C271.283 223.706 273.891 229.358 275.849 233.415C276.807 235.384 277.596 237.005 278.185 238.213C278.434 238.735 278.641 239.167 278.811 239.523C278.949 239.829 279.014 239.991 278.998 240Z" fill="#263238"/>
<path d="M334 224.177C334.014 224.961 330.573 226.608 329.836 226.532L328.969 226.245C328.417 226.843 327.742 227.178 327.3 227.628C326.857 228.079 326.012 228.172 325.699 227.614C325.344 226.979 325.945 226.238 326.489 225.776C324.903 225.441 323.357 227.547 321.886 226.835C320.924 226.369 320.763 224.881 321.317 223.926C321.871 222.972 322.889 222.449 323.876 222.046C324.863 221.642 325.908 221.285 326.676 220.516C327.078 220.112 327.394 219.454 327.098 218.958C326.596 218.117 325.031 218.753 324.604 217.867C324.315 217.267 324.867 216.614 325.363 216.193C327.169 214.664 329.634 212.528 331.44 211C331.44 211 333.934 220.581 334 224.177Z" fill="white"/>
<g opacity="0.3">
<path d="M263 257C277.733 249 290.87 236.125 298 221L263 257Z" fill="#353535"/>
</g>
<g opacity="0.3">
<path d="M215 250C217.862 243.433 223.487 241.631 228.961 241.712C229.147 241.048 228.636 240.346 228.022 240.123C227.409 239.899 226.737 240.025 226.101 240.158C223.472 240.71 220.803 241.388 218.543 242.926C216.283 244.464 215.16 246.946 215.087 249.807" fill="#353535"/>
</g>
<g opacity="0.3">
<path d="M230 163C233.687 176.852 239.595 189.903 247.226 202C250.047 197.623 251.275 192.226 250.629 187.045C252.731 189.826 255.697 191.932 259 192.988C255.099 187.588 251.054 182.44 245.988 178.138C245.988 178.138 245.554 195.49 245.572 195.036C240.27 184.299 235.127 173.717 230 163Z" fill="#353535"/>
</g>
<path d="M274.985 115.012C273.461 119.985 271.298 123.822 266.505 125.778C262.312 127.49 257.571 127.166 253.139 126.247C238.749 123.265 223.64 115.55 216 102.926L220.121 93.9737C224.438 87.1528 234.988 79.0615 247.229 83.0645C247.229 83.0645 257.068 79.4935 266.411 87.5242C275.756 95.554 274.985 115.012 274.985 115.012Z" fill="#263238"/>
<path d="M240.621 90.0753C232.302 89.0196 221.568 99.2752 220.879 107.727C220.113 117.117 219.543 128.612 220.51 135.648C222.454 149.798 233.108 151.803 233.108 151.803L232.594 159L264.457 152.81L265.823 102.34L266 97.7887L240.621 90.0753Z" fill="#FFCDB7"/>
<path d="M226.003 117.386C225.945 118.212 226.792 118.932 227.896 118.996C228.998 119.058 229.94 118.441 229.997 117.615C230.055 116.789 229.208 116.068 228.106 116.005C227.003 115.941 226.062 116.56 226.003 117.386Z" fill="#263238"/>
<path d="M224.027 113.858C224.241 114.101 225.596 113.101 227.494 113.144C229.391 113.16 230.764 114.203 230.975 113.965C231.079 113.86 230.864 113.424 230.265 112.953C229.677 112.485 228.667 112.019 227.485 112.001C226.302 111.983 225.3 112.415 224.72 112.867C224.126 113.32 223.92 113.75 224.027 113.858Z" fill="#263238"/>
<path d="M244.003 118.386C243.945 119.212 244.792 119.932 245.897 119.996C246.998 120.058 247.94 119.441 247.997 118.615C248.055 117.789 247.208 117.067 246.106 117.005C245.003 116.941 244.06 117.56 244.003 118.386Z" fill="#263238"/>
<path d="M243.026 114.858C243.241 115.101 244.598 114.101 246.494 114.144C248.391 114.16 249.764 115.203 249.975 114.965C250.078 114.86 249.866 114.425 249.266 113.953C248.677 113.484 247.667 113.019 246.485 113.001C245.303 112.983 244.3 113.415 243.719 113.866C243.128 114.32 242.921 114.749 243.026 114.858Z" fill="#263238"/>
<path d="M234.806 128.935C234.817 128.826 233.64 128.597 231.735 128.313C231.252 128.253 230.795 128.147 230.72 127.812C230.613 127.457 230.826 126.934 231.071 126.369C231.549 125.195 232.051 123.965 232.576 122.675C234.667 117.414 236.191 113.085 235.981 113.001C235.77 112.918 233.903 117.115 231.813 122.376C231.309 123.673 230.827 124.91 230.369 126.094C230.175 126.646 229.848 127.27 230.08 128.008C230.204 128.375 230.555 128.647 230.863 128.738C231.172 128.839 231.445 128.85 231.683 128.869C233.604 129.012 234.796 129.044 234.806 128.935Z" fill="#263238"/>
<path d="M233.263 151.502C233.263 151.502 243.359 152.247 253 147C253 147 247.774 156.346 233 154.835L233.263 151.502Z" fill="#FFA985"/>
<path d="M236.203 133.179C236.924 132.333 238.162 131.883 239.381 132.027C240.226 132.126 241.073 132.519 241.574 133.167C242.075 133.814 242.163 134.723 241.683 135.324C241.142 135.999 240.039 136.137 239.113 135.877C238.185 135.614 237.397 135.033 236.647 134.454C236.441 134.294 236.229 134.126 236.101 133.909C235.974 133.692 235.953 133.412 236.118 133.236" fill="#FFA985"/>
<path d="M241.686 130C241.35 129.974 241.302 132.275 239.354 133.871C237.408 135.472 235.024 135.166 235.001 135.488C234.968 135.631 235.525 135.945 236.532 135.994C237.521 136.048 238.971 135.751 240.163 134.775C241.352 133.796 241.88 132.469 241.975 131.525C242.079 130.564 241.839 129.989 241.686 130Z" fill="#263238"/>
<path d="M242.009 106.547C242.193 107.14 244.169 106.902 246.479 107.258C248.796 107.563 250.65 108.347 250.967 107.825C251.109 107.575 250.793 107.015 250.048 106.427C249.309 105.842 248.124 105.275 246.737 105.074C245.35 104.878 244.072 105.094 243.222 105.452C242.367 105.811 241.931 106.266 242.009 106.547Z" fill="#263238"/>
<path d="M224.049 107.811C224.399 108.227 225.813 107.825 227.503 107.835C229.192 107.791 230.616 108.164 230.955 107.741C231.104 107.535 230.887 107.12 230.27 106.721C229.663 106.323 228.639 105.99 227.478 106C226.316 106.013 225.303 106.368 224.706 106.777C224.1 107.188 223.895 107.608 224.049 107.811Z" fill="#263238"/>
<path d="M264.437 96.1465C263.313 93.7952 260.54 92.8257 258.082 91.9349C254.617 90.6784 251.25 89.1372 247.709 88.108C244.168 87.0789 240.375 86.5749 236.791 87.4455C233.089 88.3444 229.882 90.634 227.049 93.1701C223.316 96.5121 219.927 100.611 219 105.524L219.015 107.211C227.064 104.932 235.06 96.5656 240.889 90.5886C245.884 97.5584 254.24 109.961 261.605 113C262.107 109.44 264.704 104.268 264.938 100.679C265.038 99.1441 265.1 97.5342 264.437 96.1465Z" fill="#263238"/>
<path d="M291.903 153.005C291.35 150.192 288.548 148.491 286.093 146.98C283.637 145.47 281.002 143.303 281.142 140.439C281.289 137.443 284.506 135.11 284.241 132.122C283.963 128.985 280.231 127.537 278.243 125.081C275.373 121.533 274.817 119.322 274.815 114.772C274.811 105.865 271.224 94.2384 263.33 90L253 98.5972C255.997 106.914 259.04 115.603 257.989 124.373C257.365 129.578 255.306 134.641 255.603 139.875C255.921 145.487 258.914 150.608 259.934 156.137C260.901 161.379 260.065 166.772 260.34 172.095C260.615 177.416 262.374 183.177 266.928 186C272.648 183.282 278.367 180.564 284.086 177.847C285.941 176.965 288.037 175.771 288.305 173.747C288.579 171.669 286.756 169.919 286.275 167.879C285.021 162.551 292.958 158.375 291.903 153.005Z" fill="#263238"/>
<path d="M275 110.015C275.017 110.082 274.046 110.412 272.439 110.845C270.834 111.263 268.58 111.808 266.016 111.964C263.449 112.121 261.122 111.739 259.518 111.282C257.908 110.821 256.979 110.371 257 110.319C257.045 110.108 260.935 111.769 265.985 111.439C268.488 111.287 270.728 110.808 272.35 110.483C273.972 110.145 274.98 109.941 275 110.015Z" fill="#455A64"/>
<path d="M274.999 113.011C275.027 113.067 274.205 113.722 272.731 114.463C271.261 115.198 269.086 115.934 266.618 115.996C264.152 116.055 261.961 115.506 260.427 115.008C258.89 114.495 257.981 114.044 258 113.975C258.025 113.884 258.974 114.187 260.517 114.587C262.058 114.973 264.214 115.439 266.607 115.382C269.001 115.321 271.118 114.677 272.598 114.058C274.077 113.434 274.958 112.919 274.999 113.011Z" fill="#455A64"/>
<path d="M216.001 107.652C216.024 107.505 217.15 107.617 218.51 107.44C219.873 107.278 220.941 106.892 220.998 107.029C221.057 107.146 220.017 107.771 218.569 107.947C217.123 108.133 215.969 107.781 216.001 107.652Z" fill="#455A64"/>
<path d="M215.006 109.014C215.092 108.891 216.079 109.62 217.446 110.12C218.809 110.636 220.002 110.719 220 110.872C220.012 111.007 218.744 111.161 217.288 110.613C215.829 110.076 214.919 109.11 215.006 109.014Z" fill="#455A64"/>
<path d="M261.998 179C261.998 179 261.739 178.976 261.288 178.783C260.838 178.595 260.19 178.219 259.553 177.504C258.914 176.804 258.301 175.731 258.093 174.35C257.994 173.662 258.023 172.896 258.241 172.132C258.454 171.368 258.843 170.634 259.268 169.902C259.694 169.167 260.171 168.427 260.523 167.595C260.862 166.762 261.067 165.831 261.077 164.853C261.089 162.892 260.406 160.829 259.336 158.908C258.276 156.972 256.768 155.187 255.364 153.198C253.962 151.231 252.625 148.939 252.215 146.286C251.761 143.659 252.085 141.038 252.645 138.638C253.224 136.227 254.093 134.014 254.929 131.931C255.771 129.848 256.586 127.882 257.203 125.991C257.828 124.103 258.246 122.293 258.442 120.608C258.872 117.242 258.547 114.456 257.986 112.661C257.442 110.842 256.724 110.038 256.787 110C256.8 109.989 256.957 110.196 257.245 110.605C257.502 111.032 257.875 111.68 258.173 112.595C258.803 114.404 259.188 117.234 258.798 120.654C258.621 122.365 258.215 124.215 257.602 126.131C256.994 128.05 256.188 130.034 255.361 132.118C254.538 134.203 253.688 136.398 253.127 138.763C252.584 141.119 252.277 143.67 252.714 146.194C253.107 148.734 254.382 150.934 255.766 152.891C257.148 154.862 258.659 156.664 259.743 158.665C260.828 160.642 261.528 162.784 261.498 164.858C261.478 165.891 261.25 166.881 260.881 167.759C260.499 168.632 260.005 169.376 259.574 170.097C259.143 170.815 258.761 171.514 258.549 172.229C258.334 172.939 258.293 173.655 258.374 174.309C258.546 175.621 259.106 176.67 259.701 177.366C260.919 178.789 262.049 178.921 261.998 179Z" fill="#263238"/>
<path d="M247.999 83.0209C248.066 83.1727 245.63 83.7436 243.647 85.7698C241.62 87.7609 241.203 90.0494 241.034 89.9992C240.97 89.9911 240.972 89.4132 241.264 88.5247C241.55 87.6403 242.186 86.4643 243.23 85.415C244.278 84.3687 245.494 83.6883 246.426 83.3526C247.362 83.0119 247.986 82.9626 247.999 83.0209Z" fill="#455A64"/>
<path d="M301.354 178.44L294.471 167.513L294 156.766L296.696 149.413C296.696 149.413 298.848 148.895 299.202 151.485C299.558 154.076 298.405 157.208 298.405 157.208L299.878 162.427C299.878 162.427 300.364 162.984 300.821 160.818C301.279 158.651 300.483 142.562 300.474 141.452C300.465 140.342 300.552 137.716 302.178 137.957C303.804 138.199 304.318 140.37 304.327 141.479C304.336 142.589 305.515 153.379 305.515 153.379C305.515 153.379 305.893 154.351 306.28 154.211C306.667 154.072 305.942 142.63 305.864 140.82C305.786 139.01 305.392 135.009 307.495 135C309.597 134.992 309.596 137.012 309.713 139.222C309.83 141.433 311.205 153.819 311.205 153.819C311.205 153.819 311.525 154.595 311.824 153.555C312.122 152.515 312.5 139.044 312.738 138.415C312.976 137.785 314.196 136.956 315.148 138.477C316.098 139.998 315.876 143.551 315.744 149.836C315.623 155.493 315.451 157.839 316.094 158.279C316.738 158.719 319.101 155.247 319.101 155.247C319.101 155.247 321.972 147.793 324.401 148.054C326.83 148.316 325.201 150.228 324.785 151.955C324.431 153.42 320.181 162.168 320.089 162.25C319.998 162.331 315.821 177.9 315.821 177.9L325.045 195.698C326.653 198.801 327.342 202.336 326.837 205.801C326.283 209.602 324.348 213.837 318.826 215.576C314.75 216.86 311.754 215.019 309.778 212.858C308.049 210.968 306.955 208.575 306.518 206.04C305.331 199.177 301.354 178.44 301.354 178.44Z" fill="#FFCDB7"/>
<path d="M308.799 171C308.707 170.991 308.814 170.142 308.578 168.827C308.348 167.526 307.688 165.732 306.285 164.3C305.228 163.173 303.866 162.58 302.733 162.455C301.583 162.324 300.732 162.733 300.317 163.01L300.22 163.076L300.177 162.984C300.036 162.681 299.978 162.517 300.007 162.5C300.036 162.483 300.149 162.613 300.341 162.886L300.2 162.859C300.567 162.483 301.491 161.927 302.767 162.008C304.016 162.077 305.523 162.698 306.666 163.913C308.173 165.452 308.812 167.395 308.954 168.771C309.102 170.167 308.853 171.015 308.799 171Z" fill="#FFA985"/>
<path d="M313.995 162.012C314.075 162.126 313.251 162.864 312.446 163.954C311.631 165.037 311.148 166.052 311.023 165.998C310.908 165.959 311.218 164.804 312.079 163.656C312.933 162.504 313.929 161.906 313.995 162.012Z" fill="#FFA985"/>
<path d="M221.005 259.61C221.073 260.291 221.008 266.722 226.005 271.962C231.002 277.202 233.247 279.044 233.247 279.044L250.874 286.961C250.874 286.961 255.469 287.659 260.105 283.156C262.986 280.357 263.686 278.545 263.686 278.545C263.686 278.545 268.974 280.912 271.038 280.821C274.515 280.671 273.969 278.212 273.969 278.212C273.969 278.212 262.329 271.797 259.561 269.319C256.794 266.841 248.838 265.208 243.18 265.948L239.906 265.305L238.723 260.9C238.723 260.9 232.336 251.373 226.476 254.708C220.62 258.043 221.005 259.61 221.005 259.61Z" fill="#FFCDB7"/>
</svg>
