<svg width="560" height="478" viewBox="0 0 560 478" fill="none" xmlns="http://www.w3.org/2000/svg">
<circle cx="243" cy="218" r="218" fill="#EEEEEE"/>
<path d="M155.369 236.876C155.369 232.435 151.769 228.834 147.327 228.834C151.768 228.834 155.369 225.234 155.369 220.792C155.369 225.233 158.969 228.834 163.411 228.834C158.969 228.834 155.369 232.434 155.369 236.876Z" fill="#FBAC4D"/>
<path d="M147.702 221.169C147.702 219.005 145.948 217.251 143.784 217.251C145.948 217.251 147.702 215.497 147.702 213.333C147.702 215.497 149.456 217.251 151.62 217.251C149.456 217.251 147.702 219.005 147.702 221.169Z" fill="#FBAC4D"/>
<path d="M427.702 257.169C427.702 255.005 425.948 253.251 423.784 253.251C425.948 253.251 427.702 251.497 427.702 249.333C427.702 251.497 429.456 253.251 431.62 253.251C429.456 253.251 427.702 255.005 427.702 257.169Z" fill="#FBAC4D"/>
<path d="M436.379 251.294C436.379 247.79 433.538 244.949 430.034 244.949C433.538 244.949 436.379 242.108 436.379 238.604C436.379 242.108 439.22 244.949 442.724 244.949C439.22 244.949 436.379 247.789 436.379 251.294Z" fill="#FBAC4D"/>
<path d="M306.987 282.731C306.987 279.689 304.521 277.223 301.479 277.223C304.521 277.223 306.987 274.757 306.987 271.715C306.987 274.757 309.453 277.223 312.495 277.223C309.453 277.223 306.987 279.689 306.987 282.731Z" fill="#FBAC4D"/>
<path d="M302.066 273.388C302.066 271.624 300.636 270.194 298.872 270.194C300.636 270.194 302.066 268.764 302.066 267C302.066 268.764 303.496 270.194 305.26 270.194C303.496 270.194 302.066 271.624 302.066 273.388Z" fill="#FBAC4D"/>
<path d="M143.701 321.919C143.701 319.066 141.388 316.752 138.535 316.752C141.388 316.752 143.701 314.439 143.701 311.586C143.701 314.439 146.014 316.752 148.868 316.752C146.014 316.752 143.701 319.065 143.701 321.919Z" fill="#FBAC4D"/>
<path d="M346.091 244.591L322.085 227.242C323.917 222.8 324.933 217.936 324.933 212.833C324.933 191.938 307.994 175 287.1 175C266.206 175 249.267 191.938 249.267 212.833C249.267 215.854 249.631 218.789 250.301 221.606L218.496 244.591C217.705 245.163 218.416 246.387 219.305 245.983L253.594 230.397C259.922 242.445 272.548 250.666 287.102 250.666C300.224 250.666 311.782 243.984 318.568 233.839L345.284 245.983C346.171 246.387 346.882 245.162 346.091 244.591Z" fill="white"/>
<path d="M311.349 189.014V210.268H304.102C304.057 208.431 302.556 206.955 300.708 206.955C298.859 206.955 297.359 208.431 297.313 210.268H290.01V203.078C291.841 203.025 293.309 201.529 293.309 199.684C293.309 197.84 291.84 196.343 290.01 196.29V189.014H311.349Z" fill="#F16B5F"/>
<path d="M288.06 202.184C288.06 204.028 286.591 205.524 284.761 205.578V212.854H277.434C277.434 214.731 275.912 216.253 274.035 216.253C272.156 216.253 270.634 214.731 270.634 212.854H263.336V191.515H284.761V198.791C286.591 198.843 288.06 200.34 288.06 202.184Z" fill="#36C2D9"/>
<path d="M307.849 216.018V237.357H286.51V230.882C288.341 230.829 289.809 229.331 289.809 227.488C289.809 225.644 288.34 224.146 286.51 224.093V216.018H293.813C293.859 214.181 295.359 212.705 297.208 212.705C299.056 212.705 300.557 214.181 300.602 216.018H307.849Z" fill="#3BDBAA"/>
<path d="M289.81 227.488C289.81 229.33 288.341 230.828 286.511 230.882V237.357H265.086V216.018H272.389C272.387 216.047 272.384 216.075 272.384 216.104C272.384 217.981 273.906 219.503 275.785 219.503C277.662 219.503 279.184 217.981 279.184 216.104C279.184 216.075 279.181 216.047 279.179 216.018H286.511V224.093C288.341 224.146 289.81 225.644 289.81 227.488Z" fill="#FBAC4D"/>
<path d="M142.168 391.708H185.501V388.041H142.168V391.708Z" fill="#0E293A"/>
<path d="M159.688 389.208V473.875H167.98V389.208H159.688Z" fill="#0E293A"/>
<path d="M132.054 388.374H195.615C196.933 388.374 198.001 387.306 198.001 385.988V369.761C198.001 368.443 196.933 367.375 195.615 367.375H132.054C130.736 367.375 129.668 368.443 129.668 369.761V385.988C129.668 387.306 130.736 388.374 132.054 388.374Z" fill="#979797"/>
<path d="M134.996 477.041H192.673L167.625 468.874H160.044L134.996 477.041Z" fill="#0E293A"/>
<path d="M214.32 470.865C214.946 469.993 215.576 469.122 216.224 468.266C215.168 467.633 214.548 467.206 214.548 467.206L214.217 467.11C214.48 465.157 215.197 459.801 216.178 452.224C210.439 451.815 204.703 451.358 198.97 450.871L199.141 465.531C199.141 465.531 198.194 468.295 197.487 470.865H214.32Z" fill="#FFCDB7"/>
<path d="M198.035 467.599C199.044 466.445 200.005 465.96 201.393 466.613C202.346 467.061 203.032 467.915 203.798 468.637C204.565 469.359 205.558 469.999 206.6 469.843C207.976 469.637 208.751 468.207 209.759 467.247C211.026 466.04 212.906 465.514 214.616 465.887C217.306 469.634 221.987 472.141 226.595 472.342C227.807 472.395 229.024 472.304 230.232 472.423C231.439 472.542 232.67 472.897 233.568 473.712C234.228 474.311 234.661 475.201 234.661 476.076C234.661 476.591 234.225 477.003 233.709 477.003L198.717 477.041C198.287 477.042 197.91 476.758 197.801 476.341C197.322 474.518 196.262 469.626 198.035 467.599Z" fill="#979797"/>
<path d="M246.74 470.449C247.393 469.784 248.106 469.18 248.871 468.646C247.426 467.809 246.548 467.206 246.548 467.206L246.217 467.11C246.465 465.269 247.117 460.397 248.013 453.496C242.336 453.617 236.665 453.46 230.997 453.172L231.141 465.531C231.141 465.531 230.292 468.005 229.602 470.448H246.74V470.449Z" fill="#FFCDB7"/>
<path d="M230.035 467.599C231.044 466.445 232.005 465.96 233.393 466.613C234.346 467.061 235.032 467.915 235.798 468.637C236.565 469.359 237.558 469.999 238.6 469.843C239.976 469.637 240.751 468.207 241.759 467.247C243.026 466.04 244.906 465.514 246.616 465.887C249.306 469.634 253.987 472.141 258.595 472.342C259.807 472.395 261.024 472.304 262.232 472.423C263.439 472.542 264.67 472.897 265.568 473.712C266.228 474.311 266.661 475.201 266.661 476.076C266.661 476.591 266.225 477.003 265.709 477.003L230.717 477.041C230.287 477.042 229.91 476.758 229.801 476.341C229.322 474.518 228.262 469.626 230.035 467.599Z" fill="#979797"/>
<path d="M149.849 340.279C149.849 340.279 144.599 358.779 152.599 368.779C160.599 378.779 196.599 386.279 196.599 386.279L196.349 464.279C196.349 464.279 212.599 466.279 217.599 465.529L225.099 383.779L229.099 386.779L229.849 463.529C229.849 463.529 242.599 465.029 248.349 464.779C248.349 464.779 258.099 388.779 254.099 376.029C250.099 363.279 205.849 332.529 205.849 332.529L149.849 340.279Z" fill="#33AD43"/>
<path d="M225.099 383.779C225.099 383.779 225.849 379.654 223.974 374.904C222.099 370.154 194.099 346.279 194.099 346.279" stroke="#0E293A" stroke-width="0.75" stroke-miterlimit="10" stroke-linecap="round" stroke-linejoin="round"/>
<path d="M212.648 385.345C214.183 384.219 215.488 382.781 216.46 381.145" stroke="#0E293A" stroke-width="0.75" stroke-miterlimit="10" stroke-linecap="round" stroke-linejoin="round"/>
<path d="M249.107 381.031C249.481 380.072 249.856 379.114 250.23 378.155" stroke="#0E293A" stroke-width="0.75" stroke-miterlimit="10" stroke-linecap="round" stroke-linejoin="round"/>
<path d="M154.349 344.779C154.349 344.779 151.599 362.529 159.349 368.029C167.099 373.529 200.599 384.529 200.599 384.529L200.349 461.779" stroke="#0E293A" stroke-width="0.75" stroke-miterlimit="10" stroke-linecap="round" stroke-linejoin="round"/>
<path d="M225.099 379.779L233.349 384.779L232.349 462.029" stroke="#0E293A" stroke-width="0.75" stroke-miterlimit="10" stroke-linecap="round" stroke-linejoin="round"/>
<path d="M266.966 256.008C266.379 256.141 265.234 256.74 263.193 258.916C263.193 258.916 266.249 253.357 265.926 252.246C265.603 251.136 260.714 257.635 260.714 257.635C260.714 257.635 263.48 251.01 262.814 250.186C262.148 249.363 258.093 256.362 258.093 256.362C258.093 256.362 260.549 249.365 259.952 249.246C258.464 248.95 254.749 258.678 253.767 258.164C252.898 257.709 252.817 255.126 253.003 253.804C253.042 253.526 252.849 253.288 252.565 253.285C252.008 253.279 251.166 253.512 250.879 254.887C250.503 256.688 249.816 260.265 250.639 264.635C250.635 264.641 250.634 264.642 250.63 264.648C249.69 265.998 239.25 281.038 227.38 297.788C217.94 290.988 209.67 284.888 205.01 281.098C202.23 278.828 199.83 277.318 197.76 276.328C190.83 273.008 183.85 279.108 186.32 286.478C187.29 289.368 189.4 292.688 193.49 296.218C198.3 300.368 206 306.998 215.79 314.028C217.269 315.093 218.796 316.167 220.368 317.243C226.994 321.78 236.076 319.651 240.111 312.708C240.905 311.343 241.689 309.955 242.46 308.548C249.26 296.108 255.05 282.058 257.62 267.238L257.5 267.188C260.014 265.018 265.974 259.656 267.342 256.45C267.453 256.19 267.244 255.945 266.966 256.008Z" fill="#FFCDB7"/>
<path d="M194.766 272.612C194.766 272.612 213.599 282.279 219.766 290.612C219.766 290.612 211.933 306.445 208.099 308.945C204.266 311.445 186.766 293.278 184.932 289.112C183.099 284.945 182.433 272.445 194.766 272.612Z" fill="white"/>
<path d="M220.439 292.759C218.649 296.269 213.099 306.829 209.809 309.599C209.379 309.269 208.949 308.939 208.529 308.619C211.789 305.909 217.319 295.409 219.159 291.819C219.579 292.129 220.009 292.449 220.439 292.759Z" fill="#0E293A"/>
<path d="M168.49 270.247C172.551 263.234 172.306 247.27 172.266 245.298C172.261 245.229 172.263 245.168 172.258 245.099L190.551 259.324C190.132 259.833 189.832 260.565 189.618 261.432L189.617 261.439C189.171 263.194 189.085 265.498 189.134 267.616C189.211 270.714 189.585 273.407 189.585 273.407L178.976 273.903L168.49 270.247Z" fill="#FFCDB7"/>
<path d="M189.133 267.617C178.068 267.361 174.51 253.568 174.381 253.053C175.909 256.536 178.575 258.582 181.3 259.775C184.653 261.253 188.092 261.44 189.547 261.445C189.57 261.441 189.593 261.444 189.616 261.44C189.17 263.194 189.084 265.498 189.133 267.617Z" fill="#0E293A"/>
<path d="M169.266 268.57C169.266 268.57 180.808 276.737 189.183 269.695C189.183 269.695 197.475 273.759 200.725 275.82C204.6 278.278 208.975 325.653 208.6 338.778C208.6 338.778 167.975 349.695 147.6 341.445C147.6 341.445 153.475 309.278 152.725 299.403C151.975 289.528 151.475 276.653 155.6 273.528C159.725 270.403 167.058 268.987 169.266 268.57Z" fill="#F16B5F"/>
<path d="M179.672 312.131C184.092 309.002 187.849 304.943 190.628 300.295C189.878 304.84 189.918 309.546 188.042 313.752" stroke="#0E293A" stroke-width="0.75" stroke-miterlimit="10" stroke-linecap="round" stroke-linejoin="round"/>
<path d="M167.933 270.279C167.933 270.279 181.266 281.779 191.183 271.112" stroke="#0E293A" stroke-width="0.75" stroke-miterlimit="10" stroke-linecap="round" stroke-linejoin="round"/>
<path d="M229.78 323.511C230.209 322.543 222.131 322.126 222.131 322.126C222.131 322.126 229.478 321.121 229.311 320.535C228.896 319.076 218.544 320.206 218.554 319.098C218.563 318.117 220.825 316.866 222.086 316.43C222.351 316.338 222.475 316.057 222.349 315.804C222.101 315.305 221.509 314.663 220.155 315.034C218.273 315.55 214.456 316.665 210.734 319.78C210.732 319.78 210.73 319.779 210.728 319.779C204.308 318.909 188.828 316.799 172.128 314.389C171.458 302.649 170.988 292.259 170.998 286.209C171.008 282.629 170.668 279.799 170.138 277.579C168.348 270.099 159.218 268.519 155.048 275.079C153.408 277.649 152.158 281.379 151.998 286.779C151.818 292.439 151.568 301.099 151.998 311.409C152.152 315.111 152.397 319.026 152.769 323.094C153.232 328.16 157.291 332.132 162.365 332.501C165.926 332.76 169.577 332.929 173.288 332.979C186.778 333.169 201.048 331.819 214.628 327.589L214.618 327.472C218.226 328.832 223.516 330.592 226.272 330.399C226.555 330.379 226.677 330.081 226.494 329.862C226.108 329.4 225.052 328.654 222.185 327.83C222.185 327.83 228.526 328.014 229.367 327.22C230.208 326.426 222.194 325.039 222.194 325.039C222.194 325.039 229.351 324.479 229.78 323.511Z" fill="#FFCDB7"/>
<path d="M172.02 312.419C164.84 313.589 156.37 313.259 152.07 312.969C152.04 312.439 152.02 311.919 152 311.409V311.329C156.25 311.619 164.73 311.969 171.93 310.809C171.96 311.339 171.99 311.879 172.02 312.419Z" fill="#0E293A"/>
<path d="M166.412 315.029L172.126 314.389" stroke="#0E293A" stroke-width="0.75" stroke-miterlimit="10" stroke-linecap="round" stroke-linejoin="round"/>
<path d="M149.266 311.112C149.266 311.112 163.599 312.612 173.933 310.445C173.933 310.445 176.766 275.945 168.1 272.445C159.433 268.945 153.1 272.778 151.433 282.278C149.766 291.779 149.266 311.112 149.266 311.112Z" fill="white"/>
<path d="M167.41 272.031C170.405 273.778 172.383 277.148 172.447 280.615" stroke="#0E293A" stroke-width="0.75" stroke-miterlimit="10" stroke-linecap="round" stroke-linejoin="round"/>
<path d="M202.601 227.216C200.997 220.117 189.09 215.666 179.401 221.835C174.898 224.702 173.121 230.854 172.499 236.621C172.307 236.489 172.132 236.382 172.015 236.333C170.335 235.636 168.385 236.689 167.617 238.251C167.005 239.495 167.065 241.014 167.639 242.277C168.116 243.326 168.989 244.369 170.004 244.94C170.259 245.084 171.434 245.464 172.296 245.518C172.55 249.411 173.95 253.18 176.551 256.092C179.83 259.765 184.44 261.732 189.361 261.457C193.188 261.243 199.037 259.687 200.977 256.039C201.482 255.09 201.677 254.011 201.849 252.95C203.164 244.848 204.434 235.332 202.601 227.216Z" fill="#FFCDB7"/>
<path d="M197.382 240.198C197.196 241.442 197.537 242.525 198.145 242.616C198.753 242.707 199.397 241.772 199.583 240.528C199.769 239.284 199.428 238.201 198.82 238.11C198.212 238.019 197.568 238.954 197.382 240.198Z" fill="#0E293A"/>
<path d="M190.051 239.1C189.865 240.344 189.221 241.279 188.613 241.188C188.005 241.097 187.664 240.014 187.85 238.77C188.036 237.526 188.68 236.591 189.288 236.682C189.895 236.773 190.237 237.856 190.051 239.1Z" fill="#0E293A"/>
<path d="M196.827 247.085C196.334 247.771 195.657 248.325 194.885 248.723C194.115 249.121 193.195 249.313 192.299 249.172C191.411 249.016 190.581 248.582 189.973 247.959C189.649 247.67 189.417 247.298 189.15 246.971C188.941 246.599 188.738 246.227 188.563 245.848C188.866 246.148 189.136 246.459 189.409 246.763C189.724 247.025 189.995 247.331 190.319 247.56C190.944 248.054 191.659 248.381 192.402 248.505C193.149 248.635 193.93 248.51 194.675 248.242C195.42 247.962 196.141 247.567 196.827 247.085Z" fill="#0E293A"/>
<path d="M193.255 250.634C192.899 250.866 192.454 250.902 192.038 250.853C191.624 250.777 191.216 250.601 190.937 250.287C191.334 250.413 191.692 250.548 192.078 250.591C192.458 250.663 192.843 250.653 193.255 250.634Z" fill="#0E293A"/>
<path d="M192.136 231.422C191.691 230.889 191.132 230.654 190.525 230.535C189.922 230.431 189.289 230.408 188.67 230.521C188.049 230.613 187.451 230.865 186.934 231.197C186.399 231.512 185.987 231.972 185.633 232.433C185.454 232.666 185.497 233.001 185.73 233.18C185.917 233.323 186.168 233.324 186.353 233.199L186.404 233.164C186.812 232.888 187.202 232.631 187.62 232.464C188.027 232.27 188.463 232.196 188.894 232.151C189.327 232.117 189.771 232.13 190.213 232.22C190.65 232.301 191.114 232.393 191.615 232.348L191.759 232.335C192.066 232.307 192.292 232.036 192.264 231.729C192.253 231.612 192.207 231.506 192.136 231.422Z" fill="#0E293A"/>
<path d="M197.637 232.246C198.219 231.867 198.822 231.806 199.437 231.87C200.044 231.947 200.656 232.111 201.215 232.4C201.782 232.67 202.28 233.086 202.677 233.556C203.096 234.014 203.355 234.574 203.559 235.119C203.662 235.395 203.522 235.701 203.247 235.805C203.027 235.888 202.786 235.815 202.646 235.641L202.608 235.593C202.299 235.21 202.001 234.849 201.65 234.567C201.318 234.263 200.923 234.064 200.524 233.894C200.12 233.734 199.692 233.617 199.243 233.573C198.802 233.522 198.33 233.475 197.865 233.284L197.731 233.229C197.446 233.112 197.309 232.787 197.426 232.502C197.47 232.393 197.545 232.306 197.637 232.246Z" fill="#0E293A"/>
<path d="M196.485 236.329C196.553 237.207 196.569 238.072 196.602 238.931C196.64 239.788 196.669 240.642 196.787 241.467C196.812 241.673 196.844 241.878 196.887 242.076C196.921 242.239 197.015 242.556 196.969 242.832C196.913 243.399 196.471 243.896 195.979 244.05C195.471 244.243 194.936 244.12 194.531 243.911C194.121 243.69 193.779 243.399 193.495 243.06C194.241 243.475 195.129 243.845 195.748 243.509C196.059 243.339 196.252 243.078 196.259 242.764C196.269 242.604 196.234 242.496 196.169 242.239C196.116 242.015 196.073 241.792 196.041 241.569C195.928 240.675 195.934 239.79 196.016 238.915C196.095 238.041 196.242 237.176 196.485 236.329Z" fill="#0E293A"/>
<path d="M168.753 239.453C168.818 238.933 169.047 238.382 169.563 238.05C170.108 237.726 170.793 237.865 171.287 238.141C171.815 238.417 172.214 238.867 172.509 239.348C172.812 239.835 173.009 240.344 173.146 240.915C173.195 241.119 173.069 241.324 172.866 241.373C172.712 241.41 172.558 241.348 172.47 241.227L172.449 241.198C172.139 240.771 171.738 240.305 171.321 240.117C171.112 240.028 170.949 240.011 170.782 240.096C170.609 240.183 170.454 240.398 170.316 240.624C170.05 241.089 169.848 241.65 170.235 241.942C170.639 242.26 171.296 242.296 171.885 242.306C171.304 242.463 170.671 242.575 170.016 242.278C169.685 242.113 169.468 241.677 169.499 241.317C169.519 240.956 169.619 240.639 169.755 240.335C169.896 240.036 170.077 239.722 170.426 239.494C170.78 239.26 171.281 239.268 171.614 239.429C172.295 239.751 172.715 240.234 173.091 240.78L172.393 241.063C172.177 240.149 171.745 239.166 170.988 238.639C170.608 238.382 170.138 238.21 169.719 238.37C169.284 238.518 168.965 238.978 168.753 239.453Z" fill="#0E293A"/>
<path d="M207.43 224.349C206.22 221.889 204.08 219.989 201.76 218.509C197.85 216.019 193.19 214.549 188.58 214.959C183.96 215.379 179.41 218.149 177.05 222.129C176.02 221.569 174.69 221.779 173.69 222.389C172.69 223.009 171.95 223.969 171.3 224.949C168.13 229.729 166.45 235.479 166.55 241.219C166.64 246.919 168.49 252.589 171.79 257.249C172.34 251.909 172.3 246.969 172.27 245.519C171.4 245.459 170.26 245.089 170 244.939C168.99 244.369 168.12 243.329 167.64 242.279C167.07 241.019 167.01 239.499 167.62 238.249C168.39 236.689 170.34 235.639 172.02 236.329C172.111 236.37 172.253 236.457 172.405 236.558C173.455 238.101 174.347 239.771 175.141 241.404C177.59 237.888 179.621 233.229 180.272 228.994C183.536 231.819 187.519 233.805 191.739 234.711C191.265 233.616 190.964 232.367 190.49 231.272C193.326 234.6 196.793 236.646 200.859 238.254C200.47 236.339 199.748 234.39 198.917 232.622C201.211 234.938 202.683 237.953 203.323 241.148C203.148 243.586 202.871 246.017 202.539 248.379C203.429 246.099 204.509 243.859 205.449 241.629C206.609 238.869 207.779 236.079 208.329 233.139C208.87 230.189 208.759 227.039 207.43 224.349Z" fill="#0E293A"/>
<path d="M365.513 391.708H408.846V388.041H365.513V391.708Z" fill="#0E293A"/>
<path d="M383.033 389.208V473.875H391.325V389.208H383.033Z" fill="#0E293A"/>
<path d="M355.399 388.374H418.96C420.278 388.374 421.346 387.306 421.346 385.988V369.761C421.346 368.443 420.278 367.375 418.96 367.375H355.399C354.081 367.375 353.013 368.443 353.013 369.761V385.988C353.013 387.306 354.081 388.374 355.399 388.374Z" fill="#979797"/>
<path d="M358.341 477.041H416.018L390.97 468.874H383.389L358.341 477.041Z" fill="#0E293A"/>
<path d="M343.75 380.955C338.672 376.139 333.51 371.463 328.238 366.903C323.51 372.843 318.526 379.222 313.507 385.731C310.883 389.134 309.682 393.428 310.166 397.698C311.145 406.337 312.162 414.906 313.141 422.936C316.231 448.316 318.951 468.356 318.951 468.356L333.901 467.226L334.671 401.026L349.23 386.215C347.411 384.454 345.587 382.698 343.75 380.955Z" fill="#FFB394"/>
<path d="M324.409 388.887C323.599 389.517 322.829 390.177 322.089 390.877L314.199 384.837C314.809 384.037 315.419 383.247 316.029 382.457L324.409 388.887Z" fill="#0E293A"/>
<path d="M297.433 477.025H326.266L328.433 472.041L329.35 477.041H334.35C334.35 477.041 335.517 473.708 334.933 466.791C334.35 459.874 334.433 456.958 334.433 456.958L316.1 459.208L317.683 467.708L299.85 473.208L297.433 477.025Z" fill="#33AD43"/>
<path d="M343.75 380.955C342.552 379.819 341.342 378.704 340.136 377.582L325.461 388.097C322.058 390.535 319.154 393.604 316.907 397.136L278.933 459.64L291.298 469.525C291.298 469.525 314.665 440.727 337.706 411.646C345.893 406.957 353.888 402.338 361.149 398.082C355.461 392.262 349.655 386.556 343.75 380.955Z" fill="#FFCDB7"/>
<path d="M257.068 453.354L279.379 471.618L284.213 469.134L281.755 473.584L285.624 476.751C285.624 476.751 288.638 474.911 292.568 469.189C296.498 463.467 298.41 461.263 298.41 461.263L282.799 451.391L278.64 458.971L261.357 451.93L257.068 453.354Z" fill="#33AD43"/>
<path d="M404.849 344.557C404.849 344.557 410.349 359.807 405.599 373.807C400.849 387.807 346.349 408.557 346.349 408.557L347.099 401.057L341.599 402.057L314.849 381.557C314.849 381.557 343.849 345.307 347.099 342.807C350.349 340.307 404.849 344.557 404.849 344.557Z" fill="white"/>
<path d="M347.099 401.057L346.549 406.567C346.049 406.857 345.549 407.137 345.039 407.437L345.429 403.557L339.929 404.557L334.949 400.737L322.089 390.877C322.829 390.177 323.599 389.517 324.409 388.887L337.069 398.587L341.599 402.057L347.099 401.057Z" fill="#0E293A"/>
<path d="M348.724 400.182C348.724 399.682 390.474 382.807 397.099 370.557C403.724 358.307 402.224 345.682 402.224 345.682" stroke="#0E293A" stroke-width="0.75" stroke-miterlimit="10" stroke-linecap="round" stroke-linejoin="round"/>
<path d="M358.849 273.432C356.844 274.516 350.847 281.007 348.178 283.394C342.014 288.907 329.224 299.14 315.962 309.536C316.739 314.164 317.395 318.813 318.468 323.385C319.023 325.749 319.631 327.856 320.298 329.85C338.608 318.207 352.832 304.775 360.139 297.858C364.06 294.146 366.026 290.74 366.879 287.817C369.054 280.37 365.593 269.786 358.849 273.432Z" fill="#33AD43"/>
<path d="M388.536 270.175C385.559 262.638 388.168 246.886 388.499 244.941C388.514 244.873 388.521 244.813 388.536 244.745L368.338 256.103C368.677 256.668 368.866 257.437 368.949 258.326V258.334C369.13 260.135 368.874 262.427 368.512 264.514C367.977 267.566 367.208 270.174 367.208 270.174H388.536V270.175Z" fill="#FFCDB7"/>
<path d="M368.512 264.515C379.493 265.902 385.055 252.788 385.259 252.298C383.232 255.516 380.292 257.144 377.421 257.92C373.886 258.885 370.457 258.561 369.017 258.35C368.994 258.343 368.972 258.343 368.949 258.335C369.13 260.136 368.874 262.427 368.512 264.515Z" fill="#0E293A"/>
<path d="M365.849 269.432C365.849 269.432 363.099 260.182 365.224 260.057C367.349 259.932 384.974 258.057 389.224 256.432C393.474 254.807 390.474 267.307 389.974 268.807C389.474 270.307 399.474 269.182 402.599 274.807C405.724 280.432 406.224 286.807 402.724 302.932C399.224 319.057 402.974 336.307 405.474 340.682C407.974 345.057 408.849 347.307 405.474 348.557C402.099 349.807 350.224 349.932 345.349 345.932C340.474 341.932 353.724 328.682 356.849 326.682C359.974 324.682 349.474 301.682 349.599 290.682C349.724 279.682 358.349 271.182 365.849 269.432Z" fill="#33AD43"/>
<path d="M357.757 279.35C355.775 283.461 353.793 287.572 351.811 291.684C350.728 293.931 349.625 296.249 349.462 298.738C349.299 301.227 350.299 303.961 352.506 305.123" stroke="#0E293A" stroke-width="0.75" stroke-miterlimit="10" stroke-linecap="round" stroke-linejoin="round"/>
<path d="M354.425 333.807H323.144C322.232 333.807 321.422 333.223 321.133 332.358L307.046 290.097C306.589 288.724 307.61 287.307 309.057 287.307H340.338C341.25 287.307 342.06 287.891 342.349 288.756L356.436 331.017C356.894 332.389 355.872 333.807 354.425 333.807Z" fill="#0E293A"/>
<path d="M321.989 309.005C321.919 307.502 311.64 306.107 311.901 305.043C312.132 304.103 314.595 303.443 315.917 303.323C316.196 303.298 316.387 303.056 316.322 302.783C316.195 302.243 315.769 301.483 314.373 301.515C314.358 301.515 314.343 301.516 314.329 301.516C311.65 301.571 309.49 303.719 309.49 306.399V310.79C309.49 312.226 310.121 313.589 311.214 314.519C313.061 316.089 315.096 317.469 316.804 317.768C317.082 317.817 317.269 317.559 317.141 317.304C316.872 316.767 316.02 315.796 313.431 314.316C313.431 314.316 319.528 316.014 320.522 315.452C321.516 314.89 314.073 311.633 314.073 311.633C314.073 311.633 321.129 312.811 321.765 311.982C322.401 311.153 314.674 308.815 314.674 308.815C314.674 308.815 322.018 309.609 321.989 309.005Z" fill="#FFCDB7"/>
<path d="M363.956 317.161C361.578 317.115 359.612 317.075 358.18 317.045C355.191 313.932 351.972 312.433 350.323 311.697C349.048 311.128 348.361 311.664 348.036 312.113C347.87 312.341 347.947 312.634 348.193 312.764C349.365 313.383 351.392 314.948 351.241 315.906C351.071 316.988 341.051 314.305 340.406 315.665C340.147 316.211 347.225 318.313 347.225 318.313C347.225 318.313 339.195 317.486 339.461 318.496C339.727 319.506 346.691 321.144 346.691 321.144C346.691 321.144 338.567 321.274 339.268 322.176C339.968 323.079 346.248 323.867 346.248 323.867C343.289 324.233 342.128 324.799 341.672 325.191C341.456 325.377 341.529 325.686 341.804 325.749C344.665 326.398 350.722 325.323 354.484 324.523C357.042 325.739 359.648 326.837 362.281 327.846C362.785 324.274 363.334 320.709 363.956 317.161Z" fill="#FFCDB7"/>
<path d="M388.008 280.643C388.153 276.88 390.517 273.531 394.084 272.326C397.298 271.24 401.519 271.271 405.349 275.931C412.849 285.056 417.224 326.306 409.099 333.931C400.974 341.556 356.724 328.806 356.724 328.806C356.724 328.806 358.349 317.056 359.599 315.681C360.849 314.306 392.474 316.306 392.474 316.306C392.474 316.306 387.542 292.721 388.008 280.643Z" fill="#33AD43"/>
<path d="M359.099 317.14L359.599 315.682C359.599 315.682 376.349 314.974 392.474 316.307L388.432 292.307L388.099 312.14L358.099 313.473L359.099 317.14Z" fill="#0E293A"/>
<path d="M388.7 286.779C388.066 284.432 388.264 281.869 389.252 279.648C390.239 277.427 392.009 275.562 394.176 274.461" stroke="#0E293A" stroke-width="0.75" stroke-miterlimit="10" stroke-linecap="round" stroke-linejoin="round"/>
<path d="M402.287 331.02C403.521 330.142 404.6 329.044 405.456 327.794" stroke="#0E293A" stroke-width="0.75" stroke-miterlimit="10" stroke-linecap="round" stroke-linejoin="round"/>
<path d="M394.141 238.662C393.613 237.003 391.84 235.673 390.076 236.113C389.953 236.144 389.765 236.223 389.555 236.326C389.794 230.532 388.948 224.186 384.919 220.681C376.249 213.141 363.819 215.781 361.179 222.561C359.129 227.831 358.399 233.951 358.179 239.911C358.079 242.461 358.079 244.971 358.109 247.381V248.131C358.119 249.201 358.159 250.301 358.519 251.311C359.889 255.211 365.449 257.611 369.199 258.391C374.029 259.391 378.879 258.131 382.659 254.981C385.669 252.492 387.607 248.966 388.441 245.156C389.301 245.229 390.517 245.027 390.79 244.923C391.878 244.508 392.896 243.607 393.523 242.64C394.277 241.476 394.562 239.983 394.141 238.662Z" fill="#FFCDB7"/>
<path d="M362.939 243.651C362.939 245.781 361.219 247.511 359.089 247.511C358.749 247.511 358.419 247.471 358.109 247.381C358.079 244.971 358.079 242.461 358.179 239.911C358.469 239.841 358.779 239.801 359.089 239.801C361.219 239.801 362.939 241.521 362.939 243.651Z" fill="#BF5B34"/>
<path d="M378.268 247.507C380.396 247.507 382.121 245.782 382.121 243.654C382.121 241.526 380.396 239.801 378.268 239.801C376.14 239.801 374.415 241.526 374.415 243.654C374.415 245.782 376.14 247.507 378.268 247.507Z" fill="#BF5B34"/>
<path d="M364.972 236.177C364.972 237.435 364.474 238.455 363.859 238.455C363.244 238.455 362.746 237.435 362.746 236.177C362.746 234.919 363.244 233.899 363.859 233.899C364.474 233.898 364.972 234.919 364.972 236.177Z" fill="#0E293A"/>
<path d="M361.587 233.178C361.775 233.547 362.022 233.868 362.34 234.15C362.655 234.431 363.055 234.649 363.504 234.753L363.523 234.757C363.745 234.808 363.966 234.67 364.017 234.448C364.068 234.226 363.93 234.005 363.708 233.954C363.672 233.946 363.634 233.943 363.599 233.944C362.977 233.969 362.286 233.59 361.814 233.04L361.806 233.031C361.758 232.975 361.674 232.969 361.618 233.017C361.572 233.057 361.56 233.124 361.587 233.178Z" fill="#0E293A"/>
<path d="M373.497 238.455C374.111 238.455 374.61 237.435 374.61 236.177C374.61 234.919 374.111 233.899 373.497 233.899C372.882 233.899 372.384 234.919 372.384 236.177C372.384 237.435 372.882 238.455 373.497 238.455Z" fill="#0E293A"/>
<path d="M375.542 233.04C375.07 233.59 374.379 233.968 373.757 233.944C373.53 233.935 373.338 234.112 373.329 234.339C373.32 234.566 373.497 234.758 373.724 234.767C373.761 234.769 373.796 234.765 373.831 234.757L373.852 234.752C374.301 234.649 374.702 234.43 375.016 234.149C375.334 233.867 375.581 233.546 375.769 233.177C375.802 233.112 375.776 233.031 375.711 232.998C375.655 232.969 375.589 232.984 375.55 233.03L375.542 233.04Z" fill="#0E293A"/>
<path d="M364.5 243.069C364.886 243.82 365.473 244.469 366.178 244.976C366.881 245.484 367.762 245.81 368.669 245.803C369.57 245.78 370.455 245.474 371.149 244.948C371.512 244.71 371.797 244.377 372.11 244.093C372.372 243.756 372.628 243.418 372.857 243.069C372.513 243.32 372.2 243.589 371.885 243.848C371.535 244.061 371.222 244.323 370.867 244.501C370.176 244.897 369.42 245.114 368.666 245.126C367.908 245.145 367.154 244.905 366.457 244.529C365.762 244.146 365.107 243.648 364.5 243.069Z" fill="#0E293A"/>
<path d="M367.506 247.109C367.823 247.391 368.258 247.493 368.678 247.506C369.099 247.492 369.528 247.378 369.85 247.109C369.439 247.174 369.065 247.255 368.677 247.241C368.29 247.255 367.912 247.188 367.506 247.109Z" fill="#0E293A"/>
<path d="M371.46 228.275C371.979 227.814 372.567 227.664 373.184 227.636C373.796 227.622 374.425 227.694 375.02 227.897C375.621 228.081 376.175 228.418 376.637 228.823C377.12 229.213 377.459 229.73 377.741 230.238C377.884 230.495 377.791 230.819 377.534 230.962C377.328 231.076 377.08 231.04 376.915 230.889L376.87 230.847C376.508 230.514 376.16 230.201 375.771 229.974C375.397 229.722 374.977 229.584 374.558 229.476C374.135 229.378 373.694 229.325 373.243 229.349C372.799 229.364 372.326 229.387 371.838 229.268L371.697 229.234C371.398 229.161 371.214 228.859 371.288 228.56C371.316 228.445 371.377 228.348 371.46 228.275Z" fill="#0E293A"/>
<path d="M365.897 228.275C365.378 227.814 364.79 227.664 364.173 227.636C363.561 227.622 362.932 227.694 362.336 227.897C361.735 228.081 361.181 228.418 360.719 228.823C360.236 229.213 359.898 229.73 359.615 230.238C359.472 230.495 359.565 230.819 359.822 230.962C360.028 231.076 360.277 231.04 360.441 230.889L360.486 230.847C360.848 230.514 361.196 230.201 361.585 229.974C361.959 229.722 362.379 229.584 362.798 229.476C363.221 229.378 363.662 229.325 364.113 229.349C364.557 229.364 365.03 229.387 365.518 229.268L365.659 229.234C365.958 229.161 366.142 228.859 366.068 228.56C366.041 228.445 365.979 228.348 365.897 228.275Z" fill="#0E293A"/>
<path d="M368.42 232.696C368.223 233.554 368.078 234.407 367.919 235.251C367.754 236.093 367.599 236.934 367.36 237.731C367.305 237.932 367.242 238.129 367.171 238.319C367.113 238.475 366.973 238.775 366.978 239.054C366.949 239.623 367.313 240.18 367.777 240.405C368.251 240.671 368.798 240.629 369.23 240.482C369.668 240.324 370.05 240.087 370.38 239.794C369.581 240.094 368.648 240.328 368.086 239.904C367.803 239.689 367.651 239.403 367.691 239.092C367.705 238.932 367.756 238.83 367.858 238.586C367.944 238.373 368.019 238.158 368.083 237.942C368.327 237.074 368.453 236.198 368.501 235.321C368.552 234.446 368.535 233.569 368.42 232.696Z" fill="#0E293A"/>
<path d="M392.745 239.893C392.758 239.37 392.613 238.791 392.152 238.385C391.661 237.983 390.963 238.02 390.433 238.219C389.87 238.414 389.408 238.8 389.045 239.231C388.673 239.668 388.403 240.141 388.183 240.686C388.104 240.88 388.198 241.102 388.393 241.18C388.54 241.239 388.702 241.201 388.806 241.095L388.831 241.069C389.201 240.693 389.667 240.291 390.107 240.167C390.327 240.11 390.491 240.117 390.643 240.226C390.801 240.338 390.922 240.574 391.026 240.817C391.22 241.316 391.337 241.901 390.911 242.132C390.464 242.386 389.809 242.325 389.225 242.247C389.776 242.489 390.386 242.693 391.078 242.496C391.429 242.382 391.709 241.983 391.732 241.622C391.766 241.262 391.714 240.934 391.624 240.613C391.529 240.296 391.397 239.959 391.085 239.682C390.769 239.398 390.273 239.332 389.919 239.441C389.198 239.658 388.711 240.074 388.259 240.559L388.907 240.942C389.256 240.07 389.829 239.162 390.656 238.753C391.07 238.555 391.56 238.455 391.951 238.675C392.359 238.89 392.606 239.393 392.745 239.893Z" fill="#0E293A"/>
<path d="M403.189 241.967C404.089 239.867 404.779 237.527 404.149 235.337C402.749 230.467 395.899 229.117 393.959 224.447C392.739 221.497 393.779 217.857 392.109 215.147C390.779 212.967 388.069 212.037 385.519 211.877C382.979 211.707 380.419 212.127 377.879 211.897C374.479 211.587 371.269 210.107 367.869 209.767C362.399 209.227 356.469 212.247 354.619 217.417C353.579 220.337 353.859 223.617 352.729 226.507C351.649 229.297 349.349 231.477 348.259 234.257C346.869 237.807 347.779 242.137 350.469 244.837C352.279 246.647 354.869 247.867 355.789 250.257C356.419 251.897 356.109 253.747 356.539 255.447C357.139 257.777 359.109 259.567 361.299 260.557C362.309 261.007 363.359 261.267 364.429 261.507C364.479 260.667 364.699 260.087 365.219 260.057C365.729 260.027 367.119 259.887 369.009 259.687C369.009 259.207 368.989 258.757 368.949 258.337V258.327C365.209 257.507 359.859 255.127 358.519 251.307C358.159 250.297 358.119 249.197 358.109 248.127V247.377C358.079 244.967 358.079 242.457 358.179 239.907C358.248 238.049 358.375 236.178 358.567 234.32C360.105 230.305 362.748 223.811 362.748 223.811C363.177 227.084 365.984 229.895 369.257 230.329C370.969 230.556 372.915 230.255 374.245 231.357C375.712 232.574 375.765 235.031 377.373 236.053C379.064 237.129 381.708 236.084 383.056 237.567C383.839 238.429 383.986 239.987 385.117 240.262C386.09 240.498 386.903 239.54 387.441 238.696C388.02 237.786 389.561 236.289 389.56 236.327C389.76 236.227 389.95 236.147 390.08 236.117C391.84 235.677 393.61 237.007 394.14 238.667C394.56 239.987 394.28 241.477 393.52 242.637C392.9 243.607 391.88 244.507 390.79 244.927C390.52 245.027 389.32 245.227 388.46 245.157C388.23 246.597 387.44 251.587 387.2 257.017C388.03 256.817 388.72 256.617 389.22 256.427C391.76 255.457 391.72 259.507 391.16 263.257C392.61 262.907 394.03 262.507 395.38 262.057C397.14 261.477 398.97 260.717 400.05 259.207C402.21 256.207 400.46 252.037 400.9 248.367C401.169 246.107 402.289 244.057 403.189 241.967Z" fill="#0E293A"/>
<path d="M250.866 330.76H188.366V333.51H250.866V330.76Z" fill="#216087"/>
<path d="M283.241 330.76H220.741V333.51H283.241V330.76Z" fill="#0E293A"/>
<path d="M283.241 330.791H220.741L226.01 291.51C226.142 290.526 226.982 289.791 227.975 289.791H286.475C287.674 289.791 288.599 290.848 288.439 292.037L283.241 330.791Z" fill="#0E293A"/>
<path d="M133.132 334.541L102.969 477.041H95.5181L125.681 334.541H133.132Z" fill="#979797"/>
<path d="M426.868 334.541L457.031 477.041H464.482L434.319 334.541H426.868Z" fill="#979797"/>
<path d="M90.9089 334.541L60.7459 477.041H53.2949L83.4579 334.541H90.9089Z" fill="#201F33"/>
<path d="M469.091 334.541L499.254 477.041H506.705L476.542 334.541H469.091Z" fill="#201F33"/>
<path d="M503.511 333.541H56.4888V341.041H503.511V333.541Z" fill="#201F33"/>
<path d="M559 477.041H1C0.448 477.041 0 476.594 0 476.041C0 475.488 0.448 475.041 1 475.041H559C559.553 475.041 560 475.488 560 476.041C560 476.594 559.553 477.041 559 477.041Z" fill="#048FA6"/>
</svg>
