<svg width="1919" height="886" viewBox="0 0 1919 886" fill="none" xmlns="http://www.w3.org/2000/svg">
<mask id="mask0_1779_14" style="mask-type:alpha" maskUnits="userSpaceOnUse" x="0" y="0" width="1919" height="886">
<rect width="1919" height="886" fill="black"/>
</mask>
<g mask="url(#mask0_1779_14)">
<rect x="1679.41" y="40" width="199.591" height="800.822" fill="url(#paint0_linear_1779_14)"/>
<path d="M1173.13 840.822H971.492L784.746 43.0682H1017.32L1095.23 414.33L1171.99 40H1355.3L1434.35 412.796L1508.82 43.0682H1741.39L1550.06 840.822H1346.13L1257.91 471.094L1173.13 840.822Z" fill="url(#paint1_linear_1779_14)"/>
<mask id="mask1_1779_14" style="mask-type:alpha" maskUnits="userSpaceOnUse" x="40" y="40" width="842" height="802">
<path d="M40 40H286.62L456.261 494.258H464.814L634.455 40H881.075V842H687.2V378.344H681.498L518.985 835.734H402.09L239.577 375.211H233.875V842H40V40Z" fill="black"/>
</mask>
<g mask="url(#mask1_1779_14)">
<rect x="40" y="-54.0166" width="975.797" height="1612.99" fill="#33AD43" fill-opacity="0.26"/>
<rect x="40" y="-54.0166" width="975.797" height="1612.99" fill="url(#paint2_linear_1779_14)"/>
</g>
</g>
<defs>
<linearGradient id="paint0_linear_1779_14" x1="1679.41" y1="440.411" x2="1879" y2="440.411" gradientUnits="userSpaceOnUse">
<stop/>
<stop offset="1" stop-color="#4B4B4B"/>
</linearGradient>
<linearGradient id="paint1_linear_1779_14" x1="784.746" y1="440.411" x2="1741.39" y2="440.411" gradientUnits="userSpaceOnUse">
<stop/>
<stop offset="1" stop-color="#4B4B4B"/>
</linearGradient>
<linearGradient id="paint2_linear_1779_14" x1="40" y1="752.48" x2="1015.8" y2="752.48" gradientUnits="userSpaceOnUse">
<stop stop-color="#030303"/>
<stop offset="1" stop-color="#4B4B4B"/>
</linearGradient>
</defs>
</svg>
