<svg width="338" height="148" viewBox="0 0 338 148" fill="none" xmlns="http://www.w3.org/2000/svg">
<rect x="300.891" y="0.583496" width="36.5917" height="146.817" fill="url(#paint0_linear_1822_990)"/>
<path d="M208.074 147.401H171.107L136.87 1.1465H179.509L193.791 69.2112L207.864 0.583984H241.471L255.964 68.9299L269.617 1.1465H312.255L277.178 147.401H239.791L223.617 79.6178L208.074 147.401Z" fill="url(#paint1_linear_1822_990)"/>
<mask id="mask0_1822_990" style="mask-type:alpha" maskUnits="userSpaceOnUse" x="0" y="0" width="155" height="148">
<path d="M0.333496 0.583984H45.5472L76.6479 83.8646H78.216L109.317 0.583984H154.53V147.617H118.987V62.6136H117.941L88.1474 146.469H66.7166L36.9226 62.0393H35.8772V147.617H0.333496V0.583984Z" fill="black"/>
</mask>
<g mask="url(#mask0_1822_990)">
<rect x="0.333496" y="-16.6528" width="178.896" height="295.715" fill="#33AD43" fill-opacity="0.26"/>
<rect x="0.333496" y="-16.6528" width="178.896" height="295.715" fill="url(#paint2_linear_1822_990)"/>
</g>
<defs>
<linearGradient id="paint0_linear_1822_990" x1="300.891" y1="73.9922" x2="337.483" y2="73.9922" gradientUnits="userSpaceOnUse">
<stop/>
<stop offset="1" stop-color="#4B4B4B"/>
</linearGradient>
<linearGradient id="paint1_linear_1822_990" x1="136.87" y1="73.9926" x2="312.255" y2="73.9926" gradientUnits="userSpaceOnUse">
<stop/>
<stop offset="1" stop-color="#4B4B4B"/>
</linearGradient>
<linearGradient id="paint2_linear_1822_990" x1="0.333496" y1="131.205" x2="179.23" y2="131.205" gradientUnits="userSpaceOnUse">
<stop stop-color="#030303"/>
<stop offset="1" stop-color="#4B4B4B"/>
</linearGradient>
</defs>
</svg>
