<?xml version="1.0" encoding="utf-8"?>
<!-- Generator: Adobe Illustrator 19.0.0, SVG Export Plug-In . SVG Version: 6.00 Build 0)  -->
<svg version="1.1" id="Слой_1" xmlns="http://www.w3.org/2000/svg" xmlns:xlink="http://www.w3.org/1999/xlink" x="0px" y="0px"
	 viewBox="-1782.4 848.8 172.3 170.5" style="enable-background:new -1782.4 848.8 172.3 170.5;" xml:space="preserve">
<style type="text/css">
	.st0{enable-background:new    ;}
	.st1{fill:#DCDCDC;}
	.st2{fill:#999999;}
	.st3{fill:#EFEFEF;}
	.st4{fill:#898989;}
	.st5{fill:#C5C5C5;}
	.st6{fill:#F3F3F3;}
	.st7{fill:#979797;}
	.st8{fill:#868686;}
	.st9{fill:url(#SVGID_1_);}
	.st10{fill:#1B5D24;}
	.st11{display:none;enable-background:new    ;}
	.st12{display:inline;}
	.st13{clip-path:url(#SVGID_3_);enable-background:new    ;}
	.st14{fill:#1B5A23;}
	.st15{fill:#1C5D24;}
	.st16{fill:#1D6126;}
	.st17{fill:#1E6427;}
	.st18{fill:#1F6828;}
	.st19{fill:#206B2A;}
	.st20{fill:#216F2B;}
	.st21{fill:#22722C;}
	.st22{fill:#23762E;}
	.st23{fill:#24792F;}
	.st24{fill:#257D30;}
	.st25{fill:#268032;}
	.st26{fill:#278333;}
	.st27{fill:#288734;}
	.st28{fill:#298A36;}
	.st29{clip-path:url(#SVGID_5_);enable-background:new    ;}
	.st30{fill:#2A8E37;}
	.st31{fill:#2B9138;}
	.st32{fill:#2C953A;}
	.st33{fill:#2D983B;}
	.st34{fill:#2E9C3C;}
	.st35{fill:#2F9F3E;}
	.st36{fill:#30A33F;}
	.st37{fill:#31A640;}
	.st38{fill:#32AA42;}
	.st39{fill:#33AD43;}
</style>
<g id="Слой_1_1_">
	<g id="button">
	</g>
	<g id="Text">
	</g>
	<g>
		<g>
			<g class="st0">
				<g>
					<polygon class="st1" points="-1778.9,922.6 -1714,885 -1698.4,894 -1763.3,931.6 					"/>
				</g>
				<g>
					<polygon class="st2" points="-1748.9,914.2 -1684.1,876.5 -1694.3,903.2 -1759.2,940.9 					"/>
				</g>
				<g>
					<polygon class="st3" points="-1749.2,897.8 -1684.4,860.1 -1677.6,880.4 -1742.5,918.1 					"/>
				</g>
				<g>
					<polygon class="st4" points="-1731.5,914.6 -1666.7,876.9 -1677.7,893.7 -1742.6,931.3 					"/>
				</g>
				<g>
					<polygon class="st5" points="-1725.5,903.7 -1660.7,866 -1660.9,964.6 -1725.7,1002.3 					"/>
				</g>
				<g>
					<polygon class="st6" points="-1714.7,985.7 -1649.9,948 -1643.5,965.1 -1708.3,1002.8 					"/>
				</g>
				<polygon class="st7" points="-1694,985.4 -1702.7,1006.6 -1714.8,999 -1725.8,1016.6 -1700.9,1002.2 -1704.9,1011.9 
					-1706.4,1015.3 -1708,1019.3 -1643.2,981.6 -1641.5,977.6 -1640.1,974.2 -1629.1,947.8 				"/>
				<g>
					<polygon class="st1" points="-1731.5,900.3 -1666.6,862.6 -1660.7,866 -1725.5,903.7 					"/>
				</g>
				<g>
					<polygon class="st8" points="-1674.9,989.6 -1610.1,951.7 -1613.6,956.7 -1678.5,994.4 					"/>
				</g>
				<g>
					<polygon class="st1" points="-1698.1,976 -1633.3,938.3 -1610.1,951.7 -1674.9,989.6 					"/>
				</g>
				<g>
					<polygon class="st4" points="-1725.5,903.7 -1725.7,1002.3 -1714.7,985.7 -1708.3,1002.8 -1698.1,976 -1674.9,989.6 
						-1678.5,994.4 -1694,985.4 -1704.9,1011.9 -1706.4,1015.3 -1708,1019.3 -1714.8,999 -1725.8,1016.6 -1731.8,1013.3 
						-1731.5,914.6 -1742.6,931.3 -1748.9,914.2 -1759.2,940.9 -1782.4,927.5 -1778.9,922.6 -1763.3,931.6 -1752.3,905.2 
						-1751,901.8 -1749.2,897.8 -1742.5,918.1 -1731.5,900.3 					"/>
				</g>
			</g>
			<linearGradient id="SVGID_1_" gradientUnits="userSpaceOnUse" x1="-1697.6095" y1="866.8714" x2="-1691.6302" y2="877.2278">
				<stop  offset="0" style="stop-color:#328A42"/>
				<stop  offset="0.5116" style="stop-color:#32AA42"/>
				<stop  offset="0.8347" style="stop-color:#329542"/>
				<stop  offset="1" style="stop-color:#328A42"/>
			</linearGradient>
			<path class="st9" d="M-1659.4,856.3c0-2.6-1.8-5.6-4-6.9c-0.9-0.5-1.7-0.7-2.4-0.5c-0.1,0-0.1,0-0.1,0s-0.1,0-0.1,0.1
				c-0.1,0-0.2,0.1-0.3,0.2c-5.3,3-57.8,32.5-65.1,37.7l5.8,9.6c10.3-5.7,20.7-11.6,31.3-17.7c11.3-6.6,22.8-13.3,33.6-19.9
				c0.1-0.1,0.2-0.1,0.3-0.2c0,0,0.1-0.1,0.1-0.1c0,0,0,0,0,0C-1659.8,858.1-1659.4,857.4-1659.4,856.3z"/>
			<g>
				<path class="st10" d="M-1728.5,887.1c2.2,1.3,4,4.3,4,6.9c0,2.5-1.8,3.5-4,2.3c-2.2-1.3-4-4.3-4-6.9
					C-1732.4,886.8-1730.7,885.8-1728.5,887.1z"/>
			</g>
			<g>
				<g class="st11">
					<g class="st12">
						<defs>
							<path id="SVGID_2_" d="M-1731.3,886.8l64.8-37.7c0.7-0.4,1.7-0.4,2.8,0.3l-64.8,37.7
								C-1729.6,886.4-1730.6,886.4-1731.3,886.8z"/>
						</defs>
						<clipPath id="SVGID_3_">
							<use xlink:href="#SVGID_2_"  style="overflow:visible;"/>
						</clipPath>
						<g class="st13">
							<path class="st14" d="M-1731.3,886.8l64.8-37.7c0.1-0.1,0.2-0.1,0.3-0.1l-64.8,37.7C-1731.1,886.7-1731.2,886.7-1731.3,886.8
								"/>
							<path class="st15" d="M-1731,886.6l64.8-37.7c0.1,0,0.2-0.1,0.3-0.1l-64.8,37.7C-1730.8,886.6-1730.9,886.6-1731,886.6"/>
							<path class="st16" d="M-1730.7,886.6l64.8-37.7c0.1,0,0.2,0,0.2,0l-64.8,37.7C-1730.5,886.5-1730.6,886.6-1730.7,886.6"/>
							<path class="st17" d="M-1730.5,886.5l64.8-37.7c0.1,0,0.1,0,0.2,0l-64.8,37.7C-1730.3,886.5-1730.4,886.5-1730.5,886.5"/>
							<path class="st18" d="M-1730.2,886.5l64.8-37.7c0.1,0,0.1,0,0.2,0l-64.8,37.7C-1730.1,886.5-1730.2,886.5-1730.2,886.5"/>
							<path class="st19" d="M-1730.1,886.5l64.8-37.7c0.1,0,0.1,0,0.2,0l-64.8,37.7C-1729.9,886.5-1730,886.5-1730.1,886.5"/>
							<path class="st20" d="M-1729.9,886.6l64.8-37.7c0.1,0,0.1,0,0.2,0l-64.8,37.7C-1729.8,886.6-1729.8,886.6-1729.9,886.6"/>
							<path class="st21" d="M-1729.7,886.6l64.8-37.7c0.1,0,0.1,0,0.2,0l-64.8,37.7C-1729.6,886.6-1729.7,886.6-1729.7,886.6"/>
							<path class="st22" d="M-1729.5,886.6l64.8-37.7c0.1,0,0.1,0,0.2,0l-64.8,37.7C-1729.4,886.6-1729.5,886.6-1729.5,886.6"/>
							<path class="st23" d="M-1729.4,886.7l64.8-37.7c0.1,0,0.1,0,0.2,0.1l-64.8,37.7C-1729.3,886.7-1729.3,886.7-1729.4,886.7"/>
							<path class="st24" d="M-1729.2,886.7l64.8-37.7c0.1,0,0.1,0,0.2,0.1l-64.8,37.7C-1729.1,886.8-1729.2,886.7-1729.2,886.7"/>
							<path class="st25" d="M-1729.1,886.8l64.8-37.7c0.1,0,0.1,0,0.2,0.1l-64.8,37.7C-1729,886.8-1729,886.8-1729.1,886.8"/>
							<path class="st26" d="M-1728.9,886.8l64.8-37.7c0.1,0,0.1,0,0.2,0.1l-64.8,37.7C-1728.8,886.9-1728.9,886.9-1728.9,886.8"/>
							<path class="st27" d="M-1728.7,886.9l64.8-37.7c0.1,0,0.1,0.1,0.2,0.1l-64.8,37.7C-1728.6,887-1728.7,886.9-1728.7,886.9"/>
							<path class="st28" d="M-1728.6,887l64.8-37.7c0,0,0.1,0,0.1,0.1L-1728.6,887C-1728.5,887-1728.5,887-1728.6,887"/>
						</g>
					</g>
				</g>
				<g class="st11">
					<g class="st12">
						<defs>
							<path id="SVGID_4_" d="M-1660.8,858.8l-64.8,37.7c0.7-0.4,1.2-1.3,1.2-2.6c0-2.5-1.8-5.6-4-6.9l64.8-37.7
								c2.2,1.3,4,4.3,4,6.9C-1659.7,857.5-1660.1,858.4-1660.8,858.8z"/>
						</defs>
						<clipPath id="SVGID_5_">
							<use xlink:href="#SVGID_4_"  style="overflow:visible;"/>
						</clipPath>
						<g class="st29">
							<path class="st28" d="M-1728.5,887.1l64.8-37.7l0,0L-1728.5,887.1C-1728.4,887.1-1728.4,887.1-1728.5,887.1"/>
							<path class="st30" d="M-1728.4,887.1l64.8-37.7c0.1,0,0.1,0.1,0.2,0.1l-64.8,37.7C-1728.3,887.2-1728.4,887.1-1728.4,887.1"
								/>
							<path class="st31" d="M-1728.3,887.2l64.8-37.7c0.1,0,0.1,0.1,0.2,0.1l-64.8,37.7C-1728.1,887.3-1728.2,887.2-1728.3,887.2"
								/>
							<path class="st32" d="M-1728.1,887.3l64.8-37.7c0.1,0,0.1,0.1,0.2,0.1l-64.8,37.7C-1728,887.4-1728,887.4-1728.1,887.3"/>
							<path class="st33" d="M-1727.9,887.4l64.8-37.7c0.1,0,0.1,0.1,0.2,0.1l-64.8,37.7C-1727.8,887.5-1727.8,887.5-1727.9,887.4"
								/>
							<path class="st34" d="M-1727.7,887.6l64.8-37.7c0.1,0.1,0.1,0.1,0.2,0.2l-64.8,37.7C-1727.6,887.7-1727.7,887.6-1727.7,887.6
								"/>
							<path class="st35" d="M-1727.5,887.7l64.8-37.7c0.1,0.1,0.1,0.1,0.2,0.2l-64.8,37.7C-1727.4,887.8-1727.5,887.8-1727.5,887.7
								"/>
							<path class="st36" d="M-1727.3,887.9l64.8-37.7c0.1,0.1,0.1,0.1,0.2,0.2l-64.8,37.7C-1727.2,888.1-1727.3,888-1727.3,887.9"
								/>
							<path class="st37" d="M-1727.1,888.1l64.8-37.7c0.1,0.1,0.2,0.2,0.3,0.3l-64.8,37.7C-1726.9,888.3-1727,888.2-1727.1,888.1"
								/>
							<path class="st38" d="M-1726.9,888.4l64.8-37.7c0.1,0.1,0.2,0.2,0.3,0.4l-64.8,37.7C-1726.6,888.6-1726.7,888.5-1726.9,888.4
								"/>
							<path class="st39" d="M-1726.5,888.8l64.8-37.7c0.4,0.5,0.8,1.1,1.1,1.7l-64.8,37.7C-1725.7,889.9-1726.1,889.3-1726.5,888.8
								"/>
							<path class="st38" d="M-1725.4,890.5l64.8-37.7c0.1,0.2,0.2,0.3,0.2,0.5l-64.8,37.7C-1725.3,890.8-1725.3,890.6-1725.4,890.5
								"/>
							<path class="st37" d="M-1725.2,890.9l64.8-37.7c0.1,0.1,0.1,0.2,0.2,0.4l-64.8,37.7C-1725.1,891.2-1725.2,891-1725.2,890.9"
								/>
							<path class="st36" d="M-1725.1,891.3l64.8-37.7c0,0.1,0.1,0.2,0.1,0.3l-64.8,37.7C-1725,891.5-1725,891.4-1725.1,891.3"/>
							<path class="st35" d="M-1724.9,891.6l64.8-37.7c0,0.1,0.1,0.2,0.1,0.3l-64.8,37.7C-1724.9,891.8-1724.9,891.7-1724.9,891.6"
								/>
							<path class="st34" d="M-1724.8,891.8l64.8-37.7c0,0.1,0.1,0.2,0.1,0.3l-64.8,37.7C-1724.8,892-1724.8,891.9-1724.8,891.8"/>
							<path class="st33" d="M-1724.8,892.1l64.8-37.7c0,0.1,0,0.2,0.1,0.2l-64.8,37.7C-1724.7,892.3-1724.8,892.2-1724.8,892.1"/>
							<path class="st32" d="M-1724.7,892.3l64.8-37.7c0,0.1,0,0.1,0.1,0.2l-64.8,37.7C-1724.7,892.5-1724.7,892.4-1724.7,892.3"/>
							<path class="st31" d="M-1724.7,892.5l64.8-37.7c0,0.1,0,0.1,0,0.2l-64.8,37.7C-1724.6,892.7-1724.6,892.6-1724.7,892.5"/>
							<path class="st30" d="M-1724.6,892.8l64.8-37.7c0,0.1,0,0.1,0,0.2l-64.8,37.7C-1724.6,892.9-1724.6,892.8-1724.6,892.8"/>
							<path class="st28" d="M-1724.6,893l64.8-37.7c0,0.1,0,0.1,0,0.2l-64.8,37.7C-1724.6,893.1-1724.6,893-1724.6,893"/>
							<path class="st27" d="M-1724.6,893.2l64.8-37.7c0,0.1,0,0.1,0,0.2l-64.8,37.7C-1724.5,893.3-1724.5,893.2-1724.6,893.2"/>
							<path class="st26" d="M-1724.5,893.4l64.8-37.7c0,0.1,0,0.1,0,0.2l-64.8,37.7C-1724.5,893.5-1724.5,893.4-1724.5,893.4"/>
							<path class="st25" d="M-1724.5,893.6l64.8-37.7c0,0.1,0,0.1,0,0.2l-64.8,37.7C-1724.5,893.7-1724.5,893.6-1724.5,893.6"/>
							<path class="st24" d="M-1724.5,893.7l64.8-37.7c0,0.1,0,0.1,0,0.2l0,0l-64.8,37.7l0,0
								C-1724.5,893.9-1724.5,893.8-1724.5,893.7"/>
							<path class="st23" d="M-1724.5,893.9l64.8-37.7c0,0.1,0,0.1,0,0.2l-64.8,37.7C-1724.5,894.1-1724.5,894-1724.5,893.9"/>
							<path class="st22" d="M-1724.5,894.1l64.8-37.7c0,0.1,0,0.1,0,0.2l-64.8,37.7C-1724.5,894.3-1724.5,894.2-1724.5,894.1"/>
							<path class="st21" d="M-1724.5,894.3l64.8-37.7c0,0.1,0,0.1,0,0.2l-64.8,37.7C-1724.5,894.4-1724.5,894.4-1724.5,894.3"/>
							<path class="st20" d="M-1724.5,894.5l64.8-37.7c0,0.1,0,0.1,0,0.2l-64.8,37.7C-1724.6,894.6-1724.5,894.6-1724.5,894.5"/>
							<path class="st19" d="M-1724.6,894.7l64.8-37.7c0,0.1,0,0.1,0,0.2l-64.8,37.7C-1724.6,894.8-1724.6,894.8-1724.6,894.7"/>
							<path class="st18" d="M-1724.6,894.9l64.8-37.7c0,0.1,0,0.1-0.1,0.2l-64.8,37.7C-1724.6,895-1724.6,895-1724.6,894.9"/>
							<path class="st17" d="M-1724.7,895.1l64.8-37.7c0,0.1,0,0.1-0.1,0.2l-64.8,37.7C-1724.7,895.2-1724.7,895.2-1724.7,895.1"/>
							<path class="st16" d="M-1724.7,895.3l64.8-37.7c0,0.1-0.1,0.2-0.1,0.2l-64.8,37.7C-1724.8,895.5-1724.8,895.4-1724.7,895.3"
								/>
							<path class="st15" d="M-1724.8,895.5l64.8-37.7c0,0.1-0.1,0.2-0.2,0.3l-64.8,37.7C-1724.9,895.7-1724.9,895.6-1724.8,895.5"
								/>
							<path class="st14" d="M-1725,895.8l64.8-37.7c-0.2,0.3-0.4,0.5-0.7,0.7l-64.8,37.7C-1725.4,896.3-1725.2,896.1-1725,895.8"/>
						</g>
					</g>
				</g>
			</g>
		</g>
	</g>
</g>
</svg>
