<svg width="9" height="9" viewBox="0 0 9 9" fill="none" xmlns="http://www.w3.org/2000/svg">
<path d="M4.4999 9C4.66998 8.99628 4.83961 8.93851 4.94996 8.85326L8.77547 5.91848C9.06171 5.67577 9.06738 5.31746 8.83173 5.08696C8.59608 4.85646 8.14046 4.83315 7.87535 5.03805L5.17499 7.11074L5.17499 0.586956C5.17499 0.2628 4.87273 0 4.4999 0C4.12705 0 3.82481 0.2628 3.82481 0.586956L3.82481 7.11074L1.12445 5.03805C0.85934 4.83315 0.410765 4.86205 0.16807 5.08696C-0.0851564 5.32162 -0.040781 5.71359 0.224327 5.91848L4.04984 8.85326C4.18468 8.95755 4.31905 8.99876 4.4999 9Z" fill="black"/>
</svg>
