<svg width="18" height="12" viewBox="0 0 18 12" fill="none" xmlns="http://www.w3.org/2000/svg">
<path d="M0 5.99986C0.00589655 6.22663 0.0975413 6.4528 0.232758 6.59994L4.88793 11.7006C5.27291 12.0823 5.84127 12.0898 6.20689 11.7756C6.57251 11.4614 6.60947 10.8539 6.28448 10.5005L2.99675 6.89998H17.069C17.5831 6.89998 18 6.49697 18 5.99986C18 5.50272 17.5831 5.09975 17.069 5.09975H2.99675L6.28448 1.49927C6.60947 1.14579 6.56363 0.547687 6.20689 0.224093C5.83466 -0.113543 5.21292 -0.0543745 4.88793 0.299103L0.232758 5.39978C0.0673448 5.57959 0.00195517 5.75872 0 5.99986Z" fill="white"/>
</svg>
