<svg width="40" height="40" viewBox="0 0 40 40" fill="none" xmlns="http://www.w3.org/2000/svg">
<path d="M20 0C31.0279 0 40 8.97214 40 20C40 31.0279 31.0286 40 20 40C8.97141 40 0 31.0286 0 20C0 8.97141 8.97214 0 20 0ZM20 38.5459C30.2255 38.5459 38.5451 30.2262 38.5451 20.0007C38.5451 9.77522 30.2255 1.45559 20 1.45559C9.77377 1.45559 1.45486 9.77522 1.45486 20.0007C1.45486 30.2262 9.77377 38.5459 20 38.5459Z" fill="black"/>
<path d="M22.6013 13.7324C22.8806 13.7324 23.1599 13.8386 23.3731 14.0517C23.7986 14.478 23.7986 15.169 23.3731 15.5953L18.9459 20.021L23.3694 24.4016C23.7972 24.8257 23.8008 25.5167 23.3767 25.9452C22.9526 26.3729 22.2615 26.3773 21.8331 25.9525L16.6305 20.8001C16.4246 20.5957 16.3082 20.3178 16.3075 20.0268C16.3068 19.7366 16.4217 19.458 16.6269 19.2528L21.8295 14.0517C22.0426 13.8386 22.3219 13.7324 22.6013 13.7324Z" fill="black"/>
</svg>
