<svg width="12" height="12" viewBox="0 0 12 12" fill="none" xmlns="http://www.w3.org/2000/svg">
<path d="M12 6.00013C11.995 5.77336 11.918 5.54719 11.8044 5.40005L7.89131 0.299371C7.5677 -0.0822832 7.08994 -0.0898412 6.78261 0.224361C6.47528 0.53856 6.44421 1.14606 6.71739 1.49953L9.48098 5.10002H0.782608C0.3504 5.10002 0 5.50302 0 6.00013C0 6.49727 0.3504 6.90025 0.782608 6.90025H9.48098L6.71739 10.5007C6.44421 10.8542 6.48274 11.4523 6.78261 11.7759C7.0955 12.1135 7.61812 12.0544 7.89131 11.7009L11.8044 6.60021C11.9434 6.42043 11.9984 6.24127 12 6.00013Z" fill="#33AD43"/>
</svg>
