<svg width="21" height="15" viewBox="0 0 21 15" fill="none" xmlns="http://www.w3.org/2000/svg">
<path d="M21 7.49983C20.9931 7.78329 20.8862 8.066 20.7284 8.24993L15.2974 14.6258C14.8483 15.1029 14.1852 15.1123 13.7586 14.7196C13.3321 14.3268 13.289 13.5674 13.6681 13.1256L17.5038 8.62498H1.08621C0.486332 8.62498 0 8.12121 0 7.49983C0 6.8784 0.486332 6.37469 1.08621 6.37469H17.5038L13.6681 1.87408C13.289 1.43223 13.3424 0.684608 13.7586 0.280116C14.1929 -0.141928 14.9183 -0.0679682 15.2974 0.373879L20.7284 6.74972C20.9214 6.97449 20.9977 7.1984 21 7.49983Z" fill="white"/>
</svg>
