<svg width="7" height="13" viewBox="0 0 7 13" fill="none" xmlns="http://www.w3.org/2000/svg">
<path d="M6.0707 0.154594C6.28819 -0.0587485 6.62844 -0.0502501 6.83601 0.173709C6.94073 0.278334 7 0.423413 7 0.57512C7 0.726827 6.94073 0.871905 6.83601 0.97653L1.35131 6.50071L6.83601 12.0249C6.94073 12.1295 7 12.2746 7 12.4263C7 12.578 6.94073 12.7231 6.83601 12.8277C6.73901 12.9416 6.59889 13.0046 6.45335 12.9997C6.31237 12.999 6.17643 12.9446 6.0707 12.8468L0.166904 6.92123C0.0600791 6.80998 0 6.65861 0 6.50071C0 6.3428 0.0600791 6.19143 0.166904 6.08018L6.0707 0.154594Z" fill="#ffffff"/>
</svg>
