<svg width="275" height="282" viewBox="0 0 275 282" fill="none" xmlns="http://www.w3.org/2000/svg">
<path d="M137.283 20.0745C142.892 20.0745 147.439 15.5806 147.439 10.0372C147.439 4.49382 142.892 0 137.283 0C131.674 0 127.127 4.49382 127.127 10.0372C127.127 15.5806 131.674 20.0745 137.283 20.0745Z" fill="#EDEDED"/>
<path d="M225.964 172.245H265.68L274.747 157.189H215.446L189.512 228.525L173.009 199.13L144.9 249.854V32.7991H129.666V281.4H144.9L173.009 228.346L190.419 264.372L194.59 253.439L198.217 244.118" fill="#EDEDED"/>
<path d="M48.7834 141.954H8.8862L0 157.009H59.302L85.235 85.4945L101.557 115.069L129.666 64.3448V281.4H145.081V32.7991H129.666L101.738 85.8528L84.3283 49.8265L80.1572 60.7601H79.9761L76.5301 69.9011V70.0801" fill="#EDEDED"/>
</svg>
