<svg width="80" height="80" viewBox="0 0 80 80" fill="none" xmlns="http://www.w3.org/2000/svg">
<path fill-rule="evenodd" clip-rule="evenodd" d="M5 2.5C5 3.88062 3.88071 5 2.5 5C1.11929 5 0 3.88062 0 2.5C0 1.11938 1.11929 0 2.5 0C3.88071 0 5 1.11938 5 2.5ZM30 2.5C30 3.88062 28.8807 5 27.5 5C26.1193 5 25 3.88062 25 2.5C25 1.11938 26.1193 0 27.5 0C28.8807 0 30 1.11938 30 2.5ZM52.5 5C53.8807 5 55 3.88062 55 2.5C55 1.11938 53.8807 0 52.5 0C51.1193 0 50 1.11938 50 2.5C50 3.88062 51.1193 5 52.5 5ZM80 2.5C80 3.88062 78.8807 5 77.5 5C76.1193 5 75 3.88062 75 2.5C75 1.11938 76.1193 0 77.5 0C78.8807 0 80 1.11938 80 2.5ZM2.5 30C3.88071 30 5 28.8806 5 27.5C5 26.1194 3.88071 25 2.5 25C1.11929 25 0 26.1194 0 27.5C0 28.8806 1.11929 30 2.5 30ZM30 27.5C30 28.8806 28.8807 30 27.5 30C26.1193 30 25 28.8806 25 27.5C25 26.1194 26.1193 25 27.5 25C28.8807 25 30 26.1194 30 27.5ZM52.5 30C53.8807 30 55 28.8806 55 27.5C55 26.1194 53.8807 25 52.5 25C51.1193 25 50 26.1194 50 27.5C50 28.8806 51.1193 30 52.5 30ZM80 27.5C80 28.8806 78.8807 30 77.5 30C76.1193 30 75 28.8806 75 27.5C75 26.1194 76.1193 25 77.5 25C78.8807 25 80 26.1194 80 27.5ZM2.5 55C3.88071 55 5 53.8806 5 52.5C5 51.1194 3.88071 50 2.5 50C1.11929 50 0 51.1194 0 52.5C0 53.8806 1.11929 55 2.5 55ZM30 52.5C30 53.8806 28.8807 55 27.5 55C26.1193 55 25 53.8806 25 52.5C25 51.1194 26.1193 50 27.5 50C28.8807 50 30 51.1194 30 52.5ZM52.5 55C53.8807 55 55 53.8806 55 52.5C55 51.1194 53.8807 50 52.5 50C51.1193 50 50 51.1194 50 52.5C50 53.8806 51.1193 55 52.5 55ZM80 52.5C80 53.8806 78.8807 55 77.5 55C76.1193 55 75 53.8806 75 52.5C75 51.1194 76.1193 50 77.5 50C78.8807 50 80 51.1194 80 52.5ZM2.5 80C3.88071 80 5 78.8806 5 77.5C5 76.1194 3.88071 75 2.5 75C1.11929 75 0 76.1194 0 77.5C0 78.8806 1.11929 80 2.5 80ZM30 77.5C30 78.8806 28.8807 80 27.5 80C26.1193 80 25 78.8806 25 77.5C25 76.1194 26.1193 75 27.5 75C28.8807 75 30 76.1194 30 77.5ZM52.5 80C53.8807 80 55 78.8806 55 77.5C55 76.1194 53.8807 75 52.5 75C51.1193 75 50 76.1194 50 77.5C50 78.8806 51.1193 80 52.5 80ZM80 77.5C80 78.8806 78.8807 80 77.5 80C76.1193 80 75 78.8806 75 77.5C75 76.1194 76.1193 75 77.5 75C78.8807 75 80 76.1194 80 77.5Z" fill="#D8D8D8"/>
</svg>
