<svg width="21" height="21" viewBox="0 0 21 21" fill="none" xmlns="http://www.w3.org/2000/svg">
<path fill-rule="evenodd" clip-rule="evenodd" d="M7.77455 10.1027L0.718338 17.1589C-0.101046 17.9783 -0.206291 19.1417 0.402214 19.8031C1.03715 20.438 2.22706 20.3064 3.02001 19.5134L10.1027 12.4308L17.1853 19.5134C17.9782 20.3064 19.1682 20.438 19.8031 19.8031C20.4116 19.1417 20.3064 17.9783 19.487 17.1589L12.4308 10.1027L19.5134 3.02003C20.3064 2.22707 20.438 1.03717 19.8031 0.402228C19.1682 -0.23271 17.9782 -0.101032 17.1853 0.69192L10.1027 7.77456L3.02001 0.69192C2.22706 -0.101032 1.03715 -0.23271 0.402214 0.402228C-0.232723 1.03717 -0.101046 2.22707 0.691906 3.02003L7.77455 10.1027Z" fill="black"/>
</svg>
