<svg width="75" height="61" viewBox="0 0 75 61" fill="none" xmlns="http://www.w3.org/2000/svg">
<path fill-rule="evenodd" clip-rule="evenodd" d="M28.3929 55.0446C31.7411 51.5625 33.3482 47.8125 33.3482 43.6607C33.3482 40.1786 32.2768 37.0982 30.4018 34.2857C28.3929 31.3393 26.1161 29.4643 23.5714 28.6607C24.2411 25.8482 25.7143 23.4375 27.7232 21.1607C29.7321 18.8839 32.4107 16.6071 35.625 14.3304L28.9286 0C20.7589 3.75 13.9286 9.50893 8.30357 17.2768C2.8125 25.0446 0 32.8125 0 40.5804C0 46.3393 1.60714 51.0268 4.82143 54.7768C8.03571 58.3929 12.0536 60.2679 16.6071 60.2679C21.1607 60.2679 25.1786 58.5268 28.3929 55.0446ZM68.1696 55.0446C71.5179 51.5625 73.125 47.8125 73.125 43.6607C73.125 40.1786 72.0536 37.0982 69.7768 34.1518C67.7679 31.2054 65.4911 29.3304 63.0804 28.5268C64.2857 23.9732 68.1696 19.2857 75 14.3304L68.5714 0C60.2679 3.88393 53.4375 9.64286 47.8125 17.4107C42.3214 25.0446 39.5089 32.8125 39.5089 40.5804C39.5089 46.3393 41.25 51.0268 44.4643 54.7768C47.6786 58.3929 51.6964 60.2679 56.3839 60.2679C60.9375 60.2679 64.9554 58.5268 68.1696 55.0446Z" fill="white"/>
</svg>
