<svg width="84" height="69" viewBox="0 0 84 69" fill="none" xmlns="http://www.w3.org/2000/svg">
<path fill-rule="evenodd" clip-rule="evenodd" d="M71.8889 0.939087C69.7565 0.939087 68 2.69557 68 4.82798C68 5.27391 68.0919 5.69346 68.2329 6.09389L60.9666 11.907C60.3705 11.5341 59.6742 11.3095 58.9259 11.3095C57.2489 11.3095 55.8206 12.4009 55.2801 13.9021H43.1273C42.5868 12.4009 41.1585 11.3095 39.4815 11.3095C37.3491 11.3095 35.5926 13.0659 35.5926 15.1983C35.5926 15.8659 35.7818 16.4849 36.0838 17.0365L29.3035 24.5712C28.8441 24.3783 28.3406 24.2724 27.8148 24.2724C25.6824 24.2724 23.9259 26.0289 23.9259 28.1613C23.9259 28.1735 23.9309 28.1845 23.931 28.1968L16.533 30.8856C15.8171 30.022 14.7532 29.4576 13.5556 29.4576C12.6393 29.4576 11.8031 29.7945 11.1351 30.3336L2.61806 24.5003C2.40457 24.3492 2.15039 24.2663 1.88889 24.2623C1.31182 24.2522 0.797571 24.6248 0.627423 25.1763C0.457276 25.7278 0.672208 26.3254 1.15466 26.6422L9.75781 32.5312C9.70061 32.7946 9.66667 33.0671 9.66667 33.3465C9.66667 35.4789 11.4231 37.2354 13.5556 37.2354C15.688 37.2354 17.4444 35.4789 17.4444 33.3465C17.4444 33.3343 17.4395 33.3232 17.4394 33.311L24.8374 30.6222C25.5533 31.484 26.6186 32.0502 27.8148 32.0502C29.9472 32.0502 31.7037 30.2937 31.7037 28.1613C31.7037 27.4961 31.5175 26.8733 31.2176 26.3232L37.9978 18.7885C38.4557 18.9799 38.9579 19.0872 39.4815 19.0872C41.1568 19.0872 42.5855 17.9935 43.1273 16.4946H55.2801C55.8219 17.9935 57.2506 19.0872 58.9259 19.0872C61.0583 19.0872 62.8148 17.3308 62.8148 15.1983C62.8148 14.7558 62.7209 14.3353 62.5819 13.9375L69.8533 8.11935C70.4484 8.49066 71.1424 8.71686 71.8889 8.71686C73.2536 8.71686 74.455 7.9912 75.1499 6.9142L81.9301 8.67636C82.3859 8.81731 82.8823 8.69654 83.2224 8.36194C83.5625 8.02734 83.6913 7.533 83.5578 7.07497C83.4242 6.61695 83.0499 6.26927 82.5833 6.16985L75.7322 4.38744C75.5081 2.46135 73.8707 0.939087 71.8889 0.939087ZM71.8889 3.53168C72.6202 3.53168 73.1852 4.09686 73.1852 4.82798C73.1852 5.55935 72.6202 6.12427 71.8889 6.12427C71.1576 6.12427 70.5926 5.55935 70.5926 4.82798C70.5926 4.09686 71.1576 3.53168 71.8889 3.53168ZM82.1631 13.8869C81.7822 13.9206 81.4357 14.1207 81.2161 14.4337L74.7043 23.285C74.2369 23.0842 73.7223 22.9761 73.1852 22.9761C71.0528 22.9761 69.2963 24.7326 69.2963 26.865C69.2963 27.4037 69.4083 27.9157 69.6102 28.3841L59.4424 37.7063C58.8978 37.4141 58.2856 37.2354 57.6296 37.2354C56.6967 37.2354 55.8472 37.585 55.1738 38.1418L48.4745 34.1212C48.5267 33.8691 48.5556 33.613 48.5556 33.3465C48.5556 31.2141 46.7991 29.4576 44.6667 29.4576C42.5342 29.4576 40.7778 31.2141 40.7778 33.3465C40.7778 33.9428 40.9282 34.5 41.1727 35.0074L33.3696 42.8105C32.8622 42.5658 32.3002 42.4206 31.7037 42.4206C29.6561 42.4206 27.9722 44.0445 27.8401 46.0613L16.7102 49.2413C16.0018 48.2544 14.8509 47.6058 13.5556 47.6058C12.5753 47.6058 11.6857 47.99 10.9984 48.5982L2.63831 42.6636C2.42861 42.5063 2.17614 42.4163 1.91421 42.4054V42.4104C1.33879 42.3921 0.820238 42.7555 0.640998 43.3026C0.461758 43.8497 0.664777 44.4494 1.13947 44.7752L9.7325 50.8769C9.69937 51.0794 9.66667 51.2834 9.66667 51.4946C9.66667 53.627 11.4231 55.3835 13.5556 55.3835C15.6061 55.3835 17.2913 53.7534 17.4191 51.7326L28.549 48.5577C29.2575 49.5446 30.4083 50.1983 31.7037 50.1983C33.8361 50.1983 35.5926 48.4419 35.5926 46.3095C35.5926 45.7147 35.441 45.1549 35.1976 44.6486L43.0058 36.8404C43.5124 37.084 44.0715 37.2354 44.6667 37.2354C45.5976 37.2354 46.4447 36.8837 47.1175 36.329L53.8218 40.3546C53.7709 40.6037 53.7407 40.8611 53.7407 41.1243C53.7407 43.2567 55.4972 45.0132 57.6296 45.0132C59.7621 45.0132 61.5185 43.2567 61.5185 41.1243C61.5185 40.5872 61.4054 40.0725 61.2046 39.6052L71.3775 30.283C71.9208 30.5735 72.5313 30.7539 73.1852 30.7539C75.3176 30.7539 77.0741 28.9974 77.0741 26.865C77.0741 26.2158 76.8948 25.608 76.6082 25.0674L83.3024 15.968C83.598 15.5794 83.6502 15.0576 83.4374 14.6181C83.2246 14.1786 82.7829 13.8959 82.2947 13.8869C82.2509 13.8846 82.2069 13.8846 82.1631 13.8869ZM39.4815 13.9021C40.2128 13.9021 40.7778 14.4672 40.7778 15.1983C40.7778 15.9297 40.2128 16.4946 39.4815 16.4946C38.7502 16.4946 38.1852 15.9297 38.1852 15.1983C38.1852 14.4672 38.7502 13.9021 39.4815 13.9021ZM58.9259 13.9021C59.6572 13.9021 60.2222 14.4672 60.2222 15.1983C60.2222 15.9297 59.6572 16.4946 58.9259 16.4946C58.2238 16.4946 57.6875 15.9682 57.6448 15.2794C57.6482 15.2254 57.6482 15.1713 57.6448 15.1173C57.6871 14.4283 58.2235 13.9021 58.9259 13.9021ZM73.1852 25.5687C73.506 25.5687 73.7823 25.6887 74.0055 25.8725C74.056 25.9332 74.1119 25.9891 74.1726 26.0396C74.3568 26.2629 74.4815 26.5439 74.4815 26.865C74.4815 27.5964 73.9165 28.1613 73.1852 28.1613C72.4539 28.1613 71.8889 27.5964 71.8889 26.865C71.8889 26.1339 72.4539 25.5687 73.1852 25.5687ZM27.8148 26.865C28.5461 26.865 29.1111 27.4302 29.1111 28.1613C29.1111 28.8927 28.5461 29.4576 27.8148 29.4576C27.0835 29.4576 26.5185 28.8927 26.5185 28.1613C26.5185 27.4302 27.0835 26.865 27.8148 26.865ZM13.5556 32.0502C14.2868 32.0502 14.8519 32.6154 14.8519 33.3465C14.8519 34.0779 14.2868 34.6428 13.5556 34.6428C12.8243 34.6428 12.2593 34.0779 12.2593 33.3465C12.2593 32.6154 12.8243 32.0502 13.5556 32.0502ZM44.6667 32.0502C45.3979 32.0502 45.963 32.6154 45.963 33.3465C45.963 34.0779 45.3979 34.6428 44.6667 34.6428C43.9354 34.6428 43.3704 34.0779 43.3704 33.3465C43.3704 32.6154 43.9354 32.0502 44.6667 32.0502ZM57.6296 39.828C58.3609 39.828 58.9259 40.3932 58.9259 41.1243C58.9259 41.8556 58.3609 42.4206 57.6296 42.4206C56.8984 42.4206 56.3333 41.8556 56.3333 41.1243C56.3333 40.3932 56.8984 39.828 57.6296 39.828ZM71.8889 39.828C69.7565 39.828 68 41.5845 68 43.7169C68 44.394 68.1913 45.0232 68.5013 45.5803L59.1639 55.7025C58.6921 55.4972 58.1732 55.3835 57.6296 55.3835C56.4759 55.3835 55.4431 55.9056 54.7282 56.7153L48.5404 54.2442C48.5426 54.1908 48.5556 54.1412 48.5556 54.0872C48.5556 51.9548 46.7991 50.1983 44.6667 50.1983C42.5342 50.1983 40.7778 51.9548 40.7778 54.0872C40.7778 54.5332 40.8697 54.9527 41.0107 55.3531L33.7444 61.1662C33.1483 60.7933 32.452 60.5687 31.7037 60.5687C30.0267 60.5687 28.5984 61.6601 28.0579 63.1613H17.2014C16.6609 61.6601 15.2326 60.5687 13.5556 60.5687C12.7704 60.5687 12.0381 60.8095 11.4238 61.2169L2.76997 53.1403C2.51738 52.8983 2.17772 52.7687 1.82813 52.7808C1.29973 52.7983 0.834894 53.1349 0.653413 53.6315C0.471932 54.1281 0.610164 54.6851 1.00275 55.0392L9.86415 63.3082C9.74868 63.674 9.66667 64.0558 9.66667 64.4576C9.66667 66.59 11.4231 68.3465 13.5556 68.3465C15.2309 68.3465 16.6596 67.2527 17.2014 65.7539H28.0579C28.5997 67.2527 30.0284 68.3465 31.7037 68.3465C33.8361 68.3465 35.5926 66.59 35.5926 64.4576C35.5926 64.0134 35.4997 63.5908 35.3597 63.1917L42.626 57.3786C43.222 57.7514 43.9186 57.9761 44.6667 57.9761C45.8179 57.9761 46.8482 57.451 47.5631 56.6444L53.7559 59.1205C53.7539 59.172 53.7407 59.2205 53.7407 59.2724C53.7407 61.4048 55.4972 63.1613 57.6296 63.1613C59.7621 63.1613 61.5185 61.4048 61.5185 59.2724C61.5185 58.6232 61.3393 58.0154 61.0527 57.4748L70.4356 47.3121C70.8859 47.4961 71.3759 47.6058 71.8889 47.6058C73.21 47.6058 74.3849 46.9296 75.0891 45.9094L81.3225 52.396C81.8201 52.9055 82.6355 52.9182 83.1488 52.4244C83.662 51.9306 83.6809 51.1153 83.191 50.5984L75.636 42.7396C75.196 41.0755 73.6827 39.828 71.8889 39.828ZM71.8889 42.4206C72.5369 42.4206 73.0302 42.8741 73.1396 43.4839C73.1396 43.4856 73.1396 43.4873 73.1396 43.489C73.148 43.5662 73.1632 43.6424 73.1852 43.7169C73.1852 44.4482 72.6202 45.0132 71.8889 45.0132C71.1576 45.0132 70.5926 44.4482 70.5926 43.7169C70.5926 42.9858 71.1576 42.4206 71.8889 42.4206ZM31.7037 45.0132C32.435 45.0132 33 45.5783 33 46.3095C33 47.0408 32.435 47.6058 31.7037 47.6058C30.9724 47.6058 30.4074 47.0408 30.4074 46.3095C30.4074 45.5783 30.9724 45.0132 31.7037 45.0132ZM13.5556 50.1983C14.2868 50.1983 14.8519 50.7635 14.8519 51.4946C14.8519 52.226 14.2868 52.7909 13.5556 52.7909C12.8243 52.7909 12.2593 52.226 12.2593 51.4946C12.2593 50.7635 12.8243 50.1983 13.5556 50.1983ZM44.6667 52.7909C45.3979 52.7909 45.963 53.3561 45.963 54.0872C45.963 54.8186 45.3979 55.3835 44.6667 55.3835C43.9354 55.3835 43.3704 54.8186 43.3704 54.0872C43.3704 53.3561 43.9354 52.7909 44.6667 52.7909ZM57.6296 57.9761C58.3609 57.9761 58.9259 58.5413 58.9259 59.2724C58.9259 60.0038 58.3609 60.5687 57.6296 60.5687C56.8984 60.5687 56.3333 60.0038 56.3333 59.2724C56.3333 58.5413 56.8984 57.9761 57.6296 57.9761ZM13.5556 63.1613C14.2868 63.1613 14.8519 63.7265 14.8519 64.4576C14.8519 65.189 14.2868 65.7539 13.5556 65.7539C12.8243 65.7539 12.2593 65.189 12.2593 64.4576C12.2593 63.7265 12.8243 63.1613 13.5556 63.1613ZM31.7037 63.1613C32.435 63.1613 33 63.7265 33 64.4576C33 65.189 32.435 65.7539 31.7037 65.7539C31.0016 65.7539 30.4653 65.2274 30.4226 64.5386C30.426 64.4847 30.426 64.4305 30.4226 64.3766C30.4649 63.6876 31.0013 63.1613 31.7037 63.1613Z" fill="#33AD43"/>
</svg>
