<svg width="20" height="24" viewBox="0 0 20 24" fill="none" xmlns="http://www.w3.org/2000/svg">
<path fill-rule="evenodd" clip-rule="evenodd" d="M0 9.34737C0 4.19368 4.28256 0 9.54545 0C14.8084 0 19.0909 4.19368 19.0909 9.34737C19.0909 13.1621 14.1634 19.68 11.2224 23.2168C10.8096 23.7221 10.1904 24 9.54545 24C8.90049 24 8.28133 23.7221 7.86855 23.2168C4.92752 19.68 0 13.1621 0 9.34737ZM9.54545 22.3832C9.62285 22.3832 9.80344 22.3579 9.93243 22.2063C14.6278 16.5474 17.4398 11.7221 17.4398 9.34737C17.4398 5.0779 13.9054 1.61684 9.54545 1.61684C5.1855 1.61684 1.65111 5.0779 1.65111 9.34737C1.65111 11.7221 4.46315 16.5474 9.15848 22.2063C9.28747 22.3579 9.46806 22.3832 9.54545 22.3832Z" fill="white"/>
<path fill-rule="evenodd" clip-rule="evenodd" d="M4.90912 9.54554C4.90912 6.99294 6.8703 4.90918 9.27276 4.90918C11.6752 4.90918 13.6364 6.99294 13.6364 9.54554C13.6364 12.0981 11.6752 14.1819 9.27276 14.1819C6.8703 14.1819 4.90912 12.0981 4.90912 9.54554ZM6.45355 9.54554C6.45355 11.2126 7.72832 12.5409 9.27276 12.5409C10.8172 12.5409 12.092 11.2386 12.092 9.57159C12.092 7.90458 10.8172 6.57619 9.27276 6.57619C7.72832 6.57619 6.45355 7.87854 6.45355 9.54554Z" fill="white"/>
</svg>
