<svg width="78" height="60" viewBox="0 0 78 60" fill="none" xmlns="http://www.w3.org/2000/svg">
<path fill-rule="evenodd" clip-rule="evenodd" d="M77.4627 0.708252H0.447754V59.2446H77.4627V0.708252ZM75.2239 2.9439V8.27188H2.68656V2.9439H75.2239ZM2.68656 10.5075V57.0089H75.2239V10.5075H2.68656Z" fill="#33AD43"/>
<rect x="5.22357" y="4.39697" width="3.43254" height="2.23564" fill="#33AD43"/>
<rect x="9.70117" y="4.39697" width="3.43254" height="2.23564" fill="#33AD43"/>
<rect x="14.1788" y="4.39697" width="3.43254" height="2.23564" fill="#33AD43"/>
<rect x="68.8066" y="4.39697" width="3.43254" height="2.23564" fill="#33AD43"/>
<path fill-rule="evenodd" clip-rule="evenodd" d="M37.0057 22.58H39.9278C41.5326 22.58 42.8382 23.8838 42.8373 25.4863V27.8713C42.8373 29.4738 41.5317 30.7776 39.9269 30.7776H39.9081L35.9257 46.8743H12.2284L8.79585 30.7776H8.73137C7.12659 30.7776 5.82092 29.4738 5.82092 27.8713V25.4863C5.82092 23.8838 7.12659 22.58 8.73137 22.58H11.0544C12.9484 17.1008 18.1612 13.3396 24.0305 13.3396C29.8997 13.3396 35.1117 17.1008 37.0057 22.58ZM34.6075 22.58C32.8308 18.3939 28.6773 15.5752 24.0296 15.5752C19.3827 15.5752 15.2293 18.3939 13.4517 22.58H34.6075ZM34.1732 44.6386H14.0409L11.0848 30.7776H37.603L34.1732 44.6386ZM39.9278 28.542C40.2985 28.542 40.5994 28.2415 40.5994 27.8713V25.4863C40.5994 25.1161 40.2985 24.8156 39.9278 24.8156H8.73137C8.36062 24.8156 8.05973 25.1161 8.05973 25.4863V27.8713C8.05973 28.2415 8.36062 28.542 8.73137 28.542H39.9278Z" fill="#33AD43"/>
<rect x="22.8358" y="32.864" width="2.23881" height="9.91195" fill="#33AD43"/>
<rect x="19.0674" y="32.864" width="2.23881" height="9.91195" fill="#33AD43"/>
<rect x="15.2982" y="32.864" width="2.23881" height="9.91195" fill="#33AD43"/>
<rect x="30.3734" y="32.864" width="2.23881" height="9.91195" fill="#33AD43"/>
<rect x="26.6042" y="32.864" width="2.23881" height="9.91195" fill="#33AD43"/>
<rect x="46.9307" y="14.3823" width="23.5916" height="2.23564" fill="#33AD43"/>
<rect x="46.9307" y="17.9595" width="23.5916" height="2.23564" fill="#33AD43"/>
<rect x="46.9307" y="21.5364" width="23.5916" height="2.23564" fill="#33AD43"/>
<path fill-rule="evenodd" clip-rule="evenodd" d="M46.7068 27.0513H66.6421V35.9938H46.7068V27.0513ZM48.9457 33.7582H64.4033V29.2869H48.9457V33.7582Z" fill="#33AD43"/>
<rect x="13.1346" y="50.0042" width="22.0755" height="2.23564" fill="#33AD43"/>
<rect x="54.3287" y="40.9312" width="16.1937" height="2.23564" fill="#33AD43"/>
</svg>
