<svg width="88" height="74" viewBox="0 0 88 74" fill="none" xmlns="http://www.w3.org/2000/svg">
<path d="M70.5417 13.6667H73.4584" stroke="#33AD43" stroke-width="2.5"/>
<path d="M76.375 13.6667H79.2917" stroke="#33AD43" stroke-width="2.5"/>
<path d="M77.8333 18.0417V20.9584" stroke="#33AD43" stroke-width="2.5"/>
<path d="M77.8333 23.875V26.7917" stroke="#33AD43" stroke-width="2.5"/>
<path d="M77.8333 29.7083V32.6249" stroke="#33AD43" stroke-width="2.5"/>
<path d="M77.8333 35.5417V38.4584" stroke="#33AD43" stroke-width="2.5"/>
<path d="M77.8333 41.375V44.2917" stroke="#33AD43" stroke-width="2.5"/>
<path d="M18.0417 60.3333H15.125" stroke="#33AD43" stroke-width="2.5"/>
<path d="M12.2084 60.3333H9.29169" stroke="#33AD43" stroke-width="2.5"/>
<path d="M10.75 55.9584V53.0417" stroke="#33AD43" stroke-width="2.5"/>
<path d="M10.75 50.1249V47.2083" stroke="#33AD43" stroke-width="2.5"/>
<path d="M10.75 44.2917V41.375" stroke="#33AD43" stroke-width="2.5"/>
<path d="M10.75 38.4584V35.5417" stroke="#33AD43" stroke-width="2.5"/>
<path d="M10.75 32.6249V29.7083" stroke="#33AD43" stroke-width="2.5"/>
<path fill-rule="evenodd" clip-rule="evenodd" d="M66.1667 63.2501H42.8333C41.9583 63.2501 41.375 62.6667 41.375 61.7917V58.8751C41.375 58.0001 41.9583 57.4167 42.8333 57.4167H66.1667C67.0417 57.4167 67.625 58.0001 67.625 58.8751V61.7917C67.625 62.6667 67.0417 63.2501 66.1667 63.2501Z" stroke="#33AD43" stroke-width="2.5"/>
<path d="M50.125 63.2501V66.1667C50.125 69.3751 47.5 72.0001 44.2917 72.0001H28.25C25.0417 72.0001 22.4167 69.3751 22.4167 66.1667V54.5001C22.4167 51.2917 25.0417 48.6667 28.25 48.6667H44.2917C47.5 48.6667 50.125 51.2917 50.125 54.5001V57.4167" stroke="#33AD43" stroke-width="2.5"/>
<path d="M69.0834 66.1667H66.1667C65.2917 66.1667 64.7084 65.5833 64.7084 64.7083V63.25" stroke="#33AD43" stroke-width="2.5"/>
<path d="M64.7084 57.4167V55.9583C64.7084 55.0833 65.2917 54.5 66.1667 54.5H79.2917C80.1667 54.5 80.75 55.0833 80.75 55.9583V64.7083C80.75 65.5833 80.1667 66.1667 79.2917 66.1667H72" stroke="#33AD43" stroke-width="2.5"/>
<path d="M35.5417 54.5H42.8334C43.7084 54.5 44.2917 55.0833 44.2917 55.9583V57.4167" stroke="#33AD43" stroke-width="2.5"/>
<path d="M44.2917 63.25V64.7083C44.2917 65.5833 43.7083 66.1667 42.8333 66.1667H29.7083C28.8333 66.1667 28.25 65.5833 28.25 64.7083V55.9583C28.25 55.0833 28.8333 54.5 29.7083 54.5H32.625" stroke="#33AD43" stroke-width="2.5"/>
<path d="M58.875 57.4167V54.5001C58.875 51.2917 61.5 48.6667 64.7083 48.6667H80.75C83.9583 48.6667 86.5833 51.2917 86.5833 54.5001V66.1667C86.5833 69.3751 83.9583 72.0001 80.75 72.0001H64.7083C61.5 72.0001 58.875 69.3751 58.875 66.1667V63.2501" stroke="#33AD43" stroke-width="2.5"/>
<path fill-rule="evenodd" clip-rule="evenodd" d="M45.75 16.5833H22.4166C21.5416 16.5833 20.9583 16 20.9583 15.125V12.2083C20.9583 11.3333 21.5416 10.75 22.4166 10.75H45.75C46.625 10.75 47.2083 11.3333 47.2083 12.2083V15.125C47.2083 16 46.625 16.5833 45.75 16.5833Z" stroke="#33AD43" stroke-width="2.5"/>
<path d="M29.7083 16.5833V19.5C29.7083 22.7083 27.0833 25.3333 23.875 25.3333H7.83333C4.625 25.3333 2 22.7083 2 19.5V7.83333C2 4.625 4.625 2 7.83333 2H23.875C27.0833 2 29.7083 4.625 29.7083 7.83333V10.75" stroke="#33AD43" stroke-width="2.5"/>
<path d="M48.6667 19.4999H45.75C44.875 19.4999 44.2917 18.9166 44.2917 18.0416V16.5833" stroke="#33AD43" stroke-width="2.5"/>
<path d="M44.2917 10.7499V9.29159C44.2917 8.41659 44.875 7.83325 45.75 7.83325H58.875C59.75 7.83325 60.3334 8.41659 60.3334 9.29159V18.0416C60.3334 18.9166 59.75 19.4999 58.875 19.4999H51.5834" stroke="#33AD43" stroke-width="2.5"/>
<path d="M15.125 7.83325H22.4167C23.2917 7.83325 23.875 8.41659 23.875 9.29159V10.7499" stroke="#33AD43" stroke-width="2.5"/>
<path d="M23.875 16.5833V18.0416C23.875 18.9166 23.2916 19.4999 22.4166 19.4999H9.29165C8.41665 19.4999 7.83331 18.9166 7.83331 18.0416V9.29159C7.83331 8.41659 8.41665 7.83325 9.29165 7.83325H12.2083" stroke="#33AD43" stroke-width="2.5"/>
<path d="M38.4583 10.75V7.83333C38.4583 4.625 41.0833 2 44.2916 2H60.3333C63.5416 2 66.1666 4.625 66.1666 7.83333V19.5C66.1666 22.7083 63.5416 25.3333 60.3333 25.3333H44.2916C41.0833 25.3333 38.4583 22.7083 38.4583 19.5V16.5833" stroke="#33AD43" stroke-width="2.5"/>
</svg>
