<svg width="70" height="70" viewBox="0 0 70 70" fill="none" xmlns="http://www.w3.org/2000/svg">
<path fill-rule="evenodd" clip-rule="evenodd" d="M60.5779 0.119385H20.7143V3.84296H15.3571V20.7144H4.82143V24.0308H0V70.0001H20.7143H22.1429H70V9.2251L60.5779 0.119385ZM60.1464 3.67581L66.3207 9.64296H60.1464V3.67581ZM15.3571 23.5715H7.67857V61.6665H15.3571V53.4522H10.9521V50.5951H15.3571V47.0237H10.9521V44.1665H15.3571V40.5951H10.9521V37.738H15.3571V34.1665H10.9521V31.3094H15.3571V23.5715ZM2.85714 67.143V26.888H4.82143V64.5237H18.2143V22.143V20.7144V6.69938H20.7143V67.143H2.85714ZM23.5714 2.97653V67.143H67.1429V12.5001H57.2893V2.97653H23.5714Z" fill="#33AD43"/>
<path fill-rule="evenodd" clip-rule="evenodd" d="M30 18.4521H46.5479V27.7379H30V18.4521ZM32.8571 24.8807H43.6907V21.3093H32.8571V24.8807Z" fill="#33AD43"/>
<path fill-rule="evenodd" clip-rule="evenodd" d="M60.2379 53.5715H48.4521V44.1665H60.2379V53.5715ZM57.3807 47.0236H51.3093V50.7144H57.3807V47.0236Z" fill="#33AD43"/>
<rect x="49.2857" y="18.4521" width="10.7143" height="2.85714" fill="#33AD43"/>
<rect x="30.2379" y="12.0237" width="23.8093" height="2.85714" fill="#33AD43"/>
<rect x="49.2857" y="24.8806" width="10.7143" height="2.85714" fill="#33AD43"/>
<rect x="30.2379" y="31.3093" width="29.7621" height="2.85714" fill="#33AD43"/>
<rect x="30.2379" y="37.7378" width="29.7621" height="2.85714" fill="#33AD43"/>
<rect x="30.2379" y="44.1665" width="15.4764" height="2.85714" fill="#33AD43"/>
<rect x="30.2379" y="50.595" width="15.4764" height="2.85714" fill="#33AD43"/>
<rect x="30.2379" y="57.0237" width="29.7621" height="2.85714" fill="#33AD43"/>
</svg>
