<svg width="47" height="60" viewBox="0 0 47 60" fill="none" xmlns="http://www.w3.org/2000/svg">
<path fill-rule="evenodd" clip-rule="evenodd" d="M30.2124 18.3178C30.2124 21.8433 27.3442 24.7123 23.8179 24.7123C20.2917 24.7123 17.4235 21.8433 17.4235 18.3178C17.4235 14.7923 20.2917 11.9233 23.8179 11.9233C27.3442 11.9233 30.2124 14.7923 30.2124 18.3178ZM28.4883 18.3171C28.4883 15.742 26.3931 13.6468 23.8179 13.6468C21.2421 13.6468 19.1476 15.742 19.1476 18.3171C19.1476 20.8923 21.2428 22.9875 23.8179 22.9875C26.3931 22.9875 28.4883 20.8923 28.4883 18.3171Z" fill="#33AD43"/>
<path fill-rule="evenodd" clip-rule="evenodd" d="M34.4704 18.3173C34.4704 24.1904 29.6917 28.969 23.8179 28.969C17.9441 28.969 13.1662 24.1904 13.1662 18.3173C13.1662 12.4441 17.9441 7.66553 23.8179 7.66553C29.6917 7.66553 34.4704 12.4441 34.4704 18.3173ZM32.7462 18.3173C32.7462 13.3945 28.7407 9.38967 23.8179 9.38967C18.8945 9.38967 14.8897 13.3945 14.8897 18.3173C14.8897 23.24 18.8952 27.2448 23.8179 27.2448C28.7407 27.2448 32.7462 23.24 32.7462 18.3173Z" fill="#33AD43"/>
<path fill-rule="evenodd" clip-rule="evenodd" d="M36.7193 31.3782L38.4152 29.683L35.7248 26.9926C36.9683 25.2871 37.831 23.3326 38.251 21.2671H41.9014V16.1457H38.3855C38.0641 13.9774 37.2655 11.9125 36.0462 10.0994L38.4152 7.72974L34.7945 4.10903L32.4924 6.41042C30.6779 5.08697 28.5897 4.19869 26.3786 3.8111V0.622803H21.2566V3.81041C19.0455 4.198 16.9579 5.08628 15.1428 6.41042L12.8414 4.10972L9.22 7.73043L11.5897 10.0994C10.3697 11.9125 9.57104 13.9774 9.24966 16.1457H5.73448V21.2671H9.38483C9.80552 23.3326 10.6683 25.2878 11.9117 26.9926L9.22069 29.683L10.709 31.1719C4.31035 35.4685 0.517242 42.532 0.517242 50.2914V59.7128H46.609V50.2914C46.609 42.6831 42.9283 35.6954 36.7193 31.3782ZM14.2166 27.1257L13.7255 26.5223C12.2621 24.7243 11.3055 22.5643 10.9593 20.276L10.8483 19.5429H7.45793V17.8698H10.7979L10.871 17.0884C11.0952 14.7022 11.9703 12.4318 13.4021 10.5222L13.8503 9.92424L11.6572 7.73043L12.84 6.54766L15.0083 8.71526L15.6117 8.22423C17.5097 6.67939 19.7959 5.70628 22.2214 5.40973L22.9793 5.31731V2.34695H24.6531V5.31662L25.411 5.40904C27.8379 5.70559 30.1234 6.6787 32.0214 8.22354L32.6248 8.71457L34.7938 6.54629L35.9766 7.72905L33.7835 9.92355L34.2317 10.5215C35.6628 12.4311 36.5379 14.7015 36.7628 17.0884L36.8359 17.8698H40.1759V19.5429H36.7855L36.6759 20.276C36.3303 22.5636 35.3745 24.7236 33.911 26.5223L33.42 27.1257L35.9772 29.683L34.7938 30.865L32.211 28.2816L31.6131 28.7306C29.8062 30.0864 27.6621 30.9485 25.4117 31.225L24.6545 31.3175V35.0671H22.9807V31.3175L22.2234 31.225C19.9724 30.9492 17.8283 30.0871 16.0221 28.7319L15.4241 28.2837L12.8414 30.8664L11.6586 29.683L14.2166 27.1257ZM24.68 56.2893L31.7959 47.3045L30.0221 40.6341L34.1648 38.7803L31.3034 31.8885L24.68 46.8493V56.2893ZM13.7903 38.7796L16.64 31.9168L22.9552 46.8417V55.8852L16.1593 47.3045L17.9324 40.6334L13.7903 38.7796ZM26.3786 32.823V36.7906H21.2566V32.823C20.3414 32.6623 19.4469 32.4113 18.5828 32.083L23.8359 44.4969L29.3897 31.9526C28.4228 32.3478 27.4131 32.6409 26.3786 32.823ZM2.24138 50.2914C2.24138 42.9996 5.86414 36.3727 11.9538 32.4168L12.8414 33.3044L15.16 30.985L11.5545 39.6692L15.8897 41.6092L14.271 47.6969L22.4214 57.9893H9.82759V53.8804H8.10345V57.9893H2.24138V50.2914ZM38.9655 57.9887H44.8841V50.2907C44.8841 43.1486 41.3759 36.5982 35.4772 32.6189L34.7931 33.3023L33.0207 31.5299L36.4 39.6685L32.0648 41.6086L33.6834 47.6962L25.5338 57.9887H37.2414V53.8797H38.9655V57.9887Z" fill="#33AD43"/>
</svg>
