<svg width="71" height="70" viewBox="0 0 71 70" fill="none" xmlns="http://www.w3.org/2000/svg">
<path fill-rule="evenodd" clip-rule="evenodd" d="M35.3742 7.29167L0.375 0V62.7083L35.3742 70L70.375 62.7083V0L35.3742 7.29167ZM33.9167 65.625L3.29167 59.7917V4.375L33.9167 10.2083V65.625ZM36.8326 65.625L67.4576 59.7917V4.375L36.8326 10.2083V65.625Z" fill="#33AD43"/>
<path d="M31 18.9583L6.20758 13.125V16.0417L31 21.875V18.9583Z" fill="#33AD43"/>
<path d="M31 27.7083L6.20758 21.875V24.7917L31 30.625V27.7083Z" fill="#33AD43"/>
<path d="M31 36.4576L6.20758 30.625V33.5417L31 39.375V36.4576Z" fill="#33AD43"/>
<path d="M31 45.2083L6.20758 39.375V42.2917L31 48.125V45.2083Z" fill="#33AD43"/>
<path d="M31 53.9583L6.20758 48.125V51.0417L31 56.875V53.9583Z" fill="#33AD43"/>
<path d="M64.5417 13.125L39.75 18.9583V21.875L64.5417 16.0417V13.125Z" fill="#33AD43"/>
<path d="M64.5417 21.875L39.75 27.7083V30.625L64.5417 24.7917V21.875Z" fill="#33AD43"/>
<path d="M64.5417 30.625L39.75 36.4576V39.375L64.5417 33.5417V30.625Z" fill="#33AD43"/>
<path d="M64.5417 39.375L39.75 45.2083V48.125L64.5417 42.2917V39.375Z" fill="#33AD43"/>
<path d="M64.5417 48.125L39.75 53.9583V56.875L64.5417 51.0417V48.125Z" fill="#33AD43"/>
</svg>
