<svg width="81" height="70" viewBox="0 0 81 70" fill="none" xmlns="http://www.w3.org/2000/svg">
<path fill-rule="evenodd" clip-rule="evenodd" d="M37.416 18.8777H30.8788V12.3988C30.8788 12.3511 30.8768 12.3025 30.872 12.2558C30.7563 11.0843 29.96 8.99404 27.6364 8.57793C27.3924 8.54488 26.112 8.43501 25.0717 9.3489C24.5661 9.79321 23.9643 10.6322 23.9643 12.11V16.9186C23.9643 17.2229 23.8506 17.5146 23.6435 17.7392L20.6306 21.0088C20.2067 20.5557 19.6088 20.2689 18.9418 20.2689H12.5524C11.2739 20.2689 10.2327 21.3092 10.2327 22.5886V35.5824C10.2327 36.8608 11.2729 37.9021 12.5524 37.9021H18.9418C19.9247 37.9021 20.7618 37.2857 21.0982 36.4204L21.4949 36.6411C22.5653 37.2381 23.7796 37.554 25.0046 37.554H37.415C39.305 37.554 40.8431 36.016 40.8431 34.126C40.8431 33.3929 40.6127 32.7133 40.2189 32.1563C40.6117 31.5992 40.8431 30.9196 40.8431 30.1865C40.8431 29.4545 40.6127 28.7749 40.2189 28.2178C40.6117 27.6597 40.8431 26.9811 40.8431 26.2481C40.8431 25.515 40.6127 24.8354 40.2189 24.2783C40.6117 23.7213 40.8431 23.0417 40.8431 22.3086C40.8441 20.4147 39.306 18.8777 37.416 18.8777ZM18.3449 34.9835H13.1503V23.1846H18.3449V34.9835ZM37.9274 26.2452C37.9274 25.9681 37.6931 25.7338 37.416 25.7338C36.61 25.7338 35.9606 25.0775 35.9606 24.2725C35.9606 23.4675 36.6129 22.8142 37.4189 22.8142C37.696 22.8142 37.9303 22.5799 37.9303 22.3028C37.9303 22.0257 37.696 21.7924 37.4189 21.7924H29.4234C28.6174 21.7924 27.965 21.139 27.965 20.334V12.495C27.932 12.3103 27.7784 11.6142 27.2572 11.4713C27.161 11.4732 27.0395 11.4985 26.9986 11.5374C26.9588 11.5743 26.8829 11.7415 26.8829 12.1071V16.9157C26.8829 17.955 26.495 18.9486 25.7902 19.7128L21.2625 24.6254V33.1683L22.9163 34.09C23.5541 34.4468 24.2764 34.6345 25.0056 34.6345H37.416C37.6931 34.6345 37.9274 34.4002 37.9274 34.1231C37.9274 33.846 37.6931 33.6117 37.416 33.6117C36.61 33.6117 35.9577 32.9583 35.9577 32.1533C35.9577 31.3483 36.61 30.695 37.416 30.695C37.6931 30.695 37.9274 30.4607 37.9274 30.1836C37.9274 29.9065 37.6931 29.6732 37.416 29.6732C36.61 29.6732 35.9577 29.0199 35.9577 28.2149C35.9577 27.4099 36.61 26.7565 37.416 26.7565C37.6931 26.7565 37.9274 26.5222 37.9274 26.2452Z" fill="#33AD43"/>
<path fill-rule="evenodd" clip-rule="evenodd" d="M72.871 66.8392C72.834 66.8178 69.4274 64.8092 68.1285 60.7949C75.9121 56.4228 80.6993 48.2911 80.6993 39.2961C80.6993 25.6977 69.6364 14.6338 56.0369 14.6338C53.4499 14.6338 50.9221 15.0538 48.4905 15.8354C44.8272 6.80057 35.9635 0.410156 25.6297 0.410156C12.0312 0.410156 0.968323 11.4731 0.968323 25.0715C0.968323 34.0656 5.75457 42.1982 13.5382 46.5713C12.2393 50.5846 8.8336 52.5922 8.80054 52.6117C8.2386 52.9306 7.95374 53.58 8.09957 54.209C8.24541 54.8381 8.78693 55.297 9.43152 55.3358C9.75235 55.3563 10.0683 55.365 10.3804 55.365C16.9283 55.365 21.5804 51.2058 23.1253 49.6075C23.9526 49.6911 24.7926 49.7329 25.6297 49.7329C28.2644 49.7329 30.8019 49.3129 33.1839 48.5449C36.9318 57.8179 45.9297 63.9575 56.0369 63.9575C56.875 63.9575 57.715 63.9157 58.5424 63.8321C60.0882 65.4314 64.7393 69.5896 71.2872 69.5896C71.5993 69.5896 71.9153 69.5799 72.2361 69.5604C72.8787 69.5215 73.4164 69.0636 73.5642 68.4385C73.7119 67.8114 73.429 67.161 72.871 66.8392ZM60.9185 40.3967L56.3899 45.3093C55.686 46.0735 55.298 47.0671 55.298 48.1064V52.915C55.298 53.2806 55.2222 53.4478 55.1824 53.4847C55.1415 53.5236 55.02 53.5489 54.9237 53.5508C54.4026 53.407 54.249 52.7118 54.216 52.5261V44.6871C54.216 43.8821 53.5636 43.2288 52.7576 43.2288H44.7621C44.485 43.2288 44.2507 42.9945 44.2507 42.7174C44.2507 42.4403 44.485 42.207 44.7621 42.207C45.568 42.207 46.2204 41.5536 46.2204 40.7486C46.2204 40.246 45.9667 39.8036 45.5797 39.5411C47.5387 36.8481 48.965 33.7457 49.7058 30.3877H57.1725C57.9017 30.3877 58.625 30.5753 59.2618 30.9311L60.9165 31.8538V40.3967H60.9185ZM21.4326 47.1381C21.769 46.7346 22.2853 46.5567 22.7801 46.6315C23.7144 46.754 24.673 46.8163 25.6297 46.8163C37.6201 46.8163 47.3744 37.0629 47.3744 25.0725C47.3744 13.0821 37.6192 3.3278 25.6287 3.3278C13.6383 3.3278 3.88402 13.0821 3.88402 25.0725C3.88402 33.3354 8.46513 40.7729 15.8443 44.4975C16.0076 44.5714 16.1574 44.6745 16.2857 44.8067C16.624 45.1547 16.7699 45.6477 16.6707 46.1221C16.1574 48.5789 15.0296 50.5117 13.86 51.9486C18.4557 50.6352 21.3957 47.1828 21.4326 47.1381ZM60.235 61.3636C59.8937 60.9504 59.361 60.7657 58.8535 60.86C57.9289 60.9796 56.9819 61.0409 56.0369 61.0409C47.1362 61.0409 39.2117 55.6421 35.8983 47.4852C37.9497 46.5411 39.8504 45.3259 41.5528 43.8821C42.0321 45.1985 43.2843 46.1474 44.764 46.1474H51.3012V52.6263C51.3012 52.6739 51.3032 52.7225 51.308 52.7692C51.4237 53.9397 52.219 56.03 54.5426 56.4471C54.6058 56.4559 54.7361 56.4685 54.914 56.4685C55.4283 56.4685 56.3344 56.3557 57.1074 55.6761C57.6129 55.2318 58.2147 54.3928 58.2147 52.915V48.1064C58.2147 47.8021 58.3285 47.5104 58.5346 47.2859L61.5475 44.0163C61.9714 44.4693 62.5683 44.7561 63.2362 44.7561H69.6257C70.9042 44.7561 71.9444 43.7159 71.9444 42.4364V29.4436C71.9444 28.1652 70.9042 27.1239 69.6257 27.1239H63.2362C62.2543 27.1239 61.4172 27.7403 61.0798 28.6046L60.6822 28.3829C59.6108 27.787 58.3975 27.471 57.1725 27.471H50.1705C50.2474 26.6806 50.2892 25.8804 50.2892 25.0706C50.2892 22.8296 49.9829 20.6596 49.42 18.5946C51.5511 17.914 53.7668 17.5495 56.034 17.5495C68.0244 17.5495 77.7797 27.3047 77.7797 39.2952C77.7797 47.5503 73.2064 54.9829 65.8389 58.7095C65.6269 58.8018 65.4373 58.9438 65.2886 59.1275C65.0115 59.4688 64.9036 59.917 64.993 60.3467C65.5074 62.8025 66.6342 64.7353 67.8037 66.1713C63.211 64.8578 60.271 61.4064 60.235 61.3636ZM63.8351 30.0406V41.8404H69.0297V30.0406H63.8351Z" fill="#33AD43"/>
</svg>
