<svg width="75" height="69" viewBox="0 0 75 69" fill="none" xmlns="http://www.w3.org/2000/svg">
<rect x="17.5" y="7.5" width="22.5" height="2.5" fill="#33AD43"/>
<rect x="17.5" y="12.5" width="22.5" height="2.5" fill="#33AD43"/>
<rect x="17.5" y="17.5" width="16.25" height="2.5" fill="#33AD43"/>
<path fill-rule="evenodd" clip-rule="evenodd" d="M10 27.5V36.75L19.25 27.5H41.25C43.375 27.5 45 25.875 45 23.75V3.75C45 1.625 43.375 0 41.25 0H3.75C1.625 0 0 1.625 0 3.75V23.75C0 25.875 1.625 27.5 3.75 27.5H10ZM2.5 3.75C2.5 3 3 2.5 3.75 2.5H41.25C42 2.5 42.5 3 42.5 3.75V23.75C42.5 24.5 42 25 41.25 25H18.25L12.5 30.75V25H3.75C3 25 2.5 24.5 2.5 23.75V3.75Z" fill="#33AD43"/>
<path fill-rule="evenodd" clip-rule="evenodd" d="M6.25 7.5C6.25 9.625 7.875 11.25 10 11.25C12.125 11.25 13.75 9.625 13.75 7.5C13.75 5.375 12.125 3.75 10 3.75C7.875 3.75 6.25 5.375 6.25 7.5ZM8.75 7.5C8.75 6.75 9.25 6.25 10 6.25C10.75 6.25 11.25 6.75 11.25 7.5C11.25 8.25 10.75 8.75 10 8.75C9.25 8.75 8.75 8.25 8.75 7.5Z" fill="#33AD43"/>
<path d="M15 23.75H8.75V21.25H12.5V17.5C12.5 16.125 11.375 15 10 15C8.625 15 7.5 16.125 7.5 17.5V23.75H5V17.5C5 14.75 7.25 12.5 10 12.5C12.75 12.5 15 14.75 15 17.5V23.75Z" fill="#33AD43"/>
<path d="M65 45.5L55.75 36.25H33.75C31.625 36.25 30 34.625 30 32.5V30H32.5V32.5C32.5 33.25 33 33.75 33.75 33.75H56.75L62.5 39.5V33.75H71.25C72 33.75 72.5 33.25 72.5 32.5V12.5C72.5 11.75 72 11.25 71.25 11.25H47.5V8.75H71.25C73.375 8.75 75 10.375 75 12.5V32.5C75 34.625 73.375 36.25 71.25 36.25H65V45.5Z" fill="#33AD43"/>
<rect x="47.5" y="16.25" width="10" height="2.5" fill="#33AD43"/>
<rect x="47.5" y="21.25" width="10" height="2.5" fill="#33AD43"/>
<rect x="50" y="26.25" width="7.5" height="2.5" fill="#33AD43"/>
<path fill-rule="evenodd" clip-rule="evenodd" d="M61.25 16.25C61.25 18.375 62.875 20 65 20C67.125 20 68.75 18.375 68.75 16.25C68.75 14.125 67.125 12.5 65 12.5C62.875 12.5 61.25 14.125 61.25 16.25ZM63.75 16.25C63.75 15.5 64.25 15 65 15C65.75 15 66.25 15.5 66.25 16.25C66.25 17 65.75 17.5 65 17.5C64.25 17.5 63.75 17 63.75 16.25Z" fill="#33AD43"/>
<path d="M70 32.5H67.5V26.25C67.5 24.875 66.375 23.75 65 23.75C63.625 23.75 62.5 24.875 62.5 26.25V30H66.25V32.5H60V26.25C60 23.5 62.25 21.25 65 21.25C67.75 21.25 70 23.5 70 26.25V32.5Z" fill="#33AD43"/>
<path d="M23.75 51.75V42.5H17.5C15.375 42.5 13.75 40.875 13.75 38.75V35H16.25V38.75C16.25 39.5 16.75 40 17.5 40H26.25V45.75L32 40H55V42.5H33L23.75 51.75Z" fill="#33AD43"/>
<path fill-rule="evenodd" clip-rule="evenodd" d="M65 68.625C65.25 68.75 65.375 68.75 65.625 68.75C65.875 68.75 66.125 68.625 66.375 68.5C66.75 68.125 66.875 67.625 66.75 67.125L65.125 61.625L69.5 57.75C69.875 57.375 70 56.875 69.875 56.375C69.75 56 69.25 55.625 68.75 55.625H63.25L61.125 50.75C61 50.25 60.5 50 60 50C59.5 50 59.125 50.25 58.875 50.75L56.75 55.625H51.25C50.75 55.625 50.25 55.875 50.125 56.375C50 56.875 50.125 57.375 50.5 57.75L54.875 61.625L53.25 67.125C53.125 67.625 53.25 68.125 53.625 68.5C54 68.875 54.5 68.875 55 68.625L60 65.875L65 68.625ZM60.625 63.25C60.375 63.125 60.25 63.125 60 63.125H59.375L56.5 64.75L57.5 61.5C57.625 61.125 57.5 60.625 57.125 60.25L54.625 58.125H57.5C58 58.125 58.375 57.875 58.625 57.375L60 54.375L61.375 57.5C61.5 58 62 58.25 62.5 58.25H65.375L62.875 60.375C62.5 60.625 62.375 61.125 62.5 61.625L63.5 64.875L60.625 63.25Z" fill="#33AD43"/>
<path fill-rule="evenodd" clip-rule="evenodd" d="M20 68.625C20.25 68.75 20.375 68.75 20.625 68.75C20.875 68.75 21.125 68.625 21.375 68.5C21.75 68.125 21.875 67.625 21.75 67.125L20.125 61.625L24.5 57.75C24.875 57.375 25 56.875 24.875 56.375C24.75 56 24.25 55.625 23.75 55.625H18.25L16.125 50.75C16 50.25 15.5 50 15 50C14.5 50 14.125 50.25 13.875 50.75L11.75 55.625H6.25C5.75 55.625 5.25 55.875 5.125 56.375C4.875 56.875 5 57.5 5.5 57.75L9.875 61.625L8.25 67.125C8.125 67.625 8.25 68.125 8.625 68.5C9 68.875 9.5 68.875 10 68.625L15 65.875L20 68.625ZM15.625 63.25C15.375 63.125 15.25 63.125 15 63.125H14.375L11.5 64.75L12.5 61.5C12.625 61.125 12.5 60.625 12.125 60.25L9.625 58.125H12.5C13 58.125 13.375 57.875 13.625 57.375L15 54.375L16.375 57.5C16.5 58 17 58.25 17.5 58.25H20.375L17.875 60.375C17.5 60.625 17.375 61.125 17.5 61.625L18.5 64.875L15.625 63.25Z" fill="#33AD43"/>
<path fill-rule="evenodd" clip-rule="evenodd" d="M42.5 68.625C42.75 68.75 42.875 68.75 43.125 68.75C43.375 68.75 43.625 68.625 43.875 68.5C44.25 68.125 44.375 67.625 44.25 67.125L42.625 61.625L47 57.75C47.375 57.375 47.5 56.875 47.375 56.375C47.25 56 46.75 55.625 46.25 55.625H40.75L38.625 50.75C38.5 50.25 38 50 37.5 50C37 50 36.625 50.25 36.375 50.75L34.25 55.625H28.75C28.25 55.625 27.75 55.875 27.625 56.375C27.5 56.875 27.625 57.375 28 57.75L32.375 61.625L30.75 67.125C30.625 67.625 30.75 68.125 31.125 68.5C31.5 68.875 32 68.875 32.5 68.625L37.5 65.875L42.5 68.625ZM38.125 63.25C37.875 63.125 37.75 63.125 37.5 63.125H36.875L34 64.75L35 61.5C35.125 61.125 35 60.625 34.625 60.25L32.125 58.125H35C35.5 58.125 35.875 57.875 36.125 57.375L37.5 54.375L38.875 57.5C39 58 39.5 58.25 40 58.25H42.875L40.375 60.375C40 60.625 39.875 61.125 40 61.625L41 64.875L38.125 63.25Z" fill="#33AD43"/>
</svg>
