<svg width="50" height="60" viewBox="0 0 50 60" fill="none" xmlns="http://www.w3.org/2000/svg">
<path fill-rule="evenodd" clip-rule="evenodd" d="M18.9996 47.3619C18.9996 44.3592 21.4432 41.9155 24.4459 41.9155C27.4493 41.9155 29.8923 44.3592 29.8923 47.3619C29.8923 50.3646 27.4493 52.8076 24.4459 52.8076C21.4425 52.8076 18.9996 50.3646 18.9996 47.3619ZM20.7041 47.3619C20.7041 49.4244 22.3828 51.103 24.4459 51.103C26.5098 51.103 28.1884 49.4244 28.1878 47.3619C28.1878 45.2987 26.5091 43.6201 24.4459 43.6201C22.3828 43.6201 20.7041 45.2987 20.7041 47.3619Z" fill="#33AD43"/>
<path d="M17.1279 47.3618C17.1279 43.3261 20.4109 40.0432 24.4466 40.0432V38.3386C19.4714 38.3386 15.4234 42.3866 15.4234 47.3618C15.4234 52.337 19.4714 56.3843 24.4466 56.3843V54.6798C20.4109 54.6798 17.1279 51.3968 17.1279 47.3618Z" fill="#33AD43"/>
<path fill-rule="evenodd" clip-rule="evenodd" d="M48.6914 4.73389L35.5391 41.6093C35.5338 41.6238 35.5258 41.6366 35.5179 41.6495C35.5116 41.6596 35.5053 41.6698 35.5002 41.6809C36.3805 43.3862 36.8864 45.315 36.8864 47.3625C36.8864 54.2216 31.3057 59.8023 24.4459 59.8023C17.5861 59.8023 12.0055 54.2223 12.0055 47.3625C12.0055 45.3839 12.4821 43.5178 13.3077 41.8555L0.0681896 4.73525C-0.00749223 4.52253 0.00409869 4.28798 0.100917 4.08343C0.197735 3.87889 0.371599 3.72139 0.584326 3.64571L9.95592 0.303435C10.0507 0.269344 10.1468 0.261162 10.2423 0.261162V0.253662H38.5166V0.261162C38.6121 0.261162 38.7082 0.268662 38.803 0.302753L48.1746 3.64434C48.388 3.72071 48.5611 3.87821 48.6586 4.08207C48.7555 4.28662 48.7671 4.52048 48.6914 4.73389ZM46.7993 4.96366L39.0334 2.19412L27.2434 35.2493C28.1966 35.4703 29.1048 35.8009 29.9611 36.2264L33.9327 25.0896C34.0916 24.6464 34.5798 24.4139 35.0223 24.5734C35.4661 24.7316 35.6966 25.2191 35.5391 25.6623L31.4611 37.0964C32.5698 37.8573 33.54 38.7968 34.3507 39.8659L46.7993 4.96366ZM23.2302 34.9834L14.8998 11.6271H33.8591L25.5314 34.9766C25.1734 34.9453 24.8121 34.9214 24.4459 34.9214C24.0355 34.9214 23.6305 34.9439 23.2302 34.9834ZM12.6546 5.33116H19.8021C20.2732 5.33116 20.655 5.71298 20.655 6.18343C20.655 6.65389 20.2732 7.03571 19.8027 7.03571H13.2627L14.2923 9.92253H34.4673L35.4968 7.03571H28.5341C28.0636 7.03571 27.6818 6.65389 27.6818 6.18343C27.6818 5.71298 28.0636 5.33116 28.5341 5.33116H36.1043L37.3077 1.95821H11.4511L12.6546 5.33116ZM1.96023 4.96434L9.72614 2.1948L21.5271 35.2814C20.4771 35.5357 19.4741 35.9114 18.5461 36.4132L14.5077 25.0896C14.3496 24.6457 13.8621 24.4139 13.4189 24.5734C12.9757 24.7316 12.7446 25.2191 12.9027 25.6623L17.0755 37.3637C16.0752 38.1034 15.1916 38.9864 14.4511 39.9866L1.96023 4.96434ZM13.71 47.3618C13.71 53.2814 18.5264 58.0971 24.4459 58.0971C30.3661 58.0971 35.1825 53.2814 35.1818 47.3618C35.1818 41.4416 30.3661 36.6259 24.4459 36.6259C18.5257 36.6259 13.71 41.4416 13.71 47.3618Z" fill="#33AD43"/>
</svg>
