<svg width="57" height="60" viewBox="0 0 57 60" fill="none" xmlns="http://www.w3.org/2000/svg">
<path fill-rule="evenodd" clip-rule="evenodd" d="M29.19 3.8526C44.2867 4.2946 56.4427 16.6639 56.5227 31.8473C56.532 31.8966 56.5367 31.9473 56.5353 31.9986C56.5353 32.4586 56.162 32.8319 55.702 32.8319H55.6887H55.646C55.22 32.8319 54.8627 32.5113 54.8173 32.0879C54.4313 28.4979 50.804 25.6859 46.56 25.6859C42.3153 25.6859 38.6873 28.4979 38.3013 32.0879C38.256 32.5113 37.8987 32.8319 37.4727 32.8319H37.216C36.79 32.8319 36.4327 32.5113 36.3873 32.0879C36.0233 28.6999 32.9367 26.0893 29.044 25.7319V55.9999C29.044 57.9299 27.474 59.4999 25.544 59.4999C23.614 59.4999 22.044 57.9299 22.044 55.9999C22.044 55.5399 22.4173 55.1666 22.8773 55.1666C23.3373 55.1666 23.7107 55.5399 23.7107 55.9999C23.7107 57.0113 24.5327 57.8333 25.544 57.8333C26.5553 57.8333 27.3773 57.0113 27.3773 55.9999V25.7146C23.652 25.9979 20.5913 28.3693 19.9587 31.5606C19.8813 31.9506 19.5393 32.2319 19.1413 32.2319C18.7433 32.2319 18.4013 31.9506 18.324 31.5606C17.6493 28.1566 14.2127 25.6859 10.1527 25.6859C5.908 25.6859 2.28067 28.4979 1.89467 32.0879C1.84934 32.5113 1.492 32.8319 1.066 32.8319C0.606002 32.8319 0.190002 32.4586 0.190002 31.9986C0.190002 16.7466 12.3773 4.2966 27.5233 3.8526V1.44393C27.5233 0.983929 27.8967 0.610596 28.3567 0.610596C28.8167 0.610596 29.19 0.983929 29.19 1.44393V3.8526ZM37.346 29.4046C38.838 26.2099 42.4073 24.0193 46.5613 24.0193C49.7727 24.0193 52.6347 25.3293 54.4573 27.4006C52.274 14.9719 41.4013 5.49793 28.3573 5.49793C15.3133 5.49793 4.44 14.9719 2.25667 27.4006C4.08 25.3293 6.942 24.0193 10.154 24.0193C14.08 24.0193 17.53 26.0059 19.1427 28.9793C20.756 26.0059 24.2047 24.0193 28.1313 24.0193C32.2853 24.0193 35.854 26.2099 37.346 29.4046Z" fill="#33AD43"/>
<rect x="11.5833" y="12.9167" width="1.66667" height="2.16667" fill="#33AD43"/>
<rect x="15.1573" y="12.9167" width="1.66667" height="2.16667" fill="#33AD43"/>
<rect x="18.7313" y="12.9167" width="1.66667" height="2.16667" fill="#33AD43"/>
<rect x="22.3054" y="12.9167" width="1.66667" height="2.16667" fill="#33AD43"/>
<rect x="25.8793" y="12.9167" width="1.66667" height="2.16667" fill="#33AD43"/>
<rect x="29.454" y="12.9167" width="1.66667" height="2.16667" fill="#33AD43"/>
<rect x="33.028" y="12.9167" width="1.66667" height="2.16667" fill="#33AD43"/>
<rect x="36.6013" y="12.9167" width="1.66667" height="2.16667" fill="#33AD43"/>
<rect x="40.176" y="12.9167" width="1.66667" height="2.16667" fill="#33AD43"/>
<rect x="15.1573" y="9.58325" width="1.66667" height="2.16667" fill="#33AD43"/>
<rect x="18.7313" y="9.58325" width="1.66667" height="2.16667" fill="#33AD43"/>
<rect x="22.3054" y="9.58325" width="1.66667" height="2.16667" fill="#33AD43"/>
<rect x="25.8793" y="9.58325" width="1.66667" height="2.16667" fill="#33AD43"/>
<rect x="29.454" y="9.58325" width="1.66667" height="2.16667" fill="#33AD43"/>
<rect x="33.028" y="9.58325" width="1.66667" height="2.16667" fill="#33AD43"/>
<rect x="36.6013" y="9.58325" width="1.66667" height="2.16667" fill="#33AD43"/>
<rect x="25.8793" y="6.25" width="1.66667" height="2.16667" fill="#33AD43"/>
<rect x="29.454" y="6.25" width="1.66667" height="2.16667" fill="#33AD43"/>
<rect x="40.176" y="9.58325" width="1.66667" height="2.16667" fill="#33AD43"/>
<rect x="43.75" y="12.9167" width="1.66667" height="2.16667" fill="#33AD43"/>
<rect x="11.5833" y="16.25" width="1.66667" height="2.16667" fill="#33AD43"/>
<rect x="15.1573" y="16.25" width="1.66667" height="2.16667" fill="#33AD43"/>
<rect x="18.7313" y="16.25" width="1.66667" height="2.16667" fill="#33AD43"/>
<rect x="22.3054" y="16.25" width="1.66667" height="2.16667" fill="#33AD43"/>
<rect x="25.8793" y="16.25" width="1.66667" height="2.16667" fill="#33AD43"/>
<rect x="29.454" y="16.25" width="1.66667" height="2.16667" fill="#33AD43"/>
<rect x="33.028" y="16.25" width="1.66667" height="2.16667" fill="#33AD43"/>
<rect x="36.6013" y="16.25" width="1.66667" height="2.16667" fill="#33AD43"/>
<rect x="40.176" y="16.25" width="1.66667" height="2.16667" fill="#33AD43"/>
<rect x="43.75" y="16.25" width="1.66667" height="2.16667" fill="#33AD43"/>
<rect x="11.5833" y="19.5833" width="1.66667" height="2.16667" fill="#33AD43"/>
<rect x="15.1573" y="19.5833" width="1.66667" height="2.16667" fill="#33AD43"/>
<rect x="18.7313" y="19.5833" width="1.66667" height="2.16667" fill="#33AD43"/>
<rect x="22.3054" y="19.5833" width="1.66667" height="2.16667" fill="#33AD43"/>
<rect x="25.8793" y="19.5833" width="1.66667" height="2.16667" fill="#33AD43"/>
<rect x="29.454" y="19.5833" width="1.66667" height="2.16667" fill="#33AD43"/>
<rect x="33.028" y="19.5833" width="1.66667" height="2.16667" fill="#33AD43"/>
<rect x="36.6013" y="19.5833" width="1.66667" height="2.16667" fill="#33AD43"/>
<rect x="40.176" y="19.5833" width="1.66667" height="2.16667" fill="#33AD43"/>
<rect x="43.75" y="19.5833" width="1.66667" height="2.16667" fill="#33AD43"/>
<rect x="8.25" y="16.25" width="1.66667" height="2.16667" fill="#33AD43"/>
<rect x="8.25" y="19.5833" width="1.66667" height="2.16667" fill="#33AD43"/>
<rect x="18.7313" y="22.9167" width="1.66667" height="2.16667" fill="#33AD43"/>
<rect x="36.6013" y="22.9167" width="1.66667" height="2.16667" fill="#33AD43"/>
<rect x="47.0833" y="16.25" width="1.66667" height="2.16667" fill="#33AD43"/>
<rect x="47.0833" y="19.5833" width="1.66667" height="2.16667" fill="#33AD43"/>
</svg>
