<svg width="24" height="30" viewBox="0 0 24 30" fill="none" xmlns="http://www.w3.org/2000/svg">
<path fill-rule="evenodd" clip-rule="evenodd" d="M0 11.6842C0 5.24211 5.38378 0 12 0C18.6162 0 24 5.24211 24 11.6842C24 16.4526 17.8054 24.6 14.1081 29.0211C13.5892 29.6526 12.8108 30 12 30C11.1892 30 10.4108 29.6526 9.89189 29.0211C6.19459 24.6 0 16.4526 0 11.6842ZM12 27.9789C12.0973 27.9789 12.3243 27.9474 12.4865 27.7579C18.3892 20.6842 21.9243 14.6526 21.9243 11.6842C21.9243 6.34737 17.4811 2.02105 12 2.02105C6.51892 2.02105 2.07568 6.34737 2.07568 11.6842C2.07568 14.6526 5.61081 20.6842 11.5135 27.7579C11.6757 27.9474 11.9027 27.9789 12 27.9789Z" fill="#33AD43"/>
<path fill-rule="evenodd" clip-rule="evenodd" d="M6 12C6 8.69663 8.69663 6 12 6C15.3034 6 18 8.69663 18 12C18 15.3034 15.3034 18 12 18C8.69663 18 6 15.3034 6 12ZM8.1236 12C8.1236 14.1573 9.8764 15.8764 12 15.8764C14.1236 15.8764 15.8764 14.191 15.8764 12.0337C15.8764 9.8764 14.1236 8.1573 12 8.1573C9.8764 8.1573 8.1236 9.8427 8.1236 12Z" fill="#33AD43"/>
</svg>
