<svg width="66" height="70" viewBox="0 0 66 70" fill="none" xmlns="http://www.w3.org/2000/svg">
<path d="M43.3016 63.0197H40.9303V67.5959H24.6969V63.0197H22.3256V67.5959H18.2V69.9672H22.3256H43.3016H47.425V67.5959H43.3016V63.0197Z" fill="#33AD43"/>
<path fill-rule="evenodd" clip-rule="evenodd" d="M64.6209 8.86156C63.98 8.21406 63.1203 7.85531 62.2059 7.85531H50.9512L43.1003 0H13.9628V7.85531H3.41687C2.5025 7.85531 1.64062 8.20969 0.999687 8.85719C0.356562 9.5025 0 10.36 0 11.27V50.7041V53.0753V57.1003C0 58.0147 0.356562 58.8744 0.999687 59.5109C1.64062 60.1606 2.50031 60.515 3.41687 60.515H62.2059C63.1247 60.515 63.9844 60.1606 64.6209 59.5197C65.2706 58.8722 65.625 58.0125 65.625 57.0981V53.0775V50.7062V11.27C65.625 10.3622 65.2663 9.50469 64.6209 8.86156ZM63.2537 57.0981C63.2537 57.3759 63.1422 57.6362 62.9366 57.8419C62.7441 58.0344 62.4837 58.1416 62.2059 58.1416H3.41687C3.13906 58.1416 2.87437 58.0344 2.6775 57.8331C2.47844 57.6362 2.37125 57.3759 2.37125 57.0981V53.0731H63.2537V57.0981ZM57.9819 15.4963H51.6534V45.4344H57.9819V15.4963ZM43.7959 4.04906L47.6022 7.85531H43.7959V4.04906ZM41.4269 10.2244V2.36906H16.3406V45.43H49.2844V10.2244H41.4269ZM13.965 45.43H7.64313V15.4963H13.9672V45.43H13.965ZM2.6775 10.5328C2.47844 10.7297 2.36906 10.9922 2.36906 11.27V50.7041H63.2538V11.27C63.2538 10.9944 63.1422 10.7341 62.9409 10.5328C62.7441 10.3337 62.4837 10.2266 62.2059 10.2266H51.6534V13.1228H60.3531V47.8056H5.27187V13.125H13.9628V10.2266H3.41687C3.13906 10.2266 2.87437 10.3359 2.6775 10.5328Z" fill="#33AD43"/>
<rect x="30.9487" y="34.3525" width="13.7069" height="2.36906" fill="#33AD43"/>
<rect x="30.9487" y="38.5743" width="13.7069" height="2.37125" fill="#33AD43"/>
<path d="M28.6913 35.7131L27.0091 34.0397L23.6338 37.415L21.805 35.5884L20.1316 37.2662L23.6382 40.7728L28.6913 35.7131Z" fill="#33AD43"/>
<rect x="30.9487" y="24.8654" width="13.7069" height="2.37125" fill="#33AD43"/>
<rect x="30.9487" y="29.0806" width="13.7069" height="2.37125" fill="#33AD43"/>
<path d="M28.6913 26.2281L27.0091 24.5503L23.6338 27.93L21.805 26.1012L20.1316 27.7769L23.6382 31.2856L28.6913 26.2281Z" fill="#33AD43"/>
<rect x="30.9487" y="15.3782" width="13.7069" height="2.37125" fill="#33AD43"/>
<rect x="30.9487" y="19.5934" width="13.7069" height="2.37125" fill="#33AD43"/>
<path d="M28.6913 16.7409L27.0091 15.0631L23.6338 18.4428L21.805 16.614L20.1316 18.2897L23.6382 21.7962L28.6913 16.7409Z" fill="#33AD43"/>
</svg>
