<svg width="51" height="70" viewBox="0 0 51 70" fill="none" xmlns="http://www.w3.org/2000/svg">
<path fill-rule="evenodd" clip-rule="evenodd" d="M9.7082 35.7976C11.3132 42.9924 17.7817 48.2718 25.25 48.2718C32.7183 48.2718 39.1868 42.9924 40.7918 35.7976H40.7989C43.4023 35.7976 45.6496 33.8551 46.0255 31.2816L46.5966 27.3866C46.7362 26.4381 46.4556 25.4768 45.8276 24.7519C45.201 24.0256 44.2909 23.6097 43.3325 23.6097H41.8998V14.5393C41.8998 14.3285 41.8542 14.1191 41.7659 13.9283L35.7246 0.847452C35.5609 0.494262 35.2646 0.222249 34.9015 0.0883783C34.5383 -0.0426439 34.1353 -0.0269782 33.7835 0.136799L25.25 4.12301L16.7165 0.136799C16.3647 -0.0269784 15.9631 -0.0426441 15.5985 0.0883781C15.2353 0.222249 14.9391 0.494262 14.7753 0.847452L8.73408 13.9283C8.64579 14.1191 8.60021 14.3285 8.60021 14.5393V23.6097H7.16751C6.20906 23.6097 5.29902 24.0256 4.6724 24.7519C4.04435 25.4768 3.76379 26.4381 3.90335 27.388L4.47444 31.2802C4.85042 33.8551 7.09773 35.7976 9.70108 35.7976H9.7082ZM6.87841 26.6588C6.9311 26.599 7.02367 26.5264 7.16751 26.5264H10.0585C10.8646 26.5264 11.5169 25.8741 11.5169 25.068V14.8597L16.809 3.39954L24.6333 7.05391C25.0236 7.23621 25.4764 7.23621 25.8667 7.05391L33.691 3.39954L38.9831 14.8597V25.068C38.9831 25.8741 39.6354 26.5264 40.4414 26.5264H43.3325C43.4763 26.5264 43.5689 26.599 43.6216 26.6588C43.6743 26.7201 43.7312 26.8212 43.7113 26.9636L43.1402 30.8586C42.9707 32.0108 41.9653 32.8809 40.7989 32.8809H39.5756C38.8478 32.8809 38.2326 33.4164 38.1315 34.137C37.2371 40.5329 31.7 45.3551 25.25 45.3551C18.8 45.3551 13.2629 40.5329 12.3685 34.137C12.2674 33.4164 11.6522 32.8809 10.9244 32.8809H9.70108C8.5347 32.8809 7.52925 32.0108 7.35978 30.8572L6.78869 26.965C6.76875 26.8212 6.82572 26.7201 6.87841 26.6588Z" fill="#33AD43"/>
<path fill-rule="evenodd" clip-rule="evenodd" d="M14.0077 22.973C14.0077 25.4881 16.0528 27.5332 18.5679 27.5332C21.0829 27.5332 23.128 25.4881 23.128 22.973C23.128 20.4594 21.0829 18.4143 18.5679 18.4143C16.0528 18.4143 14.0077 20.4594 14.0077 22.973ZM16.9244 22.973C16.9244 22.0673 17.6621 21.331 18.5679 21.331C19.4736 21.331 20.2113 22.0673 20.2113 22.973C20.2113 23.8788 19.4736 24.6165 18.5679 24.6165C17.6621 24.6165 16.9244 23.8788 16.9244 22.973Z" fill="#33AD43"/>
<path fill-rule="evenodd" clip-rule="evenodd" d="M27.372 22.973C27.372 25.4881 29.4171 27.5332 31.9321 27.5332C34.4472 27.5332 36.4923 25.4881 36.4923 22.973C36.4923 20.4594 34.4472 18.4143 31.9321 18.4143C29.4171 18.4143 27.372 20.4594 27.372 22.973ZM30.2886 22.973C30.2886 22.0673 31.0264 21.331 31.9321 21.331C32.8379 21.331 33.5756 22.0673 33.5756 22.973C33.5756 23.8788 32.8379 24.6165 31.9321 24.6165C31.0264 24.6165 30.2886 23.8788 30.2886 22.973Z" fill="#33AD43"/>
<path d="M43.3638 15.9975H7.13619C6.33012 15.9975 5.67786 15.3452 5.67786 14.5391C5.67786 13.7331 6.33012 13.0808 7.13619 13.0808H43.3638C44.1699 13.0808 44.8221 13.7331 44.8221 14.5391C44.8221 15.3452 44.1699 15.9975 43.3638 15.9975Z" fill="#33AD43"/>
<path fill-rule="evenodd" clip-rule="evenodd" d="M1.70162 70.0001H48.7984C49.6045 70.0001 50.2567 69.3478 50.2567 68.5417V66.9567C50.2567 57.9133 42.8981 50.5547 33.8547 50.5547H16.6453C7.60189 50.5547 0.243286 57.9133 0.243286 66.9567V68.5417C0.243286 69.3478 0.895549 70.0001 1.70162 70.0001ZM47.34 67.0834H3.15995V66.9567C3.15995 59.5212 9.20976 53.4714 16.6453 53.4714H33.8547C41.2902 53.4714 47.34 59.5212 47.34 66.9567V67.0834Z" fill="#33AD43"/>
</svg>
