<svg width="15" height="15" viewBox="0 0 15 15" fill="none" xmlns="http://www.w3.org/2000/svg">
<path d="M10.4523 0.903822C10.9132 0.903822 11.3742 0.903822 11.8336 0.903822C12.5702 0.903822 13.3068 0.903822 14.0435 0.903822C14.2122 0.903822 14.3794 0.903822 14.5481 0.903822C14.3975 0.753185 14.2468 0.602548 14.0962 0.451911C14.0962 0.912861 14.0962 1.37381 14.0962 1.83325C14.0962 2.56987 14.0962 3.30648 14.0962 4.0431C14.0962 4.21181 14.0962 4.37902 14.0962 4.54773C14.0962 4.78423 14.3041 5.01019 14.5481 4.99964C14.7936 4.9891 15 4.8008 15 4.54773C15 4.08678 15 3.62583 15 3.16639C15 2.42978 15 1.69316 15 0.956545C15 0.787832 15 0.620625 15 0.451911C15 0.207879 14.7936 0 14.5481 0C14.0871 0 13.6262 0 13.1667 0C12.4301 0 11.6935 0 10.9569 0C10.7882 0 10.621 0 10.4523 0C10.2158 0 9.98981 0.207879 10.0004 0.451911C10.0109 0.695943 10.1977 0.903822 10.4523 0.903822Z" fill="black"/>
<path d="M6.00024 9.83188C6.29369 9.53832 6.58519 9.24673 6.87864 8.95318C7.58097 8.25061 8.2833 7.54804 8.98759 6.84351C9.8386 5.99221 10.6877 5.14286 11.5387 4.29156C12.2743 3.55572 13.0079 2.82184 13.7435 2.086C14.1015 1.72787 14.4634 1.37756 14.8156 1.01356C14.8214 1.00768 14.8253 1.00377 14.8312 0.997899C15.0484 0.78067 15.064 0.381439 14.8312 0.168124C14.5965 -0.0471482 14.2326 -0.0647614 14.0017 0.168124C13.7083 0.461676 13.4168 0.753272 13.1233 1.04682C12.421 1.74939 11.7187 2.45196 11.0144 3.15649C10.1634 4.00779 9.31234 4.85909 8.46133 5.70844C7.72574 6.44428 6.99211 7.17816 6.25652 7.914C5.89851 8.27213 5.53658 8.62244 5.18444 8.98644C5.17857 8.99232 5.17466 8.99623 5.16879 9.0021C4.95163 9.21933 4.93598 9.61856 5.16879 9.83188C5.40551 10.0471 5.76939 10.0648 6.00024 9.83188Z" fill="black"/>
<path d="M13.9336 8.22784C13.9336 8.81008 13.9336 9.39231 13.9336 9.97454C13.9336 10.8755 13.9336 11.7782 13.9336 12.6792C13.9336 12.916 13.9532 13.1653 13.9211 13.4003C13.9283 13.3522 13.9336 13.3059 13.9407 13.2578C13.9247 13.3611 13.898 13.459 13.8588 13.557C13.8766 13.5142 13.8944 13.4715 13.9122 13.4288C13.882 13.5 13.8464 13.5694 13.8036 13.6353C13.793 13.6513 13.7805 13.6674 13.7698 13.6834C13.7413 13.7297 13.8642 13.573 13.8036 13.6389C13.7769 13.6674 13.7538 13.6976 13.7253 13.7243C13.6986 13.7511 13.6683 13.776 13.6398 13.8027C13.5847 13.8508 13.6933 13.76 13.6933 13.7617C13.6933 13.7653 13.6523 13.792 13.6452 13.7956C13.5775 13.8419 13.5045 13.8793 13.4298 13.9113C13.4725 13.8935 13.5152 13.8757 13.558 13.8579C13.4618 13.8971 13.3621 13.9238 13.2589 13.9398C13.3069 13.9327 13.3532 13.9273 13.4013 13.9202C13.2553 13.9398 13.104 13.9327 12.9562 13.9327C12.6803 13.9327 12.4061 13.9327 12.1301 13.9327C11.2115 13.9327 10.2929 13.9327 9.37423 13.9327C8.25797 13.9327 7.13994 13.9327 6.02368 13.9327C5.06232 13.9327 4.10095 13.9327 3.13959 13.9327C2.68739 13.9327 2.23519 13.9362 1.78477 13.9327C1.72424 13.9327 1.66371 13.9291 1.60318 13.9202C1.65125 13.9273 1.69754 13.9327 1.7456 13.9398C1.64235 13.9238 1.54443 13.8971 1.44651 13.8579C1.48924 13.8757 1.53197 13.8935 1.57469 13.9113C1.50348 13.881 1.43405 13.8454 1.36818 13.8027C1.35216 13.792 1.33613 13.7795 1.32011 13.7689C1.27382 13.7404 1.43049 13.8632 1.36462 13.8027C1.33613 13.776 1.30587 13.7528 1.27916 13.7243C1.25246 13.6976 1.22753 13.6674 1.20083 13.6389C1.15276 13.5837 1.24356 13.6923 1.24178 13.6923C1.23822 13.6923 1.21151 13.6513 1.20795 13.6442C1.16166 13.5766 1.12428 13.5036 1.09223 13.4288C1.11003 13.4715 1.12784 13.5142 1.14564 13.557C1.10647 13.4608 1.07977 13.3611 1.06375 13.2578C1.07087 13.3059 1.07621 13.3522 1.08333 13.4003C1.06375 13.2543 1.07087 13.1029 1.07087 12.9552C1.07087 12.6792 1.07087 12.405 1.07087 12.129C1.07087 11.2102 1.07087 10.2915 1.07087 9.37272C1.07087 8.25633 1.07087 7.13816 1.07087 6.02176C1.07087 5.06027 1.07087 4.09879 1.07087 3.1373C1.07087 2.68504 1.06731 2.23279 1.07087 1.78231C1.07087 1.72178 1.07443 1.66124 1.08333 1.6007C1.07621 1.64877 1.07087 1.69507 1.06375 1.74314C1.07977 1.63987 1.10647 1.54194 1.14564 1.44401C1.12784 1.48674 1.11003 1.52948 1.09223 1.57221C1.1225 1.50099 1.1581 1.43155 1.20083 1.36567C1.21151 1.34964 1.22397 1.33362 1.23465 1.31759C1.26314 1.2713 1.1403 1.42799 1.20083 1.36211C1.22753 1.33362 1.25068 1.30335 1.27916 1.27664C1.30587 1.24993 1.33613 1.22501 1.36462 1.1983C1.41981 1.15022 1.31121 1.24103 1.31121 1.23925C1.31121 1.23569 1.35216 1.20898 1.35928 1.20542C1.42693 1.15913 1.49992 1.12174 1.57469 1.08969C1.53197 1.10749 1.48924 1.1253 1.44651 1.1431C1.54265 1.10393 1.64235 1.07722 1.7456 1.0612C1.69754 1.06832 1.65125 1.07366 1.60318 1.08078C1.80257 1.05408 2.01265 1.06832 2.21382 1.06832C2.61083 1.06832 3.00784 1.06832 3.40307 1.06832C4.31637 1.06832 5.22967 1.06832 6.14297 1.06832C6.35482 1.06832 6.5649 1.06832 6.77676 1.06832C7.05626 1.06832 7.32331 0.822606 7.31085 0.53416C7.29839 0.243933 7.07585 0 6.77676 0C6.29963 0 5.82251 0 5.34717 0C4.50864 0 3.67012 0 2.83159 0C2.54674 0 2.26189 0 1.97704 0C1.91473 0 1.8542 0 1.79189 0C1.51416 0 1.25602 0.0640992 1.00321 0.179834C0.392569 0.461158 0.00802242 1.11283 0.0026815 1.77519C0.0026815 1.85532 0.0026815 1.93544 0.0026815 2.01556C0.0026815 2.48918 0.0026815 2.96281 0.0026815 3.43643C0.0026815 4.19494 0.0026815 4.95344 0.0026815 5.71195C0.0026815 6.57907 0.0026815 7.44797 0.0026815 8.31509C0.0026815 9.13413 0.0026815 9.95318 0.0026815 10.7722C0.0026815 11.374 0.0026815 11.9741 0.0026815 12.5759C0.0026815 12.8982 -0.0133413 13.2222 0.0329467 13.541C0.086356 13.8971 0.28041 14.246 0.538554 14.4953C0.842987 14.7891 1.22219 14.9458 1.63879 14.9921C1.73848 15.0028 1.83996 14.9992 1.94144 14.9992C2.37761 14.9992 2.81379 14.9992 3.24818 14.9992C3.98345 14.9992 4.71694 14.9992 5.45221 14.9992C6.31922 14.9992 7.18445 14.9992 8.05146 14.9992C8.88108 14.9992 9.70892 14.9992 10.5385 14.9992C11.1723 14.9992 11.8043 14.9992 12.4381 14.9992C12.7016 14.9992 12.9633 15.001 13.2268 14.9992C13.5437 14.9974 13.8624 14.9137 14.1348 14.7482C14.4873 14.5345 14.7347 14.2176 14.8878 13.8383C14.9964 13.5712 15 13.2881 15 13.005C15 12.2981 15 11.5913 15 10.8844C15 10.1259 15 9.36916 15 8.61066C15 8.48246 15 8.35248 15 8.22428C15 7.94474 14.7543 7.67766 14.4659 7.69012C14.1775 7.70615 13.9336 7.92693 13.9336 8.22784Z" fill="black"/>
</svg>
