<svg width="59" height="60" viewBox="0 0 59 60" fill="none" xmlns="http://www.w3.org/2000/svg">
<path fill-rule="evenodd" clip-rule="evenodd" d="M55.9579 45.7262L53.6842 44.7789V48.6315H51.7895V44.7789L49.6421 45.7262L47.3684 44.7789V48.6315H45.4737V44.7789L43.3263 45.7262L41.0526 44.7789V48.6315H38.5263V44.842V38.5262V35.3683C38.5263 34.9894 38.2737 34.7368 37.8947 34.7368C37.5158 34.7368 37.2632 34.9894 37.2632 35.3683V37.8946H35.3684V20.842V18.3157C35.3684 17.9368 35.1158 17.6841 34.7368 17.6841C34.3579 17.6841 34.1053 17.9368 34.1053 18.3157V20.2104H32.8421L29.6842 5.30518H28.4211L25.0737 20.2104H24V18.3157C24 17.9368 23.7474 17.6841 23.3684 17.6841C22.9895 17.6841 22.7368 17.9368 22.7368 18.3157V20.842V37.8946H20.8421V35.3683C20.8421 34.9894 20.5895 34.7368 20.2105 34.7368C19.8316 34.7368 19.5789 34.9894 19.5789 35.3683V38.5262V44.842V48.6315H17.0526V44.7789L14.7789 45.7262L12.6316 44.7789V48.6315H10.7368V44.7789L8.46316 45.7262L6.31579 44.7789V48.6315H4.42105V44.7789L2.14737 45.7262L0 44.7789V59.9999H20.2105H22.1053H36H37.8947H58.1053V44.7789L55.9579 45.7262ZM33.4737 44.2104V40.2315C33.4737 40.042 33.4105 39.9157 33.2842 39.7894L32.5895 39.1578H34.1053H34.7368H37.2632V44.2104H33.4737ZM29.1158 51.1578C27.2211 51.221 25.8947 52.421 25.8947 54.1262V58.7368H32.2105V54.1262C32.2105 52.421 30.9474 51.1578 29.1158 51.1578ZM34.7368 56.2104V58.7368H33.4737V56.2104H34.7368ZM33.4737 54.9473H34.7368V45.4736H32.8421V47.3683C32.8421 47.7473 32.5895 47.9999 32.2105 47.9999C31.8316 47.9999 31.5789 47.7473 31.5789 47.3683V45.4736H29.6842V47.3683C29.6842 47.7473 29.4316 47.9999 29.0526 47.9999C28.6737 47.9999 28.4211 47.7473 28.4211 47.3683V45.4736H26.5263V47.3683C26.5263 47.7473 26.2737 47.9999 25.8947 47.9999C25.5158 47.9999 25.2632 47.7473 25.2632 47.3683V45.4736H23.3684V54.9473H24.6316V54.1262C24.6316 51.7894 26.5263 49.9578 28.9895 49.8946H29.0526H29.1789H29.2421C31.7053 50.021 33.4737 51.7262 33.4737 54.1262V54.9473ZM20.8421 39.1578H23.3684H24H25.5158L24.8211 39.7894C24.6947 39.9157 24.6316 40.1052 24.6316 40.2315V44.2104H20.8421V39.1578ZM32.2105 40.5473L29.0526 37.5789L25.8947 40.5473V44.2104H32.2105V40.5473ZM32.6526 31.5789C32.6211 31.4841 32.5895 31.3736 32.5579 31.2631C32.5263 31.1525 32.4947 31.042 32.4632 30.9473H34.1053V31.5789H32.6526ZM24 31.5789H25.5158C25.5158 31.3894 25.5789 31.1368 25.7053 30.9473H24V31.5789ZM28.1684 21.4736L27.2211 23.7473C27.2211 23.7734 27.2102 23.7996 27.1975 23.8303C27.1796 23.8736 27.1579 23.9259 27.1579 23.9999V26.5262H25.8947V23.8736C25.8947 23.8104 25.8947 23.6841 25.8316 23.621L24.8211 21.4736H28.1684ZM32.2737 23.621L33.2842 21.4736H29.8737L30.8842 23.621C30.9474 23.6841 30.9474 23.8104 30.9474 23.8736V26.5262H32.2105V23.8736C32.2105 23.8104 32.2105 23.6841 32.2737 23.621ZM31.6421 29.6841C31.0105 29.0525 30.0632 28.6736 29.1158 28.6736C28.1053 28.6736 27.2211 29.0525 26.5895 29.6841H24.0632V27.7894H34.1684V29.6841H31.6421ZM24 26.5262H24.6316V24.0631L24 22.6736V26.5262ZM28.4211 24.1262L29.0526 22.6104L29.6842 23.9999V26.5262H28.4211V24.1262ZM33.4737 24.0631V26.5262H34.1053V22.6736L33.4737 24.0631ZM29.1158 29.9368C30.4421 29.9368 31.5158 31.0104 31.5158 32.3368C31.5158 33.6631 30.3789 34.7368 29.1158 34.7368C27.7895 34.7368 26.7158 33.6631 26.7158 32.3368C26.7158 31.0104 27.7895 29.9368 29.1158 29.9368ZM31.5158 20.2104L28.9895 8.39991L26.4 20.2104H28.4211V18.3157C28.4211 17.9368 28.6737 17.6841 29.0526 17.6841C29.4316 17.6841 29.6842 17.9368 29.6842 18.3157V20.2104H31.5158ZM24 32.842H25.4526C25.7053 34.6104 27.2211 35.9999 29.0526 35.9999C30.8842 35.9999 32.4 34.6104 32.6526 32.842H34.1053V37.8946H33.4737V37.2631C33.4737 36.8841 33.2211 36.6315 32.8421 36.6315C32.4632 36.6315 32.2105 36.8841 32.2105 37.2631V37.8946H31.2632L29.4947 36.2525C29.2421 35.9999 28.8632 35.9999 28.6105 36.2525L26.8421 37.8946H25.8947V37.2631C25.8947 36.8841 25.6421 36.6315 25.2632 36.6315C24.8842 36.6315 24.6316 36.8841 24.6316 37.2631V37.8946H24V32.842ZM2.14737 47.1157L1.26316 46.7368V58.7368H19.5789V49.8946H17.0526H16.4211H15.7895V46.6736L14.7789 47.1157L13.8947 46.7368V49.8946H13.2632H12.6316H10.7368H10.1053H9.47368V46.6736L8.46316 47.1157L7.57895 46.7368V49.8946H6.31579H4.42105H3.15789V48.6315V46.6736L2.14737 47.1157ZM20.8421 58.7368V45.4736H22.1053V58.7368H20.8421ZM24.6316 56.2104H23.3684V58.7368H24.6316V56.2104ZM36 58.7368V45.4736H37.2632V58.7368H36ZM38.5263 58.7368H56.8421V46.7368L55.9579 47.1157L54.9474 46.6736V49.8946H54.3158H53.6842H51.7895H51.1579H50.5263V46.7368L49.6421 47.1157L48.6316 46.6736V49.8946H48H47.3684H45.4737H44.8421H44.2105V46.7368L43.3263 47.1157L42.3158 46.6736V49.8946H41.6842H41.0526H38.5263V58.7368Z" fill="#33AD43"/>
<path d="M27.3474 5.05263L28.9895 4.16842L30.6316 5.05263L30.3158 3.22105L31.6421 1.89474L29.8105 1.64211L28.9895 0L28.1684 1.64211L26.3369 1.89474L27.6632 3.22105L27.3474 5.05263Z" fill="#33AD43"/>
<path d="M29.0526 33.4736C29.4316 33.4736 29.6842 33.2209 29.6842 32.842V31.5788C29.6842 31.1999 29.4316 30.9473 29.0526 30.9473C28.6737 30.9473 28.4211 31.1999 28.4211 31.5788V32.842C28.4211 33.2209 28.6737 33.4736 29.0526 33.4736Z" fill="#33AD43"/>
<rect x="26.5263" y="54.9473" width="1.26316" height="1.26316" fill="#33AD43"/>
<rect x="28.4211" y="54.9473" width="1.26316" height="1.26316" fill="#33AD43"/>
<rect x="30.3158" y="54.9473" width="1.26316" height="1.26316" fill="#33AD43"/>
<rect x="26.5263" y="53.0527" width="1.26316" height="1.26316" fill="#33AD43"/>
<rect x="28.4211" y="53.0527" width="1.26316" height="1.26316" fill="#33AD43"/>
<rect x="30.3158" y="53.0527" width="1.26316" height="1.26316" fill="#33AD43"/>
<rect x="26.5263" y="56.842" width="1.26316" height="1.26316" fill="#33AD43"/>
<rect x="28.4211" y="56.842" width="1.26316" height="1.26316" fill="#33AD43"/>
<rect x="30.3158" y="56.842" width="1.26316" height="1.26316" fill="#33AD43"/>
<path d="M29.0526 41.6843C29.4316 41.6843 29.6842 41.4317 29.6842 41.0527V40.4211C29.6842 40.0422 29.4316 39.7896 29.0526 39.7896C28.6737 39.7896 28.4211 40.0422 28.4211 40.4211V41.0527C28.4211 41.4317 28.6737 41.6843 29.0526 41.6843Z" fill="#33AD43"/>
<path d="M34.7368 41.6843C34.7368 42.0632 34.9895 42.3159 35.3684 42.3159C35.7474 42.3159 36 42.0632 36 41.6843V40.4211C36 40.0422 35.7474 39.7896 35.3684 39.7896C34.9895 39.7896 34.7368 40.0422 34.7368 40.4211V41.6843Z" fill="#33AD43"/>
<path d="M23.3684 41.6843V40.4211C23.3684 40.0422 23.1158 39.7896 22.7368 39.7896C22.3579 39.7896 22.1053 40.0422 22.1053 40.4211V41.6843C22.1053 42.0632 22.3579 42.3159 22.7368 42.3159C23.1158 42.3159 23.3684 42.0632 23.3684 41.6843Z" fill="#33AD43"/>
<rect x="42.3158" y="51.7896" width="1.26316" height="1.26316" fill="#33AD43"/>
<rect x="49.8947" y="51.7896" width="1.26316" height="1.26316" fill="#33AD43"/>
<rect x="6.94737" y="51.7896" width="1.26316" height="1.26316" fill="#33AD43"/>
<rect x="14.5263" y="51.7896" width="1.26316" height="1.26316" fill="#33AD43"/>
<rect x="28.4211" y="15.7896" width="1.26316" height="1.26316" fill="#33AD43"/>
<rect x="28.4211" y="13.2632" width="1.26316" height="1.26316" fill="#33AD43"/>
</svg>
