<svg width="46" height="60" viewBox="0 0 46 60" fill="none" xmlns="http://www.w3.org/2000/svg">
<path d="M12.1186 13.9444V5.62529H22.7616V3.8811H10.3744V13.9444C10.3744 15.2469 10.574 16.5313 10.9681 17.7627L12.6293 17.2311C12.2902 16.172 12.1186 15.0662 12.1186 13.9444Z" fill="#35AE45"/>
<path d="M13.7672 19.6792L12.2902 20.6071C14.6093 24.2992 18.5874 26.5032 22.9319 26.5032V24.759C19.1916 24.7583 15.7654 22.8599 13.7672 19.6792Z" fill="#35AE45"/>
<path fill-rule="evenodd" clip-rule="evenodd" d="M38.8074 4.01166V0.392822H6.71442V4.01166H0.304184V11.9903C0.304184 16.7498 3.85186 20.7014 8.49907 21.2854C10.3458 24.8589 13.493 27.6545 17.3135 29.0379V33.2484H16.514C15.1974 33.2484 14.1265 34.3193 14.1265 35.6358C14.1265 36.9524 15.1974 38.0233 16.514 38.0233H17.3135V40.0291H11.423V45.7849H4.18535V59.3896H41.3365V45.7849H34.0981V40.0291H28.5502V38.0233H29.0072C30.3237 38.0233 31.3946 36.9524 31.3946 35.6358C31.3946 34.3193 30.3237 33.2484 29.0072 33.2484H28.5502V28.9061C32.2012 27.4884 35.2081 24.7724 37.0019 21.3258C41.8451 20.9275 45.6014 16.8865 45.6014 11.9903V4.01166H38.8074ZM2.04907 11.9903V5.75585H6.71511V13.9445C6.71511 15.8386 7.04721 17.6561 7.65279 19.3451C4.40721 18.4549 2.04907 15.4912 2.04907 11.9903ZM14.1272 41.7733H13.1679V45.7849H14.1272V41.7733ZM5.92953 47.5291H7.06395V57.6454H5.92953V47.5291ZM8.80814 57.6454H39.5923V47.5291H8.80814V57.6454ZM32.354 45.7849H15.8714V41.7733H32.354V45.7849ZM19.0584 40.0291H26.806V38.0233H19.0584V40.0291ZM29.6505 35.6358C29.6505 35.991 29.3623 36.2791 29.0072 36.2791H16.5146C16.1602 36.2791 15.8714 35.991 15.8714 35.6358C15.8714 35.2807 16.1602 34.9926 16.5146 34.9926H29.0072C29.3623 34.9926 29.6505 35.2807 29.6505 35.6358ZM19.0584 33.2484H26.806V29.474C25.5133 29.811 24.1577 29.991 22.7609 29.991C21.4863 29.991 20.2479 29.8368 19.0584 29.5549V33.2484ZM22.7609 28.2468C14.8744 28.2468 8.4586 21.831 8.4586 13.9445V2.13701H37.0633V13.9445C37.0633 21.831 30.6474 28.2468 22.7609 28.2468ZM37.8356 19.4449C41.294 18.7033 43.8572 15.6391 43.8572 11.9903V5.75585H38.8074V13.9445C38.8074 15.8756 38.4635 17.7286 37.8356 19.4449Z" fill="#35AE45"/>
<path fill-rule="evenodd" clip-rule="evenodd" d="M29.2158 49.7092V56.2213H16.3061V49.7092H29.2158ZM27.4716 51.4534H18.0502V54.4771H27.4716V51.4534Z" fill="#35AE45"/>
</svg>
