<svg width="12" height="12" viewBox="0 0 12 12" fill="none" xmlns="http://www.w3.org/2000/svg">
<path d="M11.5946 6C11.3784 6 11.1892 6.22703 11.1892 6.48649V9.82703C11.1892 10.4757 10.7568 11.027 10.1892 11.027H1.81081C1.27027 11.027 0.810811 10.5081 0.810811 9.82703V6.48649C0.810811 6.22703 0.621622 6 0.405405 6C0.189189 6 0 6.22703 0 6.48649V9.82703C0 11.027 0.810811 12 1.81081 12H10.1892C11.1892 12 12 11.027 12 9.82703V6.48649C12 6.22703 11.8378 6 11.5946 6Z" fill="#E6E6E6"/>
<path d="M6.17511 7.89369C6.20464 7.89369 6.20464 7.89369 6.17511 7.89369C6.20464 7.89369 6.20464 7.89369 6.17511 7.89369C6.23418 7.94684 6.26371 7.97342 6.32278 7.97342C6.38186 8 6.44093 8 6.5 8C6.55907 8 6.61814 8 6.67722 7.97342C6.73629 7.94684 6.76582 7.92027 6.82489 7.89369L9.86709 5.15615C10.0443 4.99668 10.0443 4.75748 9.86709 4.59801C9.68987 4.43854 9.42405 4.43854 9.24684 4.59801L6.94304 6.6711V0.398671C6.94304 0.186047 6.73629 0 6.5 0C6.26371 0 6.05696 0.186047 6.05696 0.398671V6.64452L3.75316 4.57143C3.57595 4.41196 3.31013 4.41196 3.13291 4.57143C2.9557 4.7309 2.9557 4.9701 3.13291 5.12957L6.17511 7.89369Z" fill="#E6E6E6"/>
</svg>
