<svg width="18" height="18" viewBox="0 0 18 18" fill="none" xmlns="http://www.w3.org/2000/svg">
<path fill-rule="evenodd" clip-rule="evenodd" d="M3.51218 0.0219727C3.26972 0.0219727 3.07316 0.218531 3.07316 0.460997V1.42685H2.59023C1.25667 1.42685 0.175598 2.50792 0.175598 3.84148V15.5634C0.175598 16.897 1.25667 17.9781 2.59023 17.9781H14.9707C16.3043 17.9781 17.3854 16.897 17.3854 15.5634V3.81953C17.3854 2.48597 16.3043 1.4049 14.9707 1.4049H14.4878V0.460997C14.4878 0.218531 14.2912 0.0219727 14.0488 0.0219727C13.8063 0.0219727 13.6097 0.218531 13.6097 0.460997V1.42685H9.2195V0.460997C9.2195 0.218531 9.02294 0.0219727 8.78048 0.0219727C8.53801 0.0219727 8.34145 0.218531 8.34145 0.460997V1.42685H3.95121V0.460997C3.95121 0.218531 3.75465 0.0219727 3.51218 0.0219727ZM2.59023 17.1C1.7416 17.1 1.05365 16.4121 1.05365 15.5634V6.45368H16.5073V15.5634C16.5073 16.4121 15.8194 17.1 14.9707 17.1H2.59023ZM8.34145 3.2488V2.28295H3.95121V3.2488C3.95121 3.49127 3.75465 3.68783 3.51218 3.68783C3.26972 3.68783 3.07316 3.49127 3.07316 3.2488V2.28295H2.59023C1.7416 2.28295 1.05365 2.9709 1.05365 3.81953V5.57563H16.5073V3.81953C16.5073 2.9709 15.8194 2.28295 14.9707 2.28295H14.4878V3.2488C14.4878 3.49127 14.2912 3.68783 14.0488 3.68783C13.8063 3.68783 13.6097 3.49127 13.6097 3.2488V2.28295H9.2195V3.2488C9.2195 3.49127 9.02294 3.68783 8.78048 3.68783C8.53801 3.68783 8.34145 3.49127 8.34145 3.2488Z" fill="#33AD43"/>
<path d="M4.25854 9.70239H7.04635C7.28881 9.70239 7.48537 9.50583 7.48537 9.26337C7.48537 9.0209 7.28881 8.82434 7.04635 8.82434H4.25854C4.01608 8.82434 3.81952 9.0209 3.81952 9.26337C3.81952 9.50583 4.01608 9.70239 4.25854 9.70239Z" fill="#33AD43"/>
<path d="M13.3024 11.3927H4.25854C4.01608 11.3927 3.81952 11.5893 3.81952 11.8317C3.81952 12.0742 4.01608 12.2707 4.25854 12.2707H13.3024C13.5449 12.2707 13.7415 12.0742 13.7415 11.8317C13.7415 11.5893 13.5449 11.3927 13.3024 11.3927V11.3927Z" fill="#33AD43"/>
<path d="M13.3024 13.939H4.25854C4.01608 13.939 3.81952 14.1355 3.81952 14.378C3.81952 14.6205 4.01608 14.817 4.25854 14.817H13.3024C13.5449 14.817 13.7415 14.6205 13.7415 14.378C13.7415 14.1355 13.5449 13.939 13.3024 13.939Z" fill="#33AD43"/>
</svg>
