<svg width="68" height="59" viewBox="0 0 68 59" fill="none" xmlns="http://www.w3.org/2000/svg">
<path fill-rule="evenodd" clip-rule="evenodd" d="M63.3962 8.0566H49.6981C49.1966 5.62012 47.1632 3.79659 44.6867 3.56244C42.2103 3.32829 39.8711 4.73842 38.9219 7.03773L19.7321 0.387917C18.5964 -0.0121457 17.3481 0.0576366 16.2641 0.581775C15.1801 1.10591 14.3502 2.04105 13.9585 3.17962L0.253587 42.7106C-0.144131 43.8506 -0.070116 45.1022 0.459188 46.1874C0.988492 47.2725 1.92925 48.1014 3.07245 48.4898L20.3774 54.4309V54.4717C20.3774 56.9726 22.4048 59 24.9057 59H49.8113C49.9598 58.9993 50.1066 58.9697 50.2438 58.9128C50.3813 58.8563 50.5063 58.7732 50.6117 58.6683L67.5928 41.6872C67.6977 41.5818 67.7808 41.4567 67.8374 41.3192C67.8942 41.1821 67.9238 41.0352 67.9245 40.8868V12.5849C67.9245 10.084 65.8971 8.0566 63.3962 8.0566ZM44.1509 5.79245C46.0266 5.79245 47.5472 7.31299 47.5472 9.18867C47.5472 11.0644 46.0266 12.5849 44.1509 12.5849C42.2753 12.5849 40.7547 11.0644 40.7547 9.18867C40.7547 7.31299 42.2753 5.79245 44.1509 5.79245ZM2.49368 45.1935C2.75815 45.7364 3.22858 46.1512 3.80038 46.3457L20.3774 52.0377V12.5849C20.3774 10.084 22.4048 8.0566 24.9057 8.0566H34.9449L18.986 2.52641C18.4193 2.32556 17.7958 2.35972 17.2544 2.62128C16.713 2.88283 16.2987 3.35006 16.1038 3.91886L2.39208 43.4543C2.19264 44.0244 2.22922 44.6505 2.49368 45.1935ZM22.6415 54.4717V12.5849C22.6415 11.3344 23.6552 10.3207 24.9057 10.3207H38.6038C39.1395 12.9588 41.459 14.8547 44.1509 14.8547C46.8429 14.8547 49.1624 12.9588 49.6981 10.3207H63.3962C64.6467 10.3207 65.6604 11.3344 65.6604 12.5849V39.7547H53.2076C50.7066 39.7547 48.6792 41.7821 48.6792 44.283V56.7358H24.9057C23.6552 56.7358 22.6415 55.7221 22.6415 54.4717ZM50.9434 55.1351L64.0596 42.0189H53.2076C51.9571 42.0189 50.9434 43.0326 50.9434 44.283V55.1351Z" fill="white"/>
<path d="M28.3019 20.5094H36.2264C36.8516 20.5094 37.3585 20.0025 37.3585 19.3773C37.3585 18.7521 36.8516 18.2452 36.2264 18.2452H28.3019C27.6766 18.2452 27.1698 18.7521 27.1698 19.3773C27.1698 20.0025 27.6766 20.5094 28.3019 20.5094Z" fill="white"/>
<path d="M28.3019 26.1698H56.6038C57.229 26.1698 57.7358 25.6629 57.7358 25.0377C57.7358 24.4125 57.229 23.9056 56.6038 23.9056H28.3019C27.6766 23.9056 27.1698 24.4125 27.1698 25.0377C27.1698 25.6629 27.6766 26.1698 28.3019 26.1698Z" fill="white"/>
<path d="M28.3019 31.8302H56.6038C57.229 31.8302 57.7358 31.3233 57.7358 30.6981C57.7358 30.0729 57.229 29.566 56.6038 29.566H28.3019C27.6766 29.566 27.1698 30.0729 27.1698 30.6981C27.1698 31.3233 27.6766 31.8302 28.3019 31.8302Z" fill="white"/>
<path d="M28.3019 37.4906H56.6038C57.229 37.4906 57.7358 36.9837 57.7358 36.3585C57.7358 35.7333 57.229 35.2264 56.6038 35.2264H28.3019C27.6766 35.2264 27.1698 35.7333 27.1698 36.3585C27.1698 36.9837 27.6766 37.4906 28.3019 37.4906Z" fill="white"/>
<path d="M32.8302 45.415H28.3019C27.6766 45.415 27.1698 45.9219 27.1698 46.5471C27.1698 47.1723 27.6766 47.6792 28.3019 47.6792H32.8302C33.4554 47.6792 33.9623 47.1723 33.9623 46.5471C33.9623 45.9219 33.4554 45.415 32.8302 45.415Z" fill="white"/>
</svg>
