<svg width="54" height="50" viewBox="0 0 54 50" fill="none" xmlns="http://www.w3.org/2000/svg">
<rect x="12.5" y="5.35718" width="16.0714" height="1.78571" fill="white"/>
<rect x="12.5" y="8.92847" width="16.0714" height="1.78571" fill="white"/>
<rect x="12.5" y="12.5" width="11.6071" height="1.78571" fill="white"/>
<path fill-rule="evenodd" clip-rule="evenodd" d="M7.14286 19.6429V26.25L13.75 19.6429H29.4643C30.9821 19.6429 32.1429 18.4821 32.1429 16.9643V2.67857C32.1429 1.16071 30.9821 0 29.4643 0H2.67857C1.16071 0 0 1.16071 0 2.67857V16.9643C0 18.4821 1.16071 19.6429 2.67857 19.6429H7.14286ZM1.78571 2.67857C1.78571 2.14286 2.14286 1.78571 2.67857 1.78571H29.4643C30 1.78571 30.3571 2.14286 30.3571 2.67857V16.9643C30.3571 17.5 30 17.8571 29.4643 17.8571H13.0357L8.92857 21.9643V17.8571H2.67857C2.14286 17.8571 1.78571 17.5 1.78571 16.9643V2.67857Z" fill="white"/>
<path fill-rule="evenodd" clip-rule="evenodd" d="M4.46429 5.35704C4.46429 6.8749 5.62501 8.03561 7.14287 8.03561C8.66072 8.03561 9.82144 6.8749 9.82144 5.35704C9.82144 3.83918 8.66072 2.67847 7.14287 2.67847C5.62501 2.67847 4.46429 3.83918 4.46429 5.35704ZM6.25001 5.35704C6.25001 4.82132 6.60715 4.46418 7.14287 4.46418C7.67858 4.46418 8.03572 4.82132 8.03572 5.35704C8.03572 5.89275 7.67858 6.2499 7.14287 6.2499C6.60715 6.2499 6.25001 5.89275 6.25001 5.35704Z" fill="white"/>
<path d="M10.7143 16.9642H6.24998V15.1785H8.92855V12.4999C8.92855 11.5178 8.12498 10.7142 7.14284 10.7142C6.1607 10.7142 5.35713 11.5178 5.35713 12.4999V16.9642H3.57141V12.4999C3.57141 10.5356 5.17855 8.92847 7.14284 8.92847C9.10713 8.92847 10.7143 10.5356 10.7143 12.4999V16.9642Z" fill="white"/>
<path d="M46.4286 32.5L39.8214 25.8929H24.1072C22.5893 25.8929 21.4286 24.7321 21.4286 23.2143V21.4286H23.2143V23.2143C23.2143 23.75 23.5714 24.1071 24.1072 24.1071H40.5357L44.6429 28.2143V24.1071H50.8929C51.4286 24.1071 51.7857 23.75 51.7857 23.2143V8.92857C51.7857 8.39286 51.4286 8.03571 50.8929 8.03571H33.9286V6.25H50.8929C52.4107 6.25 53.5714 7.41071 53.5714 8.92857V23.2143C53.5714 24.7321 52.4107 25.8929 50.8929 25.8929H46.4286V32.5Z" fill="white"/>
<rect x="33.9286" y="11.6072" width="7.14286" height="1.78571" fill="white"/>
<rect x="33.9286" y="15.1785" width="7.14286" height="1.78571" fill="white"/>
<rect x="35.7143" y="18.75" width="5.35714" height="1.78571" fill="white"/>
<path fill-rule="evenodd" clip-rule="evenodd" d="M43.75 11.607C43.75 13.1249 44.9107 14.2856 46.4286 14.2856C47.9464 14.2856 49.1071 13.1249 49.1071 11.607C49.1071 10.0892 47.9464 8.92847 46.4286 8.92847C44.9107 8.92847 43.75 10.0892 43.75 11.607ZM45.5357 11.607C45.5357 11.0713 45.8929 10.7142 46.4286 10.7142C46.9643 10.7142 47.3214 11.0713 47.3214 11.607C47.3214 12.1428 46.9643 12.4999 46.4286 12.4999C45.8929 12.4999 45.5357 12.1428 45.5357 11.607Z" fill="white"/>
<path d="M50 23.2142H48.2143V18.7499C48.2143 17.7678 47.4107 16.9642 46.4285 16.9642C45.4464 16.9642 44.6428 17.7678 44.6428 18.7499V21.4285H47.3214V23.2142H42.8571V18.7499C42.8571 16.7856 44.4643 15.1785 46.4285 15.1785C48.3928 15.1785 50 16.7856 50 18.7499V23.2142Z" fill="white"/>
<path d="M16.9643 36.9643V30.3571H12.5C10.9821 30.3571 9.82141 29.1964 9.82141 27.6786V25H11.6071V27.6786C11.6071 28.2143 11.9643 28.5714 12.5 28.5714H18.75V32.6786L22.8571 28.5714H39.2857V30.3571H23.5714L16.9643 36.9643Z" fill="white"/>
<path fill-rule="evenodd" clip-rule="evenodd" d="M46.4286 49.0179C46.6071 49.1072 46.6964 49.1072 46.875 49.1072C47.0536 49.1072 47.2321 49.0179 47.4107 48.9286C47.6786 48.6608 47.7678 48.3036 47.6786 47.9465L46.5178 44.0179L49.6428 41.2501C49.9107 40.9822 50 40.6251 49.9107 40.2679C49.8214 40.0001 49.4643 39.7322 49.1071 39.7322H45.1786L43.6607 36.2501C43.5714 35.8929 43.2143 35.7144 42.8571 35.7144C42.5 35.7144 42.2321 35.8929 42.0536 36.2501L40.5357 39.7322H36.6071C36.25 39.7322 35.8928 39.9108 35.8036 40.2679C35.7143 40.6251 35.8036 40.9822 36.0714 41.2501L39.1964 44.0179L38.0357 47.9465C37.9464 48.3036 38.0357 48.6608 38.3036 48.9286C38.5714 49.1965 38.9286 49.1965 39.2857 49.0179L42.8571 47.0536L46.4286 49.0179ZM43.3036 45.1786C43.125 45.0894 43.0357 45.0894 42.8571 45.0894H42.4107L40.3571 46.2501L41.0714 43.9286C41.1607 43.6608 41.0714 43.3036 40.8036 43.0358L39.0178 41.5179H41.0714C41.4286 41.5179 41.6964 41.3394 41.875 40.9822L42.8571 38.8394L43.8393 41.0715C43.9286 41.4286 44.2857 41.6072 44.6428 41.6072H46.6964L44.9107 43.1251C44.6428 43.3036 44.5536 43.6608 44.6428 44.0179L45.3571 46.3394L43.3036 45.1786Z" fill="white"/>
<path fill-rule="evenodd" clip-rule="evenodd" d="M14.2857 49.0179C14.4643 49.1072 14.5536 49.1072 14.7321 49.1072C14.9107 49.1072 15.0893 49.0179 15.2678 48.9286C15.5357 48.6608 15.625 48.3036 15.5357 47.9465L14.375 44.0179L17.5 41.2501C17.7678 40.9822 17.8571 40.6251 17.7678 40.2679C17.6786 40.0001 17.3214 39.7322 16.9643 39.7322H13.0357L11.5178 36.2501C11.4286 35.8929 11.0714 35.7144 10.7143 35.7144C10.3571 35.7144 10.0893 35.8929 9.9107 36.2501L8.39284 39.7322H4.46427C4.10713 39.7322 3.74998 39.9108 3.6607 40.2679C3.48213 40.6251 3.57141 41.0715 3.92855 41.2501L7.05355 44.0179L5.89284 47.9465C5.80355 48.3036 5.89284 48.6608 6.1607 48.9286C6.42855 49.1965 6.7857 49.1965 7.14284 49.0179L10.7143 47.0536L14.2857 49.0179ZM11.1607 45.1786C10.9821 45.0894 10.8928 45.0894 10.7143 45.0894H10.2678L8.21427 46.2501L8.92855 43.9286C9.01784 43.6608 8.92855 43.3036 8.6607 43.0358L6.87498 41.5179H8.92855C9.2857 41.5179 9.55355 41.3394 9.73213 40.9822L10.7143 38.8394L11.6964 41.0715C11.7857 41.4286 12.1428 41.6072 12.5 41.6072H14.5536L12.7678 43.1251C12.5 43.3036 12.4107 43.6608 12.5 44.0179L13.2143 46.3394L11.1607 45.1786Z" fill="white"/>
<path fill-rule="evenodd" clip-rule="evenodd" d="M30.3572 49.0179C30.5357 49.1072 30.625 49.1072 30.8036 49.1072C30.9822 49.1072 31.1607 49.0179 31.3393 48.9286C31.6072 48.6608 31.6964 48.3036 31.6072 47.9465L30.4464 44.0179L33.5714 41.2501C33.8393 40.9822 33.9286 40.6251 33.8393 40.2679C33.75 40.0001 33.3929 39.7322 33.0357 39.7322H29.1072L27.5893 36.2501C27.5 35.8929 27.1429 35.7144 26.7857 35.7144C26.4286 35.7144 26.1607 35.8929 25.9822 36.2501L24.4643 39.7322H20.5357C20.1786 39.7322 19.8214 39.9108 19.7322 40.2679C19.6429 40.6251 19.7322 40.9822 20 41.2501L23.125 44.0179L21.9643 47.9465C21.875 48.3036 21.9643 48.6608 22.2322 48.9286C22.5 49.1965 22.8572 49.1965 23.2143 49.0179L26.7857 47.0536L30.3572 49.0179ZM27.2322 45.1786C27.0536 45.0894 26.9643 45.0894 26.7857 45.0894H26.3393L24.2857 46.2501L25 43.9286C25.0893 43.6608 25 43.3036 24.7322 43.0358L22.9464 41.5179H25C25.3572 41.5179 25.625 41.3394 25.8036 40.9822L26.7857 38.8394L27.7679 41.0715C27.8572 41.4286 28.2143 41.6072 28.5714 41.6072H30.625L28.8393 43.1251C28.5714 43.3036 28.4822 43.6608 28.5714 44.0179L29.2857 46.3394L27.2322 45.1786Z" fill="white"/>
</svg>
