<svg width="18" height="41" viewBox="0 0 18 41" fill="none" xmlns="http://www.w3.org/2000/svg">
<path d="M11.47 36.25L8.5 39L5.53 36.25C5.17 35.9167 4.63 35.9167 4.27 36.25C3.91 36.5833 3.91 37.0833 4.27 37.4167L7.87 40.75C8.05 40.9167 8.275 41 8.5 41C8.725 41 8.95 40.9167 9.13 40.75L12.73 37.4167C13.09 37.0833 13.09 36.5833 12.73 36.25C12.37 35.9167 11.83 35.9167 11.47 36.25Z" fill="white"/>
<path d="M12.73 31.25C12.37 30.9167 11.83 30.9167 11.47 31.25L8.5 34L5.53 31.25C5.17 30.9167 4.63 30.9167 4.27 31.25C3.91 31.5833 3.91 32.0833 4.27 32.4167L7.87 35.75C8.05 35.9167 8.275 36 8.5 36C8.725 36 8.95 35.9167 9.13 35.75L12.73 32.4167C13.09 32.0833 13.09 31.5833 12.73 31.25Z" fill="white"/>
<path fill-rule="evenodd" clip-rule="evenodd" d="M18 8.66667V17.3333C18 22.1 13.95 26 9 26C4.05 26 0 22.1 0 17.3333V8.66667C0 3.9 4.05 0 9 0C13.95 0 18 3.9 18 8.66667ZM2 17.3333C2 21.0407 5.15 24.0741 9 24.0741C12.85 24.0741 16 21.0407 16 17.3333V8.66667C16 4.95926 12.85 1.92593 9 1.92593C5.15 1.92593 2 4.95926 2 8.66667V17.3333Z" fill="white"/>
</svg>
