<svg width="18" height="41" viewBox="0 0 18 41" fill="none" xmlns="http://www.w3.org/2000/svg">
<path d="M11.47 36.25L8.5 39L5.53 36.25C5.17 35.9167 4.63 35.9167 4.27 36.25C3.91 36.5833 3.91 37.0833 4.27 37.4167L7.87 40.75C8.05 40.9167 8.275 41 8.5 41C8.725 41 8.95 40.9167 9.13 40.75L12.73 37.4167C13.09 37.0833 13.09 36.5833 12.73 36.25C12.37 35.9167 11.83 35.9167 11.47 36.25Z" fill="white"/>
<path d="M12.73 31.25C12.37 30.9167 11.83 30.9167 11.47 31.25L8.5 34L5.53 31.25C5.17 30.9167 4.63 30.9167 4.27 31.25C3.91 31.5833 3.91 32.0833 4.27 32.4167L7.87 35.75C8.05 35.9167 8.275 36 8.5 36C8.725 36 8.95 35.9167 9.13 35.75L12.73 32.4167C13.09 32.0833 13.09 31.5833 12.73 31.25Z" fill="white"/>
<path fill-rule="evenodd" clip-rule="evenodd" d="M18 8.66666V17.3333C18 22.1 13.9502 26 9 26C4.0498 26 0 22.1 0 17.3333V8.66666C0 3.89999 4.0498 0 9 0C13.9502 0 18 3.89999 18 8.66666ZM2 17.3333C2 21.0408 5.1499 24.0741 9 24.0741C12.8501 24.0741 16 21.0408 16 17.3333V8.66669C16 4.95926 12.8501 1.92593 9 1.92593C5.1499 1.92593 2 4.95926 2 8.66669V17.3333Z" fill="white"/>
<path d="M9 5C8.45 5 8 5.36 8 5.8V8.2C8 8.64 8.45 9 9 9C9.55 9 10 8.64 10 8.2V5.8C10 5.36 9.55 5 9 5Z" fill="white"/>
</svg>
