<svg width="35" height="28" viewBox="0 0 35 28" fill="none" xmlns="http://www.w3.org/2000/svg">
<path fill-rule="evenodd" clip-rule="evenodd" d="M30.9782 0L4.02183 0C1.80064 0 0 1.99749 0 4.46153L0 23.423C0 25.8871 1.80064 27.8846 4.02183 27.8846H30.9782C33.1994 27.8846 35 25.8871 35 23.423V4.46153C35 1.99749 33.1994 0 30.9782 0ZM4.75167 2.95934L30.2578 2.95934C30.7781 2.96137 31.2748 3.18871 31.6325 3.58844L18.9746 12.25C18.0771 12.8129 16.9609 12.8129 16.0634 12.25L3.37219 3.60858C3.72771 3.20014 4.22689 2.96521 4.75167 2.95934ZM2.84893 23.0303C2.84893 24.1422 3.70082 25.0435 4.75167 25.0435H30.2578C31.3086 25.0435 32.1605 24.1422 32.1605 23.0303V6.58805L19.9878 14.9023C19.2387 15.3816 18.3802 15.6356 17.5047 15.6371C16.642 15.6383 15.7952 15.3913 15.055 14.9224L2.84893 6.58805L2.84893 23.0303Z" fill="#33AD43"/>
</svg>
