<svg width="19" height="20" viewBox="0 0 19 20" fill="none" xmlns="http://www.w3.org/2000/svg">
<path d="M17.2216 10.4261C17.2238 10.8374 17.1993 11.2486 17.1438 11.6555C17.1549 11.5777 17.166 11.4976 17.1749 11.4198C17.0726 12.1712 16.8726 12.9049 16.5814 13.6029C16.6103 13.5318 16.6414 13.4606 16.6703 13.3895C16.3835 14.0698 16.0101 14.7122 15.5588 15.2991C15.6055 15.2391 15.6522 15.1791 15.6989 15.1191C15.2432 15.7082 14.7163 16.2373 14.1295 16.693C14.1895 16.6463 14.2495 16.5997 14.3095 16.553C13.7271 17.002 13.0891 17.3755 12.4112 17.6645C12.4823 17.6356 12.5534 17.6045 12.6246 17.5756C11.9154 17.8757 11.1685 18.078 10.4038 18.1803C10.4816 18.1692 10.5617 18.158 10.6395 18.1492C9.88145 18.2492 9.11232 18.2492 8.3543 18.1492C8.4321 18.1603 8.51213 18.1714 8.58993 18.1803C7.82747 18.078 7.08056 17.8735 6.36922 17.5756C6.44036 17.6045 6.51149 17.6356 6.58262 17.6645C5.90463 17.3755 5.26665 17.002 4.68424 16.553C4.74426 16.5997 4.80428 16.6463 4.8643 16.693C4.28189 16.2395 3.75728 15.7171 3.30602 15.1346C3.3527 15.1947 3.39939 15.2547 3.44607 15.3147C2.99704 14.7322 2.62358 14.0942 2.3346 13.4162C2.3635 13.4873 2.39462 13.5584 2.42352 13.6296C2.12342 12.9204 1.92114 12.1735 1.81888 11.4087C1.83 11.4865 1.84111 11.5665 1.85 11.6444C1.74997 10.8863 1.74997 10.1171 1.85 9.35901C1.83889 9.43682 1.82777 9.51685 1.81888 9.59466C1.92114 8.83213 2.12565 8.08517 2.42352 7.37378C2.39462 7.44492 2.3635 7.51606 2.3346 7.58719C2.62358 6.90915 2.99704 6.27112 3.44607 5.68867C3.39939 5.74869 3.3527 5.80871 3.30602 5.86874C3.7595 5.28628 4.28189 4.76163 4.8643 4.31034C4.80428 4.35703 4.74426 4.40371 4.68424 4.4504C5.26665 4.00133 5.90463 3.62785 6.58262 3.33885C6.51149 3.36775 6.44036 3.39887 6.36922 3.42777C7.07834 3.12765 7.82524 2.92535 8.58993 2.82309C8.51213 2.8342 8.4321 2.84532 8.3543 2.85421C9.11232 2.75417 9.88145 2.75417 10.6395 2.85421C10.5617 2.84309 10.4816 2.83198 10.4038 2.82309C11.1663 2.92535 11.9132 3.12987 12.6246 3.42777C12.5534 3.39887 12.4823 3.36775 12.4112 3.33885C13.0891 3.62785 13.7271 4.00133 14.3095 4.4504C14.2495 4.40371 14.1895 4.35703 14.1295 4.31034C14.4207 4.5371 14.6963 4.77942 14.9586 5.03952C15.2876 5.36854 15.89 5.39299 16.2168 5.03952C16.5414 4.68605 16.568 4.13249 16.2168 3.78124C15.0253 2.59411 13.5159 1.72043 11.8843 1.30026C10.2927 0.89121 8.59438 0.900102 7.0072 1.32694C5.38002 1.76711 3.87287 2.65413 2.69916 3.86127C1.52768 5.0662 0.671849 6.5868 0.273944 8.21856C-0.112846 9.8103 -0.0928396 11.5021 0.351747 13.0805C0.809671 14.7033 1.70996 16.2062 2.93257 17.3688C4.14629 18.5249 5.669 19.3674 7.30508 19.7476C8.90114 20.1188 10.5928 20.0833 12.1666 19.6231C13.8072 19.1407 15.321 18.2092 16.4791 16.9487C17.7617 15.5503 18.6309 13.7763 18.891 11.8933C18.9577 11.4065 19.0021 10.9196 18.9999 10.4283C18.9977 10.1993 18.9021 9.96147 18.7398 9.79918C18.5865 9.64579 18.333 9.52796 18.1107 9.53908C17.6328 9.55909 17.2194 9.92812 17.2216 10.4261Z" fill="#33AD43"/>
<path d="M13.6235 1.07042C13.8531 2.09519 14.0827 3.11995 14.3123 4.14261C14.3449 4.28599 14.3774 4.42937 14.4078 4.57276C14.5968 4.22695 14.7858 3.88115 14.9748 3.53534C13.9872 3.77361 12.9997 4.01188 12.0141 4.25015C11.8759 4.28388 11.7378 4.31762 11.5996 4.34925C11.1851 4.44835 10.9006 4.96495 11.0327 5.38667C11.1729 5.83579 11.5874 6.08249 12.0324 5.97496C13.02 5.73669 14.0075 5.49842 14.9931 5.26015C15.1312 5.22641 15.2694 5.19268 15.4076 5.16105C15.5925 5.11677 15.8038 4.94808 15.8933 4.77307C15.9969 4.56854 16.0274 4.35136 15.9745 4.12363C15.7449 3.09887 15.5153 2.0741 15.2857 1.05144C15.2532 0.908062 15.2207 0.764679 15.1902 0.621296C15.0947 0.193256 14.5989 -0.101943 14.1925 0.0330051C13.7596 0.178496 13.5219 0.610753 13.6235 1.07042Z" fill="#33AD43"/>
</svg>
