<svg width="70" height="70" viewBox="0 0 70 70" fill="none" xmlns="http://www.w3.org/2000/svg">
<path d="M41.3823 49.8156C40.4717 50.1878 39.5452 50.4966 38.5871 50.7184C38.1516 50.8213 37.7081 50.9005 37.2568 50.9717C37.1776 50.9876 36.8609 51.0193 37.1776 50.9797C37.0826 50.9876 36.9876 51.0034 36.8925 51.0113C36.6075 51.043 36.3145 51.0668 36.0294 51.0826C35.0633 51.138 34.0894 51.1143 33.1312 51.0113C32.9887 50.9955 32.8461 50.9797 32.7036 50.9638C32.767 50.9717 33.0124 51.0113 32.7036 50.9638C32.474 50.9242 32.2364 50.8846 32.0068 50.8451C31.5 50.75 31.0011 50.6233 30.5102 50.4808C30.0905 50.362 29.6708 50.2195 29.259 50.069C29.069 49.9978 28.8631 49.9344 28.681 49.8394C29.0452 50.0215 28.681 49.8394 28.6176 49.8077C28.5068 49.7602 28.3959 49.7127 28.293 49.6573C27.5724 49.3168 26.8756 48.9367 26.2104 48.5012C25.8778 48.2874 25.5532 48.0577 25.2364 47.8202C25.2206 47.8122 24.9197 47.5747 25.1176 47.7251C25.3156 47.8835 25.0068 47.638 24.9989 47.6301C24.8167 47.4797 24.6346 47.3292 24.4525 47.1708C23.8586 46.6482 23.3043 46.086 22.7817 45.4921C22.655 45.3417 22.5283 45.1912 22.4016 45.0408C22.3541 44.9774 22.3066 44.9141 22.2511 44.8586C21.9977 44.5419 22.4491 45.1279 22.2115 44.8032C21.974 44.4865 21.7443 44.1618 21.5305 43.8292C21.0713 43.1324 20.6674 42.396 20.319 41.6437C20.2873 41.5724 20.2557 41.5012 20.2161 41.422C20.1844 41.3586 20.0181 40.9865 20.1844 41.3586C20.0973 41.1686 20.026 40.9706 19.9547 40.7806C19.7805 40.3213 19.6301 39.8541 19.4955 39.3869C19.3688 38.9355 19.2579 38.4763 19.1629 38.017C19.1154 37.7874 19.0758 37.5498 19.0362 37.3122C19.0204 37.2172 19.0045 37.1222 18.9966 37.0272C19.0441 37.3835 18.9808 36.8767 18.9728 36.8055C18.8699 35.8156 18.8541 34.8179 18.9174 33.8281C18.9333 33.5905 18.957 33.353 18.9808 33.1154C18.9887 33.0204 19.0045 32.9254 19.0124 32.8303C19.0679 32.379 18.9728 33.0283 19.0204 32.7591C19.1075 32.276 19.1866 31.7851 19.2975 31.31C19.4084 30.8586 19.5271 30.4073 19.6697 29.9717C19.7409 29.75 19.8122 29.5362 19.8993 29.3145C19.931 29.2274 19.9627 29.1403 19.9943 29.0532C20.0102 29.0057 20.2081 28.5306 20.1131 28.7444C20.0181 28.9819 20.1685 28.6177 20.1765 28.6018C20.2081 28.5306 20.2398 28.4593 20.2794 28.3801C20.3665 28.198 20.4536 28.0159 20.5407 27.8417C20.7387 27.4457 20.9525 27.0656 21.1742 26.6855C21.3722 26.3609 21.5701 26.0441 21.7918 25.7353C21.9027 25.569 22.0215 25.4107 22.1403 25.2523C22.1957 25.1731 22.3303 24.9435 22.1482 25.2444C22.2036 25.1493 22.2986 25.0543 22.3699 24.9672C22.8846 24.3337 23.4389 23.7398 24.0328 23.1855C24.3099 22.9322 24.5871 22.6788 24.8801 22.4412C24.9751 22.362 25.0622 22.2908 25.1572 22.2195C25.2206 22.172 25.371 22.0215 25.1176 22.2512C25.2918 22.0928 25.5057 21.9661 25.6957 21.8315C26.3529 21.3801 27.0339 20.9684 27.7466 20.6041C28.1029 20.422 28.4593 20.2398 28.8314 20.0894C28.4989 20.2161 28.7285 20.129 28.7998 20.1052C28.9265 20.0577 29.0532 20.0023 29.1878 19.9548C29.4253 19.8677 29.6629 19.7806 29.9084 19.7014C30.819 19.4005 31.7534 19.1946 32.6957 19.0362C33.0045 18.9887 32.759 19.0283 32.6957 19.0362C32.8382 19.0204 32.9808 19.0046 33.1233 18.9887C33.3371 18.965 33.5509 18.9491 33.7647 18.9333C34.2715 18.9016 34.7783 18.8858 35.293 18.8937C35.776 18.9016 36.267 18.9254 36.75 18.9729C36.845 18.9808 36.94 18.9966 37.0351 19.0046C37.5102 19.0521 36.7183 18.9491 37.1855 19.0204C37.4468 19.06 37.7002 19.0996 37.9615 19.155C38.9038 19.3371 39.8382 19.5984 40.733 19.931C40.9468 20.0102 41.1685 20.0894 41.3823 20.1844C41.3348 20.1607 41.0735 20.0498 41.3348 20.1686C41.4457 20.2161 41.5566 20.2636 41.6674 20.319C42.0317 20.4853 42.388 20.6674 42.7443 20.8654C43.4649 21.2613 44.1538 21.7048 44.8032 22.1957C44.8744 22.2512 45.112 22.4016 44.8111 22.2036C44.8903 22.2591 44.9695 22.3303 45.0407 22.3937C45.1833 22.5046 45.3179 22.6233 45.4525 22.7421C45.7851 23.0272 46.1018 23.3281 46.4106 23.6369C46.6878 23.922 46.9649 24.207 47.2262 24.5079C47.345 24.6426 47.4559 24.7772 47.5747 24.9197C47.638 24.9989 47.7014 25.0781 47.7647 25.1493C48.0181 25.4661 47.5667 24.8801 47.8122 25.2048C48.2952 25.8699 48.7466 26.5509 49.1425 27.2636C49.3247 27.5962 49.4989 27.9367 49.6652 28.2851C49.7443 28.4593 49.8631 28.6493 49.9106 28.8394C49.8077 28.4514 49.9185 28.8631 49.9502 28.9423C49.9977 29.069 50.0532 29.2036 50.1007 29.3303C50.4174 30.2014 50.6708 31.1041 50.8529 32.0147C50.9004 32.2444 50.9321 32.4819 50.9717 32.7116C51.0509 33.1629 50.948 32.5057 50.9876 32.7828C51.0034 32.9016 51.0192 33.0204 51.0271 33.1392C51.0826 33.638 51.1142 34.1448 51.1222 34.6516C51.1301 35.1188 51.1222 35.5781 51.0984 36.0374C51.0826 36.2749 51.0667 36.5204 51.043 36.7579C51.0271 36.9005 51.0113 37.043 50.9955 37.1855C51.0271 36.9005 50.9876 37.2331 50.9717 37.336C50.8292 38.2704 50.6075 39.1889 50.3145 40.0837C50.1719 40.5193 50.0215 40.9706 49.8314 41.3903C50.0057 41.0023 49.7364 41.5962 49.6968 41.6754C49.5939 41.8892 49.4909 42.1109 49.3801 42.3247C49.0158 43.0294 48.6041 43.7184 48.1448 44.3677C48.0339 44.534 47.9152 44.6923 47.7964 44.8507C47.6222 45.0803 47.7964 44.8507 47.828 44.8111C47.7647 44.9061 47.6776 45.0012 47.6063 45.0883C47.3529 45.3971 47.0916 45.6901 46.8224 45.9831C46.2523 46.5928 45.6425 47.155 44.9932 47.6776C44.9378 47.7172 44.8665 47.8043 44.8032 47.8281C45.0882 47.7093 44.8982 47.7568 44.7952 47.836C44.6527 47.9469 44.5102 48.0498 44.3597 48.1527C44.0034 48.4061 43.6312 48.6437 43.259 48.8654C42.9185 49.0713 42.5701 49.2613 42.2138 49.4435C42.0317 49.5306 41.8575 49.6256 41.6753 49.7048C41.6041 49.7365 41.5328 49.7681 41.4536 49.8077C41.3823 49.8156 41.0023 49.974 41.3823 49.8156C40.9864 49.9819 40.6618 50.1561 40.4321 50.5441C40.2342 50.8846 40.1471 51.3835 40.2738 51.7636C40.5113 52.4921 41.4061 53.2127 42.2217 52.8722C45.6821 51.4152 48.6199 49.1109 50.7975 46.0464C53.1414 42.7523 54.3609 38.6663 54.2738 34.6358C54.1946 30.6765 52.888 26.7251 50.5045 23.5498C48.2161 20.517 45.1912 18.2285 41.6357 16.8903C34.0735 14.0475 25.1018 16.5181 20.0498 22.8134C17.5158 25.9729 16.0113 29.7738 15.7421 33.8281C15.4808 37.8745 16.5656 42.0317 18.7749 45.4288C20.7308 48.4378 23.5181 50.9322 26.7885 52.4367C30.7398 54.25 35.1663 54.741 39.4106 53.7591C40.3688 53.5374 41.3032 53.2365 42.2059 52.8564C42.9661 52.5396 43.5995 51.7874 43.3145 50.9084C43.0928 50.1878 42.198 49.4831 41.3823 49.8156Z" fill="#33AD43"/>
<path d="M69.224 27.8338C67.8778 21.3168 64.5995 15.2353 59.9355 10.4921C55.2873 5.75683 49.2613 2.36769 42.776 0.910676C34.9525 -0.847242 26.6855 0.12674 19.4876 3.65841C13.5724 6.57244 8.52828 11.2365 5.09955 16.8666C1.12444 23.3914 -0.617644 31.2387 0.253397 38.8247C1.05317 45.8247 3.89593 52.3971 8.47285 57.7659C12.7647 62.8021 18.5453 66.5555 24.8722 68.4718C32.4186 70.7602 40.7964 70.4118 48.0973 67.4107C54.3292 64.853 59.69 60.6086 63.5939 55.1132C67.862 49.1109 70.095 41.7387 69.9604 34.3824C69.9208 32.189 69.6595 29.9876 69.224 27.8338C69.0577 27.0181 68.052 26.4797 67.276 26.7252C66.4129 27.0023 65.9932 27.8021 66.1674 28.6731C66.2704 29.1799 66.3654 29.6946 66.4446 30.2093C66.4604 30.336 66.4842 30.4548 66.5 30.5815C66.5713 31.0566 66.4762 30.3914 66.5158 30.6765C66.5554 30.9774 66.5871 31.2704 66.6188 31.5713C66.7296 32.6562 66.7851 33.7489 66.793 34.8417C66.8009 35.9186 66.7534 36.9955 66.6505 38.0645C66.6267 38.3179 66.6029 38.5713 66.5713 38.8168C66.5633 38.9197 66.5475 39.0148 66.5317 39.1177C66.4762 39.6166 66.5792 38.8009 66.5079 39.2998C66.4287 39.8462 66.3416 40.3926 66.2387 40.931C65.9299 42.5227 65.5102 44.0905 64.9717 45.6267C64.845 45.9831 64.7183 46.3315 64.5837 46.6799C64.5124 46.8541 64.4491 47.0283 64.3778 47.2025C64.3462 47.2817 64.1799 47.6222 64.362 47.2342C64.3145 47.3371 64.2749 47.4401 64.2274 47.543C63.9186 48.2557 63.5781 48.9604 63.2138 49.6494C62.4853 51.0351 61.6618 52.3733 60.7511 53.6482C60.6324 53.8145 60.5136 53.9729 60.3948 54.1392C60.3235 54.2342 59.991 54.7014 60.2443 54.3451C60.0147 54.6697 59.7376 54.9785 59.4842 55.2874C58.9932 55.8813 58.4785 56.4514 57.94 57.0057C56.871 58.1143 55.7308 59.1516 54.5192 60.1098C54.5034 60.1256 54.2104 60.3473 54.4163 60.189C54.6222 60.0306 54.3371 60.2523 54.3134 60.2681C54.1629 60.379 54.0204 60.4899 53.8699 60.6007C53.5452 60.8383 53.2127 61.0758 52.8801 61.2976C52.2387 61.7331 51.5815 62.1448 50.9163 62.5328C50.2432 62.9209 49.5543 63.2851 48.8575 63.6335C48.5091 63.8077 48.1527 63.974 47.7964 64.1324C47.6063 64.2195 47.4242 64.3066 47.2342 64.3779C47.2738 64.362 47.5667 64.2433 47.3054 64.3462C47.1867 64.3937 47.06 64.4412 46.9412 64.4967C45.4604 65.0905 43.9321 65.5736 42.3801 65.9457C41.4615 66.1675 40.5351 66.3496 39.6086 66.4842C39.5057 66.5 39.4106 66.5159 39.3077 66.5317C38.8167 66.603 39.6244 66.5 39.1256 66.5555C38.8722 66.5872 38.6267 66.6109 38.3733 66.6426C37.819 66.698 37.2568 66.7376 36.6946 66.7693C35.6176 66.8247 34.5407 66.8247 33.4638 66.7772C32.957 66.7534 32.4581 66.7218 31.9514 66.6742C31.698 66.6505 31.4525 66.6267 31.1991 66.5951C31.0486 66.5792 30.8982 66.5634 30.7557 66.5396C30.2647 66.4763 31.0724 66.5871 30.5815 66.5159C28.8394 66.2546 27.121 65.8745 25.4423 65.3439C24.6742 65.1064 23.914 64.8371 23.1697 64.5442C22.9955 64.4729 22.8213 64.4016 22.655 64.3383C22.5758 64.3066 22.3778 64.2433 22.7262 64.3699C22.6233 64.3304 22.5204 64.2828 22.4174 64.2353C22.0453 64.069 21.6731 63.9028 21.3088 63.7206C19.9152 63.0476 18.5611 62.2715 17.2783 61.4163C16.9695 61.2104 16.6686 61.0046 16.3756 60.7908C16.2251 60.6799 16.0747 60.577 15.9321 60.4661C15.845 60.4028 15.7579 60.3315 15.6708 60.2681C15.5916 60.2127 15.3066 60.0148 15.6391 60.2444C15.0136 59.8168 14.4355 59.2704 13.8654 58.7636C12.7014 57.7263 11.6165 56.6019 10.6109 55.4141C10.3733 55.1369 10.1437 54.8519 9.91403 54.5589C9.8586 54.4876 9.79525 54.4163 9.74774 54.3451C10.0011 54.6935 9.77941 54.3767 9.72398 54.3134C9.60521 54.155 9.47851 53.9887 9.35973 53.8304C8.89254 53.189 8.4491 52.5317 8.03733 51.8666C7.2138 50.5521 6.4853 49.1743 5.85181 47.7568C5.77263 47.5905 5.70136 47.4163 5.63009 47.2421C5.79638 47.6697 5.56675 47.0838 5.53507 47.0046C5.38462 46.6245 5.23417 46.2365 5.09955 45.8564C4.83032 45.112 4.59276 44.3598 4.37896 43.6075C4.16516 42.8315 3.97512 42.0476 3.81675 41.2557C3.7138 40.7647 3.6267 40.2738 3.55543 39.7828C3.53168 39.6324 3.50792 39.4819 3.49208 39.3394C3.42082 38.8643 3.50792 39.5295 3.47625 39.2365C3.44457 38.9593 3.4129 38.6822 3.38122 38.405C3.15951 36.2195 3.15951 34.0181 3.36539 31.8326C3.38914 31.5792 3.4129 31.3338 3.44457 31.0804C3.45249 30.9774 3.46833 30.8824 3.48417 30.7795C3.54751 30.2885 3.43665 31.0962 3.50792 30.6052C3.58711 30.0668 3.67421 29.5283 3.78507 28.9899C3.94344 28.1822 4.13349 27.3903 4.34729 26.5985C4.55317 25.8383 4.79073 25.086 5.05204 24.3417C5.17874 23.9853 5.30543 23.6369 5.44005 23.2885C5.51132 23.1143 5.57466 22.9401 5.64593 22.7659C5.67761 22.6867 5.79638 22.3304 5.66177 22.7342C5.70136 22.6313 5.74887 22.5283 5.79638 22.4254C6.42195 21 7.14254 19.6222 7.96607 18.2998C8.38575 17.6267 8.82127 16.9695 9.28846 16.3281C9.39932 16.1776 9.50226 16.0272 9.61312 15.8847C9.66855 15.8134 9.72399 15.7342 9.77942 15.6629C9.83484 15.5917 10.0328 15.2828 9.80317 15.6313C10.017 15.2987 10.31 14.9899 10.5634 14.689C11.5532 13.5091 12.6301 12.4005 13.7704 11.3632C14.3405 10.8485 14.9344 10.3575 15.5362 9.87448C15.8213 9.64484 15.3303 10.0249 15.5204 9.8824C15.5916 9.82697 15.6629 9.77154 15.7421 9.71611C15.8925 9.60525 16.0351 9.49439 16.1855 9.39145C16.5102 9.15389 16.8428 8.92425 17.1833 8.69461C18.4661 7.82357 19.8201 7.04755 21.2138 6.36656C21.5622 6.19235 21.9186 6.03398 22.2749 5.87561C22.362 5.83602 22.4412 5.79642 22.5283 5.76475C22.552 5.75683 22.8925 5.60638 22.6471 5.70932C22.4016 5.81226 22.7421 5.66973 22.7658 5.66181C22.8846 5.6143 23.0113 5.56679 23.1301 5.51136C23.8586 5.21837 24.6029 4.95706 25.3552 4.7195C27.026 4.18896 28.7285 3.79303 30.4627 3.53964C30.5577 3.5238 30.6606 3.50796 30.7557 3.50004C30.4072 3.54755 30.8982 3.48421 30.9299 3.47629C31.1753 3.44461 31.4287 3.42086 31.6742 3.3971C32.2285 3.34167 32.7828 3.30208 33.3371 3.27041C34.414 3.21498 35.491 3.21498 36.5679 3.26249C37.0747 3.28624 37.5894 3.31792 38.0962 3.36543C38.3496 3.38918 38.6029 3.41294 38.8563 3.44461C39.0068 3.46045 39.1572 3.48421 39.3077 3.50004C38.9751 3.46045 39.4661 3.5238 39.4819 3.5238C40.4242 3.65841 41.3665 3.84054 42.293 4.06226C43.845 4.42651 45.3733 4.90955 46.8541 5.49552C47.0441 5.56679 47.2421 5.63013 47.4242 5.72516C47.3846 5.70932 47.0916 5.58262 47.3529 5.69348C47.4559 5.74099 47.5588 5.78059 47.6618 5.8281C48.0339 5.99439 48.4061 6.16068 48.7704 6.3428C49.4672 6.6833 50.1561 7.04755 50.8292 7.42764C51.5023 7.81565 52.1595 8.2195 52.8009 8.65502C53.1097 8.8609 53.4106 9.06679 53.7036 9.28059C53.8541 9.39145 54.0045 9.49439 54.1471 9.60525C54.2342 9.6686 54.3213 9.73986 54.4084 9.80321C54.6618 9.99326 54.1629 9.60525 54.44 9.82697C55.6516 10.7851 56.7998 11.8066 57.8688 12.9152C58.4072 13.4695 58.922 14.0396 59.4208 14.6256C59.6663 14.9186 59.9118 15.2195 60.1493 15.5204C60.2127 15.5996 60.3869 15.7976 60.1414 15.5046C60.1968 15.5758 60.2523 15.6471 60.3077 15.7263C60.4423 15.9005 60.569 16.0826 60.7036 16.2568C61.6222 17.5238 62.4536 18.8541 63.1821 20.2399C63.5464 20.9288 63.8869 21.6256 64.2036 22.3383C64.2511 22.4412 64.5045 22.9876 64.3066 22.5758C64.3857 22.7421 64.4491 22.9242 64.5204 23.0905C64.6708 23.4706 64.8213 23.8586 64.9559 24.2466C65.4785 25.7037 65.8903 27.1924 66.1991 28.7048C66.3654 29.5204 67.371 30.0589 68.1471 29.8134C68.9785 29.5046 69.4061 28.7048 69.224 27.8338Z" fill="#33AD43"/>
<path d="M38.9744 2.22956C38.9744 4.05552 38.9744 5.87363 38.9744 7.69959C38.9744 10.607 38.9744 13.5066 38.9744 16.414C38.9744 17.0801 38.9744 17.7463 38.9744 18.4046C39.6114 17.903 40.2559 17.3936 40.8929 16.8921C36.5479 15.0426 31.4749 15.0348 27.1223 16.8686C27.7592 17.3701 28.4038 17.8795 29.0408 18.381C29.0408 16.5629 29.0408 14.737 29.0408 12.9188C29.0408 10.0193 29.0408 7.11967 29.0408 4.21225C29.0408 3.54613 29.0408 2.88784 29.0408 2.22172C28.6692 2.72327 28.2976 3.23266 27.9261 3.73421C28.4341 3.6245 28.9498 3.53045 29.4654 3.45209C29.6095 3.42858 29.746 3.40507 29.89 3.38939C29.6701 3.42074 29.8749 3.38939 29.981 3.37372C30.2464 3.34237 30.5043 3.31103 30.7697 3.27968C31.8313 3.16997 32.9005 3.11511 33.9697 3.11511C35.0464 3.11511 36.1308 3.16997 37.2 3.27968C37.4427 3.30319 37.6853 3.33454 37.9204 3.36588C38.3981 3.42074 37.6171 3.31886 38.0948 3.38939C38.2161 3.40507 38.3299 3.42858 38.4512 3.44425C38.9972 3.53045 39.5355 3.63233 40.0815 3.74988C40.855 3.91445 41.7573 3.51478 41.9469 2.65274C42.1213 1.86907 41.7194 0.897317 40.8853 0.724909C36.3355 -0.239008 31.6645 -0.239008 27.1147 0.709235C26.4701 0.842459 26 1.57127 26 2.22172C26 4.03984 26 5.8658 26 7.68392C26 10.5835 26 13.4831 26 16.3905C26 17.0566 26 17.7149 26 18.381C26 19.2979 26.9858 20.2854 27.9185 19.8935C28.9043 19.4782 29.9204 19.149 30.9668 18.9296C31.2322 18.8748 31.4976 18.8277 31.763 18.7807C32.2104 18.7023 31.4521 18.8121 31.8995 18.7572C32.036 18.7415 32.1725 18.7259 32.309 18.7102C32.8626 18.6553 33.4161 18.624 33.9697 18.624C34.5308 18.624 35.0919 18.6553 35.6455 18.7102C35.782 18.7259 35.9185 18.7415 36.055 18.7572C35.782 18.7259 36.1005 18.765 36.1991 18.7807C36.472 18.8277 36.7374 18.8748 37.0028 18.9296C38.0569 19.1569 39.0882 19.486 40.0815 19.9092C41.0142 20.3089 42 19.3136 42 18.3967C42 16.5708 42 14.7526 42 12.9267C42 10.0193 42 7.11967 42 4.21225C42 3.54613 42 2.88001 42 2.22172C42 1.39887 41.3024 0.615195 40.4834 0.654378C39.672 0.701399 38.9744 1.35185 38.9744 2.22956Z" fill="#33AD43"/>
<path d="M38.9558 51.5966C38.9558 53.4229 38.9558 55.2414 38.9558 57.0678C38.9558 59.9758 38.9558 62.8759 38.9558 65.7839C38.9558 66.4502 38.9558 67.1165 38.9558 67.7749C39.327 67.2732 39.6983 66.7637 40.0695 66.2621C39.5543 66.3718 39.0391 66.4659 38.5164 66.5521C38.3724 66.5756 38.2285 66.5991 38.0845 66.6148C38.039 66.6226 37.986 66.6305 37.9405 66.6383C38.0769 66.6226 38.0921 66.6148 37.986 66.6305C37.7208 66.6618 37.4556 66.6932 37.1905 66.7245C36.1146 66.8343 35.0387 66.8891 33.9629 66.8891C32.8946 66.8891 31.8263 66.8343 30.7656 66.7245C30.5232 66.701 30.2883 66.6697 30.0534 66.6462C30.0307 66.6462 29.5685 66.5756 29.8867 66.6226C29.7655 66.607 29.6519 66.5913 29.5306 66.5678C28.9927 66.4816 28.4548 66.3797 27.9169 66.2699C28.2881 66.7716 28.6593 67.2811 29.0306 67.7827C29.0306 65.9642 29.0306 64.1379 29.0306 62.3194C29.0306 59.4192 29.0306 56.5191 29.0306 53.6111C29.0306 52.9448 29.0306 52.2864 29.0306 51.6201C28.3942 52.1218 27.7502 52.6313 27.1137 53.1329C31.4626 54.9671 36.5313 54.9593 40.8726 53.1094C41.6 52.7959 42.2061 52.0512 41.9334 51.1812C41.7061 50.4522 40.8575 49.7546 40.0695 50.0838C39.077 50.5071 38.0466 50.8363 36.9935 51.0636C36.7283 51.1185 36.4556 51.1734 36.1904 51.2125C36.1525 51.2204 35.7055 51.2753 36.0464 51.2361C35.91 51.2517 35.7737 51.2674 35.6373 51.2831C35.0842 51.338 34.5235 51.3693 33.9629 51.3693C33.4098 51.3693 32.8567 51.338 32.3036 51.2831C32.1673 51.2674 32.0309 51.2517 31.8945 51.2361C31.5611 51.1969 32.1218 51.2831 31.7581 51.2125C31.493 51.1655 31.2278 51.1185 30.9626 51.0636C29.917 50.8441 28.9018 50.5149 27.9169 50.0995C26.9849 49.7076 26 50.6952 26 51.6123C26 53.4308 26 55.2571 26 57.0756C26 59.9758 26 62.8759 26 65.7839C26 66.4502 26 67.1086 26 67.7749C26 68.4255 26.4697 69.1544 27.1137 69.2877C31.6672 70.2439 36.3268 70.2361 40.8726 69.272C41.5166 69.1387 41.9864 68.4176 41.9864 67.7592C41.9864 65.9329 41.9864 64.1144 41.9864 62.2881C41.9864 59.3801 41.9864 56.4799 41.9864 53.5719C41.9864 52.9056 41.9864 52.2394 41.9864 51.5809C41.9864 50.7579 41.2894 49.9741 40.4711 50.0133C39.6528 50.0682 38.9558 50.7187 38.9558 51.5966Z" fill="#33AD43"/>
<path d="M18.3956 38.9544C16.5694 38.9544 14.751 38.9544 12.9247 38.9544C10.0247 38.9544 7.11685 38.9544 4.21681 38.9544C3.55059 38.9544 2.88437 38.9544 2.22598 38.9544C2.72761 39.3258 3.23707 39.6972 3.7387 40.0686C3.62897 39.5532 3.53492 39.0377 3.4487 38.5147C3.42518 38.3707 3.40167 38.2267 3.38599 38.0902C3.37816 38.0447 3.37032 37.9917 3.36248 37.9462C3.37816 38.0826 3.38599 38.0978 3.37032 37.9917C3.33897 37.7264 3.30762 37.4611 3.27626 37.1958C3.16653 36.1194 3.11167 35.043 3.11167 33.9667C3.11167 32.8979 3.16653 31.8291 3.27626 30.7603C3.29978 30.5177 3.33113 30.2827 3.35464 30.0478C3.35464 30.025 3.42518 29.5626 3.37816 29.881C3.39383 29.7597 3.40951 29.646 3.43302 29.5247C3.51924 28.9866 3.62113 28.4484 3.73086 27.9102C3.22924 28.2816 2.71977 28.653 2.21814 29.0245C4.03654 29.0245 5.86278 29.0245 7.68118 29.0245C10.5812 29.0245 13.4891 29.0245 16.3891 29.0245C17.0553 29.0245 17.7137 29.0245 18.3799 29.0245C17.8783 28.3877 17.3688 27.7434 16.8672 27.1067C15.0331 31.4577 15.041 36.5287 16.8907 40.8721C17.2043 41.5998 17.9489 42.2062 18.8189 41.9333C19.5478 41.7059 20.2454 40.857 19.9162 40.0686C19.4929 39.0756 19.1637 38.0447 18.9364 36.9987C18.8816 36.7334 18.8267 36.4605 18.7875 36.1952C18.7797 36.1573 18.7248 35.7101 18.764 36.0512C18.7483 35.9147 18.7326 35.7783 18.717 35.6419C18.6621 35.0885 18.6308 34.5276 18.6308 33.9667C18.6308 33.4133 18.6621 32.86 18.717 32.3066C18.7326 32.1702 18.7483 32.0337 18.764 31.8973C18.8032 31.5638 18.717 32.1247 18.7875 31.7609C18.8345 31.4956 18.8816 31.2303 18.9364 30.965C19.1559 29.9189 19.4851 28.9032 19.9005 27.9178C20.2924 26.9854 19.3048 26 18.3878 26C16.5694 26 14.7431 26 12.9247 26C10.0247 26 7.11685 26 4.21681 26C3.55059 26 2.89221 26 2.22598 26C1.57543 26 0.846508 26.47 0.713263 27.1143C-0.242964 31.6623 -0.235126 36.3316 0.721101 40.8797C0.854346 41.524 1.57543 41.994 2.23382 41.994C4.06006 41.994 5.87845 41.994 7.70469 41.994C10.6047 41.994 13.5126 41.994 16.4126 41.994C17.0788 41.994 17.7451 41.994 18.4035 41.994C19.2264 41.994 20.0102 41.2966 19.971 40.4779C19.924 39.6517 19.2735 38.9544 18.3956 38.9544Z" fill="#33AD43"/>
<path d="M66.8618 33.981C66.8618 35.0583 66.807 36.1356 66.6974 37.2129C66.674 37.4557 66.6426 37.6908 66.6113 37.9336C66.5566 38.4116 66.6583 37.6302 66.5879 38.1081C66.5644 38.2523 66.5487 38.3964 66.5253 38.533C66.4392 39.0564 66.3453 39.5723 66.2357 40.0882C66.7366 39.7165 67.2453 39.3447 67.7461 38.973C65.9227 38.973 64.107 38.973 62.2836 38.973C59.388 38.973 56.4845 38.973 53.5889 38.973C52.9237 38.973 52.2585 38.973 51.6011 38.973C52.102 39.6102 52.6106 40.2551 53.1115 40.8924C54.9584 36.5453 54.9663 31.4699 53.135 27.1152C52.6341 27.7525 52.1254 28.3973 51.6246 29.0346C53.4402 29.0346 55.2637 29.0346 57.0793 29.0346C59.9749 29.0346 62.8783 29.0346 65.774 29.0346C66.4392 29.0346 67.0966 29.0346 67.7618 29.0346C67.2609 28.6629 66.7522 28.2911 66.2514 27.9194C66.3609 28.4353 66.4548 28.9436 66.5409 29.4595C66.5644 29.6036 66.5879 29.7402 66.6035 29.8843C66.5722 29.6643 66.6035 29.8691 66.6192 29.9829C66.6505 30.2485 66.6818 30.5064 66.7131 30.7719C66.8148 31.8416 66.8618 32.9113 66.8618 33.981C66.8618 34.7776 67.5818 35.5363 68.427 35.4983C69.2722 35.4604 69.9922 34.8307 69.9922 33.981C69.9843 31.6747 69.7339 29.376 69.2644 27.1152C69.1313 26.4704 68.4113 26 67.7539 26C65.9383 26 64.1149 26 62.2992 26C59.4036 26 56.5002 26 53.6045 26C52.9393 26 52.282 26 51.6167 26C50.7011 26 49.715 26.9862 50.1063 27.9194C50.5211 28.9056 50.8498 29.9298 51.0689 30.9692C51.1237 31.2347 51.1707 31.5002 51.2176 31.7658C51.2959 32.2134 51.1863 31.4547 51.2411 31.9023C51.2567 32.0389 51.2724 32.1754 51.2881 32.312C51.3428 32.8658 51.3741 33.4196 51.3741 33.9734C51.3741 34.5349 51.3428 35.0887 51.2881 35.6501C51.2724 35.7866 51.2567 35.9232 51.2411 36.0597C51.2724 35.7866 51.2333 36.1053 51.2176 36.2039C51.1707 36.477 51.1237 36.7425 51.0689 37.0081C50.842 38.0626 50.5133 39.0868 50.0907 40.0806C49.6915 41.0138 50.6854 42 51.6011 42C53.4245 42 55.2402 42 57.0636 42C59.9593 42 62.8627 42 65.7583 42C66.4235 42 67.0887 42 67.7461 42C68.3957 42 69.1157 41.5296 69.2565 40.8848C69.7339 38.6088 69.9922 36.2873 70 33.9659C70 33.1693 69.28 32.4106 68.4348 32.4486C67.5818 32.5017 66.8696 33.1313 66.8618 33.981Z" fill="#33AD43"/>
</svg>
