<svg width="90" height="70" viewBox="0 0 90 70" fill="none" xmlns="http://www.w3.org/2000/svg">
<path fill-rule="evenodd" clip-rule="evenodd" d="M1.34615 0.807678H88.3974C89.1154 0.807678 89.7436 1.43588 89.7436 2.15383V67.7564C89.7436 68.4743 89.1154 69.1025 88.3974 69.1025H1.34615C0.628205 69.1025 0 68.4743 0 67.7564V2.15383C0 1.43588 0.628205 0.807678 1.34615 0.807678ZM26.7436 21.4487H87.0513V15.4359H22.7051L26.7436 21.4487ZM87.0513 3.49999V12.7436H2.69231V3.49999H87.0513ZM2.69231 15.4359V66.5L86.9615 66.4102V24.141H25.9359C25.4872 24.141 25.1282 23.8718 24.859 23.5128L19.4744 15.4359H2.69231Z" fill="#33AD43"/>
<path d="M7.62821 10.3205C8.66905 10.3205 9.51282 9.47673 9.51282 8.43588C9.51282 7.39504 8.66905 6.55127 7.62821 6.55127C6.58736 6.55127 5.74359 7.39504 5.74359 8.43588C5.74359 9.47673 6.58736 10.3205 7.62821 10.3205Z" fill="#33AD43"/>
<path d="M13.1026 10.3205C14.1434 10.3205 14.9872 9.47673 14.9872 8.43588C14.9872 7.39504 14.1434 6.55127 13.1026 6.55127C12.0617 6.55127 11.218 7.39504 11.218 8.43588C11.218 9.47673 12.0617 10.3205 13.1026 10.3205Z" fill="#33AD43"/>
<path d="M18.4872 10.3205C19.528 10.3205 20.3718 9.47673 20.3718 8.43588C20.3718 7.39504 19.528 6.55127 18.4872 6.55127C17.4463 6.55127 16.6026 7.39504 16.6026 8.43588C16.6026 9.47673 17.4463 10.3205 18.4872 10.3205Z" fill="#33AD43"/>
<path fill-rule="evenodd" clip-rule="evenodd" d="M10.141 34.0128H44.5128C45.2308 34.0128 45.859 34.5513 45.859 35.359V56.2692C45.859 56.9872 45.2308 57.6154 44.5128 57.6154H10.141C9.42308 57.6154 8.79488 56.9872 8.79488 56.2692V35.359C8.79488 34.641 9.42308 34.0128 10.141 34.0128ZM11.4872 54.9231H43.1667V36.7051H11.4872V54.9231Z" fill="#33AD43"/>
<path d="M79.6026 34.0128H50.4359C49.718 34.0128 49.0898 34.641 49.0898 35.359C49.0898 36.0769 49.718 36.7051 50.4359 36.7051H79.6026C80.3205 36.7051 80.9487 36.0769 80.9487 35.359C80.9487 34.641 80.4103 34.0128 79.6026 34.0128Z" fill="#33AD43"/>
<path d="M79.6026 41.0128H50.4359C49.718 41.0128 49.0898 41.641 49.0898 42.359C49.0898 43.0769 49.718 43.7051 50.4359 43.7051H79.6026C80.3205 43.7051 80.9487 43.0769 80.9487 42.359C80.9487 41.641 80.4103 41.0128 79.6026 41.0128Z" fill="#33AD43"/>
<path d="M79.6026 47.9231H50.4359C49.718 47.9231 49.0898 48.5513 49.0898 49.2692C49.0898 49.9872 49.718 50.6154 50.4359 50.6154H79.6026C80.3205 50.6154 80.9487 49.9872 80.9487 49.2692C80.9487 48.5513 80.4103 47.9231 79.6026 47.9231Z" fill="#33AD43"/>
<path d="M79.6026 54.9231H50.4359C49.718 54.9231 49.0898 55.5513 49.0898 56.2692C49.0898 56.9872 49.718 57.6154 50.4359 57.6154H79.6026C80.3205 57.6154 80.9487 56.9872 80.9487 56.2692C80.9487 55.5513 80.4103 54.9231 79.6026 54.9231Z" fill="#33AD43"/>
</svg>
