<svg width="70" height="70" viewBox="0 0 70 70" fill="none" xmlns="http://www.w3.org/2000/svg">
<path fill-rule="evenodd" clip-rule="evenodd" d="M63.5586 28H68.6C69.3742 28 70 28.6272 70 29.4V40.6C70 41.3742 69.3742 42 68.6 42H63.5572C62.8474 44.9008 61.7008 47.663 60.1342 50.2376L63.707 53.8104C64.2544 54.3578 64.2544 55.2426 63.707 55.79L55.7886 63.7084C55.2412 64.2558 54.3564 64.2558 53.809 63.7084L50.2362 60.1356C47.6616 61.7022 44.898 62.8488 41.9986 63.5586V68.6C41.9986 69.3742 41.3728 70 40.5986 70H29.3986C28.6258 70 27.9986 69.3742 27.9986 68.6V63.5586C25.0978 62.8488 22.3356 61.7022 19.7624 60.1356L16.1896 63.7084C15.6422 64.2558 14.7574 64.2558 14.21 63.7084L6.2916 55.79C5.7442 55.2426 5.7442 54.3578 6.2916 53.8104L9.8644 50.2376C8.2978 47.663 7.1498 44.8994 6.4414 42H1.4C0.6272 42 0 41.3742 0 40.6V29.4C0 28.6272 0.6272 28 1.4 28H6.4428C7.1512 25.1006 8.2992 22.3384 9.8658 19.7638L6.293 16.191C5.7456 15.6436 5.7456 14.7588 6.293 14.2114L14.2114 6.2916C14.7588 5.7442 15.6436 5.7442 16.191 6.2916L19.7638 9.8644C22.337 8.2978 25.0992 7.1498 28 6.4414V1.4C28 0.6272 28.6272 0 29.4 0H40.6C41.3742 0 42 0.6272 42 1.4V6.4414C44.9008 7.1498 47.6644 8.2978 50.2376 9.8644L53.8104 6.2916C54.0722 6.0284 54.4278 5.8814 54.8002 5.8814C55.1726 5.8814 55.5268 6.0284 55.79 6.2916L63.7084 14.2114C64.2558 14.7588 64.2558 15.6436 63.7084 16.191L60.1356 19.7638C61.7022 22.3384 62.8488 25.0992 63.5586 28ZM62.4386 39.2H67.2V30.8H62.4386C61.7722 30.8 61.1982 30.331 61.0652 29.6786C60.3904 26.3494 59.0842 23.2064 57.1858 20.3392C56.8176 19.7848 56.8932 19.047 57.3636 18.5766L60.739 15.2012L54.8002 9.261L51.4248 12.6364C50.953 13.1068 50.2152 13.1796 49.6622 12.8142C46.795 10.9158 43.652 9.6096 40.3214 8.9334C39.669 8.8004 39.2 8.2278 39.2 7.5614V2.8H30.8V7.5614C30.8 8.2278 30.331 8.8018 29.6786 8.9334C26.348 9.6096 23.2064 10.9158 20.3392 12.8142C19.7834 13.181 19.047 13.1068 18.5766 12.6364L15.1998 9.261L9.261 15.2012L12.6364 18.5766C13.1068 19.047 13.181 19.7848 12.8142 20.3392C10.9158 23.2064 9.6096 26.3494 8.9334 29.6786C8.8004 30.331 8.2278 30.8 7.5614 30.8H2.8V39.2H7.5614C8.2278 39.2 8.8018 39.669 8.9334 40.3228C9.6096 43.652 10.9158 46.7936 12.8142 49.6636C13.181 50.2194 13.1068 50.9558 12.6364 51.4262L9.261 54.8016L15.1998 60.7404L18.5766 57.365C19.047 56.8946 19.7834 56.8204 20.3392 57.1872C23.2064 59.0856 26.348 60.3918 29.6786 61.0666C30.331 61.1982 30.8 61.7722 30.8 62.4386V67.2H39.2V62.4386C39.2 61.7722 39.669 61.1982 40.3228 61.0652C43.652 60.3904 46.7936 59.0842 49.6636 57.1858C50.2166 56.8204 50.9544 56.8904 51.4262 57.3636L54.8016 60.739L60.7404 54.8002L57.365 51.4248C56.8946 50.9544 56.819 50.2166 57.1872 49.6622C59.0856 46.7922 60.3918 43.6506 61.0666 40.3214C61.1982 39.669 61.7722 39.2 62.4386 39.2Z" fill="#33AD43"/>
<path fill-rule="evenodd" clip-rule="evenodd" d="M14 35C14 23.4206 23.4206 14 35 14C46.5794 14 56 23.4206 56 35C56 46.5794 46.5794 56 35 56C23.4206 56 14 46.5794 14 35ZM16.8 35C16.8 45.0352 24.9648 53.2 35 53.2C45.0352 53.2 53.2 45.0352 53.2 35C53.2 24.9648 45.0352 16.8 35 16.8C24.9648 16.8 16.8 24.9648 16.8 35Z" fill="#33AD43"/>
<path d="M42.6258 25.347C41.9328 25.0012 41.0942 25.2812 40.747 25.9728L33.2164 41.0354L28.9898 36.8088C28.4424 36.2614 27.5576 36.2614 27.0102 36.8088C26.4628 37.3562 26.4628 38.241 27.0102 38.7884L32.6102 44.3884C32.8748 44.6544 33.2318 44.8 33.6 44.8C33.6742 44.8 33.7498 44.7944 33.824 44.7818C34.2678 44.709 34.65 44.4276 34.8516 44.0258L43.2516 27.2258C43.5988 26.5342 43.3174 25.6942 42.6258 25.347Z" fill="#33AD43"/>
</svg>
