<svg width="72" height="70" viewBox="0 0 72 70" fill="none" xmlns="http://www.w3.org/2000/svg">
<path fill-rule="evenodd" clip-rule="evenodd" d="M5.93223 51.017H32.0339C32.6888 51.017 33.2204 50.4866 33.2204 49.8305V28.4746C33.2204 27.8185 32.6888 27.2881 32.0339 27.2881H5.93223C5.27731 27.2881 4.74579 27.8185 4.74579 28.4746V49.8305C4.74579 50.4866 5.27731 51.017 5.93223 51.017ZM30.8475 48.6441H7.11867V29.661H30.8475V48.6441Z" fill="#33AD43"/>
<path fill-rule="evenodd" clip-rule="evenodd" d="M1.18644 46.2712H5.9322C6.58712 46.2712 7.11864 45.7409 7.11864 45.0848V33.2203C7.11864 32.5642 6.58712 32.0339 5.9322 32.0339H1.18644C0.531525 32.0339 0 32.5642 0 33.2203V45.0848C0 45.7409 0.531525 46.2712 1.18644 46.2712ZM4.74576 43.8983H2.37288V34.4068H4.74576V43.8983Z" fill="#33AD43"/>
<path fill-rule="evenodd" clip-rule="evenodd" d="M50.3882 62.701C50.5804 62.8208 50.7987 62.8813 51.017 62.8813C51.2151 62.8813 51.412 62.8315 51.5924 62.733C51.9697 62.523 52.2034 62.1256 52.2034 61.6949V16.6102C52.2034 16.1795 51.9697 15.782 51.5924 15.572C51.2139 15.3632 50.7536 15.3739 50.3882 15.6041L31.4051 27.4685C31.0587 27.6856 30.8475 28.0652 30.8475 28.4746V49.8305C30.8475 50.2398 31.0587 50.6195 31.4051 50.8366L50.3882 62.701ZM49.8305 59.5534L33.2204 49.172V29.133L49.8305 18.7517V59.5534Z" fill="#33AD43"/>
<path d="M46.27 54.5763C46.0552 54.5763 45.8381 54.5181 45.6424 54.3959L36.1508 48.4637C35.8044 48.2466 35.5932 47.867 35.5932 47.4576V37.9661C35.5932 37.31 36.1247 36.7797 36.7796 36.7797C37.4346 36.7797 37.9661 37.31 37.9661 37.9661V46.7992L46.9 52.3837C47.4564 52.7302 47.6249 53.4622 47.2773 54.0186C47.0518 54.3793 46.6663 54.5763 46.27 54.5763Z" fill="#33AD43"/>
<path fill-rule="evenodd" clip-rule="evenodd" d="M51.0169 65.2542H55.7627C56.4176 65.2542 56.9491 64.7239 56.9491 64.0678V14.2373C56.9491 13.5812 56.4176 13.0508 55.7627 13.0508H51.0169C50.362 13.0508 49.8305 13.5812 49.8305 14.2373V64.0678C49.8305 64.7239 50.362 65.2542 51.0169 65.2542ZM54.5763 62.8814H52.2034V15.4237H54.5763V62.8814Z" fill="#33AD43"/>
<path fill-rule="evenodd" clip-rule="evenodd" d="M17.7966 70H23.7288C24.3837 70 24.9152 69.4697 24.9152 68.8136C24.9152 66.3019 24.322 63.7866 23.1985 61.5395C22.769 60.6817 22.5424 59.7219 22.5424 58.762V49.8305C22.5424 49.1744 22.0108 48.6441 21.3559 48.6441H13.0508C12.6854 48.6441 12.3402 48.8125 12.1159 49.1009C11.8917 49.388 11.811 49.7629 11.9 50.1176L16.6458 69.1007C16.7774 69.6298 17.252 70 17.7966 70ZM22.4913 67.6271H18.7232L14.5707 51.017H20.1695V58.762C20.1695 60.0885 20.4827 61.4161 21.0759 62.6014C21.859 64.1663 22.3407 65.8831 22.4913 67.6271Z" fill="#33AD43"/>
<path d="M21.3559 58.1356C20.701 58.1356 20.1695 57.6053 20.1695 56.9492C20.1695 56.2931 20.701 55.7627 21.3559 55.7627C24.627 55.7627 27.2881 53.1015 27.2881 49.8305C27.2881 49.1744 27.8197 48.6441 28.4746 48.6441C29.1295 48.6441 29.661 49.1744 29.661 49.8305C29.661 54.409 25.9356 58.1356 21.3559 58.1356Z" fill="#33AD43"/>
<path d="M70 40.339H67.6271C66.9722 40.339 66.4407 39.8086 66.4407 39.1525C66.4407 38.4964 66.9722 37.9661 67.6271 37.9661H70C70.6549 37.9661 71.1864 38.4964 71.1864 39.1525C71.1864 39.8086 70.6549 40.339 70 40.339Z" fill="#33AD43"/>
<path d="M67.6271 35.5932C67.3234 35.5932 67.0196 35.477 66.7883 35.2456C66.3244 34.7817 66.3244 34.0319 66.7883 33.568L69.1612 31.1951C69.6251 30.7312 70.3749 30.7312 70.8388 31.1951C71.3027 31.659 71.3027 32.4088 70.8388 32.8727L68.4659 35.2456C68.2346 35.477 67.9308 35.5932 67.6271 35.5932Z" fill="#33AD43"/>
<path d="M70 47.4576C69.6963 47.4576 69.3925 47.3414 69.1612 47.11L66.7883 44.7371C66.3244 44.2732 66.3244 43.5234 66.7883 43.0595C67.2522 42.5956 68.002 42.5956 68.4659 43.0595L70.8388 45.4324C71.3027 45.8963 71.3027 46.6461 70.8388 47.11C70.6074 47.3414 70.3037 47.4576 70 47.4576Z" fill="#33AD43"/>
<path fill-rule="evenodd" clip-rule="evenodd" d="M54.5763 29.572V48.733L55.9312 48.5385C60.5702 47.8717 64.0678 43.8366 64.0678 39.1525C64.0678 34.4685 60.5702 30.4334 55.9312 29.7666L54.5763 29.572ZM56.9492 45.8559V32.4503C59.7314 33.4398 61.6949 36.1152 61.6949 39.1537C61.6949 42.1922 59.7314 44.8664 56.9492 45.8559Z" fill="#33AD43"/>
<path fill-rule="evenodd" clip-rule="evenodd" d="M10.678 40.339H15.4237C16.0786 40.339 16.6102 39.8086 16.6102 39.1525V34.4068C16.6102 33.7507 16.0786 33.2203 15.4237 33.2203H10.678C10.023 33.2203 9.49152 33.7507 9.49152 34.4068V39.1525C9.49152 39.8086 10.023 40.339 10.678 40.339ZM14.2373 37.9661H11.8644V35.5932H14.2373V37.9661Z" fill="#33AD43"/>
<path fill-rule="evenodd" clip-rule="evenodd" d="M22.5424 40.339H27.2882C27.9431 40.339 28.4746 39.8086 28.4746 39.1525V34.4068C28.4746 33.7507 27.9431 33.2203 27.2882 33.2203H22.5424C21.8875 33.2203 21.356 33.7507 21.356 34.4068V39.1525C21.356 39.8086 21.8875 40.339 22.5424 40.339ZM26.1017 37.9661H23.7288V35.5932H26.1017V37.9661Z" fill="#33AD43"/>
<path d="M27.2881 45.0847H10.678C10.023 45.0847 9.49152 44.5544 9.49152 43.8983C9.49152 43.2422 10.023 42.7119 10.678 42.7119H27.2881C27.943 42.7119 28.4746 43.2422 28.4746 43.8983C28.4746 44.5544 27.943 45.0847 27.2881 45.0847Z" fill="#33AD43"/>
<path d="M22.5423 7.11864H13.0508C12.3959 7.11864 11.8644 6.5883 11.8644 5.9322C11.8644 5.2761 12.3959 4.74576 13.0508 4.74576H22.5423C23.1973 4.74576 23.7288 5.2761 23.7288 5.9322C23.7288 6.5883 23.1973 7.11864 22.5423 7.11864Z" fill="#33AD43"/>
<path d="M8.26952 7.11864H5.93223C5.27731 7.11864 4.74579 6.5883 4.74579 5.9322C4.74579 5.2761 5.27731 4.74576 5.93223 4.74576H8.26952C8.92443 4.74576 9.45596 5.2761 9.45596 5.9322C9.45596 6.5883 8.92443 7.11864 8.26952 7.11864Z" fill="#33AD43"/>
<path d="M15.4238 11.8644H5.93223C5.27731 11.8644 4.74579 11.3341 4.74579 10.678C4.74579 10.0219 5.27731 9.49152 5.93223 9.49152H15.4238C16.0787 9.49152 16.6102 10.0219 16.6102 10.678C16.6102 11.3341 16.0787 11.8644 15.4238 11.8644Z" fill="#33AD43"/>
<path d="M22.5423 11.8644H20.2051C19.5501 11.8644 19.0186 11.3341 19.0186 10.678C19.0186 10.0219 19.5501 9.49152 20.2051 9.49152H22.5423C23.1973 9.49152 23.7288 10.0219 23.7288 10.678C23.7288 11.3341 23.1973 11.8644 22.5423 11.8644Z" fill="#33AD43"/>
<path fill-rule="evenodd" clip-rule="evenodd" d="M26.3615 22.0975C26.5917 22.3834 26.9346 22.5424 27.2881 22.5424C27.4198 22.5424 27.5527 22.5198 27.6808 22.4747C28.1566 22.3086 28.4746 21.8602 28.4746 21.3559V1.18644C28.4746 0.530339 27.9431 0 27.2881 0H1.18644C0.531525 0 0 0.530339 0 1.18644V15.4237C0 16.0798 0.531525 16.6102 1.18644 16.6102H21.9729L26.3615 22.0975ZM22.5424 14.2373H2.37288V2.37288H26.1017V17.9734L23.469 14.6822C23.2436 14.401 22.903 14.2373 22.5424 14.2373Z" fill="#33AD43"/>
</svg>
