<svg width="70" height="70" viewBox="0 0 70 70" fill="none" xmlns="http://www.w3.org/2000/svg">
<path fill-rule="evenodd" clip-rule="evenodd" d="M57.2545 0.350189L69.6486 12.7443C70.1155 13.2112 70.1155 13.9673 69.6494 14.435L47.7225 36.3627L63.3627 51.4165C63.5141 51.5623 63.6177 51.7455 63.6759 51.9439C67.3323 55.7606 67.2901 61.8361 63.5348 65.5914C61.6919 67.4351 59.2401 68.4502 56.633 68.4502C54.1518 68.4502 51.8188 67.522 50.0101 65.8447C49.7544 65.8169 49.5042 65.7236 49.305 65.5316L33.7102 50.3759L14.4358 69.6502C14.2111 69.8741 13.9076 70 13.5905 70C13.2733 70 12.969 69.8741 12.7451 69.6502L0.350189 57.2545C-0.11673 56.7876 -0.11673 56.0315 0.350189 55.5646L19.4277 36.4862L6.12931 23.4021C6.1075 23.3808 6.08975 23.3565 6.07187 23.332L6.07184 23.3319L6.07183 23.3319L6.07182 23.3319L6.07181 23.3319C6.06227 23.3188 6.0527 23.3057 6.04246 23.293C6.03511 23.2838 6.02759 23.2749 6.02009 23.2661L6.02003 23.2661C6.00479 23.2482 5.98967 23.2304 5.97632 23.2101C5.91338 23.1161 5.86079 23.0157 5.82653 22.9065L0.192425 4.87755C0.0593609 4.45366 0.173302 3.99072 0.488034 3.67599C0.802766 3.36206 1.26729 3.24891 1.68959 3.38038L19.7194 9.01369C19.7277 9.01648 19.7355 9.02046 19.7433 9.02444C19.751 9.02843 19.7588 9.03241 19.7672 9.0352C19.8325 9.0591 19.8955 9.0854 19.9544 9.11886C19.9703 9.12807 19.9851 9.13859 20.0001 9.14916C20.0084 9.15506 20.0168 9.16097 20.0253 9.16667C20.0755 9.20014 20.1225 9.23599 20.1664 9.27583C20.1711 9.27993 20.1764 9.28359 20.1816 9.28725C20.1885 9.29213 20.1955 9.297 20.2014 9.30292L33.5134 22.4006L55.5646 0.350189C56.0315 -0.11673 56.7876 -0.11673 57.2545 0.350189ZM16.9919 13.9817L17.8851 10.9459L3.15489 6.34285L7.75795 21.0723L10.7945 20.1791L12.0184 16.0159C12.1331 15.6255 12.4383 15.3211 12.8279 15.2063L16.9919 13.9817ZM13.5897 67.1148L2.88478 56.4091L7.38824 51.9057L12.7403 57.2577C12.9737 57.4912 13.2797 57.6075 13.5857 57.6075C13.8916 57.6075 14.1976 57.4912 14.4311 57.2577C14.898 56.7908 14.898 56.0347 14.4311 55.5677L9.07902 50.2157L13.4646 45.8302L18.8166 51.1822C19.0501 51.4157 19.356 51.532 19.662 51.532C19.968 51.532 20.2739 51.4157 20.5074 51.1822C20.9743 50.7153 20.9743 49.9591 20.5074 49.4922L15.1553 44.1402L21.1384 38.1571L31.9963 48.7098L13.5897 67.1148ZM52.0451 64.4543C54.9359 66.7563 59.1676 66.5738 61.8425 63.9006C64.5165 61.2273 64.699 56.994 62.397 54.1024L52.0451 64.4543ZM50.1249 62.9954L21.885 35.55L9.25432 23.1232L12.0949 22.2882C12.4845 22.1735 12.7897 21.8691 12.9044 21.4787L14.1291 17.3154L18.2931 16.0908C18.6827 15.976 18.9879 15.6717 19.1026 15.2812L19.9488 12.4056L45.1641 37.2145L60.8281 52.2929L50.1249 62.9954ZM35.2169 24.077L46.0087 34.6958L67.114 13.5897L56.4107 2.88478L49.7161 9.57941L55.0682 14.9314C55.5351 15.3976 55.5351 16.1553 55.0682 16.6214C54.8347 16.8549 54.5287 16.9712 54.2228 16.9712C53.9168 16.9712 53.6108 16.8549 53.3774 16.6214L48.0253 11.2694L43.0422 16.2525L48.3942 21.6046C48.8612 22.0707 48.8612 22.8284 48.3942 23.2946C48.1608 23.528 47.8548 23.6443 47.5488 23.6443C47.2429 23.6443 46.9369 23.528 46.7035 23.2946L41.3514 17.9425L35.2169 24.077Z" fill="#3CB14C"/>
</svg>
