<svg width="63" height="71" viewBox="0 0 63 71" fill="none" xmlns="http://www.w3.org/2000/svg">
<path fill-rule="evenodd" clip-rule="evenodd" d="M2.04441 63.9528V39.5347L2.0724 28.0301C2.06687 27.9586 2.06687 27.8869 2.0724 27.8155L0.262269 21.8906C-0.707325 18.6886 1.09483 15.3053 4.29308 14.3235L50.4048 0.262269C53.6068 -0.707325 56.99 1.09483 57.9719 4.29308L59.9686 10.8245C60.1925 11.5639 59.7749 12.3449 59.0356 12.5693L12.9705 26.6305H60.9857C61.7587 26.6305 62.3853 27.2571 62.3853 28.0301V63.9528C62.3801 67.3002 59.6678 70.0125 56.3204 70.0177H8.10929C4.76188 70.0125 2.04955 67.3002 2.04441 63.9528ZM56.3204 67.2185C58.124 67.2185 59.5861 65.7564 59.5861 63.9528V40.9343H4.84358V63.9528C4.84358 65.7564 6.30569 67.2185 8.10929 67.2185H56.3204ZM59.5861 29.4297V38.1351H47.9229L56.619 29.4297H59.5861ZM43.9574 38.1351L52.6628 29.4297H44.7132L36.0077 38.1351H43.9574ZM40.757 29.4297L32.0609 38.1351H23.4394L32.1449 29.4297H40.757ZM19.4833 38.1351L28.1887 29.4297H20.239L11.5336 38.1351H19.4833ZM16.2829 29.4297L7.57744 38.1351H4.84358V29.4297H16.2829ZM53.7059 3.1634C52.9411 2.75562 52.0456 2.6686 51.2166 2.92148L43.4069 5.31011L54.277 11.0951L56.8802 10.302L55.294 5.09551C55.042 4.26624 54.4707 3.57117 53.7059 3.1634ZM39.6187 6.4671L50.4888 12.2521L42.8844 14.5754L32.0142 8.79042L39.6187 6.4671ZM39.0961 15.723L28.226 9.93808L19.9964 12.448L30.8666 18.233L39.0961 15.723ZM16.1989 13.5677L27.069 19.3526L19.4646 21.6759L8.59448 15.891L16.1989 13.5677ZM15.6857 22.8983L4.85291 17.104C3.30118 17.7279 2.47438 19.4258 2.94015 21.0321L4.48902 26.3039L15.6857 22.8983Z" fill="#33AD43"/>
</svg>
