<svg width="30" height="30" viewBox="0 0 30 30" fill="none" xmlns="http://www.w3.org/2000/svg">
<path d="M14.4944 5.05618C13.7528 5.05618 13.1461 5.66292 13.1461 6.4045V15.8427C13.1461 16.5843 13.7528 17.191 14.4944 17.191H20.8989C21.6404 17.191 22.2472 16.5843 22.2472 15.8427C22.2472 15.1011 21.6404 14.4944 20.8989 14.4944H15.8427V6.4045C15.8427 5.66292 15.2359 5.05618 14.4944 5.05618Z" fill="#33AD43"/>
<path d="M17.9326 0.101113C17.191 -0.0337188 16.4831 0.438191 16.3483 1.17976C16.2135 1.92134 16.6854 2.6292 17.427 2.76403C22.3146 3.67415 26.1236 7.41572 27.1685 12.2697C27.3034 12.9101 27.8764 13.3483 28.4831 13.3483C28.5843 13.3483 28.6854 13.3483 28.7528 13.3146C29.4944 13.1461 29.9326 12.4382 29.7977 11.7303C28.5843 5.76403 23.8989 1.21347 17.9326 0.101113Z" fill="#33AD43"/>
<path d="M15.1685 29.8315C22.5843 29.8315 28.7865 24.5393 29.9663 17.2247C30.1011 16.4831 29.5955 15.809 28.8539 15.6741C28.1124 15.5393 27.4382 16.0449 27.3034 16.7865C26.3259 22.7865 21.236 27.1011 15.1685 27.1011C8.39327 27.1011 2.86518 21.573 2.86518 14.7977C2.86518 8.86516 7.07866 3.80898 12.8764 2.69662C13.618 2.56179 14.0899 1.85392 13.9551 1.11235C13.8202 0.370778 13.1124 -0.101132 12.3708 0.0336993C5.32585 1.41572 0.168549 7.61797 0.168549 14.8315C0.168549 23.0899 6.91012 29.8315 15.1685 29.8315Z" fill="#33AD43"/>
</svg>
