<svg width="20" height="20" viewBox="0 0 20 20" fill="none" xmlns="http://www.w3.org/2000/svg">
<path fill-rule="evenodd" clip-rule="evenodd" d="M11.9912 20C9.86963 20.0061 7.83447 19.1119 6.33789 17.5167L2.34082 13.2765C0.836914 11.6891 -0.00585938 9.52972 0 7.27929C0.00830078 4.61331 1.19141 2.10485 3.19775 0.499279L3.60742 0.173109C3.88623 -0.0477333 4.26562 -0.0581913 4.55469 0.147015C6.30762 1.38488 7.56201 3.27227 8.07227 5.43969L8.17432 5.87458C8.24268 6.17002 8.16016 6.48169 7.95703 6.69653L6.8667 7.8577C6.43311 8.31932 6.43311 9.06607 6.8667 9.5277L9.87158 12.7155C10.3115 13.1639 11.0063 13.1639 11.4458 12.7155L12.5405 11.5587C12.7441 11.3419 13.0396 11.2544 13.3193 11.3282L13.7295 11.4369C15.7725 11.978 17.5518 13.3087 18.7188 15.1683C18.9121 15.4748 18.9023 15.8774 18.6938 16.1729L18.3867 16.6078C16.8721 18.7373 14.5059 19.9925 11.9912 20ZM6.46533 5.81804C6.09717 4.28802 5.26611 2.92831 4.09961 1.94748C2.54883 3.22161 1.63574 5.18105 1.62354 7.26189C1.61426 9.05675 2.28467 10.7804 3.48486 12.0457L7.48193 16.286C8.6748 17.5589 10.2993 18.2703 11.9912 18.2604C13.9561 18.2568 15.8096 17.2945 17.0176 15.651C16.0928 14.4087 14.8071 13.525 13.3608 13.1373L12.5981 13.9462C11.5093 15.0518 9.79248 15.0518 8.70361 13.9462L5.69873 10.7584C4.62354 9.61732 4.62354 7.76808 5.69873 6.62695L6.46533 5.81804Z" fill="white"/>
<path d="M13.5239 8.57143C13.9447 8.57143 14.2858 8.23031 14.2858 7.80952V7.50476C14.2837 5.57001 12.7158 4.0021 10.781 4H10.4763C10.0555 4 9.71436 4.34112 9.71436 4.7619C9.71436 5.18269 10.0555 5.52381 10.4763 5.52381H10.781C11.8751 5.52381 12.762 6.41071 12.762 7.50476V7.80952C12.762 8.23031 13.1031 8.57143 13.5239 8.57143Z" fill="white"/>
<path d="M18.6191 10.2857C19.0662 10.2857 19.4286 9.90196 19.4286 9.42857V9C19.4286 4.02944 15.6231 0 10.9286 0H10.5239C10.0768 0 9.71436 0.383756 9.71436 0.857143C9.71436 1.33053 10.0768 1.71429 10.5239 1.71429H10.9286C14.7289 1.71429 17.8096 4.97621 17.8096 9V9.42857C17.8096 9.6559 17.8949 9.87392 18.0467 10.0347C18.1985 10.1954 18.4044 10.2857 18.6191 10.2857Z" fill="white"/>
</svg>
