<svg width="18" height="18" viewBox="0 0 18 18" fill="none" xmlns="http://www.w3.org/2000/svg">
<path fill-rule="evenodd" clip-rule="evenodd" d="M12.3583 0.647342C11.2906 0.217906 10.1609 0 9.00042 0C4.46514 0 0.625441 3.38891 0.0690314 7.88233C0.0232877 8.2505 0 8.6267 0 9.00042C0 13.9629 4.03736 18 9.00042 18C13.9635 18 18.0008 13.9626 18.0008 9.00042C18.0008 5.30488 15.786 2.02603 12.3583 0.647342ZM9.00042 16.8913C4.64922 16.8913 1.10894 13.3516 1.10894 9.00069C1.10894 8.67245 1.12918 8.34226 1.16937 8.01901C1.65731 4.0795 5.02377 1.10894 9.00042 1.10894C10.0187 1.10894 11.009 1.29967 11.9444 1.67616C14.9499 2.8849 16.8919 5.75982 16.8919 9.00042C16.8919 13.3516 13.3516 16.8913 9.00042 16.8913ZM9.55821 8.65055H12.437C12.7434 8.65055 12.9918 8.89895 12.9918 9.20502C12.9918 9.51108 12.7434 9.75948 12.4373 9.75948H9.00374C8.69768 9.75948 8.44927 9.51108 8.44927 9.20502V4.53084C8.44927 4.22478 8.69768 3.97637 9.00374 3.97637C9.30981 3.97637 9.55821 4.22478 9.55821 4.53084V8.65055Z" fill="white"/>
</svg>
