<svg width="30" height="30" viewBox="0 0 30 30" fill="none" xmlns="http://www.w3.org/2000/svg">
<path fill-rule="evenodd" clip-rule="evenodd" d="M17.9868 30C14.8048 30.0091 11.7514 28.6679 9.50689 26.2751L3.51131 19.9147C1.25571 17.5337 -0.00858497 14.2946 4.38807e-05 10.9189C0.012536 6.91996 1.78713 3.15727 4.79651 0.748919L5.41145 0.259662C5.82922 -0.0715995 6.39852 -0.0872862 6.83194 0.220522C9.4614 2.07732 11.3429 4.90841 12.1081 8.15953L12.2618 8.81187C12.3638 9.25503 12.2402 9.72253 11.9359 10.0448L10.3002 11.7866C9.64968 12.479 9.64968 13.5991 10.3002 14.2915L14.8076 19.0732C15.467 19.7459 16.5095 19.7459 17.1689 19.0732L18.8108 17.338C19.1159 17.0128 19.5595 16.8816 19.9792 16.9922L20.5941 17.1553C23.6588 17.967 26.3275 19.963 28.0778 22.7524C28.368 23.2122 28.3532 23.8162 28.0409 24.2593L27.5797 24.9117C25.3082 28.106 21.7586 29.9887 17.9868 30ZM9.69752 8.72707C9.14556 6.43204 7.89911 4.39247 6.14936 2.92122C3.82309 4.83242 2.45366 7.77158 2.43517 10.8928C2.42114 13.5851 3.42703 16.1706 5.22697 18.0686L11.2226 24.4289C13.0118 26.3384 15.4489 27.4055 17.9868 27.3906C20.9335 27.3852 23.714 25.9417 25.5259 23.4765C24.1389 21.613 22.2107 20.2875 20.0407 19.706L18.8969 20.9193C17.2634 22.5778 14.6886 22.5778 13.0551 20.9193L8.5476 16.1377C6.93526 14.426 6.93526 11.6521 8.5476 9.94042L9.69752 8.72707Z" fill="#33AD43"/>
<path d="M20.2857 12.8571C20.9169 12.8571 21.4286 12.3455 21.4286 11.7143V11.2571C21.4254 8.35501 19.0736 6.00315 16.1714 6H15.7143C15.0831 6 14.5714 6.51167 14.5714 7.14286C14.5714 7.77404 15.0831 8.28571 15.7143 8.28571H16.1714C17.8125 8.28571 19.1429 9.61607 19.1429 11.2571V11.7143C19.1429 12.3455 19.6545 12.8571 20.2857 12.8571Z" fill="#33AD43"/>
<path d="M27.9286 15.4286C28.5992 15.4286 29.1429 14.8529 29.1429 14.1429V13.5C29.1429 6.04416 23.4345 0 16.3929 0H15.7857C15.1151 0 14.5714 0.575634 14.5714 1.28571C14.5714 1.99579 15.1151 2.57143 15.7857 2.57143H16.3929C22.0932 2.57143 26.7143 7.46432 26.7143 13.5V14.1429C26.7143 14.4839 26.8422 14.8109 27.0699 15.052C27.2977 15.2931 27.6065 15.4286 27.9286 15.4286Z" fill="#33AD43"/>
</svg>
