<svg width="195" height="245" viewBox="0 0 195 245" fill="none" xmlns="http://www.w3.org/2000/svg">
<mask id="mask0" mask-type="alpha" maskUnits="userSpaceOnUse" x="0" y="99" width="42" height="30">
<path fill-rule="evenodd" clip-rule="evenodd" d="M0 99.1315H41.9953V128.302H0V99.1315Z" fill="white"/>
</mask>
<g mask="url(#mask0)">
<path d="M41.9948 113.717C41.9948 113.717 32.594 128.303 20.9973 128.303C9.40084 128.303 0 113.717 0 113.717C0 113.717 9.40084 99.132 20.9973 99.132C32.594 99.132 41.9948 113.717 41.9948 113.717Z" fill="#D83D27"/>
</g>
<path d="M20.9974 123.782C14.5147 123.782 8.42289 117.388 5.45605 113.711C6.40453 112.533 7.67617 111.076 9.18912 109.638C12.0615 106.909 16.4418 103.655 20.9974 103.655C25.5531 103.655 29.9334 106.909 32.8058 109.638C34.3218 111.079 35.5952 112.538 36.5447 113.718C35.5955 114.898 34.3219 116.357 32.8058 117.798C29.9334 120.528 25.5531 123.782 20.9974 123.782Z" fill="white"/>
<path d="M21.0486 122.82C16.2685 122.82 12.3795 118.741 12.3795 113.727C12.3795 108.713 16.2685 104.634 21.0486 104.634C25.8287 104.634 29.7176 108.713 29.7176 113.727C29.7176 118.741 25.8287 122.82 21.0486 122.82Z" fill="#D83D27"/>
<path d="M25.0343 113.727C25.0343 116.036 23.2499 117.908 21.0486 117.908C18.8473 117.908 17.0629 116.036 17.0629 113.727C17.0629 111.418 18.8473 109.547 21.0486 109.547C23.2499 109.547 25.0343 111.418 25.0343 113.727Z" fill="black"/>
<path d="M26.122 112.343H22.309V108.343C24.4148 108.343 26.122 110.134 26.122 112.343Z" fill="white"/>
<path fill-rule="evenodd" clip-rule="evenodd" d="M4.62315 110.695L6.07945 109.111C6.56529 108.582 7.36754 108.567 7.87144 109.077C8.37535 109.586 8.38988 110.428 7.90404 110.956L6.44774 112.541C5.96202 113.069 5.15965 113.085 4.65587 112.575C4.15196 112.065 4.13743 111.224 4.62315 110.695ZM33.17 118.477L36.2727 115.102C36.7586 114.573 37.5609 114.558 38.0648 115.067C38.5686 115.577 38.5832 116.419 38.0973 116.947L34.9946 120.322C34.5089 120.851 33.7065 120.866 33.2026 120.357C32.6988 119.847 32.6843 119.005 33.17 118.477Z" fill="#A61E22"/>
<path d="M4.86738 110.429L3.41138 112.014L5.23604 113.858L6.69204 112.275" fill="#A61E22"/>
<path d="M38.4672 115.114H39.945C40.6799 115.114 41.2757 114.489 41.2757 113.718C41.2757 112.947 40.6799 112.322 39.945 112.322H38.4672C37.7322 112.322 37.1365 112.947 37.1365 113.718C37.1365 114.489 37.7322 115.114 38.4672 115.114Z" fill="#D83D27"/>
<path d="M18.115 119.37C17.4261 118.976 16.809 118.444 16.3053 117.799L15.717 118.304L16.3177 117.815L16.1394 117.574L15.5387 118.063L16.1466 117.584C15.8487 117.168 15.598 116.714 15.4027 116.229C15.2391 115.823 14.793 115.633 14.4061 115.805C14.0194 115.976 13.8383 116.444 14.0019 116.85C14.2462 117.456 14.5593 118.024 14.9307 118.542L14.9343 118.547L15.1227 118.802L15.1288 118.809C15.7587 119.616 16.5283 120.279 17.387 120.77C17.7556 120.981 18.2176 120.839 18.4187 120.452C18.6196 120.065 18.4837 119.581 18.115 119.37Z" fill="white"/>
<path d="M26.5108 116.147C26.2114 116.89 25.7771 117.561 25.24 118.124C24.7027 118.687 24.0635 119.143 23.3554 119.457C22.7107 119.743 22.4092 120.523 22.6818 121.199C22.9544 121.875 23.6981 122.192 24.3428 121.906C25.3563 121.456 26.2674 120.806 27.0322 120.004C27.7971 119.202 28.4165 118.246 28.8453 117.183C29.1179 116.507 28.8164 115.727 28.1717 115.441C27.5271 115.155 26.7834 115.471 26.5108 116.147Z" fill="#A61E22"/>
<path fill-rule="evenodd" clip-rule="evenodd" d="M117.091 203.24C117.843 200.516 118.35 197.313 118.35 193.61C118.35 189.472 117.605 185.383 115.984 181.655C114.362 177.927 111.872 174.556 108.315 171.8C105.945 169.964 103.093 168.4 99.6879 167.206C95.1476 165.616 89.6201 164.688 82.9697 164.688H82.7777C75.2959 164.688 69.2352 165.863 64.4031 167.833C59.5688 169.807 55.9519 172.566 53.3041 175.816C51.5394 177.984 50.2067 180.375 49.2534 182.911C47.9849 186.291 47.397 189.932 47.397 193.61C47.397 197.254 47.8866 200.415 48.6201 203.113C49.3536 205.809 50.3329 208.045 51.3121 209.833C52.1232 211.308 52.9346 212.477 53.6122 213.344L53.614 213.338C53.9059 212.663 54.1635 212.021 54.3632 211.346C54.4951 210.898 54.6073 210.432 54.683 209.927C54.7589 209.424 54.8029 208.878 54.8029 208.271C54.8029 207.34 55.5646 206.585 56.5016 206.585C57.4408 206.585 58.2003 207.34 58.2003 208.271C58.2023 209.574 58.0363 210.721 57.7747 211.745C57.5145 212.768 57.1652 213.663 56.8154 214.485C56.696 214.764 56.5768 215.036 56.4597 215.302C56.3477 215.556 56.2377 215.806 56.1318 216.054C55.8444 216.73 55.5885 217.391 55.3866 218.099C55.1185 219.048 54.943 220.087 54.9412 221.408C54.943 222.315 55.1528 223.004 55.4785 223.579C55.8059 224.154 56.2638 224.618 56.8011 224.982C57.1569 225.222 57.5466 225.412 57.9365 225.549C58.4541 225.734 58.9736 225.817 59.3793 225.815C60.4724 225.817 61.4695 225.67 62.5466 225.503C63.2502 225.394 63.9895 225.277 64.7869 225.21C64.9287 225.172 65.0765 225.148 65.2281 225.148C65.3042 225.148 65.3783 225.156 65.452 225.166C65.6619 225.156 65.8737 225.15 66.0917 225.148C66.4332 225.15 66.8059 225.155 67.1992 225.176C67.4133 225.188 67.6335 225.204 67.8583 225.228C68.4957 225.295 69.1691 225.412 69.8485 225.642C70.3022 225.795 70.756 226.001 71.1935 226.283C71.7731 226.656 72.3164 227.178 72.7141 227.844C72.9399 228.221 73.1179 228.644 73.2416 229.092C73.3818 229.608 73.4476 230.158 73.4476 230.739C73.4476 231.669 72.6881 232.425 71.7489 232.425C70.8119 232.425 70.0504 231.669 70.0504 230.739C70.0504 230.33 69.9926 230.038 69.9163 229.828C69.8734 229.711 69.8262 229.617 69.7731 229.534C69.7299 229.467 69.6827 229.408 69.6307 229.352C69.5551 229.267 69.4629 229.19 69.349 229.116C69.199 229.017 69.0114 228.923 68.7834 228.844C68.4836 228.739 68.1179 228.66 67.7266 228.608C67.589 228.59 67.4476 228.576 67.3047 228.565C67.1941 228.556 67.0825 228.549 66.9712 228.543C67.0148 229.545 67.1008 230.856 67.2646 232.088C67.3746 232.917 67.5225 233.711 67.6982 234.32C67.7963 234.665 67.9041 234.949 67.994 235.125C68.298 235.73 68.8054 236.344 69.5067 236.931C69.5914 237.001 69.6785 237.071 69.7677 237.14C69.8597 237.212 69.9541 237.283 70.0504 237.353V235.52C70.0504 234.59 70.8119 233.834 71.7489 233.834C72.6881 233.834 73.4476 234.59 73.4476 235.52V239.155C74.115 239.423 74.8104 239.662 75.5178 239.875V237.524C75.5178 236.594 76.2771 235.838 77.2162 235.838C78.1538 235.838 78.915 236.594 78.915 237.524V240.676C79.7041 240.815 80.4679 240.912 81.1749 240.974V237.524C81.1749 236.594 81.9346 235.838 82.8738 235.838C83.811 235.838 84.5725 236.594 84.5725 237.524V240.974C84.8704 240.948 85.1757 240.916 85.4897 240.879C85.7902 240.842 86.0972 240.798 86.4089 240.749C86.5492 240.726 86.6904 240.703 86.8324 240.678V237.524C86.8324 236.594 87.5939 235.838 88.5309 235.838C89.4681 235.838 90.2296 236.594 90.2296 237.524V239.875C90.9352 239.662 91.6305 239.423 92.2979 239.157V235.52C92.2979 234.59 93.0593 233.834 93.9967 233.834C94.9359 233.834 95.6951 234.59 95.6951 235.52V237.351C95.9728 237.151 96.2295 236.945 96.4624 236.736C96.6101 236.604 96.7483 236.47 96.8762 236.335C97.2578 235.935 97.5493 235.53 97.7516 235.125C97.8396 234.953 97.9471 234.675 98.0431 234.336C98.1414 233.996 98.2333 233.596 98.3131 233.163C98.473 232.3 98.5846 231.312 98.6609 230.384C98.7166 229.719 98.7509 229.086 98.7747 228.543C98.5951 228.553 98.417 228.564 98.2408 228.582C97.7795 228.63 97.3458 228.713 96.9961 228.834C96.7603 228.914 96.5643 229.007 96.4105 229.108C96.2007 229.245 96.0668 229.382 95.953 229.567C95.889 229.673 95.8308 229.802 95.785 229.971C95.7333 230.166 95.6951 230.416 95.6951 230.739C95.6951 231.669 94.9359 232.425 93.9967 232.425C93.0593 232.425 92.2979 231.669 92.2979 230.739C92.2979 230.003 92.4078 229.317 92.6317 228.692C92.8556 228.068 93.1992 227.515 93.6149 227.067C93.8923 226.767 94.2004 226.515 94.5181 226.305C94.9438 226.025 95.3893 225.819 95.8331 225.664C96.4244 225.458 97.0143 225.339 97.5776 225.265C98.3308 225.166 99.0424 225.15 99.6542 225.148C99.8716 225.15 100.086 225.156 100.293 225.166C100.367 225.156 100.441 225.148 100.517 225.148C100.671 225.148 100.819 225.172 100.959 225.21C101.756 225.277 102.496 225.394 103.201 225.503C104.276 225.67 105.275 225.817 106.366 225.815C106.824 225.817 107.423 225.71 108.005 225.478C108.588 225.246 109.154 224.892 109.61 224.436C109.915 224.132 110.173 223.785 110.373 223.382C110.637 222.847 110.805 222.214 110.807 221.408C110.805 219.922 110.581 218.792 110.255 217.748C109.986 216.895 109.635 216.095 109.258 215.237C109.176 215.05 109.092 214.859 109.008 214.665C108.698 213.945 108.383 213.169 108.125 212.3C107.781 211.146 107.546 209.828 107.546 208.291V208.271C107.546 207.34 108.307 206.585 109.244 206.585C110.181 206.585 110.942 207.34 110.942 208.271C110.942 209.297 111.068 210.14 111.264 210.92C111.462 211.697 111.738 212.415 112.06 213.169C112.073 213.2 112.086 213.232 112.1 213.263C112.111 213.29 112.123 213.318 112.134 213.344C112.369 213.042 112.619 212.707 112.881 212.332C114.274 210.346 115.962 207.329 117.091 203.24ZM77.9818 208.557C77.9818 211.699 75.4901 213.983 71.7489 213.983C69.7484 213.983 68.8303 214.691 67.9766 215.35C67.2346 215.923 66.5413 216.458 65.2281 216.458C61.6813 216.458 60.5303 214.173 60.5303 210.175C60.5303 206.176 64.1732 200.655 70.1204 200.655C76.2573 200.655 77.9818 205.414 77.9818 208.557ZM87.1262 221.004C87.1262 225.309 84.1249 225.612 82.9558 225.612H82.7902C81.623 225.612 78.6194 225.309 78.6194 221.004C78.6194 216.698 82.7902 213.221 82.7902 213.221H82.9558C82.9558 213.221 87.1262 216.698 87.1262 221.004ZM100.517 216.458C104.066 216.458 105.218 214.173 105.218 210.175C105.218 206.176 101.572 200.655 95.6273 200.655C89.4905 200.655 87.7637 205.414 87.7637 208.557C87.7637 211.699 90.2576 213.983 93.9966 213.983C95.9982 213.983 96.9164 214.692 97.77 215.351C98.5116 215.923 99.2045 216.458 100.517 216.458Z" fill="#D83D27"/>
<path fill-rule="evenodd" clip-rule="evenodd" d="M120.367 204.131C121.198 201.128 121.748 197.618 121.748 193.609C121.748 189.576 121.104 185.536 119.676 181.731C118.606 178.878 117.092 176.16 115.085 173.694C112.076 169.996 107.953 166.879 102.633 164.713C97.3138 162.544 90.8053 161.315 82.9698 161.315H82.7778C75.8116 161.316 69.8948 162.286 64.9288 164.024C61.2061 165.328 58.0183 167.066 55.3406 169.139C51.3237 172.248 48.4705 176.111 46.6439 180.316C44.8132 184.524 43.9999 189.071 43.9999 193.609C43.9999 197.618 44.5496 201.128 45.3788 204.131C46.6257 208.639 48.4984 212.007 50.0752 214.257C50.9142 215.454 51.6658 216.331 52.2012 216.906C51.8136 218.178 51.5419 219.652 51.5437 221.407C51.5419 222.697 51.8296 223.873 52.3271 224.871C52.6989 225.621 53.1824 226.272 53.7299 226.815C54.5511 227.633 55.5066 228.218 56.4757 228.605C57.4467 228.992 58.4342 229.186 59.3792 229.186C60.7803 229.186 61.9872 229 63.0682 228.833C63.2422 228.807 63.4119 228.782 63.5798 228.756C63.604 229.291 63.6399 229.908 63.6917 230.561C63.7737 231.575 63.8936 232.676 64.0834 233.721C64.1791 234.244 64.2914 234.753 64.4309 235.241C64.5712 235.727 64.7349 236.19 64.9564 236.632C65.3323 237.378 65.828 238.048 66.4012 238.652C67.4065 239.705 68.6456 240.56 69.9965 241.281C70.324 241.453 70.6578 241.616 70.9958 241.772C71.0337 241.792 71.0737 241.81 71.1138 241.826C72.8503 242.621 74.7288 243.219 76.5671 243.643C77.6863 243.901 78.7892 244.095 79.8362 244.225C80.8855 244.354 81.8745 244.419 82.7778 244.419H82.9698C84.3424 244.419 85.9271 244.266 87.5956 243.968C89.9121 243.552 92.382 242.852 94.62 241.83C94.688 241.804 94.752 241.774 94.8158 241.741C94.8469 241.726 94.8781 241.712 94.9092 241.698C94.9939 241.659 95.0782 241.621 95.1614 241.58C96.3486 240.999 97.4618 240.318 98.429 239.507C99.3942 238.697 100.225 237.753 100.791 236.632C101.013 236.19 101.177 235.727 101.317 235.241C101.558 234.39 101.724 233.464 101.85 232.529C102.03 231.174 102.118 229.813 102.166 228.756C102.334 228.782 102.503 228.807 102.677 228.833L102.684 228.834C103.763 229 104.97 229.186 106.366 229.186C107.208 229.186 108.079 229.032 108.946 228.726C109.596 228.498 110.241 228.182 110.853 227.772C111.768 227.155 112.613 226.315 113.225 225.238C113.84 224.165 114.206 222.86 114.204 221.407C114.204 219.778 113.974 218.392 113.63 217.184C113.602 217.091 113.573 217.001 113.545 216.908C114.416 215.972 115.867 214.224 117.313 211.635C118.426 209.635 119.537 207.137 120.367 204.131ZM118.351 193.609C118.351 197.313 117.843 200.515 117.092 203.239C115.962 207.328 114.274 210.345 112.881 212.331C112.619 212.706 112.369 213.042 112.134 213.343C112.11 213.285 112.084 213.226 112.06 213.168C111.738 212.414 111.462 211.696 111.264 210.918C111.068 210.139 110.943 209.295 110.943 208.27C110.943 207.339 110.181 206.584 109.244 206.584C108.307 206.584 107.546 207.339 107.546 208.27V208.29C107.546 209.827 107.781 211.145 108.125 212.299C108.382 213.168 108.698 213.944 109.008 214.664C109.478 215.747 109.928 216.707 110.255 217.747C110.581 218.791 110.805 219.922 110.806 221.407C110.805 222.213 110.637 222.846 110.373 223.381C110.173 223.784 109.916 224.131 109.61 224.435C109.154 224.891 108.589 225.244 108.005 225.476C107.424 225.709 106.824 225.815 106.366 225.814C105.275 225.815 104.276 225.669 103.201 225.502L103.077 225.483C102.409 225.38 101.709 225.272 100.959 225.209C100.877 225.187 100.793 225.169 100.707 225.159C100.645 225.151 100.581 225.147 100.517 225.147C100.482 225.147 100.448 225.149 100.413 225.151C100.373 225.155 100.333 225.16 100.293 225.165C100.086 225.155 99.8717 225.149 99.6539 225.147C99.0422 225.149 98.3309 225.165 97.5778 225.264C97.0144 225.338 96.4246 225.457 95.8333 225.663C95.3894 225.818 94.944 226.024 94.5182 226.304C94.2006 226.514 93.8925 226.766 93.615 227.065C93.1993 227.514 92.8553 228.067 92.6316 228.69C92.4077 229.315 92.298 230.002 92.298 230.738C92.298 231.668 93.0594 232.424 93.9965 232.424C94.9357 232.424 95.6952 231.668 95.6952 230.738C95.6952 230.414 95.733 230.164 95.7849 229.97C95.8311 229.801 95.8889 229.672 95.9531 229.565C96.0669 229.381 96.2008 229.244 96.4106 229.107C96.5642 229.006 96.7604 228.913 96.9962 228.833C97.3459 228.712 97.7797 228.629 98.241 228.581C98.4171 228.563 98.5948 228.552 98.7748 228.542C98.7506 229.085 98.7167 229.718 98.6606 230.383C98.5847 231.311 98.4728 232.299 98.3129 233.162C98.2334 233.595 98.1411 233.995 98.0432 234.335C97.9473 234.674 97.8395 234.952 97.7517 235.124C97.5494 235.529 97.2579 235.934 96.8763 236.334C96.5466 236.682 96.1489 237.023 95.6952 237.35V235.519C95.6952 234.589 94.9357 233.833 93.9965 233.833C93.0594 233.833 92.298 234.589 92.298 235.519V239.156C91.6306 239.422 90.9349 239.662 90.2297 239.874V237.523C90.2297 236.592 89.4683 235.836 88.531 235.836C87.594 235.836 86.8325 236.592 86.8325 237.523V240.677C86.375 240.756 85.9254 240.824 85.4896 240.878C85.1758 240.915 84.8702 240.947 84.5726 240.973V237.523C84.5726 236.592 83.8108 235.836 82.8739 235.836C81.9347 235.836 81.175 236.592 81.175 237.523V240.973C80.468 240.911 79.7042 240.814 78.9152 240.676V237.523C78.9152 236.592 78.1537 235.836 77.2163 235.836C76.2771 235.836 75.5179 236.592 75.5179 237.523V239.874C74.8105 239.662 74.1151 239.422 73.4475 239.153V235.519C73.4475 234.589 72.6882 233.833 71.749 233.833C70.8118 233.833 70.0505 234.589 70.0505 235.519V237.352C69.9078 237.248 69.7699 237.143 69.6372 237.036C69.5931 237.001 69.5497 236.965 69.5068 236.929C68.8055 236.342 68.2977 235.729 67.9941 235.124C67.9042 234.948 67.7964 234.664 67.6981 234.319C67.5226 233.71 67.3748 232.916 67.2648 232.087C67.101 230.855 67.0149 229.544 66.9709 228.542C67.2266 228.556 67.4825 228.575 67.7264 228.607C68.118 228.658 68.4838 228.738 68.7836 228.843C69.0112 228.922 69.1991 229.016 69.3491 229.115C69.413 229.156 69.4701 229.199 69.5214 229.243C69.5613 229.278 69.5977 229.314 69.6309 229.351C69.7109 229.438 69.7797 229.531 69.8401 229.65C69.8671 229.703 69.8925 229.762 69.9164 229.827C69.9924 230.037 70.0505 230.329 70.0505 230.738C70.0505 231.668 70.8118 232.424 71.749 232.424C72.6882 232.424 73.4475 231.668 73.4475 230.738C73.4475 230.156 73.3816 229.607 73.2417 229.091C73.1178 228.643 72.9401 228.22 72.7142 227.843C72.3165 227.177 71.7732 226.655 71.1936 226.282C70.7561 226 70.3024 225.794 69.8486 225.641C69.1689 225.411 68.4955 225.294 67.858 225.226C67.2208 225.161 66.6193 225.149 66.0918 225.147C65.8738 225.149 65.662 225.155 65.4521 225.165C65.4127 225.16 65.3732 225.155 65.3333 225.152C65.2986 225.149 65.2637 225.147 65.2283 225.147C65.0763 225.147 64.9288 225.171 64.7867 225.209C64.4395 225.238 64.1031 225.277 63.7761 225.32C63.3522 225.377 62.9437 225.441 62.5465 225.502C61.4696 225.669 60.4725 225.815 59.3792 225.814C58.9738 225.815 58.4539 225.732 57.9363 225.548C57.5468 225.411 57.157 225.221 56.8013 224.981C56.2639 224.617 55.806 224.153 55.4786 223.578C55.1527 223.002 54.9429 222.314 54.9409 221.407C54.9429 220.086 55.1187 219.047 55.3867 218.098C55.5886 217.39 55.8442 216.729 56.132 216.053C56.2389 215.802 56.3502 215.549 56.4637 215.291C56.5795 215.028 56.6975 214.76 56.8156 214.484C57.1653 213.662 57.5146 212.767 57.7748 211.744C58.0364 210.72 58.202 209.573 58.2002 208.27C58.2002 207.339 57.4409 206.584 56.5017 206.584C55.5645 206.584 54.803 207.339 54.803 208.27C54.803 208.877 54.759 209.422 54.6831 209.926C54.6074 210.43 54.4952 210.897 54.3633 211.345C54.1636 212.019 53.906 212.662 53.6141 213.337L53.6123 213.343C52.9347 212.476 52.1233 211.307 51.3119 209.831C50.3326 208.044 49.3534 205.808 48.6202 203.112C47.8867 200.414 47.3971 197.253 47.3971 193.609C47.3971 189.931 47.985 186.29 49.2535 182.909C50.2068 180.374 51.5396 177.983 53.3042 175.815C55.952 172.565 59.569 169.805 64.403 167.831C69.235 165.861 75.296 164.687 82.7778 164.687H82.9698C89.6202 164.687 95.1475 165.616 99.688 167.205C103.093 168.399 105.944 169.962 108.315 171.799C111.872 174.555 114.362 177.926 115.984 181.653C117.605 185.381 118.351 189.47 118.351 193.609Z" fill="black"/>
<path fill-rule="evenodd" clip-rule="evenodd" d="M71.7488 213.982C75.49 213.982 77.9817 211.699 77.9817 208.557C77.9817 205.414 76.2572 200.655 70.1202 200.655C64.1731 200.655 60.5302 206.176 60.5302 210.175C60.5302 214.173 61.6812 216.458 65.2284 216.458C66.5415 216.458 67.2349 215.923 67.9768 215.35C68.8306 214.691 69.7485 213.982 71.7488 213.982ZM105.218 210.175C105.218 214.173 104.066 216.458 100.517 216.458C99.2047 216.458 98.5117 215.923 97.7701 215.351C96.9165 214.692 95.9984 213.983 93.9966 213.983C90.2576 213.983 87.7637 211.699 87.7637 208.557C87.7637 205.414 89.4905 200.655 95.6273 200.655C101.572 200.655 105.218 206.176 105.218 210.175ZM87.1262 221.004C87.1262 225.309 84.1249 225.612 82.9558 225.612H82.7898C81.6227 225.612 78.6194 225.309 78.6194 221.004C78.6194 216.698 82.7898 213.221 82.7898 213.221H82.9558C82.9558 213.221 87.1262 216.698 87.1262 221.004Z" fill="black"/>
<path d="M72.9263 199.836C73.938 200.054 74.7701 200.397 75.4763 200.825C76.5318 201.467 77.3175 202.306 77.9146 203.273C78.5101 204.238 78.904 205.332 79.1218 206.405C79.3307 207.431 80.337 208.094 81.37 207.886C82.4027 207.679 83.07 206.68 82.8614 205.655C82.4694 203.736 81.6593 201.692 80.1844 199.928C79.448 199.049 78.5438 198.246 77.4656 197.593C76.3884 196.938 75.1396 196.436 73.7333 196.134C72.7035 195.913 71.688 196.562 71.4651 197.585C71.2425 198.607 71.8968 199.615 72.9267 199.836H72.9263Z" fill="#A61E22"/>
<path d="M90.977 174.701C93.2967 174.702 95.4663 175.128 97.471 175.9C100.475 177.056 103.113 179 105.203 181.478C107.293 183.953 108.823 186.956 109.603 190.172C109.974 191.697 111.52 192.635 113.056 192.267C114.592 191.899 115.537 190.365 115.167 188.839C113.846 183.413 110.872 178.497 106.683 174.892C104.589 173.091 102.186 171.622 99.5411 170.603C96.8968 169.583 94.0092 169.019 90.977 169.019C89.3965 169.019 88.1155 170.291 88.1155 171.86C88.1155 173.429 89.3965 174.701 90.977 174.701Z" fill="white"/>
<path d="M52.5289 181.815C52.4923 181.884 51.8078 183.14 51.1204 185.125C50.4355 187.11 49.7392 189.827 49.7367 192.846C49.7367 193.963 49.833 195.123 50.0699 196.298C50.2759 197.323 51.2809 197.989 52.3139 197.784C53.3473 197.579 54.0175 196.581 53.8111 195.555C53.6302 194.657 53.5517 193.746 53.5517 192.846C53.5492 190.417 54.1332 188.071 54.729 186.355C55.026 185.497 55.3226 184.797 55.5414 184.32C55.6504 184.082 55.7404 183.899 55.8002 183.781C55.8301 183.721 55.853 183.677 55.8666 183.651L55.8809 183.624L55.8829 183.621L55.0959 183.2L55.8813 183.624L55.8829 183.621L55.0959 183.2L55.8813 183.624C56.3843 182.705 56.0418 181.555 55.116 181.056C54.1904 180.556 53.0322 180.896 52.5292 181.815H52.5289Z" fill="#A61E22"/>
<path d="M59.4494 219.297C59.5355 219.382 60.0191 219.853 60.8699 220.334C61.296 220.574 61.8149 220.816 62.4244 221.001C63.0332 221.185 63.734 221.311 64.5021 221.311C65.3549 221.312 66.2887 221.152 67.2352 220.775C68.2135 220.387 68.6894 219.285 68.2981 218.314C67.9073 217.342 66.797 216.87 65.8187 217.258C65.317 217.456 64.8907 217.522 64.5021 217.523C64.153 217.523 63.8319 217.466 63.5362 217.377C63.0949 217.245 62.7143 217.032 62.4609 216.858C62.3341 216.772 62.2393 216.697 62.185 216.65L62.1335 216.606L62.1309 216.603L61.5557 217.207L62.1471 216.62L62.1309 216.603L61.5557 217.207L62.1471 216.62C61.4025 215.88 60.1946 215.88 59.4497 216.619C58.7044 217.359 58.7044 218.558 59.4497 219.297H59.4494Z" fill="white"/>
<path d="M166.325 5.72696C166.325 4.92457 166.983 4.27417 167.795 4.27417C168.607 4.27417 169.265 4.92457 169.265 5.72696C169.266 7.44552 168.734 9.05455 167.826 10.381C166.918 11.7086 165.635 12.7619 164.122 13.3947C163.113 13.8165 162.002 14.0495 160.843 14.0493H156.242C155.429 14.0493 154.771 13.3989 154.771 12.5967C154.771 11.7944 155.429 11.1442 156.242 11.1442H160.843C161.983 11.1435 163.03 10.8039 163.907 10.2197C164.783 9.63533 165.48 8.80534 165.895 7.83504C166.172 7.18761 166.325 6.47883 166.325 5.72696Z" fill="black"/>
<path d="M159.373 12.5967V21.2719C159.373 22.0743 160.031 22.7247 160.843 22.7247C161.655 22.7247 162.313 22.0743 162.313 21.2719V12.5967C162.313 11.7944 161.655 11.1442 160.843 11.1442C160.031 11.1442 159.373 11.7944 159.373 12.5967Z" fill="black"/>
<mask id="mask1" mask-type="alpha" maskUnits="userSpaceOnUse" x="49" y="0" width="44" height="32">
<path fill-rule="evenodd" clip-rule="evenodd" d="M49 0.211792V31.1977H92.8105V0.211792H49Z" fill="white"/>
</mask>
<g mask="url(#mask1)">
<path d="M92.8101 8.60358V22.4648L69.0086 31.1378C68.0799 31.4762 67.3728 30.2855 68.1246 29.6494L73.0427 25.4884C73.764 24.8781 73.3082 23.7108 72.3589 23.7378L49.9136 24.3731C48.8962 24.4018 48.6389 22.991 49.6023 22.6669L64.5741 17.6286C65.4993 17.3169 65.4783 16.0166 64.5432 15.7347L50.4524 11.4867C49.4904 11.1965 49.682 9.79825 50.6876 9.77172L75.2153 9.12216C76.1079 9.0986 76.53 8.02365 75.8873 7.41104L69.9199 1.7251C69.2238 1.06196 69.951 -0.0666924 70.8537 0.275703L92.8101 8.60358Z" fill="#8974B2"/>
</g>
<mask id="mask2" mask-type="alpha" maskUnits="userSpaceOnUse" x="179" y="73" width="4" height="6">
<path fill-rule="evenodd" clip-rule="evenodd" d="M179.753 78.84H182.764V73.0682H179.753V78.84Z" fill="white"/>
</mask>
<g mask="url(#mask2)">
<path d="M182.693 77.4222L182.728 75.9887L182.763 74.555C182.782 73.7529 182.14 73.0872 181.328 73.0679C180.517 73.0488 179.843 73.6832 179.824 74.4854L179.789 75.9189L179.754 77.3526C179.735 78.1546 180.377 78.8205 181.188 78.8398C182 78.8589 182.674 78.2244 182.693 77.4222H182.693Z" fill="black"/>
</g>
<path d="M155.117 46.3791H153.647C153.647 47.7385 153.369 49.0259 152.867 50.1994C152.114 51.9591 150.852 53.4607 149.266 54.5193C147.679 55.5779 145.776 56.1944 143.714 56.195C142.338 56.1948 141.035 55.9203 139.847 55.424C138.067 54.6802 136.547 53.4335 135.476 51.8663C134.404 50.2979 133.781 48.4171 133.78 46.3791C133.78 45.0199 134.058 43.7325 134.56 42.5588C135.313 40.7991 136.575 39.2975 138.161 38.2389C139.748 37.1803 141.651 36.5638 143.714 36.5632C145.089 36.5634 146.392 36.8379 147.58 37.3342C149.36 38.0782 150.88 39.3246 151.951 40.8921C153.023 42.4603 153.646 44.3411 153.647 46.3791H155.117H156.587C156.587 44.6268 156.227 42.9498 155.575 41.427C154.597 39.1423 152.966 37.2028 150.912 35.8315C148.859 34.46 146.375 33.6574 143.714 33.658C141.94 33.6578 140.243 34.014 138.702 34.6582C136.39 35.6249 134.427 37.2361 133.039 39.2656C131.652 41.2941 130.839 43.7495 130.84 46.3791C130.84 48.1314 131.2 49.8086 131.852 51.3312C132.83 53.6159 134.461 55.5554 136.515 56.9267C138.568 58.2982 141.052 59.1008 143.714 59.1002C145.487 59.1004 147.184 58.7442 148.725 58.0999C151.037 57.1332 153 55.5221 154.387 53.4926C155.775 51.4641 156.588 49.0087 156.587 46.3791H155.117Z" fill="black"/>
<path d="M155.602 46.3476H161.14C161.14 46.3476 168.312 46.5 168.312 56.3057V68.1892C168.312 71.6857 171.181 74.5202 174.72 74.5202H186.429C189.968 74.5202 192.836 71.6857 192.836 68.1892V56.3057C192.836 44.2522 182.91 27.076 160.333 27.076H155.602V46.3476Z" fill="#D83D27"/>
<mask id="mask3" mask-type="alpha" maskUnits="userSpaceOnUse" x="154" y="25" width="41" height="51">
<path fill-rule="evenodd" clip-rule="evenodd" d="M194.305 75.9741V25.6235H154.13V75.9741H194.305Z" fill="white"/>
</mask>
<g mask="url(#mask3)">
<path d="M155.601 46.3478V47.8004H161.139V46.3478L161.108 47.8001L161.139 46.3766L161.104 47.7999L161.108 47.8001L161.139 46.3766L161.104 47.7999H161.104L161.123 47.04L161.096 47.7997L161.104 47.7999L161.123 47.04L161.096 47.7997L161.1 47.6845L161.095 47.7997H161.096L161.1 47.6845L161.095 47.7997C161.1 47.7995 161.486 47.8173 162.035 47.9685C162.448 48.0816 162.952 48.2688 163.468 48.5722C163.856 48.7999 164.252 49.0925 164.632 49.4731C165.2 50.0451 165.739 50.8144 166.151 51.911C166.562 53.0068 166.842 54.4362 166.842 56.3059V68.1894C166.842 69.2601 167.062 70.2875 167.461 71.2195C168.061 72.6182 169.057 73.804 170.314 74.6429C171.569 75.482 173.093 75.9736 174.719 75.973H186.428C187.512 75.9732 188.552 75.7554 189.495 75.3608C190.911 74.769 192.11 73.7838 192.959 72.5422C193.809 71.3017 194.306 69.7963 194.306 68.1894V56.3059C194.305 53.0959 193.649 49.5979 192.304 46.1332C191.296 43.5354 189.898 40.9571 188.088 38.5461C185.376 34.9303 181.731 31.6903 177.108 29.3619C172.486 27.032 166.893 25.6221 160.332 25.6236H155.601C155.214 25.6236 154.836 25.7786 154.562 26.049C154.288 26.3194 154.131 26.6937 154.131 27.0762V46.3478C154.131 46.7303 154.288 47.1045 154.562 47.375C154.836 47.6454 155.214 47.8004 155.601 47.8004V46.3478H157.072V28.5288H160.332C165.788 28.5296 170.428 29.5636 174.34 31.2762C177.273 32.5615 179.797 34.2306 181.942 36.1487C185.158 39.0248 187.518 42.4668 189.071 45.9956C190.626 49.5227 191.367 53.1365 191.366 56.3059V68.1894C191.365 68.8669 191.227 69.5048 190.978 70.0877C190.604 70.9614 189.977 71.7093 189.188 72.2355C188.398 72.7617 187.456 73.0672 186.428 73.0678H174.719C174.033 73.0676 173.388 72.9313 172.798 72.6851C171.914 72.3157 171.157 71.6952 170.624 70.916C170.092 70.1355 169.783 69.2047 169.782 68.1894V56.3059C169.783 53.6814 169.3 51.607 168.518 49.9876C167.933 48.7743 167.181 47.8252 166.385 47.1094C165.787 46.5719 165.167 46.1642 164.577 45.857C163.69 45.3962 162.871 45.1595 162.259 45.0347C161.648 44.9101 161.243 44.8971 161.171 44.8954L161.139 44.8952H155.601V46.3478H157.072H155.601Z" fill="black"/>
</g>
<path fill-rule="evenodd" clip-rule="evenodd" d="M145.847 41.3871C145.192 41.1138 144.474 40.9624 143.714 40.9622C142.902 40.9622 142.243 40.3118 142.243 39.5096C142.243 38.7072 142.902 38.0568 143.714 38.0568C145.453 38.0562 147.081 38.5818 148.424 39.4791C149.767 40.3761 150.833 41.6438 151.473 43.1393C151.9 44.1357 152.136 45.2342 152.136 46.3792C152.136 48.0977 151.604 49.7068 150.697 51.0333C149.788 52.3606 148.506 53.4139 146.992 54.0469C145.984 54.4684 144.872 54.7015 143.714 54.7014C142.902 54.7014 142.243 54.0509 142.243 53.2488C142.243 52.4464 142.902 51.7961 143.714 51.7961C144.854 51.7955 145.901 51.4561 146.778 50.8719C147.653 50.2875 148.35 49.4576 148.765 48.4872C149.042 47.8398 149.195 47.131 149.196 46.3792C149.195 45.2523 148.851 44.2176 148.26 43.3513C147.669 42.4861 146.829 41.7973 145.847 41.3871ZM127.787 42.306C127.189 42.0566 126.536 41.9186 125.842 41.9185C125.03 41.9185 124.372 41.2683 124.372 40.4659C124.372 39.6635 125.03 39.0131 125.842 39.0131C127.481 39.0126 129.016 39.5081 130.281 40.3536C131.547 41.1993 132.552 42.3939 133.156 43.8034C133.558 44.7427 133.78 45.7782 133.78 46.8574C133.78 47.6595 133.122 48.3099 132.31 48.3099C131.498 48.3099 130.84 47.6595 130.84 46.8574C130.839 45.8293 130.526 44.8868 129.987 44.097C129.448 43.308 128.682 42.6796 127.787 42.306Z" fill="black"/>
<path d="M150.792 8.60388H116.468V40.4658H155.337C159.991 40.4658 163.764 36.7376 163.764 32.1388V21.422C156.6 21.422 150.792 15.6832 150.792 8.60388Z" fill="#D83D27"/>
<path d="M150.792 8.60389V7.15131H116.468C116.081 7.15131 115.702 7.30627 115.429 7.5767C115.155 7.84735 114.998 8.22137 114.998 8.60389V40.4658C114.998 40.8483 115.155 41.2225 115.429 41.493C115.702 41.7634 116.081 41.9184 116.468 41.9184H155.337C156.7 41.9186 158.005 41.6448 159.19 41.1493C160.968 40.4059 162.476 39.1677 163.543 37.6078C164.61 36.0486 165.235 34.1592 165.234 32.1388V21.422C165.234 21.0395 165.077 20.6652 164.804 20.3948C164.53 20.1243 164.151 19.9694 163.764 19.9694C162.172 19.9692 160.663 19.6512 159.287 19.0768C157.225 18.2152 155.466 16.7721 154.226 14.9574C152.985 13.1416 152.263 10.9629 152.262 8.60389C152.262 8.22137 152.105 7.84735 151.832 7.5767C151.558 7.30627 151.179 7.15131 150.792 7.15131V8.60389H149.322C149.322 10.5702 149.726 12.4511 150.458 14.1591C151.555 16.722 153.384 18.898 155.688 20.4366C157.992 21.9752 160.778 22.8752 163.764 22.8748V21.422H162.294V32.1388C162.294 33.0919 162.099 33.9925 161.748 34.8142C161.221 36.0459 160.337 37.0985 159.226 37.84C158.114 38.5815 156.783 39.0126 155.337 39.0132H117.939V10.0565H150.792V8.60389H149.322H150.792Z" fill="black"/>
<mask id="mask4" mask-type="alpha" maskUnits="userSpaceOnUse" x="49" y="0" width="146" height="79">
<path fill-rule="evenodd" clip-rule="evenodd" d="M49 78.84H194.305V0.211792H49V78.84Z" fill="white"/>
</mask>
<g mask="url(#mask4)">
<path d="M92.8104 21.7977H116.468V8.60474H92.8104V21.7977Z" fill="#D83D27"/>
</g>
<mask id="mask5" mask-type="alpha" maskUnits="userSpaceOnUse" x="49" y="0" width="146" height="79">
<path fill-rule="evenodd" clip-rule="evenodd" d="M49 78.84H194.305V0.211792H49V78.84Z" fill="white"/>
</mask>
<g mask="url(#mask5)">
<path d="M92.8101 21.7978V23.2504H116.468C116.855 23.2504 117.234 23.0954 117.508 22.825C117.781 22.5546 117.938 22.1803 117.938 21.7978V8.60358C117.938 8.22107 117.781 7.84683 117.508 7.5764C117.234 7.30575 116.856 7.151 116.468 7.151H92.8101C92.423 7.151 92.0445 7.30575 91.7706 7.5764C91.4969 7.84683 91.3401 8.22107 91.3401 8.60358V21.7978C91.3401 22.1803 91.4969 22.5546 91.7706 22.825C92.0445 23.0954 92.423 23.2504 92.8101 23.2504V21.7978H94.2803V10.0562H114.998V20.3452H92.8101V21.7978H94.2803H92.8101Z" fill="black"/>
</g>
<mask id="mask6" mask-type="alpha" maskUnits="userSpaceOnUse" x="49" y="0" width="146" height="79">
<path fill-rule="evenodd" clip-rule="evenodd" d="M49 78.84H194.305V0.211792H49V78.84Z" fill="white"/>
</mask>
<g mask="url(#mask6)">
<path d="M93.0685 21.7978C91.1383 21.8348 89.5158 18.9112 89.4445 15.2675C89.3729 11.624 90.8799 8.64077 92.81 8.60362C94.7402 8.56668 96.3629 11.4903 96.4342 15.1338C96.5055 18.7774 94.9986 21.7609 93.0685 21.7978Z" fill="white"/>
</g>
<mask id="mask7" mask-type="alpha" maskUnits="userSpaceOnUse" x="49" y="0" width="146" height="79">
<path fill-rule="evenodd" clip-rule="evenodd" d="M49 78.84H194.305V0.211792H49V78.84Z" fill="white"/>
</mask>
<g mask="url(#mask7)">
<path d="M93.0685 21.7978L93.0427 20.3454H93.0324C92.9821 20.345 92.9327 20.3378 92.8607 20.3108C92.7984 20.2871 92.72 20.2465 92.6274 20.179C92.4659 20.0618 92.2655 19.8591 92.0672 19.5696C91.7684 19.1365 91.4797 18.5144 91.2722 17.7704C91.0631 17.0263 90.9321 16.1615 90.9143 15.2394C90.9128 15.1656 90.9119 15.0923 90.9119 15.0193C90.9119 14.2373 90.9946 13.498 91.1394 12.8418C91.2477 12.3498 91.3909 11.9048 91.5549 11.5253C91.6775 11.2409 91.8118 10.9936 91.9473 10.7904C92.1503 10.4845 92.3561 10.2839 92.5108 10.1806C92.5888 10.1281 92.653 10.098 92.7048 10.0806C92.7568 10.0632 92.7961 10.057 92.8386 10.056H92.841L92.8461 10.0557C92.8964 10.0564 92.9458 10.0636 93.0178 10.0906C93.0801 10.1141 93.1585 10.1547 93.2511 10.2224C93.4126 10.3393 93.613 10.5421 93.8113 10.8316C94.1101 11.2646 94.3988 11.8868 94.6064 12.6308C94.8154 13.3748 94.9466 14.2398 94.9642 15.162C94.9657 15.2354 94.9666 15.3088 94.9666 15.3819C94.9666 16.1639 94.8839 16.9032 94.7391 17.5594C94.6308 18.0514 94.4873 18.4965 94.3236 18.8759C94.2008 19.1605 94.0665 19.4078 93.9312 19.611C93.7282 19.9169 93.5224 20.1172 93.3675 20.2208C93.2897 20.2733 93.2253 20.3032 93.1737 20.3208C93.1217 20.3382 93.0822 20.3444 93.0399 20.3454L93.0184 20.3459L93.0427 20.3454L93.0685 21.7978L93.097 23.2502C93.5185 23.2425 93.9307 23.1536 94.3056 23.0033C94.6343 22.8721 94.9352 22.6957 95.2074 22.49C95.6841 22.1287 96.0755 21.6806 96.407 21.1782C96.9028 20.4231 97.268 19.5392 97.5206 18.5615C97.7717 17.5836 97.9064 16.5109 97.9066 15.3819C97.9066 15.2904 97.906 15.1983 97.904 15.1057C97.8841 14.0985 97.7584 13.1362 97.5423 12.2464C97.3797 11.579 97.1666 10.9524 96.9036 10.3761C96.706 9.94408 96.4804 9.54013 96.2229 9.16929C95.8362 8.61441 95.3782 8.1283 94.8156 7.75937C94.5344 7.57555 94.2266 7.42271 93.8944 7.31615C93.563 7.20938 93.2072 7.15015 92.8461 7.15058C92.8203 7.15058 92.798 7.15079 92.7791 7.15121L92.7817 7.151C92.36 7.15885 91.9478 7.2478 91.5729 7.39787C91.2442 7.52927 90.9433 7.70546 90.6711 7.91136C90.1944 8.27265 89.803 8.72076 89.4715 9.22299C88.9757 9.97805 88.6106 10.862 88.3579 11.8399C88.1068 12.8176 87.9721 13.8904 87.9717 15.0193C87.9717 15.1112 87.9728 15.2031 87.9745 15.2957C87.9945 16.3029 88.1201 17.2649 88.3364 18.1548C88.4988 18.822 88.7119 19.4488 88.9749 20.0251C89.1725 20.4573 89.3981 20.8611 89.6556 21.2319C90.0423 21.7868 90.5003 22.2727 91.0629 22.642C91.3441 22.8256 91.652 22.9785 91.9841 23.085C92.3155 23.1918 92.6711 23.251 93.0324 23.2508C93.0513 23.2508 93.0719 23.2506 93.0942 23.2502H93.097L93.0685 21.7978Z" fill="black"/>
</g>
<mask id="mask8" mask-type="alpha" maskUnits="userSpaceOnUse" x="49" y="0" width="146" height="79">
<path fill-rule="evenodd" clip-rule="evenodd" d="M49 78.84H194.305V0.211792H49V78.84Z" fill="white"/>
</mask>
<g mask="url(#mask8)">
<path d="M103.936 21.7977C102.971 21.8162 102.218 23.3078 102.253 25.1298C102.287 26.8693 103.029 28.2771 103.936 28.385V28.3947H104.065H116.468V21.7977H103.936Z" fill="#D83D27"/>
</g>
<mask id="mask9" mask-type="alpha" maskUnits="userSpaceOnUse" x="49" y="0" width="146" height="79">
<path fill-rule="evenodd" clip-rule="evenodd" d="M49 78.84H194.305V0.211792H49V78.84Z" fill="white"/>
</mask>
<g mask="url(#mask9)">
<path d="M103.936 21.7977L103.908 20.3453C103.604 20.3506 103.307 20.4154 103.042 20.5215C102.81 20.6141 102.603 20.7366 102.42 20.8745C102.1 21.1174 101.853 21.4046 101.651 21.7113C101.348 22.1728 101.141 22.6844 100.998 23.2367C100.856 23.789 100.782 24.3832 100.782 25.0056C100.782 25.0559 100.783 25.1068 100.783 25.1584V25.1578C100.794 25.691 100.858 26.2026 100.971 26.6842C101.055 27.0455 101.167 27.3898 101.308 27.7148C101.522 28.2013 101.795 28.6486 102.182 29.0339C102.376 29.2255 102.601 29.4013 102.866 29.5427C103.128 29.6838 103.434 29.7889 103.761 29.8273L103.936 28.3849H102.466V28.3947C102.466 28.7772 102.623 29.1515 102.897 29.4219C103.171 29.6923 103.549 29.8473 103.936 29.8473H104.065H116.468C116.855 29.8473 117.234 29.6923 117.508 29.4219C117.781 29.1515 117.938 28.7772 117.938 28.3947V21.7977C117.938 21.4152 117.781 21.041 117.508 20.7705C117.234 20.4999 116.856 20.3449 116.468 20.3449H103.936L103.908 20.3453L103.936 21.7977V23.2503H114.998V26.9419L104.065 26.9421H103.936V28.3947H105.406V28.3849C105.406 27.6486 104.852 27.0306 104.112 26.9428L104.059 27.3752L104.255 26.9827C104.228 26.9691 104.175 26.95 104.112 26.9428L104.059 27.3752L104.255 26.9827L104.161 27.1716L104.279 26.9958L104.255 26.9827L104.161 27.1716L104.279 26.9958L104.277 26.998L104.279 26.9958H104.279L104.277 26.998L104.279 26.9958C104.267 26.9871 104.215 26.9364 104.153 26.84C104.059 26.6967 103.948 26.4554 103.867 26.1535C103.785 25.8517 103.731 25.49 103.723 25.1015V25.1011C103.723 25.0692 103.722 25.0374 103.722 25.0056C103.722 24.6647 103.759 24.3454 103.819 24.0711C103.864 23.8659 103.923 23.6861 103.985 23.5434C104.031 23.4367 104.078 23.3509 104.119 23.2906C104.149 23.2452 104.175 23.2142 104.191 23.1976L104.204 23.1845L104.207 23.1817L104.047 22.9815L104.14 23.2167C104.184 23.1996 104.206 23.1828 104.207 23.1817L104.047 22.9815L104.14 23.2167L103.955 22.7506L103.965 23.2501C104.03 23.2492 104.096 23.2339 104.14 23.2167L103.955 22.7506L103.965 23.2501L103.936 21.7977V23.2503V21.7977Z" fill="black"/>
</g>
<mask id="mask10" mask-type="alpha" maskUnits="userSpaceOnUse" x="49" y="0" width="146" height="79">
<path fill-rule="evenodd" clip-rule="evenodd" d="M49 78.84H194.305V0.211792H49V78.84Z" fill="white"/>
</mask>
<g mask="url(#mask10)">
<path d="M124.827 24.3732C124.827 15.7657 120.908 8.82761 116.383 8.60345V40.4658C116.487 40.4709 116.59 40.4766 116.695 40.4747C121.359 40.3853 124.827 32.5111 124.827 24.3732Z" fill="white"/>
</g>
<mask id="mask11" mask-type="alpha" maskUnits="userSpaceOnUse" x="49" y="0" width="146" height="79">
<path fill-rule="evenodd" clip-rule="evenodd" d="M49 78.84H194.305V0.211792H49V78.84Z" fill="white"/>
</mask>
<g mask="url(#mask11)">
<path fill-rule="evenodd" clip-rule="evenodd" d="M125.576 17.9808C126.04 19.9573 126.297 22.1123 126.297 24.3732C126.297 26.8269 125.998 29.2496 125.452 31.4812C124.904 33.713 124.113 35.7538 123.089 37.4515C122.405 38.5826 121.617 39.5648 120.697 40.3348C120.172 40.774 119.602 41.1432 118.985 41.4166C118.281 41.7291 117.515 41.9125 116.724 41.9271H116.715L116.708 41.9273L116.695 41.9274L116.652 41.9277C116.529 41.9276 116.428 41.9224 116.349 41.9185L116.31 41.9165L114.913 41.8475V7.07642L116.456 7.15265C117.301 7.19403 118.119 7.4137 118.877 7.77014C119.637 8.12677 120.339 8.61731 120.984 9.20953C122.274 10.3964 123.346 11.9869 124.196 13.8643C124.763 15.1166 125.228 16.4985 125.576 17.9808ZM122.773 30.0127C123.151 28.2288 123.357 26.3058 123.357 24.3732C123.357 22.3624 123.131 20.451 122.731 18.7204C122.332 16.9896 121.757 15.4398 121.073 14.1544C120.617 13.2975 120.113 12.5588 119.589 11.9604C119.018 11.308 118.426 10.8269 117.853 10.5145V38.7332C118.09 38.6215 118.332 38.4755 118.578 38.2917C119.24 37.7984 119.918 37.0239 120.53 36.0187C120.939 35.3497 121.321 34.581 121.66 33.7368C122.112 32.6109 122.491 31.3508 122.773 30.0127ZM139.224 41.9185L139.186 41.9166L139.332 39.015C139.427 39.0198 139.492 39.0226 139.528 39.0224H139.543C139.544 39.0224 139.546 39.0223 139.548 39.0223C139.863 39.0151 140.167 38.9553 140.482 38.8377C140.797 38.7191 141.123 38.5397 141.454 38.2917C142.116 37.7985 142.794 37.0239 143.406 36.0187C143.816 35.3497 144.196 34.5811 144.536 33.7368C144.989 32.6109 145.367 31.3509 145.649 30.0127C146.027 28.2288 146.234 26.3056 146.233 24.3733C146.234 22.3624 146.008 20.4511 145.608 18.7205C145.208 16.9898 144.633 15.4398 143.949 14.1545C143.493 13.2975 142.989 12.5588 142.464 11.9604C141.765 11.1606 141.033 10.618 140.344 10.3284C139.948 10.162 139.566 10.0735 139.185 10.0544L139.332 7.15265C140.177 7.19403 140.995 7.41376 141.753 7.77014C142.513 8.12677 143.215 8.61731 143.86 9.20959C145.15 10.3964 146.222 11.9869 147.072 13.8643C147.639 15.1165 148.104 16.4986 148.452 17.9809C148.917 19.9572 149.173 22.1124 149.173 24.3733C149.173 26.8269 148.875 29.2496 148.328 31.4812C147.78 33.7131 146.989 35.7538 145.965 37.4516C145.281 38.5826 144.493 39.5648 143.573 40.3349C143.048 40.7741 142.478 41.1432 141.861 41.4166C141.158 41.7291 140.391 41.9125 139.6 41.9271L139.588 41.9274H139.584L139.571 41.9275L139.528 41.9278C139.404 41.9276 139.303 41.9224 139.224 41.9185Z" fill="black"/>
</g>
<mask id="mask12" mask-type="alpha" maskUnits="userSpaceOnUse" x="49" y="0" width="146" height="79">
<path fill-rule="evenodd" clip-rule="evenodd" d="M49 78.84H194.305V0.211792H49V78.84Z" fill="white"/>
</mask>
<g mask="url(#mask12)">
<path fill-rule="evenodd" clip-rule="evenodd" d="M99.3885 5.61804L99.4232 7.05151C99.4428 7.8537 98.8007 8.51959 97.9889 8.5387C97.1773 8.55805 96.5034 7.92334 96.4839 7.1214L96.4491 5.68768L96.4143 4.25403C96.3947 3.45203 97.037 2.78613 97.8487 2.76703C98.6602 2.74774 99.3341 3.38239 99.3537 4.18439L99.3885 5.61804ZM122.968 15.4891H136.443C137.255 15.4891 137.913 14.8386 137.913 14.0365C137.913 13.2341 137.255 12.5837 136.443 12.5837H122.968C122.156 12.5837 121.498 13.2341 121.498 14.0365C121.498 14.8386 122.156 15.4891 122.968 15.4891ZM123.107 36.3102H133.46C133.354 36.7909 133.498 37.3129 133.886 37.6755C134.476 38.2266 135.407 38.2007 135.964 37.6178L137.65 35.8555C138.052 35.435 138.163 34.8141 137.932 34.2828C137.7 33.7515 137.167 33.4048 136.582 33.4048H123.107C122.295 33.4048 121.637 34.0552 121.637 34.8577C121.637 35.66 122.295 36.3102 123.107 36.3102ZM138.414 25.8259H124.827C124.015 25.8259 123.357 25.1757 123.357 24.3733C123.357 23.5709 124.015 22.9205 124.827 22.9205H139.884C140.271 22.9205 140.649 23.0754 140.923 23.3461C141.197 23.6165 141.354 23.9905 141.354 24.3733V25.9685C141.354 26.7707 140.695 27.4211 139.884 27.4211C139.072 27.4211 138.414 26.7707 138.414 25.9685V25.8259ZM108.203 22.278L114.393 28.3947L116.468 25.3709C116.468 25.3709 116.501 21.2719 116.468 21.2719C116.463 21.2719 116.267 21.2953 115.939 21.335C115.524 21.3851 114.899 21.4611 114.181 21.5486L111.877 21.8293L110.863 21.9531L108.203 22.278ZM93.8903 15.1782L93.9251 16.6119C93.9377 17.1309 93.522 17.5618 92.997 17.5741C92.4716 17.5867 92.0357 17.1759 92.023 16.6569L91.9882 15.2232L91.9534 13.7897C91.9409 13.2707 92.3565 12.8398 92.8816 12.8275C93.4069 12.8149 93.8428 13.2255 93.8554 13.7447L93.8903 15.1782ZM119.944 19.4669L119.91 18.0332L119.875 16.5997C119.855 15.7975 119.181 15.1631 118.37 15.1822C117.558 15.2015 116.916 15.8672 116.935 16.6694L116.97 18.1028L117.005 19.5366C117.024 20.3385 117.698 20.9732 118.51 20.9539C119.322 20.9348 119.964 20.2689 119.944 19.4669ZM116.97 30.6434L117.005 29.21C117.024 28.408 117.698 27.7733 118.51 27.7924C119.321 27.8117 119.964 28.4774 119.944 29.2796L119.909 30.7133L119.875 32.1468C119.855 32.9489 119.181 33.5836 118.37 33.5643C117.558 33.545 116.916 32.8793 116.935 32.0771L116.97 30.6434ZM119.255 23.0665L119.22 24.5002L119.185 25.9337C119.166 26.7357 119.808 27.4013 120.62 27.4207C121.431 27.4399 122.105 26.8053 122.125 26.0033L122.159 24.5698L122.194 23.1362C122.214 22.334 121.571 21.6683 120.76 21.6492C119.948 21.6299 119.274 22.2645 119.255 23.0665Z" fill="black"/>
</g>
<mask id="mask13" mask-type="alpha" maskUnits="userSpaceOnUse" x="49" y="0" width="146" height="79">
<path fill-rule="evenodd" clip-rule="evenodd" d="M49 78.84H194.305V0.211792H49V78.84Z" fill="white"/>
</mask>
<g mask="url(#mask13)">
<path fill-rule="evenodd" clip-rule="evenodd" d="M101.107 14.1348H111.713C112.573 14.1348 113.269 13.4462 113.269 12.5967C113.269 11.7472 112.573 11.0586 111.713 11.0586H101.107C100.247 11.0586 99.5502 11.7472 99.5502 12.5967C99.5502 13.4462 100.247 14.1348 101.107 14.1348ZM127.828 18.6434H134.466C135.326 18.6434 136.023 17.9548 136.023 17.1053C136.023 16.2557 135.326 15.5671 134.466 15.5671H127.828C126.968 15.5671 126.271 16.2557 126.271 17.1053C126.271 17.9548 126.968 18.6434 127.828 18.6434ZM130.536 30.7828H128.677C127.817 30.7828 127.12 30.0942 127.12 29.2447C127.12 28.3951 127.817 27.7065 128.677 27.7065H130.536C131.396 27.7065 132.092 28.3951 132.092 29.2447C132.092 30.0942 131.396 30.7828 130.536 30.7828ZM177.624 35.2092C177.529 35.1019 177.448 35.0344 177.364 34.9705C177.239 34.877 177.106 34.7937 176.912 34.6874C176.719 34.5821 176.467 34.4564 176.115 34.297C175.333 33.9435 174.409 34.2832 174.052 35.0555C173.694 35.8281 174.038 36.7407 174.819 37.0941C175.208 37.2698 175.408 37.3788 175.475 37.4188C176.052 37.8768 176.894 37.8757 177.472 37.3792C178.12 36.8215 178.188 35.85 177.624 35.2092ZM182.467 38.713C184.119 40.4426 185.437 42.4838 186.324 44.7362C186.635 45.528 186.239 46.4193 185.437 46.7273C184.636 47.0353 183.734 46.6432 183.422 45.8515C182.683 43.9744 181.583 42.2694 180.203 40.824C179.806 40.4088 179.387 40.0151 178.946 39.6448C178.291 39.0944 178.212 38.1239 178.769 37.4767C179.326 36.8295 180.308 36.7509 180.963 37.3013C181.49 37.7444 181.993 38.2158 182.467 38.713Z" fill="white"/>
</g>
<mask id="mask14" mask-type="alpha" maskUnits="userSpaceOnUse" x="49" y="0" width="146" height="79">
<path fill-rule="evenodd" clip-rule="evenodd" d="M49 78.84H194.305V0.211792H49V78.84Z" fill="white"/>
</mask>
<g mask="url(#mask14)">
<path fill-rule="evenodd" clip-rule="evenodd" d="M170.975 65.777V58.4674C170.975 57.5234 171.75 56.7584 172.705 56.7584C173.66 56.7584 174.435 57.5234 174.435 58.4674V65.777C174.435 66.7208 173.66 67.4858 172.705 67.4858C171.75 67.4858 170.975 66.7208 170.975 65.777ZM185.968 67.4375V61.1254C185.968 60.1814 186.742 59.4164 187.697 59.4164C188.652 59.4164 189.427 60.1814 189.427 61.1254V67.4375C189.427 68.2832 189.164 69.0833 188.715 69.7375C188.267 70.3928 187.635 70.9118 186.886 71.2253C186.387 71.434 185.836 71.5493 185.266 71.5488L178.878 71.549C177.923 71.549 177.149 70.7838 177.149 69.84C177.149 68.8961 177.923 68.131 178.878 68.131H185.266C185.417 68.1304 185.543 68.0886 185.657 68.0136C185.77 67.9385 185.861 67.8292 185.913 67.7069C185.948 67.6248 185.968 67.5379 185.968 67.4375Z" fill="#A61E22"/>
</g>
<mask id="mask15" mask-type="alpha" maskUnits="userSpaceOnUse" x="49" y="0" width="146" height="79">
<path fill-rule="evenodd" clip-rule="evenodd" d="M49 78.84H194.305V0.211792H49V78.84Z" fill="white"/>
</mask>
<g mask="url(#mask15)">
<path d="M158.396 32.6089C158.396 34.1334 157.145 35.3693 155.602 35.3693C154.059 35.3693 152.809 34.1334 152.809 32.6089C152.809 31.0841 154.059 29.8485 155.602 29.8485C157.145 29.8485 158.396 31.0841 158.396 32.6089Z" fill="#8974B2"/>
</g>
<mask id="mask16" mask-type="alpha" maskUnits="userSpaceOnUse" x="49" y="0" width="146" height="79">
<path fill-rule="evenodd" clip-rule="evenodd" d="M49 78.84H194.305V0.211792H49V78.84Z" fill="white"/>
</mask>
<g mask="url(#mask16)">
<path d="M158.396 32.6089H157.531C157.53 33.1379 157.316 33.6089 156.966 33.9566C156.614 34.3028 156.137 34.5145 155.602 34.5149C155.067 34.5145 154.59 34.3028 154.238 33.9566C153.888 33.6089 153.674 33.1379 153.673 32.6089C153.674 32.0797 153.888 31.6087 154.238 31.2612C154.59 30.915 155.067 30.7033 155.602 30.7029C156.137 30.7033 156.614 30.915 156.966 31.2612C157.316 31.6087 157.53 32.0797 157.531 32.6089H158.396H159.26C159.261 31.6133 158.849 30.7042 158.189 30.0527C157.53 29.3998 156.61 28.9935 155.602 28.9939C154.595 28.9935 153.674 29.3998 153.015 30.0527C152.355 30.7042 151.943 31.6133 151.944 32.6089C151.943 33.6042 152.355 34.5136 153.015 35.1651C153.674 35.8178 154.595 36.2243 155.602 36.2237C156.61 36.2243 157.53 35.8178 158.189 35.1651C158.849 34.5136 159.261 33.6042 159.26 32.6089H158.396Z" fill="black"/>
</g>
<mask id="mask17" mask-type="alpha" maskUnits="userSpaceOnUse" x="49" y="0" width="146" height="79">
<path fill-rule="evenodd" clip-rule="evenodd" d="M49 78.84H194.305V0.211792H49V78.84Z" fill="white"/>
</mask>
<g mask="url(#mask17)">
<path fill-rule="evenodd" clip-rule="evenodd" d="M82.0491 9.88903L85.7474 11.1473C86.1537 11.2858 86.5968 11.0722 86.7367 10.6706C86.8767 10.269 86.6606 9.83148 86.2541 9.69311L82.5559 8.43475C82.1497 8.29632 81.7064 8.50988 81.5666 8.91149C81.4268 9.31311 81.6427 9.75085 82.0491 9.88903ZM85.4099 14.8044L71.4712 14.0929C71.042 14.071 70.712 13.7093 70.7342 13.2852C70.7563 12.8611 71.1224 12.535 71.5516 12.5569L85.4904 13.2682C85.9196 13.2903 86.2495 13.6518 86.2272 14.0759C86.2052 14.5002 85.8391 14.8263 85.4099 14.8044ZM67.0032 21.2907L86.1014 18.8307C86.5277 18.7757 86.8282 18.3898 86.7726 17.9686C86.7172 17.5475 86.3264 17.2505 85.9004 17.3055L66.802 19.7655C66.3757 19.8205 66.0754 20.2064 66.1309 20.6276C66.1865 21.0487 66.577 21.3457 67.0032 21.2907ZM179.278 50.9463L177.838 58.022C177.802 58.2011 177.981 58.3486 178.153 58.2809L179.202 57.8683C179.341 57.8133 179.496 57.9014 179.518 58.0483L180.336 63.5098C180.375 63.7709 180.755 63.772 180.796 63.5111L182.027 55.6218C182.053 55.4554 181.895 55.3187 181.731 55.366L180.649 55.6793C180.512 55.7188 180.372 55.6288 180.353 55.4891L179.737 50.9609C179.702 50.7036 179.329 50.6918 179.278 50.9463ZM87.5109 21.996L82.3401 23.8253C81.9354 23.9686 81.4899 23.7604 81.3448 23.3607C81.2001 22.9607 81.4109 22.5204 81.8155 22.3772L86.9862 20.548C87.391 20.4047 87.8365 20.6128 87.9813 21.0127C88.1262 21.4126 87.9155 21.8528 87.5109 21.996Z" fill="white"/>
</g>
</svg>
