<svg width="18" height="20" viewBox="0 0 18 20" fill="none" xmlns="http://www.w3.org/2000/svg">
<g clip-path="url(#clip0)">
<path d="M8.75389 5.50766C6.26952 5.50766 4.26562 7.51157 4.26562 9.99594C4.26562 12.4803 6.26952 14.4842 8.75389 14.4842C11.2383 14.4842 13.2422 12.4803 13.2422 9.99594C13.2422 7.51157 11.2383 5.50766 8.75389 5.50766ZM8.75389 12.9139C7.14843 12.9139 5.83593 11.6053 5.83593 9.99594C5.83593 8.38657 7.14452 7.07797 8.75389 7.07797C10.3633 7.07797 11.6719 8.38657 11.6719 9.99594C11.6719 11.6053 10.3594 12.9139 8.75389 12.9139ZM14.4726 5.32407C14.4726 5.9061 14.0039 6.37094 13.4258 6.37094C12.8437 6.37094 12.3789 5.90219 12.3789 5.32407C12.3789 4.74594 12.8476 4.27719 13.4258 4.27719C14.0039 4.27719 14.4726 4.74594 14.4726 5.32407ZM17.4453 6.38657C17.3789 4.98422 17.0586 3.74203 16.0312 2.7186C15.0078 1.69516 13.7656 1.37485 12.3633 1.30453C10.918 1.2225 6.58593 1.2225 5.14062 1.30453C3.74218 1.37094 2.5 1.69125 1.47265 2.71469C0.445312 3.73813 0.128906 4.98032 0.0585937 6.38266C-0.0234375 7.82797 -0.0234375 12.16 0.0585937 13.6053C0.125 15.0077 0.445312 16.2498 1.47265 17.2733C2.5 18.2967 3.73828 18.617 5.14062 18.6873C6.58593 18.7694 10.918 18.7694 12.3633 18.6873C13.7656 18.6209 15.0078 18.3006 16.0312 17.2733C17.0547 16.2498 17.375 15.0077 17.4453 13.6053C17.5273 12.16 17.5273 7.83188 17.4453 6.38657ZM15.5781 15.1561C15.2734 15.9217 14.6836 16.5116 13.914 16.8202C12.7617 17.2772 10.0273 17.1717 8.75389 17.1717C7.48046 17.1717 4.74218 17.2733 3.59374 16.8202C2.82812 16.5155 2.23828 15.9256 1.92968 15.1561C1.47265 14.0038 1.57812 11.2694 1.57812 9.99594C1.57812 8.7225 1.47656 5.98422 1.92968 4.83578C2.23437 4.07016 2.82421 3.48032 3.59374 3.17172C4.74609 2.71469 7.48046 2.82016 8.75389 2.82016C10.0273 2.82016 12.7656 2.7186 13.914 3.17172C14.6797 3.47641 15.2695 4.06625 15.5781 4.83578C16.0351 5.98813 15.9297 8.7225 15.9297 9.99594C15.9297 11.2694 16.0351 14.0077 15.5781 15.1561Z" fill="white"/>
</g>
<defs>
<clipPath id="clip0">
<rect width="17.5" height="20" fill="white"/>
</clipPath>
</defs>
</svg>
