<svg width="24" height="24" viewBox="0 0 24 24" fill="none" xmlns="http://www.w3.org/2000/svg">
<path fill-rule="evenodd" clip-rule="evenodd" d="M5 12C5 8.13401 8.13401 5 12 5C13.8565 5 15.637 5.7375 16.9497 7.05025C18.2625 8.36301 19 10.1435 19 12C19 15.866 15.866 19 12 19C8.13401 19 5 15.866 5 12ZM7.45778 12.0156C7.45778 14.5242 9.4914 16.5578 12 16.5578V16.5422C14.5025 16.5422 16.5337 14.5181 16.5422 12.0156C16.5422 9.50696 14.5086 7.47333 12 7.47333C9.4914 7.47333 7.45778 9.50696 7.45778 12.0156Z" fill="url(#paint0_linear)"/>
<path fill-rule="evenodd" clip-rule="evenodd" d="M23.3839 4.10724C23.7379 5.04913 23.9277 6.04473 23.9452 7.05077C24 8.33771 24 8.72105 24 11.9932C24 14.0041 23.9741 14.9291 23.9542 15.6422C23.9417 16.0894 23.9315 16.4532 23.9315 16.9492C23.9109 17.9461 23.7211 18.9321 23.3702 19.8654C22.747 21.4747 21.4747 22.747 19.8654 23.3702C18.9321 23.7209 17.946 23.9107 16.9492 23.9315C15.6623 24 15.2653 24 11.9932 24C9.9822 24 9.05717 23.9741 8.34411 23.9542C7.89692 23.9417 7.5331 23.9315 7.03708 23.9315C6.04029 23.9107 5.05425 23.7209 4.12094 23.3702C3.32287 23.0727 2.59885 22.6056 1.99886 22.0011C1.39403 21.4014 0.926868 20.6773 0.629778 19.8791C0.279137 18.9457 0.0893375 17.9597 0.0684541 16.9629C0 15.676 0 15.2653 0 12.0068C0 8.74843 0 8.33771 0.0684541 7.05077C0.0862353 6.04475 0.276084 5.0492 0.629778 4.10724C0.924605 3.31511 1.38693 2.59594 1.98517 1.99886C2.58516 1.39437 3.30918 0.92726 4.10724 0.629778C5.04913 0.275824 6.04473 0.0859659 7.05077 0.0684541C8.33771 0 8.74843 0 12.0068 0C15.2653 0 15.676 0 16.9629 0.0684541C17.9636 0.0831395 18.9544 0.268338 19.8928 0.616087C20.6908 0.913569 21.4148 1.38068 22.0148 1.98517C22.6197 2.58489 23.0868 3.30898 23.3839 4.10724ZM21.3714 19.085C21.635 18.3701 21.774 17.6153 21.7821 16.8534C21.8702 15.9523 21.8673 15.4997 21.8585 14.1421C21.855 13.602 21.8505 12.9186 21.8505 12.0068C21.8505 10.0378 21.8247 9.13419 21.8048 8.4377C21.7923 8.00098 21.7821 7.64571 21.7821 7.1603C21.774 6.3984 21.635 5.64356 21.3714 4.92869C21.1757 4.41084 20.867 3.94314 20.4678 3.55961C20.0845 3.16004 19.6168 2.8513 19.0987 2.65602C18.3839 2.39208 17.629 2.25315 16.8671 2.24529C15.6075 2.17684 15.2242 2.17684 12.0205 2.17684C10.0515 2.17684 9.14788 2.2027 8.45139 2.22263C8.01467 2.23513 7.6594 2.24529 7.17399 2.24529C6.41204 2.25287 5.6571 2.39182 4.94238 2.65602C4.42453 2.85171 3.95683 3.16039 3.5733 3.55961C3.17373 3.94284 2.86499 4.41063 2.66971 4.92869C2.40604 5.64356 2.26711 6.3984 2.25898 7.1603C2.19053 8.41985 2.19053 8.80319 2.19053 12.0068C2.19053 13.9759 2.21639 14.8795 2.23632 15.576C2.24882 16.0127 2.25898 16.368 2.25898 16.8534C2.26711 17.6153 2.40604 18.3701 2.66971 19.085C2.8654 19.6028 3.17409 20.0706 3.5733 20.4541C3.95683 20.8533 4.42453 21.162 4.94238 21.3577C5.65718 21.6216 6.41206 21.7605 7.17399 21.7684C8.43354 21.8369 8.81688 21.8369 12.0205 21.8369C13.9896 21.8369 14.8932 21.811 15.5897 21.7911C16.0264 21.7786 16.3817 21.7684 16.8671 21.7684C17.629 21.7603 18.3838 21.6213 19.0987 21.3577C20.1418 20.9529 20.9665 20.1281 21.3714 19.085Z" fill="url(#paint1_linear)"/>
<path d="M18.8391 7.2C19.4466 7.2 19.9391 6.70751 19.9391 6.1C19.9391 5.49249 19.4466 5 18.8391 5C18.2316 5 17.7391 5.49249 17.7391 6.1C17.7391 6.70751 18.2316 7.2 18.8391 7.2Z" fill="url(#paint2_linear)"/>
<defs>
<linearGradient id="paint0_linear" x1="11.2681" y1="-8.40208" x2="-9.00086" y2="12.5914" gradientUnits="userSpaceOnUse">
<stop stop-color="#613ECF"/>
<stop offset="0.462249" stop-color="#DC2366"/>
<stop offset="1" stop-color="#FF9700"/>
</linearGradient>
<linearGradient id="paint1_linear" x1="10.7453" y1="-22.975" x2="-24.0015" y2="13.0138" gradientUnits="userSpaceOnUse">
<stop stop-color="#613ECF"/>
<stop offset="0.462249" stop-color="#DC2366"/>
<stop offset="1" stop-color="#FF9700"/>
</linearGradient>
<linearGradient id="paint2_linear" x1="18.7241" y1="2.89396" x2="15.539" y2="6.19293" gradientUnits="userSpaceOnUse">
<stop stop-color="#613ECF"/>
<stop offset="0.462249" stop-color="#DC2366"/>
<stop offset="1" stop-color="#FF9700"/>
</linearGradient>
</defs>
</svg>
