<svg width="157" height="140" viewBox="0 0 157 140" fill="none" xmlns="http://www.w3.org/2000/svg">
<path d="M48.3843 105.055C48.7801 106.837 49.1759 108.619 49.1759 110.401C49.1759 121.29 40.4687 130.002 29.5847 130.002C18.7007 130.002 9.99349 121.29 9.99349 110.401C9.99349 99.5117 18.7007 90.8003 29.5847 90.8003C34.9277 90.8003 39.875 92.9782 43.437 96.5419L50.9569 90.2064C50.759 90.0084 50.5611 89.8104 50.3632 89.6124C38.8856 78.1292 20.0859 78.1292 8.60825 89.6124C-2.86942 101.096 -2.86942 119.904 8.60825 131.388C20.0859 142.871 38.8856 142.871 50.3632 131.388C58.8725 122.874 61.0493 110.599 57.0915 100.106L48.3843 105.055Z" fill="url(#paint0_linear)"/>
<path d="M154.691 98.6529C149.822 86.9257 138.139 80.2803 126.261 81.0621L127.234 90.6393C127.429 90.6393 127.818 90.6393 128.013 90.6393C138.723 90.6393 147.291 99.2393 147.291 109.989C147.291 120.739 138.723 129.339 128.013 129.339C117.303 129.339 108.735 120.739 108.735 109.989C108.735 102.953 112.435 96.6984 118.082 93.3757L115.161 83.7984C101.336 90.6393 95.299 107.057 101.336 121.326C107.567 136.18 124.703 143.021 139.502 136.571C154.106 130.707 160.922 113.507 154.691 98.6529Z" fill="url(#paint1_linear)"/>
<path d="M133.413 108.448L116.95 53L107.231 58.7634C108.818 59.7571 110.405 60.7508 111.992 61.5457L105.248 59.7571L91.562 67.9054C91.7603 68.7003 91.7603 69.4953 91.7603 70.2902C91.7603 71.6814 91.562 72.8738 91.1653 74.0662C90.7686 75.0599 90.3719 76.0536 89.9752 76.6498C89.1818 78.2397 88.3884 79.4322 87.595 80.8233C87.3967 81.2208 87.1983 81.6183 87 82.0158L111 67.9054L125.479 116L135 113.218L133.413 108.448Z" fill="url(#paint2_linear)"/>
<path d="M27.898 116L67.2775 92.5269C67.6694 90.1398 68.0612 87.9516 68.649 86.1613C69.4327 83.3763 70.2163 80.9892 71 79L23 107.446L27.898 116Z" fill="url(#paint3_linear)"/>
<path fill-rule="evenodd" clip-rule="evenodd" d="M60.2619 68C64.3619 71.1387 67.8762 74.866 71 78.9857L58.5048 86.4402C51.8667 78.0048 41.519 72.512 30 72.512L30.0029 72.5112C33.1258 71.7268 36.2486 70.9424 39.3714 70.3541C46.5952 68.9808 54.0143 68.1962 60.2619 68ZM66.3143 109C66.3143 104.096 65.1429 99.1914 63.3857 94.8756L67.4857 92.5215C66.7048 97.0335 66.3143 102.526 66.3143 109Z" fill="url(#paint4_linear)"/>
<path d="M89.4211 27C69.4868 29.6809 53.8947 40.5957 46 54L60.4079 51.1277C63.1711 48.2553 66.5263 45.5745 70.4737 43.2766C76.3947 39.8298 83.3026 37.3404 91 36.383C90.2105 33.5106 89.6184 30.2553 89.4211 27Z" fill="url(#paint5_linear)"/>
<path d="M88.2299 26.4835C88.8161 33.4066 90.1839 39.5385 93.1149 45.0769C95.8506 50.4176 100.149 54.967 105.425 58.5275L115 52.7912C108.356 49.4286 104.253 45.4725 101.517 40.3297C98.977 35.3846 97.8046 29.0549 97.8046 21.1429V16C78.4598 16 61.6552 22.9231 49.5402 33.8022C43.4828 39.1429 38.5977 45.6703 35.2759 52.5934C32.1494 58.9231 30.3908 65.6484 30 72.5714C33.1264 71.7802 36.2529 70.989 39.3793 70.3956C47.1954 68.8132 55.0115 68.022 61.6552 68.022C64.3908 68.022 67.1264 68.2198 69.2759 68.4176C72.4023 68.8132 74.5517 69.6044 75.5287 70.1978C75.1379 70.989 74.5517 71.978 73.7701 73.1648C72.2069 76.1319 70.2529 80.2857 68.6897 86.2198C67.1264 92.1538 66.1494 99.4725 66.1494 109.363V121.626L80.6092 124V109.363C80.6092 102.44 81.1954 97.0989 81.977 92.9451C83.1494 86.6154 84.908 83.2527 86.2759 80.4835C87.0575 79.0989 87.8391 77.9121 88.6207 76.3297C89.0115 75.5385 89.4023 74.7473 89.7931 73.7582C90.1839 72.7692 90.3793 71.3846 90.3793 70C90.3793 68.2198 89.9885 66.6374 89.4023 65.0549C88.4253 62.2857 86.4713 60.1099 84.3218 58.5275C81.1954 56.1538 77.6782 55.1648 73.7701 54.3736C70.0575 53.5824 65.7586 53.3846 61.4598 53.3846C56.1839 53.3846 50.7126 53.7802 45.046 54.5714C53.0575 40.5275 68.4943 29.2527 88.2299 26.4835Z" fill="url(#paint6_linear)"/>
<path d="M99 1.92872C99 1.92872 99 6.77614 99 11.6236C99 11.6236 99 11.6236 99 16.471C99 26.1658 109.101 28.4926 113.949 26.1658C113.949 26.1658 119 16.471 119 11.8175C119 1.73482 108.899 -2.9187 99 1.92872Z" fill="url(#paint7_linear)"/>
<path d="M58 104.5C57.6154 102.732 57.2308 100.768 56.4615 99L48 104.107C48.3846 105.875 48.7692 107.643 48.7692 109.411C48.7692 109.607 48.7692 109.804 48.7692 110L58 104.5Z" fill="url(#paint8_linear)"/>
<path d="M114.308 83C112.692 83.8235 111.256 84.8529 110 86.0882L112.872 97C114.128 95.5588 115.385 94.1176 117 93.0882L114.308 83Z" fill="url(#paint9_linear)"/>
<path d="M60.5181 68C54.2176 68.1765 46.7358 68.8824 39.4508 70.1176C36.3005 70.6471 33.1503 71.3529 30 72.0588C34.3316 72.0588 38.4663 72.7647 42.4041 74H68C65.8342 71.7059 63.2746 69.7647 60.5181 68Z" fill="url(#paint10_linear)"/>
<path d="M153.664 99.0071C152.037 95.7286 149.392 91.8714 145.121 88.5929C140.849 85.3143 134.747 83 127.627 83C127.017 83 126.407 83 126 83L126.203 84.7357C126.61 84.7357 127.22 84.7357 127.627 84.7357C141.052 84.9286 149.596 93.2214 152.647 99.3929C155.902 105.757 155.902 110 155.902 110C155.902 109.807 156.715 105.757 153.664 99.0071Z" fill="white"/>
<path d="M110.937 87.621C106.481 90.8468 104.051 95.0806 102.43 98.5081C99.3924 105.565 100.203 110 100 110C100.203 110 100 105.565 103.241 98.9113C105.266 94.6774 109.519 89.6371 116 86.6129L115.392 85C113.772 85.6048 112.354 86.6129 110.937 87.621Z" fill="url(#paint11_linear)"/>
<path d="M46.4435 88.5929C42.3138 85.3143 36.4142 83 29.5314 83C22.8452 83 16.9456 85.5071 12.6192 88.5929C8.29289 91.6786 5.93305 95.7286 4.35983 99.0071C1.41004 105.757 2.19665 110 2 110C2.19665 110 2 105.757 5.14644 99.3929C8.09623 93.2214 16.5523 84.9286 29.3347 84.7357C37.3975 84.7357 43.887 88.2071 48.0167 92.0643L49 91.1C48.41 90.3286 47.4268 89.3643 46.4435 88.5929Z" fill="white"/>
<path opacity="0.5" d="M121.439 85.9015C126.512 103.164 131 113 131 113C131 113 128.073 102.763 123 85.5C117.927 68.2372 115 58 115 58C115 58 116.561 68.6387 121.439 85.9015Z" fill="white"/>
<path opacity="0.5" fill-rule="evenodd" clip-rule="evenodd" d="M91.3725 70.2213V69.8298L105 62C105 62 100.26 65.3276 91.3725 71.2V70.2213ZM66.4875 86.4681C41.8 100.953 26 108 26 108C26 108 40.8125 99.1915 65.5 84.9021C67.2775 83.7277 69.055 82.7489 70.8325 81.7702C70.7487 82.1025 70.6293 82.4349 70.5045 82.7822C70.3353 83.2531 70.1562 83.7516 70.0425 84.3149C69.45 84.7064 68.8575 85.049 68.265 85.3915C67.6725 85.734 67.08 86.0766 66.4875 86.4681Z" fill="white"/>
<path opacity="0.5" d="M71.5183 90.7047C74.0593 79.0881 77.1867 72.1969 76.9913 72C77.1867 72 72.3002 78.1036 69.7592 90.3109C67.4136 102.518 68.1955 110 68 110C68 110 69.1728 102.518 71.5183 90.7047Z" fill="white"/>
<path d="M75.5402 59.3458C80.0101 60.7624 83.5083 62.3814 85.4517 65.0123C87.3952 67.6432 88.1725 70.8812 87.7838 73.3097C87.3952 75.7382 86.4234 77.762 86.0348 78.9762C85.4517 80.3929 85.2574 81 85.2574 81C85.2574 81 85.6461 80.3929 86.2291 79.1786C86.8121 77.9644 87.9782 76.143 88.7556 73.5121C89.3386 70.8812 88.9499 67.2385 86.8121 64.2028C84.6743 60.9648 80.5931 58.7387 76.1232 57.5244C66.7948 55.2983 59.2154 56.1078 53.9681 56.3102C48.7208 56.7149 46 57.3221 46 57.1197C46 57.1197 51.636 56.9173 56.3002 56.9173C63.2966 57.1197 69.9042 57.7268 75.5402 59.3458Z" fill="white"/>
<path d="M72.7843 25.3025C77.4902 23.5299 82 22.3482 86.3137 21.5604C88.4706 21.1665 90.6274 20.9695 92.7843 20.7726C93.3725 20.7726 94.1569 20.5756 94.7451 20.5756C94.7451 21.1665 94.7451 21.3634 94.7451 21.3634C94.9412 29.4385 96.5098 36.7258 99.2549 41.8466C102 46.9674 105.529 49.9217 108.078 51.4973C110.627 53.0729 112 53.6638 112 53.8607C112 53.8607 110.627 53.0729 108.275 51.3003C105.922 49.5277 102.784 46.5734 100.235 41.4527C97.6863 36.5288 96.3137 29.4385 96.3137 21.5604V19C96.3137 19 96.3137 19 95.7255 19C95.3333 19 93.5686 19 92.5882 19.197C90.4314 19.3939 88.2745 19.5909 85.9216 19.9848C81.4118 20.7726 76.7059 21.9543 72 23.7269C52.7843 31.0141 41.6078 44.6039 36.902 54.4516C32 64.6931 32.1961 71.1926 32 70.9956C32.1961 70.9956 32.5882 64.6931 37.6863 54.8455C42.9804 45.1948 53.9608 32.3928 72.7843 25.3025Z" fill="white"/>
<path d="M113.792 8.83348C115.391 13.3295 113.592 19.256 112.993 21.0953C112.393 22.9345 111.593 26 111.593 26C111.593 26 112.393 24.3651 113.592 21.504C114.192 20.0735 114.792 18.2342 115.391 15.9862C115.991 13.7382 116.391 11.0815 115.391 8.22039C113.192 2.49822 107.396 1.68076 104.597 2.08949C101.399 2.49822 100 3.31567 100 3.31567C100 3.31567 101.799 2.90694 104.797 3.11131C107.596 3.11131 112.193 4.33749 113.792 8.83348Z" fill="white"/>
<defs>
<linearGradient id="paint0_linear" x1="59.0722" y1="139.849" x2="59.0722" y2="80.8549" gradientUnits="userSpaceOnUse">
<stop stop-color="#FF6600"/>
<stop offset="0.244" stop-color="#FF8200"/>
<stop offset="0.5385" stop-color="#FF9D00"/>
<stop offset="0.8001" stop-color="#FFAD00"/>
<stop offset="1" stop-color="#FFB300"/>
</linearGradient>
<linearGradient id="paint1_linear" x1="157.063" y1="139.256" x2="157.063" y2="81.0068" gradientUnits="userSpaceOnUse">
<stop stop-color="#FF6600"/>
<stop offset="0.1388" stop-color="#FF7D00"/>
<stop offset="0.3228" stop-color="#FF9500"/>
<stop offset="0.5189" stop-color="#FFA600"/>
<stop offset="0.7332" stop-color="#FFB000"/>
<stop offset="1" stop-color="#FFB300"/>
</linearGradient>
<linearGradient id="paint2_linear" x1="102.897" y1="115.548" x2="128.628" y2="106.741" gradientUnits="userSpaceOnUse">
<stop stop-color="#FF6600"/>
<stop offset="0.0752718" stop-color="#FF7100"/>
<stop offset="0.3112" stop-color="#FF8E00"/>
<stop offset="0.546" stop-color="#FFA200"/>
<stop offset="0.777" stop-color="#FFAF00"/>
<stop offset="1" stop-color="#FFB300"/>
</linearGradient>
<linearGradient id="paint3_linear" x1="54.8923" y1="64.5427" x2="16.6375" y2="102.987" gradientUnits="userSpaceOnUse">
<stop stop-color="#FF6600"/>
<stop offset="0.1388" stop-color="#FF7D00"/>
<stop offset="0.3228" stop-color="#FF9500"/>
<stop offset="0.5189" stop-color="#FFA600"/>
<stop offset="0.7332" stop-color="#FFB000"/>
<stop offset="1" stop-color="#FFB300"/>
</linearGradient>
<linearGradient id="paint4_linear" x1="41.8951" y1="66.2258" x2="40.1848" y2="84.899" gradientUnits="userSpaceOnUse">
<stop stop-color="#FF6600"/>
<stop offset="1" stop-color="#FFB300"/>
</linearGradient>
<linearGradient id="paint5_linear" x1="59.06" y1="63.6355" x2="88.2765" y2="31.5344" gradientUnits="userSpaceOnUse">
<stop stop-color="#FF6600"/>
<stop offset="1" stop-color="#FFB300"/>
</linearGradient>
<linearGradient id="paint6_linear" x1="66.0292" y1="131.365" x2="119.182" y2="89.9247" gradientUnits="userSpaceOnUse">
<stop stop-color="#FF6600"/>
<stop offset="0.0752718" stop-color="#FF7100"/>
<stop offset="0.3112" stop-color="#FF8E00"/>
<stop offset="0.546" stop-color="#FFA200"/>
<stop offset="0.777" stop-color="#FFAF00"/>
<stop offset="1" stop-color="#FFB300"/>
</linearGradient>
<linearGradient id="paint7_linear" x1="118.894" y1="26.8012" x2="118.894" y2="-0.044748" gradientUnits="userSpaceOnUse">
<stop stop-color="#FF6600"/>
<stop offset="0.1388" stop-color="#FF7D00"/>
<stop offset="0.3228" stop-color="#FF9500"/>
<stop offset="0.5189" stop-color="#FFA600"/>
<stop offset="0.7332" stop-color="#FFB000"/>
<stop offset="1" stop-color="#FFB300"/>
</linearGradient>
<linearGradient id="paint8_linear" x1="56.1359" y1="105.321" x2="53.054" y2="100.896" gradientUnits="userSpaceOnUse">
<stop stop-color="#FF9900"/>
<stop offset="1" stop-color="#F26100"/>
</linearGradient>
<linearGradient id="paint9_linear" x1="111.566" y1="95.3534" x2="116.352" y2="94.9419" gradientUnits="userSpaceOnUse">
<stop stop-color="#FFB300"/>
<stop offset="1" stop-color="#F26100"/>
</linearGradient>
<linearGradient id="paint10_linear" x1="29.9275" y1="67.9688" x2="29.9275" y2="74.0099" gradientUnits="userSpaceOnUse">
<stop stop-color="#F26100"/>
<stop offset="1" stop-color="#FF8000"/>
</linearGradient>
<linearGradient id="paint11_linear" x1="113.517" y1="99.8206" x2="118.907" y2="99.1603" gradientUnits="userSpaceOnUse">
<stop stop-color="white"/>
<stop offset="1" stop-color="white"/>
</linearGradient>
</defs>
</svg>
