<svg width="186" height="183" viewBox="0 0 186 183" fill="none" xmlns="http://www.w3.org/2000/svg">
<path d="M66.4271 178.595C69.7776 172.722 71.8716 171.043 75.6408 165.17C76.0596 164.331 76.4784 163.911 76.8972 163.492C64.7519 158.038 55.9571 147.13 53.8631 133.705C53.4443 133.705 52.6067 133.705 52.1879 133.705C47.9998 133.286 43.8118 129.51 35.4358 122.378C28.3161 116.505 24.1281 111.47 22.4529 109.792C18.6837 105.177 14.9145 100.982 11.1453 93.8499C9.88886 91.3327 6.95724 85.4593 5.28203 78.3273C4.86323 75.8101 4.44443 74.132 4.02563 71.6148C4.02563 70.3562 4.02563 69.0976 4.02563 67C4.02563 67.4195 3.60683 67.8391 3.60683 68.2586C3.18802 70.3562 2.35042 72.8734 1.93162 74.9711C1.93162 75.3906 1.93162 75.8101 1.51281 76.6492C1.09401 78.7468 0.675211 81.264 0.675211 83.7812C0.675211 84.2007 0.675211 84.6203 0.675211 85.4593C0.675211 87.557 0.256409 90.0741 0.256409 92.1718C0.256409 92.5913 0.256409 92.5913 0.256409 93.0108C0.256409 134.544 27.4785 169.785 64.7519 181.532C65.1707 181.112 65.5895 179.854 66.4271 178.595Z" fill="#202020"/>
<path d="M182.017 67.4194C182.435 69.5171 182.017 71.1952 182.017 72.4538C182.017 74.971 181.598 76.6491 180.76 79.1663C179.085 86.7178 176.153 92.1717 174.897 94.6889C171.128 101.401 167.358 106.016 163.589 110.631C161.914 112.309 157.726 117.343 150.606 123.217C142.23 130.349 138.042 133.705 133.854 134.544C133.017 134.544 132.598 134.544 131.76 134.544C129.247 147.969 120.453 158.877 108.726 164.331C109.145 164.75 109.145 165.17 109.564 166.009C113.333 171.882 115.008 173.56 118.777 179.434C119.615 180.692 120.034 181.951 120.871 182.79C158.564 171.043 185.786 135.803 185.786 93.8498C185.786 84.2006 184.529 75.81 182.017 67.4194Z" fill="#202020"/>
<path d="M37.4455 61.7798C40.3738 63.4495 47.4851 67.6239 59.6163 77.6422C68.8193 85.5734 73.0025 88.4954 75.0941 90.5826C80.5322 88.078 86.3886 86.4083 93.0817 86.4083C99.7747 86.4083 106.05 88.078 111.488 91C113.579 88.4954 117.762 85.5734 126.965 78.0596C139.515 67.6239 146.208 63.4495 149.136 62.1972C154.993 59.2752 164.614 55.5183 178 54.6835C163.359 22.5413 131.149 0 93.5 0C55.8515 0 23.6411 22.1239 9 54.2661C21.9678 55.1009 31.5891 58.8578 37.4455 61.7798Z" fill="#FF9500"/>
<path d="M118 127C118 127 109.25 132.265 108.833 132.704C107.583 133.581 103 141.917 103 141.917C103 141.917 110.083 142.794 114.25 138.846C118 134.897 118 127 118 127Z" fill="#202020"/>
<path fill-rule="evenodd" clip-rule="evenodd" d="M69 127C69 127 77.6486 131.709 78.5135 132.565C79.3784 133.849 85 141.983 85 141.983C85 141.983 77.2162 142.411 73.3243 138.986C69 135.134 69 127 69 127ZM70.7297 132.565C70.7297 132.993 71.1622 133.421 71.5946 133.421C72.027 133.421 72.4595 132.993 72.4595 132.565C72.4595 132.137 72.027 131.709 71.5946 131.709C71.1622 131.709 70.7297 132.137 70.7297 132.565Z" fill="#202020"/>
<path d="M108 94.7807C108 93.9895 99.1004 90.0336 88.5056 91.2204C82.1488 92.0116 80.4536 93.9895 80.0298 94.3851C77.4871 97.9454 80.4536 103.088 80.4536 103.088C80.4536 103.088 79.606 98.7366 82.5726 95.9675C83.8439 94.7807 86.3867 94.3851 86.8105 95.1763C87.658 95.9675 84.2677 97.5499 84.6915 101.506C84.6915 105.857 90.2008 111 90.2008 111C90.2008 111 85.5391 106.253 87.2343 100.715C88.0818 97.9454 93.1673 95.1763 92.7435 95.5719C92.3197 95.9675 91.896 104.671 93.1673 104.671C93.1673 104.671 91.896 98.7366 95.7101 95.9675C99.1004 92.0116 108 95.5719 108 94.7807Z" fill="#202020"/>
<path d="M92 158.667C87.5185 158.667 83.4444 157.667 81 157C83.037 158.333 86.7037 161 92 161C97.2963 161 100.963 158.333 103 157C100.556 157.667 96.4815 158.667 92 158.667Z" fill="#202020"/>
<path d="M124.438 112.69C113.653 108.166 105.358 115.158 92.0852 115.57C78.8125 115.158 70.517 107.754 59.733 112.69C57.6591 113.513 56 115.57 56 115.57C56 115.57 65.5398 112.69 74.6648 116.392C76.3239 117.215 81.3011 119.272 84.6193 123.796C86.2784 126.264 87.108 128.321 88.3523 133.256C88.767 134.49 89.1818 135.724 89.1818 136.547C89.1818 136.547 90.8409 145.596 89.1818 148.064C88.767 148.887 87.5227 149.298 87.5227 150.121C87.5227 150.532 87.9375 150.943 88.3523 151.355C88.3523 151.355 88.3523 151.355 88.767 151.766C88.767 151.766 89.1818 151.766 89.1818 152.177C89.5966 152.177 89.5966 152.589 90.0114 152.589C90.8409 153 91.6705 153 92.5 153C93.3295 153 94.1591 152.589 94.9886 152.589C95.4034 152.589 95.4034 152.177 95.8182 152.177C95.8182 152.177 96.233 152.177 96.233 151.766C96.233 151.766 96.233 151.766 96.6477 151.355C97.0625 150.943 97.4773 150.532 97.4773 150.121C97.4773 149.298 96.6477 148.887 95.8182 148.064C94.1591 145.596 95.8182 136.547 95.8182 136.547C96.233 135.313 96.233 134.49 96.6477 133.256C97.892 128.732 98.7216 126.264 100.381 123.796C103.699 119.272 108.261 117.215 110.335 116.392C119.46 112.69 129 115.57 129 115.57C129 115.57 126.926 113.513 124.438 112.69Z" fill="#202020"/>
</svg>
