<svg width="120" height="106" viewBox="0 0 120 106" fill="none" xmlns="http://www.w3.org/2000/svg">
<path fill-rule="evenodd" clip-rule="evenodd" d="M40.4516 21.0967C40.4516 21.0967 38.9032 20.516 36.3871 20.3225C33.871 20.1289 31.1613 21.6773 31.1613 21.6773C32.3226 21.4838 33.0968 21.4838 35.2258 21.2902C37.1613 20.9031 40.4516 21.0967 40.4516 21.0967ZM87.2903 23.9999C87.871 23.8063 91.5484 23.0321 94.0645 20.7096C95.6129 19.3547 94.8387 16.645 94.2581 15.0967C94.4516 16.645 94.0645 19.3547 92.9032 20.7096C91.5484 22.258 87.2903 23.9999 87.2903 23.9999ZM60.7742 39.4838C60.5807 40.8386 60.7742 39.4838 60.7742 39.4838V39.4838ZM94.2581 15.0967C94.2581 14.7096 94.0645 14.516 94.0645 14.3225C93.6774 13.9354 94.0645 14.3225 94.2581 15.0967ZM51.2903 98.9031L50.9032 98.1289L50.5161 98.9031L49.5484 99.0967L50.3226 99.6773L49.9355 100.645L50.7097 100.258L51.4839 100.645L51.2903 99.6773L52.0645 99.0967L51.2903 98.9031ZM66.5807 100.064L66.1936 99.2902L65.8065 100.064L64.8387 100.258L65.6129 100.839L65.4194 101.806L66.1936 101.419L66.9678 101.806L66.7742 100.839L67.5484 100.258L66.5807 100.064ZM73.5484 98.516L73.1613 97.7418L72.7742 98.516L71.8065 98.7096L72.5807 99.2902L72.3871 100.258L73.1613 99.8709L73.9355 100.258L73.7419 99.2902L74.5161 98.7096L73.5484 98.516ZM58.4516 100.064L58.0645 99.2902L57.6774 100.064L56.7097 100.258L57.4839 100.839L57.2903 101.806L58.0645 101.419L58.8387 101.806L58.6452 100.839L59.4194 100.258L58.4516 100.064ZM71.0323 77.9999C71.4194 78.387 72.5807 77.9999 73.3549 76.6451C73.7419 75.8709 74.129 74.3225 73.3549 72.7741C72.5807 71.2257 71.4194 71.2257 71.2258 71.4192C70.4516 71.9999 71.0323 72.5805 71.4194 73.5483C71.8065 74.3225 71.6129 75.4838 71.2258 76.0644C70.8387 76.4515 70.6452 77.6128 71.0323 77.9999ZM91.9355 52.2579C91.5484 52.2579 91.1613 52.645 91.1613 53.0321C91.1613 53.4192 91.5484 53.8063 91.9355 53.8063C92.3226 53.8063 92.7097 53.4192 92.7097 53.0321C92.9032 52.645 92.5161 52.2579 91.9355 52.2579ZM114.968 71.9999C113.806 70.8386 112.839 69.2902 112.452 67.5483C112.065 65.8063 113.419 64.4515 114 63.4838C114.581 62.516 114.194 61.3547 113.806 60.9676C113.419 60.5805 112.258 60.1934 110.323 61.1612C108.387 62.1289 107.806 64.645 107.419 65.9999C106.645 69.2902 109.161 73.1612 109.161 73.1612C109.161 73.1612 105.097 70.0644 104.516 69.4838C102.194 67.1612 102 65.4192 102.581 62.1289C103.161 58.8386 103.935 57.6773 102.194 53.6128C101.032 50.7096 98.129 49.1612 97.1613 48.7741C97.7419 48.9676 97.5484 48.9676 97.1613 48.7741C98.5161 47.8063 100.065 46.4515 100.258 45.0967C101.032 41.9999 100.839 42.5805 100.839 42.5805C100.839 42.5805 105.29 41.9999 105.677 37.3547C106.065 32.7096 102.968 30.5805 102.968 30.5805C102.968 30.5805 105.871 29.2257 104.903 26.3225C103.935 23.4192 99.871 24.1934 99.871 24.1934C99.871 24.1934 103.548 13.9354 93.6774 6.77408C85.7419 1.16118 76.8387 4.64505 75.0968 5.80634C73.3548 7.16118 72.3871 8.12892 72.3871 8.12892C72.3871 8.12892 72.1936 3.09666 67.3548 2.90311C63.871 2.70956 62.5161 3.87085 62.5161 3.87085C62.5161 3.87085 60.3871 2.70956 58.4516 3.09666C56.5161 3.48376 54.7742 4.8386 54.7742 4.8386C54.7742 4.8386 52.8387 1.16118 49.1613 0.967629C45.4839 0.774081 43.1613 1.54827 41.4194 2.70956C36.1936 5.99989 35.6129 11.0321 36.3871 13.9354C37.1613 16.8386 36.7742 16.0644 36.7742 16.0644C36.7742 16.0644 27.4839 15.8709 21.6774 23.0321C15.871 30.1934 18.5807 35.6128 20.129 38.3225C21.6774 40.8386 24 41.8063 24 41.8063C24 41.8063 24.3871 43.7418 24.9677 45.4838C23.8065 45.2902 22.2581 44.9031 22.2581 44.9031C22.2581 44.9031 20.9032 43.1612 18.7742 43.7418C16.6452 44.3225 16.6452 46.0644 16.6452 46.0644C16.6452 46.0644 13.7419 47.6128 12.7742 51.0967C11.8065 54.5805 12 56.3225 13.3548 60.387C14.7097 64.4515 16.6452 66.387 17.0323 66.5805C17.4194 66.9676 18 67.1612 18.5807 66.9676C19.1613 66.9676 19.3548 66.9676 19.3548 66.9676C19.3548 66.9676 19.7419 69.2902 18.9677 70.8386C18.1936 72.387 15.2903 76.4515 13.5484 77.2257C11.8065 77.9999 9.09678 78.387 7.54839 77.0321C6.19356 75.8708 5.22581 75.0967 5.22581 72.5805C5.22581 70.0644 6.19356 69.0967 6.7742 68.7096C7.35485 68.3225 8.51614 67.9354 8.70968 68.516C9.09678 68.9031 9.29033 69.8709 9.09678 70.8386C9.09678 71.6128 8.90323 73.1612 9.87097 73.5483C10.8387 74.1289 12.7742 73.7418 13.9355 72.5805C15.2903 71.6128 16.6452 68.9031 15.6774 66.7741C14.7097 64.645 12.3871 62.516 9.29033 62.7096C6.19356 62.9031 2.12904 65.4192 1.35485 68.516C0.580652 71.6128 0.580652 75.6773 2.12904 77.9999C3.48388 80.7096 5.80646 83.2257 9.29033 83.6128C10.6452 83.8063 12.1936 83.4192 12.9677 83.4192C13.7419 83.2257 14.3226 83.2257 14.3226 83.2257C14.3226 83.2257 14.5161 84.387 15.0968 85.1612C15.4839 85.9354 15.871 86.7096 15.4839 87.2902C15.0968 87.8708 13.1613 90.387 12.7742 90.7741C12.3871 91.1612 12 92.1289 12.3871 93.4838C12.7742 94.8386 13.9355 98.516 14.7097 99.2902C15.2903 100.064 16.6452 101.032 18.1936 101.032C19.7419 101.032 21.6774 100.839 22.6452 100.839C23.4194 100.839 24.5807 100.064 24.7742 98.9031C24.9677 97.7418 24.3871 96.5805 23.4194 95.8063C22.4516 95.0321 21.0968 94.4515 20.7097 93.8709C20.3226 93.0967 20.129 92.7096 20.7097 92.3225C21.2903 91.9354 23.8065 90.1934 24.7742 89.8063C25.7419 89.2257 26.7097 88.4515 26.9032 87.4838C27.0968 86.516 27.2903 84.7741 27.2903 84.7741H28.6452C28.6452 84.7741 28.4516 87.2902 28.6452 88.2579C28.8387 89.2257 29.4194 90.387 31.7419 90.5805C33.2903 90.5805 35.2258 90.5805 36.3871 90.5805C36.3871 90.9676 36.5807 91.3547 36.5807 91.5483C36.9678 92.1289 38.3226 93.6773 38.3226 93.6773C38.3226 93.6773 37.5484 95.0321 36.9678 95.9999C36 96.9676 36.7742 98.7096 38.129 98.7096C39.4839 98.7096 42.9678 98.7096 42.9678 98.7096C42.9678 98.7096 42.9677 99.2902 43.1613 100.258C43.3548 101.226 47.4194 105.871 60.3871 105.871C73.3548 105.871 77.6129 102.774 78.9678 101.613C80.3226 100.645 80.129 98.516 80.129 98.516C80.129 98.516 83.0323 98.516 84.7742 98.516C86.5161 98.516 86.9032 96.7741 86.5161 96.1934C86.3226 95.8063 84.9678 93.6773 84.9678 93.6773C84.9678 93.6773 85.3548 93.0967 86.129 92.1289C86.7097 92.9031 88.0645 93.4838 89.0323 93.4838C90 93.4838 91.5484 93.2902 92.129 92.516C92.9032 91.7418 93.4839 91.5483 96 91.1612C98.5161 90.7741 98.9032 90.387 99.4839 89.6128C100.065 88.8386 99.871 87.2902 99.871 87.2902H100.839C100.839 87.2902 101.226 87.8709 101.613 88.4515C102 89.0321 103.548 89.6128 104.129 89.8063C104.71 89.9999 105.484 91.1612 105.484 91.1612C105.484 91.1612 102.968 96.7741 102.581 97.9354C102.194 99.0967 102.194 99.8709 102.774 100.839C103.355 101.613 105.29 101.613 106.645 101.613C108 101.419 109.161 100.258 109.355 99.0967C109.548 97.9354 110.129 95.4192 110.71 93.4838C111.097 91.7418 111.871 90.7741 112.452 89.4192C112.839 88.0644 112.065 86.9031 111.677 86.516C111.29 85.9354 110.516 84.5805 110.516 84.5805C110.516 84.5805 111.29 84.9676 111.677 85.1612C112.065 85.3547 113.419 85.5483 114.194 85.7418C114.774 85.7418 119.032 85.1612 119.032 80.9031C119.226 76.2579 116.129 73.3547 114.968 71.9999ZM103.742 35.0321C103.935 36.1934 103.355 36.7741 102.581 35.9999C101.613 35.4192 98.7097 33.8709 95.4194 33.6773C94.6452 33.6773 100.065 34.4515 102 36.7741C103.161 38.1289 103.355 39.4838 102.387 40.0644C101.419 40.645 99.6774 40.4515 97.7419 38.1289C95.8065 35.8063 90.7742 33.6773 84.5807 35.6128C84.5807 35.6128 91.1613 30.5805 96 30.9676C100.645 31.7418 103.548 33.8709 103.742 35.0321ZM92.129 41.9999C93.2903 41.4192 95.2258 40.645 96.3871 41.6128C97.5484 42.5805 96.5807 44.1289 95.2258 44.1289C92.7097 44.516 90.3871 42.5805 90.3871 42.5805C92.7097 42.1934 90.7742 42.5805 92.129 41.9999ZM75.0968 10.0644C76.0645 8.51602 78.7742 5.61279 84.5807 6.19344C90.3871 6.77408 95.6129 9.48376 97.1613 14.1289C98.9032 18.7741 97.9355 22.4515 95.6129 24.5805C92.129 27.4838 88.2581 27.8709 83.8065 29.4192C79.5484 30.9676 75.6774 33.2902 71.6129 39.0967C71.6129 39.0967 74.129 32.1289 77.6129 27.6773C81.0968 23.4192 87.2903 20.516 88.8387 19.5483C90.3871 18.7741 91.1613 16.258 89.6129 15.0967C88.0645 13.9354 86.3226 13.5483 85.1613 14.7096C83.8065 15.8709 82.8387 19.1612 80.129 17.9999C77.4194 16.8386 77.6129 14.1289 78.3871 12.387C79.1613 10.4515 81.871 9.09666 83.0323 8.90311C84.3871 8.70956 86.3226 8.51602 86.3226 8.51602C86.3226 8.51602 83.4194 7.16118 80.3226 8.12892C77.2258 9.09666 77.6129 11.6128 76.4516 12.1934C75.6774 12.7741 74.129 11.6128 75.0968 10.0644ZM72.9678 16.0644C76.8387 18.5805 73.5484 24.1934 73.5484 24.1934C73.7419 23.2257 73.1613 21.8709 72.7742 20.3225C72.3871 18.9676 70.4516 17.0321 70.6452 17.9999C70.6452 18.9676 69.0968 19.5483 67.5484 19.3547C65.8065 19.5483 66.3871 17.4192 66.7742 16.8386C67.1613 16.258 69.0968 13.7418 72.9678 16.0644ZM60 5.61279C61.5484 5.61279 62.9032 8.12892 62.9032 8.12892C62.9032 8.12892 63.871 5.99989 65.8065 5.03215C67.7419 4.0644 70.4516 5.80634 69.4839 7.16118C68.5161 8.32247 67.9355 7.35473 65.6129 8.51602C63.2903 9.48376 62.9032 16.8386 62.9032 16.8386C62.9032 16.8386 62.3226 12.9676 61.7419 11.4192C61.1613 9.67731 59.4194 9.29021 58.2581 9.48376C57.0968 9.67731 56.129 8.70956 56.129 7.54827C56.3226 6.19344 58.4516 5.61279 60 5.61279ZM57.0968 14.9031C58.8387 14.7096 59.6129 17.0321 57.2903 17.9999C54.9677 18.9676 54.3871 21.8709 54.3871 21.8709C54.3871 21.8709 54 21.0967 54 19.1612C53.8065 17.0321 55.3548 15.0967 57.0968 14.9031ZM23.2258 38.9031C22.4516 38.516 20.5161 36.9676 20.129 33.8709C19.7419 30.7741 21.4839 23.4192 29.2258 19.7418C36.9678 16.0644 42.7742 19.9354 42.7742 19.9354C40.6452 17.9999 39.2903 17.2257 38.3226 14.9031C37.5484 12.5805 37.7419 8.51602 39.871 5.99989C42 3.67731 45.4839 2.70956 49.3548 3.29021C53.2258 3.87085 53.4194 6.77408 53.4194 8.70956C53.4194 10.4515 51.4839 12.9676 50.3226 12.1934C49.1613 11.6128 49.3548 10.258 50.7097 8.70956C52.0645 7.16118 49.9355 5.61279 47.2258 5.41924C44.5161 5.22569 42.9678 6.96763 41.8065 8.32247C40.6452 9.67731 41.2258 11.9999 41.2258 11.9999C41.2258 11.9999 41.4194 11.0321 42.1936 9.67731C42.9678 8.32247 44.3226 7.35473 45.4839 8.12892C46.6452 8.90311 46.2581 10.645 45.4839 11.0321C44.7097 11.4192 43.9355 12.9676 44.129 14.9031C44.3226 16.8386 46.0645 19.1612 48.3871 20.9031C50.7097 22.645 55.1613 27.6773 55.1613 27.6773C55.1613 27.6773 55.7419 26.1289 57.4839 24.9676C59.2258 23.8063 58.6452 26.3225 57.871 27.2902C57.0968 28.258 57.0968 30.9676 58.2581 33.0967C59.2258 34.8386 60.9678 38.7096 61.1613 39.4838C61.1613 39.0967 61.3548 38.516 61.3548 37.5483C61.9355 33.4838 65.0323 29.0321 66.7742 27.4838C68.5161 25.9354 69.6774 26.516 68.7097 28.0644C67.7419 29.6128 65.4194 34.4515 65.0323 38.3225C64.6452 42.1934 67.5484 46.4515 67.5484 46.4515C67.5484 46.4515 68.5161 44.3225 70.8387 42.7741C73.3548 41.4192 77.2258 40.6451 79.7419 40.4515C82.2581 40.258 83.6129 39.8709 84.7742 39.2902C85.7419 38.7096 86.7097 39.8709 86.129 40.4515C85.5484 41.2257 84.5807 41.8063 81.871 41.9999C79.1613 42.1934 77.0323 43.3547 75.0968 44.1289C73.1613 44.9031 71.8065 47.9999 71.4194 49.1612C71.0323 50.3225 71.0323 54.7741 71.0323 55.7418C71.0323 56.7096 65.4194 55.7418 65.0323 55.5483C64.6452 55.3547 63.2903 54.387 62.9032 53.8063C62.5161 53.2257 61.7419 49.9354 61.7419 49.9354C61.7419 49.9354 61.5484 53.6128 60.9678 54.1934C60.3871 54.7741 59.8065 54.1934 59.4194 52.8386C59.0323 51.6773 58.2581 42.1934 58.2581 42.1934C58.2581 42.1934 57.871 51.4838 57.6774 52.8386C57.4839 54.1934 57.2903 54.5805 56.5161 54.387C55.7419 54.1934 55.1613 54.1934 55.1613 53.4192C55.1613 52.645 55.3548 49.1612 54.9678 47.6128C54.1936 46.4515 52.0645 46.4515 49.5484 45.0967C47.0323 43.9354 44.3226 41.9999 42.9678 40.645C41.6129 39.2902 43.1613 38.7096 43.5484 39.0967C43.9355 39.4838 45.0968 40.4515 48.5807 41.9999C52.0645 43.7418 54.9678 43.7418 54.9678 43.7418C54.9678 43.7418 55.3548 42.387 55.5484 39.6773C55.7419 36.9676 54.7742 33.8709 53.8065 32.516C52.8387 31.1612 50.9032 30.7741 49.1613 30.7741C47.4194 30.7741 46.4516 29.9999 46.4516 29.2257C46.4516 28.4515 48 28.4515 48.3871 28.8386C48.7742 29.2257 49.7419 29.2257 50.129 28.645C50.7097 28.0644 49.3548 27.0967 47.8065 26.516C46.2581 25.7418 43.7419 27.2902 43.3548 28.645C42.9678 29.9999 41.2258 30.9676 40.6452 30.5805C40.0645 29.9999 39.871 28.8386 41.8065 26.9031C43.7419 25.1612 47.4194 25.1612 47.0323 24.9676C44.9032 24.5805 41.6129 24.7741 39.0968 25.5483C36.7742 26.516 35.6129 28.0644 35.6129 29.0321C35.6129 29.9999 34.8387 31.3547 34.0645 31.5483C33.2903 31.5483 32.5161 30.7741 32.7097 29.0321C32.9032 27.2902 36 25.5483 36 25.5483C36 25.5483 32.3226 26.9031 31.1613 27.8709C30 28.8386 29.4194 30.7741 29.6129 31.9354C29.8065 33.0967 30 34.0644 29.0323 34.645C28.0645 35.2257 26.5161 34.4515 26.129 33.6773C25.9355 32.9031 25.1613 30.7741 27.4839 27.6773C29.8065 24.7741 35.6129 23.6128 32.9032 24.1934C30.1936 24.7741 27.6774 26.516 25.7419 28.258C23.8065 29.9999 23.2258 32.3225 23.8065 33.2902C24.3871 34.4515 24.9677 36.5805 24.7742 37.5483C25.1613 38.3225 24 39.2902 23.2258 38.9031ZM86.3226 65.8063C86.3226 65.8063 83.4194 62.9031 82.6452 60.7741C81.871 58.8386 80.9032 57.8709 79.7419 57.6773C78.5807 57.4838 77.6129 57.4838 77.2258 56.9031C76.8387 56.3225 76.6452 54.5805 76.6452 54.5805C76.6452 54.5805 78.7742 54.7741 80.129 55.1612C81.2903 55.5483 83.0323 56.7096 83.4194 57.6773C83.8065 58.645 85.3549 60.7741 86.129 61.1612C86.9032 61.7418 87.871 62.3225 87.871 62.3225C87.871 62.3225 87.0968 63.4838 86.7097 64.4515C86.3226 65.6128 86.3226 65.8063 86.3226 65.8063ZM78.3871 78.5805C78.3871 78.7741 78.3871 78.7741 78.3871 78.9676C75.0968 92.1289 62.3226 95.2257 61.9355 95.4192C61.5484 95.4192 44.7097 91.1612 44.7097 72.5805C44.7097 72.1934 44.7097 71.9999 44.7097 71.6128C44.9032 70.8386 45.0968 69.4838 45.0968 68.1289C45.0968 67.3547 44.9032 66.7741 44.7097 66.387C44.7097 63.4838 44.7097 61.3547 44.7097 59.9999C44.9032 59.9999 46.0645 59.6128 46.4516 59.0321C46.4516 60.1934 46.2581 63.6773 46.2581 72.9676C46.2581 89.6128 61.3548 93.4838 61.7419 93.4838C61.9355 93.4838 77.2258 89.6128 77.2258 72.9676C77.2258 64.8386 77.2258 61.1612 77.0323 59.6128C77.6129 59.8063 78.1936 59.8063 78.7742 59.9999C78.7742 62.1289 78.7742 65.6128 78.7742 71.2257C78.3871 72.1934 78 73.9354 77.8065 75.0967C78.1936 75.6773 78.3871 77.4192 78.3871 78.5805ZM50.9032 84.387L76.4516 59.8063C76.4516 61.1612 76.6452 64.6451 76.6452 72.7741C76.6452 88.6451 62.5161 92.3225 62.129 92.516C61.9355 92.3225 55.1613 90.5805 50.9032 84.387ZM50.5161 83.6128C48.7742 80.9031 47.8065 77.4192 47.8065 72.7741C47.8065 56.7096 48 59.0321 48 59.0321H76.0645L50.5161 83.6128ZM47.0323 58.2579C47.2258 57.6773 47.4194 57.0967 47.6129 56.3225H74.9032C74.9032 56.516 75.0968 56.7096 75.0968 57.0967C75.2903 57.4838 75.4839 57.8709 75.6774 58.2579H47.0323ZM44.9032 47.8063C40.8387 47.2257 37.9355 44.7096 39.4839 43.7418C40.6452 42.9676 41.0323 42.9676 42.1936 44.7096C43.5484 46.4515 45.4839 47.9999 44.9032 47.8063ZM45.4839 34.258C45.6774 32.7096 48.5807 32.516 49.7419 33.6773C51.0968 34.6451 51.871 36.7741 52.0645 37.3547C52.0645 37.3547 50.3226 35.8063 48.3871 35.9999C46.4516 35.8063 45.4839 35.8063 45.4839 34.258ZM32.5161 44.1289C31.7419 42.9676 29.8065 39.4838 32.9032 37.7418C36.1936 35.9999 37.3548 38.516 37.5484 39.2902C37.7419 40.258 36.3871 42.1934 34.6452 41.4192C32.9032 40.6451 33.871 39.0967 32.9032 40.0644C32.129 41.2257 32.5161 44.1289 32.5161 44.1289ZM18.3871 65.4192C18.3871 65.4192 12.5807 58.8386 14.5161 51.8709C15.2903 49.3547 16.6452 48.1934 18.1936 47.4192C18.3871 46.645 18.5807 45.6773 19.1613 45.4838C19.9355 45.2902 20.7097 45.6773 21.2903 46.8386C22.4516 46.8386 23.2258 47.0321 23.4194 47.0321C24.1936 47.4192 30.7742 48.387 31.9355 48.387C32.129 48.387 31.9355 49.5483 31.9355 49.9354C31.9355 50.3225 32.129 51.2902 31.7419 51.2902C31.5484 51.2902 28.4516 50.9031 27.871 52.2579C27.4839 53.6128 29.4194 53.9999 30.1936 53.8063C30.9677 53.6128 31.1613 53.4192 31.1613 53.4192L31.5484 54.7741C31.5484 54.7741 29.8065 54.5805 29.6129 55.3547C29.4194 55.9354 29.8065 56.3225 30.1936 56.516C30.5807 56.7096 31.7419 57.2902 32.3226 58.645C32.9032 59.6128 33.2903 61.1612 33.2903 61.1612H32.9032C32.9032 61.1612 27.871 60.387 23.8065 61.9354C20.7097 63.2902 18.3871 65.4192 18.3871 65.4192ZM25.9355 78.387C25.3548 80.3225 25.1613 84.1934 25.1613 85.3547C25.1613 86.516 25.1613 87.2902 23.6129 88.0644C22.0645 88.8386 18.7742 90.5805 18.3871 91.9354C18 93.2902 18.3871 94.2579 19.3548 95.0321C20.129 95.9999 21.871 96.5805 22.2581 97.1612C22.6452 97.5483 23.2258 98.9031 22.0645 98.9031C20.9032 99.0967 18.5807 98.9031 17.6129 98.9031C16.6452 98.9031 16.0645 98.3225 15.6774 97.3547C15.2903 96.387 14.3226 94.0644 14.129 93.4838C13.9355 92.9031 13.7419 91.9354 14.5161 90.9676C15.4839 90.5805 17.4194 88.2579 17.6129 86.9031C17.8065 85.5483 16.0645 83.8063 16.0645 81.4838C16.0645 81.0967 16.0645 80.7096 16.0645 80.516C13.7419 81.8709 10.2581 82.2579 8.32259 81.6773C6.19356 80.9031 3.29033 78.7741 2.70968 73.7418C2.12904 68.7096 5.03226 65.8063 7.54839 65.0321C10.0645 64.2579 12.1936 65.0321 13.3548 66.5805C14.5161 68.1289 14.129 69.6773 13.1613 70.8386C12.1936 71.9999 10.8387 72.387 10.8387 72.387C10.8387 72.387 10.8387 71.6128 11.0323 71.0321C11.2258 70.4515 11.2258 69.8709 11.0323 68.9031C11.0323 68.1289 10.0645 67.1612 8.90323 66.5805C7.74194 66.1934 5.61291 67.3547 4.64517 68.516C3.67743 69.6773 3.29033 72.1934 3.67743 74.516C4.06452 76.8386 6.19356 78.9676 8.70968 79.5483C11.0323 80.1289 14.7097 78.9676 16.0645 77.6128C16.0645 77.6128 19.7419 73.3547 20.9032 70.8386C21.871 68.3225 20.7097 65.6128 20.7097 65.6128C20.7097 65.6128 23.2258 63.0967 27.0968 62.9031C30.9677 62.7096 33.6774 62.9031 34.6452 61.9354C35.6129 60.9676 37.7419 57.4838 39.2903 56.3225C41.2258 54.7741 43.7419 54.387 44.7097 54.9676C45.6774 55.5483 45.6774 55.7418 45.6774 55.7418L44.9032 56.1289L45.4839 56.9031C45.4839 56.9031 44.9032 57.2902 44.7097 57.4838L45.2903 58.0644C45.2903 58.2579 44.5161 58.2579 43.7419 58.4515C42.9678 58.8386 41.6129 59.6128 40.2581 61.5483C38.7097 63.8709 37.1613 65.4192 35.0323 66.5805C32.9032 67.5483 32.5161 67.7418 32.7097 67.9354C32.9032 68.3225 34.0645 68.1289 34.6452 67.9354C35.0323 67.7418 35.4194 67.9354 35.4194 67.9354C35.4194 67.9354 34.8387 69.8709 32.129 72.5805C29.4194 75.2902 26.5161 76.6451 25.9355 78.387ZM43.1613 71.4192C42.7742 72.387 41.8065 72.9676 40.4516 72.9676C39.0968 72.9676 33.0968 72.9676 33.0968 72.9676C33.0968 72.9676 34.0645 71.9999 34.6452 71.0321C35.2258 70.0644 35.8065 68.516 35.8065 68.516C35.8065 68.516 38.129 68.9031 39.0968 68.9031C40.0645 68.9031 40.2581 68.9031 41.2258 67.5483C42.1936 66.1934 42.9678 66.7741 43.3548 67.1612C43.5484 67.3547 43.3548 70.4515 43.1613 71.4192ZM32.5161 88.6451C30.1936 88.6451 30 88.0644 30 87.4838C30 86.9031 30 85.5483 30.1936 84.1934C30.3871 82.8386 28.6452 82.6451 27.871 82.6451C26.9032 82.6451 26.3226 82.6451 26.3226 82.6451C26.3226 82.6451 26.3226 80.9031 26.5161 79.3547C26.7097 77.8063 28.8387 76.258 29.0323 76.258C30.9677 75.8709 33.2903 76.258 34.4516 77.6128C35.6129 78.9676 34.4516 81.8709 33.871 83.0322C33.2903 84.1934 33.6774 85.3547 34.6452 85.5483C35.6129 85.7418 36.5807 85.5483 37.9355 85.1612C39.2903 84.7741 40.0645 85.3547 40.4516 85.9354C40.8387 86.516 40.2581 88.6451 39.4839 88.6451H32.5161ZM83.0323 93.4838L85.1613 96.7741C85.1613 96.7741 81.4839 96.7741 80.5161 96.7741C79.5484 96.7741 78.7742 97.5483 78.5807 97.7418C78.5807 98.516 78.5807 99.2902 78.5807 99.4838C78.5807 101.032 73.3548 103.742 63.0968 103.935C62.9032 103.935 62.7097 103.935 62.5161 103.935C62.3226 103.935 62.129 103.935 61.9355 103.935C61.9355 103.935 61.9355 103.935 61.7419 103.935C61.7419 103.935 61.7419 103.935 61.5484 103.935C61.3548 103.935 61.1613 103.935 60.9678 103.935C60.7742 103.935 60.5807 103.935 60.3871 103.935C50.129 103.548 44.9032 100.839 44.9032 99.4838C44.9032 99.0967 44.9032 97.9354 44.9032 96.5805V97.7418C44.9032 97.7418 43.9355 96.7741 42.9678 96.7741C42 96.7741 38.3226 96.7741 38.3226 96.7741L40.4516 93.4838L38.129 90.5805C38.129 90.5805 42 90.5805 43.3548 90.5805C44.7097 90.5805 45.0968 91.1612 45.0968 91.1612V92.7096C45.6774 94.4515 49.9355 97.9354 61.9355 97.9354C73.5484 97.9354 77.8065 94.4515 78.5807 92.7096V90.9676C78.5807 90.9676 79.1613 90.387 80.3226 90.387C81.6774 90.387 85.5484 90.387 85.5484 90.387L83.0323 93.4838ZM101.419 85.5483C101.419 85.5483 100.452 85.5483 99.2903 85.5483C98.129 85.5483 98.129 87.2902 98.129 88.4515C98.129 89.6128 96.5807 89.6128 94.6452 89.8063C92.7097 89.9999 91.3548 90.9676 90.9677 91.3547C90.5807 91.9354 89.4194 92.1289 88.4516 91.5483C87.4839 90.9676 87.4839 90.9676 88.6452 89.8063C90 88.6451 92.9032 88.0644 94.4516 87.8709C96 87.6773 95.2258 85.3547 94.6452 84.1934C94.0645 83.0321 93.871 81.2902 94.8387 80.7096C96 79.9354 97.9355 78.9676 97.9355 78.9676C99.2903 79.9354 101.419 79.9354 101.419 79.9354V85.5483ZM117.29 80.3225C117.097 82.4515 115.742 83.9999 113.806 83.8063C112.258 83.6128 111.097 82.8386 110.323 82.0644C109.935 82.0644 109.355 82.2579 108.968 82.8386C108 84.387 109.355 86.7096 110.323 87.6773C111.29 88.8386 110.129 89.9999 109.742 90.9676C109.161 92.1289 108.387 95.6128 108 97.5483C107.613 99.4838 106.839 99.6773 106.452 99.6773H104.903C104.129 99.6773 103.935 99.2902 104.323 98.3225C104.71 97.3547 107.613 91.7418 107.613 90.7741C107.419 89.8063 106.258 88.4515 105.097 87.8708C103.935 87.2902 102.581 87.2902 102.581 84.9676C102.581 82.6451 102.581 78.7741 102.581 78.7741L101.419 78.5805C101.419 78.5805 101.226 78.5805 99.871 78.1934C97.7419 77.8063 94.2581 76.2579 90.7742 73.3547C90.7742 73.3547 90.7742 73.3547 90.5807 73.3547C88.6452 72.387 85.5484 70.8386 84.1936 71.4192C82.8387 71.9999 82.2581 72.9676 82.4516 74.516C82.4516 76.0644 83.0323 77.2257 82.2581 78.1934C81.4839 79.3547 80.3226 79.5483 80.3226 79.5483C80.3226 79.5483 80.129 76.2579 79.9355 75.2902C79.9355 74.516 80.5161 72.1934 81.0968 70.6451C81.871 69.0967 82.0645 68.1289 82.8387 68.1289C83.4194 68.1289 85.7419 68.3225 87.0968 68.1289C86.9032 67.1612 87.0968 65.9999 87.2903 64.8386C87.871 61.5483 92.3226 60.387 93.2903 59.2257C94.0645 58.0644 93.4839 56.516 93.4839 56.516C93.4839 56.516 91.7419 57.6773 90.9678 58.4515C90.1936 59.2257 89.2258 59.4192 88.6452 59.2257C88.0645 59.0321 87.6774 58.8386 87.871 57.2902C87.871 55.7418 88.4516 51.8709 88.4516 51.8709L79.1613 44.1289C79.1613 44.1289 85.5484 47.0321 89.8065 48.7741L90.1936 47.2257L92.129 49.7418C92.7097 49.9354 93.0968 49.9354 93.2903 49.9354C95.2258 49.9354 97.9355 50.516 99.871 53.9999C102.387 58.645 100.065 60.1934 100.065 65.0321C100.065 69.6773 103.742 71.9999 107.226 74.3225C108.387 75.0967 109.161 76.2579 109.548 77.4192C110.516 79.3547 111.29 81.6773 113.613 81.6773C115.935 81.6773 115.935 78.1934 114 76.2579C112.452 74.516 108.194 71.2257 108.581 67.1612C108.968 63.0967 111.097 62.516 111.871 62.3225C112.645 62.1289 110.129 64.2579 110.129 66.5805C110.129 68.9031 111.29 71.2257 113.226 72.9676C115.935 75.4838 117.484 78.1934 117.29 80.3225ZM111.097 75.8709C111.097 75.8709 113.032 77.8063 113.419 78.387C113.806 78.9676 114 79.7418 113.806 79.9354C113.613 80.1289 113.806 80.3225 113.226 79.9354C112.839 79.5483 112.065 78.5805 112.065 77.9999C111.871 77.4192 111.097 75.8709 111.097 75.8709ZM63.4839 85.5483C63.871 84.7741 64.2581 83.2257 63.4839 81.6773C62.7097 80.1289 61.5484 80.1289 61.3548 80.3225C60.5807 80.9031 61.1613 81.4838 61.5484 82.4515C61.9355 83.2257 61.7419 84.387 61.3548 84.9676C60.9678 85.5483 60.7742 86.7096 61.1613 87.0967C61.5484 87.2902 62.7097 87.0967 63.4839 85.5483ZM25.5484 50.9031C25.9355 50.9031 26.3226 50.516 26.3226 50.1289C26.3226 49.7418 25.9355 49.3547 25.5484 49.3547C25.1613 49.3547 24.7742 49.7418 24.7742 50.1289C24.7742 50.516 25.1613 50.9031 25.5484 50.9031ZM66.5807 82.645C66.9678 83.0321 68.129 82.645 68.9032 81.2902C69.2903 80.516 69.6774 78.9676 68.9032 77.4192C68.129 75.8708 66.9678 75.8708 66.7742 76.0644C66 76.645 66.5807 77.2257 66.9678 78.1934C67.3548 78.9676 67.1613 80.1289 66.7742 80.7096C66.3871 81.0967 66.1936 82.2579 66.5807 82.645ZM59.2258 64.0644L60.5807 67.5483H61.1613L62.5161 64.0644V67.5483H64.0645V62.1289H61.9355L60.7742 65.0321L59.6129 62.1289H57.4839V67.5483H59.0323V64.0644H59.2258ZM55.7419 71.4192C55.7419 70.4515 55.1613 69.6773 53.8065 69.6773H52.2581V68.9031H55.1613V67.7418H50.7097V73.1612H53.6129C54.9678 73.1612 55.7419 72.387 55.7419 71.4192ZM52.2581 71.9999V70.8386H53.4194C53.8065 70.8386 54 71.0322 54 71.4192C54 71.8063 53.8065 71.9999 53.4194 71.9999H52.2581Z" fill="white"/>
</svg>
