<svg width="374" height="110" viewBox="0 0 374 110" fill="none" xmlns="http://www.w3.org/2000/svg">
<path fill-rule="evenodd" clip-rule="evenodd" d="M0 108V91.5L41.4 32.85C42.8 30.85 44.175 29.05 45.525 27.45C46.875 25.85 47.9 24.7 48.6 24L49.65 23.1V22.8C47.35 23.1 44.6 23.25 41.4 23.25H1.95V0.75H82.95V16.95L41.4 75.9C40 77.9 38.625 79.7 37.275 81.3C35.925 82.9 34.9 84 34.2 84.6L33.15 85.65V85.95C35.45 85.65 38.2 85.5 41.4 85.5H83.7V108H0ZM94.05 69.3C94.05 57.6999 97.7 48.075 105 40.425C112.3 32.775 122.05 28.95 134.25 28.95C145.35 28.95 154.075 32.425 160.425 39.375C166.775 46.325 169.95 55.2999 169.95 66.3C169.95 68.1 169.75 70.8 169.35 74.4H120.6C121.5 78.9 123.625 82.325 126.975 84.675C130.325 87.025 134.2 88.2 138.6 88.2C145 88.2 152.1 85.6 159.9 80.4L169.5 98.55C165.4 102.05 160.375 104.8 154.425 106.8C148.475 108.8 142.5 109.8 136.5 109.8C123.4 109.8 113.05 105.8 105.45 97.8C97.85 89.8 94.05 80.3001 94.05 69.3ZM121.2 59.55H144.3C144.3 56.25 143.325 53.5 141.375 51.3C139.425 49.1 136.85 48 133.65 48C127.05 48 122.9 51.85 121.2 59.55ZM187.95 79.5V52.35H178.05V32.1H188.7V9.9H213.9V32.1H230.1V52.35H213.9V76.05C213.9 82.65 218.5 85.95 227.7 85.95C228.9 85.95 230.05 85.9 231.15 85.8V108.3C227.25 108.6 224.9 108.75 224.1 108.75C221.7 108.75 219.375 108.625 217.125 108.375C214.875 108.125 212.275 107.65 209.325 106.95C206.375 106.25 203.725 105.2 201.375 103.8C199.025 102.4 196.8 100.675 194.7 98.625C192.6 96.575 190.95 93.9 189.75 90.6C188.55 87.3 187.95 83.6 187.95 79.5ZM249.6 79.5V52.35H239.7V32.1H250.35V9.9H275.55V32.1H291.75V52.35H275.55V76.05C275.55 82.65 280.15 85.95 289.35 85.95C290.55 85.95 291.7 85.9 292.8 85.8V108.3C288.9 108.6 286.55 108.75 285.75 108.75C283.35 108.75 281.025 108.625 278.775 108.375C276.525 108.125 273.925 107.65 270.975 106.95C268.025 106.25 265.375 105.2 263.025 103.8C260.675 102.4 258.45 100.675 256.35 98.625C254.25 96.575 252.6 93.9 251.4 90.6C250.2 87.3 249.6 83.6 249.6 79.5ZM301.35 86.25C301.35 81.35 302.7 77.1 305.4 73.5C308.1 69.9 311.675 67.15 316.125 65.25C320.575 63.35 325.2 61.975 330 61.125C334.8 60.275 339.8 59.85 345 59.85H347.25V58.5C347.25 52.8 343.6 49.95 336.3 49.95C329.5 49.95 322.4 52.4 315 57.3L306 39C309.5 36.3 314.325 33.95 320.475 31.95C326.625 29.95 332.7 28.95 338.7 28.95C349.4 28.95 357.825 31.75 363.975 37.35C370.125 42.95 373.2 50.65 373.2 60.45V108H349.5V103.35L349.8 98.55H349.5C347 102.05 343.675 104.8 339.525 106.8C335.375 108.8 331.05 109.8 326.55 109.8C319.15 109.8 313.1 107.55 308.4 103.05C303.7 98.55 301.35 92.95 301.35 86.25ZM327 83.85C327 85.75 327.65 87.325 328.95 88.575C330.25 89.825 332.05 90.45 334.35 90.45C337.95 90.45 341.05 89 343.65 86.1C346.25 83.2 347.55 80.1 347.55 76.8V74.7H345.15C340.35 74.7 336.125 75.425 332.475 76.875C328.825 78.325 327 80.65 327 83.85Z" fill="white"/>
</svg>
