<svg width="193" height="90" viewBox="0 0 193 90" fill="none" xmlns="http://www.w3.org/2000/svg">
<path fill-rule="evenodd" clip-rule="evenodd" d="M61.9953 13.6021H59.6739V12.3162L68.6499 0V9.76002H75.4128V13.5246H68.6499V34.2065L72.0081 37.1036L73.8652 35.5543L74.8247 36.6388L72.0391 39.3499C71.0641 40.3259 69.9498 41.4568 68.7118 42.7582C67.319 41.2709 65.9261 40.078 64.5333 39.1485C63.1405 38.219 61.5929 37.5063 60.2001 37.0261C60.9274 36.4684 61.4381 35.7867 61.7477 35.0121C62.0572 34.191 62.2119 33.1066 62.2119 31.7278V13.6021H61.9953ZM102.944 13.6021H105.266H105.374V31.7278C105.374 33.1066 105.219 34.191 104.91 35.0121C104.6 35.7867 104.059 36.4684 103.362 37.0261C104.879 37.5063 106.38 38.219 107.819 39.1485C109.243 40.078 110.667 41.2709 112.091 42.7582C113.329 41.4568 114.443 40.3259 115.433 39.3499L118.234 36.6388L117.151 35.5543L115.294 37.1036L111.92 34.2065V13.5246H118.683V9.76002H111.92V0L102.944 12.3162V13.6021ZM91.5232 39.3499C90.9086 38.1194 90.5686 36.6905 90.5637 34.8962L81.9127 42.7272H81.2627C79.5603 41.054 78.3223 39.4738 77.5949 37.9866C76.8521 36.5303 76.5116 34.9192 76.5116 33.1841C76.5116 31.0461 77.0378 28.8927 78.1211 26.7393C79.2044 24.6014 80.752 22.4635 82.9186 20.3566L79.8255 11.2533C79.8443 11.2803 79.9886 11.2948 80.133 11.3092H80.9067C82.2996 11.3092 83.5376 11.0768 84.6519 10.5811C85.7662 10.0854 86.6638 9.37271 87.3756 8.4122L96.8159 11.9134L98.704 10.3642L99.1063 10.674C98.5115 11.6268 98.0996 12.488 97.7651 13.1872L97.765 13.1875L97.7642 13.1891C97.6639 13.3988 97.5706 13.5939 97.4814 13.7725C97.1409 14.6245 96.9242 15.3682 96.8623 16.0343V34.6248C96.9397 35.0896 97.1254 35.4924 97.404 35.8642C97.7135 36.205 98.023 36.4839 98.4873 36.7008L99.7254 35.8487L100.731 36.9331L94.6183 42.5103C93.2255 41.6118 92.1422 40.5738 91.5232 39.3499ZM79.8234 11.2473C79.8234 11.2493 79.8241 11.2514 79.8255 11.2533L79.8234 11.2473ZM90.6411 23.7804L84.2186 20.2172L81.4639 12.5486L90.6411 16.0343V23.7804ZM90.6411 25.1282V32.6728L85.9054 37.1655C84.6674 35.9262 83.7388 34.5319 83.1198 33.1376C82.5008 31.6194 82.1912 29.9462 82.1912 28.1491C82.1912 26.9717 82.346 25.8253 82.6555 24.7409C82.965 23.6254 83.4603 22.541 84.0793 21.4875L90.6411 25.1282ZM151.863 35.4459C150.687 34.9656 149.403 34.4389 148.056 33.8192V14.2217C149.387 14.9034 150.672 15.4766 151.863 15.9878C153.055 16.5456 154.216 16.9948 155.299 17.3821V36.7937C154.607 36.5341 153.91 36.2565 153.195 35.9721L153.194 35.9718C152.758 35.7982 152.315 35.622 151.863 35.4459ZM151.771 42.8046C150.006 41.4104 148.087 40.2175 146.045 39.2415C143.971 38.25 141.835 37.5063 139.607 37.0261C140.334 36.4529 140.845 35.7867 141.154 34.9656C141.417 34.1601 141.557 32.9517 141.557 31.3715V14.2217C143.507 13.7105 145.271 12.9824 146.818 12.0528C148.366 11.1233 149.821 9.88395 151.152 8.4277C153.21 9.94592 155.129 11.1388 156.878 11.9909C158.673 12.8894 160.282 13.4161 161.675 13.6021V37.305C159.663 37.9246 157.806 38.6992 156.166 39.6288C154.51 40.5273 153.04 41.5963 151.771 42.8201V42.8046ZM121.655 13.6021H123.976L124.115 13.633V35.9262C124.115 37.305 123.961 38.4049 123.651 39.257C123.342 40.0316 122.877 40.6512 122.103 41.2709C123.651 41.7512 125.044 42.4638 126.437 43.3933C127.86 44.3229 129.315 45.5158 130.708 46.9565L134.035 43.5483L136.821 40.7597L135.861 39.5203L134.004 41.0695L130.646 38.157V13.5246H137.409V9.76002H130.631V0L121.655 12.3162V13.6021ZM175.108 33.8192C176.47 34.4389 177.739 34.9656 178.931 35.4459C179.242 35.5691 179.552 35.6923 179.859 35.8146L179.86 35.8147C180.712 36.1538 181.548 36.4863 182.366 36.7937V17.3821C181.283 16.9948 180.107 16.5456 178.931 15.9878C177.739 15.4766 176.455 14.9034 175.108 14.2217V33.8192ZM173.096 39.2415C175.155 40.2175 177.058 41.4104 178.822 42.8046L179.055 42.8201C180.293 41.5963 181.84 40.5273 183.388 39.6288C184.935 38.6992 186.792 37.9246 188.804 37.305V13.6021C187.411 13.4161 185.864 12.8894 184.007 11.9909C182.304 11.1388 180.293 9.94592 178.281 8.4277C177.043 9.88395 175.495 11.1233 173.948 12.0528C172.4 12.9824 170.698 13.7105 168.686 14.2217V31.3715C168.686 32.9517 168.531 34.1601 168.221 34.9656C167.912 35.7867 167.448 36.4529 166.674 37.0261C168.887 37.5063 171.023 38.25 173.096 39.2415Z" fill="black"/>
<path d="M29.6014 75.8204V38.2088C29.6014 35.274 29.6014 34.3009 34.1187 34.3009C44.9109 34.3009 47.131 35.1813 49.0427 45.3758H50.7386L50.2761 31.4742H0.462522L0 45.3758H1.58799C3.48433 35.1659 5.70443 34.3936 16.4966 34.3936C20.9677 34.3936 21.1218 35.3512 21.1218 38.3015V75.913C21.1218 83.5589 19.7343 84.5938 12.4573 84.8409V86.4474H38.3893V84.7483C30.989 84.5011 29.6631 83.4662 29.6631 75.8204" fill="black"/>
<path fill-rule="evenodd" clip-rule="evenodd" d="M95.8962 51.6934H106.843V51.5235H125.498V53.2226C121.289 53.2226 119.639 53.8713 119.639 58.5669V80.238C119.639 83.2655 120.826 84.6247 124.48 84.6247H125.513V86.2157C121.917 86.7801 118.508 87.914 115.284 88.986C114.362 89.2928 113.454 89.5946 112.562 89.8764V59.1076C112.562 54.4119 111.021 53.7632 106.704 53.7632H102.048C99.8893 53.7632 98.1934 55.5704 98.1934 57.7792V79.4039C98.1934 84.0996 99.8893 84.7483 103.898 84.7483V86.4474H85.2427V84.841C89.5596 84.841 91.2555 84.1922 91.2555 79.4966V60.9611C91.2555 55.3232 88.3108 53.0835 84.2714 53.0835C81.0184 53.0835 78.2432 55.0143 75.8536 57.0996V79.5429C75.8536 84.254 77.5186 84.8719 81.7122 84.8719V86.571H63.0417V84.9182C67.0502 84.9182 68.7461 84.3004 68.7461 79.512V57.8873C68.7461 54.7981 67.5127 53.4079 63.9667 53.4079H63.1034V51.8169C66.7188 51.2026 70.3872 49.9625 73.7488 48.826C74.444 48.591 75.1261 48.3604 75.7919 48.1407V54.3656C76.1317 54.0991 76.4703 53.83 76.809 53.5608C80.2196 50.8505 83.6294 48.1407 88.1875 48.1407C91.7797 48.1407 94.154 49.3147 95.8962 51.6934ZM135.503 64.5292C135.503 73.488 139.635 81.2111 148.269 81.2111L148.022 81.3965C154.914 81.3965 159.03 77.1951 161.744 73.0246L163.101 73.8587C160.017 80.4851 154.158 87.3896 146.296 87.3896C135.658 87.3896 129.336 79.6665 129.336 69.3175C129.336 58.706 135.195 48.357 146.912 48.357C155.546 48.357 161.096 54.968 161.25 63.5715H135.503V64.5292ZM145.155 50.4577C151.661 50.4577 153.727 55.0915 153.727 60.9148H135.673C135.75 55.8948 139.944 50.4731 145.186 50.4731L145.155 50.4577ZM39.931 53.238C44.1246 53.238 45.7896 53.8559 45.7896 58.5669V89.8764C46.4928 89.6472 47.2142 89.4048 47.951 89.1572L47.9511 89.1572L47.9512 89.1572C51.2853 88.0368 54.9355 86.8103 58.6477 86.2157V84.6247H57.6148C53.9609 84.6247 52.7737 83.2655 52.7737 80.238V58.5669C52.7737 53.8713 54.4388 53.2226 58.6323 53.2226V51.5235H39.931V53.0681V53.238ZM178.04 60.6522L175.928 62.722C173.924 60.6213 172.536 58.5978 172.536 56.8988C172.536 52.6356 176.652 50.1951 180.399 50.1951C181.786 50.1951 185.487 50.9365 185.487 52.6665C185.487 53.1463 185.09 53.7587 184.625 54.4761C183.968 55.4907 183.174 56.7154 183.174 58.0727C183.174 60.3896 185.024 62.2431 187.136 62.2431C189.757 62.2431 191.823 60.6213 191.823 57.8101C191.823 51.3227 185.502 48.3879 179.798 48.3879C173.261 48.3879 167.402 52.8673 167.402 59.8181C167.402 63.8805 169.495 65.6802 171.673 67.5528C173.139 68.813 174.643 70.1062 175.573 72.1442L177.269 70.4451L177.656 70.6483C182.215 73.0411 186.473 75.2758 186.473 79.512C186.473 83.2191 183.082 85.0727 179.69 85.0727C173.893 85.0727 169.283 79.7746 169.129 74.1985H167.248L167.803 86.71H169.437C169.466 86.6031 169.484 86.4967 169.501 86.3944L169.501 86.3942C169.577 85.9498 169.639 85.5824 170.516 85.5824C171.022 85.5824 171.933 85.8454 173.089 86.1796C175.103 86.7616 177.864 87.5595 180.538 87.5595C186.489 87.5595 192.101 83.5435 192.101 76.0984C192.101 71.3009 188.47 68.9098 184.738 66.4527C182.271 64.8277 179.759 63.1738 178.225 60.7758L178.04 60.6522Z" fill="black"/>
</svg>
