<svg width="467" height="242" viewBox="0 0 467 242" fill="none" xmlns="http://www.w3.org/2000/svg">
<path fill-rule="evenodd" clip-rule="evenodd" d="M78 0H60.45L39 35.7386L17.55 0H0V85H19.5V36.7045L39 66.6477L58.5 36.7045V85H78V0ZM130.647 25L119 57.9149L107.353 25H86L109.415 80.6649L93.7647 116H115.118L152 25H130.647ZM175.286 55C175.286 63 181.312 69.5455 189.268 69.5455C193.607 69.5455 196.5 67.9697 199.152 65.0606L210 77.1818C205.299 83 197.826 87 188.062 87C168.536 87 156 72.697 156 55C156 37.303 168.536 23 188.062 23C197.826 23 205.299 27 210 32.8182L199.152 44.9394C196.5 42.0303 193.607 40.4545 189.268 40.4545C181.312 40.4545 175.286 47 175.286 55ZM218 25V42.4194H235.357V85H254.643V42.4194H272V25H218ZM320.293 85.0606H337V52.8182C337 31 323.856 23 309.483 23C299.901 23 291.425 25.9091 286.879 28.8182L292.776 42.7576C296.216 40.8182 301.866 39 306.534 39C313.414 39 316.853 42.8788 317.099 49.9091C299.778 43.2424 280 50.6364 280 66.7576C280 77.5455 287.616 87 301.375 87C309.237 87 315.748 83.3636 319.31 78.2727L320.293 85.0606ZM317 60.2969C308.146 57.4324 300 59.3005 300 66.0257C300 70.8828 303.069 73 306.729 73C311.924 73 316.174 67.2711 317 60.2969ZM389.667 46.2903V25H409V85H389.667V63.7097H370.333V85H351V25H370.333V46.2903H389.667ZM443.545 42.4194H467V25H424V85H443.545V42.4194ZM162 124.455V104H231V124.455H208V204H185V124.455H162ZM307 205.697H287.655L286.517 197.636C282.392 203.682 274.853 208 265.75 208C249.819 208 241 196.773 241 183.962C241 164.818 263.901 156.038 283.957 163.955C283.672 155.606 279.69 151 271.724 151C266.319 151 259.776 153.159 255.793 155.462L248.966 138.909C254.228 135.455 264.043 132 275.138 132C291.78 132 307 141.5 307 167.409V205.697ZM265 183.531C265 175.365 275.062 173.097 286 176.575C284.979 185.044 279.729 192 273.312 192C268.792 192 265 189.429 265 183.531ZM320 134V154.613H340.571V205H363.429V154.613H384V134H320ZM428.5 173.064L442.088 134H467L423.971 242H399.059L417.318 200.064L390 134H414.912L428.5 173.064Z" fill="#F1F1F1"/>
</svg>
