<svg width="228" height="82" viewBox="0 0 228 82" fill="none" xmlns="http://www.w3.org/2000/svg">
<path fill-rule="evenodd" clip-rule="evenodd" d="M13.6 81.8H213.8C221.2 81.8 227.1 76 227.1 68.7V13.6C227.1 6.4 221.1 0.5 213.8 0.5H13.6C6.29999 0.5 0.299988 6.4 0.299988 13.6V68.7C0.299988 75.9 6.29999 81.8 13.6 81.8ZM5.89999 13.6C5.89999 9.5 9.39999 6.1 13.6 6.1H213.8C218.1 6.1 221.5 9.4 221.5 13.6V68.7C221.5 72.8 218 76.2 213.8 76.2H13.6C9.29999 76.2 5.89999 72.9 5.89999 68.7V13.6Z" fill="#3A0B25"/>
<path fill-rule="evenodd" clip-rule="evenodd" d="M111.8 45.4002C112.3 44.9002 112.6 44.1002 112.6 43.0002C112.6 41.4002 112.3 39.9002 111.8 38.3002C111.1 36.7002 110.2 35.3002 109.1 34.0002C108 32.8002 106.6 31.7002 105 30.9002C103.3 30.1002 101.6 29.7002 99.6 29.7002C97.7 29.7002 95.9 30.1002 94.3 30.9002C92.7 31.7002 91.3 32.7002 90.2 34.0002C89 35.3002 88.1 36.8002 87.5 38.5002C86.8 40.2002 86.5 41.9002 86.5 43.8002C86.5 45.8002 86.8 47.7002 87.5 49.4002C88.2 51.1002 89.1 52.6002 90.3 53.8002C91.5 55.0002 92.9 56.0002 94.6 56.7002C96.3 57.4002 98.1 57.8002 100.2 57.8002C101.5 57.8002 102.9 57.7002 104.3 57.3002C105.7 56.9002 107 56.5002 108.1 55.9002C109.2 55.3002 110.2 54.6002 110.9 53.9002C111.6 53.1002 112 52.4002 112 51.6002C112 50.9002 111.7 50.2002 111.1 49.5002C110.5 48.8002 109.8 48.5002 109 48.5002C108.5 48.5002 108 48.7002 107.4 49.0002C106.8 49.3002 106.2 49.6002 105.5 50.0002C104.8 50.4002 104.1 50.7002 103.3 51.0002C102.5 51.3002 101.6 51.5002 100.7 51.5002C99 51.5002 97.5 51.0002 96.2 50.2002C95 49.3002 94.2 48.0002 93.9 46.2002H109.4C110.5 46.2002 111.3 45.9002 111.8 45.4002ZM105.387 41.2002C105.391 41.2334 105.396 41.2667 105.4 41.3002V41.2002H105.387ZM105.387 41.2002C105.175 39.6459 104.579 38.3772 103.6 37.3002C102.6 36.3002 101.3 35.7002 99.6 35.7002C98 35.7002 96.7 36.2002 95.6 37.3002C94.6 38.4002 94 39.7002 93.8 41.2002H105.387Z" fill="#3A0B25"/>
<path fill-rule="evenodd" clip-rule="evenodd" d="M141.6 60.8002C142.3 59.2002 142.6 57.3002 142.6 55.1002H142.5V33.7002C142.5 32.5002 142.2 31.5002 141.5 30.8002C140.9 30.1002 140 29.7002 138.9 29.7002C137.9 29.7002 137.1 30.0002 136.5 30.6002C135.9 31.2002 135.5 32.0002 135.3 33.0002C134.6 31.9002 133.7 31.1002 132.4 30.5002C131.1 30.0002 129.8 29.7002 128.6 29.7002C126.7 29.7002 125.1 30.1002 123.6 30.9002C122.1 31.7002 120.8 32.8002 119.8 34.1002C118.8 35.4002 118 36.9002 117.4 38.6002C116.9 40.3002 116.6 42.1002 116.6 43.9002C116.6 45.7002 116.8 47.4002 117.3 49.1002C117.8 50.7002 118.5 52.2002 119.4 53.5002C120.3 54.8002 121.5 55.8002 122.9 56.6002C124.3 57.4002 126 57.8002 127.9 57.8002C131.2 57.8002 133.6 56.7002 135.2 54.4002H135.3V56.1002C135.3 58.0002 134.7 59.4002 133.6 60.4002C132.5 61.4002 131 61.9002 129.2 61.9002C128.1 61.9002 127.2 61.7002 126.3 61.5002C125.988 61.3962 125.688 61.3042 125.4 61.2159C124.857 61.0495 124.357 60.8962 123.9 60.7002C123.2 60.4002 122.5 60.1002 121.9 59.9002C121.3 59.6002 120.7 59.5002 120.1 59.5002C119.7 59.5002 119.3 59.6002 119 59.8002C118.7 60.0002 118.4 60.3002 118.1 60.6002C117.8 60.9002 117.6 61.2002 117.4 61.6002C117.2 62.0002 117.1 62.4002 117.1 62.7002C117.1 63.8002 117.6 64.6002 118.5 65.3002C119.4 66.0002 120.5 66.6002 121.7 67.0002C123 67.4002 124.2 67.7002 125.5 67.9002C126.8 68.1002 127.8 68.2002 128.6 68.2002C130.7 68.2002 132.6 68.0002 134.3 67.4002C136 66.8002 137.5 66.0002 138.7 64.9002C140 63.8002 140.9 62.4002 141.6 60.8002ZM135 41.3002C135.2 42.2002 135.3 43.1002 135.3 44.0002C135.3 44.8002 135.2 45.7002 135 46.6002C134.7 47.5002 134.4 48.2002 133.9 48.9002C133.4 49.5002 132.8 50.1002 132.1 50.5002C131.4 50.9002 130.5 51.1002 129.6 51.1002C128.6 51.1002 127.8 50.9002 127.1 50.5002C126.4 50.1002 125.8 49.6002 125.3 48.9002C124.8 48.2002 124.4 47.4002 124.2 46.5002C123.9 45.6002 123.8 44.7002 123.8 43.7002C123.8 42.8827 123.965 42.1477 124.145 41.3453C124.163 41.2644 124.182 41.1827 124.2 41.1002C124.5 40.2002 124.8 39.4002 125.3 38.7002C125.8 38.0002 126.4 37.4002 127.1 37.0002C127.8 36.5002 128.7 36.3002 129.6 36.3002C130.6 36.3002 131.5 36.5002 132.2 37.0002C132.9 37.5002 133.5 38.1002 134 38.8002C134.4 39.6002 134.8 40.4002 135 41.3002Z" fill="#3A0B25"/>
<path d="M165.2 33.6002C165.2 34.2002 165.1 34.7002 164.8 35.0002C164.5 35.3002 164.2 35.6002 163.8 35.9002C163.4 36.1002 162.9 36.3002 162.4 36.5002C161.9 36.7002 161.3 36.9002 160.8 37.2002C160.3 37.4002 159.7 37.7002 159.2 38.0002C158.7 38.3002 158.2 38.6002 157.8 39.0002C157.4 39.4002 157 39.8002 156.8 40.3002C156.5 40.8002 156.4 41.4002 156.4 42.1002V53.9002C156.4 55.1002 156.1 56.1002 155.4 56.8002C154.7 57.5002 153.8 57.9002 152.8 57.9002C151.7 57.9002 150.8 57.5002 150.2 56.8002C149.5 56.1002 149.2 55.1002 149.2 53.9002V33.4002C149.2 32.2002 149.6 31.3002 150.4 30.7002C151.2 30.1002 152 29.8002 153 29.8002C154 29.8002 154.8 30.0002 155.5 30.4002C156.2 30.8002 156.5 31.6002 156.5 32.8002H156.6C157.3 31.8002 158 31.0002 158.8 30.5002C159.6 30.0002 160.6 29.7002 161.7 29.7002C162.6 29.7002 163.4 30.0002 164.1 30.7002C164.8 31.3002 165.2 32.3002 165.2 33.6002Z" fill="#3A0B25"/>
<path fill-rule="evenodd" clip-rule="evenodd" d="M191.5 45.4002C192 44.9002 192.3 44.1002 192.3 43.0002C192.3 41.7565 192.058 40.5731 191.81 39.3563C191.739 39.0078 191.667 38.6565 191.6 38.3002C190.9 36.7002 190 35.3002 188.9 34.0002C187.8 32.8002 186.4 31.7002 184.8 30.9002C183.1 30.1002 181.4 29.7002 179.4 29.7002C177.5 29.7002 175.7 30.1002 174.1 30.9002C172.5 31.7002 171.1 32.7002 170 34.0002C168.8 35.3002 167.9 36.8002 167.3 38.5002C166.6 40.2002 166.3 41.9002 166.3 43.8002C166.3 45.8002 166.6 47.7002 167.3 49.4002C168 51.1002 168.9 52.6002 170.1 53.8002C171.3 55.0002 172.7 56.0002 174.4 56.7002C176.1 57.4002 177.9 57.8002 180 57.8002C181.3 57.8002 182.7 57.7002 184.1 57.3002C185.5 56.9002 186.8 56.5002 187.9 55.9002C189 55.3002 190 54.6002 190.7 53.9002C191.4 53.1002 191.8 52.4002 191.8 51.6002C191.8 50.9002 191.5 50.2002 190.9 49.5002C190.3 48.8002 189.6 48.5002 188.8 48.5002C188.3 48.5002 187.8 48.7002 187.2 49.0002C186.6 49.3002 186 49.6002 185.3 50.0002C184.6 50.4002 183.9 50.7002 183.1 51.0002C182.3 51.3002 181.4 51.5002 180.5 51.5002C178.8 51.5002 177.3 51.0002 176 50.2002C174.7 49.3002 173.9 48.0002 173.6 46.2002H189.1C190.2 46.2002 191 45.9002 191.5 45.4002ZM184.987 41.2002C184.991 41.2334 184.996 41.2667 185 41.3002V41.2002H184.987ZM184.987 41.2002C184.775 39.6459 184.179 38.3772 183.2 37.3002C182.2 36.3002 180.9 35.7002 179.2 35.7002C177.6 35.7002 176.3 36.2002 175.2 37.3002C174.2 38.4002 173.6 39.7002 173.4 41.2002H184.987Z" fill="#3A0B25"/>
<path d="M39.3 33.3002C39.3 33.6002 39.3 34.0002 39.2 34.3002C39.1 34.6002 39 35.0002 38.8 35.5002L31.4 54.9002C31.2 55.4002 31 55.8002 30.8 56.2002C30.6 56.6002 30.4 56.9002 30.1 57.2002C29.8 57.5002 29.5 57.7002 29 57.8002C28.6 57.9002 28.1 58.0002 27.5 58.0002C26.9 58.0002 26.4 57.9002 26 57.8002C25.6 57.7002 25.2 57.5002 24.9 57.2002C24.6 56.9002 24.4 56.6002 24.2 56.2002C24 55.8002 23.8 55.4002 23.6 54.9002L16.2 35.5002C16 35.0002 15.9 34.6002 15.8 34.3002C15.7 34.0002 15.7 33.7002 15.7 33.3002C15.7 32.1002 16.1 31.2002 16.9 30.6002C17.7 30.0002 18.5 29.7002 19.5 29.7002C20.5 29.7002 21.3 30.0002 21.7 30.6002C22.2 31.2002 22.5 31.7002 22.7 32.3002L27.5 47.0002H27.6L32.4 32.3002C32.6 31.7002 32.9 31.2002 33.4 30.6002C33.9 30.0002 34.6 29.7002 35.6 29.7002C36.6 29.7002 37.5 30.0002 38.2 30.6002C38.9 31.2002 39.3 32.1002 39.3 33.3002Z" fill="#3A0B25"/>
<path d="M47.3 29.7002C46.2 29.7002 45.3 30.1002 44.7 30.8002C44 31.5002 43.7 32.5002 43.7 33.7002V53.7002C43.7 54.9002 44 55.9002 44.7 56.6002C45.4 57.3002 46.2 57.7002 47.3 57.7002C48.4 57.7002 49.3 57.3002 49.9 56.6002C50.6 55.9002 50.9 54.9002 50.9 53.7002V33.7002C50.9 32.5002 50.6 31.5002 49.9 30.8002C49.2 30.1002 48.3 29.7002 47.3 29.7002Z" fill="#3A0B25"/>
<path d="M80.4 56.6998C79.7 57.3998 78.9 57.7998 77.8 57.7998C76.7 57.7998 75.8 57.3998 75.2 56.6998C74.5 55.9998 74.2 54.9998 74.2 53.7998V40.7998C74.2 39.0998 73.7 37.7998 72.8 36.9998C71.9 36.1998 70.8 35.7998 69.4 35.7998C67.9 35.7998 66.7 36.2998 65.9 37.1998C65.1 38.1998 64.7 39.2998 64.7 40.7998V53.7998C64.7 54.9998 64.4 55.9998 63.7 56.6998C63 57.3998 62.2 57.7998 61.1 57.7998C60 57.7998 59.1 57.3998 58.4 56.6998C57.7 55.9998 57.4 54.9998 57.4 53.7998V33.7998C57.4 32.5998 57.7 31.5998 58.4 30.8998C59.1 30.1998 59.9 29.7998 61 29.7998C61.9 29.7998 62.7 30.0998 63.3 30.6998C63.9 31.2998 64.3 31.9998 64.4 32.7998C65.1 31.7998 66 31.0998 67.2 30.5998C68.3 30.0998 69.8 29.7998 71.5 29.7998C72.9 29.7998 74.2 29.9998 75.5 30.4998C76.7 30.8998 77.8 31.5998 78.7 32.3998C79.6 33.1998 80.3 34.2998 80.8 35.4998C81.3 36.6998 81.6 38.0998 81.6 39.5998V53.7998C81.4 54.9998 81.1 55.9998 80.4 56.6998Z" fill="#3A0B25"/>
<path d="M51.7 18.6001C51.7 21.1001 49.7 23.1001 47.2 23.1001C44.7 23.1001 42.7 21.1001 42.7 18.6001C42.7 16.1001 44.7 14.1001 47.2 14.1001C49.7 14.1001 51.7 16.1001 51.7 18.6001Z" fill="#D55897"/>
<path fill-rule="evenodd" clip-rule="evenodd" d="M62.9 18.7C63 18.4 63.1 18 63.1 17.6C63.1 17.2686 63.0314 17.0059 62.951 16.6981C62.9343 16.6343 62.9172 16.5686 62.9 16.5C62.844 16.416 62.7959 16.3321 62.749 16.2503C62.6284 16.0399 62.516 15.844 62.3 15.7C62 15.5 61.7 15.3 61.4 15.2C61.1 15.1 60.7 15 60.3 15H58.3C58.1 15 57.8 15 57.7 15.2C57.6 15.3 57.5 15.5 57.5 15.8V22.1C57.5 22.3 57.5 22.6 57.7 22.7C57.9 22.8 58.1 22.9 58.3 22.9C58.5 22.9 58.7 22.8 58.9 22.7C59 22.6 59.1 22.4 59.1 22.1V20.2H60.3C60.7 20.2 61.1 20.1 61.4 20C61.7088 19.9228 61.8984 19.786 62.1068 19.6356C62.1684 19.5912 62.2316 19.5456 62.3 19.5C62.6 19.3 62.8 19 62.9 18.7ZM61.1 16.8C61.3 17 61.4 17.3 61.4 17.6C61.4 17.9 61.3 18.2 61.1 18.6C60.9 18.8 60.7 18.9 60.3 18.9H59.2V16.5H60.3C60.6 16.5 60.9 16.6 61.1 16.8Z" fill="#D55897"/>
<path d="M68.6 22.0999C68.6 22.2999 68.5 22.4999 68.4 22.5999C68.3 22.7999 68.1 22.7999 67.8 22.7999H65C64.8 22.7999 64.6 22.6999 64.4 22.5999C64.2 22.3999 64.2 22.1999 64.2 21.9999V15.8999C64.2 15.5999 64.3 15.3999 64.4 15.1999C64.5 14.9999 64.8 14.8999 65.1 14.8999H67.9C68.2 14.8999 68.4 14.9999 68.5 15.0999C68.6 15.2999 68.7 15.3999 68.7 15.5999C68.7 15.7999 68.6 15.9999 68.5 16.0999C68.4 16.2999 68.2 16.2999 67.9 16.2999H65.9V17.8999H67.7C68 17.8999 68.2 17.9999 68.3 18.0999C68.4 18.2999 68.5 18.3999 68.5 18.5999C68.5 18.7999 68.4 18.9999 68.3 19.0999C68.2 19.2999 68 19.2999 67.7 19.2999H65.9V20.9999H68C68.3 20.9999 68.5 21.0999 68.6 21.1999C68.6 21.6999 68.6 21.8999 68.6 22.0999Z" fill="#D55897"/>
<path d="M75.8 21.6999C75.8 21.9999 75.7 22.1999 75.5 22.3999C75.3 22.5999 75.1 22.6999 74.8 22.7999C74.5 22.8999 74.3 22.9999 74 22.9999C73.7 22.9999 73.5 23.0999 73.3 23.0999C72.7 23.0999 72.2 22.9999 71.7 22.7999C71.2 22.5999 70.8 22.2999 70.5 21.8999C70.2 21.4999 69.9 21.0999 69.7 20.5999C69.5 20.0999 69.4 19.5999 69.4 18.9999C69.4 18.3999 69.5 17.8999 69.7 17.3999C69.9 16.8999 70.1 16.4999 70.5 16.0999C70.8 15.6999 71.2 15.3999 71.7 15.1999C72.2 14.9999 72.7 14.8999 73.3 14.8999C73.5 14.8999 73.7 14.8999 74 14.9999C74.3 14.9999 74.5 15.0999 74.8 15.1999C75 15.2999 75.3 15.3999 75.4 15.5999C75.6 15.7999 75.7 15.9999 75.7 16.1999C75.7 16.3999 75.6 16.5999 75.5 16.6999C75.4 16.7999 75.2 16.8999 75 16.8999C74.9 16.8999 74.8 16.8999 74.7 16.7999C74.6 16.7999 74.5 16.6999 74.4 16.6999C74.3 16.6999 74.1 16.5999 74 16.5999C73.8 16.5999 73.6 16.4999 73.4 16.4999C73.1 16.4999 72.7 16.5999 72.5 16.6999C72.2 16.7999 72 16.9999 71.8 17.1999C71.6 17.3999 71.5 17.6999 71.4 17.9999C71.3 18.2999 71.3 18.5999 71.3 18.9999C71.3 19.2999 71.3 19.5999 71.4 19.8999C71.5 20.1999 71.6 20.4999 71.8 20.6999C72 20.8999 72.2 21.0999 72.5 21.1999C72.8 21.2999 73.1 21.3999 73.4 21.3999C73.6 21.3999 73.8 21.3999 74 21.2999C74.2 21.2999 74.3 21.1999 74.5 21.0999C74.6 20.9999 74.8 20.9999 74.9 20.8999C75 20.8999 75.1 20.7999 75.2 20.7999C75.3 20.7999 75.4 20.7999 75.5 20.8999C75.6 20.9999 75.7 20.9999 75.7 21.0999C75.8 21.1999 75.8 21.2999 75.8 21.2999C75.8 21.5999 75.8 21.5999 75.8 21.6999Z" fill="#D55897"/>
<path d="M82.1 15.7C82.1 15.9 82 16.1 81.9 16.2C81.8 16.4 81.6 16.4 81.3 16.4H80.1V22C80.1 22.3 80 22.5 79.9 22.6C79.7 22.7 79.5 22.8 79.3 22.8C79.1 22.8 78.9 22.7 78.7 22.6C78.5 22.5 78.5 22.2 78.5 22V16.4H77.3C77 16.4 76.8 16.3 76.7 16.2C76.6 16 76.5 15.9 76.5 15.7C76.5 15.5 76.6 15.3 76.7 15.2C76.8 15 77 15 77.3 15H81.4C81.6 15 81.8 15.1 82 15.2C82.1 15.4 82.1 15.5 82.1 15.7Z" fill="#D55897"/>
<path fill-rule="evenodd" clip-rule="evenodd" d="M89.9 20.4998C90.1 19.9998 90.2 19.4998 90.2 18.8998C90.2 18.3998 90.1 17.7998 89.8 17.2998C89.6 16.7998 89.3 16.3998 89 15.9998C88.7 15.5998 88.3 15.2998 87.8 15.0998C87.4 14.8998 86.9 14.7998 86.3 14.7998C85.7 14.7998 85.2 14.8998 84.7 15.0998C84.2 15.2998 83.8 15.5998 83.5 15.9998C83.1 16.3998 82.9 16.7998 82.7 17.2998C82.5 17.7998 82.4 18.2998 82.4 18.8998C82.4 19.4998 82.5 19.9998 82.7 20.4998C82.9 20.9998 83.2 21.3998 83.5 21.7998C83.8 22.1998 84.2 22.4998 84.7 22.6998C85.2 22.8998 85.7 22.9998 86.3 22.9998C86.9 22.9998 87.4 22.8998 87.9 22.6998C88.4 22.4998 88.8 22.1998 89.1 21.7998C89.5 21.3998 89.7 20.9998 89.9 20.4998ZM88.4 17.8998C88.5 18.1998 88.5 18.5998 88.5 18.8998C88.5 19.2998 88.4 19.5998 88.3 19.8998C88.2 20.1998 88.1 20.4998 87.9 20.6998C87.8 20.9998 87.6 21.1998 87.3 21.2998C87.1 21.3998 86.8 21.4998 86.4 21.4998C86.1 21.4998 85.8 21.3998 85.5 21.2998C85.2 21.0998 85 20.8998 84.8 20.6998C84.6 20.4998 84.5 20.1998 84.4 19.8998C84.3 19.5998 84.3 19.1998 84.3 18.8998C84.3 18.4998 84.3 18.1998 84.4 17.8998C84.5 17.5998 84.6 17.2998 84.8 17.0998C85 16.7998 85.2 16.5998 85.5 16.4998C85.7 16.3998 86.1 16.2998 86.4 16.2998C86.7 16.2998 87 16.3998 87.3 16.4998C87.6 16.6998 87.8 16.8998 88 17.0998C88.2 17.2998 88.3 17.5998 88.4 17.8998Z" fill="#D55897"/>
<path fill-rule="evenodd" clip-rule="evenodd" d="M96.9 18.7C97 18.4 97.1 18 97.1 17.6C97.1 17.2 97.1 16.9 96.9 16.5C96.844 16.416 96.7959 16.3321 96.749 16.2503C96.6284 16.0399 96.516 15.844 96.3 15.7C96 15.5 95.7 15.3 95.4 15.2C95.1 15.1 94.7 15 94.3 15H92.3C92.1 15 91.8 15 91.7 15.2C91.6 15.3 91.5 15.5 91.5 15.8V22.1C91.5 22.3 91.5 22.6 91.7 22.7C91.9 22.8 92.1 22.9 92.3 22.9C92.5 22.9 92.7 22.8 92.9 22.7C93 22.6 93.1 22.4 93.1 22.1V20.2H94.3C94.7 20.2 95.1 20.1 95.4 20C95.7088 19.9228 95.8984 19.786 96.1068 19.6356C96.1684 19.5912 96.2316 19.5456 96.3 19.5C96.6 19.3 96.8 19 96.9 18.7ZM95.1 16.8C95.3 17 95.4 17.3 95.4 17.6C95.4 17.9 95.3 18.2 95.1 18.6C94.9 18.8 94.7 18.9 94.3 18.9H93.2V16.5H94.3C94.6 16.5 94.9 16.6 95.1 16.8Z" fill="#D55897"/>
<path fill-rule="evenodd" clip-rule="evenodd" d="M104 22.7998C104.1 22.6998 104.2 22.4998 104.2 22.2998C104.2 22.2573 104.2 22.2329 104.192 22.2111C104.182 22.1817 104.158 22.1573 104.1 22.0998C104.1 22.0998 104 21.9998 104 21.8998L101.8 15.7998C101.7 15.4998 101.6 15.2998 101.4 15.0998C101.2 14.8998 101 14.7998 100.7 14.7998C100.5 14.7998 100.2 14.8998 100 15.0998C99.7 15.2998 99.6 15.4998 99.5 15.7998L97.2 21.8998V21.9998V22.1998C97.2 22.4998 97.2 22.6998 97.4 22.7998C97.6 22.8998 97.8 22.9998 98 22.9998C98.1464 22.9998 98.2392 22.9462 98.3569 22.8783C98.4 22.8534 98.4464 22.8266 98.5 22.7998C98.6562 22.7217 98.6904 22.6436 98.7455 22.518C98.761 22.4827 98.7781 22.4436 98.8 22.3998L99.2 21.2998H102.3L102.7 22.3998C102.8 22.5998 102.9 22.6998 103 22.7998C103.1 22.8998 103.3 22.9998 103.5 22.9998C103.646 22.9998 103.739 22.9462 103.857 22.8783C103.9 22.8534 103.946 22.8266 104 22.7998ZM99.6 19.7998L100.7 16.5998L101.7 19.7998H99.6Z" fill="#D55897"/>
<path d="M111.8 22.8C111.6 22.9 111.4 23 111.2 23C111 23 110.8 22.9 110.6 22.8C110.4 22.7 110.4 22.4 110.4 22.2V19.7H106.9V22.2C106.9 22.5 106.8 22.7 106.7 22.8C106.5 22.9 106.3 23 106.1 23C105.9 23 105.7 22.9 105.5 22.8C105.3 22.7 105.3 22.4 105.3 22.2V15.8C105.3 15.5 105.4 15.3 105.5 15.2C105.7 15.1 105.9 15 106.1 15C106.3 15 106.5 15.1 106.7 15.2C106.9 15.3 106.9 15.6 106.9 15.8V18.2H110.4V15.8C110.4 15.5 110.5 15.3 110.6 15.2C110.8 15.1 111 15 111.2 15C111.4 15 111.6 15.1 111.8 15.2C112 15.3 112 15.6 112 15.8V22.2C112.1 22.4 112 22.6 111.8 22.8Z" fill="#D55897"/>
<path d="M120.2 22.8C120 22.9 119.8 23 119.6 23C119.4 23 119.2 22.9 119 22.8C118.8 22.7 118.8 22.4 118.8 22.2V19.7H115.3V22.2C115.3 22.5 115.2 22.7 115.1 22.8C114.9 22.9 114.7 23 114.5 23C114.3 23 114.1 22.9 113.9 22.8C113.7 22.7 113.7 22.4 113.7 22.2V15.8C113.7 15.5 113.8 15.3 113.9 15.2C114.1 15.1 114.3 15 114.5 15C114.7 15 114.9 15.1 115.1 15.2C115.3 15.3 115.3 15.6 115.3 15.8V18.2H118.8V15.8C118.8 15.5 118.9 15.3 119 15.2C119.2 15.1 119.4 15 119.6 15C119.8 15 120 15.1 120.2 15.2C120.4 15.3 120.4 15.6 120.4 15.8V22.2C120.4 22.4 120.4 22.6 120.2 22.8Z" fill="#D55897"/>
<path fill-rule="evenodd" clip-rule="evenodd" d="M130 22.6999C130.1 22.5999 130.2 22.3999 130.2 22.0999V15.6999C130.2 15.4999 130.2 15.1999 130 15.0999C129.8 14.9999 129.6 14.8999 129.4 14.8999C129.2 14.8999 129 14.9999 128.8 15.0999C128.7 15.1999 128.6 15.3999 128.6 15.6999V22.0999C128.6 22.2999 128.6 22.5999 128.8 22.6999C129 22.7999 129.2 22.8999 129.4 22.8999C129.6 22.8999 129.8 22.7999 130 22.6999ZM127.6 20.3999C127.6 20.7999 127.5 21.0999 127.4 21.3999C127.3 21.6999 127.1 21.9999 126.9 22.1999C126.7 22.3999 126.4 22.5999 126.1 22.6999C125.8 22.7999 125.4 22.8999 125.1 22.8999H123C122.7 22.8999 122.5 22.7999 122.4 22.6999C122.2 22.4999 122.1 22.2999 122.1 22.0999V15.7999C122.1 15.4999 122.2 15.2999 122.3 15.1999C122.5 15.0999 122.7 14.9999 122.9 14.9999C123.1 14.9999 123.3 15.0999 123.5 15.1999C123.7 15.2999 123.7 15.5999 123.7 15.7999V17.9999H124.8C125.2 17.9999 125.6 17.9999 125.9 18.0999C126.2 18.1999 126.5 18.2999 126.8 18.4999C127 18.6999 127.2 18.9999 127.4 19.2999C127.5 19.5999 127.6 19.9999 127.6 20.3999ZM125.9 20.3999C125.9 20.0999 125.8 19.8999 125.6 19.6999C125.4 19.4999 125.1 19.3999 124.7 19.3999H123.7V21.3999H124.8C125.1 21.3999 125.4 21.2999 125.6 21.0999C125.8 20.9999 125.9 20.6999 125.9 20.3999Z" fill="#D55897"/>
<path fill-rule="evenodd" clip-rule="evenodd" d="M134.4 14.4001C134.6 14.5001 134.9 14.5001 135.1 14.5001C135.3 14.5001 135.6 14.5001 135.8 14.4001L136.4 14.1001L136.8 13.7001C136.9 13.6001 137 13.4001 137 13.2001C137 13.0001 137 12.9001 136.9 12.8001C136.8 12.7001 136.7 12.6001 136.5 12.6001C136.3 12.6001 136.2 12.6001 136.1 12.7001C136.05 12.7501 136.025 12.8001 136 12.8501C135.975 12.9001 135.95 12.9501 135.9 13.0001L135.6 13.3001C135.5 13.4001 135.3 13.4001 135.1 13.4001C134.9 13.4001 134.7 13.4001 134.6 13.3001L134.3 13.0001C134.25 12.9501 134.225 12.9001 134.2 12.8501C134.175 12.8001 134.15 12.7501 134.1 12.7001C134 12.6001 133.9 12.6001 133.7 12.6001C133.5 12.6001 133.4 12.7001 133.3 12.8001C133.2 12.9001 133.2 13.1001 133.2 13.2001C133.2 13.3465 133.254 13.4393 133.322 13.557C133.346 13.6001 133.373 13.6465 133.4 13.7001C133.5 13.9001 133.6 14.0001 133.8 14.1001C133.933 14.2334 134.067 14.2779 134.2 14.3223C134.267 14.3445 134.333 14.3668 134.4 14.4001ZM137.7 23.0001C137.9 23.0001 138.1 22.9001 138.3 22.8001C138.5 22.6001 138.5 22.4001 138.5 22.0001V15.6001C138.5 15.4001 138.5 15.1001 138.3 15.0001C138.1 14.9001 137.9 14.8001 137.7 14.8001C137.6 14.8001 137.4 14.8001 137.3 14.9001L137 15.2001L133.4 20.0001V15.9001C133.4 15.7001 133.4 15.4001 133.2 15.3001L133.2 15.3001C133 15.2001 132.8 15.1001 132.6 15.1001C132.4 15.1001 132.2 15.2001 132 15.3001C131.9 15.4001 131.8 15.6001 131.8 15.9001V22.3001C131.8 22.5001 131.8 22.8001 132 22.9001C132.2 23.0001 132.4 23.1001 132.6 23.1001C132.7 23.1001 132.9 23.1001 133 23.0001L133.3 22.7001L136.9 18.0001V22.2001C136.9 22.4001 136.9 22.7001 137.1 22.8001C137.3 22.9001 137.5 23.0001 137.7 23.0001Z" fill="#D55897"/>
<path d="M149.9 22.1999C149.9 22.3999 149.8 22.5999 149.7 22.7999C149.5 22.8999 149.3 22.9999 149.1 22.9999C148.8 22.9999 148.6 22.8999 148.4 22.5999L146.5 19.9999L144.6 22.5999C144.4 22.7999 144.2 22.9999 143.9 22.9999C143.7 22.9999 143.5 22.8999 143.3 22.7999C143.1 22.6999 143.1 22.4999 143.1 22.1999C143.1 22.0999 143.1 21.9999 143.2 21.8999C143.2 21.7999 143.3 21.6999 143.3 21.6999L145.5 18.6999L143.7 16.1999C143.6 16.0999 143.5 15.8999 143.5 15.6999C143.5 15.4999 143.6 15.2999 143.7 15.0999C143.9 14.9999 144.1 14.8999 144.3 14.8999C144.4 14.8999 144.6 14.8999 144.7 14.9999C144.8 15.0999 144.9 15.1999 145 15.2999L146.4 17.2999L147.8 15.2999C147.9 15.1999 148 15.0999 148.1 14.9999C148.2 14.8999 148.4 14.8999 148.5 14.8999C148.7 14.8999 148.9 14.9999 149.1 15.0999C149.3 15.1999 149.3 15.3999 149.3 15.6999C149.3 15.8999 149.2 15.9999 149.1 16.1999L147.3 18.6999L149.6 21.6999C149.6 21.7999 149.7 21.7999 149.7 21.8999C149.9 21.9999 149.9 22.0999 149.9 22.1999Z" fill="#D55897"/>
<path fill-rule="evenodd" clip-rule="evenodd" d="M157.7 20.4998C157.9 19.9998 158 19.4998 158 18.8998C158 18.3998 157.9 17.7998 157.6 17.2998C157.4 16.7998 157.1 16.3998 156.8 15.9998C156.5 15.5998 156 15.2998 155.6 15.0998C155.2 14.8998 154.7 14.7998 154.1 14.7998C153.5 14.7998 153 14.8998 152.5 15.0998C152 15.2998 151.6 15.5998 151.3 15.9998C150.9 16.3998 150.7 16.7998 150.5 17.2998C150.3 17.7998 150.2 18.2998 150.2 18.8998C150.2 19.4998 150.3 19.9998 150.5 20.4998C150.7 20.9998 151 21.3998 151.3 21.7998C151.6 22.1998 152 22.4998 152.5 22.6998C153 22.8998 153.5 22.9998 154.1 22.9998C154.7 22.9998 155.2 22.8998 155.7 22.6998C156.2 22.4998 156.6 22.1998 156.9 21.7998C157.3 21.3998 157.5 20.9998 157.7 20.4998ZM156.2 17.8998C156.3 18.1998 156.3 18.5998 156.3 18.8998C156.3 19.2998 156.3 19.5998 156.1 19.8998C156 20.1998 155.9 20.4998 155.7 20.6998C155.5 20.9998 155.3 21.1998 155 21.2998C154.8 21.3998 154.5 21.4998 154.1 21.4998C153.8 21.4998 153.5 21.3998 153.2 21.2998L152.6 20.6998C152.4 20.4998 152.3 20.1998 152.2 19.8998C152.1 19.5998 152.1 19.1998 152.1 18.8998C152.1 18.4998 152.1 18.1998 152.2 17.8998C152.3 17.5998 152.4 17.2998 152.6 17.0998C152.8 16.7998 153 16.5998 153.3 16.4998C153.5 16.3998 153.9 16.2998 154.2 16.2998C154.5 16.2998 154.8 16.3998 155.1 16.4998C155.4 16.6998 155.6 16.8998 155.8 17.0998C156 17.2998 156.1 17.5998 156.2 17.8998Z" fill="#D55897"/>
<path d="M165.4 22.7998C165.2 22.8998 165 22.9998 164.8 22.9998C164.6 22.9998 164.4 22.8998 164.2 22.7998C164 22.6998 164 22.3998 164 22.1998V16.4998H161.8V18.9998C161.8 19.2998 161.8 19.5998 161.7 19.9998C161.7 20.2998 161.6 20.5998 161.5 20.9998C161.4 21.2998 161.3 21.5998 161.1 21.8998C160.9 22.1998 160.8 22.3998 160.5 22.5998C160.3 22.7998 160.1 22.8998 159.9 22.9998C159.7 23.0998 159.5 23.1998 159.2 23.1998C158.9 23.1998 158.7 23.0998 158.6 22.9998C158.5 22.7998 158.4 22.6998 158.4 22.4998C158.4 22.2998 158.4 22.1998 158.5 21.9998C158.6 21.7998 158.8 21.7998 159 21.6998C159.1 21.5998 159.2 21.5998 159.4 21.3998C159.5 21.2998 159.6 21.0998 159.7 20.9998C159.8 20.7998 159.9 20.5998 159.9 20.3998C160 20.1998 160 19.8998 160 19.5998V16.0998C160 15.7998 160.1 15.5998 160.2 15.4998C160.4 15.3998 160.6 15.2998 160.8 15.2998H164.7C164.9 15.2998 165.1 15.3998 165.3 15.4998C165.5 15.5998 165.5 15.8998 165.5 16.0998V22.3998C165.7 22.3998 165.6 22.5998 165.4 22.7998Z" fill="#D55897"/>
<path fill-rule="evenodd" clip-rule="evenodd" d="M174.6 24.4001C174.7 24.3001 174.8 24.1001 174.8 23.8001H175V22.3001C175 22.1001 175 21.8001 174.8 21.7001C174.6 21.6001 174.4 21.5001 174.2 21.5001H174V15.9001C174 15.7001 174 15.4001 173.8 15.3001C173.6 15.2001 173.4 15.1001 173.2 15.1001H169.4C169.2 15.1001 169 15.2001 168.8 15.3001C168.7 15.4001 168.6 15.6001 168.6 15.9001V17.7001C168.6 18.1001 168.6 18.5001 168.5 18.9001C168.45 19.1001 168.425 19.3001 168.4 19.5001C168.375 19.7001 168.35 19.9001 168.3 20.1001C168.2 20.5001 168.1 20.8001 168 21.1001C167.9 21.4001 167.8 21.5001 167.7 21.5001C167.5 21.5001 167.3 21.6001 167.1 21.7001C167 21.8001 166.9 22.0001 166.9 22.3001V23.8001C166.9 24.0001 166.9 24.3001 167.1 24.4001C167.3 24.5001 167.5 24.6001 167.7 24.6001C167.9 24.6001 168.1 24.5001 168.3 24.4001C168.4 24.3001 168.5 24.1001 168.5 23.8001V22.9001H173.2V23.8001C173.2 24.0001 173.2 24.3001 173.4 24.4001C173.6 24.5001 173.8 24.6001 174 24.6001C174.2 24.6001 174.4 24.5001 174.6 24.4001ZM170.1 16.4001H172.1V21.4001H169.4C169.5 21.2001 169.6 20.9001 169.7 20.6001C169.754 20.4377 169.779 20.2753 169.806 20.097C169.829 19.946 169.854 19.7835 169.9 19.6001C169.9 19.4001 169.925 19.2251 169.95 19.0501C169.975 18.8751 170 18.7001 170 18.5001C170.1 18.1001 170.1 17.7001 170.1 17.4001V16.4001Z" fill="#D55897"/>
<path d="M182.5 22.7998C182.3 22.8998 182.1 22.9998 181.9 22.9998C181.7 22.9998 181.5 22.8998 181.3 22.7998C181.1 22.6998 181.1 22.3998 181.1 22.1998V17.9998L177.5 22.6998C177.4 22.7998 177.3 22.8998 177.2 22.9998C177.1 23.0998 176.9 23.0998 176.8 23.0998C176.6 23.0998 176.4 22.9998 176.2 22.8998C176 22.7998 176 22.4998 176 22.2998V15.8998C176 15.5998 176.1 15.3998 176.2 15.2998C176.4 15.1998 176.6 15.0998 176.8 15.0998C177 15.0998 177.2 15.1998 177.4 15.2998C177.6 15.3998 177.6 15.6998 177.6 15.8998V19.9998L181.2 15.1998C181.3 15.0998 181.4 14.9998 181.5 14.8998C181.6 14.7998 181.8 14.7998 181.9 14.7998C182.1 14.7998 182.3 14.8998 182.5 14.9998C182.7 15.0998 182.7 15.3998 182.7 15.5998V21.9998C182.8 22.3998 182.7 22.5998 182.5 22.7998Z" fill="#D55897"/>
<path d="M190.9 22.8C190.7 22.9 190.5 23 190.3 23C190.1 23 189.9 22.9 189.7 22.8C189.5 22.7 189.5 22.4 189.5 22.2V19.7H186V22.2C186 22.5 185.9 22.7 185.8 22.8C185.6 22.9 185.4 23 185.2 23C185 23 184.8 22.9 184.6 22.8C184.4 22.7 184.4 22.4 184.4 22.2V15.8C184.4 15.5 184.5 15.3 184.6 15.2C184.8 15.1 185 15 185.2 15C185.4 15 185.6 15.1 185.8 15.2C186 15.3 186 15.6 186 15.8V18.2H189.5V15.8C189.5 15.5 189.6 15.3 189.7 15.2C189.9 15.1 190.1 15 190.3 15C190.5 15 190.7 15.1 190.9 15.2C191.1 15.3 191.1 15.6 191.1 15.8V22.2C191.1 22.4 191 22.6 190.9 22.8Z" fill="#D55897"/>
<path d="M197.1 15.6998C197.1 15.8998 197 16.0998 196.9 16.1998C196.8 16.3998 196.6 16.3998 196.3 16.3998H194.3V21.9998C194.3 22.2998 194.2 22.4998 194.1 22.5998C193.9 22.6998 193.7 22.7998 193.5 22.7998C193.3 22.7998 193.1 22.6998 192.9 22.5998C192.7 22.4998 192.7 22.1998 192.7 21.9998V15.6998C192.7 15.4998 192.8 15.2998 192.9 15.0998C193 14.8998 193.3 14.7998 193.5 14.7998H196.3C196.5 14.7998 196.7 14.8998 196.9 14.9998C197.1 15.3998 197.1 15.4998 197.1 15.6998Z" fill="#D55897"/>
<path d="M208.7 30.6999H206.4V26.7999C206.4 25.5999 206.1 24.6999 205.4 23.9999C204.7 23.2999 203.8 22.8999 202.8 22.8999C201.7 22.8999 200.8 23.2999 200.2 23.9999C199.5 24.6999 199.2 25.6999 199.2 26.7999V30.6999H196.9C195.1 30.6999 193.7 32.0999 193.7 33.8999C193.7 35.6999 195.1 37.0999 196.9 37.0999H199.2V53.7999C199.2 54.9999 199.5 55.8999 200.2 56.5999C200.9 57.2999 201.8 57.6999 202.8 57.6999C203.9 57.6999 204.8 57.2999 205.4 56.5999C206.1 55.8999 206.4 54.8999 206.4 53.7999V37.0999H208.7C210.5 37.0999 211.9 35.6999 211.9 33.8999C211.9 32.0999 210.5 30.6999 208.7 30.6999Z" fill="#3A0B25"/>
</svg>
