<svg width="24" height="24" viewBox="0 0 24 24" fill="none" xmlns="http://www.w3.org/2000/svg">
<path fill-rule="evenodd" clip-rule="evenodd" d="M0 12C0 5.37085 5.37097 0 12 0C18.629 0 24 5.37085 24 12C24 18.6292 18.629 24 12 24C5.37097 24 0 18.6292 0 12ZM15.9242 17.5015L17.8935 8.22095C18.0677 7.40796 17.5984 7.08374 17.0613 7.27734L5.49193 11.7388C4.69838 12.0483 4.71291 12.4888 5.35645 12.6919L8.31773 13.616L15.1887 9.29028C15.5081 9.07739 15.8032 9.19824 15.5613 9.41113L10.0016 14.4338L9.78871 17.4871C10.0984 17.4871 10.2339 17.3516 10.3935 17.1919L11.8403 15.7983L14.8403 18.0095C15.3871 18.3193 15.779 18.1597 15.9242 17.5015Z" fill="#2DA4E1"/>
</svg>
