<svg width="23" height="24" viewBox="0 0 23 24" fill="none" xmlns="http://www.w3.org/2000/svg">
<path fill-rule="evenodd" clip-rule="evenodd" d="M12.2717 13.745C12.2717 13.745 12.6987 13.783 12.9277 13.498L13.3757 12.935C13.5917 12.655 14.1137 12.477 14.6247 12.761C15.3006 13.143 16.1746 13.743 16.7736 14.302C17.1036 14.58 17.1806 14.99 16.9556 15.423L16.9536 15.432C16.7216 15.84 16.4126 16.2229 16.0216 16.5799L16.0126 16.5859C15.5726 16.9529 15.0666 17.1659 14.5257 16.9899L14.5157 16.9759C13.5437 16.7009 11.2117 15.512 9.72573 14.327C7.29477 12.409 5.5668 9.24505 5.0888 7.54908L5.0738 7.53908C4.89781 6.99609 5.1128 6.4901 5.4778 6.0511L5.4848 6.04311C5.84179 5.65211 6.22379 5.34212 6.63278 5.11112L6.64178 5.10912C7.07377 4.88412 7.48377 4.96012 7.76276 5.29112C8.12976 5.67011 8.81874 6.5821 9.30274 7.44008C9.58673 7.95008 9.40874 8.47307 9.12974 8.68806L8.56575 9.13606C8.28175 9.36605 8.31875 9.79305 8.31875 9.79305C8.31875 9.79305 9.15274 12.949 12.2717 13.745ZM17.1786 11.129C17.0116 11.129 16.8756 10.994 16.8746 10.827C16.8606 8.99707 16.3106 7.53909 15.2406 6.49511C14.1687 5.45012 12.8137 4.91413 11.2137 4.90313C11.0457 4.90213 10.9107 4.76514 10.9127 4.59714C10.9137 4.43014 11.0487 4.29614 11.2157 4.29614H11.2177C12.9797 4.30814 14.4757 4.90213 15.6646 6.06011C16.8546 7.2221 17.4666 8.82507 17.4816 10.823C17.4826 10.99 17.3486 11.127 17.1806 11.129H17.1786ZM15.5836 10.5051H15.5766C15.4086 10.5011 15.2756 10.3621 15.2796 10.1951C15.3036 9.1571 15.0066 8.31711 14.3737 7.62612C13.7437 6.93714 12.8787 6.56114 11.7287 6.47714C11.5617 6.46414 11.4357 6.31915 11.4477 6.15215C11.4607 5.98515 11.6057 5.85915 11.7727 5.87115C13.0667 5.96615 14.0927 6.41914 14.8217 7.21613C15.5546 8.01612 15.9136 9.0231 15.8866 10.2081C15.8826 10.3731 15.7476 10.5051 15.5836 10.5051ZM14.0257 9.98316C13.8647 9.98316 13.7307 9.85717 13.7227 9.69417C13.6717 8.66418 13.1857 8.16019 12.1957 8.10619C12.0277 8.09719 11.8997 7.9542 11.9087 7.7872C11.9177 7.6192 12.0597 7.4912 12.2277 7.5002C13.5357 7.5702 14.2617 8.31919 14.3287 9.66417C14.3377 9.83117 14.2087 9.97416 14.0407 9.98216L14.0257 9.98316ZM20.8426 13.4521C20.2376 18.329 16.6706 18.637 16.0126 18.848C15.7326 18.938 13.1307 19.585 9.86074 19.372C9.86074 19.372 7.42278 22.3119 6.66179 23.0769C6.54279 23.1959 6.40379 23.2439 6.30979 23.2219C6.1788 23.1899 6.1428 23.0339 6.1448 22.8079L6.1648 18.792V18.791C1.40287 17.468 1.67987 12.4961 1.73387 9.89314C1.78787 7.29018 2.27686 5.15722 3.72983 3.72324C6.33979 1.35928 11.7167 1.71227 11.7167 1.71227C16.2576 1.73227 18.4336 3.09925 18.9386 3.55724C20.6136 4.99122 21.4666 8.42417 20.8426 13.4521ZM20.1906 2.33921C19.5936 1.79121 17.1836 0.0412423 11.8157 0.0172426C11.8157 0.0172426 5.4858 -0.364751 2.39985 2.4672C0.68188 4.18518 0.0778889 6.69814 0.0138899 9.81509C-0.0491091 12.933 -0.132108 18.7729 5.4978 20.3569L5.5038 20.3589L5.4998 22.7749C5.4998 22.7749 5.4648 23.7539 6.10879 23.9539C6.88778 24.1949 7.34477 23.4519 8.08976 22.6499C8.49776 22.2099 9.06075 21.5639 9.48674 21.0699C13.3377 21.3919 16.2986 20.6529 16.6356 20.5439C17.4126 20.2909 21.8125 19.7279 22.5285 13.887C23.2665 7.86512 22.1705 4.05718 20.1906 2.33921Z" fill="#8C50BD"/>
</svg>
