<svg width="23" height="20" viewBox="0 0 23 20" fill="none" xmlns="http://www.w3.org/2000/svg">
<path d="M21.3919 4.59766C21.5372 4.10937 21.3919 3.75 20.6933 3.75H18.3814C17.7926 3.75 17.5218 4.05859 17.3765 4.40234C17.3765 4.40234 16.199 7.25781 14.5348 9.10938C13.997 9.64453 13.7497 9.81641 13.4553 9.81641C13.3101 9.81641 13.0864 9.64453 13.0864 9.15625V4.59766C13.0864 4.01172 12.9215 3.75 12.4348 3.75H8.80015C8.43119 3.75 8.21138 4.02344 8.21138 4.27734C8.21138 4.83203 9.04351 4.96094 9.12986 6.52344V9.91406C9.12986 10.6562 8.99641 10.793 8.70202 10.793C7.917 10.793 6.00939 7.92578 4.87895 4.64453C4.6513 4.00781 4.42757 3.75 3.83487 3.75H1.52298C0.863557 3.75 0.730103 4.05859 0.730103 4.40234C0.730103 5.01172 1.51513 8.03906 4.38439 12.0391C6.29592 14.7695 8.98856 16.25 11.4378 16.25C12.9098 16.25 13.0903 15.9219 13.0903 15.3555C13.0903 12.7461 12.9569 12.5 13.6948 12.5C14.0363 12.5 14.625 12.6719 15.9988 13.9883C17.5689 15.5508 17.8279 16.25 18.7072 16.25H21.0191C21.6785 16.25 22.0121 15.9219 21.8198 15.2734C21.3802 13.9102 18.4088 11.1055 18.2754 10.918C17.9339 10.4805 18.032 10.2852 18.2754 9.89453C18.2793 9.89062 21.1015 5.9375 21.3919 4.59766Z" fill="white"/>
</svg>
