<svg width="22" height="14" viewBox="0 0 22 14" fill="none" xmlns="http://www.w3.org/2000/svg">
<path d="M18.84 9.31998C19.6738 10.0039 20.3841 10.8259 20.94 11.75C21.64 12.91 20.16 13 20.16 13H17.34C16.8358 13.0388 16.3355 12.8852 15.94 12.57C14.88 11.85 13.89 9.95998 13.11 10.21C12.33 10.46 12.35 12.15 12.35 12.15C12.3536 12.3468 12.294 12.5396 12.18 12.7C12.0162 12.8398 11.8141 12.9269 11.6 12.95H10.34C8.34584 12.9239 6.45048 12.0775 5.1 10.61C2.42 7.82998 0.0600027 2.29998 0.0600027 2.29998C0.0600027 2.29998 -0.0799973 1.93998 0.0700027 1.75998C0.220003 1.57998 0.690003 1.54998 0.690003 1.54998H3.69C3.86524 1.58262 4.03198 1.65067 4.18 1.74998C4.2929 1.84466 4.38197 1.96455 4.44 2.09998C4.77311 2.90044 5.15723 3.67871 5.59 4.42998C6.85 6.60998 7.44 7.08998 7.87 6.85998C8.49 6.51998 8.31 3.77998 8.31 3.77998C8.32506 3.28194 8.21866 2.78771 8 2.33998C7.75523 2.06741 7.41518 1.89918 7.05 1.86998C6.88 1.86998 7.16 1.44998 7.52 1.27998C8.37332 1.01538 9.27016 0.920262 10.16 0.999982C10.6579 0.981849 11.1559 1.03232 11.64 1.14998C12.64 1.39998 12.33 2.36998 12.33 4.69998C12.33 5.44998 12.2 6.48998 12.73 6.83998C12.96 6.98998 13.53 6.83998 14.94 4.45998C15.3936 3.67026 15.788 2.84801 16.12 1.99998C16.1805 1.8577 16.277 1.73362 16.4 1.63998C16.5268 1.57682 16.6694 1.55247 16.81 1.56998L20 1.54998C20 1.54998 21 1.43998 21.11 1.86998C21.22 2.29998 20.75 3.37998 19.46 5.10998C17.31 7.94998 17.07 7.67998 18.84 9.31998Z" fill="#4D76A1"/>
</svg>
