<svg width="23" height="20" viewBox="0 0 23 20" fill="none" xmlns="http://www.w3.org/2000/svg">
<path d="M21.4441 4.84699C21.1991 3.92316 20.4771 3.19559 19.5604 2.94867C17.8988 2.5 11.236 2.5 11.236 2.5C11.236 2.5 4.57324 2.5 2.91161 2.94867C1.9949 3.19563 1.27291 3.92316 1.02787 4.84699C0.582642 6.52148 0.582642 10.0152 0.582642 10.0152C0.582642 10.0152 0.582642 13.5088 1.02787 15.1833C1.27291 16.1071 1.9949 16.8044 2.91161 17.0513C4.57324 17.5 11.236 17.5 11.236 17.5C11.236 17.5 17.8988 17.5 19.5604 17.0513C20.4771 16.8044 21.1991 16.1071 21.4441 15.1833C21.8894 13.5088 21.8894 10.0152 21.8894 10.0152C21.8894 10.0152 21.8894 6.52148 21.4441 4.84699ZM9.05689 13.1871V6.84316L14.6257 10.0152L9.05689 13.1871Z" fill="white"/>
</svg>
