<svg width="252" height="54" viewBox="0 0 252 54" fill="none" xmlns="http://www.w3.org/2000/svg">
<path d="M165.394 43.1559C165.394 44.3948 165.42 45.4365 165.47 46.2809C165.521 47.1254 165.693 47.8182 165.991 48.3643C166.289 48.9104 166.745 49.3301 167.367 49.6285C167.989 49.9268 168.863 50.1493 170.006 50.296C170.304 50.3465 170.527 50.4831 170.674 50.7056C170.82 50.9281 170.896 51.191 170.896 51.4843C170.896 51.7321 170.82 51.9697 170.674 52.1922C170.527 52.4147 170.299 52.526 170.006 52.526C169.111 52.526 167.948 52.44 166.512 52.2681C165.071 52.0962 163.609 52.0051 162.123 52.0051C160.535 52.0051 158.988 52.0911 157.476 52.2681C155.964 52.44 154.512 52.526 153.127 52.526C152.879 52.526 152.682 52.4147 152.53 52.1922C152.383 51.9697 152.308 51.7321 152.308 51.4843C152.308 51.186 152.383 50.9281 152.53 50.7056C152.677 50.4831 152.899 50.3465 153.198 50.296C154.487 50.1493 155.488 49.9268 156.211 49.6285C156.929 49.3301 157.45 48.9205 157.774 48.3997C158.098 47.8789 158.28 47.2366 158.33 46.468C158.381 45.6994 158.406 44.7437 158.406 43.6059V31.6367C158.406 29.5078 158.355 27.7936 158.259 26.5092C158.158 25.2197 157.936 24.2437 157.592 23.5712C157.248 22.9037 156.727 22.4436 156.029 22.1958C155.337 21.948 154.396 21.7508 153.203 21.5991C152.904 21.5991 152.682 21.4777 152.535 21.2299C152.389 20.9822 152.313 20.7344 152.313 20.4866C152.313 20.2388 152.389 19.991 152.535 19.7433C152.682 19.4955 152.904 19.3741 153.203 19.3741C153.698 19.3236 154.305 19.273 155.023 19.2275C155.741 19.1769 156.495 19.1162 157.288 19.0404C158.082 18.9696 158.886 18.8685 159.706 18.742C160.525 18.6207 161.253 18.4791 161.9 18.3324C162.446 18.2313 162.876 18.1201 163.2 17.9987C163.523 17.8773 163.781 17.8116 163.979 17.8116C164.575 17.8116 164.954 17.9886 165.131 18.3324C165.303 18.6763 165.389 18.9999 165.389 19.2983V43.1559H165.394ZM161.45 10.2164C160.211 10.2164 159.144 9.83209 158.254 9.06347C157.364 8.29485 156.919 7.34419 156.919 6.20137C156.919 5.06361 157.339 4.09777 158.184 3.30387C159.028 2.50996 160.07 2.11554 161.309 2.11554C162.497 2.11554 163.478 2.52513 164.247 3.34432C165.015 4.16351 165.399 5.13946 165.399 6.28228C165.399 7.37453 165.03 8.30496 164.282 9.06853C163.534 9.83209 162.593 10.2164 161.45 10.2164Z" fill="white"/>
<path d="M185.712 43.1558C185.712 44.3947 185.738 45.4364 185.788 46.2809C185.839 47.1254 185.975 47.8181 186.198 48.3642C186.42 48.9104 186.794 49.3301 187.315 49.6284C187.836 49.9268 188.564 50.1493 189.51 50.2959C189.808 50.3465 190.031 50.483 190.177 50.7055C190.324 50.928 190.4 51.191 190.4 51.4842C190.4 51.732 190.324 51.9697 190.177 52.1922C190.031 52.4147 189.808 52.5259 189.51 52.5259C189.014 52.5259 188.084 52.44 186.724 52.268C185.358 52.0961 183.932 52.0051 182.451 52.0051C180.863 52.0051 179.326 52.091 177.839 52.268C176.352 52.44 174.962 52.5259 173.677 52.5259C173.43 52.5259 173.232 52.4147 173.081 52.1922C172.934 51.9697 172.858 51.732 172.858 51.4842C172.858 51.1859 172.934 50.928 173.081 50.7055C173.227 50.483 173.45 50.3465 173.748 50.2959C174.987 50.1493 175.943 49.947 176.61 49.6992C177.278 49.4514 177.773 49.0772 178.097 48.5817C178.421 48.0861 178.603 47.4439 178.653 46.65C178.704 45.8561 178.729 44.8397 178.729 43.6008V34.2307C178.729 31.8035 178.704 29.7808 178.653 28.1728C178.603 26.5647 178.431 25.2854 178.132 24.3448C177.834 23.4043 177.364 22.7469 176.721 22.3727C176.079 21.9985 175.159 21.8165 173.971 21.8165C173.672 21.8165 173.44 21.7153 173.263 21.5181C173.091 21.3209 173.005 21.0984 173.005 20.8506C173.005 20.5523 173.091 20.3045 173.263 20.1073C173.435 19.9101 173.672 19.809 173.971 19.809C174.911 19.809 176.287 19.6623 178.097 19.364C179.907 19.0656 181.753 18.6459 183.634 18.0998C184.327 17.9026 184.848 18.0391 185.197 18.5094C185.54 18.9797 185.717 19.5157 185.717 20.1073V23.0807C185.717 23.1818 185.753 23.2425 185.829 23.2677C185.905 23.293 185.965 23.2576 186.016 23.1565C186.36 22.6104 186.845 22.0036 187.467 21.3361C188.089 20.6686 188.832 20.0365 189.697 19.4398C190.562 18.8431 191.543 18.3476 192.635 17.9531C193.722 17.5587 194.941 17.3564 196.281 17.3564C199.998 17.3564 202.91 18.388 205.019 20.441C207.122 22.4991 208.179 25.8315 208.179 30.4432V43.1558C208.179 44.4959 208.215 45.5831 208.291 46.4275C208.366 47.272 208.538 47.9496 208.811 48.4704C209.084 48.9913 209.504 49.3857 210.076 49.6588C210.642 49.9318 211.451 50.1442 212.493 50.2909C212.791 50.3414 213.014 50.478 213.16 50.7005C213.307 50.923 213.383 51.1859 213.383 51.4792C213.383 51.727 213.307 51.9646 213.16 52.1871C213.014 52.4096 212.791 52.5209 212.493 52.5209C211.845 52.5209 210.794 52.4349 209.332 52.263C207.871 52.0911 206.394 52 204.908 52C203.32 52 201.808 52.086 200.372 52.263C198.936 52.4349 197.742 52.5209 196.802 52.5209C196.554 52.5209 196.357 52.4096 196.205 52.1871C196.058 51.9646 195.983 51.727 195.983 51.4792C195.983 51.1808 196.058 50.923 196.205 50.7005C196.352 50.478 196.574 50.3414 196.873 50.2909C197.96 50.1442 198.794 49.9217 199.365 49.6234C199.932 49.325 200.357 48.9154 200.63 48.3946C200.903 47.8738 201.065 47.2315 201.115 46.4629C201.166 45.6943 201.186 44.7386 201.186 43.6008V32.2991C201.186 31.0602 201.135 29.8213 201.039 28.5824C200.938 27.3435 200.665 26.231 200.22 25.2348C199.775 24.2437 199.128 23.4245 198.288 22.7823C197.444 22.1401 196.281 21.8165 194.794 21.8165C193.308 21.8165 192.008 22.0541 190.89 22.5244C189.773 22.9947 188.832 23.6268 188.064 24.4207C187.295 25.2146 186.714 26.145 186.314 27.212C185.915 28.279 185.717 29.4066 185.717 30.5949V43.1558H185.712Z" fill="white"/>
<path d="M250.994 52.5209C250.201 52.4703 249.397 52.4198 248.577 52.3743C247.758 52.3237 246.904 52.2984 246.014 52.2984C245.022 52.2984 244.041 52.3338 243.076 52.4097C242.11 52.4804 241.205 52.5209 240.36 52.5209C240.016 52.5209 239.764 52.3945 239.617 52.1518C239.47 51.904 239.369 51.6815 239.319 51.4843C238.919 49.4009 238.267 47.4591 237.351 45.6488C236.431 43.8385 235.379 42.2406 234.191 40.8551C233.003 39.4695 231.723 38.3773 230.363 37.5834C228.998 36.7895 227.648 36.395 226.313 36.395V42.1951C226.313 43.6312 226.338 44.8246 226.388 45.7651C226.439 46.7057 226.601 47.4743 226.874 48.071C227.147 48.6677 227.582 49.138 228.174 49.4818C228.77 49.8307 229.635 50.1038 230.778 50.301C231.076 50.3516 231.299 50.4982 231.445 50.746C231.592 50.9938 231.668 51.2416 231.668 51.4893C231.668 51.7371 231.592 51.9748 231.445 52.1973C231.299 52.4198 231.076 52.531 230.778 52.531C229.387 52.531 228.123 52.4451 226.985 52.2731C225.842 52.1012 224.533 52.0102 223.046 52.0102C221.458 52.0102 219.896 52.0961 218.363 52.2731C216.826 52.4451 215.264 52.531 213.681 52.531C213.433 52.531 213.236 52.4198 213.084 52.1973C212.938 51.9748 212.862 51.7371 212.862 51.4893C212.862 51.191 212.933 50.9331 213.084 50.7106C213.231 50.4881 213.458 50.3516 213.752 50.301C215.137 50.1544 216.214 49.9319 216.988 49.6335C217.757 49.3352 218.313 48.9256 218.662 48.4047C219.011 47.8839 219.208 47.2417 219.259 46.4731C219.309 45.7044 219.334 44.7487 219.334 43.611V14.3781C219.334 12.2492 219.284 10.5501 219.188 9.28595C219.087 8.02177 218.819 7.04583 218.369 6.348C217.924 5.65523 217.251 5.18495 216.361 4.93717C215.466 4.68939 214.227 4.49218 212.644 4.34048C212.397 4.34048 212.209 4.21912 212.088 3.97134C211.962 3.72356 211.891 3.47578 211.866 3.228C211.84 2.98022 211.891 2.73244 212.012 2.48466C212.134 2.23688 212.346 2.11552 212.644 2.11552C214.429 2.01439 216.401 1.86775 218.556 1.67053C220.71 1.47332 222.707 1.10418 224.543 0.552997C225.236 0.355785 225.696 0.391182 225.918 0.664245C226.141 0.937308 226.277 1.22048 226.328 1.51883V33.1941C227.268 32.5974 228.158 31.9299 229.003 31.1866C229.842 30.4433 230.611 29.6746 231.309 28.8807C232.001 28.0868 232.644 27.3182 233.24 26.5749C233.837 25.8315 234.358 25.1893 234.803 24.6432C235.794 23.3537 236.229 22.4233 236.102 21.857C235.976 21.2855 235.121 20.9518 233.539 20.8507C233.291 20.8507 233.094 20.7293 232.942 20.4815C232.795 20.2338 232.72 19.986 232.72 19.7382C232.72 19.4398 232.795 19.182 232.942 18.9595C233.089 18.737 233.291 18.6257 233.539 18.6257C234.333 18.6257 235.01 18.651 235.582 18.7016C236.148 18.7521 236.669 18.8128 237.144 18.8887C237.614 18.9645 238.075 19.0252 238.52 19.0758C238.965 19.1263 239.485 19.1516 240.082 19.1516C241.22 19.1516 242.388 19.0656 243.576 18.8937C244.765 18.7218 245.933 18.6308 247.07 18.6308C247.268 18.6308 247.445 18.742 247.591 18.9645C247.738 19.187 247.814 19.45 247.814 19.7432C247.814 19.991 247.753 20.2287 247.627 20.4512C247.5 20.6737 247.318 20.8102 247.07 20.8608C246.079 20.9619 245.26 21.1086 244.618 21.3058C243.976 21.503 243.379 21.7761 242.833 22.125C242.287 22.4739 241.766 22.8835 241.27 23.3537C240.775 23.824 240.178 24.3853 239.485 25.0275C239.04 25.427 238.444 25.9681 237.7 26.6659C236.957 27.3587 236.153 28.0919 235.283 28.8605C234.414 29.6291 233.574 30.3624 232.755 31.0551C231.936 31.7479 231.233 32.3193 230.636 32.7643C230.439 32.9109 230.363 33.0626 230.414 33.2093C230.464 33.3559 230.56 33.4318 230.712 33.4318C232.694 33.5329 234.343 33.8667 235.657 34.4381C236.972 35.0095 238.075 35.7275 238.965 36.5922C239.855 37.462 240.613 38.4379 241.23 39.5302C241.852 40.6224 242.469 41.7501 243.091 42.9131C243.713 44.0812 244.406 45.219 245.174 46.3365C245.943 47.4541 246.924 48.4806 248.112 49.4211C248.456 49.6689 248.891 49.8661 249.412 50.0178C249.933 50.1645 250.464 50.2656 251.01 50.3162C251.308 50.3162 251.53 50.4426 251.677 50.6853C251.824 50.9331 251.9 51.2062 251.9 51.5045C251.9 51.7523 251.824 51.9899 251.677 52.2124C251.515 52.4097 251.293 52.5209 250.994 52.5209Z" fill="white"/>
<path d="M117.082 2.40881C116.289 2.40881 115.793 2.54535 115.596 2.81841C115.399 3.09147 115.297 3.34936 115.297 3.59714C115.393 5.3316 115.373 7.16719 115.222 9.09885C115.075 11.0305 114.873 12.942 114.625 14.8231C114.574 15.1214 114.675 15.3439 114.923 15.4905C115.171 15.6372 115.444 15.713 115.742 15.713C116.086 15.713 116.41 15.6625 116.708 15.5664C117.007 15.4703 117.178 15.2933 117.229 15.0456C117.725 13.1645 118.306 11.612 118.979 10.3984C119.646 9.18482 120.491 8.21898 121.507 7.50093C122.523 6.78288 123.747 6.28732 125.188 6.01426C126.624 5.74119 128.339 5.60466 130.321 5.60466H136.151L138.108 2.40881H117.082Z" fill="white"/>
<path d="M150.679 37.3153C150.406 37.1434 150.098 37.0524 149.749 37.0524C149.451 37.0524 149.142 37.1181 148.818 37.2395C148.495 37.3659 148.308 37.5985 148.262 37.9474C147.665 40.4758 147.033 42.4732 146.366 43.9346C145.698 45.396 144.844 46.4983 143.802 47.2417C142.76 47.985 141.471 48.4553 139.934 48.6525C138.397 48.8497 136.44 48.9508 134.058 48.9508H124.02C123.621 48.9508 123.373 48.7638 123.277 48.3946C123.176 48.0255 123.252 47.6412 123.499 47.2417L149.006 4.86131C149.4 4.16854 149.476 3.58702 149.228 3.11169C148.98 2.64141 148.586 2.40375 148.04 2.40375H144.065L113.659 52.1467H148.935C149.531 52.1467 149.875 51.8736 149.976 51.3275C150.078 50.7814 150.123 50.2403 150.123 49.6942C150.174 47.5147 150.26 45.4819 150.386 43.5958C150.507 41.7147 150.72 39.8285 151.018 37.9474C151.064 37.6997 150.952 37.4923 150.679 37.3153Z" fill="white"/>
<path d="M8.03938 12.0014C8.03938 13.4881 8.34784 14.7421 8.96981 15.7585C9.59179 16.7749 10.3806 17.6295 11.3515 18.3223C12.3174 19.0151 13.3843 19.6219 14.5474 20.1427C15.7104 20.6636 16.8381 21.1692 17.9303 21.6648C19.8165 22.5598 21.6875 23.5004 23.5433 24.4915C25.4042 25.4826 27.0729 26.6355 28.5595 27.9503C30.0462 29.265 31.2497 30.8276 32.165 32.6379C33.0803 34.4482 33.5404 36.6428 33.5404 39.2167C33.5404 41.7956 33.0095 43.9649 31.9425 45.7247C30.8755 47.4844 29.49 48.9205 27.7808 50.038C26.0716 51.1556 24.1501 51.9596 22.0162 52.4552C19.8822 52.9507 17.7533 53.1985 15.6245 53.1985C14.2339 53.1985 12.6764 52.9861 10.9419 52.5664C9.20748 52.1467 7.61967 51.5146 6.18356 50.6701C5.93578 50.5741 5.69812 50.4729 5.47562 50.3718C5.25313 50.2706 4.96489 50.2251 4.62104 50.2251C4.27212 50.2251 3.90298 50.3718 3.5035 50.6701C3.10402 50.9685 2.76017 51.4893 2.46182 52.2327C2.31517 52.531 2.11291 52.7282 1.86513 52.8293C1.61735 52.9254 1.3544 52.9659 1.08639 52.9406C0.813328 52.9153 0.590833 52.8293 0.418905 52.6776C0.246976 52.531 0.161011 52.354 0.161011 52.1568C0.307656 51.0645 0.444188 49.8914 0.570606 48.6272C0.691967 47.363 0.757704 46.0887 0.757704 44.7993C0.757704 43.5098 0.722308 42.2203 0.646457 40.9359C0.570606 39.6465 0.434074 38.3064 0.236862 36.9209C0.186295 36.6226 0.28743 36.3748 0.535209 36.1776C0.782988 35.9804 1.05605 35.8691 1.3544 35.8438C1.65274 35.8185 1.93592 35.8691 2.20898 35.9905C2.48205 36.1169 2.64386 36.3242 2.69443 36.6226C2.99277 38.6554 3.5389 40.5011 4.32775 42.1597C5.12165 43.8233 6.11277 45.2341 7.3011 46.3972C8.48943 47.5602 9.83957 48.4654 11.3515 49.1127C12.8635 49.7549 14.512 50.0785 16.297 50.0785C17.637 50.0785 18.9113 49.8914 20.1249 49.5223C21.3386 49.1531 22.4156 48.607 23.3612 47.8889C24.3018 47.1709 25.0451 46.291 25.5913 45.2493C26.1374 44.2076 26.4104 42.994 26.4104 41.6034C26.4104 39.8184 26.0261 38.2559 25.2575 36.9159C24.4889 35.5809 23.5332 34.4279 22.3954 33.4571C21.2526 32.4912 19.9884 31.6467 18.6029 30.9287C17.2123 30.2106 15.9026 29.5533 14.6637 28.9566C13.0253 28.2132 11.392 27.4446 9.75867 26.6507C8.12029 25.8568 6.6589 24.9011 5.36943 23.7886C4.07997 22.6711 3.03829 21.3361 2.24438 19.7736C1.45048 18.211 1.05605 16.2693 1.05605 13.9381C1.05605 11.5564 1.54149 9.56405 2.50733 7.95096C3.47316 6.33787 4.74746 5.03829 6.33527 4.04717C7.92308 3.05606 9.72832 2.338 11.7611 1.89301C13.7939 1.44802 15.8975 1.22552 18.082 1.22552C19.4676 1.22552 20.6458 1.31149 21.6116 1.48847C22.5774 1.6604 23.6545 1.94864 24.8429 2.34306C25.4851 2.54027 26.0211 2.70209 26.4408 2.8285C26.8605 2.95492 27.2701 3.0156 27.6696 3.0156C28.2663 3.0156 28.686 2.76782 28.9337 2.27227C29.0298 2.07505 29.2169 1.93852 29.49 1.86267C29.763 1.78682 30.0209 1.76659 30.2687 1.78682C30.5165 1.8121 30.739 1.87278 30.9362 1.97392C31.1334 2.07505 31.2093 2.2217 31.1587 2.41891C30.9109 3.31395 30.7491 4.20393 30.6733 5.09392C30.5974 5.9839 30.562 6.9295 30.562 7.92062C30.562 9.21008 30.6379 10.3731 30.7845 11.4148C30.9311 12.4565 31.0576 13.6954 31.1536 15.1315C31.1536 15.2781 31.0525 15.4197 30.8553 15.5411C30.6581 15.6675 30.4204 15.7383 30.1524 15.7636C29.8793 15.7889 29.6164 15.7535 29.3737 15.6523C29.1259 15.5563 28.9742 15.3793 28.9287 15.1315C28.4331 12.9521 27.887 11.1519 27.2903 9.74104C26.6936 8.33022 25.9553 7.22279 25.0603 6.43395C24.1703 5.64004 23.0882 5.09897 21.8291 4.80063C20.5649 4.50228 19.0377 4.35563 17.2578 4.35563C16.0189 4.35563 14.8407 4.51745 13.7282 4.84108C12.6107 5.16471 11.6347 5.6451 10.7902 6.29236C9.94576 6.93456 9.27828 7.74364 8.78272 8.70947C8.28716 9.66013 8.03938 10.7625 8.03938 12.0014Z" fill="white"/>
<path d="M64.3409 44.1217C64.3409 45.8561 64.5027 47.0697 64.8263 47.7676C65.15 48.4654 65.7821 48.8092 66.7226 48.8092C67.2687 48.8092 67.7137 48.7486 68.0626 48.6221C68.4065 48.5008 68.9021 48.2378 69.5493 47.8434C69.696 47.7473 69.8578 47.7473 70.0348 47.8434C70.2067 47.9445 70.3584 48.0811 70.4798 48.253C70.6011 48.4249 70.6921 48.6221 70.7377 48.8497C70.7882 49.0722 70.7377 49.2593 70.591 49.4059C68.6593 51.7371 66.3788 52.9001 63.7493 52.9001C62.3132 52.9001 61.0844 52.5158 60.068 51.7472C59.0516 50.9786 58.2931 50.0734 57.8026 49.0317C57.7014 48.784 57.5548 48.7587 57.3576 48.9559C56.0681 50.0987 54.5663 51.0393 52.8571 51.7826C51.1479 52.5259 49.0039 52.9001 46.4249 52.9001C43.5982 52.9001 41.4188 52.1467 39.8816 50.6347C38.3443 49.1228 37.5757 46.9787 37.5757 44.2026C37.5757 40.6325 39.2343 37.8968 42.5566 35.9854C45.8788 34.079 50.708 33.1233 57.0542 33.1233C57.1553 33.1233 57.2261 33.0019 57.2767 32.7491C57.3272 32.5013 57.3525 31.9299 57.3525 31.0399V29.0324C57.3525 27.7935 57.2514 26.6305 57.0542 25.5382C56.857 24.446 56.5232 23.4953 56.0529 22.6761C55.5827 21.8569 54.9253 21.2147 54.0808 20.7444C53.2363 20.2742 52.1947 20.0365 50.9558 20.0365C49.1202 20.0365 47.6335 20.3955 46.4957 21.1136C45.3529 21.8316 44.7866 22.7621 44.7866 23.8998C44.7866 24.446 44.9585 24.9769 45.3074 25.4978C45.6563 26.0186 45.8282 26.5496 45.8282 27.0957C45.8282 27.7885 45.4793 28.461 44.7866 29.1032C44.0887 29.7454 43.2493 30.069 42.2582 30.069C40.9182 30.069 39.9625 29.71 39.3961 28.992C38.8247 28.2739 38.5415 27.394 38.5415 26.3524C38.5415 25.1135 38.8904 23.9352 39.5832 22.8228C40.276 21.7052 41.2216 20.7546 42.4099 19.9607C43.5982 19.1668 44.9888 18.5347 46.5716 18.0644C48.1594 17.5941 49.818 17.3564 51.5525 17.3564C55.5169 17.3564 58.642 18.2717 60.9226 20.1073C63.2031 21.9429 64.3409 24.9921 64.3409 29.2498V44.1217ZM57.3525 36.7591C57.3525 36.213 57.3272 35.8792 57.2767 35.7528C57.2261 35.6314 57.0997 35.5657 56.9025 35.5657C52.8369 35.9095 49.8281 36.7692 47.8661 38.1295C45.9092 39.4948 44.9282 41.2393 44.9282 43.3733C44.9282 44.8599 45.3024 46.114 46.0457 47.1254C46.789 48.1418 48.0279 48.6525 49.7624 48.6525C50.9001 48.6525 52.1036 48.43 53.3678 47.985C54.632 47.54 55.7597 46.8927 56.7508 46.0533C57.1452 45.6589 57.3475 45.2594 57.3475 44.865V36.7591H57.3525Z" fill="white"/>
<path d="M77.1445 14.3781C77.1445 12.2492 77.0939 10.5501 76.9978 9.28595C76.8967 8.02177 76.6489 7.04583 76.2545 6.348C75.855 5.65523 75.2482 5.18495 74.4341 4.93717C73.6149 4.68939 72.4872 4.49218 71.0511 4.34048C70.8033 4.34048 70.6162 4.21912 70.4898 3.97134C70.3634 3.72356 70.2926 3.47578 70.2673 3.228C70.242 2.98022 70.2926 2.73244 70.414 2.48466C70.5353 2.23688 70.7477 2.11552 71.0461 2.11552C72.5327 2.01439 74.3279 1.86775 76.4365 1.67053C78.5401 1.47332 80.5122 1.10418 82.3478 0.552997C83.0406 0.355785 83.5008 0.391182 83.7233 0.664245C83.9458 0.937308 84.0823 1.22048 84.1329 1.51883V43.1559C84.1329 44.3948 84.1581 45.4364 84.2087 46.2809C84.2593 47.1254 84.4413 47.8182 84.7649 48.3643C85.0886 48.9104 85.6044 49.3301 86.3275 49.6285C87.0455 49.9268 88.0468 50.1493 89.3413 50.2959C89.6396 50.3465 89.8621 50.483 90.0088 50.7055C90.1554 50.928 90.2313 51.191 90.2313 51.4843C90.2313 51.7321 90.1605 51.9697 90.0088 52.1922C89.8621 52.4147 89.6346 52.526 89.3413 52.526C88.1529 52.526 86.8129 52.44 85.3262 52.2681C83.8396 52.0961 82.3529 52.0051 80.8662 52.0051C79.2784 52.0051 77.7159 52.0911 76.1837 52.2681C74.6464 52.44 73.0839 52.526 71.5012 52.526C71.2534 52.526 71.0562 52.4147 70.9045 52.1922C70.7578 51.9697 70.682 51.7321 70.682 51.4843C70.682 51.1859 70.7578 50.928 70.9045 50.7055C71.0511 50.483 71.2736 50.3465 71.572 50.2959C72.9575 50.1493 74.0346 49.9268 74.8032 49.6285C75.5718 49.3301 76.1281 48.9205 76.477 48.3997C76.8208 47.8788 77.0231 47.2366 77.0737 46.468C77.1242 45.6994 77.1495 44.7437 77.1495 43.6059V14.3781H77.1445Z" fill="white"/>
<path d="M105.361 43.1559C105.361 44.3948 105.386 45.4365 105.437 46.2809C105.487 47.1254 105.659 47.8182 105.958 48.3643C106.256 48.9104 106.711 49.3301 107.333 49.6285C107.955 49.9268 108.83 50.1493 109.973 50.296C110.271 50.3465 110.494 50.4831 110.64 50.7056C110.787 50.9281 110.863 51.191 110.863 51.4843C110.863 51.7321 110.787 51.9697 110.64 52.1922C110.494 52.4147 110.266 52.526 109.973 52.526C109.078 52.526 107.915 52.44 106.478 52.2681C105.037 52.0962 103.576 52.0051 102.089 52.0051C100.501 52.0051 98.9541 52.0911 97.4421 52.2681C95.9302 52.44 94.4789 52.526 93.0934 52.526C92.8456 52.526 92.6484 52.4147 92.4967 52.1922C92.35 51.9697 92.2742 51.7321 92.2742 51.4843C92.2742 51.186 92.35 50.9281 92.4967 50.7056C92.6433 50.4831 92.8658 50.3465 93.1641 50.296C94.4536 50.1493 95.4548 49.9268 96.178 49.6285C96.896 49.3301 97.4169 48.9205 97.7405 48.3997C98.0641 47.8789 98.2462 47.2366 98.2967 46.468C98.3473 45.6994 98.3726 44.7437 98.3726 43.6059V31.6367C98.3726 29.5078 98.322 27.7936 98.2259 26.5092C98.1248 25.2197 97.9023 24.2437 97.5584 23.5712C97.2146 22.9037 96.6937 22.4436 95.9959 22.1958C95.3031 21.948 94.3626 21.7508 93.1692 21.5991C92.8709 21.5991 92.6484 21.4777 92.5017 21.2299C92.3551 20.9822 92.2792 20.7344 92.2792 20.4866C92.2792 20.2388 92.3551 19.991 92.5017 19.7433C92.6484 19.4955 92.8709 19.3741 93.1692 19.3741C93.6648 19.3236 94.2716 19.273 94.9896 19.2275C95.7077 19.1769 96.4611 19.1162 97.255 19.0404C98.0489 18.9696 98.853 18.8685 99.6722 18.742C100.491 18.6207 101.22 18.4791 101.867 18.3324C102.413 18.2313 102.843 18.1201 103.166 17.9987C103.49 17.8773 103.748 17.8116 103.945 17.8116C104.542 17.8116 104.921 17.9886 105.098 18.3324C105.27 18.6763 105.356 18.9999 105.356 19.2983V43.1559H105.361ZM101.422 10.2164C100.183 10.2164 99.1159 9.83209 98.2259 9.06347C97.3359 8.29485 96.891 7.34419 96.891 6.20137C96.891 5.06361 97.3107 4.09777 98.1551 3.30387C98.9996 2.50996 100.041 2.11554 101.28 2.11554C102.469 2.11554 103.45 2.52513 104.218 3.34432C104.987 4.16351 105.371 5.13946 105.371 6.28228C105.371 7.37453 105.002 8.30496 104.254 9.06853C103.505 9.83209 102.565 10.2164 101.422 10.2164Z" fill="white"/>
<path d="M212.189 52.5209C212.189 52.5209 212.761 52.526 213.302 52.526C213.843 52.526 214.52 52.5209 214.52 52.5209V50.2302C214.52 50.2302 214.171 50.3263 213.221 50.3263C212.27 50.3263 211.77 50.1898 211.77 50.1898L212.189 52.5209Z" fill="white"/>
</svg>
