<svg width="122" height="38" viewBox="0 0 122 38" fill="none" xmlns="http://www.w3.org/2000/svg">
<g clip-path="url(#clip0_372_355)">
<path d="M11.2354 32C4.42843 32 0.212646 28.3451 0.212646 22.3136V16.8213C0.212646 10.6998 4.42843 7 11.2354 7C18.0424 7 22.2126 10.6998 22.2126 16.8213V22.3136C22.2126 28.3451 17.9968 32 11.2354 32ZM11.2354 25.8336C13.6899 25.8336 15.0311 24.6004 15.0311 22.3385V16.8462C15.0311 14.5644 13.6899 13.2363 11.2354 13.2363C8.78086 13.2363 7.4397 14.5644 7.4397 16.8462V22.3385C7.42452 24.6004 8.78086 25.8336 11.2354 25.8336Z" fill="white"/>
<path d="M40.1472 7.00183C46.4977 7.00183 50.2113 10.2907 50.2113 17.2277V29.7642C50.2226 29.9731 50.1591 30.1793 50.032 30.3464C49.905 30.5135 49.7226 30.6307 49.5169 30.6775C46.4309 31.5463 43.2394 31.9913 40.0315 32C33.4043 32 29.2126 29.5346 29.2126 24.1447C29.2126 19.3936 32.9866 17.0231 39.2515 17.0231C40.5609 17.0353 41.8684 17.1269 43.1665 17.2975V16.8384C43.1665 14.4179 42.2909 13.0954 39.2968 13.0954C37.306 13.0914 35.3394 13.5279 33.5402 14.373C33.4529 14.4372 33.3523 14.4814 33.2457 14.5024C33.139 14.5234 33.0291 14.5206 32.9237 14.4944C32.8182 14.4681 32.72 14.419 32.6361 14.3506C32.5521 14.2821 32.4845 14.196 32.4381 14.0985L30.5461 10.5352C30.3196 10.0811 30.3196 9.76166 30.6417 9.53708C33.511 7.83223 36.8027 6.95431 40.1472 7.00183ZM40.0516 26.3156C41.1063 26.2991 42.1566 26.1771 43.1866 25.9513V21.9339C42.1371 21.7471 41.0726 21.6552 40.0063 21.6594C37.4903 21.6594 36.3682 22.4828 36.3682 23.9401C36.3682 25.5421 37.8426 26.3156 40.0516 26.3156Z" fill="white"/>
<path d="M66.9802 32C63.6323 31.9912 60.3656 30.955 57.6107 29.028C57.5127 28.9763 57.4274 28.903 57.361 28.8135C57.2947 28.7241 57.2489 28.6207 57.2272 28.511C57.2054 28.4013 57.2082 28.288 57.2353 28.1796C57.2624 28.0711 57.3132 27.9701 57.3839 27.8841L59.5043 24.2278C59.8199 23.7283 60.1356 23.6334 60.5892 23.953C62.4827 25.2874 64.7328 26.0053 67.0394 26.011C68.9379 26.011 70.2447 25.3716 70.2447 24.1828C70.2447 22.994 68.7999 22.5844 66.995 22.2647C62.0637 21.4406 58.0644 19.3377 58.0644 14.5424C58.0644 9.51248 61.9404 7 67.8531 7C70.6482 7.00887 73.396 7.73217 75.8418 9.10289C75.9422 9.14431 76.0316 9.2091 76.1027 9.29204C76.1738 9.37497 76.2246 9.4737 76.251 9.58023C76.2775 9.68676 76.2787 9.7981 76.2547 9.90522C76.2308 10.0123 76.1822 10.1122 76.113 10.1968L74.0369 13.7632C73.9932 13.8628 73.9286 13.9515 73.8475 14.0231C73.7665 14.0948 73.671 14.1476 73.5677 14.1781C73.4644 14.2085 73.3558 14.2158 73.2495 14.1993C73.1432 14.1829 73.0417 14.1432 72.952 14.0829C71.3363 13.2277 69.5429 12.774 67.7199 12.7592C65.777 12.7592 64.8302 13.3037 64.8302 14.4475C64.8302 15.7263 65.8707 16.0959 68.7752 16.5504C73.4698 17.3746 77.2127 19.3377 77.2127 24.003C77.1782 29.3476 73.4353 32 66.9802 32Z" fill="white"/>
<path d="M110.993 32C107.64 31.9912 104.368 30.955 101.608 29.028C101.51 28.9758 101.425 28.9022 101.36 28.8125C101.294 28.7229 101.248 28.6194 101.227 28.5097C101.206 28.4001 101.209 28.287 101.236 28.1787C101.264 28.0704 101.315 27.9698 101.386 27.8841L103.51 24.2278C103.826 23.7283 104.142 23.6334 104.592 23.953C106.49 25.2884 108.745 26.0063 111.057 26.011C112.954 26.011 114.263 25.3716 114.263 24.1828C114.263 22.994 112.821 22.5844 111.013 22.2647C106.074 21.4406 102.063 19.3377 102.063 14.5424C102.063 9.51248 105.95 7 111.868 7C114.667 7.00887 117.42 7.73217 119.869 9.10289C119.971 9.14344 120.061 9.20781 120.133 9.29066C120.205 9.37352 120.256 9.47248 120.283 9.57938C120.309 9.68627 120.31 9.79803 120.286 9.90539C120.261 10.0128 120.212 10.1126 120.141 10.1968L118.062 13.7632C118.018 13.8628 117.953 13.9515 117.872 14.0231C117.791 14.0948 117.695 14.1476 117.592 14.1781C117.488 14.2085 117.379 14.2158 117.273 14.1993C117.166 14.1829 117.065 14.1432 116.975 14.0829C115.346 13.2223 113.537 12.7684 111.7 12.7592C109.758 12.7592 108.805 13.3037 108.805 14.4475C108.805 15.7263 109.847 16.0959 112.757 16.5504C117.459 17.3746 121.213 19.3377 121.213 24.003C121.208 29.3476 117.454 32 110.993 32Z" fill="white"/>
<path d="M93.1532 0.164345L86.2163 5.69021C85.9979 5.85447 85.7935 6.03578 85.6051 6.23235C85.3464 6.50119 85.2056 6.85822 85.2129 7.2271V36.9354C85.2129 37.5372 85.4013 38.3529 86.2723 37.8357L93.2144 32.3098C93.4303 32.1444 93.6329 31.9632 93.8205 31.7677C94.0731 31.505 94.2134 31.1581 94.2127 30.7978V1.06461C94.2127 0.462785 94.0242 -0.352926 93.1532 0.164345Z" fill="white"/>
</g>
<defs>
<clipPath id="clip0_372_355">
<rect width="121" height="38" fill="white" transform="translate(0.212646)"/>
</clipPath>
</defs>
</svg>
